%TF.GenerationSoftware,KiCad,Pcbnew,9.0.9-9.0.9~ubuntu24.04.1*%
%TF.CreationDate,2026-05-08T14:31:49+02:00*%
%TF.ProjectId,HiveScale_V0,48697665-5363-4616-9c65-5f56302e6b69,rev?*%
%TF.SameCoordinates,Original*%
%TF.FileFunction,Copper,L2,Bot*%
%TF.FilePolarity,Positive*%
%FSLAX46Y46*%
G04 Gerber Fmt 4.6, Leading zero omitted, Abs format (unit mm)*
G04 Created by KiCad (PCBNEW 9.0.9-9.0.9~ubuntu24.04.1) date 2026-05-08 14:31:49*
%MOMM*%
%LPD*%
G01*
G04 APERTURE LIST*
G04 Aperture macros list*
%AMRoundRect*
0 Rectangle with rounded corners*
0 $1 Rounding radius*
0 $2 $3 $4 $5 $6 $7 $8 $9 X,Y pos of 4 corners*
0 Add a 4 corners polygon primitive as box body*
4,1,4,$2,$3,$4,$5,$6,$7,$8,$9,$2,$3,0*
0 Add four circle primitives for the rounded corners*
1,1,$1+$1,$2,$3*
1,1,$1+$1,$4,$5*
1,1,$1+$1,$6,$7*
1,1,$1+$1,$8,$9*
0 Add four rect primitives between the rounded corners*
20,1,$1+$1,$2,$3,$4,$5,0*
20,1,$1+$1,$4,$5,$6,$7,0*
20,1,$1+$1,$6,$7,$8,$9,0*
20,1,$1+$1,$8,$9,$2,$3,0*%
G04 Aperture macros list end*
%TA.AperFunction,ComponentPad*%
%ADD10C,2.000000*%
%TD*%
%TA.AperFunction,ComponentPad*%
%ADD11RoundRect,0.250000X0.750000X-0.750000X0.750000X0.750000X-0.750000X0.750000X-0.750000X-0.750000X0*%
%TD*%
%TA.AperFunction,ComponentPad*%
%ADD12R,1.700000X1.700000*%
%TD*%
%TA.AperFunction,ComponentPad*%
%ADD13C,1.700000*%
%TD*%
%TA.AperFunction,ComponentPad*%
%ADD14RoundRect,0.250000X-0.750000X0.750000X-0.750000X-0.750000X0.750000X-0.750000X0.750000X0.750000X0*%
%TD*%
%TA.AperFunction,ComponentPad*%
%ADD15C,1.600000*%
%TD*%
%TA.AperFunction,ViaPad*%
%ADD16C,0.600000*%
%TD*%
%TA.AperFunction,Conductor*%
%ADD17C,0.250000*%
%TD*%
%TA.AperFunction,Conductor*%
%ADD18C,2.000000*%
%TD*%
%TA.AperFunction,Conductor*%
%ADD19C,1.699800*%
%TD*%
G04 APERTURE END LIST*
D10*
%TO.P,J15,4,Pin_4*%
%TO.N,/GPIO22*%
X235000000Y-129380000D03*
%TO.P,J15,3,Pin_3*%
%TO.N,/GPIO21*%
X235000000Y-131920000D03*
%TO.P,J15,2,Pin_2*%
%TO.N,GND*%
X235000000Y-134460000D03*
D11*
%TO.P,J15,1,Pin_1*%
%TO.N,/3.3V*%
X235000000Y-137000000D03*
%TD*%
%TO.P,J12,1,Pin_1*%
%TO.N,Net-(J12-Pin_1)*%
X235500000Y-103000000D03*
D10*
%TO.P,J12,2,Pin_2*%
X235500000Y-100460000D03*
%TO.P,J12,3,Pin_3*%
%TO.N,Net-(J12-Pin_3)*%
X235500000Y-97920000D03*
%TO.P,J12,4,Pin_4*%
X235500000Y-95380000D03*
%TO.P,J12,5,Pin_5*%
%TO.N,Net-(J12-Pin_5)*%
X235500000Y-92840000D03*
%TO.P,J12,6,Pin_6*%
X235500000Y-90300000D03*
%TO.P,J12,7,Pin_7*%
%TO.N,Net-(J12-Pin_7)*%
X235500000Y-87760000D03*
%TO.P,J12,8,Pin_8*%
X235500000Y-85220000D03*
%TO.P,J12,9,Pin_9*%
%TO.N,Net-(J12-Pin_9)*%
X235500000Y-82680000D03*
%TO.P,J12,10,Pin_10*%
%TO.N,Net-(J12-Pin_10)*%
X235500000Y-80140000D03*
%TO.P,J12,11,Pin_11*%
%TO.N,Net-(J12-Pin_11)*%
X235500000Y-77600000D03*
%TO.P,J12,12,Pin_12*%
%TO.N,Net-(J12-Pin_12)*%
X235500000Y-75060000D03*
%TD*%
D12*
%TO.P,J19,1,Pin_1*%
%TO.N,+5V*%
X135810000Y-66475000D03*
D13*
%TO.P,J19,2,Pin_2*%
X138350000Y-66475000D03*
%TD*%
D11*
%TO.P,J14,1,Pin_1*%
%TO.N,/3.3V*%
X235000000Y-124000000D03*
D10*
%TO.P,J14,2,Pin_2*%
%TO.N,GND*%
X235000000Y-121460000D03*
%TO.P,J14,3,Pin_3*%
%TO.N,/GPIO4*%
X235000000Y-118920000D03*
%TD*%
D12*
%TO.P,J1,1,Pin_1*%
%TO.N,unconnected-(J1-Pin_1-Pad1)*%
X179700000Y-97010000D03*
D13*
%TO.P,J1,2,Pin_2*%
%TO.N,GND*%
X179700000Y-99550000D03*
%TO.P,J1,3,Pin_3*%
%TO.N,/GPIO15*%
X179700000Y-102090000D03*
%TO.P,J1,4,Pin_4*%
%TO.N,/GPIO2*%
X179700000Y-104630000D03*
%TO.P,J1,5,Pin_5*%
%TO.N,/GPIO4*%
X179700000Y-107170000D03*
%TO.P,J1,6,Pin_6*%
%TO.N,/GPIO16*%
X179700000Y-109710000D03*
%TO.P,J1,7,Pin_7*%
%TO.N,/GPIO17*%
X179700000Y-112250000D03*
%TO.P,J1,8,Pin_8*%
%TO.N,/GPIO5*%
X179700000Y-114790000D03*
%TO.P,J1,9,Pin_9*%
%TO.N,/GPIO18*%
X179700000Y-117330000D03*
%TO.P,J1,10,Pin_10*%
%TO.N,/GPIO19*%
X179700000Y-119870000D03*
%TO.P,J1,11,Pin_11*%
%TO.N,/GPIO21*%
X179700000Y-122410000D03*
%TO.P,J1,12,Pin_12*%
%TO.N,/ESP32-RX0*%
X179700000Y-124950000D03*
%TO.P,J1,13,Pin_13*%
%TO.N,/ESP32-TX0*%
X179700000Y-127490000D03*
%TO.P,J1,14,Pin_14*%
%TO.N,/GPIO22*%
X179700000Y-130030000D03*
%TO.P,J1,15,Pin_15*%
%TO.N,/GPIO23*%
X179700000Y-132570000D03*
%TD*%
D14*
%TO.P,J10,1,Pin_1*%
%TO.N,GND*%
X124500000Y-81960000D03*
D10*
%TO.P,J10,2,Pin_2*%
%TO.N,+5V*%
X124500000Y-84500000D03*
%TD*%
D12*
%TO.P,J18,1,Pin_1*%
%TO.N,GND*%
X123110000Y-44500000D03*
D13*
%TO.P,J18,2,Pin_2*%
X125650000Y-44500000D03*
%TD*%
D12*
%TO.P,J22,1,Pin_1*%
%TO.N,GND*%
X147100000Y-99800000D03*
D13*
%TO.P,J22,2,Pin_2*%
%TO.N,/GPIO25*%
X144560000Y-99800000D03*
%TO.P,J22,3,Pin_3*%
%TO.N,/GPIO26*%
X142020000Y-99800000D03*
%TO.P,J22,4,Pin_4*%
%TO.N,/GPIO14*%
X139480000Y-99800000D03*
%TO.P,J22,5,Pin_5*%
%TO.N,/3.3V*%
X136940000Y-99800000D03*
%TO.P,J22,6,Pin_6*%
%TO.N,GND*%
X134400000Y-99800000D03*
%TO.P,J22,7,Pin_7*%
%TO.N,unconnected-(J22-Pin_7-Pad7)*%
X131860000Y-99800000D03*
%TD*%
D12*
%TO.P,J9,1,Pin_1*%
%TO.N,GND*%
X167000000Y-132000000D03*
D13*
%TO.P,J9,2,Pin_2*%
%TO.N,/3.3V*%
X167000000Y-129460000D03*
%TO.P,J9,3,Pin_3*%
%TO.N,/GPIO23*%
X167000000Y-126920000D03*
%TO.P,J9,4,Pin_4*%
%TO.N,/GPIO19*%
X167000000Y-124380000D03*
%TO.P,J9,5,Pin_5*%
%TO.N,/GPIO18*%
X167000000Y-121840000D03*
%TO.P,J9,6,Pin_6*%
%TO.N,/GPIO5*%
X167000000Y-119300000D03*
%TD*%
D12*
%TO.P,J16,1,Pin_1*%
%TO.N,/3.3V*%
X149175000Y-62000000D03*
D13*
%TO.P,J16,2,Pin_2*%
%TO.N,GND*%
X151715000Y-62000000D03*
%TO.P,J16,3,Pin_3*%
%TO.N,/GPIO22*%
X154255000Y-62000000D03*
%TO.P,J16,4,Pin_4*%
%TO.N,/GPIO21*%
X156795000Y-62000000D03*
%TO.P,J16,5,Pin_5*%
%TO.N,Net-(J16-Pin_5)*%
X159335000Y-62000000D03*
%TO.P,J16,6,Pin_6*%
%TO.N,Net-(J16-Pin_6)*%
X161875000Y-62000000D03*
%TD*%
D12*
%TO.P,J5,1,Pin_1*%
%TO.N,/GPIO22*%
X167000000Y-106120000D03*
D13*
%TO.P,J5,2,Pin_2*%
%TO.N,/GPIO21*%
X167000000Y-103580000D03*
%TO.P,J5,3,Pin_3*%
%TO.N,/3.3V*%
X167000000Y-101040000D03*
%TO.P,J5,4,Pin_4*%
%TO.N,GND*%
X167000000Y-98500000D03*
%TD*%
D11*
%TO.P,J11,1,Pin_1*%
%TO.N,Net-(J11-Pin_1)*%
X235500000Y-70660000D03*
D10*
%TO.P,J11,2,Pin_2*%
X235500000Y-68120000D03*
%TO.P,J11,3,Pin_3*%
%TO.N,Net-(J11-Pin_3)*%
X235500000Y-65580000D03*
%TO.P,J11,4,Pin_4*%
X235500000Y-63040000D03*
%TO.P,J11,5,Pin_5*%
%TO.N,Net-(J11-Pin_5)*%
X235500000Y-60500000D03*
%TO.P,J11,6,Pin_6*%
X235500000Y-57960000D03*
%TO.P,J11,7,Pin_7*%
%TO.N,Net-(J11-Pin_7)*%
X235500000Y-55420000D03*
%TO.P,J11,8,Pin_8*%
X235500000Y-52880000D03*
%TO.P,J11,9,Pin_9*%
%TO.N,Net-(J11-Pin_9)*%
X235500000Y-50340000D03*
%TO.P,J11,10,Pin_10*%
%TO.N,Net-(J11-Pin_10)*%
X235500000Y-47800000D03*
%TO.P,J11,11,Pin_11*%
%TO.N,Net-(J11-Pin_11)*%
X235500000Y-45260000D03*
%TO.P,J11,12,Pin_12*%
%TO.N,Net-(J11-Pin_12)*%
X235500000Y-42720000D03*
%TD*%
D12*
%TO.P,J20,1,Pin_1*%
%TO.N,/3.3V*%
X175925000Y-65475000D03*
D13*
%TO.P,J20,2,Pin_2*%
%TO.N,GND*%
X178465000Y-65475000D03*
%TO.P,J20,3,Pin_3*%
%TO.N,/GPIO22*%
X181005000Y-65475000D03*
%TO.P,J20,4,Pin_4*%
%TO.N,/GPIO21*%
X183545000Y-65475000D03*
%TO.P,J20,5,Pin_5*%
%TO.N,unconnected-(J20-Pin_5-Pad5)*%
X186085000Y-65475000D03*
%TO.P,J20,6,Pin_6*%
%TO.N,unconnected-(J20-Pin_6-Pad6)*%
X188625000Y-65475000D03*
%TD*%
D12*
%TO.P,J6,1,Pin_1*%
%TO.N,GND*%
X123110000Y-66250000D03*
D13*
%TO.P,J6,2,Pin_2*%
X125650000Y-66250000D03*
%TD*%
D11*
%TO.P,J13,1,Pin_1*%
%TO.N,/3.3V*%
X235250000Y-113500000D03*
D10*
%TO.P,J13,2,Pin_2*%
%TO.N,GND*%
X235250000Y-110960000D03*
%TO.P,J13,3,Pin_3*%
%TO.N,/GPIO4*%
X235250000Y-108420000D03*
%TD*%
D12*
%TO.P,J21,1,Pin_1*%
%TO.N,Net-(J17-Pin_2)*%
X189960000Y-43000000D03*
D13*
%TO.P,J21,2,Pin_2*%
%TO.N,Net-(J17-Pin_1)*%
X192500000Y-43000000D03*
%TD*%
D15*
%TO.P,R1,1*%
%TO.N,/3.3V*%
X214880000Y-116000000D03*
%TO.P,R1,2*%
%TO.N,/GPIO4*%
X222500000Y-116000000D03*
%TD*%
D12*
%TO.P,J8,1,Pin_1*%
%TO.N,Net-(J12-Pin_9)*%
X224550000Y-79250000D03*
D13*
%TO.P,J8,2,Pin_2*%
%TO.N,Net-(J12-Pin_10)*%
X224550000Y-76710000D03*
%TO.P,J8,3,Pin_3*%
%TO.N,Net-(J12-Pin_11)*%
X224550000Y-74170000D03*
%TO.P,J8,4,Pin_4*%
%TO.N,Net-(J12-Pin_12)*%
X224550000Y-71630000D03*
%TO.P,J8,5,Pin_5*%
%TO.N,unconnected-(J8-Pin_5-Pad5)*%
X224550000Y-69090000D03*
%TO.P,J8,6,Pin_6*%
%TO.N,unconnected-(J8-Pin_6-Pad6)*%
X224550000Y-66550000D03*
%TD*%
D12*
%TO.P,J4,1,Pin_1*%
%TO.N,/3.3V*%
X199125000Y-46915000D03*
D13*
%TO.P,J4,2,Pin_2*%
%TO.N,/GPIO17*%
X199125000Y-49455000D03*
%TO.P,J4,3,Pin_3*%
%TO.N,/GPIO16*%
X199125000Y-51995000D03*
%TO.P,J4,4,Pin_4*%
%TO.N,GND*%
X199125000Y-54535000D03*
%TD*%
D12*
%TO.P,J17,1,Pin_1*%
%TO.N,Net-(J17-Pin_1)*%
X152740000Y-89975000D03*
D13*
%TO.P,J17,2,Pin_2*%
%TO.N,Net-(J17-Pin_2)*%
X150200000Y-89975000D03*
%TO.P,J17,3,Pin_3*%
%TO.N,Net-(J16-Pin_5)*%
X147660000Y-89975000D03*
%TO.P,J17,4,Pin_4*%
%TO.N,Net-(J16-Pin_6)*%
X145120000Y-89975000D03*
%TD*%
D12*
%TO.P,J7,1,Pin_1*%
%TO.N,Net-(J11-Pin_9)*%
X224525000Y-57075000D03*
D13*
%TO.P,J7,2,Pin_2*%
%TO.N,Net-(J11-Pin_10)*%
X224525000Y-54535000D03*
%TO.P,J7,3,Pin_3*%
%TO.N,Net-(J11-Pin_11)*%
X224525000Y-51995000D03*
%TO.P,J7,4,Pin_4*%
%TO.N,Net-(J11-Pin_12)*%
X224525000Y-49455000D03*
%TO.P,J7,5,Pin_5*%
%TO.N,unconnected-(J7-Pin_5-Pad5)*%
X224525000Y-46915000D03*
%TO.P,J7,6,Pin_6*%
%TO.N,unconnected-(J7-Pin_6-Pad6)*%
X224525000Y-44375000D03*
%TD*%
D12*
%TO.P,J3,1,Pin_1*%
%TO.N,/3.3V*%
X199150000Y-69090000D03*
D13*
%TO.P,J3,2,Pin_2*%
%TO.N,/GPIO33*%
X199150000Y-71630000D03*
%TO.P,J3,3,Pin_3*%
%TO.N,/GPIO32*%
X199150000Y-74170000D03*
%TO.P,J3,4,Pin_4*%
%TO.N,GND*%
X199150000Y-76710000D03*
%TD*%
D12*
%TO.P,J23,1,Pin_1*%
%TO.N,/3.3V*%
X135810000Y-44500000D03*
D13*
%TO.P,J23,2,Pin_2*%
X138350000Y-44500000D03*
%TD*%
D12*
%TO.P,J2,1,Pin_1*%
%TO.N,/3.3V*%
X205100000Y-97010000D03*
D13*
%TO.P,J2,2,Pin_2*%
%TO.N,GND*%
X205100000Y-99550000D03*
%TO.P,J2,3,Pin_3*%
%TO.N,/GPIO13*%
X205100000Y-102090000D03*
%TO.P,J2,4,Pin_4*%
%TO.N,/GPIO12*%
X205100000Y-104630000D03*
%TO.P,J2,5,Pin_5*%
%TO.N,/GPIO14*%
X205100000Y-107170000D03*
%TO.P,J2,6,Pin_6*%
%TO.N,/GPIO27*%
X205100000Y-109710000D03*
%TO.P,J2,7,Pin_7*%
%TO.N,/GPIO26*%
X205100000Y-112250000D03*
%TO.P,J2,8,Pin_8*%
%TO.N,/GPIO25*%
X205100000Y-114790000D03*
%TO.P,J2,9,Pin_9*%
%TO.N,/GPIO33*%
X205100000Y-117330000D03*
%TO.P,J2,10,Pin_10*%
%TO.N,/GPIO32*%
X205100000Y-119870000D03*
%TO.P,J2,11,Pin_11*%
%TO.N,/GPIO35*%
X205100000Y-122410000D03*
%TO.P,J2,12,Pin_12*%
%TO.N,/GPIO34*%
X205100000Y-124950000D03*
%TO.P,J2,13,Pin_13*%
%TO.N,unconnected-(J2-Pin_13-Pad13)*%
X205100000Y-127490000D03*
%TO.P,J2,14,Pin_14*%
%TO.N,unconnected-(J2-Pin_14-Pad14)*%
X205100000Y-130030000D03*
%TO.P,J2,15,Pin_15*%
%TO.N,/EN_ESP32*%
X205100000Y-132570000D03*
%TD*%
D12*
%TO.P,SW1,1,1*%
%TO.N,GND*%
X223525000Y-93750000D03*
D13*
%TO.P,SW1,2,2*%
%TO.N,/GPIO27*%
X223525000Y-96290000D03*
%TD*%
D16*
%TO.N,GND*%
X206000000Y-45500000D03*
X206000000Y-54500000D03*
X218500000Y-54500000D03*
X218500000Y-46000000D03*
X229500000Y-61500000D03*
%TO.N,/GPIO14*%
X199000000Y-104500000D03*
%TO.N,/GPIO22*%
X171226500Y-102129200D03*
%TO.N,/GPIO21*%
X170674200Y-103580000D03*
%TD*%
D17*
%TO.N,/GPIO14*%
X199000000Y-104771701D02*
X199000000Y-104500000D01*
X179213299Y-123585000D02*
X180186701Y-123585000D01*
X169423299Y-133375000D02*
X179213299Y-123585000D01*
X164328756Y-133375000D02*
X169423299Y-133375000D01*
X180186701Y-123585000D02*
X199000000Y-104771701D01*
X139500000Y-108546244D02*
X164328756Y-133375000D01*
X139480000Y-99800000D02*
X139480000Y-99980000D01*
X139500000Y-100000000D02*
X139500000Y-108546244D01*
X139480000Y-99980000D02*
X139500000Y-100000000D01*
X139480000Y-99800000D02*
X139480000Y-99520000D01*
X139480000Y-99520000D02*
X139500000Y-99500000D01*
D18*
%TO.N,GND*%
X235000000Y-134460000D02*
X235000000Y-134500000D01*
X235000000Y-134500000D02*
X237000000Y-134500000D01*
X237000000Y-134500000D02*
X237559400Y-133940600D01*
X237559400Y-133940600D02*
X237559400Y-119579100D01*
%TO.N,/3.3V*%
X214880000Y-123880000D02*
X214880000Y-135380000D01*
X214880000Y-135380000D02*
X216500000Y-137000000D01*
X216500000Y-137000000D02*
X235000000Y-137000000D01*
X214880000Y-123880000D02*
X215000000Y-124000000D01*
X214880000Y-116000000D02*
X214880000Y-123880000D01*
X215000000Y-124000000D02*
X235000000Y-124000000D01*
D17*
%TO.N,Net-(J17-Pin_1)*%
X171703300Y-63796700D02*
X192500000Y-43000000D01*
X171703300Y-69835000D02*
X171703300Y-63796700D01*
X152740000Y-88798300D02*
X171703300Y-69835000D01*
X152740000Y-89975000D02*
X152740000Y-88798300D01*
D18*
%TO.N,GND*%
X196840600Y-56819400D02*
X199125000Y-54535000D01*
X196840600Y-74833900D02*
X196840600Y-56819400D01*
X198716700Y-76710000D02*
X196840600Y-74833900D01*
X199150000Y-76710000D02*
X198716700Y-76710000D01*
X166318100Y-98500000D02*
X167000000Y-98500000D01*
X164746900Y-100071200D02*
X166318100Y-98500000D01*
X164746900Y-131848600D02*
X164746900Y-100071200D01*
X164898300Y-132000000D02*
X164746900Y-131848600D01*
X167000000Y-132000000D02*
X164898300Y-132000000D01*
X147100000Y-99800000D02*
X147100000Y-97698300D01*
X123110000Y-66250000D02*
X123110000Y-44500000D01*
X135965000Y-97698300D02*
X147100000Y-97698300D01*
X134400000Y-99263300D02*
X134400000Y-99800000D01*
X135965000Y-97698300D02*
X134400000Y-99263300D01*
X135965000Y-92778100D02*
X135965000Y-97698300D01*
X124823500Y-81636500D02*
X135965000Y-92778100D01*
X124500000Y-81960000D02*
X124823500Y-81636500D01*
X125650000Y-80810000D02*
X125650000Y-66250000D01*
X124823500Y-81636500D02*
X125650000Y-80810000D01*
X234536000Y-110960000D02*
X235250000Y-110960000D01*
X225626700Y-102050700D02*
X234536000Y-110960000D01*
X225626700Y-93750000D02*
X225626700Y-102050700D01*
X223525000Y-93750000D02*
X225626700Y-93750000D01*
X235678500Y-121460000D02*
X235000000Y-121460000D01*
X237559400Y-119579100D02*
X235678500Y-121460000D01*
X237559400Y-112139800D02*
X237559400Y-119579100D01*
X236379600Y-110960000D02*
X237559400Y-112139800D01*
X235250000Y-110960000D02*
X236379600Y-110960000D01*
D17*
%TO.N,Net-(J16-Pin_6)*%
X161875000Y-73220000D02*
X161875000Y-62000000D01*
X145120000Y-89975000D02*
X161875000Y-73220000D01*
%TO.N,Net-(J16-Pin_5)*%
X143900700Y-77434300D02*
X159335000Y-62000000D01*
X143900700Y-90508600D02*
X143900700Y-77434300D01*
X144600800Y-91208700D02*
X143900700Y-90508600D01*
X146426300Y-91208700D02*
X144600800Y-91208700D01*
X147660000Y-89975000D02*
X146426300Y-91208700D01*
%TO.N,Net-(J12-Pin_7)*%
X235500000Y-85220000D02*
X235500000Y-87760000D01*
%TO.N,Net-(J12-Pin_3)*%
X235500000Y-95380000D02*
X235500000Y-97920000D01*
%TO.N,Net-(J12-Pin_1)*%
X235500000Y-100460000D02*
X235500000Y-103000000D01*
%TO.N,Net-(J12-Pin_5)*%
X235500000Y-90300000D02*
X235500000Y-92840000D01*
%TO.N,Net-(J11-Pin_3)*%
X235500000Y-63040000D02*
X235500000Y-65580000D01*
%TO.N,Net-(J11-Pin_1)*%
X235500000Y-68120000D02*
X235500000Y-70660000D01*
%TO.N,Net-(J11-Pin_7)*%
X235500000Y-52880000D02*
X235500000Y-55420000D01*
%TO.N,Net-(J11-Pin_5)*%
X235500000Y-57960000D02*
X235500000Y-60500000D01*
%TO.N,/GPIO32*%
X200526700Y-75546700D02*
X199150000Y-74170000D01*
X200526700Y-115296700D02*
X200526700Y-75546700D01*
X205100000Y-119870000D02*
X200526700Y-115296700D01*
%TO.N,/GPIO33*%
X203642900Y-115872900D02*
X205100000Y-117330000D01*
X203642900Y-76122900D02*
X203642900Y-115872900D01*
X199150000Y-71630000D02*
X203642900Y-76122900D01*
D18*
%TO.N,/3.3V*%
X207201700Y-108321700D02*
X214880000Y-116000000D01*
X207201700Y-97010000D02*
X207201700Y-108321700D01*
X205100000Y-97010000D02*
X207201700Y-97010000D01*
X199125000Y-46915000D02*
X201226700Y-46915000D01*
X199150000Y-69090000D02*
X199150000Y-66988300D01*
D19*
X167439800Y-129020200D02*
X167000000Y-129460000D01*
X168605400Y-129020200D02*
X167439800Y-129020200D01*
D18*
X138350000Y-49073300D02*
X138350000Y-44500000D01*
X149175000Y-59898300D02*
X138350000Y-49073300D01*
X149175000Y-62000000D02*
X149175000Y-59898300D01*
X167000000Y-101040000D02*
X167262500Y-101040000D01*
X169101700Y-128523900D02*
X168605400Y-129020200D01*
X169101700Y-102616700D02*
X169101700Y-128523900D01*
X167525000Y-101040000D02*
X169101700Y-102616700D01*
X167262500Y-101040000D02*
X167525000Y-101040000D01*
X192383300Y-46915000D02*
X199125000Y-46915000D01*
X175925000Y-63373300D02*
X192383300Y-46915000D01*
X175925000Y-65475000D02*
X175925000Y-63373300D01*
X201376700Y-64761600D02*
X199150000Y-66988300D01*
X201376700Y-47065000D02*
X201376700Y-64761600D01*
X201226700Y-46915000D02*
X201376700Y-47065000D01*
X205100000Y-72938300D02*
X205100000Y-97010000D01*
X199150000Y-66988300D02*
X205100000Y-72938300D01*
X167644400Y-101040000D02*
X167262500Y-101040000D01*
X169251700Y-99432700D02*
X167644400Y-101040000D01*
X169251700Y-77152600D02*
X169251700Y-99432700D01*
X175925000Y-70479300D02*
X169251700Y-77152600D01*
X175925000Y-65475000D02*
X175925000Y-70479300D01*
D17*
%TO.N,/GPIO17*%
X178420500Y-110970500D02*
X179700000Y-112250000D01*
X178420500Y-77629500D02*
X178420500Y-110970500D01*
X192823900Y-63226100D02*
X178420500Y-77629500D01*
X192823900Y-55756100D02*
X192823900Y-63226100D01*
X199125000Y-49455000D02*
X192823900Y-55756100D01*
%TO.N,/GPIO22*%
X171226500Y-77139700D02*
X171226500Y-102129200D01*
X181005000Y-67361200D02*
X171226500Y-77139700D01*
X181005000Y-65475000D02*
X181005000Y-67361200D01*
%TO.N,/GPIO16*%
X193327200Y-57792800D02*
X199125000Y-51995000D01*
X193327200Y-96082800D02*
X193327200Y-57792800D01*
X179700000Y-109710000D02*
X193327200Y-96082800D01*
%TO.N,Net-(J17-Pin_2)*%
X189960000Y-43000000D02*
X189960000Y-44176700D01*
X165727100Y-74447900D02*
X150200000Y-89975000D01*
X165727100Y-68409600D02*
X165727100Y-74447900D01*
X189960000Y-44176700D02*
X165727100Y-68409600D01*
%TO.N,/GPIO21*%
X170675800Y-113385800D02*
X170675800Y-103580000D01*
X179700000Y-122410000D02*
X170675800Y-113385800D01*
X170675800Y-103580000D02*
X170674200Y-103580000D01*
X177279100Y-71740900D02*
X183545000Y-65475000D01*
X177279100Y-96976700D02*
X177279100Y-71740900D01*
X170675800Y-103580000D02*
X177279100Y-96976700D01*
%TD*%
%TA.AperFunction,Conductor*%
%TO.N,GND*%
G36*
X239442539Y-40520185D02*
G01*
X239488294Y-40572989D01*
X239499500Y-40624500D01*
X239499500Y-139375500D01*
X239479815Y-139442539D01*
X239427011Y-139488294D01*
X239375500Y-139499500D01*
X210624000Y-139499500D01*
X210556961Y-139479815D01*
X210511206Y-139427011D01*
X210500000Y-139375500D01*
X210500000Y-118000000D01*
X206472974Y-118000000D01*
X206405935Y-117980315D01*
X206360180Y-117927511D01*
X206350236Y-117858353D01*
X206355043Y-117837682D01*
X206417246Y-117646243D01*
X206450500Y-117436287D01*
X206450500Y-117223713D01*
X206417246Y-117013757D01*
X206351557Y-116811588D01*
X206255051Y-116622184D01*
X206255049Y-116622181D01*
X206255048Y-116622179D01*
X206130109Y-116450213D01*
X205979786Y-116299890D01*
X205807820Y-116174951D01*
X205807115Y-116174591D01*
X205799054Y-116170485D01*
X205748259Y-116122512D01*
X205731463Y-116054692D01*
X205753999Y-115988556D01*
X205799054Y-115949515D01*
X205807816Y-115945051D01*
X205873061Y-115897648D01*
X205979786Y-115820109D01*
X205979788Y-115820106D01*
X205979792Y-115820104D01*
X206130104Y-115669792D01*
X206130106Y-115669788D01*
X206130109Y-115669786D01*
X206255048Y-115497820D01*
X206255047Y-115497820D01*
X206255051Y-115497816D01*
X206351557Y-115308412D01*
X206417246Y-115106243D01*
X206450500Y-114896287D01*
X206450500Y-114683713D01*
X206417246Y-114473757D01*
X206351557Y-114271588D01*
X206255051Y-114082184D01*
X206255049Y-114082181D01*
X206255048Y-114082179D01*
X206130109Y-113910213D01*
X205979786Y-113759890D01*
X205807820Y-113634951D01*
X205807115Y-113634591D01*
X205799054Y-113630485D01*
X205748259Y-113582512D01*
X205731463Y-113514692D01*
X205753999Y-113448556D01*
X205799054Y-113409515D01*
X205807816Y-113405051D01*
X205829789Y-113389086D01*
X205979786Y-113280109D01*
X205979788Y-113280106D01*
X205979792Y-113280104D01*
X206130104Y-113129792D01*
X206130106Y-113129788D01*
X206130109Y-113129786D01*
X206255048Y-112957820D01*
X206255047Y-112957820D01*
X206255051Y-112957816D01*
X206351557Y-112768412D01*
X206417246Y-112566243D01*
X206450500Y-112356287D01*
X206450500Y-112143713D01*
X206417246Y-111933757D01*
X206351557Y-111731588D01*
X206255051Y-111542184D01*
X206255049Y-111542181D01*
X206255048Y-111542179D01*
X206130109Y-111370213D01*
X205979786Y-111219890D01*
X205807820Y-111094951D01*
X205807115Y-111094591D01*
X205799054Y-111090485D01*
X205748259Y-111042512D01*
X205731463Y-110974692D01*
X205753999Y-110908556D01*
X205799054Y-110869515D01*
X205807816Y-110865051D01*
X205839616Y-110841947D01*
X205979786Y-110740109D01*
X205979788Y-110740106D01*
X205979792Y-110740104D01*
X206130104Y-110589792D01*
X206130106Y-110589788D01*
X206130109Y-110589786D01*
X206255048Y-110417820D01*
X206255047Y-110417820D01*
X206255051Y-110417816D01*
X206351557Y-110228412D01*
X206417246Y-110026243D01*
X206429351Y-109949814D01*
X206459280Y-109886681D01*
X206518591Y-109849749D01*
X206588454Y-109850747D01*
X206639505Y-109881532D01*
X213343181Y-116585208D01*
X213376666Y-116646531D01*
X213379500Y-116672889D01*
X213379500Y-135498097D01*
X213416446Y-135731368D01*
X213489433Y-135955996D01*
X213561382Y-136097203D01*
X213596657Y-136166434D01*
X213735483Y-136357510D01*
X215522490Y-138144517D01*
X215713566Y-138283343D01*
X215830081Y-138342710D01*
X215830085Y-138342712D01*
X215924003Y-138390566D01*
X215924005Y-138390566D01*
X215924008Y-138390568D01*
X216044412Y-138429689D01*
X216148631Y-138463553D01*
X216381903Y-138500500D01*
X216381908Y-138500500D01*
X235128082Y-138500500D01*
X235128094Y-138500499D01*
X235800002Y-138500499D01*
X235800008Y-138500499D01*
X235902797Y-138489999D01*
X236069334Y-138434814D01*
X236218656Y-138342712D01*
X236342712Y-138218656D01*
X236434814Y-138069334D01*
X236489999Y-137902797D01*
X236500500Y-137800009D01*
X236500500Y-137030289D01*
X236500500Y-136881908D01*
X236500500Y-136874313D01*
X236500499Y-136874295D01*
X236500499Y-136199998D01*
X236500498Y-136199981D01*
X236489999Y-136097203D01*
X236489998Y-136097200D01*
X236434814Y-135930666D01*
X236342712Y-135781344D01*
X236218656Y-135657288D01*
X236069334Y-135565186D01*
X235902797Y-135510001D01*
X235902795Y-135510000D01*
X235800016Y-135499500D01*
X235800009Y-135499500D01*
X235737308Y-135499500D01*
X235670269Y-135479815D01*
X235649627Y-135463181D01*
X235211058Y-135024612D01*
X235231591Y-135019111D01*
X235368408Y-134940119D01*
X235480119Y-134828408D01*
X235559111Y-134691591D01*
X235564612Y-134671058D01*
X236222658Y-135329105D01*
X236222658Y-135329104D01*
X236282914Y-135246169D01*
X236282918Y-135246163D01*
X236390102Y-135035802D01*
X236463065Y-134811247D01*
X236500000Y-134578052D01*
X236500000Y-134341947D01*
X236463065Y-134108752D01*
X236390102Y-133884197D01*
X236282914Y-133673828D01*
X236222658Y-133590894D01*
X236222658Y-133590893D01*
X235564612Y-134248940D01*
X235559111Y-134228409D01*
X235480119Y-134091592D01*
X235368408Y-133979881D01*
X235231591Y-133900889D01*
X235211059Y-133895387D01*
X235869105Y-133237340D01*
X235867551Y-133217594D01*
X235881915Y-133149216D01*
X235918284Y-133107547D01*
X235977510Y-133064517D01*
X236144517Y-132897510D01*
X236283343Y-132706433D01*
X236390568Y-132495992D01*
X236463553Y-132271368D01*
X236466937Y-132250000D01*
X236500500Y-132038097D01*
X236500500Y-131801902D01*
X236463553Y-131568631D01*
X236390566Y-131344003D01*
X236283342Y-131133566D01*
X236260533Y-131102172D01*
X236144517Y-130942490D01*
X235977510Y-130775483D01*
X235942872Y-130750317D01*
X235900207Y-130694989D01*
X235894228Y-130625375D01*
X235926833Y-130563580D01*
X235942873Y-130549682D01*
X235944621Y-130548412D01*
X235977510Y-130524517D01*
X236144517Y-130357510D01*
X236283343Y-130166433D01*
X236390568Y-129955992D01*
X236463553Y-129731368D01*
X236468956Y-129697256D01*
X236500500Y-129498097D01*
X236500500Y-129261902D01*
X236463553Y-129028631D01*
X236390566Y-128804003D01*
X236283342Y-128593566D01*
X236273637Y-128580208D01*
X236144517Y-128402490D01*
X235977510Y-128235483D01*
X235786433Y-128096657D01*
X235744029Y-128075051D01*
X235575996Y-127989433D01*
X235351368Y-127916446D01*
X235118097Y-127879500D01*
X235118092Y-127879500D01*
X234881908Y-127879500D01*
X234881903Y-127879500D01*
X234648631Y-127916446D01*
X234424003Y-127989433D01*
X234213566Y-128096657D01*
X234106054Y-128174770D01*
X234022490Y-128235483D01*
X234022488Y-128235485D01*
X234022487Y-128235485D01*
X233855485Y-128402487D01*
X233855485Y-128402488D01*
X233855483Y-128402490D01*
X233795862Y-128484550D01*
X233716657Y-128593566D01*
X233609433Y-128804003D01*
X233536446Y-129028631D01*
X233499500Y-129261902D01*
X233499500Y-129498097D01*
X233536446Y-129731368D01*
X233609433Y-129955996D01*
X233701297Y-130136287D01*
X233716657Y-130166433D01*
X233855483Y-130357510D01*
X234022490Y-130524517D01*
X234057127Y-130549683D01*
X234099792Y-130605013D01*
X234105771Y-130674626D01*
X234073165Y-130736421D01*
X234057130Y-130750315D01*
X234039365Y-130763222D01*
X234022488Y-130775484D01*
X233855485Y-130942487D01*
X233855485Y-130942488D01*
X233855483Y-130942490D01*
X233795862Y-131024550D01*
X233716657Y-131133566D01*
X233609433Y-131344003D01*
X233536446Y-131568631D01*
X233499500Y-131801902D01*
X233499500Y-132038097D01*
X233536446Y-132271368D01*
X233609433Y-132495996D01*
X233701177Y-132676052D01*
X233716657Y-132706433D01*
X233855483Y-132897510D01*
X234022490Y-133064517D01*
X234081716Y-133107547D01*
X234124381Y-133162875D01*
X234132448Y-133217593D01*
X234130893Y-133237340D01*
X234788941Y-133895387D01*
X234768409Y-133900889D01*
X234631592Y-133979881D01*
X234519881Y-134091592D01*
X234440889Y-134228409D01*
X234435387Y-134248941D01*
X233777340Y-133590894D01*
X233717084Y-133673830D01*
X233609897Y-133884197D01*
X233536934Y-134108752D01*
X233500000Y-134341947D01*
X233500000Y-134578052D01*
X233536934Y-134811247D01*
X233609897Y-135035802D01*
X233717087Y-135246174D01*
X233758093Y-135302615D01*
X233781573Y-135368421D01*
X233765747Y-135436475D01*
X233715641Y-135485170D01*
X233657775Y-135499500D01*
X217172889Y-135499500D01*
X217105850Y-135479815D01*
X217085208Y-135463181D01*
X216416819Y-134794792D01*
X216383334Y-134733469D01*
X216380500Y-134707111D01*
X216380500Y-130798711D01*
X222249500Y-130798711D01*
X222249500Y-131041288D01*
X222261648Y-131133567D01*
X222281162Y-131281789D01*
X222297832Y-131344003D01*
X222343947Y-131516104D01*
X222417217Y-131692993D01*
X222436776Y-131740212D01*
X222558064Y-131950289D01*
X222558066Y-131950292D01*
X222558067Y-131950293D01*
X222705733Y-132142736D01*
X222705739Y-132142743D01*
X222877256Y-132314260D01*
X222877262Y-132314265D01*
X223069711Y-132461936D01*
X223279788Y-132583224D01*
X223503900Y-132676054D01*
X223738211Y-132738838D01*
X223918586Y-132762584D01*
X223978711Y-132770500D01*
X223978712Y-132770500D01*
X224221289Y-132770500D01*
X224269388Y-132764167D01*
X224461789Y-132738838D01*
X224696100Y-132676054D01*
X224920212Y-132583224D01*
X225130289Y-132461936D01*
X225322738Y-132314265D01*
X225494265Y-132142738D01*
X225641936Y-131950289D01*
X225763224Y-131740212D01*
X225856054Y-131516100D01*
X225918838Y-131281789D01*
X225950500Y-131041288D01*
X225950500Y-130798712D01*
X225918838Y-130558211D01*
X225856054Y-130323900D01*
X225763224Y-130099788D01*
X225641936Y-129889711D01*
X225554866Y-129776239D01*
X225494266Y-129697263D01*
X225494260Y-129697256D01*
X225322743Y-129525739D01*
X225322736Y-129525733D01*
X225130293Y-129378067D01*
X225130292Y-129378066D01*
X225130289Y-129378064D01*
X224929101Y-129261908D01*
X224920214Y-129256777D01*
X224920205Y-129256773D01*
X224696104Y-129163947D01*
X224461785Y-129101161D01*
X224221289Y-129069500D01*
X224221288Y-129069500D01*
X223978712Y-129069500D01*
X223978711Y-129069500D01*
X223738214Y-129101161D01*
X223503895Y-129163947D01*
X223279794Y-129256773D01*
X223279785Y-129256777D01*
X223069706Y-129378067D01*
X222877263Y-129525733D01*
X222877256Y-129525739D01*
X222705739Y-129697256D01*
X222705733Y-129697263D01*
X222558067Y-129889706D01*
X222436777Y-130099785D01*
X222436773Y-130099794D01*
X222343947Y-130323895D01*
X222281161Y-130558214D01*
X222249500Y-130798711D01*
X216380500Y-130798711D01*
X216380500Y-125624500D01*
X216400185Y-125557461D01*
X216452989Y-125511706D01*
X216504500Y-125500500D01*
X235128082Y-125500500D01*
X235128094Y-125500499D01*
X235800002Y-125500499D01*
X235800008Y-125500499D01*
X235902797Y-125489999D01*
X236069334Y-125434814D01*
X236218656Y-125342712D01*
X236342712Y-125218656D01*
X236434814Y-125069334D01*
X236489999Y-124902797D01*
X236500500Y-124800009D01*
X236500500Y-124063368D01*
X236500500Y-123881908D01*
X236500500Y-123874313D01*
X236500499Y-123874295D01*
X236500499Y-123199998D01*
X236500498Y-123199981D01*
X236489999Y-123097203D01*
X236489998Y-123097200D01*
X236473526Y-123047491D01*
X236434814Y-122930666D01*
X236342712Y-122781344D01*
X236218656Y-122657288D01*
X236069334Y-122565186D01*
X235902797Y-122510001D01*
X235902795Y-122510000D01*
X235800016Y-122499500D01*
X235800009Y-122499500D01*
X235737308Y-122499500D01*
X235670269Y-122479815D01*
X235649627Y-122463181D01*
X235211058Y-122024612D01*
X235231591Y-122019111D01*
X235368408Y-121940119D01*
X235480119Y-121828408D01*
X235559111Y-121691591D01*
X235564612Y-121671058D01*
X236222658Y-122329105D01*
X236222658Y-122329104D01*
X236282914Y-122246169D01*
X236282918Y-122246163D01*
X236390102Y-122035802D01*
X236463065Y-121811247D01*
X236500000Y-121578052D01*
X236500000Y-121341947D01*
X236463065Y-121108752D01*
X236390102Y-120884197D01*
X236282914Y-120673828D01*
X236222658Y-120590894D01*
X236222658Y-120590893D01*
X235564612Y-121248940D01*
X235559111Y-121228409D01*
X235480119Y-121091592D01*
X235368408Y-120979881D01*
X235231591Y-120900889D01*
X235211059Y-120895387D01*
X235869105Y-120237340D01*
X235867551Y-120217594D01*
X235881915Y-120149216D01*
X235918284Y-120107547D01*
X235977510Y-120064517D01*
X236144517Y-119897510D01*
X236283343Y-119706433D01*
X236390568Y-119495992D01*
X236463553Y-119271368D01*
X236500500Y-119038097D01*
X236500500Y-118801902D01*
X236463553Y-118568631D01*
X236429689Y-118464412D01*
X236390568Y-118344008D01*
X236390566Y-118344005D01*
X236390566Y-118344003D01*
X236334002Y-118232991D01*
X236283343Y-118133567D01*
X236144517Y-117942490D01*
X235977510Y-117775483D01*
X235786433Y-117636657D01*
X235575996Y-117529433D01*
X235351368Y-117456446D01*
X235118097Y-117419500D01*
X235118092Y-117419500D01*
X234881908Y-117419500D01*
X234881903Y-117419500D01*
X234648631Y-117456446D01*
X234424003Y-117529433D01*
X234213566Y-117636657D01*
X234104550Y-117715862D01*
X234022490Y-117775483D01*
X234022488Y-117775485D01*
X234022487Y-117775485D01*
X233855485Y-117942487D01*
X233855485Y-117942488D01*
X233855483Y-117942490D01*
X233801010Y-118017465D01*
X233716657Y-118133566D01*
X233609433Y-118344003D01*
X233536446Y-118568631D01*
X233499500Y-118801902D01*
X233499500Y-119038097D01*
X233536446Y-119271368D01*
X233609433Y-119495996D01*
X233716657Y-119706433D01*
X233855483Y-119897510D01*
X234022490Y-120064517D01*
X234081716Y-120107547D01*
X234124381Y-120162875D01*
X234132448Y-120217593D01*
X234130893Y-120237340D01*
X234788941Y-120895387D01*
X234768409Y-120900889D01*
X234631592Y-120979881D01*
X234519881Y-121091592D01*
X234440889Y-121228409D01*
X234435387Y-121248941D01*
X233777340Y-120590894D01*
X233717084Y-120673830D01*
X233609897Y-120884197D01*
X233536934Y-121108752D01*
X233500000Y-121341947D01*
X233500000Y-121578052D01*
X233536934Y-121811247D01*
X233609897Y-122035802D01*
X233717087Y-122246174D01*
X233758093Y-122302615D01*
X233781573Y-122368421D01*
X233765747Y-122436475D01*
X233715641Y-122485170D01*
X233657775Y-122499500D01*
X216504500Y-122499500D01*
X216437461Y-122479815D01*
X216391706Y-122427011D01*
X216380500Y-122375500D01*
X216380500Y-115897648D01*
X221199500Y-115897648D01*
X221199500Y-116102351D01*
X221231522Y-116304534D01*
X221294781Y-116499223D01*
X221357099Y-116621527D01*
X221383269Y-116672889D01*
X221387715Y-116681613D01*
X221508028Y-116847213D01*
X221652786Y-116991971D01*
X221807749Y-117104556D01*
X221818390Y-117112287D01*
X221934607Y-117171503D01*
X222000776Y-117205218D01*
X222000778Y-117205218D01*
X222000781Y-117205220D01*
X222057697Y-117223713D01*
X222195465Y-117268477D01*
X222296557Y-117284488D01*
X222397648Y-117300500D01*
X222397649Y-117300500D01*
X222602351Y-117300500D01*
X222602352Y-117300500D01*
X222804534Y-117268477D01*
X222999219Y-117205220D01*
X223181610Y-117112287D01*
X223317222Y-117013760D01*
X223347213Y-116991971D01*
X223347215Y-116991968D01*
X223347219Y-116991966D01*
X223491966Y-116847219D01*
X223491968Y-116847215D01*
X223491971Y-116847213D01*
X223544732Y-116774590D01*
X223612287Y-116681610D01*
X223705220Y-116499219D01*
X223768477Y-116304534D01*
X223800500Y-116102352D01*
X223800500Y-115897648D01*
X223788218Y-115820104D01*
X223768477Y-115695465D01*
X223705218Y-115500776D01*
X223632624Y-115358304D01*
X223612287Y-115318390D01*
X223599315Y-115300535D01*
X223491971Y-115152786D01*
X223347213Y-115008028D01*
X223181613Y-114887715D01*
X223181612Y-114887714D01*
X223181610Y-114887713D01*
X223093287Y-114842710D01*
X222999223Y-114794781D01*
X222804534Y-114731522D01*
X222629995Y-114703878D01*
X222602352Y-114699500D01*
X222397648Y-114699500D01*
X222373329Y-114703351D01*
X222195465Y-114731522D01*
X222000776Y-114794781D01*
X221818386Y-114887715D01*
X221652786Y-115008028D01*
X221508028Y-115152786D01*
X221387715Y-115318386D01*
X221294781Y-115500776D01*
X221231522Y-115695465D01*
X221199500Y-115897648D01*
X216380500Y-115897648D01*
X216380500Y-115881902D01*
X216343553Y-115648631D01*
X216295513Y-115500781D01*
X216270568Y-115424008D01*
X216270566Y-115424005D01*
X216270566Y-115424003D01*
X216207656Y-115300536D01*
X216207655Y-115300535D01*
X216163344Y-115213567D01*
X216117067Y-115149874D01*
X216024517Y-115022490D01*
X209303929Y-108301902D01*
X233749500Y-108301902D01*
X233749500Y-108538097D01*
X233786446Y-108771368D01*
X233859433Y-108995996D01*
X233881543Y-109039388D01*
X233966657Y-109206433D01*
X234105483Y-109397510D01*
X234272490Y-109564517D01*
X234331716Y-109607547D01*
X234374381Y-109662875D01*
X234382448Y-109717593D01*
X234380893Y-109737340D01*
X235038941Y-110395387D01*
X235018409Y-110400889D01*
X234881592Y-110479881D01*
X234769881Y-110591592D01*
X234690889Y-110728409D01*
X234685387Y-110748941D01*
X234027340Y-110090894D01*
X233967084Y-110173830D01*
X233859897Y-110384197D01*
X233786934Y-110608752D01*
X233750000Y-110841947D01*
X233750000Y-111078052D01*
X233786934Y-111311247D01*
X233859897Y-111535802D01*
X233967087Y-111746174D01*
X234027338Y-111829104D01*
X234027340Y-111829105D01*
X234685387Y-111171058D01*
X234690889Y-111191591D01*
X234769881Y-111328408D01*
X234881592Y-111440119D01*
X235018409Y-111519111D01*
X235038940Y-111524612D01*
X234600371Y-111963181D01*
X234539048Y-111996666D01*
X234512692Y-111999500D01*
X234449999Y-111999500D01*
X234449980Y-111999501D01*
X234347203Y-112010000D01*
X234347200Y-112010001D01*
X234180668Y-112065185D01*
X234180663Y-112065187D01*
X234031342Y-112157289D01*
X233907289Y-112281342D01*
X233815187Y-112430663D01*
X233815186Y-112430666D01*
X233760001Y-112597203D01*
X233760001Y-112597204D01*
X233760000Y-112597204D01*
X233749500Y-112699983D01*
X233749500Y-114300001D01*
X233749501Y-114300018D01*
X233760000Y-114402796D01*
X233760001Y-114402799D01*
X233790936Y-114496152D01*
X233815186Y-114569334D01*
X233907288Y-114718656D01*
X234031344Y-114842712D01*
X234180666Y-114934814D01*
X234347203Y-114989999D01*
X234449991Y-115000500D01*
X236050008Y-115000499D01*
X236152797Y-114989999D01*
X236319334Y-114934814D01*
X236468656Y-114842712D01*
X236592712Y-114718656D01*
X236684814Y-114569334D01*
X236739999Y-114402797D01*
X236750500Y-114300009D01*
X236750499Y-112699992D01*
X236739999Y-112597203D01*
X236684814Y-112430666D01*
X236592712Y-112281344D01*
X236468656Y-112157288D01*
X236319334Y-112065186D01*
X236152797Y-112010001D01*
X236152795Y-112010000D01*
X236050016Y-111999500D01*
X235987308Y-111999500D01*
X235920269Y-111979815D01*
X235899627Y-111963181D01*
X235461059Y-111524612D01*
X235481591Y-111519111D01*
X235618408Y-111440119D01*
X235730119Y-111328408D01*
X235809111Y-111191591D01*
X235814612Y-111171059D01*
X236472658Y-111829105D01*
X236472658Y-111829104D01*
X236532914Y-111746169D01*
X236532918Y-111746163D01*
X236640102Y-111535802D01*
X236713065Y-111311247D01*
X236750000Y-111078052D01*
X236750000Y-110841947D01*
X236713065Y-110608752D01*
X236640102Y-110384197D01*
X236532914Y-110173828D01*
X236472658Y-110090894D01*
X236472658Y-110090893D01*
X235814612Y-110748940D01*
X235809111Y-110728409D01*
X235730119Y-110591592D01*
X235618408Y-110479881D01*
X235481591Y-110400889D01*
X235461059Y-110395387D01*
X236119105Y-109737340D01*
X236117551Y-109717594D01*
X236131915Y-109649216D01*
X236168284Y-109607547D01*
X236227510Y-109564517D01*
X236394517Y-109397510D01*
X236533343Y-109206433D01*
X236640568Y-108995992D01*
X236713553Y-108771368D01*
X236720313Y-108728688D01*
X236750500Y-108538097D01*
X236750500Y-108301902D01*
X236713553Y-108068631D01*
X236640566Y-107844003D01*
X236533342Y-107633566D01*
X236504958Y-107594499D01*
X236394517Y-107442490D01*
X236227510Y-107275483D01*
X236036433Y-107136657D01*
X235825996Y-107029433D01*
X235601368Y-106956446D01*
X235368097Y-106919500D01*
X235368092Y-106919500D01*
X235131908Y-106919500D01*
X235131903Y-106919500D01*
X234898631Y-106956446D01*
X234674003Y-107029433D01*
X234463566Y-107136657D01*
X234397864Y-107184393D01*
X234272490Y-107275483D01*
X234272488Y-107275485D01*
X234272487Y-107275485D01*
X234105485Y-107442487D01*
X234105485Y-107442488D01*
X234105483Y-107442490D01*
X234070831Y-107490184D01*
X233966657Y-107633566D01*
X233859433Y-107844003D01*
X233786446Y-108068631D01*
X233749500Y-108301902D01*
X209303929Y-108301902D01*
X208738519Y-107736492D01*
X208705034Y-107675169D01*
X208702200Y-107648811D01*
X208702200Y-96891902D01*
X208665253Y-96658631D01*
X208592266Y-96434003D01*
X208490938Y-96235136D01*
X208489568Y-96232448D01*
X208485043Y-96223567D01*
X208456087Y-96183713D01*
X222174500Y-96183713D01*
X222174500Y-96396287D01*
X222184534Y-96459644D01*
X222198795Y-96549682D01*
X222207754Y-96606243D01*
X222262744Y-96775485D01*
X222273444Y-96808414D01*
X222369951Y-96997820D01*
X222494890Y-97169786D01*
X222645213Y-97320109D01*
X222817179Y-97445048D01*
X222817181Y-97445049D01*
X222817184Y-97445051D01*
X223006588Y-97541557D01*
X223208757Y-97607246D01*
X223418713Y-97640500D01*
X223418714Y-97640500D01*
X223631286Y-97640500D01*
X223631287Y-97640500D01*
X223841243Y-97607246D01*
X224043412Y-97541557D01*
X224232816Y-97445051D01*
X224315844Y-97384728D01*
X224404786Y-97320109D01*
X224404788Y-97320106D01*
X224404792Y-97320104D01*
X224555104Y-97169792D01*
X224555106Y-97169788D01*
X224555109Y-97169786D01*
X224680048Y-96997820D01*
X224680047Y-96997820D01*
X224680051Y-96997816D01*
X224776557Y-96808412D01*
X224842246Y-96606243D01*
X224875500Y-96396287D01*
X224875500Y-96183713D01*
X224842246Y-95973757D01*
X224776557Y-95771588D01*
X224680051Y-95582184D01*
X224680049Y-95582181D01*
X224680048Y-95582179D01*
X224555109Y-95410213D01*
X224441181Y-95296285D01*
X224407696Y-95234962D01*
X224412680Y-95165270D01*
X224454552Y-95109337D01*
X224485529Y-95092422D01*
X224617086Y-95043354D01*
X224617093Y-95043350D01*
X224732187Y-94957190D01*
X224732190Y-94957187D01*
X224818350Y-94842093D01*
X224818354Y-94842086D01*
X224868596Y-94707379D01*
X224868598Y-94707372D01*
X224874999Y-94647844D01*
X224875000Y-94647827D01*
X224875000Y-94000000D01*
X223958012Y-94000000D01*
X223990925Y-93942993D01*
X224025000Y-93815826D01*
X224025000Y-93684174D01*
X223990925Y-93557007D01*
X223958012Y-93500000D01*
X224875000Y-93500000D01*
X224875000Y-92852172D01*
X224874999Y-92852155D01*
X224868598Y-92792627D01*
X224868596Y-92792620D01*
X224818354Y-92657913D01*
X224818350Y-92657906D01*
X224732190Y-92542812D01*
X224732187Y-92542809D01*
X224617093Y-92456649D01*
X224617086Y-92456645D01*
X224482379Y-92406403D01*
X224482372Y-92406401D01*
X224422844Y-92400000D01*
X223775000Y-92400000D01*
X223775000Y-93316988D01*
X223717993Y-93284075D01*
X223590826Y-93250000D01*
X223459174Y-93250000D01*
X223332007Y-93284075D01*
X223275000Y-93316988D01*
X223275000Y-92400000D01*
X222627155Y-92400000D01*
X222567627Y-92406401D01*
X222567620Y-92406403D01*
X222432913Y-92456645D01*
X222432906Y-92456649D01*
X222317812Y-92542809D01*
X222317809Y-92542812D01*
X222231649Y-92657906D01*
X222231645Y-92657913D01*
X222181403Y-92792620D01*
X222181401Y-92792627D01*
X222175000Y-92852155D01*
X222175000Y-93500000D01*
X223091988Y-93500000D01*
X223059075Y-93557007D01*
X223025000Y-93684174D01*
X223025000Y-93815826D01*
X223059075Y-93942993D01*
X223091988Y-94000000D01*
X222175000Y-94000000D01*
X222175000Y-94647844D01*
X222181401Y-94707372D01*
X222181403Y-94707379D01*
X222231645Y-94842086D01*
X222231649Y-94842093D01*
X222317809Y-94957187D01*
X222317812Y-94957190D01*
X222432906Y-95043350D01*
X222432913Y-95043354D01*
X222564470Y-95092422D01*
X222620404Y-95134293D01*
X222644821Y-95199758D01*
X222629969Y-95268031D01*
X222608819Y-95296285D01*
X222494889Y-95410215D01*
X222369951Y-95582179D01*
X222273444Y-95771585D01*
X222207753Y-95973760D01*
X222180725Y-96144408D01*
X222174500Y-96183713D01*
X208456087Y-96183713D01*
X208346217Y-96032490D01*
X208179210Y-95865483D01*
X207988133Y-95726657D01*
X207967614Y-95716202D01*
X207777696Y-95619433D01*
X207553068Y-95546446D01*
X207319797Y-95509500D01*
X207319792Y-95509500D01*
X206724500Y-95509500D01*
X206657461Y-95489815D01*
X206611706Y-95437011D01*
X206600500Y-95385500D01*
X206600500Y-85078711D01*
X222249500Y-85078711D01*
X222249500Y-85321288D01*
X222281161Y-85561785D01*
X222343947Y-85796104D01*
X222436773Y-86020205D01*
X222436776Y-86020212D01*
X222558064Y-86230289D01*
X222558066Y-86230292D01*
X222558067Y-86230293D01*
X222705733Y-86422736D01*
X222705739Y-86422743D01*
X222877256Y-86594260D01*
X222877263Y-86594266D01*
X222990321Y-86681018D01*
X223069711Y-86741936D01*
X223279788Y-86863224D01*
X223503900Y-86956054D01*
X223738211Y-87018838D01*
X223918586Y-87042584D01*
X223978711Y-87050500D01*
X223978712Y-87050500D01*
X224221289Y-87050500D01*
X224269388Y-87044167D01*
X224461789Y-87018838D01*
X224696100Y-86956054D01*
X224920212Y-86863224D01*
X225130289Y-86741936D01*
X225322738Y-86594265D01*
X225494265Y-86422738D01*
X225641936Y-86230289D01*
X225763224Y-86020212D01*
X225856054Y-85796100D01*
X225918838Y-85561789D01*
X225950500Y-85321288D01*
X225950500Y-85078712D01*
X225950142Y-85075996D01*
X225922843Y-84868632D01*
X225918838Y-84838211D01*
X225856054Y-84603900D01*
X225763224Y-84379788D01*
X225641936Y-84169711D01*
X225539659Y-84036421D01*
X225494266Y-83977263D01*
X225494260Y-83977256D01*
X225322743Y-83805739D01*
X225322736Y-83805733D01*
X225130293Y-83658067D01*
X225130292Y-83658066D01*
X225130289Y-83658064D01*
X224920212Y-83536776D01*
X224920205Y-83536773D01*
X224696104Y-83443947D01*
X224461785Y-83381161D01*
X224221289Y-83349500D01*
X224221288Y-83349500D01*
X223978712Y-83349500D01*
X223978711Y-83349500D01*
X223738214Y-83381161D01*
X223503895Y-83443947D01*
X223279794Y-83536773D01*
X223279785Y-83536777D01*
X223069706Y-83658067D01*
X222877263Y-83805733D01*
X222877256Y-83805739D01*
X222705739Y-83977256D01*
X222705733Y-83977263D01*
X222558067Y-84169706D01*
X222436777Y-84379785D01*
X222436773Y-84379794D01*
X222343947Y-84603895D01*
X222281161Y-84838214D01*
X222249500Y-85078711D01*
X206600500Y-85078711D01*
X206600500Y-72820202D01*
X206563553Y-72586931D01*
X206490566Y-72362303D01*
X206383344Y-72151868D01*
X206383343Y-72151867D01*
X206380833Y-72148412D01*
X206380833Y-72148411D01*
X206244523Y-71960796D01*
X206244519Y-71960791D01*
X201359708Y-67075980D01*
X201326223Y-67014657D01*
X201331207Y-66944965D01*
X201359708Y-66900618D01*
X201816613Y-66443713D01*
X223199500Y-66443713D01*
X223199500Y-66656286D01*
X223230071Y-66849308D01*
X223232754Y-66866243D01*
X223292071Y-67048802D01*
X223298444Y-67068414D01*
X223394951Y-67257820D01*
X223519890Y-67429786D01*
X223670213Y-67580109D01*
X223842182Y-67705050D01*
X223850946Y-67709516D01*
X223901742Y-67757491D01*
X223918536Y-67825312D01*
X223895998Y-67891447D01*
X223850946Y-67930484D01*
X223842182Y-67934949D01*
X223670213Y-68059890D01*
X223519890Y-68210213D01*
X223394951Y-68382179D01*
X223298444Y-68571585D01*
X223232753Y-68773760D01*
X223199500Y-68983713D01*
X223199500Y-69196286D01*
X223212951Y-69281216D01*
X223232754Y-69406243D01*
X223292976Y-69591587D01*
X223298444Y-69608414D01*
X223394951Y-69797820D01*
X223519890Y-69969786D01*
X223670213Y-70120109D01*
X223842182Y-70245050D01*
X223850946Y-70249516D01*
X223901742Y-70297491D01*
X223918536Y-70365312D01*
X223895998Y-70431447D01*
X223850946Y-70470484D01*
X223842182Y-70474949D01*
X223670213Y-70599890D01*
X223519890Y-70750213D01*
X223394951Y-70922179D01*
X223298444Y-71111585D01*
X223232753Y-71313760D01*
X223209591Y-71460001D01*
X223199500Y-71523713D01*
X223199500Y-71736287D01*
X223232754Y-71946243D01*
X223251102Y-72002712D01*
X223298443Y-72148412D01*
X223394951Y-72337820D01*
X223519890Y-72509786D01*
X223670213Y-72660109D01*
X223842182Y-72785050D01*
X223850946Y-72789516D01*
X223901742Y-72837491D01*
X223918536Y-72905312D01*
X223895998Y-72971447D01*
X223850946Y-73010484D01*
X223842182Y-73014949D01*
X223670213Y-73139890D01*
X223519890Y-73290213D01*
X223394951Y-73462179D01*
X223298444Y-73651585D01*
X223232753Y-73853760D01*
X223222977Y-73915483D01*
X223199500Y-74063713D01*
X223199500Y-74276287D01*
X223232754Y-74486243D01*
X223278761Y-74627838D01*
X223298444Y-74688414D01*
X223394951Y-74877820D01*
X223519890Y-75049786D01*
X223670213Y-75200109D01*
X223842182Y-75325050D01*
X223850946Y-75329516D01*
X223901742Y-75377491D01*
X223918536Y-75445312D01*
X223895998Y-75511447D01*
X223850946Y-75550484D01*
X223842182Y-75554949D01*
X223670213Y-75679890D01*
X223519890Y-75830213D01*
X223394951Y-76002179D01*
X223298444Y-76191585D01*
X223232753Y-76393760D01*
X223199500Y-76603713D01*
X223199500Y-76816286D01*
X223232735Y-77026127D01*
X223232754Y-77026243D01*
X223281918Y-77177555D01*
X223298444Y-77228414D01*
X223394951Y-77417820D01*
X223519890Y-77589786D01*
X223633430Y-77703326D01*
X223666915Y-77764649D01*
X223661931Y-77834341D01*
X223620059Y-77890274D01*
X223589083Y-77907189D01*
X223457669Y-77956203D01*
X223457664Y-77956206D01*
X223342455Y-78042452D01*
X223342452Y-78042455D01*
X223256206Y-78157664D01*
X223256202Y-78157671D01*
X223205908Y-78292517D01*
X223199501Y-78352116D01*
X223199501Y-78352123D01*
X223199500Y-78352135D01*
X223199500Y-80147870D01*
X223199501Y-80147876D01*
X223205908Y-80207483D01*
X223256202Y-80342328D01*
X223256206Y-80342335D01*
X223342452Y-80457544D01*
X223342455Y-80457547D01*
X223457664Y-80543793D01*
X223457671Y-80543797D01*
X223592517Y-80594091D01*
X223592516Y-80594091D01*
X223599444Y-80594835D01*
X223652127Y-80600500D01*
X225447872Y-80600499D01*
X225507483Y-80594091D01*
X225642331Y-80543796D01*
X225757546Y-80457546D01*
X225843796Y-80342331D01*
X225894091Y-80207483D01*
X225900500Y-80147873D01*
X225900499Y-78352128D01*
X225894091Y-78292517D01*
X225843796Y-78157669D01*
X225843795Y-78157668D01*
X225843793Y-78157664D01*
X225757547Y-78042455D01*
X225757544Y-78042452D01*
X225642335Y-77956206D01*
X225642328Y-77956202D01*
X225510917Y-77907189D01*
X225454983Y-77865318D01*
X225430566Y-77799853D01*
X225445418Y-77731580D01*
X225466563Y-77703332D01*
X225580104Y-77589792D01*
X225705051Y-77417816D01*
X225801557Y-77228412D01*
X225867246Y-77026243D01*
X225900500Y-76816287D01*
X225900500Y-76603713D01*
X225867246Y-76393757D01*
X225801557Y-76191588D01*
X225705051Y-76002184D01*
X225705049Y-76002181D01*
X225705048Y-76002179D01*
X225580109Y-75830213D01*
X225429786Y-75679890D01*
X225257820Y-75554951D01*
X225257115Y-75554591D01*
X225249054Y-75550485D01*
X225198259Y-75502512D01*
X225181463Y-75434692D01*
X225203999Y-75368556D01*
X225249054Y-75329515D01*
X225257816Y-75325051D01*
X225279789Y-75309086D01*
X225429786Y-75200109D01*
X225429792Y-75200104D01*
X225481930Y-75147966D01*
X225580104Y-75049792D01*
X225580106Y-75049788D01*
X225580109Y-75049786D01*
X225658491Y-74941902D01*
X233999500Y-74941902D01*
X233999500Y-75178097D01*
X234036446Y-75411368D01*
X234109433Y-75635996D01*
X234216657Y-75846433D01*
X234355483Y-76037510D01*
X234522490Y-76204517D01*
X234557127Y-76229683D01*
X234599792Y-76285013D01*
X234605771Y-76354626D01*
X234573165Y-76416421D01*
X234557130Y-76430315D01*
X234531966Y-76448598D01*
X234522487Y-76455485D01*
X234355485Y-76622487D01*
X234355485Y-76622488D01*
X234355483Y-76622490D01*
X234339729Y-76644174D01*
X234216657Y-76813566D01*
X234109433Y-77024003D01*
X234036446Y-77248631D01*
X233999500Y-77481902D01*
X233999500Y-77718097D01*
X234036446Y-77951368D01*
X234109433Y-78175996D01*
X234199175Y-78352123D01*
X234216657Y-78386433D01*
X234355483Y-78577510D01*
X234522490Y-78744517D01*
X234557127Y-78769683D01*
X234599792Y-78825013D01*
X234605771Y-78894626D01*
X234573165Y-78956421D01*
X234557130Y-78970315D01*
X234539365Y-78983222D01*
X234522488Y-78995484D01*
X234355485Y-79162487D01*
X234355485Y-79162488D01*
X234355483Y-79162490D01*
X234295862Y-79244550D01*
X234216657Y-79353566D01*
X234109433Y-79564003D01*
X234036446Y-79788631D01*
X233999500Y-80021902D01*
X233999500Y-80258097D01*
X234036446Y-80491368D01*
X234109433Y-80715996D01*
X234122507Y-80741654D01*
X234216657Y-80926433D01*
X234355483Y-81117510D01*
X234522490Y-81284517D01*
X234557127Y-81309683D01*
X234599792Y-81365013D01*
X234605771Y-81434626D01*
X234573165Y-81496421D01*
X234557130Y-81510315D01*
X234539365Y-81523222D01*
X234522488Y-81535484D01*
X234355485Y-81702487D01*
X234355485Y-81702488D01*
X234355483Y-81702490D01*
X234350027Y-81710000D01*
X234216657Y-81893566D01*
X234109433Y-82104003D01*
X234036446Y-82328631D01*
X233999500Y-82561902D01*
X233999500Y-82798097D01*
X234036446Y-83031368D01*
X234109433Y-83255996D01*
X234179930Y-83394353D01*
X234216657Y-83466433D01*
X234355483Y-83657510D01*
X234522490Y-83824517D01*
X234557127Y-83849683D01*
X234599792Y-83905013D01*
X234605771Y-83974626D01*
X234573165Y-84036421D01*
X234557130Y-84050315D01*
X234539365Y-84063222D01*
X234522488Y-84075484D01*
X234355485Y-84242487D01*
X234355485Y-84242488D01*
X234355483Y-84242490D01*
X234295862Y-84324550D01*
X234216657Y-84433566D01*
X234109433Y-84644003D01*
X234036446Y-84868631D01*
X233999500Y-85101902D01*
X233999500Y-85338097D01*
X234036446Y-85571368D01*
X234109433Y-85795996D01*
X234213634Y-86000500D01*
X234216657Y-86006433D01*
X234355483Y-86197510D01*
X234522490Y-86364517D01*
X234557127Y-86389683D01*
X234599792Y-86445013D01*
X234605771Y-86514626D01*
X234573165Y-86576421D01*
X234557130Y-86590315D01*
X234539365Y-86603222D01*
X234522488Y-86615484D01*
X234355485Y-86782487D01*
X234355485Y-86782488D01*
X234355483Y-86782490D01*
X234296828Y-86863222D01*
X234216657Y-86973566D01*
X234109433Y-87184003D01*
X234036446Y-87408631D01*
X233999500Y-87641902D01*
X233999500Y-87878097D01*
X234036446Y-88111368D01*
X234109433Y-88335996D01*
X234173209Y-88461162D01*
X234216657Y-88546433D01*
X234355483Y-88737510D01*
X234522490Y-88904517D01*
X234557127Y-88929683D01*
X234599792Y-88985013D01*
X234605771Y-89054626D01*
X234573165Y-89116421D01*
X234557130Y-89130315D01*
X234539365Y-89143222D01*
X234522488Y-89155484D01*
X234355485Y-89322487D01*
X234355485Y-89322488D01*
X234355483Y-89322490D01*
X234295862Y-89404550D01*
X234216657Y-89513566D01*
X234109433Y-89724003D01*
X234036446Y-89948631D01*
X233999500Y-90181902D01*
X233999500Y-90418097D01*
X234036446Y-90651368D01*
X234109433Y-90875996D01*
X234206924Y-91067331D01*
X234216657Y-91086433D01*
X234355483Y-91277510D01*
X234522490Y-91444517D01*
X234557127Y-91469683D01*
X234599792Y-91525013D01*
X234605771Y-91594626D01*
X234573165Y-91656421D01*
X234557130Y-91670315D01*
X234539365Y-91683222D01*
X234522488Y-91695484D01*
X234355485Y-91862487D01*
X234355485Y-91862488D01*
X234355483Y-91862490D01*
X234296828Y-91943222D01*
X234216657Y-92053566D01*
X234109433Y-92264003D01*
X234036446Y-92488631D01*
X233999500Y-92721902D01*
X233999500Y-92958097D01*
X234036446Y-93191368D01*
X234109433Y-93415996D01*
X234216657Y-93626433D01*
X234355483Y-93817510D01*
X234522490Y-93984517D01*
X234557127Y-94009683D01*
X234599792Y-94065013D01*
X234605771Y-94134626D01*
X234573165Y-94196421D01*
X234557130Y-94210315D01*
X234549409Y-94215925D01*
X234522488Y-94235484D01*
X234355485Y-94402487D01*
X234355485Y-94402488D01*
X234355483Y-94402490D01*
X234295862Y-94484550D01*
X234216657Y-94593566D01*
X234109433Y-94804003D01*
X234036446Y-95028631D01*
X233999500Y-95261902D01*
X233999500Y-95498097D01*
X234036446Y-95731368D01*
X234109433Y-95955996D01*
X234205434Y-96144407D01*
X234216657Y-96166433D01*
X234355483Y-96357510D01*
X234522490Y-96524517D01*
X234557127Y-96549683D01*
X234599792Y-96605013D01*
X234605771Y-96674626D01*
X234573165Y-96736421D01*
X234557130Y-96750315D01*
X234552158Y-96753928D01*
X234522488Y-96775484D01*
X234355485Y-96942487D01*
X234355485Y-96942488D01*
X234355483Y-96942490D01*
X234315286Y-96997816D01*
X234216657Y-97133566D01*
X234109433Y-97344003D01*
X234036446Y-97568631D01*
X233999500Y-97801902D01*
X233999500Y-98038097D01*
X234036446Y-98271368D01*
X234109433Y-98495996D01*
X234158764Y-98592812D01*
X234216657Y-98706433D01*
X234355483Y-98897510D01*
X234522490Y-99064517D01*
X234557127Y-99089683D01*
X234599792Y-99145013D01*
X234605771Y-99214626D01*
X234573165Y-99276421D01*
X234557130Y-99290315D01*
X234543800Y-99300000D01*
X234522488Y-99315484D01*
X234355485Y-99482487D01*
X234355485Y-99482488D01*
X234355483Y-99482490D01*
X234314063Y-99539500D01*
X234216657Y-99673566D01*
X234109433Y-99884003D01*
X234036446Y-100108631D01*
X233999500Y-100341902D01*
X233999500Y-100578097D01*
X234036446Y-100811368D01*
X234109433Y-101035996D01*
X234186568Y-101187380D01*
X234216657Y-101246433D01*
X234355483Y-101437510D01*
X234355489Y-101437516D01*
X234358647Y-101441214D01*
X234356864Y-101442736D01*
X234385726Y-101495591D01*
X234380742Y-101565283D01*
X234338870Y-101621216D01*
X234329658Y-101627487D01*
X234281344Y-101657287D01*
X234157289Y-101781342D01*
X234065187Y-101930663D01*
X234065186Y-101930666D01*
X234010001Y-102097203D01*
X234010001Y-102097204D01*
X234010000Y-102097204D01*
X233999500Y-102199983D01*
X233999500Y-103800001D01*
X233999501Y-103800018D01*
X234010000Y-103902796D01*
X234010001Y-103902799D01*
X234065185Y-104069331D01*
X234065187Y-104069336D01*
X234091246Y-104111585D01*
X234157288Y-104218656D01*
X234281344Y-104342712D01*
X234430666Y-104434814D01*
X234597203Y-104489999D01*
X234699991Y-104500500D01*
X236300008Y-104500499D01*
X236402797Y-104489999D01*
X236569334Y-104434814D01*
X236718656Y-104342712D01*
X236842712Y-104218656D01*
X236934814Y-104069334D01*
X236989999Y-103902797D01*
X237000500Y-103800009D01*
X237000499Y-102199992D01*
X237000120Y-102196286D01*
X236989999Y-102097203D01*
X236989998Y-102097200D01*
X236963592Y-102017512D01*
X236934814Y-101930666D01*
X236842712Y-101781344D01*
X236718656Y-101657288D01*
X236718655Y-101657287D01*
X236670342Y-101627487D01*
X236623618Y-101575539D01*
X236612397Y-101506576D01*
X236640241Y-101442494D01*
X236641381Y-101441249D01*
X236641348Y-101441221D01*
X236644511Y-101437516D01*
X236644511Y-101437515D01*
X236644517Y-101437510D01*
X236783343Y-101246433D01*
X236890568Y-101035992D01*
X236963553Y-100811368D01*
X236974936Y-100739500D01*
X237000500Y-100578097D01*
X237000500Y-100341902D01*
X236963553Y-100108631D01*
X236897807Y-99906287D01*
X236890568Y-99884008D01*
X236890566Y-99884005D01*
X236890566Y-99884003D01*
X236793608Y-99693713D01*
X236783343Y-99673567D01*
X236644517Y-99482490D01*
X236477510Y-99315483D01*
X236442872Y-99290317D01*
X236400207Y-99234989D01*
X236394228Y-99165375D01*
X236426833Y-99103580D01*
X236442873Y-99089682D01*
X236477510Y-99064517D01*
X236644517Y-98897510D01*
X236783343Y-98706433D01*
X236890568Y-98495992D01*
X236963553Y-98271368D01*
X236969227Y-98235542D01*
X237000500Y-98038097D01*
X237000500Y-97801902D01*
X236963553Y-97568631D01*
X236900779Y-97375434D01*
X236890568Y-97344008D01*
X236890566Y-97344005D01*
X236890566Y-97344003D01*
X236833652Y-97232304D01*
X236783343Y-97133567D01*
X236644517Y-96942490D01*
X236477510Y-96775483D01*
X236442872Y-96750317D01*
X236400207Y-96694989D01*
X236394228Y-96625375D01*
X236426833Y-96563580D01*
X236442873Y-96549682D01*
X236477510Y-96524517D01*
X236644517Y-96357510D01*
X236783343Y-96166433D01*
X236890568Y-95955992D01*
X236963553Y-95731368D01*
X236974936Y-95659500D01*
X237000500Y-95498097D01*
X237000500Y-95261902D01*
X236963553Y-95028631D01*
X236929689Y-94924412D01*
X236890568Y-94804008D01*
X236890566Y-94804005D01*
X236890566Y-94804003D01*
X236834002Y-94692991D01*
X236783343Y-94593567D01*
X236644517Y-94402490D01*
X236477510Y-94235483D01*
X236442872Y-94210317D01*
X236400207Y-94154989D01*
X236394228Y-94085375D01*
X236426833Y-94023580D01*
X236442873Y-94009682D01*
X236477510Y-93984517D01*
X236644517Y-93817510D01*
X236783343Y-93626433D01*
X236890568Y-93415992D01*
X236963553Y-93191368D01*
X237000500Y-92958097D01*
X237000500Y-92721902D01*
X236963553Y-92488631D01*
X236890566Y-92264003D01*
X236822542Y-92130500D01*
X236783343Y-92053567D01*
X236644517Y-91862490D01*
X236477510Y-91695483D01*
X236476235Y-91694557D01*
X236442873Y-91670318D01*
X236400207Y-91614989D01*
X236394228Y-91545375D01*
X236426833Y-91483580D01*
X236442873Y-91469682D01*
X236477510Y-91444517D01*
X236644517Y-91277510D01*
X236783343Y-91086433D01*
X236890568Y-90875992D01*
X236963553Y-90651368D01*
X236997561Y-90436650D01*
X237000500Y-90418097D01*
X237000500Y-90181902D01*
X236963553Y-89948631D01*
X236890566Y-89724003D01*
X236783342Y-89513566D01*
X236644517Y-89322490D01*
X236477510Y-89155483D01*
X236442872Y-89130317D01*
X236400207Y-89074989D01*
X236394228Y-89005375D01*
X236426833Y-88943580D01*
X236442873Y-88929682D01*
X236477510Y-88904517D01*
X236644517Y-88737510D01*
X236783343Y-88546433D01*
X236890568Y-88335992D01*
X236963553Y-88111368D01*
X237000500Y-87878097D01*
X237000500Y-87641902D01*
X236963553Y-87408631D01*
X236890566Y-87184003D01*
X236822542Y-87050500D01*
X236783343Y-86973567D01*
X236644517Y-86782490D01*
X236477510Y-86615483D01*
X236442872Y-86590317D01*
X236400207Y-86534989D01*
X236394228Y-86465375D01*
X236426833Y-86403580D01*
X236442873Y-86389682D01*
X236477510Y-86364517D01*
X236644517Y-86197510D01*
X236783343Y-86006433D01*
X236890568Y-85795992D01*
X236963553Y-85571368D01*
X236965071Y-85561785D01*
X237000500Y-85338097D01*
X237000500Y-85101902D01*
X236963553Y-84868631D01*
X236890566Y-84644003D01*
X236783342Y-84433566D01*
X236745810Y-84381908D01*
X236644517Y-84242490D01*
X236477510Y-84075483D01*
X236442872Y-84050317D01*
X236400207Y-83994989D01*
X236394228Y-83925375D01*
X236426833Y-83863580D01*
X236442873Y-83849682D01*
X236477510Y-83824517D01*
X236644517Y-83657510D01*
X236783343Y-83466433D01*
X236890568Y-83255992D01*
X236963553Y-83031368D01*
X236990269Y-82862690D01*
X237000500Y-82798097D01*
X237000500Y-82561902D01*
X236963553Y-82328631D01*
X236925007Y-82210000D01*
X236890568Y-82104008D01*
X236890566Y-82104005D01*
X236890566Y-82104003D01*
X236783342Y-81893566D01*
X236774219Y-81881009D01*
X236644517Y-81702490D01*
X236477510Y-81535483D01*
X236442872Y-81510317D01*
X236400207Y-81454989D01*
X236394228Y-81385375D01*
X236426833Y-81323580D01*
X236442873Y-81309682D01*
X236477510Y-81284517D01*
X236644517Y-81117510D01*
X236783343Y-80926433D01*
X236890568Y-80715992D01*
X236963553Y-80491368D01*
X236968910Y-80457544D01*
X237000500Y-80258097D01*
X237000500Y-80021902D01*
X236963553Y-79788631D01*
X236890566Y-79564003D01*
X236783342Y-79353566D01*
X236644517Y-79162490D01*
X236477510Y-78995483D01*
X236442872Y-78970317D01*
X236400207Y-78914989D01*
X236394228Y-78845375D01*
X236426833Y-78783580D01*
X236442873Y-78769682D01*
X236477510Y-78744517D01*
X236644517Y-78577510D01*
X236783343Y-78386433D01*
X236890568Y-78175992D01*
X236963553Y-77951368D01*
X236977292Y-77864624D01*
X237000500Y-77718097D01*
X237000500Y-77481902D01*
X236963553Y-77248631D01*
X236894385Y-77035755D01*
X236890568Y-77024008D01*
X236890566Y-77024005D01*
X236890566Y-77024003D01*
X236807215Y-76860418D01*
X236783343Y-76813567D01*
X236644517Y-76622490D01*
X236477510Y-76455483D01*
X236442872Y-76430317D01*
X236400207Y-76374989D01*
X236394228Y-76305375D01*
X236426833Y-76243580D01*
X236442873Y-76229682D01*
X236477510Y-76204517D01*
X236644517Y-76037510D01*
X236783343Y-75846433D01*
X236890568Y-75635992D01*
X236963553Y-75411368D01*
X236971016Y-75364248D01*
X237000500Y-75178097D01*
X237000500Y-74941902D01*
X236963553Y-74708631D01*
X236890566Y-74484003D01*
X236834002Y-74372991D01*
X236783343Y-74273567D01*
X236644517Y-74082490D01*
X236477510Y-73915483D01*
X236286433Y-73776657D01*
X236075996Y-73669433D01*
X235851368Y-73596446D01*
X235618097Y-73559500D01*
X235618092Y-73559500D01*
X235381908Y-73559500D01*
X235381903Y-73559500D01*
X235148631Y-73596446D01*
X234924003Y-73669433D01*
X234713566Y-73776657D01*
X234652142Y-73821285D01*
X234522490Y-73915483D01*
X234522488Y-73915485D01*
X234522487Y-73915485D01*
X234355485Y-74082487D01*
X234355485Y-74082488D01*
X234355483Y-74082490D01*
X234326113Y-74122914D01*
X234216657Y-74273566D01*
X234109433Y-74484003D01*
X234036446Y-74708631D01*
X233999500Y-74941902D01*
X225658491Y-74941902D01*
X225705047Y-74877822D01*
X225705047Y-74877820D01*
X225705051Y-74877816D01*
X225801557Y-74688412D01*
X225867246Y-74486243D01*
X225900500Y-74276287D01*
X225900500Y-74063713D01*
X225867246Y-73853757D01*
X225801557Y-73651588D01*
X225705051Y-73462184D01*
X225705049Y-73462181D01*
X225705048Y-73462179D01*
X225580109Y-73290213D01*
X225429786Y-73139890D01*
X225257820Y-73014951D01*
X225257115Y-73014591D01*
X225249054Y-73010485D01*
X225198259Y-72962512D01*
X225181463Y-72894692D01*
X225203999Y-72828556D01*
X225249054Y-72789515D01*
X225257816Y-72785051D01*
X225279789Y-72769086D01*
X225429786Y-72660109D01*
X225429788Y-72660106D01*
X225429792Y-72660104D01*
X225580104Y-72509792D01*
X225580106Y-72509788D01*
X225580109Y-72509786D01*
X225705048Y-72337820D01*
X225705047Y-72337820D01*
X225705051Y-72337816D01*
X225801557Y-72148412D01*
X225867246Y-71946243D01*
X225900500Y-71736287D01*
X225900500Y-71523713D01*
X225867246Y-71313757D01*
X225801557Y-71111588D01*
X225705051Y-70922184D01*
X225705049Y-70922181D01*
X225705048Y-70922179D01*
X225580109Y-70750213D01*
X225429786Y-70599890D01*
X225257820Y-70474951D01*
X225257115Y-70474591D01*
X225249054Y-70470485D01*
X225198259Y-70422512D01*
X225181463Y-70354692D01*
X225203999Y-70288556D01*
X225249054Y-70249515D01*
X225257816Y-70245051D01*
X225344138Y-70182335D01*
X225429786Y-70120109D01*
X225429788Y-70120106D01*
X225429792Y-70120104D01*
X225580104Y-69969792D01*
X225580106Y-69969788D01*
X225580109Y-69969786D01*
X225705048Y-69797820D01*
X225705047Y-69797820D01*
X225705051Y-69797816D01*
X225801557Y-69608412D01*
X225867246Y-69406243D01*
X225900500Y-69196287D01*
X225900500Y-68983713D01*
X225867246Y-68773757D01*
X225801557Y-68571588D01*
X225705051Y-68382184D01*
X225705049Y-68382181D01*
X225705048Y-68382179D01*
X225580109Y-68210213D01*
X225429786Y-68059890D01*
X225257820Y-67934951D01*
X225257115Y-67934591D01*
X225249054Y-67930485D01*
X225198259Y-67882512D01*
X225181463Y-67814692D01*
X225203999Y-67748556D01*
X225249054Y-67709515D01*
X225257816Y-67705051D01*
X225288794Y-67682544D01*
X225429786Y-67580109D01*
X225429788Y-67580106D01*
X225429792Y-67580104D01*
X225580104Y-67429792D01*
X225580106Y-67429788D01*
X225580109Y-67429786D01*
X225705048Y-67257820D01*
X225705047Y-67257820D01*
X225705051Y-67257816D01*
X225801557Y-67068412D01*
X225867246Y-66866243D01*
X225900500Y-66656287D01*
X225900500Y-66443713D01*
X225867246Y-66233757D01*
X225801557Y-66031588D01*
X225705051Y-65842184D01*
X225705049Y-65842181D01*
X225705048Y-65842179D01*
X225580109Y-65670213D01*
X225429786Y-65519890D01*
X225257820Y-65394951D01*
X225068414Y-65298444D01*
X225068413Y-65298443D01*
X225068412Y-65298443D01*
X224866243Y-65232754D01*
X224866241Y-65232753D01*
X224866240Y-65232753D01*
X224704957Y-65207208D01*
X224656287Y-65199500D01*
X224443713Y-65199500D01*
X224395042Y-65207208D01*
X224233760Y-65232753D01*
X224031585Y-65298444D01*
X223842179Y-65394951D01*
X223670213Y-65519890D01*
X223519890Y-65670213D01*
X223394951Y-65842179D01*
X223298444Y-66031585D01*
X223232753Y-66233760D01*
X223199500Y-66443713D01*
X201816613Y-66443713D01*
X201893893Y-66366433D01*
X202521217Y-65739110D01*
X202660043Y-65548034D01*
X202767268Y-65337592D01*
X202812137Y-65199500D01*
X202840253Y-65112968D01*
X202843039Y-65095375D01*
X202877200Y-64879697D01*
X202877200Y-46946902D01*
X202840253Y-46713631D01*
X202795205Y-46574989D01*
X202767268Y-46489008D01*
X202767266Y-46489005D01*
X202767266Y-46489003D01*
X202701790Y-46360500D01*
X202701790Y-46360499D01*
X202701789Y-46360498D01*
X202660045Y-46278570D01*
X202660043Y-46278566D01*
X202521217Y-46087490D01*
X202204210Y-45770483D01*
X202013134Y-45631657D01*
X201980971Y-45615269D01*
X201802696Y-45524433D01*
X201578068Y-45451446D01*
X201344797Y-45414500D01*
X201344792Y-45414500D01*
X199243092Y-45414500D01*
X192501392Y-45414500D01*
X192265208Y-45414500D01*
X192265203Y-45414500D01*
X192031931Y-45451446D01*
X191807303Y-45524433D01*
X191596865Y-45631657D01*
X191405788Y-45770484D01*
X174780484Y-62395788D01*
X174641657Y-62586865D01*
X174607129Y-62654631D01*
X174561739Y-62743714D01*
X174561738Y-62743714D01*
X174534431Y-62797308D01*
X174534431Y-62797309D01*
X174461447Y-63021927D01*
X174461447Y-63021930D01*
X174424500Y-63255202D01*
X174424500Y-69806411D01*
X174404815Y-69873450D01*
X174388181Y-69894092D01*
X168107185Y-76175087D01*
X168107184Y-76175088D01*
X167968357Y-76366165D01*
X167922848Y-76455483D01*
X167861133Y-76576603D01*
X167788146Y-76801231D01*
X167751200Y-77034502D01*
X167751200Y-97165265D01*
X167731515Y-97232304D01*
X167678711Y-97278059D01*
X167609553Y-97288003D01*
X167570905Y-97275750D01*
X167518217Y-97248904D01*
X167316129Y-97183242D01*
X167106246Y-97150000D01*
X166893754Y-97150000D01*
X166683872Y-97183242D01*
X166683869Y-97183242D01*
X166481782Y-97248904D01*
X166292439Y-97345380D01*
X166238282Y-97384727D01*
X166238282Y-97384728D01*
X166870591Y-98017037D01*
X166807007Y-98034075D01*
X166692993Y-98099901D01*
X166599901Y-98192993D01*
X166534075Y-98307007D01*
X166517037Y-98370591D01*
X165884728Y-97738282D01*
X165884727Y-97738282D01*
X165845380Y-97792439D01*
X165748904Y-97981782D01*
X165683242Y-98183869D01*
X165683242Y-98183872D01*
X165650000Y-98393753D01*
X165650000Y-98606246D01*
X165683242Y-98816127D01*
X165683242Y-98816130D01*
X165748904Y-99018217D01*
X165845375Y-99207550D01*
X165884728Y-99261716D01*
X166517037Y-98629408D01*
X166534075Y-98692993D01*
X166599901Y-98807007D01*
X166692993Y-98900099D01*
X166807007Y-98965925D01*
X166870589Y-98982962D01*
X166238281Y-99615270D01*
X166242022Y-99662794D01*
X166227658Y-99731172D01*
X166191290Y-99772840D01*
X166022496Y-99895478D01*
X166022487Y-99895485D01*
X165855485Y-100062487D01*
X165855485Y-100062488D01*
X165855483Y-100062490D01*
X165821959Y-100108632D01*
X165716657Y-100253566D01*
X165609433Y-100464003D01*
X165536446Y-100688631D01*
X165499500Y-100921902D01*
X165499500Y-101158097D01*
X165536446Y-101391368D01*
X165609433Y-101615996D01*
X165673928Y-101742573D01*
X165716657Y-101826433D01*
X165855483Y-102017510D01*
X166022490Y-102184517D01*
X166184723Y-102302387D01*
X166227388Y-102357716D01*
X166233367Y-102427329D01*
X166200761Y-102489124D01*
X166184723Y-102503022D01*
X166120209Y-102549894D01*
X165969890Y-102700213D01*
X165844951Y-102872179D01*
X165748444Y-103061585D01*
X165682753Y-103263760D01*
X165668351Y-103354692D01*
X165649500Y-103473713D01*
X165649500Y-103686287D01*
X165682754Y-103896243D01*
X165746625Y-104092818D01*
X165748444Y-104098414D01*
X165844951Y-104287820D01*
X165969890Y-104459786D01*
X166083430Y-104573326D01*
X166116915Y-104634649D01*
X166111931Y-104704341D01*
X166070059Y-104760274D01*
X166039083Y-104777189D01*
X165907669Y-104826203D01*
X165907664Y-104826206D01*
X165792455Y-104912452D01*
X165792452Y-104912455D01*
X165706206Y-105027664D01*
X165706202Y-105027671D01*
X165655908Y-105162517D01*
X165649501Y-105222116D01*
X165649500Y-105222135D01*
X165649500Y-107017870D01*
X165649501Y-107017876D01*
X165655908Y-107077483D01*
X165706202Y-107212328D01*
X165706206Y-107212335D01*
X165792452Y-107327544D01*
X165792455Y-107327547D01*
X165907664Y-107413793D01*
X165907671Y-107413797D01*
X166042517Y-107464091D01*
X166042516Y-107464091D01*
X166049444Y-107464835D01*
X166102127Y-107470500D01*
X167477200Y-107470499D01*
X167544239Y-107490184D01*
X167589994Y-107542987D01*
X167601200Y-107594499D01*
X167601200Y-117904671D01*
X167581515Y-117971710D01*
X167528711Y-118017465D01*
X167459553Y-118027409D01*
X167438882Y-118022602D01*
X167316240Y-117982753D01*
X167154957Y-117957208D01*
X167106287Y-117949500D01*
X166893713Y-117949500D01*
X166845042Y-117957208D01*
X166683760Y-117982753D01*
X166481585Y-118048444D01*
X166292179Y-118144951D01*
X166120213Y-118269890D01*
X165969890Y-118420213D01*
X165844951Y-118592179D01*
X165748444Y-118781585D01*
X165748443Y-118781587D01*
X165748443Y-118781588D01*
X165715598Y-118882672D01*
X165682753Y-118983760D01*
X165649500Y-119193713D01*
X165649500Y-119406286D01*
X165682753Y-119616239D01*
X165748444Y-119818414D01*
X165844951Y-120007820D01*
X165969890Y-120179786D01*
X166120213Y-120330109D01*
X166292182Y-120455050D01*
X166300946Y-120459516D01*
X166351742Y-120507491D01*
X166368536Y-120575312D01*
X166345998Y-120641447D01*
X166300946Y-120680484D01*
X166292182Y-120684949D01*
X166120213Y-120809890D01*
X165969890Y-120960213D01*
X165844951Y-121132179D01*
X165748444Y-121321585D01*
X165748443Y-121321587D01*
X165748443Y-121321588D01*
X165729136Y-121381009D01*
X165682753Y-121523760D01*
X165654494Y-121702184D01*
X165649500Y-121733713D01*
X165649500Y-121946287D01*
X165682754Y-122156243D01*
X165738920Y-122329104D01*
X165748444Y-122358414D01*
X165844951Y-122547820D01*
X165969890Y-122719786D01*
X166120213Y-122870109D01*
X166292182Y-122995050D01*
X166300946Y-122999516D01*
X166351742Y-123047491D01*
X166368536Y-123115312D01*
X166345998Y-123181447D01*
X166300946Y-123220484D01*
X166292182Y-123224949D01*
X166120213Y-123349890D01*
X165969890Y-123500213D01*
X165844951Y-123672179D01*
X165748444Y-123861585D01*
X165748443Y-123861587D01*
X165748443Y-123861588D01*
X165715598Y-123962672D01*
X165682753Y-124063760D01*
X165649500Y-124273713D01*
X165649500Y-124486286D01*
X165682753Y-124696239D01*
X165748444Y-124898414D01*
X165844951Y-125087820D01*
X165969890Y-125259786D01*
X166120213Y-125410109D01*
X166292182Y-125535050D01*
X166300946Y-125539516D01*
X166351742Y-125587491D01*
X166368536Y-125655312D01*
X166345998Y-125721447D01*
X166300946Y-125760484D01*
X166292182Y-125764949D01*
X166120213Y-125889890D01*
X165969890Y-126040213D01*
X165844951Y-126212179D01*
X165748444Y-126401585D01*
X165748443Y-126401587D01*
X165748443Y-126401588D01*
X165715598Y-126502672D01*
X165682753Y-126603760D01*
X165649500Y-126813713D01*
X165649500Y-127026286D01*
X165682753Y-127236239D01*
X165748444Y-127438414D01*
X165844951Y-127627820D01*
X165969890Y-127799786D01*
X165969896Y-127799792D01*
X166120208Y-127950104D01*
X166280725Y-128066726D01*
X166292141Y-128081530D01*
X166307106Y-128092733D01*
X166313032Y-128108622D01*
X166323390Y-128122054D01*
X166324989Y-128140681D01*
X166331523Y-128158197D01*
X166327917Y-128174770D01*
X166329369Y-128191667D01*
X166320645Y-128208201D01*
X166316671Y-128226470D01*
X166297480Y-128252105D01*
X166296764Y-128253463D01*
X166295520Y-128254724D01*
X166124606Y-128425638D01*
X166122727Y-128427376D01*
X165969889Y-128580215D01*
X165844951Y-128752179D01*
X165748444Y-128941585D01*
X165748443Y-128941587D01*
X165748443Y-128941588D01*
X165720161Y-129028631D01*
X165682753Y-129143760D01*
X165649500Y-129353713D01*
X165649500Y-129566286D01*
X165670244Y-129697262D01*
X165682754Y-129776243D01*
X165741158Y-129955992D01*
X165748444Y-129978414D01*
X165844951Y-130167820D01*
X165969890Y-130339786D01*
X166083818Y-130453714D01*
X166117303Y-130515037D01*
X166112319Y-130584729D01*
X166070447Y-130640662D01*
X166039471Y-130657577D01*
X165907912Y-130706646D01*
X165907906Y-130706649D01*
X165792812Y-130792809D01*
X165792809Y-130792812D01*
X165706649Y-130907906D01*
X165706645Y-130907913D01*
X165656403Y-131042620D01*
X165656401Y-131042627D01*
X165650000Y-131102155D01*
X165650000Y-131750000D01*
X166566988Y-131750000D01*
X166534075Y-131807007D01*
X166500000Y-131934174D01*
X166500000Y-132065826D01*
X166534075Y-132192993D01*
X166566988Y-132250000D01*
X165650000Y-132250000D01*
X165650000Y-132625500D01*
X165630315Y-132692539D01*
X165577511Y-132738294D01*
X165526000Y-132749500D01*
X164639209Y-132749500D01*
X164572170Y-132729815D01*
X164551528Y-132713181D01*
X140161819Y-108323472D01*
X140128334Y-108262149D01*
X140125500Y-108235791D01*
X140125500Y-101062681D01*
X140145185Y-100995642D01*
X140184714Y-100956952D01*
X140187805Y-100955057D01*
X140187806Y-100955055D01*
X140187816Y-100955051D01*
X140359792Y-100830104D01*
X140510104Y-100679792D01*
X140510106Y-100679788D01*
X140510109Y-100679786D01*
X140635048Y-100507820D01*
X140635047Y-100507820D01*
X140635051Y-100507816D01*
X140639514Y-100499054D01*
X140687488Y-100448259D01*
X140755308Y-100431463D01*
X140821444Y-100453999D01*
X140860486Y-100499056D01*
X140864951Y-100507820D01*
X140989890Y-100679786D01*
X141140213Y-100830109D01*
X141312179Y-100955048D01*
X141312181Y-100955049D01*
X141312184Y-100955051D01*
X141501588Y-101051557D01*
X141703757Y-101117246D01*
X141913713Y-101150500D01*
X141913714Y-101150500D01*
X142126286Y-101150500D01*
X142126287Y-101150500D01*
X142336243Y-101117246D01*
X142538412Y-101051557D01*
X142727816Y-100955051D01*
X142782572Y-100915269D01*
X142899786Y-100830109D01*
X142899788Y-100830106D01*
X142899792Y-100830104D01*
X143050104Y-100679792D01*
X143050106Y-100679788D01*
X143050109Y-100679786D01*
X143175048Y-100507820D01*
X143175047Y-100507820D01*
X143175051Y-100507816D01*
X143179514Y-100499054D01*
X143227488Y-100448259D01*
X143295308Y-100431463D01*
X143361444Y-100453999D01*
X143400486Y-100499056D01*
X143404951Y-100507820D01*
X143529890Y-100679786D01*
X143680213Y-100830109D01*
X143852179Y-100955048D01*
X143852181Y-100955049D01*
X143852184Y-100955051D01*
X144041588Y-101051557D01*
X144243757Y-101117246D01*
X144453713Y-101150500D01*
X144453714Y-101150500D01*
X144666286Y-101150500D01*
X144666287Y-101150500D01*
X144876243Y-101117246D01*
X145078412Y-101051557D01*
X145267816Y-100955051D01*
X145354478Y-100892088D01*
X145439784Y-100830110D01*
X145439784Y-100830109D01*
X145439792Y-100830104D01*
X145553717Y-100716178D01*
X145615036Y-100682696D01*
X145684728Y-100687680D01*
X145740662Y-100729551D01*
X145757577Y-100760528D01*
X145806646Y-100892088D01*
X145806649Y-100892093D01*
X145892809Y-101007187D01*
X145892812Y-101007190D01*
X146007906Y-101093350D01*
X146007913Y-101093354D01*
X146142620Y-101143596D01*
X146142627Y-101143598D01*
X146202155Y-101149999D01*
X146202172Y-101150000D01*
X146850000Y-101150000D01*
X146850000Y-100233012D01*
X146907007Y-100265925D01*
X147034174Y-100300000D01*
X147165826Y-100300000D01*
X147292993Y-100265925D01*
X147350000Y-100233012D01*
X147350000Y-101150000D01*
X147997828Y-101150000D01*
X147997844Y-101149999D01*
X148057372Y-101143598D01*
X148057379Y-101143596D01*
X148192086Y-101093354D01*
X148192093Y-101093350D01*
X148307187Y-101007190D01*
X148307190Y-101007187D01*
X148393350Y-100892093D01*
X148393354Y-100892086D01*
X148443596Y-100757379D01*
X148443598Y-100757372D01*
X148449999Y-100697844D01*
X148450000Y-100697827D01*
X148450000Y-100050000D01*
X147533012Y-100050000D01*
X147565925Y-99992993D01*
X147600000Y-99865826D01*
X147600000Y-99734174D01*
X147565925Y-99607007D01*
X147533012Y-99550000D01*
X148450000Y-99550000D01*
X148450000Y-98902172D01*
X148449999Y-98902155D01*
X148443598Y-98842627D01*
X148443596Y-98842620D01*
X148393354Y-98707913D01*
X148393350Y-98707906D01*
X148307190Y-98592812D01*
X148307187Y-98592809D01*
X148192093Y-98506649D01*
X148192084Y-98506644D01*
X148187844Y-98505063D01*
X148187843Y-98505063D01*
X148057379Y-98456403D01*
X148057372Y-98456401D01*
X147997844Y-98450000D01*
X147350000Y-98450000D01*
X147350000Y-99366988D01*
X147292993Y-99334075D01*
X147165826Y-99300000D01*
X147034174Y-99300000D01*
X146907007Y-99334075D01*
X146850000Y-99366988D01*
X146850000Y-98450000D01*
X146202155Y-98450000D01*
X146142627Y-98456401D01*
X146142620Y-98456403D01*
X146007913Y-98506645D01*
X146007906Y-98506649D01*
X145892812Y-98592809D01*
X145892809Y-98592812D01*
X145806649Y-98707906D01*
X145806646Y-98707912D01*
X145757577Y-98839471D01*
X145715705Y-98895404D01*
X145650241Y-98919821D01*
X145581968Y-98904969D01*
X145553714Y-98883818D01*
X145439786Y-98769890D01*
X145267820Y-98644951D01*
X145078414Y-98548444D01*
X145078413Y-98548443D01*
X145078412Y-98548443D01*
X144876243Y-98482754D01*
X144876241Y-98482753D01*
X144876240Y-98482753D01*
X144714957Y-98457208D01*
X144666287Y-98449500D01*
X144453713Y-98449500D01*
X144405042Y-98457208D01*
X144243760Y-98482753D01*
X144041585Y-98548444D01*
X143852179Y-98644951D01*
X143680213Y-98769890D01*
X143529890Y-98920213D01*
X143404949Y-99092182D01*
X143400484Y-99100946D01*
X143352509Y-99151742D01*
X143284688Y-99168536D01*
X143218553Y-99145998D01*
X143179516Y-99100946D01*
X143175050Y-99092182D01*
X143050109Y-98920213D01*
X142899786Y-98769890D01*
X142727820Y-98644951D01*
X142538414Y-98548444D01*
X142538413Y-98548443D01*
X142538412Y-98548443D01*
X142336243Y-98482754D01*
X142336241Y-98482753D01*
X142336240Y-98482753D01*
X142174957Y-98457208D01*
X142126287Y-98449500D01*
X141913713Y-98449500D01*
X141865042Y-98457208D01*
X141703760Y-98482753D01*
X141501585Y-98548444D01*
X141312179Y-98644951D01*
X141140213Y-98769890D01*
X140989890Y-98920213D01*
X140864949Y-99092182D01*
X140860484Y-99100946D01*
X140812509Y-99151742D01*
X140744688Y-99168536D01*
X140678553Y-99145998D01*
X140639516Y-99100946D01*
X140635050Y-99092182D01*
X140510109Y-98920213D01*
X140359786Y-98769890D01*
X140187820Y-98644951D01*
X139998414Y-98548444D01*
X139998413Y-98548443D01*
X139998412Y-98548443D01*
X139796243Y-98482754D01*
X139796241Y-98482753D01*
X139796240Y-98482753D01*
X139634957Y-98457208D01*
X139586287Y-98449500D01*
X139373713Y-98449500D01*
X139325042Y-98457208D01*
X139163760Y-98482753D01*
X138961585Y-98548444D01*
X138772179Y-98644951D01*
X138600213Y-98769890D01*
X138449890Y-98920213D01*
X138324949Y-99092182D01*
X138320484Y-99100946D01*
X138272509Y-99151742D01*
X138204688Y-99168536D01*
X138138553Y-99145998D01*
X138099516Y-99100946D01*
X138095050Y-99092182D01*
X137970109Y-98920213D01*
X137819786Y-98769890D01*
X137647820Y-98644951D01*
X137458414Y-98548444D01*
X137458413Y-98548443D01*
X137458412Y-98548443D01*
X137256243Y-98482754D01*
X137256241Y-98482753D01*
X137256240Y-98482753D01*
X137094957Y-98457208D01*
X137046287Y-98449500D01*
X136833713Y-98449500D01*
X136785042Y-98457208D01*
X136623760Y-98482753D01*
X136421585Y-98548444D01*
X136232179Y-98644951D01*
X136060213Y-98769890D01*
X135909890Y-98920213D01*
X135784949Y-99092182D01*
X135780202Y-99101499D01*
X135732227Y-99152293D01*
X135664405Y-99169087D01*
X135598271Y-99146548D01*
X135559234Y-99101495D01*
X135554626Y-99092452D01*
X135515270Y-99038282D01*
X135515269Y-99038282D01*
X134882962Y-99670590D01*
X134865925Y-99607007D01*
X134800099Y-99492993D01*
X134707007Y-99399901D01*
X134592993Y-99334075D01*
X134529409Y-99317037D01*
X135161716Y-98684728D01*
X135107550Y-98645375D01*
X134918217Y-98548904D01*
X134716129Y-98483242D01*
X134506246Y-98450000D01*
X134293754Y-98450000D01*
X134083872Y-98483242D01*
X134083869Y-98483242D01*
X133881782Y-98548904D01*
X133692439Y-98645380D01*
X133638282Y-98684727D01*
X133638282Y-98684728D01*
X134270591Y-99317037D01*
X134207007Y-99334075D01*
X134092993Y-99399901D01*
X133999901Y-99492993D01*
X133934075Y-99607007D01*
X133917037Y-99670591D01*
X133284728Y-99038282D01*
X133284727Y-99038282D01*
X133245380Y-99092440D01*
X133245376Y-99092446D01*
X133240760Y-99101505D01*
X133192781Y-99152297D01*
X133124959Y-99169087D01*
X133058826Y-99146543D01*
X133019794Y-99101493D01*
X133015051Y-99092184D01*
X133015049Y-99092181D01*
X133015048Y-99092179D01*
X132890109Y-98920213D01*
X132739786Y-98769890D01*
X132567820Y-98644951D01*
X132378414Y-98548444D01*
X132378413Y-98548443D01*
X132378412Y-98548443D01*
X132176243Y-98482754D01*
X132176241Y-98482753D01*
X132176240Y-98482753D01*
X132014957Y-98457208D01*
X131966287Y-98449500D01*
X131753713Y-98449500D01*
X131705042Y-98457208D01*
X131543760Y-98482753D01*
X131341585Y-98548444D01*
X131152179Y-98644951D01*
X130980213Y-98769890D01*
X130829890Y-98920213D01*
X130704951Y-99092179D01*
X130608444Y-99281585D01*
X130542753Y-99483760D01*
X130509500Y-99693713D01*
X130509500Y-99906286D01*
X130541548Y-100108632D01*
X130542754Y-100116243D01*
X130606267Y-100311716D01*
X130608444Y-100318414D01*
X130704951Y-100507820D01*
X130829890Y-100679786D01*
X130980213Y-100830109D01*
X131152179Y-100955048D01*
X131152181Y-100955049D01*
X131152184Y-100955051D01*
X131341588Y-101051557D01*
X131543757Y-101117246D01*
X131753713Y-101150500D01*
X131753714Y-101150500D01*
X131966286Y-101150500D01*
X131966287Y-101150500D01*
X132176243Y-101117246D01*
X132378412Y-101051557D01*
X132567816Y-100955051D01*
X132622572Y-100915269D01*
X132739786Y-100830109D01*
X132739788Y-100830106D01*
X132739792Y-100830104D01*
X132890104Y-100679792D01*
X132890106Y-100679788D01*
X132890109Y-100679786D01*
X132975890Y-100561717D01*
X133015051Y-100507816D01*
X133019793Y-100498508D01*
X133067763Y-100447711D01*
X133135583Y-100430911D01*
X133201719Y-100453445D01*
X133240763Y-100498500D01*
X133245373Y-100507547D01*
X133284728Y-100561716D01*
X133917037Y-99929408D01*
X133934075Y-99992993D01*
X133999901Y-100107007D01*
X134092993Y-100200099D01*
X134207007Y-100265925D01*
X134270590Y-100282962D01*
X133638282Y-100915269D01*
X133638282Y-100915270D01*
X133692449Y-100954624D01*
X133881782Y-101051095D01*
X134083870Y-101116757D01*
X134293754Y-101150000D01*
X134506246Y-101150000D01*
X134716127Y-101116757D01*
X134716130Y-101116757D01*
X134918217Y-101051095D01*
X135107554Y-100954622D01*
X135161716Y-100915270D01*
X135161717Y-100915270D01*
X134529408Y-100282962D01*
X134592993Y-100265925D01*
X134707007Y-100200099D01*
X134800099Y-100107007D01*
X134865925Y-99992993D01*
X134882962Y-99929409D01*
X135515270Y-100561717D01*
X135515270Y-100561716D01*
X135554622Y-100507555D01*
X135559232Y-100498507D01*
X135607205Y-100447709D01*
X135675025Y-100430912D01*
X135741161Y-100453447D01*
X135780204Y-100498504D01*
X135784949Y-100507817D01*
X135909890Y-100679786D01*
X136060213Y-100830109D01*
X136232179Y-100955048D01*
X136232181Y-100955049D01*
X136232184Y-100955051D01*
X136421588Y-101051557D01*
X136623757Y-101117246D01*
X136833713Y-101150500D01*
X136833714Y-101150500D01*
X137046286Y-101150500D01*
X137046287Y-101150500D01*
X137256243Y-101117246D01*
X137458412Y-101051557D01*
X137647816Y-100955051D01*
X137702572Y-100915269D01*
X137819786Y-100830109D01*
X137819788Y-100830106D01*
X137819792Y-100830104D01*
X137970104Y-100679792D01*
X137970106Y-100679788D01*
X137970109Y-100679786D01*
X138095048Y-100507820D01*
X138095047Y-100507820D01*
X138095051Y-100507816D01*
X138099514Y-100499054D01*
X138147488Y-100448259D01*
X138215308Y-100431463D01*
X138281444Y-100453999D01*
X138320486Y-100499056D01*
X138324951Y-100507820D01*
X138449890Y-100679786D01*
X138449896Y-100679792D01*
X138600208Y-100830104D01*
X138772184Y-100955051D01*
X138806795Y-100972686D01*
X138857590Y-101020658D01*
X138874500Y-101083170D01*
X138874500Y-108607855D01*
X138898535Y-108728688D01*
X138898540Y-108728705D01*
X138945685Y-108842524D01*
X138945687Y-108842527D01*
X138945688Y-108842530D01*
X138979915Y-108893753D01*
X139014142Y-108944977D01*
X139101267Y-109032102D01*
X139101270Y-109032104D01*
X163842897Y-133773732D01*
X163842898Y-133773733D01*
X163930023Y-133860858D01*
X164013216Y-133916446D01*
X164013218Y-133916448D01*
X164024759Y-133924158D01*
X164032470Y-133929311D01*
X164146304Y-133976463D01*
X164267144Y-134000499D01*
X164267148Y-134000500D01*
X164267149Y-134000500D01*
X169484906Y-134000500D01*
X169545328Y-133988481D01*
X169605751Y-133976463D01*
X169639091Y-133962652D01*
X169719585Y-133929312D01*
X169770808Y-133895084D01*
X169822032Y-133860858D01*
X169909157Y-133773733D01*
X169909158Y-133773731D01*
X169916224Y-133766665D01*
X169916227Y-133766661D01*
X174288319Y-129394569D01*
X174349642Y-129361084D01*
X174419334Y-129366068D01*
X174475267Y-129407940D01*
X174499684Y-129473404D01*
X174500000Y-129482250D01*
X174500000Y-139375500D01*
X174480315Y-139442539D01*
X174427511Y-139488294D01*
X174376000Y-139499500D01*
X119124500Y-139499500D01*
X119057461Y-139479815D01*
X119011706Y-139427011D01*
X119000500Y-139375500D01*
X119000500Y-135878711D01*
X120649500Y-135878711D01*
X120649500Y-136121288D01*
X120681161Y-136361785D01*
X120743947Y-136596104D01*
X120836773Y-136820205D01*
X120836776Y-136820212D01*
X120958064Y-137030289D01*
X120958066Y-137030292D01*
X120958067Y-137030293D01*
X121105733Y-137222736D01*
X121105739Y-137222743D01*
X121277256Y-137394260D01*
X121277262Y-137394265D01*
X121469711Y-137541936D01*
X121679788Y-137663224D01*
X121903900Y-137756054D01*
X122138211Y-137818838D01*
X122318586Y-137842584D01*
X122378711Y-137850500D01*
X122378712Y-137850500D01*
X122621289Y-137850500D01*
X122669388Y-137844167D01*
X122861789Y-137818838D01*
X123096100Y-137756054D01*
X123320212Y-137663224D01*
X123530289Y-137541936D01*
X123722738Y-137394265D01*
X123894265Y-137222738D01*
X124041936Y-137030289D01*
X124163224Y-136820212D01*
X124256054Y-136596100D01*
X124318838Y-136361789D01*
X124350500Y-136121288D01*
X124350500Y-135878712D01*
X124350500Y-135878711D01*
X156209500Y-135878711D01*
X156209500Y-136121288D01*
X156241161Y-136361785D01*
X156303947Y-136596104D01*
X156396773Y-136820205D01*
X156396776Y-136820212D01*
X156518064Y-137030289D01*
X156518066Y-137030292D01*
X156518067Y-137030293D01*
X156665733Y-137222736D01*
X156665739Y-137222743D01*
X156837256Y-137394260D01*
X156837262Y-137394265D01*
X157029711Y-137541936D01*
X157239788Y-137663224D01*
X157463900Y-137756054D01*
X157698211Y-137818838D01*
X157878586Y-137842584D01*
X157938711Y-137850500D01*
X157938712Y-137850500D01*
X158181289Y-137850500D01*
X158229388Y-137844167D01*
X158421789Y-137818838D01*
X158656100Y-137756054D01*
X158880212Y-137663224D01*
X159090289Y-137541936D01*
X159282738Y-137394265D01*
X159454265Y-137222738D01*
X159601936Y-137030289D01*
X159723224Y-136820212D01*
X159816054Y-136596100D01*
X159878838Y-136361789D01*
X159910500Y-136121288D01*
X159910500Y-135878712D01*
X159878838Y-135638211D01*
X159816054Y-135403900D01*
X159723224Y-135179788D01*
X159601936Y-134969711D01*
X159454265Y-134777262D01*
X159454260Y-134777256D01*
X159282743Y-134605739D01*
X159282736Y-134605733D01*
X159090293Y-134458067D01*
X159090292Y-134458066D01*
X159090289Y-134458064D01*
X158918661Y-134358974D01*
X158880214Y-134336777D01*
X158880205Y-134336773D01*
X158656104Y-134243947D01*
X158421785Y-134181161D01*
X158181289Y-134149500D01*
X158181288Y-134149500D01*
X157938712Y-134149500D01*
X157938711Y-134149500D01*
X157698214Y-134181161D01*
X157463895Y-134243947D01*
X157239794Y-134336773D01*
X157239785Y-134336777D01*
X157029706Y-134458067D01*
X156837263Y-134605733D01*
X156837256Y-134605739D01*
X156665739Y-134777256D01*
X156665733Y-134777263D01*
X156518067Y-134969706D01*
X156396777Y-135179785D01*
X156396773Y-135179794D01*
X156303947Y-135403895D01*
X156241161Y-135638214D01*
X156209500Y-135878711D01*
X124350500Y-135878711D01*
X124318838Y-135638211D01*
X124256054Y-135403900D01*
X124163224Y-135179788D01*
X124041936Y-134969711D01*
X123894265Y-134777262D01*
X123894260Y-134777256D01*
X123722743Y-134605739D01*
X123722736Y-134605733D01*
X123530293Y-134458067D01*
X123530292Y-134458066D01*
X123530289Y-134458064D01*
X123358661Y-134358974D01*
X123320214Y-134336777D01*
X123320205Y-134336773D01*
X123096104Y-134243947D01*
X122861785Y-134181161D01*
X122621289Y-134149500D01*
X122621288Y-134149500D01*
X122378712Y-134149500D01*
X122378711Y-134149500D01*
X122138214Y-134181161D01*
X121903895Y-134243947D01*
X121679794Y-134336773D01*
X121679785Y-134336777D01*
X121469706Y-134458067D01*
X121277263Y-134605733D01*
X121277256Y-134605739D01*
X121105739Y-134777256D01*
X121105733Y-134777263D01*
X120958067Y-134969706D01*
X120836777Y-135179785D01*
X120836773Y-135179794D01*
X120743947Y-135403895D01*
X120681161Y-135638214D01*
X120649500Y-135878711D01*
X119000500Y-135878711D01*
X119000500Y-90158711D01*
X120649500Y-90158711D01*
X120649500Y-90401288D01*
X120681161Y-90641785D01*
X120743947Y-90876104D01*
X120836773Y-91100205D01*
X120836776Y-91100212D01*
X120958064Y-91310289D01*
X120958066Y-91310292D01*
X120958067Y-91310293D01*
X121105733Y-91502736D01*
X121105739Y-91502743D01*
X121277256Y-91674260D01*
X121277263Y-91674266D01*
X121364836Y-91741463D01*
X121469711Y-91821936D01*
X121679788Y-91943224D01*
X121903900Y-92036054D01*
X122138211Y-92098838D01*
X122318586Y-92122584D01*
X122378711Y-92130500D01*
X122378712Y-92130500D01*
X122621289Y-92130500D01*
X122669388Y-92124167D01*
X122861789Y-92098838D01*
X123096100Y-92036054D01*
X123320212Y-91943224D01*
X123530289Y-91821936D01*
X123722738Y-91674265D01*
X123894265Y-91502738D01*
X124041936Y-91310289D01*
X124163224Y-91100212D01*
X124256054Y-90876100D01*
X124318838Y-90641789D01*
X124350500Y-90401288D01*
X124350500Y-90158712D01*
X124318838Y-89918211D01*
X124256054Y-89683900D01*
X124163224Y-89459788D01*
X124041936Y-89249711D01*
X123923382Y-89095208D01*
X123894266Y-89057263D01*
X123894260Y-89057256D01*
X123722743Y-88885739D01*
X123722736Y-88885733D01*
X123530293Y-88738067D01*
X123530292Y-88738066D01*
X123530289Y-88738064D01*
X123347570Y-88632571D01*
X123320214Y-88616777D01*
X123320205Y-88616773D01*
X123096104Y-88523947D01*
X122861785Y-88461161D01*
X122621289Y-88429500D01*
X122621288Y-88429500D01*
X122378712Y-88429500D01*
X122378711Y-88429500D01*
X122138214Y-88461161D01*
X121903895Y-88523947D01*
X121679794Y-88616773D01*
X121679785Y-88616777D01*
X121469706Y-88738067D01*
X121277263Y-88885733D01*
X121277256Y-88885739D01*
X121105739Y-89057256D01*
X121105733Y-89057263D01*
X120958067Y-89249706D01*
X120836777Y-89459785D01*
X120836773Y-89459794D01*
X120743947Y-89683895D01*
X120681161Y-89918214D01*
X120649500Y-90158711D01*
X119000500Y-90158711D01*
X119000500Y-84381902D01*
X122999500Y-84381902D01*
X122999500Y-84618097D01*
X123036446Y-84851368D01*
X123109433Y-85075996D01*
X123216657Y-85286433D01*
X123355483Y-85477510D01*
X123522490Y-85644517D01*
X123713567Y-85783343D01*
X123812991Y-85834002D01*
X123924003Y-85890566D01*
X123924005Y-85890566D01*
X123924008Y-85890568D01*
X124044412Y-85929689D01*
X124148631Y-85963553D01*
X124381903Y-86000500D01*
X124381908Y-86000500D01*
X124618097Y-86000500D01*
X124851368Y-85963553D01*
X125075992Y-85890568D01*
X125286433Y-85783343D01*
X125477510Y-85644517D01*
X125644517Y-85477510D01*
X125783343Y-85286433D01*
X125890568Y-85075992D01*
X125963553Y-84851368D01*
X125965637Y-84838211D01*
X126000500Y-84618097D01*
X126000500Y-84381902D01*
X125963553Y-84148631D01*
X125913631Y-83994989D01*
X125890568Y-83924008D01*
X125890566Y-83924005D01*
X125890566Y-83924003D01*
X125783342Y-83713566D01*
X125644517Y-83522490D01*
X125644508Y-83522481D01*
X125641353Y-83518786D01*
X125643022Y-83517360D01*
X125613910Y-83464045D01*
X125618894Y-83394353D01*
X125660766Y-83338420D01*
X125669980Y-83332148D01*
X125718343Y-83302317D01*
X125842315Y-83178345D01*
X125934356Y-83029124D01*
X125934358Y-83029119D01*
X125989505Y-82862697D01*
X125989506Y-82862690D01*
X125999999Y-82759986D01*
X126000000Y-82759973D01*
X126000000Y-82210000D01*
X125048482Y-82210000D01*
X125059111Y-82191591D01*
X125100000Y-82038991D01*
X125100000Y-81881009D01*
X125059111Y-81728409D01*
X125048482Y-81710000D01*
X125999999Y-81710000D01*
X125999999Y-81160028D01*
X125999998Y-81160013D01*
X125989505Y-81057302D01*
X125934358Y-80890880D01*
X125934356Y-80890875D01*
X125842315Y-80741654D01*
X125718345Y-80617684D01*
X125569124Y-80525643D01*
X125569119Y-80525641D01*
X125402697Y-80470494D01*
X125402690Y-80470493D01*
X125299986Y-80460000D01*
X124750000Y-80460000D01*
X124750000Y-81411517D01*
X124731591Y-81400889D01*
X124578991Y-81360000D01*
X124421009Y-81360000D01*
X124268409Y-81400889D01*
X124250000Y-81411517D01*
X124250000Y-80460000D01*
X123700028Y-80460000D01*
X123700012Y-80460001D01*
X123597302Y-80470494D01*
X123430880Y-80525641D01*
X123430875Y-80525643D01*
X123281654Y-80617684D01*
X123157684Y-80741654D01*
X123065643Y-80890875D01*
X123065641Y-80890880D01*
X123010494Y-81057302D01*
X123010493Y-81057309D01*
X123000000Y-81160013D01*
X123000000Y-81710000D01*
X123951518Y-81710000D01*
X123940889Y-81728409D01*
X123900000Y-81881009D01*
X123900000Y-82038991D01*
X123940889Y-82191591D01*
X123951518Y-82210000D01*
X123000001Y-82210000D01*
X123000001Y-82759986D01*
X123010494Y-82862697D01*
X123065641Y-83029119D01*
X123065643Y-83029124D01*
X123157684Y-83178345D01*
X123281655Y-83302316D01*
X123281659Y-83302319D01*
X123330020Y-83332149D01*
X123376745Y-83384097D01*
X123387966Y-83453059D01*
X123360123Y-83517141D01*
X123358632Y-83518773D01*
X123358647Y-83518786D01*
X123355485Y-83522488D01*
X123355483Y-83522490D01*
X123345106Y-83536773D01*
X123216657Y-83713566D01*
X123109433Y-83924003D01*
X123036446Y-84148631D01*
X122999500Y-84381902D01*
X119000500Y-84381902D01*
X119000500Y-65352155D01*
X121760000Y-65352155D01*
X121760000Y-66000000D01*
X122676988Y-66000000D01*
X122644075Y-66057007D01*
X122610000Y-66184174D01*
X122610000Y-66315826D01*
X122644075Y-66442993D01*
X122676988Y-66500000D01*
X121760000Y-66500000D01*
X121760000Y-67147844D01*
X121766401Y-67207372D01*
X121766403Y-67207379D01*
X121816645Y-67342086D01*
X121816649Y-67342093D01*
X121902809Y-67457187D01*
X121902812Y-67457190D01*
X122017906Y-67543350D01*
X122017913Y-67543354D01*
X122152620Y-67593596D01*
X122152627Y-67593598D01*
X122212155Y-67599999D01*
X122212172Y-67600000D01*
X122860000Y-67600000D01*
X122860000Y-66683012D01*
X122917007Y-66715925D01*
X123044174Y-66750000D01*
X123175826Y-66750000D01*
X123302993Y-66715925D01*
X123360000Y-66683012D01*
X123360000Y-67600000D01*
X124007828Y-67600000D01*
X124007844Y-67599999D01*
X124067372Y-67593598D01*
X124067379Y-67593596D01*
X124202086Y-67543354D01*
X124202093Y-67543350D01*
X124317187Y-67457190D01*
X124317190Y-67457187D01*
X124403350Y-67342093D01*
X124403354Y-67342086D01*
X124425529Y-67282632D01*
X124464319Y-67109390D01*
X124464682Y-67108734D01*
X124464642Y-67107984D01*
X124497642Y-67048802D01*
X125167037Y-66379408D01*
X125184075Y-66442993D01*
X125249901Y-66557007D01*
X125342993Y-66650099D01*
X125457007Y-66715925D01*
X125520590Y-66732962D01*
X124888282Y-67365269D01*
X124888282Y-67365270D01*
X124942449Y-67404624D01*
X125131782Y-67501095D01*
X125333870Y-67566757D01*
X125543754Y-67600000D01*
X125756246Y-67600000D01*
X125966127Y-67566757D01*
X125966130Y-67566757D01*
X126168217Y-67501095D01*
X126357554Y-67404622D01*
X126411716Y-67365270D01*
X126411717Y-67365270D01*
X125779408Y-66732962D01*
X125842993Y-66715925D01*
X125957007Y-66650099D01*
X126050099Y-66557007D01*
X126115925Y-66442993D01*
X126132962Y-66379408D01*
X126765270Y-67011717D01*
X126765270Y-67011716D01*
X126804622Y-66957554D01*
X126901095Y-66768217D01*
X126966757Y-66566130D01*
X126966757Y-66566127D01*
X127000000Y-66356246D01*
X127000000Y-66143753D01*
X126966757Y-65933872D01*
X126966757Y-65933869D01*
X126901095Y-65731782D01*
X126849286Y-65630101D01*
X126849285Y-65630097D01*
X126822299Y-65577135D01*
X134459500Y-65577135D01*
X134459500Y-67372870D01*
X134459501Y-67372876D01*
X134465908Y-67432483D01*
X134516202Y-67567328D01*
X134516206Y-67567335D01*
X134602452Y-67682544D01*
X134602455Y-67682547D01*
X134717664Y-67768793D01*
X134717671Y-67768797D01*
X134852517Y-67819091D01*
X134852516Y-67819091D01*
X134859444Y-67819835D01*
X134912127Y-67825500D01*
X136707872Y-67825499D01*
X136767483Y-67819091D01*
X136902331Y-67768796D01*
X137017546Y-67682546D01*
X137103796Y-67567331D01*
X137152810Y-67435916D01*
X137194681Y-67379984D01*
X137260145Y-67355566D01*
X137328418Y-67370417D01*
X137356673Y-67391569D01*
X137470213Y-67505109D01*
X137642179Y-67630048D01*
X137642181Y-67630049D01*
X137642184Y-67630051D01*
X137831588Y-67726557D01*
X138033757Y-67792246D01*
X138243713Y-67825500D01*
X138243714Y-67825500D01*
X138456286Y-67825500D01*
X138456287Y-67825500D01*
X138666243Y-67792246D01*
X138868412Y-67726557D01*
X139057816Y-67630051D01*
X139107990Y-67593598D01*
X139229786Y-67505109D01*
X139229788Y-67505106D01*
X139229792Y-67505104D01*
X139380104Y-67354792D01*
X139380106Y-67354788D01*
X139380109Y-67354786D01*
X139505048Y-67182820D01*
X139505047Y-67182820D01*
X139505051Y-67182816D01*
X139601557Y-66993412D01*
X139667246Y-66791243D01*
X139700500Y-66581287D01*
X139700500Y-66368713D01*
X139667246Y-66158757D01*
X139601557Y-65956588D01*
X139505051Y-65767184D01*
X139505049Y-65767181D01*
X139505048Y-65767179D01*
X139380109Y-65595213D01*
X139229786Y-65444890D01*
X139057820Y-65319951D01*
X138868414Y-65223444D01*
X138868413Y-65223443D01*
X138868412Y-65223443D01*
X138666243Y-65157754D01*
X138666241Y-65157753D01*
X138666240Y-65157753D01*
X138504957Y-65132208D01*
X138456287Y-65124500D01*
X138243713Y-65124500D01*
X138195042Y-65132208D01*
X138033760Y-65157753D01*
X137831585Y-65223444D01*
X137642179Y-65319951D01*
X137470215Y-65444889D01*
X137356673Y-65558431D01*
X137295350Y-65591915D01*
X137225658Y-65586931D01*
X137169725Y-65545059D01*
X137152810Y-65514082D01*
X137103797Y-65382671D01*
X137103793Y-65382664D01*
X137017547Y-65267455D01*
X137017544Y-65267452D01*
X136902335Y-65181206D01*
X136902328Y-65181202D01*
X136767482Y-65130908D01*
X136767483Y-65130908D01*
X136707883Y-65124501D01*
X136707881Y-65124500D01*
X136707873Y-65124500D01*
X136707864Y-65124500D01*
X134912129Y-65124500D01*
X134912123Y-65124501D01*
X134852516Y-65130908D01*
X134717671Y-65181202D01*
X134717664Y-65181206D01*
X134602455Y-65267452D01*
X134602452Y-65267455D01*
X134516206Y-65382664D01*
X134516202Y-65382671D01*
X134465908Y-65517517D01*
X134459501Y-65577116D01*
X134459500Y-65577135D01*
X126822299Y-65577135D01*
X126804629Y-65542457D01*
X126804626Y-65542452D01*
X126765270Y-65488282D01*
X126765269Y-65488282D01*
X126132962Y-66120590D01*
X126115925Y-66057007D01*
X126050099Y-65942993D01*
X125957007Y-65849901D01*
X125842993Y-65784075D01*
X125779409Y-65767037D01*
X126411716Y-65134728D01*
X126357550Y-65095375D01*
X126168217Y-64998904D01*
X125966129Y-64933242D01*
X125756246Y-64900000D01*
X125543754Y-64900000D01*
X125333872Y-64933242D01*
X125333869Y-64933242D01*
X125131782Y-64998904D01*
X124942439Y-65095380D01*
X124888282Y-65134727D01*
X124888282Y-65134728D01*
X125520591Y-65767037D01*
X125457007Y-65784075D01*
X125342993Y-65849901D01*
X125249901Y-65942993D01*
X125184075Y-66057007D01*
X125167037Y-66120591D01*
X124497642Y-65451196D01*
X124464319Y-65390609D01*
X124425527Y-65217364D01*
X124403354Y-65157913D01*
X124403350Y-65157906D01*
X124317190Y-65042812D01*
X124317187Y-65042809D01*
X124202093Y-64956649D01*
X124202086Y-64956645D01*
X124067379Y-64906403D01*
X124067372Y-64906401D01*
X124007844Y-64900000D01*
X123360000Y-64900000D01*
X123360000Y-65816988D01*
X123302993Y-65784075D01*
X123175826Y-65750000D01*
X123044174Y-65750000D01*
X122917007Y-65784075D01*
X122860000Y-65816988D01*
X122860000Y-64900000D01*
X122212155Y-64900000D01*
X122152627Y-64906401D01*
X122152620Y-64906403D01*
X122017913Y-64956645D01*
X122017906Y-64956649D01*
X121902812Y-65042809D01*
X121902809Y-65042812D01*
X121816649Y-65157906D01*
X121816645Y-65157913D01*
X121766403Y-65292620D01*
X121766401Y-65292627D01*
X121760000Y-65352155D01*
X119000500Y-65352155D01*
X119000500Y-43602155D01*
X121760000Y-43602155D01*
X121760000Y-44250000D01*
X122676988Y-44250000D01*
X122644075Y-44307007D01*
X122610000Y-44434174D01*
X122610000Y-44565826D01*
X122644075Y-44692993D01*
X122676988Y-44750000D01*
X121760000Y-44750000D01*
X121760000Y-45397844D01*
X121766401Y-45457372D01*
X121766403Y-45457379D01*
X121816645Y-45592086D01*
X121816649Y-45592093D01*
X121902809Y-45707187D01*
X121902812Y-45707190D01*
X122017906Y-45793350D01*
X122017913Y-45793354D01*
X122152620Y-45843596D01*
X122152627Y-45843598D01*
X122212155Y-45849999D01*
X122212172Y-45850000D01*
X122860000Y-45850000D01*
X122860000Y-44933012D01*
X122917007Y-44965925D01*
X123044174Y-45000000D01*
X123175826Y-45000000D01*
X123302993Y-44965925D01*
X123360000Y-44933012D01*
X123360000Y-45850000D01*
X124007828Y-45850000D01*
X124007844Y-45849999D01*
X124067372Y-45843598D01*
X124067379Y-45843596D01*
X124202086Y-45793354D01*
X124202093Y-45793350D01*
X124317187Y-45707190D01*
X124317190Y-45707187D01*
X124403350Y-45592093D01*
X124403354Y-45592086D01*
X124425529Y-45532632D01*
X124464319Y-45359390D01*
X124464682Y-45358734D01*
X124464642Y-45357984D01*
X124497642Y-45298802D01*
X125167037Y-44629408D01*
X125184075Y-44692993D01*
X125249901Y-44807007D01*
X125342993Y-44900099D01*
X125457007Y-44965925D01*
X125520590Y-44982962D01*
X124888282Y-45615269D01*
X124888282Y-45615270D01*
X124942449Y-45654624D01*
X125131782Y-45751095D01*
X125333870Y-45816757D01*
X125543754Y-45850000D01*
X125756246Y-45850000D01*
X125966127Y-45816757D01*
X125966130Y-45816757D01*
X126168217Y-45751095D01*
X126357554Y-45654622D01*
X126411716Y-45615270D01*
X126411717Y-45615270D01*
X125779408Y-44982962D01*
X125842993Y-44965925D01*
X125957007Y-44900099D01*
X126050099Y-44807007D01*
X126115925Y-44692993D01*
X126132962Y-44629408D01*
X126765270Y-45261717D01*
X126765270Y-45261716D01*
X126804622Y-45207554D01*
X126901095Y-45018217D01*
X126966757Y-44816130D01*
X126966757Y-44816127D01*
X127000000Y-44606246D01*
X127000000Y-44393753D01*
X126966757Y-44183872D01*
X126966757Y-44183869D01*
X126901095Y-43981782D01*
X126804624Y-43792449D01*
X126765270Y-43738282D01*
X126765269Y-43738282D01*
X126132962Y-44370590D01*
X126115925Y-44307007D01*
X126050099Y-44192993D01*
X125957007Y-44099901D01*
X125842993Y-44034075D01*
X125779409Y-44017037D01*
X126194310Y-43602135D01*
X134459500Y-43602135D01*
X134459500Y-45397870D01*
X134459501Y-45397876D01*
X134465908Y-45457483D01*
X134516202Y-45592328D01*
X134516206Y-45592335D01*
X134602452Y-45707544D01*
X134602455Y-45707547D01*
X134717664Y-45793793D01*
X134717671Y-45793797D01*
X134852517Y-45844091D01*
X134852516Y-45844091D01*
X134859444Y-45844835D01*
X134912127Y-45850500D01*
X136707872Y-45850499D01*
X136712233Y-45850030D01*
X136780994Y-45862429D01*
X136832136Y-45910034D01*
X136849500Y-45973318D01*
X136849500Y-49191397D01*
X136886446Y-49424668D01*
X136959433Y-49649296D01*
X137066657Y-49859734D01*
X137205484Y-50050811D01*
X147638181Y-60483508D01*
X147671666Y-60544831D01*
X147674500Y-60571189D01*
X147674500Y-62118097D01*
X147711447Y-62351369D01*
X147711447Y-62351372D01*
X147784430Y-62575988D01*
X147784430Y-62575989D01*
X147810985Y-62628106D01*
X147824500Y-62684399D01*
X147824500Y-62897869D01*
X147824501Y-62897876D01*
X147830908Y-62957483D01*
X147881202Y-63092328D01*
X147881206Y-63092335D01*
X147967452Y-63207544D01*
X147967455Y-63207547D01*
X148082664Y-63293793D01*
X148082671Y-63293797D01*
X148117253Y-63306695D01*
X148217517Y-63344091D01*
X148277127Y-63350500D01*
X148490598Y-63350499D01*
X148546893Y-63364014D01*
X148599008Y-63390568D01*
X148780059Y-63449395D01*
X148823631Y-63463553D01*
X149056903Y-63500500D01*
X149056908Y-63500500D01*
X149293097Y-63500500D01*
X149526368Y-63463553D01*
X149750992Y-63390568D01*
X149803107Y-63364014D01*
X149859401Y-63350499D01*
X150072871Y-63350499D01*
X150072872Y-63350499D01*
X150132483Y-63344091D01*
X150267331Y-63293796D01*
X150382546Y-63207546D01*
X150468796Y-63092331D01*
X150519091Y-62957483D01*
X150525500Y-62897873D01*
X150525499Y-62873979D01*
X150528330Y-62860963D01*
X150538940Y-62841525D01*
X150545179Y-62820275D01*
X150561803Y-62799643D01*
X150561808Y-62799636D01*
X150561811Y-62799634D01*
X150561818Y-62799626D01*
X151232037Y-62129408D01*
X151249075Y-62192993D01*
X151314901Y-62307007D01*
X151407993Y-62400099D01*
X151522007Y-62465925D01*
X151585590Y-62482962D01*
X150953282Y-63115269D01*
X150953282Y-63115270D01*
X151007449Y-63154624D01*
X151196782Y-63251095D01*
X151398870Y-63316757D01*
X151608754Y-63350000D01*
X151821246Y-63350000D01*
X152031127Y-63316757D01*
X152031130Y-63316757D01*
X152233217Y-63251095D01*
X152422554Y-63154622D01*
X152476716Y-63115270D01*
X152476717Y-63115270D01*
X151844408Y-62482962D01*
X151907993Y-62465925D01*
X152022007Y-62400099D01*
X152115099Y-62307007D01*
X152180925Y-62192993D01*
X152197962Y-62129408D01*
X152830270Y-62761717D01*
X152830270Y-62761716D01*
X152869622Y-62707555D01*
X152874232Y-62698507D01*
X152922205Y-62647709D01*
X152990025Y-62630912D01*
X153056161Y-62653447D01*
X153095204Y-62698504D01*
X153099949Y-62707817D01*
X153224890Y-62879786D01*
X153375213Y-63030109D01*
X153547179Y-63155048D01*
X153547181Y-63155049D01*
X153547184Y-63155051D01*
X153736588Y-63251557D01*
X153938757Y-63317246D01*
X154148713Y-63350500D01*
X154148714Y-63350500D01*
X154361286Y-63350500D01*
X154361287Y-63350500D01*
X154571243Y-63317246D01*
X154773412Y-63251557D01*
X154962816Y-63155051D01*
X155049138Y-63092335D01*
X155134786Y-63030109D01*
X155134788Y-63030106D01*
X155134792Y-63030104D01*
X155285104Y-62879792D01*
X155285106Y-62879788D01*
X155285109Y-62879786D01*
X155410048Y-62707820D01*
X155410050Y-62707817D01*
X155410051Y-62707816D01*
X155414514Y-62699054D01*
X155462488Y-62648259D01*
X155530308Y-62631463D01*
X155596444Y-62653999D01*
X155635486Y-62699056D01*
X155639951Y-62707820D01*
X155764890Y-62879786D01*
X155915213Y-63030109D01*
X156087179Y-63155048D01*
X156087181Y-63155049D01*
X156087184Y-63155051D01*
X156276588Y-63251557D01*
X156478757Y-63317246D01*
X156688713Y-63350500D01*
X156688714Y-63350500D01*
X156800546Y-63350500D01*
X156867585Y-63370185D01*
X156913340Y-63422989D01*
X156923284Y-63492147D01*
X156894259Y-63555703D01*
X156888227Y-63562181D01*
X143500467Y-76949939D01*
X143500445Y-76949963D01*
X143414842Y-77035567D01*
X143386427Y-77078093D01*
X143381880Y-77084896D01*
X143381877Y-77084901D01*
X143346390Y-77138010D01*
X143346385Y-77138019D01*
X143330010Y-77177554D01*
X143299238Y-77251844D01*
X143299235Y-77251856D01*
X143275200Y-77372689D01*
X143275200Y-90570211D01*
X143299235Y-90691044D01*
X143299240Y-90691061D01*
X143346385Y-90804880D01*
X143346387Y-90804883D01*
X143346388Y-90804886D01*
X143379735Y-90854792D01*
X143414842Y-90907333D01*
X143501967Y-90994458D01*
X143501970Y-90994460D01*
X143509296Y-91001786D01*
X144111816Y-91604306D01*
X144111845Y-91604337D01*
X144202064Y-91694556D01*
X144202067Y-91694558D01*
X144278990Y-91745956D01*
X144304515Y-91763012D01*
X144371197Y-91790632D01*
X144374985Y-91792201D01*
X144374993Y-91792205D01*
X144418343Y-91810161D01*
X144418348Y-91810163D01*
X144444661Y-91815396D01*
X144468400Y-91820119D01*
X144468420Y-91820122D01*
X144468442Y-91820127D01*
X144539191Y-91834199D01*
X144539192Y-91834200D01*
X144539193Y-91834200D01*
X146487908Y-91834200D01*
X146487908Y-91834199D01*
X146558658Y-91820127D01*
X146608752Y-91810163D01*
X146642092Y-91796352D01*
X146722586Y-91763012D01*
X146773809Y-91728784D01*
X146825033Y-91694558D01*
X146912158Y-91607433D01*
X146912159Y-91607431D01*
X146919225Y-91600365D01*
X146919228Y-91600361D01*
X147202162Y-91317426D01*
X147263483Y-91283943D01*
X147328162Y-91287179D01*
X147343757Y-91292246D01*
X147553713Y-91325500D01*
X147553714Y-91325500D01*
X147766286Y-91325500D01*
X147766287Y-91325500D01*
X147976243Y-91292246D01*
X148178412Y-91226557D01*
X148367816Y-91130051D01*
X148389789Y-91114086D01*
X148539786Y-91005109D01*
X148539788Y-91005106D01*
X148539792Y-91005104D01*
X148690104Y-90854792D01*
X148690106Y-90854788D01*
X148690109Y-90854786D01*
X148815048Y-90682820D01*
X148815047Y-90682820D01*
X148815051Y-90682816D01*
X148819514Y-90674054D01*
X148867488Y-90623259D01*
X148935308Y-90606463D01*
X149001444Y-90628999D01*
X149040486Y-90674056D01*
X149044951Y-90682820D01*
X149169890Y-90854786D01*
X149320213Y-91005109D01*
X149492179Y-91130048D01*
X149492181Y-91130049D01*
X149492184Y-91130051D01*
X149681588Y-91226557D01*
X149883757Y-91292246D01*
X150093713Y-91325500D01*
X150093714Y-91325500D01*
X150306286Y-91325500D01*
X150306287Y-91325500D01*
X150516243Y-91292246D01*
X150718412Y-91226557D01*
X150907816Y-91130051D01*
X151079792Y-91005104D01*
X151193329Y-90891566D01*
X151254648Y-90858084D01*
X151324340Y-90863068D01*
X151380274Y-90904939D01*
X151397189Y-90935917D01*
X151446202Y-91067328D01*
X151446206Y-91067335D01*
X151532452Y-91182544D01*
X151532455Y-91182547D01*
X151647664Y-91268793D01*
X151647671Y-91268797D01*
X151782517Y-91319091D01*
X151782516Y-91319091D01*
X151789444Y-91319835D01*
X151842127Y-91325500D01*
X153637872Y-91325499D01*
X153697483Y-91319091D01*
X153832331Y-91268796D01*
X153947546Y-91182546D01*
X154033796Y-91067331D01*
X154084091Y-90932483D01*
X154090500Y-90872873D01*
X154090499Y-89077128D01*
X154084091Y-89017517D01*
X154079562Y-89005375D01*
X154033797Y-88882671D01*
X154033793Y-88882664D01*
X153947547Y-88767456D01*
X153947548Y-88767456D01*
X153947546Y-88767454D01*
X153895049Y-88728154D01*
X153853179Y-88672222D01*
X153848195Y-88602530D01*
X153881678Y-88541210D01*
X172102029Y-70320860D01*
X172102033Y-70320858D01*
X172189158Y-70233733D01*
X172223504Y-70182331D01*
X172257612Y-70131286D01*
X172304763Y-70017451D01*
X172328800Y-69896607D01*
X172328800Y-69773393D01*
X172328800Y-64107151D01*
X172348485Y-64040112D01*
X172365114Y-64019475D01*
X192042162Y-44342426D01*
X192103483Y-44308943D01*
X192168162Y-44312179D01*
X192183757Y-44317246D01*
X192393713Y-44350500D01*
X192393714Y-44350500D01*
X192606286Y-44350500D01*
X192606287Y-44350500D01*
X192816243Y-44317246D01*
X192965612Y-44268713D01*
X223174500Y-44268713D01*
X223174500Y-44481287D01*
X223207754Y-44691243D01*
X223260492Y-44853554D01*
X223273444Y-44893414D01*
X223369951Y-45082820D01*
X223494890Y-45254786D01*
X223645213Y-45405109D01*
X223817182Y-45530050D01*
X223825946Y-45534516D01*
X223876742Y-45582491D01*
X223893536Y-45650312D01*
X223870998Y-45716447D01*
X223825946Y-45755484D01*
X223817182Y-45759949D01*
X223645213Y-45884890D01*
X223494890Y-46035213D01*
X223369951Y-46207179D01*
X223273444Y-46396585D01*
X223207753Y-46598760D01*
X223174500Y-46808713D01*
X223174500Y-47021286D01*
X223207753Y-47231239D01*
X223273444Y-47433414D01*
X223369951Y-47622820D01*
X223494890Y-47794786D01*
X223645213Y-47945109D01*
X223817182Y-48070050D01*
X223825946Y-48074516D01*
X223876742Y-48122491D01*
X223893536Y-48190312D01*
X223870998Y-48256447D01*
X223825946Y-48295484D01*
X223817182Y-48299949D01*
X223645213Y-48424890D01*
X223494890Y-48575213D01*
X223369951Y-48747179D01*
X223273444Y-48936585D01*
X223207753Y-49138760D01*
X223174500Y-49348713D01*
X223174500Y-49561286D01*
X223207753Y-49771239D01*
X223273444Y-49973414D01*
X223369951Y-50162820D01*
X223494890Y-50334786D01*
X223645213Y-50485109D01*
X223817182Y-50610050D01*
X223825946Y-50614516D01*
X223876742Y-50662491D01*
X223893536Y-50730312D01*
X223870998Y-50796447D01*
X223825946Y-50835484D01*
X223817182Y-50839949D01*
X223645213Y-50964890D01*
X223494890Y-51115213D01*
X223369951Y-51287179D01*
X223273444Y-51476585D01*
X223207753Y-51678760D01*
X223176946Y-51873269D01*
X223174500Y-51888713D01*
X223174500Y-52101287D01*
X223207754Y-52311243D01*
X223235515Y-52396683D01*
X223273444Y-52513414D01*
X223369951Y-52702820D01*
X223494890Y-52874786D01*
X223645213Y-53025109D01*
X223817182Y-53150050D01*
X223825946Y-53154516D01*
X223876742Y-53202491D01*
X223893536Y-53270312D01*
X223870998Y-53336447D01*
X223825946Y-53375484D01*
X223817182Y-53379949D01*
X223645213Y-53504890D01*
X223494890Y-53655213D01*
X223369951Y-53827179D01*
X223273444Y-54016585D01*
X223207753Y-54218760D01*
X223174500Y-54428713D01*
X223174500Y-54641286D01*
X223207753Y-54851239D01*
X223273444Y-55053414D01*
X223369951Y-55242820D01*
X223494890Y-55414786D01*
X223608430Y-55528326D01*
X223641915Y-55589649D01*
X223636931Y-55659341D01*
X223595059Y-55715274D01*
X223564083Y-55732189D01*
X223432669Y-55781203D01*
X223432664Y-55781206D01*
X223317455Y-55867452D01*
X223317452Y-55867455D01*
X223231206Y-55982664D01*
X223231202Y-55982671D01*
X223180908Y-56117517D01*
X223174501Y-56177116D01*
X223174501Y-56177123D01*
X223174500Y-56177135D01*
X223174500Y-57972870D01*
X223174501Y-57972876D01*
X223180908Y-58032483D01*
X223231202Y-58167328D01*
X223231206Y-58167335D01*
X223317452Y-58282544D01*
X223317455Y-58282547D01*
X223432664Y-58368793D01*
X223432671Y-58368797D01*
X223567517Y-58419091D01*
X223567516Y-58419091D01*
X223574444Y-58419835D01*
X223627127Y-58425500D01*
X225422872Y-58425499D01*
X225482483Y-58419091D01*
X225617331Y-58368796D01*
X225732546Y-58282546D01*
X225818796Y-58167331D01*
X225869091Y-58032483D01*
X225875500Y-57972873D01*
X225875499Y-56177128D01*
X225869091Y-56117517D01*
X225818796Y-55982669D01*
X225818795Y-55982668D01*
X225818793Y-55982664D01*
X225732547Y-55867455D01*
X225732544Y-55867452D01*
X225617335Y-55781206D01*
X225617328Y-55781202D01*
X225485917Y-55732189D01*
X225429983Y-55690318D01*
X225405566Y-55624853D01*
X225420418Y-55556580D01*
X225441563Y-55528332D01*
X225555104Y-55414792D01*
X225596826Y-55357367D01*
X225680048Y-55242820D01*
X225680047Y-55242820D01*
X225680051Y-55242816D01*
X225776557Y-55053412D01*
X225842246Y-54851243D01*
X225875500Y-54641287D01*
X225875500Y-54428713D01*
X225842246Y-54218757D01*
X225776557Y-54016588D01*
X225680051Y-53827184D01*
X225680049Y-53827181D01*
X225680048Y-53827179D01*
X225555109Y-53655213D01*
X225404786Y-53504890D01*
X225232820Y-53379951D01*
X225232115Y-53379591D01*
X225224054Y-53375485D01*
X225173259Y-53327512D01*
X225156463Y-53259692D01*
X225178999Y-53193556D01*
X225224054Y-53154515D01*
X225232816Y-53150051D01*
X225276201Y-53118530D01*
X225404786Y-53025109D01*
X225404788Y-53025106D01*
X225404792Y-53025104D01*
X225555104Y-52874792D01*
X225555106Y-52874788D01*
X225555109Y-52874786D01*
X225680048Y-52702820D01*
X225680047Y-52702820D01*
X225680051Y-52702816D01*
X225776557Y-52513412D01*
X225842246Y-52311243D01*
X225875500Y-52101287D01*
X225875500Y-51888713D01*
X225842246Y-51678757D01*
X225776557Y-51476588D01*
X225680051Y-51287184D01*
X225680049Y-51287181D01*
X225680048Y-51287179D01*
X225555109Y-51115213D01*
X225404786Y-50964890D01*
X225232820Y-50839951D01*
X225232115Y-50839591D01*
X225224054Y-50835485D01*
X225173259Y-50787512D01*
X225156463Y-50719692D01*
X225178999Y-50653556D01*
X225224054Y-50614515D01*
X225232816Y-50610051D01*
X225276201Y-50578530D01*
X225404786Y-50485109D01*
X225404788Y-50485106D01*
X225404792Y-50485104D01*
X225555104Y-50334792D01*
X225555106Y-50334788D01*
X225555109Y-50334786D01*
X225680048Y-50162820D01*
X225680047Y-50162820D01*
X225680051Y-50162816D01*
X225776557Y-49973412D01*
X225842246Y-49771243D01*
X225875500Y-49561287D01*
X225875500Y-49348713D01*
X225842246Y-49138757D01*
X225776557Y-48936588D01*
X225680051Y-48747184D01*
X225680049Y-48747181D01*
X225680048Y-48747179D01*
X225555109Y-48575213D01*
X225404786Y-48424890D01*
X225232820Y-48299951D01*
X225232115Y-48299591D01*
X225224054Y-48295485D01*
X225173259Y-48247512D01*
X225156463Y-48179692D01*
X225178999Y-48113556D01*
X225224054Y-48074515D01*
X225232816Y-48070051D01*
X225254789Y-48054086D01*
X225404786Y-47945109D01*
X225404788Y-47945106D01*
X225404792Y-47945104D01*
X225555104Y-47794792D01*
X225555106Y-47794788D01*
X225555109Y-47794786D01*
X225680048Y-47622820D01*
X225680047Y-47622820D01*
X225680051Y-47622816D01*
X225776557Y-47433412D01*
X225842246Y-47231243D01*
X225875500Y-47021287D01*
X225875500Y-46808713D01*
X225842246Y-46598757D01*
X225776557Y-46396588D01*
X225680051Y-46207184D01*
X225680049Y-46207181D01*
X225680048Y-46207179D01*
X225555109Y-46035213D01*
X225404786Y-45884890D01*
X225232820Y-45759951D01*
X225232115Y-45759591D01*
X225224054Y-45755485D01*
X225173259Y-45707512D01*
X225156463Y-45639692D01*
X225178999Y-45573556D01*
X225224054Y-45534515D01*
X225232816Y-45530051D01*
X225332698Y-45457483D01*
X225404786Y-45405109D01*
X225404788Y-45405106D01*
X225404792Y-45405104D01*
X225555104Y-45254792D01*
X225555106Y-45254788D01*
X225555109Y-45254786D01*
X225680048Y-45082820D01*
X225680047Y-45082820D01*
X225680051Y-45082816D01*
X225776557Y-44893412D01*
X225842246Y-44691243D01*
X225875500Y-44481287D01*
X225875500Y-44268713D01*
X225842246Y-44058757D01*
X225776557Y-43856588D01*
X225680051Y-43667184D01*
X225680049Y-43667181D01*
X225680048Y-43667179D01*
X225555109Y-43495213D01*
X225404786Y-43344890D01*
X225232820Y-43219951D01*
X225043414Y-43123444D01*
X225043413Y-43123443D01*
X225043412Y-43123443D01*
X224841243Y-43057754D01*
X224841241Y-43057753D01*
X224841240Y-43057753D01*
X224679957Y-43032208D01*
X224631287Y-43024500D01*
X224418713Y-43024500D01*
X224370042Y-43032208D01*
X224208760Y-43057753D01*
X224208757Y-43057754D01*
X224059389Y-43106287D01*
X224006585Y-43123444D01*
X223817179Y-43219951D01*
X223645213Y-43344890D01*
X223494890Y-43495213D01*
X223369951Y-43667179D01*
X223273444Y-43856585D01*
X223207753Y-44058760D01*
X223186493Y-44192993D01*
X223174500Y-44268713D01*
X192965612Y-44268713D01*
X193018412Y-44251557D01*
X193207816Y-44155051D01*
X193229789Y-44139086D01*
X193379786Y-44030109D01*
X193379788Y-44030106D01*
X193379792Y-44030104D01*
X193530104Y-43879792D01*
X193530106Y-43879788D01*
X193530109Y-43879786D01*
X193655048Y-43707820D01*
X193655047Y-43707820D01*
X193655051Y-43707816D01*
X193751557Y-43518412D01*
X193817246Y-43316243D01*
X193850500Y-43106287D01*
X193850500Y-42893713D01*
X193817246Y-42683757D01*
X193790650Y-42601902D01*
X233999500Y-42601902D01*
X233999500Y-42838097D01*
X234036446Y-43071368D01*
X234109433Y-43295996D01*
X234171195Y-43417209D01*
X234216657Y-43506433D01*
X234355483Y-43697510D01*
X234522490Y-43864517D01*
X234557127Y-43889683D01*
X234599792Y-43945013D01*
X234605771Y-44014626D01*
X234573165Y-44076421D01*
X234557130Y-44090315D01*
X234543937Y-44099901D01*
X234522488Y-44115484D01*
X234355485Y-44282487D01*
X234355485Y-44282488D01*
X234355483Y-44282490D01*
X234306071Y-44350500D01*
X234216657Y-44473566D01*
X234109433Y-44684003D01*
X234036446Y-44908631D01*
X233999500Y-45141902D01*
X233999500Y-45378097D01*
X234036446Y-45611368D01*
X234109433Y-45835996D01*
X234179403Y-45973318D01*
X234216657Y-46046433D01*
X234355483Y-46237510D01*
X234522490Y-46404517D01*
X234557127Y-46429683D01*
X234599792Y-46485013D01*
X234605771Y-46554626D01*
X234573165Y-46616421D01*
X234557130Y-46630315D01*
X234539365Y-46643222D01*
X234522488Y-46655484D01*
X234355485Y-46822487D01*
X234355485Y-46822488D01*
X234355483Y-46822490D01*
X234295862Y-46904550D01*
X234216657Y-47013566D01*
X234109433Y-47224003D01*
X234036446Y-47448631D01*
X233999500Y-47681902D01*
X233999500Y-47918097D01*
X234036446Y-48151368D01*
X234109433Y-48375996D01*
X234166497Y-48487989D01*
X234216657Y-48586433D01*
X234355483Y-48777510D01*
X234522490Y-48944517D01*
X234557127Y-48969683D01*
X234599792Y-49025013D01*
X234605771Y-49094626D01*
X234573165Y-49156421D01*
X234557130Y-49170315D01*
X234539365Y-49183222D01*
X234522488Y-49195484D01*
X234355485Y-49362487D01*
X234355485Y-49362488D01*
X234355483Y-49362490D01*
X234310308Y-49424668D01*
X234216657Y-49553566D01*
X234109433Y-49764003D01*
X234036446Y-49988631D01*
X233999500Y-50221902D01*
X233999500Y-50458097D01*
X234036446Y-50691368D01*
X234109433Y-50915996D01*
X234210938Y-51115208D01*
X234216657Y-51126433D01*
X234355483Y-51317510D01*
X234522490Y-51484517D01*
X234557127Y-51509683D01*
X234599792Y-51565013D01*
X234605771Y-51634626D01*
X234573165Y-51696421D01*
X234557130Y-51710315D01*
X234539365Y-51723222D01*
X234522488Y-51735484D01*
X234355485Y-51902487D01*
X234355485Y-51902488D01*
X234355483Y-51902490D01*
X234298729Y-51980605D01*
X234216657Y-52093566D01*
X234109433Y-52304003D01*
X234036446Y-52528631D01*
X233999500Y-52761902D01*
X233999500Y-52998097D01*
X234036446Y-53231368D01*
X234109433Y-53455996D01*
X234210938Y-53655208D01*
X234216657Y-53666433D01*
X234355483Y-53857510D01*
X234522490Y-54024517D01*
X234557127Y-54049683D01*
X234599792Y-54105013D01*
X234605771Y-54174626D01*
X234573165Y-54236421D01*
X234557130Y-54250315D01*
X234539365Y-54263222D01*
X234522488Y-54275484D01*
X234355485Y-54442487D01*
X234355485Y-54442488D01*
X234355483Y-54442490D01*
X234346655Y-54454641D01*
X234216657Y-54633566D01*
X234109433Y-54844003D01*
X234036446Y-55068631D01*
X233999500Y-55301902D01*
X233999500Y-55538097D01*
X234036446Y-55771368D01*
X234109433Y-55995996D01*
X234171352Y-56117517D01*
X234216657Y-56206433D01*
X234355483Y-56397510D01*
X234522490Y-56564517D01*
X234557127Y-56589683D01*
X234599792Y-56645013D01*
X234605771Y-56714626D01*
X234573165Y-56776421D01*
X234557130Y-56790315D01*
X234539365Y-56803222D01*
X234522488Y-56815484D01*
X234355485Y-56982487D01*
X234355485Y-56982488D01*
X234355483Y-56982490D01*
X234295862Y-57064550D01*
X234216657Y-57173566D01*
X234109433Y-57384003D01*
X234036446Y-57608631D01*
X233999500Y-57841902D01*
X233999500Y-58078097D01*
X234036446Y-58311368D01*
X234109433Y-58535996D01*
X234216657Y-58746433D01*
X234355483Y-58937510D01*
X234522490Y-59104517D01*
X234557127Y-59129683D01*
X234599792Y-59185013D01*
X234605771Y-59254626D01*
X234573165Y-59316421D01*
X234557130Y-59330315D01*
X234539365Y-59343222D01*
X234522488Y-59355484D01*
X234355485Y-59522487D01*
X234355485Y-59522488D01*
X234355483Y-59522490D01*
X234337726Y-59546931D01*
X234216657Y-59713566D01*
X234109433Y-59924003D01*
X234036446Y-60148631D01*
X233999500Y-60381902D01*
X233999500Y-60618097D01*
X234036446Y-60851368D01*
X234109433Y-61075996D01*
X234192123Y-61238282D01*
X234216657Y-61286433D01*
X234355483Y-61477510D01*
X234522490Y-61644517D01*
X234557127Y-61669683D01*
X234599792Y-61725013D01*
X234605771Y-61794626D01*
X234573165Y-61856421D01*
X234557130Y-61870315D01*
X234539365Y-61883222D01*
X234522488Y-61895484D01*
X234355485Y-62062487D01*
X234355485Y-62062488D01*
X234355483Y-62062490D01*
X234323663Y-62106286D01*
X234216657Y-62253566D01*
X234109433Y-62464003D01*
X234036446Y-62688631D01*
X233999500Y-62921902D01*
X233999500Y-63158097D01*
X234036446Y-63391368D01*
X234109433Y-63615996D01*
X234216657Y-63826433D01*
X234355483Y-64017510D01*
X234522490Y-64184517D01*
X234557127Y-64209683D01*
X234599792Y-64265013D01*
X234605771Y-64334626D01*
X234573165Y-64396421D01*
X234557130Y-64410315D01*
X234545861Y-64418503D01*
X234522488Y-64435484D01*
X234355485Y-64602487D01*
X234355485Y-64602488D01*
X234355483Y-64602490D01*
X234295862Y-64684550D01*
X234216657Y-64793566D01*
X234109433Y-65004003D01*
X234036446Y-65228631D01*
X233999500Y-65461902D01*
X233999500Y-65698097D01*
X234036446Y-65931368D01*
X234109433Y-66155996D01*
X234157331Y-66250000D01*
X234216657Y-66366433D01*
X234355483Y-66557510D01*
X234522490Y-66724517D01*
X234557127Y-66749683D01*
X234599792Y-66805013D01*
X234605771Y-66874626D01*
X234573165Y-66936421D01*
X234557130Y-66950315D01*
X234547167Y-66957554D01*
X234522488Y-66975484D01*
X234355485Y-67142487D01*
X234355485Y-67142488D01*
X234355483Y-67142490D01*
X234308343Y-67207372D01*
X234216657Y-67333566D01*
X234109433Y-67544003D01*
X234036446Y-67768631D01*
X233999500Y-68001902D01*
X233999500Y-68238097D01*
X234036446Y-68471368D01*
X234109433Y-68695996D01*
X234216657Y-68906433D01*
X234355483Y-69097510D01*
X234355489Y-69097516D01*
X234358647Y-69101214D01*
X234356864Y-69102736D01*
X234385726Y-69155591D01*
X234380742Y-69225283D01*
X234338870Y-69281216D01*
X234329658Y-69287487D01*
X234281344Y-69317287D01*
X234157289Y-69441342D01*
X234065187Y-69590663D01*
X234065185Y-69590668D01*
X234040227Y-69665988D01*
X234010001Y-69757203D01*
X234010001Y-69757204D01*
X234010000Y-69757204D01*
X233999500Y-69859983D01*
X233999500Y-71460001D01*
X233999501Y-71460018D01*
X234010000Y-71562796D01*
X234010001Y-71562799D01*
X234065185Y-71729331D01*
X234065187Y-71729336D01*
X234100069Y-71785888D01*
X234157288Y-71878656D01*
X234281344Y-72002712D01*
X234430666Y-72094814D01*
X234597203Y-72149999D01*
X234699991Y-72160500D01*
X236300008Y-72160499D01*
X236402797Y-72149999D01*
X236569334Y-72094814D01*
X236718656Y-72002712D01*
X236842712Y-71878656D01*
X236934814Y-71729334D01*
X236989999Y-71562797D01*
X237000500Y-71460009D01*
X237000499Y-69859992D01*
X236989999Y-69757203D01*
X236934814Y-69590666D01*
X236842712Y-69441344D01*
X236718656Y-69317288D01*
X236718655Y-69317287D01*
X236670342Y-69287487D01*
X236623618Y-69235539D01*
X236612397Y-69166576D01*
X236640241Y-69102494D01*
X236641381Y-69101249D01*
X236641348Y-69101221D01*
X236644511Y-69097516D01*
X236644511Y-69097515D01*
X236644517Y-69097510D01*
X236783343Y-68906433D01*
X236890568Y-68695992D01*
X236963553Y-68471368D01*
X237000500Y-68238097D01*
X237000500Y-68001902D01*
X236963553Y-67768631D01*
X236908761Y-67600000D01*
X236890568Y-67544008D01*
X236890566Y-67544005D01*
X236890566Y-67544003D01*
X236812896Y-67391569D01*
X236783343Y-67333567D01*
X236644517Y-67142490D01*
X236477510Y-66975483D01*
X236442872Y-66950317D01*
X236400207Y-66894989D01*
X236394228Y-66825375D01*
X236426833Y-66763580D01*
X236442873Y-66749682D01*
X236448614Y-66745511D01*
X236477510Y-66724517D01*
X236644517Y-66557510D01*
X236783343Y-66366433D01*
X236890568Y-66155992D01*
X236963553Y-65931368D01*
X236977425Y-65843783D01*
X237000500Y-65698097D01*
X237000500Y-65461902D01*
X236963553Y-65228631D01*
X236919414Y-65092786D01*
X236890568Y-65004008D01*
X236890566Y-65004005D01*
X236890566Y-65004003D01*
X236797600Y-64821548D01*
X236783343Y-64793567D01*
X236644517Y-64602490D01*
X236477510Y-64435483D01*
X236442872Y-64410317D01*
X236400207Y-64354989D01*
X236394228Y-64285375D01*
X236426833Y-64223580D01*
X236442873Y-64209682D01*
X236477510Y-64184517D01*
X236644517Y-64017510D01*
X236783343Y-63826433D01*
X236890568Y-63615992D01*
X236963553Y-63391368D01*
X236966908Y-63370185D01*
X237000500Y-63158097D01*
X237000500Y-62921902D01*
X236963553Y-62688631D01*
X236926953Y-62575988D01*
X236890568Y-62464008D01*
X236890566Y-62464005D01*
X236890566Y-62464003D01*
X236783342Y-62253566D01*
X236739333Y-62192993D01*
X236644517Y-62062490D01*
X236477510Y-61895483D01*
X236442872Y-61870317D01*
X236400207Y-61814989D01*
X236394228Y-61745375D01*
X236426833Y-61683580D01*
X236442873Y-61669682D01*
X236477510Y-61644517D01*
X236644517Y-61477510D01*
X236783343Y-61286433D01*
X236890568Y-61075992D01*
X236963553Y-60851368D01*
X236979782Y-60748904D01*
X237000500Y-60618097D01*
X237000500Y-60381902D01*
X236963553Y-60148631D01*
X236890566Y-59924003D01*
X236783342Y-59713566D01*
X236644517Y-59522490D01*
X236477510Y-59355483D01*
X236442872Y-59330317D01*
X236400207Y-59274989D01*
X236394228Y-59205375D01*
X236426833Y-59143580D01*
X236442873Y-59129682D01*
X236477510Y-59104517D01*
X236644517Y-58937510D01*
X236783343Y-58746433D01*
X236890568Y-58535992D01*
X236963553Y-58311368D01*
X236968118Y-58282544D01*
X237000500Y-58078097D01*
X237000500Y-57841902D01*
X236963553Y-57608631D01*
X236890566Y-57384003D01*
X236783342Y-57173566D01*
X236644517Y-56982490D01*
X236477510Y-56815483D01*
X236442872Y-56790317D01*
X236400207Y-56734989D01*
X236394228Y-56665375D01*
X236426833Y-56603580D01*
X236442873Y-56589682D01*
X236477510Y-56564517D01*
X236644517Y-56397510D01*
X236783343Y-56206433D01*
X236890568Y-55995992D01*
X236963553Y-55771368D01*
X236970976Y-55724500D01*
X237000500Y-55538097D01*
X237000500Y-55301902D01*
X236963553Y-55068631D01*
X236920165Y-54935099D01*
X236890568Y-54844008D01*
X236890566Y-54844005D01*
X236890566Y-54844003D01*
X236809762Y-54685418D01*
X236783343Y-54633567D01*
X236644517Y-54442490D01*
X236477510Y-54275483D01*
X236442872Y-54250317D01*
X236400207Y-54194989D01*
X236394228Y-54125375D01*
X236426833Y-54063580D01*
X236442873Y-54049682D01*
X236463081Y-54035000D01*
X236477510Y-54024517D01*
X236644517Y-53857510D01*
X236783343Y-53666433D01*
X236890568Y-53455992D01*
X236963553Y-53231368D01*
X236975725Y-53154516D01*
X237000500Y-52998097D01*
X237000500Y-52761902D01*
X236963553Y-52528631D01*
X236892920Y-52311247D01*
X236890568Y-52304008D01*
X236890566Y-52304005D01*
X236890566Y-52304003D01*
X236834002Y-52192991D01*
X236783343Y-52093567D01*
X236644517Y-51902490D01*
X236477510Y-51735483D01*
X236442872Y-51710317D01*
X236400207Y-51654989D01*
X236394228Y-51585375D01*
X236426833Y-51523580D01*
X236442873Y-51509682D01*
X236477510Y-51484517D01*
X236644517Y-51317510D01*
X236783343Y-51126433D01*
X236890568Y-50915992D01*
X236963553Y-50691368D01*
X236975725Y-50614516D01*
X237000500Y-50458097D01*
X237000500Y-50221902D01*
X236963553Y-49988631D01*
X236920678Y-49856678D01*
X236890568Y-49764008D01*
X236890566Y-49764005D01*
X236890566Y-49764003D01*
X236832117Y-49649292D01*
X236783343Y-49553567D01*
X236644517Y-49362490D01*
X236477510Y-49195483D01*
X236442872Y-49170317D01*
X236400207Y-49114989D01*
X236394228Y-49045375D01*
X236426833Y-48983580D01*
X236442873Y-48969682D01*
X236477510Y-48944517D01*
X236644517Y-48777510D01*
X236783343Y-48586433D01*
X236890568Y-48375992D01*
X236963553Y-48151368D01*
X236975725Y-48074516D01*
X237000500Y-47918097D01*
X237000500Y-47681902D01*
X236963553Y-47448631D01*
X236929689Y-47344412D01*
X236890568Y-47224008D01*
X236890566Y-47224005D01*
X236890566Y-47224003D01*
X236834002Y-47112991D01*
X236783343Y-47013567D01*
X236644517Y-46822490D01*
X236477510Y-46655483D01*
X236442872Y-46630317D01*
X236400207Y-46574989D01*
X236394228Y-46505375D01*
X236426833Y-46443580D01*
X236442873Y-46429682D01*
X236477510Y-46404517D01*
X236644517Y-46237510D01*
X236783343Y-46046433D01*
X236890568Y-45835992D01*
X236963553Y-45611368D01*
X236975725Y-45534516D01*
X237000500Y-45378097D01*
X237000500Y-45141902D01*
X236963553Y-44908631D01*
X236893487Y-44692993D01*
X236890568Y-44684008D01*
X236890566Y-44684005D01*
X236890566Y-44684003D01*
X236796811Y-44500000D01*
X236783343Y-44473567D01*
X236644517Y-44282490D01*
X236477510Y-44115483D01*
X236442872Y-44090317D01*
X236400207Y-44034989D01*
X236394228Y-43965375D01*
X236426833Y-43903580D01*
X236442873Y-43889682D01*
X236477510Y-43864517D01*
X236644517Y-43697510D01*
X236783343Y-43506433D01*
X236890568Y-43295992D01*
X236963553Y-43071368D01*
X236971995Y-43018067D01*
X237000500Y-42838097D01*
X237000500Y-42601902D01*
X236963553Y-42368631D01*
X236890566Y-42144003D01*
X236834002Y-42032991D01*
X236783343Y-41933567D01*
X236644517Y-41742490D01*
X236477510Y-41575483D01*
X236286433Y-41436657D01*
X236075996Y-41329433D01*
X235851368Y-41256446D01*
X235618097Y-41219500D01*
X235618092Y-41219500D01*
X235381908Y-41219500D01*
X235381903Y-41219500D01*
X235148631Y-41256446D01*
X234924003Y-41329433D01*
X234713566Y-41436657D01*
X234604550Y-41515862D01*
X234522490Y-41575483D01*
X234522488Y-41575485D01*
X234522487Y-41575485D01*
X234355485Y-41742487D01*
X234355485Y-41742488D01*
X234355483Y-41742490D01*
X234319182Y-41792454D01*
X234216657Y-41933566D01*
X234109433Y-42144003D01*
X234036446Y-42368631D01*
X233999500Y-42601902D01*
X193790650Y-42601902D01*
X193751557Y-42481588D01*
X193655051Y-42292184D01*
X193655049Y-42292181D01*
X193655048Y-42292179D01*
X193530109Y-42120213D01*
X193379786Y-41969890D01*
X193207820Y-41844951D01*
X193018414Y-41748444D01*
X193018413Y-41748443D01*
X193018412Y-41748443D01*
X192816243Y-41682754D01*
X192816241Y-41682753D01*
X192816240Y-41682753D01*
X192654957Y-41657208D01*
X192606287Y-41649500D01*
X192393713Y-41649500D01*
X192345042Y-41657208D01*
X192183760Y-41682753D01*
X191981585Y-41748444D01*
X191792179Y-41844951D01*
X191620215Y-41969889D01*
X191506673Y-42083431D01*
X191445350Y-42116915D01*
X191375658Y-42111931D01*
X191319725Y-42070059D01*
X191302810Y-42039082D01*
X191253797Y-41907671D01*
X191253793Y-41907664D01*
X191167547Y-41792455D01*
X191167544Y-41792452D01*
X191052335Y-41706206D01*
X191052328Y-41706202D01*
X190917482Y-41655908D01*
X190917483Y-41655908D01*
X190857883Y-41649501D01*
X190857881Y-41649500D01*
X190857873Y-41649500D01*
X190857864Y-41649500D01*
X189062129Y-41649500D01*
X189062123Y-41649501D01*
X189002516Y-41655908D01*
X188867671Y-41706202D01*
X188867664Y-41706206D01*
X188752455Y-41792452D01*
X188752452Y-41792455D01*
X188666206Y-41907664D01*
X188666202Y-41907671D01*
X188615908Y-42042517D01*
X188609501Y-42102116D01*
X188609500Y-42102135D01*
X188609500Y-43897870D01*
X188609501Y-43897876D01*
X188615908Y-43957483D01*
X188666202Y-44092328D01*
X188666206Y-44092335D01*
X188752451Y-44207543D01*
X188752452Y-44207544D01*
X188752454Y-44207546D01*
X188804949Y-44246844D01*
X188846819Y-44302776D01*
X188851803Y-44372467D01*
X188818318Y-44433790D01*
X177045676Y-56206433D01*
X165328370Y-67923739D01*
X165328367Y-67923742D01*
X165284805Y-67967303D01*
X165241244Y-68010864D01*
X165241242Y-68010867D01*
X165209485Y-68058394D01*
X165172788Y-68113314D01*
X165140143Y-68192127D01*
X165125638Y-68227144D01*
X165125635Y-68227156D01*
X165101600Y-68347989D01*
X165101600Y-74137447D01*
X165081915Y-74204486D01*
X165065281Y-74225128D01*
X150657837Y-88632571D01*
X150596514Y-88666056D01*
X150531838Y-88662821D01*
X150524219Y-88660345D01*
X150516241Y-88657753D01*
X150345797Y-88630757D01*
X150306287Y-88624500D01*
X150093713Y-88624500D01*
X150045042Y-88632208D01*
X149883760Y-88657753D01*
X149681585Y-88723444D01*
X149492179Y-88819951D01*
X149320213Y-88944890D01*
X149169890Y-89095213D01*
X149044949Y-89267182D01*
X149040484Y-89275946D01*
X148992509Y-89326742D01*
X148924688Y-89343536D01*
X148858553Y-89320998D01*
X148819516Y-89275946D01*
X148815050Y-89267182D01*
X148690109Y-89095213D01*
X148539786Y-88944890D01*
X148367820Y-88819951D01*
X148178414Y-88723444D01*
X148178413Y-88723443D01*
X148178412Y-88723443D01*
X147976243Y-88657754D01*
X147976241Y-88657753D01*
X147976240Y-88657753D01*
X147814957Y-88632208D01*
X147766287Y-88624500D01*
X147654451Y-88624500D01*
X147587412Y-88604815D01*
X147541657Y-88552011D01*
X147531713Y-88482853D01*
X147560738Y-88419297D01*
X147566770Y-88412819D01*
X154862079Y-81117510D01*
X162273729Y-73705860D01*
X162273733Y-73705858D01*
X162360858Y-73618733D01*
X162429311Y-73516286D01*
X162476463Y-73402452D01*
X162500500Y-73281606D01*
X162500500Y-63272980D01*
X162520185Y-63205941D01*
X162568208Y-63162494D01*
X162582818Y-63155050D01*
X162754786Y-63030109D01*
X162754788Y-63030106D01*
X162754792Y-63030104D01*
X162905104Y-62879792D01*
X162905106Y-62879788D01*
X162905109Y-62879786D01*
X163030048Y-62707820D01*
X163030050Y-62707817D01*
X163030051Y-62707816D01*
X163126557Y-62518412D01*
X163192246Y-62316243D01*
X163225500Y-62106287D01*
X163225500Y-61893713D01*
X163192246Y-61683757D01*
X163126557Y-61481588D01*
X163030051Y-61292184D01*
X163030049Y-61292181D01*
X163030048Y-61292179D01*
X162905109Y-61120213D01*
X162754786Y-60969890D01*
X162582820Y-60844951D01*
X162393414Y-60748444D01*
X162393413Y-60748443D01*
X162393412Y-60748443D01*
X162191243Y-60682754D01*
X162191241Y-60682753D01*
X162191240Y-60682753D01*
X162029957Y-60657208D01*
X161981287Y-60649500D01*
X161768713Y-60649500D01*
X161720042Y-60657208D01*
X161558760Y-60682753D01*
X161356585Y-60748444D01*
X161167179Y-60844951D01*
X160995213Y-60969890D01*
X160844890Y-61120213D01*
X160719949Y-61292182D01*
X160715484Y-61300946D01*
X160667509Y-61351742D01*
X160599688Y-61368536D01*
X160533553Y-61345998D01*
X160494516Y-61300946D01*
X160490050Y-61292182D01*
X160365109Y-61120213D01*
X160214786Y-60969890D01*
X160042820Y-60844951D01*
X159853414Y-60748444D01*
X159853413Y-60748443D01*
X159853412Y-60748443D01*
X159651243Y-60682754D01*
X159651241Y-60682753D01*
X159651240Y-60682753D01*
X159489957Y-60657208D01*
X159441287Y-60649500D01*
X159228713Y-60649500D01*
X159180042Y-60657208D01*
X159018760Y-60682753D01*
X158816585Y-60748444D01*
X158627179Y-60844951D01*
X158455213Y-60969890D01*
X158304890Y-61120213D01*
X158179949Y-61292182D01*
X158175484Y-61300946D01*
X158127509Y-61351742D01*
X158059688Y-61368536D01*
X157993553Y-61345998D01*
X157954516Y-61300946D01*
X157950050Y-61292182D01*
X157825109Y-61120213D01*
X157674786Y-60969890D01*
X157502820Y-60844951D01*
X157313414Y-60748444D01*
X157313413Y-60748443D01*
X157313412Y-60748443D01*
X157111243Y-60682754D01*
X157111241Y-60682753D01*
X157111240Y-60682753D01*
X156949957Y-60657208D01*
X156901287Y-60649500D01*
X156688713Y-60649500D01*
X156640042Y-60657208D01*
X156478760Y-60682753D01*
X156276585Y-60748444D01*
X156087179Y-60844951D01*
X155915213Y-60969890D01*
X155764890Y-61120213D01*
X155639949Y-61292182D01*
X155635484Y-61300946D01*
X155587509Y-61351742D01*
X155519688Y-61368536D01*
X155453553Y-61345998D01*
X155414516Y-61300946D01*
X155410050Y-61292182D01*
X155285109Y-61120213D01*
X155134786Y-60969890D01*
X154962820Y-60844951D01*
X154773414Y-60748444D01*
X154773413Y-60748443D01*
X154773412Y-60748443D01*
X154571243Y-60682754D01*
X154571241Y-60682753D01*
X154571240Y-60682753D01*
X154409957Y-60657208D01*
X154361287Y-60649500D01*
X154148713Y-60649500D01*
X154100042Y-60657208D01*
X153938760Y-60682753D01*
X153736585Y-60748444D01*
X153547179Y-60844951D01*
X153375213Y-60969890D01*
X153224890Y-61120213D01*
X153099949Y-61292182D01*
X153095202Y-61301499D01*
X153047227Y-61352293D01*
X152979405Y-61369087D01*
X152913271Y-61346548D01*
X152874234Y-61301495D01*
X152869626Y-61292452D01*
X152830270Y-61238282D01*
X152830269Y-61238282D01*
X152197962Y-61870590D01*
X152180925Y-61807007D01*
X152115099Y-61692993D01*
X152022007Y-61599901D01*
X151907993Y-61534075D01*
X151844408Y-61517037D01*
X152476716Y-60884728D01*
X152422550Y-60845375D01*
X152233217Y-60748904D01*
X152031129Y-60683242D01*
X151821246Y-60650000D01*
X151608754Y-60650000D01*
X151398872Y-60683242D01*
X151398869Y-60683242D01*
X151196782Y-60748904D01*
X151007442Y-60845379D01*
X150872385Y-60943503D01*
X150806579Y-60966983D01*
X150738525Y-60951157D01*
X150689830Y-60901051D01*
X150675500Y-60843185D01*
X150675500Y-59780202D01*
X150638553Y-59546931D01*
X150576348Y-59355485D01*
X150565568Y-59322308D01*
X150565566Y-59322305D01*
X150565566Y-59322303D01*
X150495613Y-59185013D01*
X150458343Y-59111867D01*
X150401335Y-59033402D01*
X150319518Y-58920790D01*
X139886819Y-48488091D01*
X139853334Y-48426768D01*
X139850500Y-48400410D01*
X139850500Y-44438711D01*
X171449500Y-44438711D01*
X171449500Y-44681288D01*
X171481161Y-44921785D01*
X171543947Y-45156104D01*
X171628151Y-45359390D01*
X171636776Y-45380212D01*
X171758064Y-45590289D01*
X171758066Y-45590292D01*
X171758067Y-45590293D01*
X171905733Y-45782736D01*
X171905739Y-45782743D01*
X172077256Y-45954260D01*
X172077262Y-45954265D01*
X172269711Y-46101936D01*
X172479788Y-46223224D01*
X172703900Y-46316054D01*
X172938211Y-46378838D01*
X173118586Y-46402584D01*
X173178711Y-46410500D01*
X173178712Y-46410500D01*
X173421289Y-46410500D01*
X173469388Y-46404167D01*
X173661789Y-46378838D01*
X173896100Y-46316054D01*
X174120212Y-46223224D01*
X174330289Y-46101936D01*
X174522738Y-45954265D01*
X174694265Y-45782738D01*
X174841936Y-45590289D01*
X174963224Y-45380212D01*
X175056054Y-45156100D01*
X175118838Y-44921789D01*
X175150500Y-44681288D01*
X175150500Y-44438712D01*
X175118838Y-44198211D01*
X175056054Y-43963900D01*
X174963224Y-43739788D01*
X174841936Y-43529711D01*
X174708248Y-43355485D01*
X174694266Y-43337263D01*
X174694260Y-43337256D01*
X174522743Y-43165739D01*
X174522736Y-43165733D01*
X174330293Y-43018067D01*
X174330292Y-43018066D01*
X174330289Y-43018064D01*
X174120212Y-42896776D01*
X174120205Y-42896773D01*
X173896104Y-42803947D01*
X173661785Y-42741161D01*
X173421289Y-42709500D01*
X173421288Y-42709500D01*
X173178712Y-42709500D01*
X173178711Y-42709500D01*
X172938214Y-42741161D01*
X172703895Y-42803947D01*
X172479794Y-42896773D01*
X172479785Y-42896777D01*
X172269706Y-43018067D01*
X172077263Y-43165733D01*
X172077256Y-43165739D01*
X171905739Y-43337256D01*
X171905733Y-43337263D01*
X171758067Y-43529706D01*
X171758064Y-43529710D01*
X171758064Y-43529711D01*
X171750611Y-43542620D01*
X171636777Y-43739785D01*
X171636773Y-43739794D01*
X171543947Y-43963895D01*
X171481161Y-44198214D01*
X171449500Y-44438711D01*
X139850500Y-44438711D01*
X139850500Y-44381902D01*
X139813553Y-44148631D01*
X139754009Y-43965375D01*
X139740568Y-43924008D01*
X139740566Y-43924005D01*
X139740566Y-43924003D01*
X139646703Y-43739788D01*
X139633343Y-43713567D01*
X139494517Y-43522490D01*
X139327510Y-43355483D01*
X139136433Y-43216657D01*
X139116791Y-43206649D01*
X138925996Y-43109433D01*
X138701368Y-43036446D01*
X138468097Y-42999500D01*
X138468092Y-42999500D01*
X138231908Y-42999500D01*
X138231903Y-42999500D01*
X137998631Y-43036446D01*
X137774003Y-43109433D01*
X137563566Y-43216657D01*
X137372491Y-43355482D01*
X137297392Y-43430581D01*
X137236068Y-43464065D01*
X137166377Y-43459080D01*
X137110443Y-43417209D01*
X137107437Y-43412531D01*
X137017547Y-43292455D01*
X137017544Y-43292452D01*
X136902335Y-43206206D01*
X136902328Y-43206202D01*
X136767482Y-43155908D01*
X136767483Y-43155908D01*
X136707883Y-43149501D01*
X136707881Y-43149500D01*
X136707873Y-43149500D01*
X136707864Y-43149500D01*
X134912129Y-43149500D01*
X134912123Y-43149501D01*
X134852516Y-43155908D01*
X134717671Y-43206202D01*
X134717664Y-43206206D01*
X134602455Y-43292452D01*
X134602452Y-43292455D01*
X134516206Y-43407664D01*
X134516202Y-43407671D01*
X134465908Y-43542517D01*
X134459501Y-43602116D01*
X134459500Y-43602135D01*
X126194310Y-43602135D01*
X126285320Y-43511125D01*
X126411716Y-43384728D01*
X126357550Y-43345375D01*
X126168217Y-43248904D01*
X125966129Y-43183242D01*
X125756246Y-43150000D01*
X125543754Y-43150000D01*
X125333872Y-43183242D01*
X125333869Y-43183242D01*
X125131782Y-43248904D01*
X124942439Y-43345380D01*
X124888282Y-43384727D01*
X124888282Y-43384728D01*
X125520591Y-44017037D01*
X125457007Y-44034075D01*
X125342993Y-44099901D01*
X125249901Y-44192993D01*
X125184075Y-44307007D01*
X125167037Y-44370591D01*
X124497642Y-43701196D01*
X124464319Y-43640609D01*
X124425527Y-43467364D01*
X124403354Y-43407913D01*
X124403350Y-43407906D01*
X124317190Y-43292812D01*
X124317187Y-43292809D01*
X124202093Y-43206649D01*
X124202086Y-43206645D01*
X124067379Y-43156403D01*
X124067372Y-43156401D01*
X124007844Y-43150000D01*
X123360000Y-43150000D01*
X123360000Y-44066988D01*
X123302993Y-44034075D01*
X123175826Y-44000000D01*
X123044174Y-44000000D01*
X122917007Y-44034075D01*
X122860000Y-44066988D01*
X122860000Y-43150000D01*
X122212155Y-43150000D01*
X122152627Y-43156401D01*
X122152620Y-43156403D01*
X122017913Y-43206645D01*
X122017906Y-43206649D01*
X121902812Y-43292809D01*
X121902809Y-43292812D01*
X121816649Y-43407906D01*
X121816645Y-43407913D01*
X121766403Y-43542620D01*
X121766401Y-43542627D01*
X121760000Y-43602155D01*
X119000500Y-43602155D01*
X119000500Y-40624500D01*
X119020185Y-40557461D01*
X119072989Y-40511706D01*
X119124500Y-40500500D01*
X239375500Y-40500500D01*
X239442539Y-40520185D01*
G37*
%TD.AperFunction*%
%TA.AperFunction,Conductor*%
G36*
X170807403Y-114402439D02*
G01*
X170813881Y-114408471D01*
X174463681Y-118058271D01*
X174497166Y-118119594D01*
X174500000Y-118145952D01*
X174500000Y-127362346D01*
X174480315Y-127429385D01*
X174463681Y-127450027D01*
X169200528Y-132713181D01*
X169139205Y-132746666D01*
X169112847Y-132749500D01*
X168474000Y-132749500D01*
X168406961Y-132729815D01*
X168361206Y-132677011D01*
X168350000Y-132625500D01*
X168350000Y-132250000D01*
X167433012Y-132250000D01*
X167465925Y-132192993D01*
X167500000Y-132065826D01*
X167500000Y-131934174D01*
X167465925Y-131807007D01*
X167433012Y-131750000D01*
X168350000Y-131750000D01*
X168350000Y-131102172D01*
X168349999Y-131102155D01*
X168343598Y-131042627D01*
X168343596Y-131042620D01*
X168293354Y-130907913D01*
X168293350Y-130907906D01*
X168207190Y-130792812D01*
X168207187Y-130792809D01*
X168092093Y-130706649D01*
X168092088Y-130706646D01*
X167960528Y-130657577D01*
X167904595Y-130615705D01*
X167880178Y-130550241D01*
X167895030Y-130481968D01*
X167916179Y-130453716D01*
X167922633Y-130447262D01*
X167983955Y-130413778D01*
X168048627Y-130417012D01*
X168212359Y-130470212D01*
X168254031Y-130483753D01*
X168487303Y-130520700D01*
X168487308Y-130520700D01*
X168723497Y-130520700D01*
X168956768Y-130483753D01*
X168962262Y-130481968D01*
X169181392Y-130410768D01*
X169391834Y-130303543D01*
X169582910Y-130164717D01*
X170246217Y-129501410D01*
X170385043Y-129310334D01*
X170492268Y-129099892D01*
X170565253Y-128875269D01*
X170601716Y-128645051D01*
X170602200Y-128641997D01*
X170602200Y-114496152D01*
X170621885Y-114429113D01*
X170674689Y-114383358D01*
X170743847Y-114373414D01*
X170807403Y-114402439D01*
G37*
%TD.AperFunction*%
%TA.AperFunction,Conductor*%
G36*
X197680898Y-54411808D02*
G01*
X197694334Y-54412769D01*
X197712060Y-54426039D01*
X197732203Y-54435238D01*
X197739485Y-54446569D01*
X197750267Y-54454641D01*
X197758004Y-54475386D01*
X197769977Y-54494016D01*
X197773128Y-54515934D01*
X197774684Y-54520105D01*
X197775000Y-54528951D01*
X197775000Y-54641246D01*
X197808242Y-54851127D01*
X197808242Y-54851130D01*
X197873904Y-55053217D01*
X197970375Y-55242550D01*
X198009728Y-55296716D01*
X198642036Y-54664407D01*
X198659075Y-54727993D01*
X198724901Y-54842007D01*
X198817993Y-54935099D01*
X198932007Y-55000925D01*
X198995589Y-55017962D01*
X198363282Y-55650269D01*
X198363282Y-55650270D01*
X198417449Y-55689624D01*
X198606782Y-55786095D01*
X198808870Y-55851757D01*
X199018754Y-55885000D01*
X199231246Y-55885000D01*
X199441127Y-55851757D01*
X199441130Y-55851757D01*
X199643219Y-55786094D01*
X199695904Y-55759250D01*
X199764573Y-55746353D01*
X199829314Y-55772629D01*
X199869571Y-55829734D01*
X199876200Y-55869734D01*
X199876200Y-64088711D01*
X199856515Y-64155750D01*
X199839881Y-64176392D01*
X198005485Y-66010787D01*
X198005484Y-66010788D01*
X197866657Y-66201865D01*
X197818221Y-66296928D01*
X197759433Y-66412303D01*
X197686446Y-66636931D01*
X197649500Y-66870202D01*
X197649500Y-69208097D01*
X197686447Y-69441369D01*
X197686447Y-69441372D01*
X197759430Y-69665988D01*
X197759430Y-69665989D01*
X197785985Y-69718106D01*
X197799500Y-69774399D01*
X197799500Y-69987869D01*
X197799501Y-69987876D01*
X197805908Y-70047483D01*
X197856202Y-70182328D01*
X197856206Y-70182335D01*
X197942452Y-70297544D01*
X197942455Y-70297547D01*
X198057664Y-70383793D01*
X198057671Y-70383797D01*
X198189082Y-70432810D01*
X198245016Y-70474681D01*
X198269433Y-70540145D01*
X198254582Y-70608418D01*
X198233431Y-70636673D01*
X198119889Y-70750215D01*
X197994951Y-70922179D01*
X197898444Y-71111585D01*
X197832753Y-71313760D01*
X197809591Y-71460001D01*
X197799500Y-71523713D01*
X197799500Y-71736287D01*
X197832754Y-71946243D01*
X197851102Y-72002712D01*
X197898443Y-72148412D01*
X197994951Y-72337820D01*
X198119890Y-72509786D01*
X198270213Y-72660109D01*
X198442182Y-72785050D01*
X198450946Y-72789516D01*
X198501742Y-72837491D01*
X198518536Y-72905312D01*
X198495998Y-72971447D01*
X198450946Y-73010484D01*
X198442182Y-73014949D01*
X198270213Y-73139890D01*
X198119890Y-73290213D01*
X197994951Y-73462179D01*
X197898444Y-73651585D01*
X197832753Y-73853760D01*
X197822977Y-73915483D01*
X197799500Y-74063713D01*
X197799500Y-74276287D01*
X197832754Y-74486243D01*
X197878761Y-74627838D01*
X197898444Y-74688414D01*
X197994951Y-74877820D01*
X198119890Y-75049786D01*
X198270213Y-75200109D01*
X198442179Y-75325048D01*
X198442181Y-75325049D01*
X198442184Y-75325051D01*
X198451493Y-75329794D01*
X198502290Y-75377766D01*
X198519087Y-75445587D01*
X198496552Y-75511722D01*
X198451505Y-75550760D01*
X198442446Y-75555376D01*
X198442440Y-75555380D01*
X198388282Y-75594727D01*
X198388282Y-75594728D01*
X199020591Y-76227037D01*
X198957007Y-76244075D01*
X198842993Y-76309901D01*
X198749901Y-76402993D01*
X198684075Y-76517007D01*
X198667037Y-76580591D01*
X198034728Y-75948282D01*
X198034727Y-75948282D01*
X197995380Y-76002439D01*
X197898904Y-76191782D01*
X197833242Y-76393869D01*
X197833242Y-76393872D01*
X197800000Y-76603753D01*
X197800000Y-76816246D01*
X197833242Y-77026127D01*
X197833242Y-77026130D01*
X197898904Y-77228217D01*
X197995375Y-77417550D01*
X198034728Y-77471716D01*
X198667037Y-76839408D01*
X198684075Y-76902993D01*
X198749901Y-77017007D01*
X198842993Y-77110099D01*
X198957007Y-77175925D01*
X199020589Y-77192962D01*
X198388282Y-77825269D01*
X198388282Y-77825270D01*
X198442449Y-77864624D01*
X198631782Y-77961095D01*
X198833870Y-78026757D01*
X199043754Y-78060000D01*
X199256246Y-78060000D01*
X199466127Y-78026757D01*
X199466130Y-78026757D01*
X199668219Y-77961094D01*
X199720904Y-77934250D01*
X199789573Y-77921353D01*
X199854314Y-77947629D01*
X199894571Y-78004734D01*
X199901200Y-78044734D01*
X199901200Y-103999105D01*
X199881515Y-104066144D01*
X199828711Y-104111899D01*
X199759553Y-104121843D01*
X199695997Y-104092818D01*
X199674098Y-104067996D01*
X199621789Y-103989711D01*
X199621786Y-103989707D01*
X199510292Y-103878213D01*
X199510288Y-103878210D01*
X199379185Y-103790609D01*
X199379172Y-103790602D01*
X199233501Y-103730264D01*
X199233489Y-103730261D01*
X199078845Y-103699500D01*
X199078842Y-103699500D01*
X198921158Y-103699500D01*
X198921155Y-103699500D01*
X198766510Y-103730261D01*
X198766498Y-103730264D01*
X198620827Y-103790602D01*
X198620814Y-103790609D01*
X198489711Y-103878210D01*
X198489707Y-103878213D01*
X198378213Y-103989707D01*
X198378210Y-103989711D01*
X198290609Y-104120814D01*
X198290602Y-104120827D01*
X198230264Y-104266498D01*
X198230261Y-104266510D01*
X198199500Y-104421153D01*
X198199500Y-104578843D01*
X198204615Y-104604561D01*
X198198386Y-104674152D01*
X198170678Y-104716430D01*
X184923429Y-117963681D01*
X184862106Y-117997166D01*
X184835748Y-118000000D01*
X181072974Y-118000000D01*
X181005935Y-117980315D01*
X180960180Y-117927511D01*
X180950236Y-117858353D01*
X180955043Y-117837682D01*
X181017246Y-117646243D01*
X181050500Y-117436287D01*
X181050500Y-117223713D01*
X181017246Y-117013757D01*
X180951557Y-116811588D01*
X180855051Y-116622184D01*
X180855049Y-116622181D01*
X180855048Y-116622179D01*
X180730109Y-116450213D01*
X180579786Y-116299890D01*
X180407820Y-116174951D01*
X180407115Y-116174591D01*
X180399054Y-116170485D01*
X180348259Y-116122512D01*
X180331463Y-116054692D01*
X180353999Y-115988556D01*
X180399054Y-115949515D01*
X180407816Y-115945051D01*
X180473061Y-115897648D01*
X180579786Y-115820109D01*
X180579788Y-115820106D01*
X180579792Y-115820104D01*
X180730104Y-115669792D01*
X180730106Y-115669788D01*
X180730109Y-115669786D01*
X180855048Y-115497820D01*
X180855047Y-115497820D01*
X180855051Y-115497816D01*
X180951557Y-115308412D01*
X181017246Y-115106243D01*
X181050500Y-114896287D01*
X181050500Y-114683713D01*
X181017246Y-114473757D01*
X180951557Y-114271588D01*
X180855051Y-114082184D01*
X180855049Y-114082181D01*
X180855048Y-114082179D01*
X180730109Y-113910213D01*
X180579786Y-113759890D01*
X180407820Y-113634951D01*
X180407115Y-113634591D01*
X180399054Y-113630485D01*
X180348259Y-113582512D01*
X180331463Y-113514692D01*
X180353999Y-113448556D01*
X180399054Y-113409515D01*
X180407816Y-113405051D01*
X180429789Y-113389086D01*
X180579786Y-113280109D01*
X180579788Y-113280106D01*
X180579792Y-113280104D01*
X180730104Y-113129792D01*
X180730106Y-113129788D01*
X180730109Y-113129786D01*
X180855048Y-112957820D01*
X180855047Y-112957820D01*
X180855051Y-112957816D01*
X180951557Y-112768412D01*
X181017246Y-112566243D01*
X181050500Y-112356287D01*
X181050500Y-112143713D01*
X181017246Y-111933757D01*
X180951557Y-111731588D01*
X180855051Y-111542184D01*
X180855049Y-111542181D01*
X180855048Y-111542179D01*
X180730109Y-111370213D01*
X180579786Y-111219890D01*
X180407820Y-111094951D01*
X180407115Y-111094591D01*
X180399054Y-111090485D01*
X180348259Y-111042512D01*
X180331463Y-110974692D01*
X180353999Y-110908556D01*
X180399054Y-110869515D01*
X180407816Y-110865051D01*
X180439616Y-110841947D01*
X180579786Y-110740109D01*
X180579788Y-110740106D01*
X180579792Y-110740104D01*
X180730104Y-110589792D01*
X180730106Y-110589788D01*
X180730109Y-110589786D01*
X180855048Y-110417820D01*
X180855047Y-110417820D01*
X180855051Y-110417816D01*
X180951557Y-110228412D01*
X181017246Y-110026243D01*
X181050500Y-109816287D01*
X181050500Y-109603713D01*
X181017246Y-109393757D01*
X181012179Y-109378162D01*
X181010182Y-109308321D01*
X181042426Y-109252162D01*
X193725929Y-96568660D01*
X193725933Y-96568658D01*
X193813058Y-96481533D01*
X193870018Y-96396287D01*
X193881512Y-96379086D01*
X193890449Y-96357511D01*
X193928659Y-96265261D01*
X193928659Y-96265259D01*
X193928663Y-96265251D01*
X193952700Y-96144407D01*
X193952700Y-96021193D01*
X193952700Y-58103251D01*
X193972385Y-58036212D01*
X193989014Y-58015575D01*
X197563321Y-54441268D01*
X197582755Y-54430657D01*
X197599489Y-54416157D01*
X197612820Y-54414240D01*
X197624642Y-54407785D01*
X197646728Y-54409364D01*
X197668647Y-54406213D01*
X197680898Y-54411808D01*
G37*
%TD.AperFunction*%
%TA.AperFunction,Conductor*%
G36*
X192621034Y-64416070D02*
G01*
X192676967Y-64457942D01*
X192701384Y-64523406D01*
X192701700Y-64532252D01*
X192701700Y-95772347D01*
X192682015Y-95839386D01*
X192665381Y-95860028D01*
X181262181Y-107263228D01*
X181200858Y-107296713D01*
X181131166Y-107291729D01*
X181075233Y-107249857D01*
X181050816Y-107184393D01*
X181050500Y-107175547D01*
X181050500Y-107063713D01*
X181017246Y-106853757D01*
X180951557Y-106651588D01*
X180855051Y-106462184D01*
X180855049Y-106462181D01*
X180855048Y-106462179D01*
X180730109Y-106290213D01*
X180579786Y-106139890D01*
X180407820Y-106014951D01*
X180407115Y-106014591D01*
X180399054Y-106010485D01*
X180348259Y-105962512D01*
X180331463Y-105894692D01*
X180353999Y-105828556D01*
X180399054Y-105789515D01*
X180407816Y-105785051D01*
X180429789Y-105769086D01*
X180579786Y-105660109D01*
X180579788Y-105660106D01*
X180579792Y-105660104D01*
X180730104Y-105509792D01*
X180730106Y-105509788D01*
X180730109Y-105509786D01*
X180855048Y-105337820D01*
X180855047Y-105337820D01*
X180855051Y-105337816D01*
X180951557Y-105148412D01*
X181017246Y-104946243D01*
X181050500Y-104736287D01*
X181050500Y-104523713D01*
X181017246Y-104313757D01*
X180951557Y-104111588D01*
X180855051Y-103922184D01*
X180855049Y-103922181D01*
X180855048Y-103922179D01*
X180730109Y-103750213D01*
X180579786Y-103599890D01*
X180407820Y-103474951D01*
X180405390Y-103473713D01*
X180399054Y-103470485D01*
X180348259Y-103422512D01*
X180331463Y-103354692D01*
X180353999Y-103288556D01*
X180399054Y-103249515D01*
X180407816Y-103245051D01*
X180429789Y-103229086D01*
X180579786Y-103120109D01*
X180579788Y-103120106D01*
X180579792Y-103120104D01*
X180730104Y-102969792D01*
X180730106Y-102969788D01*
X180730109Y-102969786D01*
X180855048Y-102797820D01*
X180855047Y-102797820D01*
X180855051Y-102797816D01*
X180951557Y-102608412D01*
X181017246Y-102406243D01*
X181050500Y-102196287D01*
X181050500Y-101983713D01*
X181017246Y-101773757D01*
X180951557Y-101571588D01*
X180855051Y-101382184D01*
X180855049Y-101382181D01*
X180855048Y-101382179D01*
X180730109Y-101210213D01*
X180579786Y-101059890D01*
X180407817Y-100934949D01*
X180398504Y-100930204D01*
X180347707Y-100882230D01*
X180330912Y-100814409D01*
X180353449Y-100748274D01*
X180398507Y-100709232D01*
X180407555Y-100704622D01*
X180461716Y-100665270D01*
X180461717Y-100665270D01*
X179829409Y-100032962D01*
X179892993Y-100015925D01*
X180007007Y-99950099D01*
X180100099Y-99857007D01*
X180165925Y-99742993D01*
X180182962Y-99679408D01*
X180815270Y-100311717D01*
X180815270Y-100311716D01*
X180854622Y-100257554D01*
X180951095Y-100068217D01*
X181016757Y-99866130D01*
X181016757Y-99866127D01*
X181050000Y-99656246D01*
X181050000Y-99443753D01*
X181016757Y-99233872D01*
X181016757Y-99233869D01*
X180951095Y-99031782D01*
X180854624Y-98842449D01*
X180815270Y-98788282D01*
X180815269Y-98788282D01*
X180182962Y-99420590D01*
X180165925Y-99357007D01*
X180100099Y-99242993D01*
X180007007Y-99149901D01*
X179892993Y-99084075D01*
X179829407Y-99067036D01*
X180499627Y-98396818D01*
X180560950Y-98363333D01*
X180587308Y-98360499D01*
X180597871Y-98360499D01*
X180597872Y-98360499D01*
X180657483Y-98354091D01*
X180792331Y-98303796D01*
X180907546Y-98217546D01*
X180993796Y-98102331D01*
X181044091Y-97967483D01*
X181050500Y-97907873D01*
X181050499Y-96112128D01*
X181044091Y-96052517D01*
X181036621Y-96032490D01*
X180993797Y-95917671D01*
X180993793Y-95917664D01*
X180907547Y-95802455D01*
X180907544Y-95802452D01*
X180792335Y-95716206D01*
X180792328Y-95716202D01*
X180657482Y-95665908D01*
X180657483Y-95665908D01*
X180597883Y-95659501D01*
X180597881Y-95659500D01*
X180597873Y-95659500D01*
X180597865Y-95659500D01*
X179170000Y-95659500D01*
X179102961Y-95639815D01*
X179057206Y-95587011D01*
X179046000Y-95535500D01*
X179046000Y-77939952D01*
X179065685Y-77872913D01*
X179082319Y-77852271D01*
X192490019Y-64444571D01*
X192551342Y-64411086D01*
X192621034Y-64416070D01*
G37*
%TD.AperFunction*%
%TA.AperFunction,Conductor*%
G36*
X179580270Y-66236717D02*
G01*
X179580270Y-66236716D01*
X179619622Y-66182555D01*
X179624232Y-66173507D01*
X179672205Y-66122709D01*
X179740025Y-66105912D01*
X179806161Y-66128447D01*
X179845204Y-66173504D01*
X179849949Y-66182817D01*
X179974890Y-66354786D01*
X180125213Y-66505109D01*
X180297181Y-66630050D01*
X180311792Y-66637494D01*
X180362589Y-66685467D01*
X180379500Y-66747980D01*
X180379500Y-67050748D01*
X180359815Y-67117787D01*
X180343181Y-67138429D01*
X177637181Y-69844429D01*
X177575858Y-69877914D01*
X177506166Y-69872930D01*
X177450233Y-69831058D01*
X177425816Y-69765594D01*
X177425500Y-69756748D01*
X177425500Y-66631814D01*
X177445185Y-66564775D01*
X177497989Y-66519020D01*
X177567147Y-66509076D01*
X177622385Y-66531496D01*
X177757442Y-66629620D01*
X177946782Y-66726095D01*
X178148870Y-66791757D01*
X178358754Y-66825000D01*
X178571246Y-66825000D01*
X178781127Y-66791757D01*
X178781130Y-66791757D01*
X178983217Y-66726095D01*
X179172554Y-66629622D01*
X179226716Y-66590270D01*
X179226717Y-66590270D01*
X178594409Y-65957962D01*
X178657993Y-65940925D01*
X178772007Y-65875099D01*
X178865099Y-65782007D01*
X178930925Y-65667993D01*
X178947962Y-65604408D01*
X179580270Y-66236717D01*
G37*
%TD.AperFunction*%
%TA.AperFunction,Conductor*%
G36*
X198034606Y-48435185D02*
G01*
X198080361Y-48487989D01*
X198090305Y-48557147D01*
X198067885Y-48612385D01*
X197969951Y-48747180D01*
X197873444Y-48936585D01*
X197807753Y-49138760D01*
X197774500Y-49348713D01*
X197774500Y-49561286D01*
X197807753Y-49771241D01*
X197812821Y-49786837D01*
X197814816Y-49856678D01*
X197782571Y-49912837D01*
X192425170Y-55270239D01*
X192338044Y-55357364D01*
X192338038Y-55357372D01*
X192269590Y-55459808D01*
X192269588Y-55459813D01*
X192237165Y-55538091D01*
X192237165Y-55538092D01*
X192222438Y-55573645D01*
X192222435Y-55573655D01*
X192198400Y-55694489D01*
X192198400Y-62915646D01*
X192178715Y-62982685D01*
X192162081Y-63003327D01*
X190101122Y-65064285D01*
X190039799Y-65097770D01*
X189970107Y-65092786D01*
X189914174Y-65050914D01*
X189895511Y-65014924D01*
X189876557Y-64956588D01*
X189780051Y-64767184D01*
X189780049Y-64767181D01*
X189780048Y-64767179D01*
X189655109Y-64595213D01*
X189504786Y-64444890D01*
X189332820Y-64319951D01*
X189143414Y-64223444D01*
X189143413Y-64223443D01*
X189143412Y-64223443D01*
X188941243Y-64157754D01*
X188941241Y-64157753D01*
X188941240Y-64157753D01*
X188779957Y-64132208D01*
X188731287Y-64124500D01*
X188518713Y-64124500D01*
X188470042Y-64132208D01*
X188308760Y-64157753D01*
X188106585Y-64223444D01*
X187917179Y-64319951D01*
X187745213Y-64444890D01*
X187594890Y-64595213D01*
X187469949Y-64767182D01*
X187465484Y-64775946D01*
X187417509Y-64826742D01*
X187349688Y-64843536D01*
X187283553Y-64820998D01*
X187244516Y-64775946D01*
X187240050Y-64767182D01*
X187115109Y-64595213D01*
X186964786Y-64444890D01*
X186792820Y-64319951D01*
X186603414Y-64223444D01*
X186603413Y-64223443D01*
X186603412Y-64223443D01*
X186401243Y-64157754D01*
X186401241Y-64157753D01*
X186401240Y-64157753D01*
X186239957Y-64132208D01*
X186191287Y-64124500D01*
X185978713Y-64124500D01*
X185930042Y-64132208D01*
X185768760Y-64157753D01*
X185566585Y-64223444D01*
X185377179Y-64319951D01*
X185205213Y-64444890D01*
X185054890Y-64595213D01*
X184929949Y-64767182D01*
X184925484Y-64775946D01*
X184877509Y-64826742D01*
X184809688Y-64843536D01*
X184743553Y-64820998D01*
X184704516Y-64775946D01*
X184700050Y-64767182D01*
X184575109Y-64595213D01*
X184424786Y-64444890D01*
X184252820Y-64319951D01*
X184063414Y-64223444D01*
X184063413Y-64223443D01*
X184063412Y-64223443D01*
X183861243Y-64157754D01*
X183861241Y-64157753D01*
X183861240Y-64157753D01*
X183699957Y-64132208D01*
X183651287Y-64124500D01*
X183438713Y-64124500D01*
X183390042Y-64132208D01*
X183228760Y-64157753D01*
X183026585Y-64223444D01*
X182837179Y-64319951D01*
X182665213Y-64444890D01*
X182514890Y-64595213D01*
X182389949Y-64767182D01*
X182385484Y-64775946D01*
X182337509Y-64826742D01*
X182269688Y-64843536D01*
X182203553Y-64820998D01*
X182164516Y-64775946D01*
X182160050Y-64767182D01*
X182035109Y-64595213D01*
X181884786Y-64444890D01*
X181712820Y-64319951D01*
X181523414Y-64223444D01*
X181523413Y-64223443D01*
X181523412Y-64223443D01*
X181321243Y-64157754D01*
X181321241Y-64157753D01*
X181321240Y-64157753D01*
X181159957Y-64132208D01*
X181111287Y-64124500D01*
X180898713Y-64124500D01*
X180850042Y-64132208D01*
X180688760Y-64157753D01*
X180486585Y-64223444D01*
X180297179Y-64319951D01*
X180125213Y-64444890D01*
X179974890Y-64595213D01*
X179849949Y-64767182D01*
X179845202Y-64776499D01*
X179797227Y-64827293D01*
X179729405Y-64844087D01*
X179663271Y-64821548D01*
X179624234Y-64776495D01*
X179619626Y-64767452D01*
X179580270Y-64713282D01*
X179580269Y-64713282D01*
X178947962Y-65345590D01*
X178930925Y-65282007D01*
X178865099Y-65167993D01*
X178772007Y-65074901D01*
X178657993Y-65009075D01*
X178594407Y-64992036D01*
X179226716Y-64359728D01*
X179172550Y-64320375D01*
X178983217Y-64223904D01*
X178781129Y-64158242D01*
X178571246Y-64125000D01*
X178358754Y-64125000D01*
X178148872Y-64158242D01*
X178148869Y-64158242D01*
X177946782Y-64223904D01*
X177757442Y-64320379D01*
X177622385Y-64418503D01*
X177556579Y-64441983D01*
X177488525Y-64426157D01*
X177439830Y-64376051D01*
X177425500Y-64318185D01*
X177425500Y-64046189D01*
X177445185Y-63979150D01*
X177461819Y-63958508D01*
X192968508Y-48451819D01*
X193029831Y-48418334D01*
X193056189Y-48415500D01*
X197967567Y-48415500D01*
X198034606Y-48435185D01*
G37*
%TD.AperFunction*%
%TD*%
M02*
