%TF.GenerationSoftware,KiCad,Pcbnew,10.0.3-10.0.3~ubuntu24.04.1*%
%TF.CreationDate,2026-06-02T07:27:00+02:00*%
%TF.ProjectId,_V0_2-Scale_Module,5f56305f-322d-4536-9361-6c655f4d6f64,rev?*%
%TF.SameCoordinates,Original*%
%TF.FileFunction,Legend,Bot*%
%TF.FilePolarity,Positive*%
%FSLAX46Y46*%
G04 Gerber Fmt 4.6, Leading zero omitted, Abs format (unit mm)*
G04 Created by KiCad (PCBNEW 10.0.3-10.0.3~ubuntu24.04.1) date 2026-06-02 07:27:00*
%MOMM*%
%LPD*%
G01*
G04 APERTURE LIST*
%ADD10C,0.100000*%
G04 APERTURE END LIST*
D10*
X189550000Y-46500000D02*
X202550000Y-46500000D01*
X202550000Y-49500000D01*
X189550000Y-49500000D01*
X189550000Y-46500000D01*
G36*
X189550000Y-46500000D02*
G01*
X202550000Y-46500000D01*
X202550000Y-49500000D01*
X189550000Y-49500000D01*
X189550000Y-46500000D01*
G37*
X189550000Y-52500000D02*
X209050000Y-52500000D01*
X209050000Y-64500000D01*
X189550000Y-64500000D01*
X189550000Y-52500000D01*
G36*
X189550000Y-52500000D02*
G01*
X209050000Y-52500000D01*
X209050000Y-64500000D01*
X189550000Y-64500000D01*
X189550000Y-52500000D01*
G37*
X208388972Y-43932643D02*
X208055639Y-44932643D01*
X208055639Y-44932643D02*
X207722306Y-43932643D01*
X207198496Y-43932643D02*
X207103258Y-43932643D01*
X207103258Y-43932643D02*
X207008020Y-43980262D01*
X207008020Y-43980262D02*
X206960401Y-44027881D01*
X206960401Y-44027881D02*
X206912782Y-44123119D01*
X206912782Y-44123119D02*
X206865163Y-44313595D01*
X206865163Y-44313595D02*
X206865163Y-44551690D01*
X206865163Y-44551690D02*
X206912782Y-44742166D01*
X206912782Y-44742166D02*
X206960401Y-44837404D01*
X206960401Y-44837404D02*
X207008020Y-44885024D01*
X207008020Y-44885024D02*
X207103258Y-44932643D01*
X207103258Y-44932643D02*
X207198496Y-44932643D01*
X207198496Y-44932643D02*
X207293734Y-44885024D01*
X207293734Y-44885024D02*
X207341353Y-44837404D01*
X207341353Y-44837404D02*
X207388972Y-44742166D01*
X207388972Y-44742166D02*
X207436591Y-44551690D01*
X207436591Y-44551690D02*
X207436591Y-44313595D01*
X207436591Y-44313595D02*
X207388972Y-44123119D01*
X207388972Y-44123119D02*
X207341353Y-44027881D01*
X207341353Y-44027881D02*
X207293734Y-43980262D01*
X207293734Y-43980262D02*
X207198496Y-43932643D01*
X206436591Y-44837404D02*
X206388972Y-44885024D01*
X206388972Y-44885024D02*
X206436591Y-44932643D01*
X206436591Y-44932643D02*
X206484210Y-44885024D01*
X206484210Y-44885024D02*
X206436591Y-44837404D01*
X206436591Y-44837404D02*
X206436591Y-44932643D01*
X206008020Y-44027881D02*
X205960401Y-43980262D01*
X205960401Y-43980262D02*
X205865163Y-43932643D01*
X205865163Y-43932643D02*
X205627068Y-43932643D01*
X205627068Y-43932643D02*
X205531830Y-43980262D01*
X205531830Y-43980262D02*
X205484211Y-44027881D01*
X205484211Y-44027881D02*
X205436592Y-44123119D01*
X205436592Y-44123119D02*
X205436592Y-44218357D01*
X205436592Y-44218357D02*
X205484211Y-44361214D01*
X205484211Y-44361214D02*
X206055639Y-44932643D01*
X206055639Y-44932643D02*
X205436592Y-44932643D01*
X204293734Y-44885024D02*
X204150877Y-44932643D01*
X204150877Y-44932643D02*
X203912782Y-44932643D01*
X203912782Y-44932643D02*
X203817544Y-44885024D01*
X203817544Y-44885024D02*
X203769925Y-44837404D01*
X203769925Y-44837404D02*
X203722306Y-44742166D01*
X203722306Y-44742166D02*
X203722306Y-44646928D01*
X203722306Y-44646928D02*
X203769925Y-44551690D01*
X203769925Y-44551690D02*
X203817544Y-44504071D01*
X203817544Y-44504071D02*
X203912782Y-44456452D01*
X203912782Y-44456452D02*
X204103258Y-44408833D01*
X204103258Y-44408833D02*
X204198496Y-44361214D01*
X204198496Y-44361214D02*
X204246115Y-44313595D01*
X204246115Y-44313595D02*
X204293734Y-44218357D01*
X204293734Y-44218357D02*
X204293734Y-44123119D01*
X204293734Y-44123119D02*
X204246115Y-44027881D01*
X204246115Y-44027881D02*
X204198496Y-43980262D01*
X204198496Y-43980262D02*
X204103258Y-43932643D01*
X204103258Y-43932643D02*
X203865163Y-43932643D01*
X203865163Y-43932643D02*
X203722306Y-43980262D01*
X202865163Y-44885024D02*
X202960401Y-44932643D01*
X202960401Y-44932643D02*
X203150877Y-44932643D01*
X203150877Y-44932643D02*
X203246115Y-44885024D01*
X203246115Y-44885024D02*
X203293734Y-44837404D01*
X203293734Y-44837404D02*
X203341353Y-44742166D01*
X203341353Y-44742166D02*
X203341353Y-44456452D01*
X203341353Y-44456452D02*
X203293734Y-44361214D01*
X203293734Y-44361214D02*
X203246115Y-44313595D01*
X203246115Y-44313595D02*
X203150877Y-44265976D01*
X203150877Y-44265976D02*
X202960401Y-44265976D01*
X202960401Y-44265976D02*
X202865163Y-44313595D01*
X202008020Y-44932643D02*
X202008020Y-44408833D01*
X202008020Y-44408833D02*
X202055639Y-44313595D01*
X202055639Y-44313595D02*
X202150877Y-44265976D01*
X202150877Y-44265976D02*
X202341353Y-44265976D01*
X202341353Y-44265976D02*
X202436591Y-44313595D01*
X202008020Y-44885024D02*
X202103258Y-44932643D01*
X202103258Y-44932643D02*
X202341353Y-44932643D01*
X202341353Y-44932643D02*
X202436591Y-44885024D01*
X202436591Y-44885024D02*
X202484210Y-44789785D01*
X202484210Y-44789785D02*
X202484210Y-44694547D01*
X202484210Y-44694547D02*
X202436591Y-44599309D01*
X202436591Y-44599309D02*
X202341353Y-44551690D01*
X202341353Y-44551690D02*
X202103258Y-44551690D01*
X202103258Y-44551690D02*
X202008020Y-44504071D01*
X201388972Y-44932643D02*
X201484210Y-44885024D01*
X201484210Y-44885024D02*
X201531829Y-44789785D01*
X201531829Y-44789785D02*
X201531829Y-43932643D01*
X200627067Y-44885024D02*
X200722305Y-44932643D01*
X200722305Y-44932643D02*
X200912781Y-44932643D01*
X200912781Y-44932643D02*
X201008019Y-44885024D01*
X201008019Y-44885024D02*
X201055638Y-44789785D01*
X201055638Y-44789785D02*
X201055638Y-44408833D01*
X201055638Y-44408833D02*
X201008019Y-44313595D01*
X201008019Y-44313595D02*
X200912781Y-44265976D01*
X200912781Y-44265976D02*
X200722305Y-44265976D01*
X200722305Y-44265976D02*
X200627067Y-44313595D01*
X200627067Y-44313595D02*
X200579448Y-44408833D01*
X200579448Y-44408833D02*
X200579448Y-44504071D01*
X200579448Y-44504071D02*
X201055638Y-44599309D01*
X200150876Y-44932643D02*
X200150876Y-43932643D01*
X200150876Y-43932643D02*
X199769924Y-43932643D01*
X199769924Y-43932643D02*
X199674686Y-43980262D01*
X199674686Y-43980262D02*
X199627067Y-44027881D01*
X199627067Y-44027881D02*
X199579448Y-44123119D01*
X199579448Y-44123119D02*
X199579448Y-44265976D01*
X199579448Y-44265976D02*
X199627067Y-44361214D01*
X199627067Y-44361214D02*
X199674686Y-44408833D01*
X199674686Y-44408833D02*
X199769924Y-44456452D01*
X199769924Y-44456452D02*
X200150876Y-44456452D01*
X198579448Y-44837404D02*
X198627067Y-44885024D01*
X198627067Y-44885024D02*
X198769924Y-44932643D01*
X198769924Y-44932643D02*
X198865162Y-44932643D01*
X198865162Y-44932643D02*
X199008019Y-44885024D01*
X199008019Y-44885024D02*
X199103257Y-44789785D01*
X199103257Y-44789785D02*
X199150876Y-44694547D01*
X199150876Y-44694547D02*
X199198495Y-44504071D01*
X199198495Y-44504071D02*
X199198495Y-44361214D01*
X199198495Y-44361214D02*
X199150876Y-44170738D01*
X199150876Y-44170738D02*
X199103257Y-44075500D01*
X199103257Y-44075500D02*
X199008019Y-43980262D01*
X199008019Y-43980262D02*
X198865162Y-43932643D01*
X198865162Y-43932643D02*
X198769924Y-43932643D01*
X198769924Y-43932643D02*
X198627067Y-43980262D01*
X198627067Y-43980262D02*
X198579448Y-44027881D01*
X197817543Y-44408833D02*
X197674686Y-44456452D01*
X197674686Y-44456452D02*
X197627067Y-44504071D01*
X197627067Y-44504071D02*
X197579448Y-44599309D01*
X197579448Y-44599309D02*
X197579448Y-44742166D01*
X197579448Y-44742166D02*
X197627067Y-44837404D01*
X197627067Y-44837404D02*
X197674686Y-44885024D01*
X197674686Y-44885024D02*
X197769924Y-44932643D01*
X197769924Y-44932643D02*
X198150876Y-44932643D01*
X198150876Y-44932643D02*
X198150876Y-43932643D01*
X198150876Y-43932643D02*
X197817543Y-43932643D01*
X197817543Y-43932643D02*
X197722305Y-43980262D01*
X197722305Y-43980262D02*
X197674686Y-44027881D01*
X197674686Y-44027881D02*
X197627067Y-44123119D01*
X197627067Y-44123119D02*
X197627067Y-44218357D01*
X197627067Y-44218357D02*
X197674686Y-44313595D01*
X197674686Y-44313595D02*
X197722305Y-44361214D01*
X197722305Y-44361214D02*
X197817543Y-44408833D01*
X197817543Y-44408833D02*
X198150876Y-44408833D01*
X208246115Y-48152531D02*
X208246115Y-47152531D01*
X208246115Y-47152531D02*
X208008020Y-47152531D01*
X208008020Y-47152531D02*
X207865163Y-47200150D01*
X207865163Y-47200150D02*
X207769925Y-47295388D01*
X207769925Y-47295388D02*
X207722306Y-47390626D01*
X207722306Y-47390626D02*
X207674687Y-47581102D01*
X207674687Y-47581102D02*
X207674687Y-47723959D01*
X207674687Y-47723959D02*
X207722306Y-47914435D01*
X207722306Y-47914435D02*
X207769925Y-48009673D01*
X207769925Y-48009673D02*
X207865163Y-48104912D01*
X207865163Y-48104912D02*
X208008020Y-48152531D01*
X208008020Y-48152531D02*
X208246115Y-48152531D01*
X206865163Y-48104912D02*
X206960401Y-48152531D01*
X206960401Y-48152531D02*
X207150877Y-48152531D01*
X207150877Y-48152531D02*
X207246115Y-48104912D01*
X207246115Y-48104912D02*
X207293734Y-48009673D01*
X207293734Y-48009673D02*
X207293734Y-47628721D01*
X207293734Y-47628721D02*
X207246115Y-47533483D01*
X207246115Y-47533483D02*
X207150877Y-47485864D01*
X207150877Y-47485864D02*
X206960401Y-47485864D01*
X206960401Y-47485864D02*
X206865163Y-47533483D01*
X206865163Y-47533483D02*
X206817544Y-47628721D01*
X206817544Y-47628721D02*
X206817544Y-47723959D01*
X206817544Y-47723959D02*
X207293734Y-47819197D01*
X206484210Y-47485864D02*
X206246115Y-48152531D01*
X206246115Y-48152531D02*
X206008020Y-47485864D01*
X205627067Y-48152531D02*
X205627067Y-47485864D01*
X205627067Y-47152531D02*
X205674686Y-47200150D01*
X205674686Y-47200150D02*
X205627067Y-47247769D01*
X205627067Y-47247769D02*
X205579448Y-47200150D01*
X205579448Y-47200150D02*
X205627067Y-47152531D01*
X205627067Y-47152531D02*
X205627067Y-47247769D01*
X204722306Y-48104912D02*
X204817544Y-48152531D01*
X204817544Y-48152531D02*
X205008020Y-48152531D01*
X205008020Y-48152531D02*
X205103258Y-48104912D01*
X205103258Y-48104912D02*
X205150877Y-48057292D01*
X205150877Y-48057292D02*
X205198496Y-47962054D01*
X205198496Y-47962054D02*
X205198496Y-47676340D01*
X205198496Y-47676340D02*
X205150877Y-47581102D01*
X205150877Y-47581102D02*
X205103258Y-47533483D01*
X205103258Y-47533483D02*
X205008020Y-47485864D01*
X205008020Y-47485864D02*
X204817544Y-47485864D01*
X204817544Y-47485864D02*
X204722306Y-47533483D01*
X203912782Y-48104912D02*
X204008020Y-48152531D01*
X204008020Y-48152531D02*
X204198496Y-48152531D01*
X204198496Y-48152531D02*
X204293734Y-48104912D01*
X204293734Y-48104912D02*
X204341353Y-48009673D01*
X204341353Y-48009673D02*
X204341353Y-47628721D01*
X204341353Y-47628721D02*
X204293734Y-47533483D01*
X204293734Y-47533483D02*
X204198496Y-47485864D01*
X204198496Y-47485864D02*
X204008020Y-47485864D01*
X204008020Y-47485864D02*
X203912782Y-47533483D01*
X203912782Y-47533483D02*
X203865163Y-47628721D01*
X203865163Y-47628721D02*
X203865163Y-47723959D01*
X203865163Y-47723959D02*
X204341353Y-47819197D01*
X203436591Y-48057292D02*
X203388972Y-48104912D01*
X203388972Y-48104912D02*
X203436591Y-48152531D01*
X203436591Y-48152531D02*
X203484210Y-48104912D01*
X203484210Y-48104912D02*
X203436591Y-48057292D01*
X203436591Y-48057292D02*
X203436591Y-48152531D01*
X203436591Y-47533483D02*
X203388972Y-47581102D01*
X203388972Y-47581102D02*
X203436591Y-47628721D01*
X203436591Y-47628721D02*
X203484210Y-47581102D01*
X203484210Y-47581102D02*
X203436591Y-47533483D01*
X203436591Y-47533483D02*
X203436591Y-47628721D01*
X208246115Y-51372419D02*
X208246115Y-50372419D01*
X208246115Y-50372419D02*
X207674687Y-51372419D01*
X207674687Y-51372419D02*
X207674687Y-50372419D01*
X207055639Y-51372419D02*
X207150877Y-51324800D01*
X207150877Y-51324800D02*
X207198496Y-51277180D01*
X207198496Y-51277180D02*
X207246115Y-51181942D01*
X207246115Y-51181942D02*
X207246115Y-50896228D01*
X207246115Y-50896228D02*
X207198496Y-50800990D01*
X207198496Y-50800990D02*
X207150877Y-50753371D01*
X207150877Y-50753371D02*
X207055639Y-50705752D01*
X207055639Y-50705752D02*
X206912782Y-50705752D01*
X206912782Y-50705752D02*
X206817544Y-50753371D01*
X206817544Y-50753371D02*
X206769925Y-50800990D01*
X206769925Y-50800990D02*
X206722306Y-50896228D01*
X206722306Y-50896228D02*
X206722306Y-51181942D01*
X206722306Y-51181942D02*
X206769925Y-51277180D01*
X206769925Y-51277180D02*
X206817544Y-51324800D01*
X206817544Y-51324800D02*
X206912782Y-51372419D01*
X206912782Y-51372419D02*
X207055639Y-51372419D01*
X206436591Y-50705752D02*
X206055639Y-50705752D01*
X206293734Y-50372419D02*
X206293734Y-51229561D01*
X206293734Y-51229561D02*
X206246115Y-51324800D01*
X206246115Y-51324800D02*
X206150877Y-51372419D01*
X206150877Y-51372419D02*
X206055639Y-51372419D01*
X205341353Y-51324800D02*
X205436591Y-51372419D01*
X205436591Y-51372419D02*
X205627067Y-51372419D01*
X205627067Y-51372419D02*
X205722305Y-51324800D01*
X205722305Y-51324800D02*
X205769924Y-51229561D01*
X205769924Y-51229561D02*
X205769924Y-50848609D01*
X205769924Y-50848609D02*
X205722305Y-50753371D01*
X205722305Y-50753371D02*
X205627067Y-50705752D01*
X205627067Y-50705752D02*
X205436591Y-50705752D01*
X205436591Y-50705752D02*
X205341353Y-50753371D01*
X205341353Y-50753371D02*
X205293734Y-50848609D01*
X205293734Y-50848609D02*
X205293734Y-50943847D01*
X205293734Y-50943847D02*
X205769924Y-51039085D01*
X204912781Y-51324800D02*
X204817543Y-51372419D01*
X204817543Y-51372419D02*
X204627067Y-51372419D01*
X204627067Y-51372419D02*
X204531829Y-51324800D01*
X204531829Y-51324800D02*
X204484210Y-51229561D01*
X204484210Y-51229561D02*
X204484210Y-51181942D01*
X204484210Y-51181942D02*
X204531829Y-51086704D01*
X204531829Y-51086704D02*
X204627067Y-51039085D01*
X204627067Y-51039085D02*
X204769924Y-51039085D01*
X204769924Y-51039085D02*
X204865162Y-50991466D01*
X204865162Y-50991466D02*
X204912781Y-50896228D01*
X204912781Y-50896228D02*
X204912781Y-50848609D01*
X204912781Y-50848609D02*
X204865162Y-50753371D01*
X204865162Y-50753371D02*
X204769924Y-50705752D01*
X204769924Y-50705752D02*
X204627067Y-50705752D01*
X204627067Y-50705752D02*
X204531829Y-50753371D01*
X204055638Y-51277180D02*
X204008019Y-51324800D01*
X204008019Y-51324800D02*
X204055638Y-51372419D01*
X204055638Y-51372419D02*
X204103257Y-51324800D01*
X204103257Y-51324800D02*
X204055638Y-51277180D01*
X204055638Y-51277180D02*
X204055638Y-51372419D01*
X204055638Y-50753371D02*
X204008019Y-50800990D01*
X204008019Y-50800990D02*
X204055638Y-50848609D01*
X204055638Y-50848609D02*
X204103257Y-50800990D01*
X204103257Y-50800990D02*
X204055638Y-50753371D01*
X204055638Y-50753371D02*
X204055638Y-50848609D01*
M02*
