%TF.GenerationSoftware,KiCad,Pcbnew,10.0.3-10.0.3~ubuntu24.04.1*%
%TF.CreationDate,2026-06-02T07:27:00+02:00*%
%TF.ProjectId,_V0_2-Scale_Module,5f56305f-322d-4536-9361-6c655f4d6f64,rev?*%
%TF.SameCoordinates,Original*%
%TF.FileFunction,Copper,L1,Top*%
%TF.FilePolarity,Positive*%
%FSLAX46Y46*%
G04 Gerber Fmt 4.6, Leading zero omitted, Abs format (unit mm)*
G04 Created by KiCad (PCBNEW 10.0.3-10.0.3~ubuntu24.04.1) date 2026-06-02 07:27:00*
%MOMM*%
%LPD*%
G01*
G04 APERTURE LIST*
G04 Aperture macros list*
%AMRoundRect*
0 Rectangle with rounded corners*
0 $1 Rounding radius*
0 $2 $3 $4 $5 $6 $7 $8 $9 X,Y pos of 4 corners*
0 Add a 4 corners polygon primitive as box body*
4,1,4,$2,$3,$4,$5,$6,$7,$8,$9,$2,$3,0*
0 Add four circle primitives for the rounded corners*
1,1,$1+$1,$2,$3*
1,1,$1+$1,$4,$5*
1,1,$1+$1,$6,$7*
1,1,$1+$1,$8,$9*
0 Add four rect primitives between the rounded corners*
20,1,$1+$1,$2,$3,$4,$5,0*
20,1,$1+$1,$4,$5,$6,$7,0*
20,1,$1+$1,$6,$7,$8,$9,0*
20,1,$1+$1,$8,$9,$2,$3,0*%
G04 Aperture macros list end*
%TA.AperFunction,ComponentPad*%
%ADD10RoundRect,0.250000X0.750000X-0.750000X0.750000X0.750000X-0.750000X0.750000X-0.750000X-0.750000X0*%
%TD*%
%TA.AperFunction,ComponentPad*%
%ADD11C,2.000000*%
%TD*%
%TA.AperFunction,ComponentPad*%
%ADD12R,1.700000X1.700000*%
%TD*%
%TA.AperFunction,ComponentPad*%
%ADD13C,1.700000*%
%TD*%
%TA.AperFunction,ComponentPad*%
%ADD14RoundRect,0.250000X-0.750000X0.750000X-0.750000X-0.750000X0.750000X-0.750000X0.750000X0.750000X0*%
%TD*%
%TA.AperFunction,ComponentPad*%
%ADD15RoundRect,0.250000X-0.750000X-0.750000X0.750000X-0.750000X0.750000X0.750000X-0.750000X0.750000X0*%
%TD*%
%TA.AperFunction,ComponentPad*%
%ADD16C,1.600000*%
%TD*%
%TA.AperFunction,ViaPad*%
%ADD17C,0.600000*%
%TD*%
%TA.AperFunction,Conductor*%
%ADD18C,0.250000*%
%TD*%
%TA.AperFunction,Conductor*%
%ADD19C,1.000000*%
%TD*%
G04 APERTURE END LIST*
D10*
%TO.P,J12,1,Pin_1_1*%
%TO.N,Net-(J12-Pin_1)*%
X235000000Y-103000000D03*
D11*
%TO.P,J12,2,Pin_2_2*%
X235000000Y-100460000D03*
%TO.P,J12,3,Pin_3_3*%
%TO.N,Net-(J12-Pin_3)*%
X235000000Y-97920000D03*
%TO.P,J12,4,Pin_4_4*%
X235000000Y-95380000D03*
%TO.P,J12,5,Pin_5_5*%
%TO.N,Net-(J12-Pin_5)*%
X235000000Y-92840000D03*
%TO.P,J12,6,Pin_6_6*%
X235000000Y-90300000D03*
%TO.P,J12,7,Pin_7_7*%
%TO.N,Net-(J12-Pin_7)*%
X235000000Y-87760000D03*
%TO.P,J12,8,Pin_8_8*%
X235000000Y-85220000D03*
%TO.P,J12,9,Pin_9_9*%
%TO.N,Net-(J12-Pin_9)*%
X235000000Y-82680000D03*
%TO.P,J12,10,Pin_10_10*%
%TO.N,Net-(J12-Pin_10)*%
X235000000Y-80140000D03*
%TO.P,J12,11,Pin_11_11*%
%TO.N,Net-(J12-Pin_11)*%
X235000000Y-77600000D03*
%TO.P,J12,12,Pin_12_12*%
%TO.N,Net-(J12-Pin_12)*%
X235000000Y-75060000D03*
%TD*%
D10*
%TO.P,J14,1,Pin_1_1*%
%TO.N,/3.3V*%
X235000000Y-124000000D03*
D11*
%TO.P,J14,2,Pin_2_2*%
%TO.N,GND*%
X235000000Y-121460000D03*
%TO.P,J14,3,Pin_3_3*%
%TO.N,/GPIO4*%
X235000000Y-118920000D03*
%TD*%
D12*
%TO.P,J1,1,Pin_1_1*%
%TO.N,/3.3V*%
X184700000Y-97700000D03*
D13*
%TO.P,J1,2,Pin_2_2*%
%TO.N,GND*%
X184700000Y-100240000D03*
%TO.P,J1,3,Pin_3_3*%
%TO.N,/GPIO15*%
X184700000Y-102780000D03*
%TO.P,J1,4,Pin_4_4*%
%TO.N,/GPIO2*%
X184700000Y-105320000D03*
%TO.P,J1,5,Pin_5_5*%
%TO.N,/GPIO4*%
X184700000Y-107860000D03*
%TO.P,J1,6,Pin_6_6*%
%TO.N,/GPIO16*%
X184700000Y-110400000D03*
%TO.P,J1,7,Pin_7_7*%
%TO.N,/GPIO17*%
X184700000Y-112940000D03*
%TO.P,J1,8,Pin_8_8*%
%TO.N,/GPIO5*%
X184700000Y-115480000D03*
%TO.P,J1,9,Pin_9_9*%
%TO.N,/GPIO18*%
X184700000Y-118020000D03*
%TO.P,J1,10,Pin_10_10*%
%TO.N,/GPIO19*%
X184700000Y-120560000D03*
%TO.P,J1,11,Pin_11_11*%
%TO.N,/GPIO21*%
X184700000Y-123100000D03*
%TO.P,J1,12,Pin_12_12*%
%TO.N,/ESP32-RX0*%
X184700000Y-125640000D03*
%TO.P,J1,13,Pin_13_13*%
%TO.N,/ESP32-TX0*%
X184700000Y-128180000D03*
%TO.P,J1,14,Pin_14_14*%
%TO.N,/GPIO22*%
X184700000Y-130720000D03*
%TO.P,J1,15,Pin_15_15*%
%TO.N,/GPIO23*%
X184700000Y-133260000D03*
%TD*%
D14*
%TO.P,J10,1,Pin_1_1*%
%TO.N,GND*%
X166500000Y-85960000D03*
D11*
%TO.P,J10,2,Pin_2_2*%
%TO.N,/3.3V*%
X166500000Y-88500000D03*
%TD*%
D15*
%TO.P,J20,1,Pin_1_1*%
%TO.N,/3.3V*%
X216045000Y-134125000D03*
D11*
%TO.P,J20,2,Pin_2_2*%
%TO.N,GND*%
X218585000Y-134125000D03*
%TO.P,J20,3,Pin_3_3*%
%TO.N,/GPIO21*%
X221125000Y-134125000D03*
%TO.P,J20,4,Pin_4_4*%
%TO.N,/GPIO22*%
X223665000Y-134125000D03*
%TD*%
D12*
%TO.P,J9,1,Pin_1_1*%
%TO.N,GND*%
X164000000Y-123540000D03*
D13*
%TO.P,J9,2,Pin_2_2*%
%TO.N,/3.3V*%
X164000000Y-121000000D03*
%TO.P,J9,3,Pin_3_3*%
%TO.N,/GPIO23*%
X164000000Y-118460000D03*
%TO.P,J9,4,Pin_4_4*%
%TO.N,/GPIO19*%
X164000000Y-115920000D03*
%TO.P,J9,5,Pin_5_5*%
%TO.N,/GPIO18*%
X164000000Y-113380000D03*
%TO.P,J9,6,Pin_6_6*%
%TO.N,/GPIO5*%
X164000000Y-110840000D03*
%TD*%
D16*
%TO.P,SCL-4.7k1,1*%
%TO.N,/3.3V*%
X189075000Y-129075000D03*
%TO.P,SCL-4.7k1,2*%
%TO.N,/GPIO22*%
X196695000Y-129075000D03*
%TD*%
D12*
%TO.P,J5,1,Pin_1_1*%
%TO.N,/GPIO22*%
X215500000Y-99620000D03*
D13*
%TO.P,J5,2,Pin_2_2*%
%TO.N,/GPIO21*%
X215500000Y-97080000D03*
%TO.P,J5,3,Pin_3_3*%
%TO.N,/3.3V*%
X215500000Y-94540000D03*
%TO.P,J5,4,Pin_4_4*%
%TO.N,GND*%
X215500000Y-92000000D03*
%TD*%
D10*
%TO.P,J11,1,Pin_1_1*%
%TO.N,Net-(J11-Pin_1)*%
X235000000Y-70660000D03*
D11*
%TO.P,J11,2,Pin_2_2*%
X235000000Y-68120000D03*
%TO.P,J11,3,Pin_3_3*%
%TO.N,Net-(J11-Pin_3)*%
X235000000Y-65580000D03*
%TO.P,J11,4,Pin_4_4*%
X235000000Y-63040000D03*
%TO.P,J11,5,Pin_5_5*%
%TO.N,Net-(J11-Pin_5)*%
X235000000Y-60500000D03*
%TO.P,J11,6,Pin_6_6*%
X235000000Y-57960000D03*
%TO.P,J11,7,Pin_7_7*%
%TO.N,Net-(J11-Pin_7)*%
X235000000Y-55420000D03*
%TO.P,J11,8,Pin_8_8*%
X235000000Y-52880000D03*
%TO.P,J11,9,Pin_9_9*%
%TO.N,Net-(J11-Pin_9)*%
X235000000Y-50340000D03*
%TO.P,J11,10,Pin_10_10*%
%TO.N,Net-(J11-Pin_10)*%
X235000000Y-47800000D03*
%TO.P,J11,11,Pin_11_11*%
%TO.N,Net-(J11-Pin_11)*%
X235000000Y-45260000D03*
%TO.P,J11,12,Pin_12_12*%
%TO.N,Net-(J11-Pin_12)*%
X235000000Y-42720000D03*
%TD*%
D14*
%TO.P,J16,1,Pin_1_1*%
%TO.N,/3.3V*%
X166000000Y-65000000D03*
D11*
%TO.P,J16,2,Pin_2_2*%
X166000000Y-67540000D03*
%TO.P,J16,3,Pin_3_3*%
%TO.N,GND*%
X166000000Y-70080000D03*
%TO.P,J16,4,Pin_4_4*%
%TO.N,/GPIO14*%
X166000000Y-72620000D03*
%TO.P,J16,5,Pin_5_5*%
%TO.N,/GPIO13*%
X166000000Y-75160000D03*
%TO.P,J16,6,Pin_6_6*%
%TO.N,/GPIO34*%
X166000000Y-77700000D03*
%TD*%
D10*
%TO.P,J13,1,Pin_1_1*%
%TO.N,/3.3V*%
X235000000Y-113500000D03*
D11*
%TO.P,J13,2,Pin_2_2*%
%TO.N,GND*%
X235000000Y-110960000D03*
%TO.P,J13,3,Pin_3_3*%
%TO.N,/GPIO4*%
X235000000Y-108420000D03*
%TD*%
D10*
%TO.P,J15,1,Pin_1_1*%
%TO.N,/3.3V*%
X235000000Y-137000000D03*
D11*
%TO.P,J15,2,Pin_2_2*%
%TO.N,GND*%
X235000000Y-134460000D03*
%TO.P,J15,3,Pin_3_3*%
%TO.N,/GPIO21*%
X235000000Y-131920000D03*
%TO.P,J15,4,Pin_4_4*%
%TO.N,/GPIO22*%
X235000000Y-129380000D03*
%TD*%
D14*
%TO.P,J17,1,Pin_1_1*%
%TO.N,/GPIO21*%
X166500000Y-96000000D03*
D11*
%TO.P,J17,2,Pin_2_2*%
%TO.N,/GPIO22*%
X166500000Y-98540000D03*
%TD*%
D16*
%TO.P,1W-4.7k1,1*%
%TO.N,/3.3V*%
X216880000Y-116000000D03*
%TO.P,1W-4.7k1,2*%
%TO.N,/GPIO4*%
X224500000Y-116000000D03*
%TD*%
D12*
%TO.P,J8,1,Pin_1_1*%
%TO.N,Net-(J12-Pin_9)*%
X213500000Y-80500000D03*
D13*
%TO.P,J8,2,Pin_2_2*%
%TO.N,Net-(J12-Pin_10)*%
X213500000Y-77960000D03*
%TO.P,J8,3,Pin_3_3*%
%TO.N,Net-(J12-Pin_11)*%
X213500000Y-75420000D03*
%TO.P,J8,4,Pin_4_4*%
%TO.N,Net-(J12-Pin_12)*%
X213500000Y-72880000D03*
%TO.P,J8,5,Pin_5_5*%
%TO.N,unconnected-(J8-Pin_5-Pad5)*%
X213500000Y-70340000D03*
%TO.P,J8,6,Pin_6_6*%
%TO.N,unconnected-(J8-Pin_6-Pad6)*%
X213500000Y-67800000D03*
%TD*%
D12*
%TO.P,J4,1,Pin_1_1*%
%TO.N,/3.3V*%
X187625000Y-47415000D03*
D13*
%TO.P,J4,2,Pin_2_2*%
%TO.N,/GPIO17*%
X187625000Y-49955000D03*
%TO.P,J4,3,Pin_3_3*%
%TO.N,/GPIO16*%
X187625000Y-52495000D03*
%TO.P,J4,4,Pin_4_4*%
%TO.N,GND*%
X187625000Y-55035000D03*
%TD*%
D16*
%TO.P,SDA-4.7k1,1*%
%TO.N,/3.3V*%
X189075000Y-125025000D03*
%TO.P,SDA-4.7k1,2*%
%TO.N,/GPIO21*%
X196695000Y-125025000D03*
%TD*%
D12*
%TO.P,J7,1,Pin_1_1*%
%TO.N,Net-(J11-Pin_9)*%
X213025000Y-57575000D03*
D13*
%TO.P,J7,2,Pin_2_2*%
%TO.N,Net-(J11-Pin_10)*%
X213025000Y-55035000D03*
%TO.P,J7,3,Pin_3_3*%
%TO.N,Net-(J11-Pin_11)*%
X213025000Y-52495000D03*
%TO.P,J7,4,Pin_4_4*%
%TO.N,Net-(J11-Pin_12)*%
X213025000Y-49955000D03*
%TO.P,J7,5,Pin_5_5*%
%TO.N,unconnected-(J7-Pin_5-Pad5)*%
X213025000Y-47415000D03*
%TO.P,J7,6,Pin_6_6*%
%TO.N,unconnected-(J7-Pin_6-Pad6)*%
X213025000Y-44875000D03*
%TD*%
D12*
%TO.P,J18,1,Pin_1_1*%
%TO.N,/3.3V*%
X176620000Y-134960000D03*
D13*
%TO.P,J18,2,Pin_2_2*%
%TO.N,GND*%
X176620000Y-137500000D03*
%TO.P,J18,3,Pin_3_3*%
%TO.N,/GPIO2*%
X174080000Y-134960000D03*
%TO.P,J18,4,Pin_4_4*%
%TO.N,/GPIO12*%
X174080000Y-137500000D03*
%TO.P,J18,5,Pin_5_5*%
%TO.N,/GPIO22*%
X171540000Y-134960000D03*
%TO.P,J18,6,Pin_6_6*%
%TO.N,/GPIO15*%
X171540000Y-137500000D03*
%TO.P,J18,7,Pin_7_7*%
%TO.N,/GPIO26*%
X169000000Y-134960000D03*
%TO.P,J18,8,Pin_8_8*%
%TO.N,/GPIO25*%
X169000000Y-137500000D03*
%TO.P,J18,9,Pin_9_9*%
%TO.N,/ESP32-TX0*%
X166460000Y-134960000D03*
%TO.P,J18,10,Pin_10_10*%
%TO.N,/GPIO35*%
X166460000Y-137500000D03*
%TO.P,J18,11,Pin_11_11*%
%TO.N,/ESP32-RX0*%
X163920000Y-134960000D03*
%TO.P,J18,12,Pin_12_12*%
%TO.N,/EN_ESP32*%
X163920000Y-137500000D03*
%TD*%
D12*
%TO.P,J19,1,Pin_1_1*%
%TO.N,GND*%
X178500000Y-86340000D03*
D13*
%TO.P,J19,2,Pin_2_2*%
X178500000Y-88880000D03*
%TO.P,J19,3,Pin_3_3*%
%TO.N,/3.3V*%
X178500000Y-91420000D03*
%TO.P,J19,4,Pin_4_4*%
X178500000Y-93960000D03*
%TO.P,J19,5,Pin_5_5*%
%TO.N,/GPIO21*%
X178500000Y-96500000D03*
%TO.P,J19,6,Pin_6_6*%
%TO.N,/GPIO22*%
X178500000Y-99040000D03*
%TD*%
D14*
%TO.P,J6,1,Pin_1_1*%
%TO.N,/3.3V*%
X166000000Y-45000000D03*
D11*
%TO.P,J6,2,Pin_2_2*%
%TO.N,GND*%
X166000000Y-47540000D03*
%TO.P,J6,3,Pin_3_3*%
X166000000Y-50080000D03*
%TO.P,J6,4,Pin_4_4*%
%TO.N,/GPIO14*%
X166000000Y-52620000D03*
%TO.P,J6,5,Pin_5_5*%
%TO.N,/GPIO13*%
X166000000Y-55160000D03*
%TO.P,J6,6,Pin_6_6*%
%TO.N,/GPIO34*%
X166000000Y-57700000D03*
%TD*%
D12*
%TO.P,J3,1,Pin_1_1*%
%TO.N,/3.3V*%
X188100000Y-70340000D03*
D13*
%TO.P,J3,2,Pin_2_2*%
%TO.N,/GPIO33*%
X188100000Y-72880000D03*
%TO.P,J3,3,Pin_3_3*%
%TO.N,/GPIO32*%
X188100000Y-75420000D03*
%TO.P,J3,4,Pin_4_4*%
%TO.N,GND*%
X188100000Y-77960000D03*
%TD*%
D12*
%TO.P,J2,1,Pin_1_1*%
%TO.N,unconnected-(J2-Pin_1-Pad1)*%
X210100000Y-97700000D03*
D13*
%TO.P,J2,2,Pin_2_2*%
%TO.N,GND*%
X210100000Y-100240000D03*
%TO.P,J2,3,Pin_3_3*%
%TO.N,/GPIO13*%
X210100000Y-102780000D03*
%TO.P,J2,4,Pin_4_4*%
%TO.N,/GPIO12*%
X210100000Y-105320000D03*
%TO.P,J2,5,Pin_5_5*%
%TO.N,/GPIO14*%
X210100000Y-107860000D03*
%TO.P,J2,6,Pin_6_6*%
%TO.N,/GPIO27*%
X210100000Y-110400000D03*
%TO.P,J2,7,Pin_7_7*%
%TO.N,/GPIO26*%
X210100000Y-112940000D03*
%TO.P,J2,8,Pin_8_8*%
%TO.N,/GPIO25*%
X210100000Y-115480000D03*
%TO.P,J2,9,Pin_9_9*%
%TO.N,/GPIO33*%
X210100000Y-118020000D03*
%TO.P,J2,10,Pin_10_10*%
%TO.N,/GPIO32*%
X210100000Y-120560000D03*
%TO.P,J2,11,Pin_11_11*%
%TO.N,/GPIO35*%
X210100000Y-123100000D03*
%TO.P,J2,12,Pin_12_12*%
%TO.N,/GPIO34*%
X210100000Y-125640000D03*
%TO.P,J2,13,Pin_13_13*%
%TO.N,unconnected-(J2-Pin_13-Pad13)*%
X210100000Y-128180000D03*
%TO.P,J2,14,Pin_14_14*%
%TO.N,unconnected-(J2-Pin_14-Pad14)*%
X210100000Y-130720000D03*
%TO.P,J2,15,Pin_15_15*%
%TO.N,/EN_ESP32*%
X210100000Y-133260000D03*
%TD*%
D12*
%TO.P,SW1,1,1_1*%
%TO.N,GND*%
X227500000Y-92960000D03*
D13*
%TO.P,SW1,2,2_2*%
%TO.N,/GPIO27*%
X227500000Y-95500000D03*
%TD*%
D17*
%TO.N,GND*%
X210000000Y-43500000D03*
X162000000Y-81000000D03*
X179500000Y-82500000D03*
X192000000Y-51500000D03*
X184000000Y-71500000D03*
X232000000Y-105500000D03*
X226500000Y-104000000D03*
X188000000Y-81500000D03*
X162500000Y-139000000D03*
X191500000Y-66500000D03*
X184000000Y-49500000D03*
X196500000Y-101500000D03*
X163500000Y-131500000D03*
X187000000Y-100500000D03*
X210500000Y-66500000D03*
X216500000Y-60000000D03*
X210000000Y-92000000D03*
X210500000Y-71500000D03*
X184000000Y-86500000D03*
X187000000Y-102000000D03*
X225000000Y-64000000D03*
X196000000Y-92000000D03*
X213000000Y-137500000D03*
X229500000Y-139000000D03*
X162500000Y-61000000D03*
X171000000Y-59500000D03*
X210000000Y-60500000D03*
X216000000Y-131500000D03*
X180500000Y-100000000D03*
X196500000Y-79000000D03*
X217000000Y-67500000D03*
X180500000Y-70500000D03*
X230000000Y-70500000D03*
X162500000Y-42000000D03*
X168500000Y-71500000D03*
X183500000Y-42000000D03*
X206000000Y-102000000D03*
X186729047Y-77189184D03*
X167500000Y-81500000D03*
X184000000Y-65000000D03*
X212500000Y-100500000D03*
X168500000Y-69000000D03*
X176500000Y-89000000D03*
X230500000Y-59500000D03*
X217500000Y-71500000D03*
X180500000Y-76500000D03*
X172500000Y-87500000D03*
X239500000Y-126500000D03*
X217000000Y-82000000D03*
X213000000Y-131500000D03*
X174000000Y-82000000D03*
X162000000Y-91000000D03*
X170500000Y-76500000D03*
X214500000Y-139000000D03*
X184500000Y-79000000D03*
X166000000Y-122500000D03*
X195500000Y-74500000D03*
X188000000Y-88500000D03*
X230000000Y-127000000D03*
X162000000Y-125500000D03*
X189500000Y-43000000D03*
X170500000Y-74000000D03*
X180500000Y-65500000D03*
X239500000Y-66000000D03*
X230500000Y-84000000D03*
X176000000Y-86500000D03*
X181000000Y-89500000D03*
X239500000Y-41500000D03*
X184500000Y-56500000D03*
X166500000Y-125500000D03*
%TO.N,/GPIO16*%
X182021200Y-105063100D03*
X185276600Y-53162100D03*
%TO.N,/GPIO21*%
X212882000Y-123890900D03*
%TO.N,/GPIO13*%
X198030000Y-84993700D03*
%TO.N,/GPIO34*%
X164155000Y-59054700D03*
X188241500Y-94101100D03*
%TO.N,/GPIO12*%
X191114400Y-107171500D03*
%TD*%
%TO.N,Net-(J12-Pin_1)*%
D18*
X235000000Y-100460000D02*
X235000000Y-103000000D01*
%TO.N,Net-(J12-Pin_3)*%
X235000000Y-95380000D02*
X235000000Y-97920000D01*
%TO.N,Net-(J12-Pin_5)*%
X235000000Y-90300000D02*
X235000000Y-92840000D01*
%TO.N,Net-(J12-Pin_7)*%
X235000000Y-85220000D02*
X235000000Y-87760000D01*
%TO.N,GND*%
D19*
X213000000Y-137500000D02*
X215625000Y-137500000D01*
X215625000Y-137500000D02*
X218585000Y-134540000D01*
X218585000Y-134540000D02*
X218585000Y-134125000D01*
%TO.N,/GPIO4*%
D18*
X235000000Y-108420000D02*
X236378800Y-109798800D01*
X236378800Y-109798800D02*
X236378800Y-117541200D01*
X236378800Y-117541200D02*
X235000000Y-118920000D01*
%TO.N,/GPIO15*%
X170270000Y-117771400D02*
X184700000Y-103341400D01*
X171540000Y-137500000D02*
X170270000Y-136230000D01*
X170270000Y-136230000D02*
X170270000Y-117771400D01*
X184700000Y-103341400D02*
X184700000Y-102780000D01*
%TO.N,/GPIO2*%
X182883500Y-107136500D02*
X182883500Y-126156500D01*
X184700000Y-105320000D02*
X182883500Y-107136500D01*
X182883500Y-126156500D02*
X174080000Y-134960000D01*
%TO.N,/GPIO16*%
X182021200Y-56417500D02*
X182021200Y-105063100D01*
X185276600Y-53162100D02*
X182021200Y-56417500D01*
%TO.N,/GPIO17*%
X186014900Y-111625200D02*
X186014800Y-111625200D01*
X186014900Y-51565100D02*
X186014900Y-111625200D01*
X186014800Y-111625200D02*
X184700000Y-112940000D01*
X187625000Y-49955000D02*
X186014900Y-51565100D01*
%TO.N,/GPIO21*%
X214270800Y-127270800D02*
X221125000Y-134125000D01*
X214270800Y-123890900D02*
X212882000Y-123890900D01*
X194770000Y-123100000D02*
X196695000Y-125025000D01*
X214270800Y-98309200D02*
X214270800Y-123890900D01*
X214270800Y-123890900D02*
X214270800Y-127270800D01*
X215500000Y-97080000D02*
X214270800Y-98309200D01*
X184700000Y-123100000D02*
X194770000Y-123100000D01*
%TO.N,/GPIO22*%
X215500000Y-125960000D02*
X215500000Y-99620000D01*
X223665000Y-134125000D02*
X215500000Y-125960000D01*
%TO.N,/GPIO23*%
X167730000Y-122190000D02*
X167730000Y-135504800D01*
X168498500Y-136273300D02*
X169556000Y-136273300D01*
X164000000Y-118460000D02*
X167730000Y-122190000D01*
X170270000Y-136987300D02*
X170270000Y-137964900D01*
X167730000Y-135504800D02*
X168498500Y-136273300D01*
X171047400Y-138742300D02*
X179217700Y-138742300D01*
X170270000Y-137964900D02*
X171047400Y-138742300D01*
X179217700Y-138742300D02*
X184700000Y-133260000D01*
X169556000Y-136273300D02*
X170270000Y-136987300D01*
%TO.N,Net-(J11-Pin_1)*%
X235000000Y-68120000D02*
X235000000Y-70660000D01*
%TO.N,Net-(J11-Pin_3)*%
X235000000Y-63040000D02*
X235000000Y-65580000D01*
%TO.N,Net-(J11-Pin_5)*%
X235000000Y-57960000D02*
X235000000Y-60500000D01*
%TO.N,Net-(J11-Pin_7)*%
X235000000Y-52880000D02*
X235000000Y-55420000D01*
%TO.N,/GPIO14*%
X164564600Y-54055400D02*
X166000000Y-52620000D01*
X164564600Y-71184600D02*
X164564600Y-59602200D01*
X164564600Y-58507200D02*
X164564600Y-54055400D01*
X164564600Y-59602200D02*
X164831700Y-59335100D01*
X164831700Y-59335100D02*
X164831700Y-58774300D01*
X164831700Y-58774300D02*
X164564600Y-58507200D01*
X166000000Y-72620000D02*
X164564600Y-71184600D01*
%TO.N,/GPIO13*%
X166000000Y-55160000D02*
X167401600Y-56561600D01*
X210100000Y-102780000D02*
X198030000Y-90710000D01*
X198030000Y-90710000D02*
X198030000Y-84993700D01*
X167401600Y-56561600D02*
X167401600Y-73758400D01*
X167401600Y-73758400D02*
X166000000Y-75160000D01*
%TO.N,/GPIO34*%
X188241500Y-103341600D02*
X188241500Y-94101100D01*
X210100000Y-125640000D02*
X210100000Y-125200100D01*
X164059700Y-59150000D02*
X164059700Y-75759700D01*
X164155000Y-59054700D02*
X164059700Y-59150000D01*
X164059700Y-75759700D02*
X166000000Y-77700000D01*
X210100000Y-125200100D02*
X188241500Y-103341600D01*
%TO.N,/GPIO12*%
X191114400Y-107171500D02*
X191114400Y-115969300D01*
X177587000Y-136229900D02*
X175350000Y-136229900D01*
X191114400Y-115969300D02*
X185253700Y-121830000D01*
X183458300Y-122574300D02*
X183458300Y-130358600D01*
X175350000Y-136229900D02*
X175350000Y-136230000D01*
X183458300Y-130358600D02*
X177587000Y-136229900D01*
X175350000Y-136230000D02*
X174080000Y-137500000D01*
X185253700Y-121830000D02*
X184202600Y-121830000D01*
X184202600Y-121830000D02*
X183458300Y-122574300D01*
%TO.N,/GPIO35*%
X166460000Y-137500000D02*
X168202300Y-139242300D01*
X209592588Y-126865000D02*
X210607412Y-126865000D01*
X210607412Y-126865000D02*
X211325000Y-126147412D01*
X197215288Y-139242300D02*
X209592588Y-126865000D01*
X211325000Y-124325000D02*
X210100000Y-123100000D01*
X211325000Y-126147412D02*
X211325000Y-124325000D01*
X168202300Y-139242300D02*
X197215288Y-139242300D01*
%TO.N,/GPIO33*%
X193821300Y-78601300D02*
X188100000Y-72880000D01*
X210100000Y-118020000D02*
X193821300Y-101741300D01*
X193821300Y-101741300D02*
X193821300Y-78601300D01*
%TO.N,/GPIO32*%
X189414800Y-76734800D02*
X188100000Y-75420000D01*
X210100000Y-120560000D02*
X189414800Y-99874800D01*
X189414800Y-99874800D02*
X189414800Y-76734800D01*
%TO.N,/3.3V*%
D19*
X217101700Y-96141700D02*
X217101700Y-115778300D01*
X189075000Y-125025000D02*
X189075000Y-129075000D01*
X236758200Y-135241800D02*
X236758200Y-125758200D01*
X236758200Y-125758200D02*
X235000000Y-124000000D01*
X217101700Y-115778300D02*
X216880000Y-116000000D01*
X189234700Y-49024700D02*
X189234700Y-67603600D01*
X187625000Y-47415000D02*
X189234700Y-49024700D01*
X178500000Y-93960000D02*
X178500000Y-91420000D01*
X235000000Y-137000000D02*
X236758200Y-135241800D01*
X189234700Y-67603600D02*
X188100000Y-68738300D01*
X166000000Y-67540000D02*
X166000000Y-65000000D01*
X188100000Y-70340000D02*
X188100000Y-68738300D01*
X215500000Y-94540000D02*
X217101700Y-96141700D01*
%TD*%
%TA.AperFunction,Conductor*%
%TO.N,GND*%
G36*
X240442539Y-40520185D02*
G01*
X240488294Y-40572989D01*
X240499500Y-40624500D01*
X240499500Y-139375500D01*
X240479815Y-139442539D01*
X240427011Y-139488294D01*
X240375500Y-139499500D01*
X212124000Y-139499500D01*
X212056961Y-139479815D01*
X212011206Y-139427011D01*
X212000000Y-139375500D01*
X212000000Y-124420529D01*
X212019685Y-124353490D01*
X212072489Y-124307735D01*
X212141647Y-124297791D01*
X212205203Y-124326816D01*
X212227102Y-124351639D01*
X212260207Y-124401184D01*
X212260213Y-124401192D01*
X212371707Y-124512686D01*
X212371711Y-124512689D01*
X212502814Y-124600290D01*
X212502827Y-124600297D01*
X212599646Y-124640400D01*
X212648503Y-124660637D01*
X212803153Y-124691399D01*
X212803156Y-124691400D01*
X212803158Y-124691400D01*
X212960844Y-124691400D01*
X212960845Y-124691399D01*
X213115497Y-124660637D01*
X213261179Y-124600294D01*
X213355459Y-124537298D01*
X213373505Y-124531647D01*
X213389415Y-124521423D01*
X213420374Y-124516971D01*
X213422136Y-124516420D01*
X213424350Y-124516400D01*
X213521300Y-124516400D01*
X213588339Y-124536085D01*
X213634094Y-124588889D01*
X213645300Y-124640400D01*
X213645300Y-127332411D01*
X213669335Y-127453244D01*
X213669340Y-127453261D01*
X213716485Y-127567080D01*
X213716487Y-127567083D01*
X213716488Y-127567086D01*
X213750715Y-127618309D01*
X213784942Y-127669533D01*
X213872067Y-127756658D01*
X213872069Y-127756659D01*
X213882032Y-127766622D01*
X218530935Y-132415526D01*
X218564420Y-132476849D01*
X218559436Y-132546541D01*
X218517564Y-132602474D01*
X218462652Y-132625680D01*
X218233752Y-132661934D01*
X218009197Y-132734897D01*
X217798830Y-132842084D01*
X217715894Y-132902340D01*
X218373941Y-133560387D01*
X218353409Y-133565889D01*
X218216592Y-133644881D01*
X218104881Y-133756592D01*
X218025889Y-133893409D01*
X218020387Y-133913940D01*
X217581818Y-133475371D01*
X217548333Y-133414048D01*
X217545499Y-133387690D01*
X217545499Y-133324998D01*
X217545498Y-133324981D01*
X217534999Y-133222203D01*
X217534998Y-133222200D01*
X217528749Y-133203343D01*
X217479814Y-133055666D01*
X217387712Y-132906344D01*
X217263656Y-132782288D01*
X217140675Y-132706433D01*
X217114336Y-132690187D01*
X217114331Y-132690185D01*
X217085692Y-132680695D01*
X216947797Y-132635001D01*
X216947795Y-132635000D01*
X216845010Y-132624500D01*
X215244998Y-132624500D01*
X215244981Y-132624501D01*
X215142203Y-132635000D01*
X215142200Y-132635001D01*
X214975668Y-132690185D01*
X214975663Y-132690187D01*
X214826342Y-132782289D01*
X214702289Y-132906342D01*
X214610187Y-133055663D01*
X214610186Y-133055666D01*
X214555001Y-133222203D01*
X214555001Y-133222204D01*
X214555000Y-133222204D01*
X214544500Y-133324983D01*
X214544500Y-134925001D01*
X214544501Y-134925018D01*
X214555000Y-135027796D01*
X214555001Y-135027799D01*
X214579759Y-135102512D01*
X214610186Y-135194334D01*
X214702288Y-135343656D01*
X214826344Y-135467712D01*
X214975666Y-135559814D01*
X215142203Y-135614999D01*
X215244991Y-135625500D01*
X216845008Y-135625499D01*
X216947797Y-135614999D01*
X217114334Y-135559814D01*
X217263656Y-135467712D01*
X217387712Y-135343656D01*
X217479814Y-135194334D01*
X217534999Y-135027797D01*
X217545500Y-134925009D01*
X217545499Y-134862305D01*
X217565183Y-134795269D01*
X217581818Y-134774626D01*
X218020387Y-134336058D01*
X218025889Y-134356591D01*
X218104881Y-134493408D01*
X218216592Y-134605119D01*
X218353409Y-134684111D01*
X218373940Y-134689612D01*
X217715893Y-135347658D01*
X217798828Y-135407914D01*
X218009197Y-135515102D01*
X218233752Y-135588065D01*
X218233751Y-135588065D01*
X218466948Y-135625000D01*
X218703052Y-135625000D01*
X218936247Y-135588065D01*
X219160802Y-135515102D01*
X219371163Y-135407918D01*
X219371169Y-135407914D01*
X219454104Y-135347658D01*
X219454105Y-135347658D01*
X218796058Y-134689612D01*
X218816591Y-134684111D01*
X218953408Y-134605119D01*
X219065119Y-134493408D01*
X219144111Y-134356591D01*
X219149612Y-134336058D01*
X219807657Y-134994104D01*
X219827404Y-134992550D01*
X219895781Y-135006914D01*
X219937451Y-135043282D01*
X219980483Y-135102510D01*
X220147490Y-135269517D01*
X220338567Y-135408343D01*
X220437991Y-135459002D01*
X220549003Y-135515566D01*
X220549005Y-135515566D01*
X220549008Y-135515568D01*
X220669412Y-135554689D01*
X220773631Y-135588553D01*
X221006903Y-135625500D01*
X221006908Y-135625500D01*
X221243097Y-135625500D01*
X221476368Y-135588553D01*
X221485764Y-135585500D01*
X221700992Y-135515568D01*
X221911433Y-135408343D01*
X222102510Y-135269517D01*
X222269517Y-135102510D01*
X222294682Y-135067872D01*
X222350011Y-135025207D01*
X222419625Y-135019228D01*
X222481420Y-135051833D01*
X222495315Y-135067870D01*
X222520483Y-135102510D01*
X222687490Y-135269517D01*
X222878567Y-135408343D01*
X222977991Y-135459002D01*
X223089003Y-135515566D01*
X223089005Y-135515566D01*
X223089008Y-135515568D01*
X223209412Y-135554689D01*
X223313631Y-135588553D01*
X223546903Y-135625500D01*
X223546908Y-135625500D01*
X223783097Y-135625500D01*
X224016368Y-135588553D01*
X224025764Y-135585500D01*
X224240992Y-135515568D01*
X224451433Y-135408343D01*
X224642510Y-135269517D01*
X224809517Y-135102510D01*
X224948343Y-134911433D01*
X225055568Y-134700992D01*
X225128553Y-134476368D01*
X225153688Y-134317677D01*
X225153688Y-134317676D01*
X225165500Y-134243098D01*
X225165500Y-134006902D01*
X225128553Y-133773631D01*
X225092471Y-133662584D01*
X225055568Y-133549008D01*
X225055566Y-133549005D01*
X225055566Y-133549003D01*
X224973372Y-133387690D01*
X224948343Y-133338567D01*
X224809517Y-133147490D01*
X224642510Y-132980483D01*
X224451433Y-132841657D01*
X224240996Y-132734433D01*
X224016368Y-132661446D01*
X223783097Y-132624500D01*
X223783092Y-132624500D01*
X223546908Y-132624500D01*
X223546903Y-132624500D01*
X223313630Y-132661447D01*
X223214119Y-132693780D01*
X223144277Y-132695775D01*
X223088120Y-132663530D01*
X216161819Y-125737229D01*
X216128334Y-125675906D01*
X216125500Y-125649548D01*
X216125500Y-123378711D01*
X216869500Y-123378711D01*
X216869500Y-123621288D01*
X216901161Y-123861785D01*
X216963947Y-124096104D01*
X216997779Y-124177781D01*
X217056776Y-124320212D01*
X217178064Y-124530289D01*
X217178066Y-124530292D01*
X217178067Y-124530293D01*
X217325733Y-124722736D01*
X217325739Y-124722743D01*
X217497256Y-124894260D01*
X217497263Y-124894266D01*
X217544757Y-124930709D01*
X217689711Y-125041936D01*
X217899788Y-125163224D01*
X218123900Y-125256054D01*
X218358211Y-125318838D01*
X218538586Y-125342584D01*
X218598711Y-125350500D01*
X218598712Y-125350500D01*
X218841289Y-125350500D01*
X218900460Y-125342710D01*
X219081789Y-125318838D01*
X219316100Y-125256054D01*
X219540212Y-125163224D01*
X219750289Y-125041936D01*
X219942738Y-124894265D01*
X220114265Y-124722738D01*
X220261936Y-124530289D01*
X220383224Y-124320212D01*
X220476054Y-124096100D01*
X220538838Y-123861789D01*
X220570500Y-123621288D01*
X220570500Y-123378712D01*
X220538838Y-123138211D01*
X220476054Y-122903900D01*
X220383224Y-122679788D01*
X220261936Y-122469711D01*
X220156888Y-122332809D01*
X220114266Y-122277263D01*
X220114260Y-122277256D01*
X219942743Y-122105739D01*
X219942736Y-122105733D01*
X219750293Y-121958067D01*
X219750292Y-121958066D01*
X219750289Y-121958064D01*
X219540212Y-121836776D01*
X219540205Y-121836773D01*
X219316104Y-121743947D01*
X219081785Y-121681161D01*
X218841289Y-121649500D01*
X218841288Y-121649500D01*
X218598712Y-121649500D01*
X218598711Y-121649500D01*
X218358214Y-121681161D01*
X218123895Y-121743947D01*
X217899794Y-121836773D01*
X217899785Y-121836777D01*
X217689706Y-121958067D01*
X217497263Y-122105733D01*
X217497256Y-122105739D01*
X217325739Y-122277256D01*
X217325733Y-122277263D01*
X217178067Y-122469706D01*
X217178064Y-122469710D01*
X217178064Y-122469711D01*
X217168494Y-122486286D01*
X217056777Y-122679785D01*
X217056773Y-122679794D01*
X216963947Y-122903895D01*
X216901161Y-123138214D01*
X216869500Y-123378711D01*
X216125500Y-123378711D01*
X216125500Y-117277497D01*
X216145185Y-117210458D01*
X216197989Y-117164703D01*
X216267147Y-117154759D01*
X216305796Y-117167013D01*
X216380774Y-117205217D01*
X216380777Y-117205217D01*
X216380781Y-117205220D01*
X216515245Y-117248910D01*
X216575465Y-117268477D01*
X216632415Y-117277497D01*
X216777648Y-117300500D01*
X216777649Y-117300500D01*
X216982351Y-117300500D01*
X216982352Y-117300500D01*
X217184534Y-117268477D01*
X217379219Y-117205220D01*
X217561610Y-117112287D01*
X217701588Y-117010588D01*
X217727213Y-116991971D01*
X217727215Y-116991968D01*
X217727219Y-116991966D01*
X217871966Y-116847219D01*
X217871968Y-116847215D01*
X217871971Y-116847213D01*
X217942599Y-116750000D01*
X217992287Y-116681610D01*
X218085220Y-116499219D01*
X218148477Y-116304534D01*
X218180500Y-116102352D01*
X218180500Y-115897648D01*
X223199500Y-115897648D01*
X223199500Y-116102351D01*
X223231522Y-116304534D01*
X223294781Y-116499223D01*
X223358691Y-116624653D01*
X223363989Y-116635050D01*
X223387715Y-116681613D01*
X223508028Y-116847213D01*
X223652786Y-116991971D01*
X223768516Y-117076052D01*
X223818390Y-117112287D01*
X223901746Y-117154759D01*
X224000776Y-117205218D01*
X224000778Y-117205218D01*
X224000781Y-117205220D01*
X224079342Y-117230746D01*
X224195465Y-117268477D01*
X224252415Y-117277497D01*
X224397648Y-117300500D01*
X224397649Y-117300500D01*
X224602351Y-117300500D01*
X224602352Y-117300500D01*
X224804534Y-117268477D01*
X224999219Y-117205220D01*
X225181610Y-117112287D01*
X225321588Y-117010588D01*
X225347213Y-116991971D01*
X225347215Y-116991968D01*
X225347219Y-116991966D01*
X225491966Y-116847219D01*
X225491968Y-116847215D01*
X225491971Y-116847213D01*
X225562599Y-116750000D01*
X225612287Y-116681610D01*
X225705220Y-116499219D01*
X225768477Y-116304534D01*
X225800500Y-116102352D01*
X225800500Y-115897648D01*
X225768477Y-115695466D01*
X225740150Y-115608286D01*
X225722053Y-115552587D01*
X225705220Y-115500781D01*
X225705218Y-115500778D01*
X225705218Y-115500776D01*
X225671503Y-115434607D01*
X225612287Y-115318390D01*
X225604556Y-115307749D01*
X225491971Y-115152786D01*
X225347213Y-115008028D01*
X225181613Y-114887715D01*
X225181612Y-114887714D01*
X225181610Y-114887713D01*
X225093287Y-114842710D01*
X224999223Y-114794781D01*
X224804534Y-114731522D01*
X224629995Y-114703878D01*
X224602352Y-114699500D01*
X224397648Y-114699500D01*
X224373329Y-114703351D01*
X224195465Y-114731522D01*
X224000776Y-114794781D01*
X223818386Y-114887715D01*
X223652786Y-115008028D01*
X223508028Y-115152786D01*
X223387715Y-115318386D01*
X223294781Y-115500776D01*
X223231522Y-115695465D01*
X223199500Y-115897648D01*
X218180500Y-115897648D01*
X218148477Y-115695466D01*
X218108268Y-115571717D01*
X218102200Y-115533400D01*
X218102200Y-108301902D01*
X233499500Y-108301902D01*
X233499500Y-108538097D01*
X233536446Y-108771368D01*
X233609433Y-108995996D01*
X233716657Y-109206433D01*
X233855483Y-109397510D01*
X234022490Y-109564517D01*
X234081716Y-109607547D01*
X234124381Y-109662875D01*
X234132448Y-109717593D01*
X234130893Y-109737340D01*
X234788940Y-110395387D01*
X234768409Y-110400889D01*
X234631592Y-110479881D01*
X234519881Y-110591592D01*
X234440889Y-110728409D01*
X234435387Y-110748941D01*
X233777340Y-110090894D01*
X233717084Y-110173830D01*
X233609897Y-110384197D01*
X233536934Y-110608752D01*
X233500000Y-110841947D01*
X233500000Y-111078052D01*
X233536934Y-111311247D01*
X233609897Y-111535802D01*
X233717087Y-111746174D01*
X233777338Y-111829104D01*
X233777340Y-111829105D01*
X234435387Y-111171058D01*
X234440889Y-111191591D01*
X234519881Y-111328408D01*
X234631592Y-111440119D01*
X234768409Y-111519111D01*
X234788939Y-111524612D01*
X234350371Y-111963181D01*
X234289048Y-111996666D01*
X234262692Y-111999500D01*
X234199999Y-111999500D01*
X234199980Y-111999501D01*
X234097203Y-112010000D01*
X234097200Y-112010001D01*
X233930668Y-112065185D01*
X233930663Y-112065187D01*
X233781342Y-112157289D01*
X233657289Y-112281342D01*
X233565187Y-112430663D01*
X233565185Y-112430668D01*
X233542142Y-112500208D01*
X233510001Y-112597203D01*
X233510001Y-112597204D01*
X233510000Y-112597204D01*
X233499500Y-112699983D01*
X233499500Y-114300001D01*
X233499501Y-114300018D01*
X233510000Y-114402796D01*
X233510001Y-114402799D01*
X233555305Y-114539516D01*
X233565186Y-114569334D01*
X233657288Y-114718656D01*
X233781344Y-114842712D01*
X233930666Y-114934814D01*
X234097203Y-114989999D01*
X234199991Y-115000500D01*
X235629300Y-115000499D01*
X235696339Y-115020184D01*
X235742094Y-115072987D01*
X235753300Y-115124499D01*
X235753300Y-117230746D01*
X235744655Y-117260186D01*
X235738132Y-117290173D01*
X235734377Y-117295188D01*
X235733615Y-117297785D01*
X235716981Y-117318428D01*
X235576878Y-117458530D01*
X235515555Y-117492014D01*
X235450880Y-117488779D01*
X235351370Y-117456447D01*
X235351371Y-117456447D01*
X235118097Y-117419500D01*
X235118092Y-117419500D01*
X234881908Y-117419500D01*
X234881903Y-117419500D01*
X234648631Y-117456446D01*
X234424003Y-117529433D01*
X234213566Y-117636657D01*
X234142682Y-117688158D01*
X234022490Y-117775483D01*
X234022488Y-117775485D01*
X234022487Y-117775485D01*
X233855485Y-117942487D01*
X233855485Y-117942488D01*
X233855483Y-117942490D01*
X233802937Y-118014813D01*
X233716657Y-118133566D01*
X233609433Y-118344003D01*
X233536446Y-118568631D01*
X233499500Y-118801902D01*
X233499500Y-119038097D01*
X233536446Y-119271368D01*
X233609433Y-119495996D01*
X233677418Y-119629423D01*
X233716657Y-119706433D01*
X233855483Y-119897510D01*
X234022490Y-120064517D01*
X234081716Y-120107547D01*
X234124381Y-120162875D01*
X234132448Y-120217593D01*
X234130893Y-120237340D01*
X234788941Y-120895387D01*
X234768409Y-120900889D01*
X234631592Y-120979881D01*
X234519881Y-121091592D01*
X234440889Y-121228409D01*
X234435387Y-121248941D01*
X233777340Y-120590894D01*
X233717084Y-120673830D01*
X233609897Y-120884197D01*
X233536934Y-121108752D01*
X233500000Y-121341947D01*
X233500000Y-121578052D01*
X233536934Y-121811247D01*
X233609897Y-122035802D01*
X233717087Y-122246174D01*
X233777338Y-122329104D01*
X233777340Y-122329105D01*
X234435387Y-121671058D01*
X234440889Y-121691591D01*
X234519881Y-121828408D01*
X234631592Y-121940119D01*
X234768409Y-122019111D01*
X234788940Y-122024612D01*
X234350371Y-122463181D01*
X234289048Y-122496666D01*
X234262692Y-122499500D01*
X234199999Y-122499500D01*
X234199980Y-122499501D01*
X234097203Y-122510000D01*
X234097200Y-122510001D01*
X233930668Y-122565185D01*
X233930663Y-122565187D01*
X233781342Y-122657289D01*
X233657289Y-122781342D01*
X233565187Y-122930663D01*
X233565186Y-122930666D01*
X233510001Y-123097203D01*
X233510001Y-123097204D01*
X233510000Y-123097204D01*
X233499500Y-123199983D01*
X233499500Y-124800001D01*
X233499501Y-124800018D01*
X233510000Y-124902796D01*
X233510001Y-124902799D01*
X233556106Y-125041932D01*
X233565186Y-125069334D01*
X233657288Y-125218656D01*
X233781344Y-125342712D01*
X233930666Y-125434814D01*
X234097203Y-125489999D01*
X234199991Y-125500500D01*
X235034216Y-125500499D01*
X235101255Y-125520183D01*
X235121897Y-125536818D01*
X235721381Y-126136301D01*
X235754866Y-126197624D01*
X235757700Y-126223982D01*
X235757700Y-127879666D01*
X235738015Y-127946705D01*
X235685211Y-127992460D01*
X235616053Y-128002404D01*
X235580561Y-127991153D01*
X235580501Y-127991299D01*
X235578805Y-127990596D01*
X235577418Y-127990157D01*
X235576002Y-127989436D01*
X235575996Y-127989434D01*
X235575992Y-127989432D01*
X235479672Y-127958135D01*
X235351368Y-127916446D01*
X235118097Y-127879500D01*
X235118092Y-127879500D01*
X234881908Y-127879500D01*
X234881903Y-127879500D01*
X234648631Y-127916446D01*
X234424003Y-127989433D01*
X234213566Y-128096657D01*
X234104550Y-128175862D01*
X234022490Y-128235483D01*
X234022488Y-128235485D01*
X234022487Y-128235485D01*
X233855485Y-128402487D01*
X233855485Y-128402488D01*
X233855483Y-128402490D01*
X233795862Y-128484550D01*
X233716657Y-128593566D01*
X233609433Y-128804003D01*
X233536446Y-129028631D01*
X233499500Y-129261902D01*
X233499500Y-129498097D01*
X233536446Y-129731368D01*
X233609433Y-129955996D01*
X233665976Y-130066966D01*
X233716657Y-130166433D01*
X233855483Y-130357510D01*
X234022490Y-130524517D01*
X234057127Y-130549683D01*
X234099792Y-130605013D01*
X234105771Y-130674626D01*
X234073165Y-130736421D01*
X234057130Y-130750315D01*
X234039365Y-130763222D01*
X234022488Y-130775484D01*
X233855485Y-130942487D01*
X233855485Y-130942488D01*
X233855483Y-130942490D01*
X233795862Y-131024550D01*
X233716657Y-131133566D01*
X233609433Y-131344003D01*
X233536446Y-131568631D01*
X233499500Y-131801902D01*
X233499500Y-132038097D01*
X233536446Y-132271368D01*
X233609433Y-132495996D01*
X233703543Y-132680695D01*
X233716657Y-132706433D01*
X233855483Y-132897510D01*
X234022490Y-133064517D01*
X234081716Y-133107547D01*
X234124381Y-133162875D01*
X234132448Y-133217593D01*
X234130893Y-133237340D01*
X234788940Y-133895387D01*
X234768409Y-133900889D01*
X234631592Y-133979881D01*
X234519881Y-134091592D01*
X234440889Y-134228409D01*
X234435387Y-134248941D01*
X233777340Y-133590894D01*
X233717084Y-133673830D01*
X233609897Y-133884197D01*
X233536934Y-134108752D01*
X233500000Y-134341947D01*
X233500000Y-134578052D01*
X233536934Y-134811247D01*
X233609897Y-135035802D01*
X233717087Y-135246174D01*
X233777338Y-135329104D01*
X233777340Y-135329105D01*
X234435387Y-134671058D01*
X234440889Y-134691591D01*
X234519881Y-134828408D01*
X234631592Y-134940119D01*
X234768409Y-135019111D01*
X234788939Y-135024612D01*
X234350371Y-135463181D01*
X234289048Y-135496666D01*
X234262692Y-135499500D01*
X234199999Y-135499500D01*
X234199980Y-135499501D01*
X234097203Y-135510000D01*
X234097200Y-135510001D01*
X233930668Y-135565185D01*
X233930663Y-135565187D01*
X233781342Y-135657289D01*
X233657289Y-135781342D01*
X233565187Y-135930663D01*
X233565185Y-135930668D01*
X233544224Y-135993924D01*
X233510001Y-136097203D01*
X233510001Y-136097204D01*
X233510000Y-136097204D01*
X233499500Y-136199983D01*
X233499500Y-137800001D01*
X233499501Y-137800018D01*
X233510000Y-137902796D01*
X233510001Y-137902799D01*
X233533977Y-137975153D01*
X233565186Y-138069334D01*
X233657288Y-138218656D01*
X233781344Y-138342712D01*
X233930666Y-138434814D01*
X234097203Y-138489999D01*
X234199991Y-138500500D01*
X235800008Y-138500499D01*
X235902797Y-138489999D01*
X236069334Y-138434814D01*
X236218656Y-138342712D01*
X236342712Y-138218656D01*
X236434814Y-138069334D01*
X236489999Y-137902797D01*
X236500500Y-137800009D01*
X236500499Y-136965782D01*
X236520183Y-136898744D01*
X236536818Y-136878102D01*
X237535336Y-135879585D01*
X237535336Y-135879584D01*
X237535339Y-135879582D01*
X237596904Y-135787443D01*
X237644832Y-135715714D01*
X237698768Y-135585500D01*
X237720251Y-135533636D01*
X237745173Y-135408343D01*
X237756850Y-135349640D01*
X237758700Y-135340342D01*
X237758700Y-125659656D01*
X237734265Y-125536818D01*
X237727041Y-125500499D01*
X237720251Y-125466364D01*
X237685534Y-125382551D01*
X237644832Y-125284286D01*
X237600980Y-125218657D01*
X237535340Y-125120419D01*
X237484252Y-125069331D01*
X237395982Y-124981061D01*
X237395981Y-124981060D01*
X236951006Y-124536085D01*
X236536818Y-124121897D01*
X236503333Y-124060574D01*
X236500499Y-124034216D01*
X236500499Y-123199998D01*
X236500498Y-123199981D01*
X236489999Y-123097203D01*
X236489998Y-123097200D01*
X236471044Y-123040000D01*
X236434814Y-122930666D01*
X236342712Y-122781344D01*
X236218656Y-122657288D01*
X236069334Y-122565186D01*
X235902797Y-122510001D01*
X235902795Y-122510000D01*
X235800016Y-122499500D01*
X235737308Y-122499500D01*
X235670269Y-122479815D01*
X235649627Y-122463181D01*
X235211059Y-122024612D01*
X235231591Y-122019111D01*
X235368408Y-121940119D01*
X235480119Y-121828408D01*
X235559111Y-121691591D01*
X235564612Y-121671058D01*
X236222658Y-122329105D01*
X236222658Y-122329104D01*
X236282914Y-122246169D01*
X236282918Y-122246163D01*
X236390102Y-122035802D01*
X236463065Y-121811247D01*
X236500000Y-121578052D01*
X236500000Y-121341947D01*
X236463065Y-121108752D01*
X236390102Y-120884197D01*
X236282914Y-120673828D01*
X236222658Y-120590894D01*
X236222658Y-120590893D01*
X235564612Y-121248940D01*
X235559111Y-121228409D01*
X235480119Y-121091592D01*
X235368408Y-120979881D01*
X235231591Y-120900889D01*
X235211059Y-120895387D01*
X235869105Y-120237340D01*
X235867551Y-120217594D01*
X235881915Y-120149216D01*
X235918284Y-120107547D01*
X235977510Y-120064517D01*
X236144517Y-119897510D01*
X236283343Y-119706433D01*
X236390568Y-119495992D01*
X236463553Y-119271368D01*
X236500500Y-119038097D01*
X236500500Y-118801902D01*
X236463553Y-118568631D01*
X236431219Y-118469120D01*
X236429224Y-118399279D01*
X236461466Y-118343123D01*
X236864658Y-117939933D01*
X236933112Y-117837485D01*
X236960732Y-117770803D01*
X236980263Y-117723652D01*
X236997567Y-117636657D01*
X237004301Y-117602806D01*
X237004301Y-117479593D01*
X237004301Y-117474483D01*
X237004300Y-117474457D01*
X237004300Y-109866541D01*
X237004301Y-109866520D01*
X237004301Y-109737191D01*
X236980264Y-109616355D01*
X236980263Y-109616349D01*
X236933112Y-109502515D01*
X236864658Y-109400067D01*
X236864655Y-109400063D01*
X236461469Y-108996878D01*
X236427984Y-108935555D01*
X236431218Y-108870881D01*
X236463553Y-108771368D01*
X236495792Y-108567820D01*
X236500500Y-108538097D01*
X236500500Y-108301902D01*
X236463553Y-108068631D01*
X236390566Y-107844003D01*
X236334002Y-107732991D01*
X236283343Y-107633567D01*
X236144517Y-107442490D01*
X235977510Y-107275483D01*
X235786433Y-107136657D01*
X235575996Y-107029433D01*
X235351368Y-106956446D01*
X235118097Y-106919500D01*
X235118092Y-106919500D01*
X234881908Y-106919500D01*
X234881903Y-106919500D01*
X234648631Y-106956446D01*
X234424003Y-107029433D01*
X234213566Y-107136657D01*
X234104550Y-107215862D01*
X234022490Y-107275483D01*
X234022488Y-107275485D01*
X234022487Y-107275485D01*
X233855485Y-107442487D01*
X233855485Y-107442488D01*
X233855483Y-107442490D01*
X233795862Y-107524550D01*
X233716657Y-107633566D01*
X233609433Y-107844003D01*
X233536446Y-108068631D01*
X233499500Y-108301902D01*
X218102200Y-108301902D01*
X218102200Y-96043156D01*
X218063752Y-95849870D01*
X218063751Y-95849869D01*
X218063751Y-95849865D01*
X218054878Y-95828443D01*
X218049825Y-95816244D01*
X218042594Y-95798788D01*
X218039599Y-95791557D01*
X217988335Y-95667793D01*
X217988334Y-95667792D01*
X217988332Y-95667786D01*
X217956545Y-95620213D01*
X217878839Y-95503917D01*
X217851445Y-95476523D01*
X217768634Y-95393713D01*
X226149500Y-95393713D01*
X226149500Y-95606286D01*
X226182606Y-95815312D01*
X226182754Y-95816243D01*
X226228161Y-95955992D01*
X226248444Y-96018414D01*
X226344951Y-96207820D01*
X226469890Y-96379786D01*
X226620213Y-96530109D01*
X226792179Y-96655048D01*
X226792181Y-96655049D01*
X226792184Y-96655051D01*
X226981588Y-96751557D01*
X227183757Y-96817246D01*
X227393713Y-96850500D01*
X227393714Y-96850500D01*
X227606286Y-96850500D01*
X227606287Y-96850500D01*
X227816243Y-96817246D01*
X228018412Y-96751557D01*
X228207816Y-96655051D01*
X228248662Y-96625375D01*
X228379786Y-96530109D01*
X228379788Y-96530106D01*
X228379792Y-96530104D01*
X228530104Y-96379792D01*
X228530106Y-96379788D01*
X228530109Y-96379786D01*
X228655048Y-96207820D01*
X228655047Y-96207820D01*
X228655051Y-96207816D01*
X228751557Y-96018412D01*
X228817246Y-95816243D01*
X228850500Y-95606287D01*
X228850500Y-95393713D01*
X228817246Y-95183757D01*
X228751557Y-94981588D01*
X228655051Y-94792184D01*
X228655049Y-94792181D01*
X228655048Y-94792179D01*
X228530109Y-94620213D01*
X228416181Y-94506285D01*
X228382696Y-94444962D01*
X228387680Y-94375270D01*
X228429552Y-94319337D01*
X228460529Y-94302422D01*
X228592086Y-94253354D01*
X228592093Y-94253350D01*
X228707187Y-94167190D01*
X228707190Y-94167187D01*
X228793350Y-94052093D01*
X228793354Y-94052086D01*
X228843596Y-93917379D01*
X228843598Y-93917372D01*
X228849999Y-93857844D01*
X228850000Y-93857827D01*
X228850000Y-93210000D01*
X227933012Y-93210000D01*
X227965925Y-93152993D01*
X228000000Y-93025826D01*
X228000000Y-92894174D01*
X227965925Y-92767007D01*
X227933012Y-92710000D01*
X228850000Y-92710000D01*
X228850000Y-92062172D01*
X228849999Y-92062155D01*
X228843598Y-92002627D01*
X228843596Y-92002620D01*
X228793354Y-91867913D01*
X228793350Y-91867906D01*
X228707190Y-91752812D01*
X228707187Y-91752809D01*
X228592093Y-91666649D01*
X228592086Y-91666645D01*
X228457379Y-91616403D01*
X228457372Y-91616401D01*
X228397844Y-91610000D01*
X227750000Y-91610000D01*
X227750000Y-92526988D01*
X227692993Y-92494075D01*
X227565826Y-92460000D01*
X227434174Y-92460000D01*
X227307007Y-92494075D01*
X227250000Y-92526988D01*
X227250000Y-91610000D01*
X226602155Y-91610000D01*
X226542627Y-91616401D01*
X226542620Y-91616403D01*
X226407913Y-91666645D01*
X226407906Y-91666649D01*
X226292812Y-91752809D01*
X226292809Y-91752812D01*
X226206649Y-91867906D01*
X226206645Y-91867913D01*
X226156403Y-92002620D01*
X226156401Y-92002627D01*
X226150000Y-92062155D01*
X226150000Y-92710000D01*
X227066988Y-92710000D01*
X227034075Y-92767007D01*
X227000000Y-92894174D01*
X227000000Y-93025826D01*
X227034075Y-93152993D01*
X227066988Y-93210000D01*
X226150000Y-93210000D01*
X226150000Y-93857844D01*
X226156401Y-93917372D01*
X226156403Y-93917379D01*
X226206645Y-94052086D01*
X226206649Y-94052093D01*
X226292809Y-94167187D01*
X226292812Y-94167190D01*
X226407906Y-94253350D01*
X226407913Y-94253354D01*
X226539470Y-94302422D01*
X226595404Y-94344293D01*
X226619821Y-94409758D01*
X226604969Y-94478031D01*
X226583819Y-94506285D01*
X226469889Y-94620215D01*
X226344951Y-94792179D01*
X226248444Y-94981585D01*
X226182753Y-95183760D01*
X226149500Y-95393713D01*
X217768634Y-95393713D01*
X217739482Y-95364561D01*
X217739478Y-95364558D01*
X216886423Y-94511503D01*
X216852938Y-94450180D01*
X216850657Y-94434708D01*
X216850500Y-94433716D01*
X216850500Y-94433713D01*
X216817246Y-94223757D01*
X216751557Y-94021588D01*
X216655051Y-93832184D01*
X216655049Y-93832181D01*
X216655048Y-93832179D01*
X216530109Y-93660213D01*
X216379786Y-93509890D01*
X216207817Y-93384949D01*
X216198504Y-93380204D01*
X216147707Y-93332230D01*
X216130912Y-93264409D01*
X216153449Y-93198274D01*
X216198507Y-93159232D01*
X216207555Y-93154622D01*
X216261716Y-93115270D01*
X216261717Y-93115270D01*
X215629408Y-92482962D01*
X215692993Y-92465925D01*
X215807007Y-92400099D01*
X215900099Y-92307007D01*
X215965925Y-92192993D01*
X215982962Y-92129408D01*
X216615270Y-92761717D01*
X216615270Y-92761716D01*
X216654622Y-92707554D01*
X216751095Y-92518217D01*
X216816757Y-92316130D01*
X216816757Y-92316127D01*
X216850000Y-92106246D01*
X216850000Y-91893753D01*
X216816757Y-91683872D01*
X216816757Y-91683869D01*
X216751095Y-91481782D01*
X216654624Y-91292449D01*
X216615270Y-91238282D01*
X216615269Y-91238282D01*
X215982962Y-91870590D01*
X215965925Y-91807007D01*
X215900099Y-91692993D01*
X215807007Y-91599901D01*
X215692993Y-91534075D01*
X215629409Y-91517037D01*
X216261716Y-90884728D01*
X216207550Y-90845375D01*
X216018217Y-90748904D01*
X215816129Y-90683242D01*
X215606246Y-90650000D01*
X215393754Y-90650000D01*
X215183872Y-90683242D01*
X215183869Y-90683242D01*
X214981782Y-90748904D01*
X214792439Y-90845380D01*
X214738282Y-90884727D01*
X214738282Y-90884728D01*
X215370591Y-91517037D01*
X215307007Y-91534075D01*
X215192993Y-91599901D01*
X215099901Y-91692993D01*
X215034075Y-91807007D01*
X215017037Y-91870591D01*
X214384728Y-91238282D01*
X214384727Y-91238282D01*
X214345380Y-91292439D01*
X214248904Y-91481782D01*
X214183242Y-91683869D01*
X214183242Y-91683872D01*
X214150000Y-91893753D01*
X214150000Y-92106246D01*
X214183242Y-92316127D01*
X214183242Y-92316130D01*
X214248904Y-92518217D01*
X214345375Y-92707550D01*
X214384728Y-92761716D01*
X215017037Y-92129408D01*
X215034075Y-92192993D01*
X215099901Y-92307007D01*
X215192993Y-92400099D01*
X215307007Y-92465925D01*
X215370590Y-92482962D01*
X214738282Y-93115269D01*
X214738282Y-93115270D01*
X214792452Y-93154626D01*
X214792451Y-93154626D01*
X214801495Y-93159234D01*
X214852292Y-93207208D01*
X214869087Y-93275029D01*
X214846550Y-93341164D01*
X214801499Y-93380202D01*
X214792182Y-93384949D01*
X214620213Y-93509890D01*
X214469890Y-93660213D01*
X214344951Y-93832179D01*
X214248444Y-94021585D01*
X214182753Y-94223760D01*
X214154446Y-94402487D01*
X214149500Y-94433713D01*
X214149500Y-94646287D01*
X214151243Y-94657289D01*
X214174480Y-94804008D01*
X214182754Y-94856243D01*
X214226248Y-94990104D01*
X214248444Y-95058414D01*
X214344951Y-95247820D01*
X214469890Y-95419786D01*
X214620213Y-95570109D01*
X214792182Y-95695050D01*
X214800946Y-95699516D01*
X214851742Y-95747491D01*
X214868536Y-95815312D01*
X214845998Y-95881447D01*
X214800946Y-95920484D01*
X214792182Y-95924949D01*
X214620213Y-96049890D01*
X214469890Y-96200213D01*
X214344951Y-96372179D01*
X214248444Y-96561585D01*
X214182753Y-96763760D01*
X214149500Y-96973713D01*
X214149500Y-97186286D01*
X214182753Y-97396241D01*
X214187821Y-97411837D01*
X214189816Y-97481678D01*
X214157571Y-97537837D01*
X213996853Y-97698556D01*
X213872070Y-97823339D01*
X213872067Y-97823342D01*
X213828504Y-97866904D01*
X213784942Y-97910466D01*
X213756212Y-97953463D01*
X213751984Y-97959792D01*
X213716488Y-98012914D01*
X213689550Y-98077949D01*
X213687317Y-98083337D01*
X213687312Y-98083349D01*
X213669338Y-98126744D01*
X213669335Y-98126756D01*
X213645300Y-98247589D01*
X213645300Y-123141400D01*
X213642749Y-123150085D01*
X213644038Y-123159047D01*
X213633059Y-123183087D01*
X213625615Y-123208439D01*
X213618774Y-123214366D01*
X213615013Y-123222603D01*
X213592778Y-123236892D01*
X213572811Y-123254194D01*
X213562296Y-123256481D01*
X213556235Y-123260377D01*
X213521300Y-123265400D01*
X213424350Y-123265400D01*
X213357311Y-123245715D01*
X213355459Y-123244502D01*
X213261184Y-123181509D01*
X213261172Y-123181502D01*
X213115501Y-123121164D01*
X213115489Y-123121161D01*
X212960845Y-123090400D01*
X212960842Y-123090400D01*
X212803158Y-123090400D01*
X212803155Y-123090400D01*
X212648510Y-123121161D01*
X212648498Y-123121164D01*
X212502827Y-123181502D01*
X212502814Y-123181509D01*
X212371711Y-123269110D01*
X212371707Y-123269113D01*
X212260213Y-123380607D01*
X212260210Y-123380611D01*
X212227102Y-123430161D01*
X212173489Y-123474966D01*
X212104164Y-123483673D01*
X212041137Y-123453518D01*
X212004418Y-123394075D01*
X212000000Y-123361270D01*
X212000000Y-120000000D01*
X211406355Y-120000000D01*
X211339316Y-119980315D01*
X211295870Y-119932295D01*
X211278146Y-119897510D01*
X211255051Y-119852184D01*
X211218189Y-119801447D01*
X211130109Y-119680213D01*
X210979786Y-119529890D01*
X210807820Y-119404951D01*
X210807115Y-119404591D01*
X210799054Y-119400485D01*
X210748259Y-119352512D01*
X210731463Y-119284692D01*
X210753999Y-119218556D01*
X210799054Y-119179515D01*
X210807816Y-119175051D01*
X210829789Y-119159086D01*
X210979786Y-119050109D01*
X210979788Y-119050106D01*
X210979792Y-119050104D01*
X211130104Y-118899792D01*
X211130106Y-118899788D01*
X211130109Y-118899786D01*
X211255048Y-118727820D01*
X211255047Y-118727820D01*
X211255051Y-118727816D01*
X211351557Y-118538412D01*
X211417246Y-118336243D01*
X211450500Y-118126287D01*
X211450500Y-117913713D01*
X211417246Y-117703757D01*
X211351557Y-117501588D01*
X211255051Y-117312184D01*
X211255049Y-117312181D01*
X211255048Y-117312179D01*
X211130109Y-117140213D01*
X210979786Y-116989890D01*
X210807820Y-116864951D01*
X210807115Y-116864591D01*
X210799054Y-116860485D01*
X210748259Y-116812512D01*
X210731463Y-116744692D01*
X210753999Y-116678556D01*
X210799054Y-116639515D01*
X210807816Y-116635051D01*
X210829789Y-116619086D01*
X210979786Y-116510109D01*
X210979788Y-116510106D01*
X210979792Y-116510104D01*
X211130104Y-116359792D01*
X211130106Y-116359788D01*
X211130109Y-116359786D01*
X211255048Y-116187820D01*
X211255047Y-116187820D01*
X211255051Y-116187816D01*
X211351557Y-115998412D01*
X211417246Y-115796243D01*
X211450500Y-115586287D01*
X211450500Y-115373713D01*
X211417246Y-115163757D01*
X211351557Y-114961588D01*
X211255051Y-114772184D01*
X211255049Y-114772181D01*
X211255048Y-114772179D01*
X211130109Y-114600213D01*
X210979786Y-114449890D01*
X210807820Y-114324951D01*
X210807115Y-114324591D01*
X210799054Y-114320485D01*
X210748259Y-114272512D01*
X210731463Y-114204692D01*
X210753999Y-114138556D01*
X210799054Y-114099515D01*
X210807816Y-114095051D01*
X210829789Y-114079086D01*
X210979786Y-113970109D01*
X210979788Y-113970106D01*
X210979792Y-113970104D01*
X211130104Y-113819792D01*
X211130106Y-113819788D01*
X211130109Y-113819786D01*
X211255048Y-113647820D01*
X211255047Y-113647820D01*
X211255051Y-113647816D01*
X211351557Y-113458412D01*
X211417246Y-113256243D01*
X211450500Y-113046287D01*
X211450500Y-112833713D01*
X211417246Y-112623757D01*
X211351557Y-112421588D01*
X211255051Y-112232184D01*
X211255049Y-112232181D01*
X211255048Y-112232179D01*
X211130109Y-112060213D01*
X210979786Y-111909890D01*
X210807820Y-111784951D01*
X210807115Y-111784591D01*
X210799054Y-111780485D01*
X210748259Y-111732512D01*
X210731463Y-111664692D01*
X210753999Y-111598556D01*
X210799054Y-111559515D01*
X210807816Y-111555051D01*
X210857284Y-111519111D01*
X210979786Y-111430109D01*
X210979788Y-111430106D01*
X210979792Y-111430104D01*
X211130104Y-111279792D01*
X211130106Y-111279788D01*
X211130109Y-111279786D01*
X211239086Y-111129789D01*
X211255051Y-111107816D01*
X211351557Y-110918412D01*
X211417246Y-110716243D01*
X211450500Y-110506287D01*
X211450500Y-110293713D01*
X211417246Y-110083757D01*
X211351557Y-109881588D01*
X211255051Y-109692184D01*
X211255049Y-109692181D01*
X211255048Y-109692179D01*
X211130109Y-109520213D01*
X210979786Y-109369890D01*
X210807820Y-109244951D01*
X210807115Y-109244591D01*
X210799054Y-109240485D01*
X210748259Y-109192512D01*
X210731463Y-109124692D01*
X210753999Y-109058556D01*
X210799054Y-109019515D01*
X210807816Y-109015051D01*
X210834049Y-108995992D01*
X210979786Y-108890109D01*
X210979788Y-108890106D01*
X210979792Y-108890104D01*
X211130104Y-108739792D01*
X211130106Y-108739788D01*
X211130109Y-108739786D01*
X211255048Y-108567820D01*
X211255047Y-108567820D01*
X211255051Y-108567816D01*
X211351557Y-108378412D01*
X211417246Y-108176243D01*
X211450500Y-107966287D01*
X211450500Y-107753713D01*
X211417246Y-107543757D01*
X211351557Y-107341588D01*
X211255051Y-107152184D01*
X211255049Y-107152181D01*
X211255048Y-107152179D01*
X211130109Y-106980213D01*
X210979786Y-106829890D01*
X210807820Y-106704951D01*
X210807115Y-106704591D01*
X210799054Y-106700485D01*
X210748259Y-106652512D01*
X210731463Y-106584692D01*
X210753999Y-106518556D01*
X210799054Y-106479515D01*
X210807816Y-106475051D01*
X210829789Y-106459086D01*
X210979786Y-106350109D01*
X210979788Y-106350106D01*
X210979792Y-106350104D01*
X211130104Y-106199792D01*
X211130106Y-106199788D01*
X211130109Y-106199786D01*
X211255048Y-106027820D01*
X211255047Y-106027820D01*
X211255051Y-106027816D01*
X211351557Y-105838412D01*
X211417246Y-105636243D01*
X211450500Y-105426287D01*
X211450500Y-105213713D01*
X211417246Y-105003757D01*
X211351557Y-104801588D01*
X211255051Y-104612184D01*
X211255049Y-104612181D01*
X211255048Y-104612179D01*
X211130109Y-104440213D01*
X210979786Y-104289890D01*
X210807820Y-104164951D01*
X210807115Y-104164591D01*
X210799054Y-104160485D01*
X210748259Y-104112512D01*
X210731463Y-104044692D01*
X210753999Y-103978556D01*
X210799054Y-103939515D01*
X210807816Y-103935051D01*
X210829789Y-103919086D01*
X210979786Y-103810109D01*
X210979788Y-103810106D01*
X210979792Y-103810104D01*
X211130104Y-103659792D01*
X211130106Y-103659788D01*
X211130109Y-103659786D01*
X211255048Y-103487820D01*
X211255050Y-103487817D01*
X211255051Y-103487816D01*
X211351557Y-103298412D01*
X211417246Y-103096243D01*
X211450500Y-102886287D01*
X211450500Y-102673713D01*
X211417246Y-102463757D01*
X211351557Y-102261588D01*
X211255051Y-102072184D01*
X211255049Y-102072181D01*
X211255048Y-102072179D01*
X211130109Y-101900213D01*
X210979786Y-101749890D01*
X210807817Y-101624949D01*
X210798504Y-101620204D01*
X210747707Y-101572230D01*
X210730912Y-101504409D01*
X210753449Y-101438274D01*
X210798507Y-101399232D01*
X210807555Y-101394622D01*
X210861716Y-101355270D01*
X210861717Y-101355270D01*
X210229408Y-100722962D01*
X210292993Y-100705925D01*
X210407007Y-100640099D01*
X210500099Y-100547007D01*
X210565925Y-100432993D01*
X210582962Y-100369408D01*
X211215270Y-101001717D01*
X211215270Y-101001716D01*
X211254622Y-100947554D01*
X211351095Y-100758217D01*
X211416757Y-100556130D01*
X211416757Y-100556127D01*
X211450000Y-100346246D01*
X211450000Y-100133753D01*
X211416757Y-99923872D01*
X211416757Y-99923869D01*
X211351095Y-99721782D01*
X211254624Y-99532449D01*
X211215270Y-99478282D01*
X211215269Y-99478282D01*
X210582962Y-100110590D01*
X210565925Y-100047007D01*
X210500099Y-99932993D01*
X210407007Y-99839901D01*
X210292993Y-99774075D01*
X210229409Y-99757037D01*
X210899627Y-99086818D01*
X210960950Y-99053333D01*
X210987307Y-99050499D01*
X210997872Y-99050499D01*
X211057483Y-99044091D01*
X211192331Y-98993796D01*
X211307546Y-98907546D01*
X211393796Y-98792331D01*
X211444091Y-98657483D01*
X211450500Y-98597873D01*
X211450499Y-96802128D01*
X211444091Y-96742517D01*
X211441817Y-96736421D01*
X211393797Y-96607671D01*
X211393793Y-96607664D01*
X211307547Y-96492455D01*
X211307544Y-96492452D01*
X211192335Y-96406206D01*
X211192328Y-96406202D01*
X211057482Y-96355908D01*
X211057483Y-96355908D01*
X210997883Y-96349501D01*
X210997881Y-96349500D01*
X210997873Y-96349500D01*
X210997864Y-96349500D01*
X209202129Y-96349500D01*
X209202123Y-96349501D01*
X209142516Y-96355908D01*
X209007671Y-96406202D01*
X209007664Y-96406206D01*
X208892455Y-96492452D01*
X208892452Y-96492455D01*
X208806206Y-96607664D01*
X208806202Y-96607671D01*
X208755908Y-96742517D01*
X208749728Y-96800008D01*
X208749501Y-96802123D01*
X208749500Y-96802135D01*
X208749500Y-98597870D01*
X208749501Y-98597876D01*
X208755908Y-98657483D01*
X208806202Y-98792328D01*
X208806206Y-98792335D01*
X208892452Y-98907544D01*
X208892455Y-98907547D01*
X209007664Y-98993793D01*
X209007671Y-98993797D01*
X209052618Y-99010561D01*
X209142517Y-99044091D01*
X209202127Y-99050500D01*
X209212685Y-99050499D01*
X209279723Y-99070179D01*
X209300372Y-99086818D01*
X209970591Y-99757037D01*
X209907007Y-99774075D01*
X209792993Y-99839901D01*
X209699901Y-99932993D01*
X209634075Y-100047007D01*
X209617037Y-100110591D01*
X208984728Y-99478282D01*
X208984727Y-99478282D01*
X208945380Y-99532439D01*
X208848904Y-99721782D01*
X208783242Y-99923869D01*
X208783242Y-99923872D01*
X208750000Y-100133753D01*
X208750000Y-100246047D01*
X208730315Y-100313086D01*
X208677511Y-100358841D01*
X208608353Y-100368785D01*
X208544797Y-100339760D01*
X208538319Y-100333728D01*
X198691819Y-90487228D01*
X198658334Y-90425905D01*
X198655500Y-90399547D01*
X198655500Y-85536050D01*
X198675185Y-85469011D01*
X198676398Y-85467159D01*
X198720678Y-85400889D01*
X198739394Y-85372879D01*
X198799737Y-85227197D01*
X198830500Y-85072542D01*
X198830500Y-84914858D01*
X198830500Y-84914855D01*
X198830499Y-84914853D01*
X198799738Y-84760210D01*
X198799737Y-84760203D01*
X198751606Y-84644003D01*
X198739397Y-84614527D01*
X198739390Y-84614514D01*
X198651789Y-84483411D01*
X198651786Y-84483407D01*
X198540292Y-84371913D01*
X198540288Y-84371910D01*
X198409185Y-84284309D01*
X198409172Y-84284302D01*
X198263501Y-84223964D01*
X198263489Y-84223961D01*
X198108845Y-84193200D01*
X198108842Y-84193200D01*
X197951158Y-84193200D01*
X197951155Y-84193200D01*
X197796510Y-84223961D01*
X197796498Y-84223964D01*
X197650827Y-84284302D01*
X197650814Y-84284309D01*
X197519711Y-84371910D01*
X197519707Y-84371913D01*
X197408213Y-84483407D01*
X197408210Y-84483411D01*
X197320609Y-84614514D01*
X197320602Y-84614527D01*
X197260264Y-84760198D01*
X197260261Y-84760210D01*
X197229500Y-84914853D01*
X197229500Y-85072546D01*
X197260261Y-85227189D01*
X197260264Y-85227201D01*
X197320602Y-85372872D01*
X197320609Y-85372884D01*
X197383602Y-85467159D01*
X197404480Y-85533836D01*
X197404500Y-85536050D01*
X197404500Y-90771610D01*
X197428535Y-90892444D01*
X197428537Y-90892452D01*
X197442347Y-90925792D01*
X197475688Y-91006286D01*
X197509915Y-91057509D01*
X197513802Y-91063326D01*
X197513803Y-91063328D01*
X197544140Y-91108731D01*
X197544141Y-91108732D01*
X197544142Y-91108733D01*
X197631267Y-91195858D01*
X197631268Y-91195858D01*
X197638335Y-91202925D01*
X197638334Y-91202925D01*
X197638338Y-91202928D01*
X208757571Y-102322162D01*
X208791056Y-102383485D01*
X208787821Y-102448160D01*
X208782754Y-102463753D01*
X208749500Y-102673713D01*
X208749500Y-102886286D01*
X208782753Y-103096239D01*
X208848444Y-103298414D01*
X208944951Y-103487820D01*
X209069890Y-103659786D01*
X209220213Y-103810109D01*
X209392182Y-103935050D01*
X209400946Y-103939516D01*
X209451742Y-103987491D01*
X209468536Y-104055312D01*
X209445998Y-104121447D01*
X209400946Y-104160484D01*
X209392182Y-104164949D01*
X209220213Y-104289890D01*
X209069890Y-104440213D01*
X208944951Y-104612179D01*
X208848444Y-104801585D01*
X208782753Y-105003760D01*
X208749500Y-105213713D01*
X208749500Y-105426286D01*
X208773483Y-105577712D01*
X208782754Y-105636243D01*
X208792225Y-105665393D01*
X208848444Y-105838414D01*
X208944951Y-106027820D01*
X209069890Y-106199786D01*
X209220213Y-106350109D01*
X209392182Y-106475050D01*
X209400946Y-106479516D01*
X209451742Y-106527491D01*
X209468536Y-106595312D01*
X209445998Y-106661447D01*
X209400946Y-106700484D01*
X209392182Y-106704949D01*
X209220213Y-106829890D01*
X209069890Y-106980213D01*
X208944951Y-107152179D01*
X208848444Y-107341585D01*
X208782753Y-107543760D01*
X208768529Y-107633567D01*
X208749500Y-107753713D01*
X208749500Y-107966287D01*
X208782754Y-108176243D01*
X208823585Y-108301908D01*
X208848444Y-108378414D01*
X208944951Y-108567820D01*
X209069890Y-108739786D01*
X209220213Y-108890109D01*
X209392182Y-109015050D01*
X209400946Y-109019516D01*
X209451742Y-109067491D01*
X209468536Y-109135312D01*
X209445998Y-109201447D01*
X209400946Y-109240484D01*
X209392182Y-109244949D01*
X209220213Y-109369890D01*
X209069890Y-109520213D01*
X208944951Y-109692179D01*
X208848444Y-109881585D01*
X208782753Y-110083760D01*
X208749500Y-110293713D01*
X208749500Y-110506287D01*
X208782754Y-110716243D01*
X208818597Y-110826557D01*
X208848444Y-110918414D01*
X208944951Y-111107820D01*
X209069890Y-111279786D01*
X209220213Y-111430109D01*
X209392182Y-111555050D01*
X209400946Y-111559516D01*
X209451742Y-111607491D01*
X209468536Y-111675312D01*
X209445998Y-111741447D01*
X209400946Y-111780484D01*
X209392182Y-111784949D01*
X209220213Y-111909890D01*
X209069890Y-112060213D01*
X208944951Y-112232179D01*
X208848444Y-112421585D01*
X208782753Y-112623760D01*
X208749500Y-112833713D01*
X208749500Y-113046287D01*
X208782754Y-113256243D01*
X208788430Y-113273713D01*
X208848444Y-113458414D01*
X208944951Y-113647820D01*
X209069890Y-113819786D01*
X209220213Y-113970109D01*
X209392182Y-114095050D01*
X209400946Y-114099516D01*
X209451742Y-114147491D01*
X209468536Y-114215312D01*
X209445998Y-114281447D01*
X209400946Y-114320484D01*
X209392182Y-114324949D01*
X209220213Y-114449890D01*
X209069890Y-114600213D01*
X208944951Y-114772179D01*
X208848444Y-114961585D01*
X208782753Y-115163760D01*
X208749500Y-115373713D01*
X208749500Y-115485548D01*
X208729815Y-115552587D01*
X208677011Y-115598342D01*
X208607853Y-115608286D01*
X208544297Y-115579261D01*
X208537819Y-115573229D01*
X194483119Y-101518529D01*
X194449634Y-101457206D01*
X194446800Y-101430848D01*
X194446800Y-78539772D01*
X194446800Y-78539694D01*
X194446744Y-78539414D01*
X194422763Y-78418849D01*
X194421967Y-78416928D01*
X194408952Y-78385507D01*
X194375612Y-78305014D01*
X194340078Y-78251835D01*
X194307158Y-78202567D01*
X194307156Y-78202564D01*
X194216937Y-78112345D01*
X194216906Y-78112316D01*
X189442428Y-73337838D01*
X189408943Y-73276515D01*
X189412177Y-73211841D01*
X189417246Y-73196243D01*
X189450500Y-72986287D01*
X189450500Y-72773713D01*
X189417246Y-72563757D01*
X189351557Y-72361588D01*
X189255051Y-72172184D01*
X189255049Y-72172181D01*
X189255048Y-72172179D01*
X189130109Y-72000213D01*
X189016569Y-71886673D01*
X188983084Y-71825350D01*
X188988068Y-71755658D01*
X189029940Y-71699725D01*
X189060915Y-71682810D01*
X189192331Y-71633796D01*
X189307546Y-71547546D01*
X189393796Y-71432331D01*
X189444091Y-71297483D01*
X189450500Y-71237873D01*
X189450499Y-69442128D01*
X189444091Y-69382517D01*
X189393796Y-69247669D01*
X189393795Y-69247668D01*
X189393793Y-69247664D01*
X189307547Y-69132455D01*
X189301836Y-69126744D01*
X189268351Y-69065421D01*
X189273335Y-68995729D01*
X189301834Y-68951384D01*
X189872478Y-68380741D01*
X189872482Y-68380739D01*
X190011839Y-68241382D01*
X190121332Y-68077514D01*
X190192256Y-67906287D01*
X190196751Y-67895436D01*
X190228107Y-67737800D01*
X190235200Y-67702141D01*
X190235200Y-67693713D01*
X212149500Y-67693713D01*
X212149500Y-67906286D01*
X212180263Y-68100519D01*
X212182754Y-68116243D01*
X212223414Y-68241382D01*
X212248444Y-68318414D01*
X212344951Y-68507820D01*
X212469890Y-68679786D01*
X212620213Y-68830109D01*
X212792182Y-68955050D01*
X212800946Y-68959516D01*
X212851742Y-69007491D01*
X212868536Y-69075312D01*
X212845998Y-69141447D01*
X212800946Y-69180484D01*
X212792182Y-69184949D01*
X212620213Y-69309890D01*
X212469890Y-69460213D01*
X212344951Y-69632179D01*
X212248444Y-69821585D01*
X212182753Y-70023760D01*
X212149500Y-70233713D01*
X212149500Y-70446286D01*
X212182753Y-70656239D01*
X212248444Y-70858414D01*
X212344951Y-71047820D01*
X212469890Y-71219786D01*
X212620213Y-71370109D01*
X212792182Y-71495050D01*
X212800946Y-71499516D01*
X212851742Y-71547491D01*
X212868536Y-71615312D01*
X212845998Y-71681447D01*
X212800946Y-71720484D01*
X212792182Y-71724949D01*
X212620213Y-71849890D01*
X212469890Y-72000213D01*
X212344951Y-72172179D01*
X212248444Y-72361585D01*
X212182753Y-72563760D01*
X212149500Y-72773713D01*
X212149500Y-72986287D01*
X212182754Y-73196243D01*
X212230989Y-73344695D01*
X212248444Y-73398414D01*
X212344951Y-73587820D01*
X212469890Y-73759786D01*
X212620213Y-73910109D01*
X212792182Y-74035050D01*
X212800946Y-74039516D01*
X212851742Y-74087491D01*
X212868536Y-74155312D01*
X212845998Y-74221447D01*
X212800946Y-74260484D01*
X212792182Y-74264949D01*
X212620213Y-74389890D01*
X212469890Y-74540213D01*
X212344951Y-74712179D01*
X212248444Y-74901585D01*
X212182753Y-75103760D01*
X212155142Y-75278092D01*
X212149500Y-75313713D01*
X212149500Y-75526287D01*
X212182754Y-75736243D01*
X212246652Y-75932901D01*
X212248444Y-75938414D01*
X212344951Y-76127820D01*
X212469890Y-76299786D01*
X212620213Y-76450109D01*
X212792182Y-76575050D01*
X212800946Y-76579516D01*
X212851742Y-76627491D01*
X212868536Y-76695312D01*
X212845998Y-76761447D01*
X212800946Y-76800484D01*
X212792182Y-76804949D01*
X212620213Y-76929890D01*
X212469890Y-77080213D01*
X212344951Y-77252179D01*
X212248444Y-77441585D01*
X212182753Y-77643760D01*
X212164839Y-77756865D01*
X212149500Y-77853713D01*
X212149500Y-78066287D01*
X212182754Y-78276243D01*
X212246589Y-78472707D01*
X212248444Y-78478414D01*
X212344951Y-78667820D01*
X212469890Y-78839786D01*
X212583430Y-78953326D01*
X212616915Y-79014649D01*
X212611931Y-79084341D01*
X212570059Y-79140274D01*
X212539083Y-79157189D01*
X212407669Y-79206203D01*
X212407664Y-79206206D01*
X212292455Y-79292452D01*
X212292452Y-79292455D01*
X212206206Y-79407664D01*
X212206202Y-79407671D01*
X212155908Y-79542517D01*
X212153598Y-79564008D01*
X212149501Y-79602123D01*
X212149500Y-79602135D01*
X212149500Y-81397870D01*
X212149501Y-81397876D01*
X212155908Y-81457483D01*
X212206202Y-81592328D01*
X212206206Y-81592335D01*
X212292452Y-81707544D01*
X212292455Y-81707547D01*
X212407664Y-81793793D01*
X212407671Y-81793797D01*
X212542517Y-81844091D01*
X212542516Y-81844091D01*
X212549444Y-81844835D01*
X212602127Y-81850500D01*
X214397872Y-81850499D01*
X214457483Y-81844091D01*
X214592331Y-81793796D01*
X214707546Y-81707546D01*
X214793796Y-81592331D01*
X214844091Y-81457483D01*
X214850500Y-81397873D01*
X214850499Y-79602128D01*
X214844091Y-79542517D01*
X214793796Y-79407669D01*
X214793795Y-79407668D01*
X214793793Y-79407664D01*
X214707547Y-79292455D01*
X214707544Y-79292452D01*
X214592335Y-79206206D01*
X214592328Y-79206202D01*
X214460917Y-79157189D01*
X214404983Y-79115318D01*
X214380566Y-79049853D01*
X214395418Y-78981580D01*
X214416563Y-78953332D01*
X214530104Y-78839792D01*
X214540842Y-78825013D01*
X214655048Y-78667820D01*
X214655047Y-78667820D01*
X214655051Y-78667816D01*
X214751557Y-78478412D01*
X214817246Y-78276243D01*
X214850500Y-78066287D01*
X214850500Y-77853713D01*
X214817246Y-77643757D01*
X214751557Y-77441588D01*
X214655051Y-77252184D01*
X214655049Y-77252181D01*
X214655048Y-77252179D01*
X214530109Y-77080213D01*
X214379786Y-76929890D01*
X214207820Y-76804951D01*
X214207115Y-76804591D01*
X214199054Y-76800485D01*
X214148259Y-76752512D01*
X214131463Y-76684692D01*
X214153999Y-76618556D01*
X214199054Y-76579515D01*
X214207816Y-76575051D01*
X214229789Y-76559086D01*
X214379786Y-76450109D01*
X214379788Y-76450106D01*
X214379792Y-76450104D01*
X214530104Y-76299792D01*
X214530106Y-76299788D01*
X214530109Y-76299786D01*
X214655048Y-76127820D01*
X214655047Y-76127820D01*
X214655051Y-76127816D01*
X214751557Y-75938412D01*
X214817246Y-75736243D01*
X214850500Y-75526287D01*
X214850500Y-75313713D01*
X214817246Y-75103757D01*
X214764656Y-74941902D01*
X233499500Y-74941902D01*
X233499500Y-75178097D01*
X233536446Y-75411368D01*
X233609433Y-75635996D01*
X233660509Y-75736237D01*
X233716657Y-75846433D01*
X233855483Y-76037510D01*
X234022490Y-76204517D01*
X234057127Y-76229683D01*
X234099792Y-76285013D01*
X234105771Y-76354626D01*
X234073165Y-76416421D01*
X234057130Y-76430315D01*
X234045855Y-76438507D01*
X234022488Y-76455484D01*
X233855485Y-76622487D01*
X233855485Y-76622488D01*
X233855483Y-76622490D01*
X233806434Y-76690000D01*
X233716657Y-76813566D01*
X233609433Y-77024003D01*
X233536446Y-77248631D01*
X233499500Y-77481902D01*
X233499500Y-77718097D01*
X233536446Y-77951368D01*
X233609433Y-78175996D01*
X233660510Y-78276239D01*
X233716657Y-78386433D01*
X233855483Y-78577510D01*
X234022490Y-78744517D01*
X234057127Y-78769683D01*
X234099792Y-78825013D01*
X234105771Y-78894626D01*
X234073165Y-78956421D01*
X234057130Y-78970315D01*
X234041626Y-78981580D01*
X234022488Y-78995484D01*
X233855485Y-79162487D01*
X233855485Y-79162488D01*
X233855483Y-79162490D01*
X233795862Y-79244550D01*
X233716657Y-79353566D01*
X233609433Y-79564003D01*
X233536446Y-79788631D01*
X233499500Y-80021902D01*
X233499500Y-80258097D01*
X233536446Y-80491368D01*
X233609433Y-80715996D01*
X233716657Y-80926433D01*
X233855483Y-81117510D01*
X234022490Y-81284517D01*
X234057127Y-81309683D01*
X234099792Y-81365013D01*
X234105771Y-81434626D01*
X234073165Y-81496421D01*
X234057130Y-81510315D01*
X234039365Y-81523222D01*
X234022488Y-81535484D01*
X233855485Y-81702487D01*
X233855485Y-81702488D01*
X233855483Y-81702490D01*
X233851810Y-81707546D01*
X233716657Y-81893566D01*
X233609433Y-82104003D01*
X233536446Y-82328631D01*
X233499500Y-82561902D01*
X233499500Y-82798097D01*
X233536446Y-83031368D01*
X233609433Y-83255996D01*
X233716657Y-83466433D01*
X233855483Y-83657510D01*
X234022490Y-83824517D01*
X234057127Y-83849683D01*
X234099792Y-83905013D01*
X234105771Y-83974626D01*
X234073165Y-84036421D01*
X234057130Y-84050315D01*
X234039365Y-84063222D01*
X234022488Y-84075484D01*
X233855485Y-84242487D01*
X233855485Y-84242488D01*
X233855483Y-84242490D01*
X233825105Y-84284302D01*
X233716657Y-84433566D01*
X233609433Y-84644003D01*
X233536446Y-84868631D01*
X233499500Y-85101902D01*
X233499500Y-85338097D01*
X233536446Y-85571368D01*
X233609433Y-85795996D01*
X233649217Y-85874075D01*
X233716657Y-86006433D01*
X233855483Y-86197510D01*
X234022490Y-86364517D01*
X234057127Y-86389683D01*
X234099792Y-86445013D01*
X234105771Y-86514626D01*
X234073165Y-86576421D01*
X234057130Y-86590315D01*
X234039365Y-86603222D01*
X234022488Y-86615484D01*
X233855485Y-86782487D01*
X233855485Y-86782488D01*
X233855483Y-86782490D01*
X233797214Y-86862690D01*
X233716657Y-86973566D01*
X233609433Y-87184003D01*
X233536446Y-87408631D01*
X233499500Y-87641902D01*
X233499500Y-87878097D01*
X233536446Y-88111368D01*
X233609433Y-88335996D01*
X233632827Y-88381908D01*
X233716657Y-88546433D01*
X233855483Y-88737510D01*
X234022490Y-88904517D01*
X234057127Y-88929683D01*
X234099792Y-88985013D01*
X234105771Y-89054626D01*
X234073165Y-89116421D01*
X234057130Y-89130315D01*
X234039365Y-89143222D01*
X234022488Y-89155484D01*
X233855485Y-89322487D01*
X233855485Y-89322488D01*
X233855483Y-89322490D01*
X233800464Y-89398217D01*
X233716657Y-89513566D01*
X233609433Y-89724003D01*
X233536446Y-89948631D01*
X233499500Y-90181902D01*
X233499500Y-90418097D01*
X233536446Y-90651368D01*
X233609433Y-90875996D01*
X233634806Y-90925792D01*
X233716657Y-91086433D01*
X233855483Y-91277510D01*
X234022490Y-91444517D01*
X234057127Y-91469683D01*
X234099792Y-91525013D01*
X234105771Y-91594626D01*
X234073165Y-91656421D01*
X234057130Y-91670315D01*
X234039365Y-91683222D01*
X234022488Y-91695484D01*
X233855485Y-91862487D01*
X233855485Y-91862488D01*
X233855483Y-91862490D01*
X233851543Y-91867913D01*
X233716657Y-92053566D01*
X233609433Y-92264003D01*
X233536446Y-92488631D01*
X233499500Y-92721902D01*
X233499500Y-92958097D01*
X233536446Y-93191368D01*
X233609433Y-93415996D01*
X233698507Y-93590811D01*
X233716657Y-93626433D01*
X233855483Y-93817510D01*
X234022490Y-93984517D01*
X234057127Y-94009683D01*
X234099792Y-94065013D01*
X234105771Y-94134626D01*
X234073165Y-94196421D01*
X234057130Y-94210315D01*
X234039365Y-94223222D01*
X234022488Y-94235484D01*
X233855485Y-94402487D01*
X233855485Y-94402488D01*
X233855483Y-94402490D01*
X233824625Y-94444962D01*
X233716657Y-94593566D01*
X233609433Y-94804003D01*
X233536446Y-95028631D01*
X233499500Y-95261902D01*
X233499500Y-95498097D01*
X233536446Y-95731368D01*
X233609433Y-95955996D01*
X233657275Y-96049890D01*
X233716657Y-96166433D01*
X233855483Y-96357510D01*
X234022490Y-96524517D01*
X234057127Y-96549683D01*
X234099792Y-96605013D01*
X234105771Y-96674626D01*
X234073165Y-96736421D01*
X234057130Y-96750315D01*
X234039365Y-96763222D01*
X234022488Y-96775484D01*
X233855485Y-96942487D01*
X233855485Y-96942488D01*
X233855483Y-96942490D01*
X233832798Y-96973713D01*
X233716657Y-97133566D01*
X233609433Y-97344003D01*
X233536446Y-97568631D01*
X233499500Y-97801902D01*
X233499500Y-98038097D01*
X233536446Y-98271368D01*
X233609433Y-98495996D01*
X233716657Y-98706433D01*
X233855483Y-98897510D01*
X234022490Y-99064517D01*
X234057127Y-99089683D01*
X234099792Y-99145013D01*
X234105771Y-99214626D01*
X234073165Y-99276421D01*
X234057130Y-99290315D01*
X234039365Y-99303222D01*
X234022488Y-99315484D01*
X233855485Y-99482487D01*
X233855485Y-99482488D01*
X233855483Y-99482490D01*
X233830039Y-99517511D01*
X233716657Y-99673566D01*
X233609433Y-99884003D01*
X233536446Y-100108631D01*
X233499500Y-100341902D01*
X233499500Y-100578097D01*
X233536446Y-100811368D01*
X233609433Y-101035996D01*
X233716657Y-101246433D01*
X233855483Y-101437510D01*
X233855489Y-101437516D01*
X233858647Y-101441214D01*
X233856864Y-101442736D01*
X233885726Y-101495591D01*
X233880742Y-101565283D01*
X233838870Y-101621216D01*
X233829658Y-101627487D01*
X233781344Y-101657287D01*
X233657289Y-101781342D01*
X233565187Y-101930663D01*
X233565186Y-101930666D01*
X233510001Y-102097203D01*
X233510001Y-102097204D01*
X233510000Y-102097204D01*
X233499500Y-102199983D01*
X233499500Y-103800001D01*
X233499501Y-103800018D01*
X233510000Y-103902796D01*
X233510001Y-103902799D01*
X233564891Y-104068443D01*
X233565186Y-104069334D01*
X233657288Y-104218656D01*
X233781344Y-104342712D01*
X233930666Y-104434814D01*
X234097203Y-104489999D01*
X234199991Y-104500500D01*
X235800008Y-104500499D01*
X235902797Y-104489999D01*
X236069334Y-104434814D01*
X236218656Y-104342712D01*
X236342712Y-104218656D01*
X236434814Y-104069334D01*
X236489999Y-103902797D01*
X236500500Y-103800009D01*
X236500499Y-102199992D01*
X236489999Y-102097203D01*
X236434814Y-101930666D01*
X236342712Y-101781344D01*
X236218656Y-101657288D01*
X236218655Y-101657287D01*
X236170342Y-101627487D01*
X236123618Y-101575539D01*
X236112397Y-101506576D01*
X236140241Y-101442494D01*
X236141381Y-101441249D01*
X236141348Y-101441221D01*
X236144511Y-101437516D01*
X236144511Y-101437515D01*
X236144517Y-101437510D01*
X236283343Y-101246433D01*
X236390568Y-101035992D01*
X236463553Y-100811368D01*
X236471971Y-100758217D01*
X236500500Y-100578097D01*
X236500500Y-100341902D01*
X236463553Y-100108631D01*
X236405696Y-99930568D01*
X236390568Y-99884008D01*
X236390566Y-99884005D01*
X236390566Y-99884003D01*
X236288922Y-99684517D01*
X236283343Y-99673567D01*
X236144517Y-99482490D01*
X235977510Y-99315483D01*
X235942872Y-99290317D01*
X235900207Y-99234989D01*
X235894228Y-99165375D01*
X235926833Y-99103580D01*
X235942873Y-99089682D01*
X235946815Y-99086818D01*
X235977510Y-99064517D01*
X236144517Y-98897510D01*
X236283343Y-98706433D01*
X236390568Y-98495992D01*
X236463553Y-98271368D01*
X236481159Y-98160208D01*
X236500500Y-98038097D01*
X236500500Y-97801902D01*
X236463553Y-97568631D01*
X236407540Y-97396243D01*
X236390568Y-97344008D01*
X236390566Y-97344005D01*
X236390566Y-97344003D01*
X236334002Y-97232991D01*
X236283343Y-97133567D01*
X236144517Y-96942490D01*
X235977510Y-96775483D01*
X235942872Y-96750317D01*
X235900207Y-96694989D01*
X235894228Y-96625375D01*
X235926833Y-96563580D01*
X235942873Y-96549682D01*
X235977510Y-96524517D01*
X236144517Y-96357510D01*
X236283343Y-96166433D01*
X236390568Y-95955992D01*
X236463553Y-95731368D01*
X236473622Y-95667793D01*
X236500500Y-95498097D01*
X236500500Y-95261902D01*
X236463553Y-95028631D01*
X236390566Y-94804003D01*
X236310205Y-94646287D01*
X236283343Y-94593567D01*
X236144517Y-94402490D01*
X235977510Y-94235483D01*
X235942872Y-94210317D01*
X235900207Y-94154989D01*
X235894228Y-94085375D01*
X235926833Y-94023580D01*
X235942873Y-94009682D01*
X235977510Y-93984517D01*
X236144517Y-93817510D01*
X236283343Y-93626433D01*
X236390568Y-93415992D01*
X236463553Y-93191368D01*
X236463849Y-93189500D01*
X236500500Y-92958097D01*
X236500500Y-92721902D01*
X236463553Y-92488631D01*
X236411814Y-92329396D01*
X236390568Y-92264008D01*
X236390566Y-92264005D01*
X236390566Y-92264003D01*
X236287727Y-92062172D01*
X236283343Y-92053567D01*
X236144517Y-91862490D01*
X235977510Y-91695483D01*
X235942872Y-91670317D01*
X235900207Y-91614989D01*
X235894228Y-91545375D01*
X235926833Y-91483580D01*
X235942873Y-91469682D01*
X235977510Y-91444517D01*
X236144517Y-91277510D01*
X236283343Y-91086433D01*
X236390568Y-90875992D01*
X236463553Y-90651368D01*
X236481159Y-90540208D01*
X236500500Y-90418097D01*
X236500500Y-90181902D01*
X236463553Y-89948631D01*
X236390566Y-89724003D01*
X236283342Y-89513566D01*
X236257147Y-89477512D01*
X236144517Y-89322490D01*
X235977510Y-89155483D01*
X235942872Y-89130317D01*
X235900207Y-89074989D01*
X235894228Y-89005375D01*
X235926833Y-88943580D01*
X235942873Y-88929682D01*
X235977510Y-88904517D01*
X236144517Y-88737510D01*
X236283343Y-88546433D01*
X236390568Y-88335992D01*
X236463553Y-88111368D01*
X236493228Y-87924008D01*
X236500500Y-87878097D01*
X236500500Y-87641902D01*
X236463553Y-87408631D01*
X236390566Y-87184003D01*
X236315382Y-87036447D01*
X236283343Y-86973567D01*
X236144517Y-86782490D01*
X235977510Y-86615483D01*
X235942872Y-86590317D01*
X235900207Y-86534989D01*
X235894228Y-86465375D01*
X235926833Y-86403580D01*
X235942873Y-86389682D01*
X235977510Y-86364517D01*
X236144517Y-86197510D01*
X236283343Y-86006433D01*
X236390568Y-85795992D01*
X236463553Y-85571368D01*
X236469147Y-85536050D01*
X236500500Y-85338097D01*
X236500500Y-85101902D01*
X236463553Y-84868631D01*
X236390566Y-84644003D01*
X236308740Y-84483411D01*
X236283343Y-84433567D01*
X236144517Y-84242490D01*
X235977510Y-84075483D01*
X235942872Y-84050317D01*
X235900207Y-83994989D01*
X235894228Y-83925375D01*
X235926833Y-83863580D01*
X235942873Y-83849682D01*
X235977510Y-83824517D01*
X236144517Y-83657510D01*
X236283343Y-83466433D01*
X236390568Y-83255992D01*
X236463553Y-83031368D01*
X236500500Y-82798097D01*
X236500500Y-82561902D01*
X236463553Y-82328631D01*
X236390566Y-82104003D01*
X236283342Y-81893566D01*
X236144517Y-81702490D01*
X235977510Y-81535483D01*
X235942872Y-81510317D01*
X235900207Y-81454989D01*
X235894228Y-81385375D01*
X235926833Y-81323580D01*
X235942873Y-81309682D01*
X235977510Y-81284517D01*
X236144517Y-81117510D01*
X236283343Y-80926433D01*
X236390568Y-80715992D01*
X236463553Y-80491368D01*
X236500500Y-80258097D01*
X236500500Y-80021902D01*
X236463553Y-79788631D01*
X236402954Y-79602128D01*
X236390568Y-79564008D01*
X236390566Y-79564005D01*
X236390566Y-79564003D01*
X236283342Y-79353566D01*
X236144517Y-79162490D01*
X235977510Y-78995483D01*
X235942872Y-78970317D01*
X235900207Y-78914989D01*
X235894228Y-78845375D01*
X235926833Y-78783580D01*
X235942873Y-78769682D01*
X235977510Y-78744517D01*
X236144517Y-78577510D01*
X236283343Y-78386433D01*
X236390568Y-78175992D01*
X236463553Y-77951368D01*
X236492753Y-77767007D01*
X236500500Y-77718097D01*
X236500500Y-77481902D01*
X236463553Y-77248631D01*
X236423058Y-77124003D01*
X236390568Y-77024008D01*
X236390566Y-77024005D01*
X236390566Y-77024003D01*
X236299220Y-76844728D01*
X236283343Y-76813567D01*
X236144517Y-76622490D01*
X235977510Y-76455483D01*
X235942872Y-76430317D01*
X235900207Y-76374989D01*
X235894228Y-76305375D01*
X235926833Y-76243580D01*
X235942873Y-76229682D01*
X235977510Y-76204517D01*
X236144517Y-76037510D01*
X236283343Y-75846433D01*
X236390568Y-75635992D01*
X236463553Y-75411368D01*
X236500500Y-75178097D01*
X236500500Y-74941902D01*
X236463553Y-74708631D01*
X236408830Y-74540213D01*
X236390568Y-74484008D01*
X236390566Y-74484005D01*
X236390566Y-74484003D01*
X236283342Y-74273566D01*
X236277083Y-74264951D01*
X236144517Y-74082490D01*
X235977510Y-73915483D01*
X235786433Y-73776657D01*
X235753322Y-73759786D01*
X235575996Y-73669433D01*
X235351368Y-73596446D01*
X235118097Y-73559500D01*
X235118092Y-73559500D01*
X234881908Y-73559500D01*
X234881903Y-73559500D01*
X234648631Y-73596446D01*
X234424003Y-73669433D01*
X234213566Y-73776657D01*
X234119483Y-73845013D01*
X234022490Y-73915483D01*
X234022488Y-73915485D01*
X234022487Y-73915485D01*
X233855485Y-74082487D01*
X233855485Y-74082488D01*
X233855483Y-74082490D01*
X233808303Y-74147427D01*
X233716657Y-74273566D01*
X233609433Y-74484003D01*
X233536446Y-74708631D01*
X233499500Y-74941902D01*
X214764656Y-74941902D01*
X214751557Y-74901588D01*
X214751555Y-74901585D01*
X214751555Y-74901583D01*
X214655048Y-74712179D01*
X214530109Y-74540213D01*
X214379786Y-74389890D01*
X214207820Y-74264951D01*
X214207115Y-74264591D01*
X214199054Y-74260485D01*
X214148259Y-74212512D01*
X214131463Y-74144692D01*
X214153999Y-74078556D01*
X214199054Y-74039515D01*
X214207816Y-74035051D01*
X214274504Y-73986600D01*
X214379786Y-73910109D01*
X214379788Y-73910106D01*
X214379792Y-73910104D01*
X214530104Y-73759792D01*
X214530106Y-73759788D01*
X214530109Y-73759786D01*
X214655048Y-73587820D01*
X214655047Y-73587820D01*
X214655051Y-73587816D01*
X214751557Y-73398412D01*
X214817246Y-73196243D01*
X214850500Y-72986287D01*
X214850500Y-72773713D01*
X214817246Y-72563757D01*
X214751557Y-72361588D01*
X214655051Y-72172184D01*
X214655049Y-72172181D01*
X214655048Y-72172179D01*
X214530109Y-72000213D01*
X214379786Y-71849890D01*
X214207820Y-71724951D01*
X214207115Y-71724591D01*
X214199054Y-71720485D01*
X214148259Y-71672512D01*
X214131463Y-71604692D01*
X214153999Y-71538556D01*
X214199054Y-71499515D01*
X214207816Y-71495051D01*
X214254253Y-71461313D01*
X214379786Y-71370109D01*
X214379788Y-71370106D01*
X214379792Y-71370104D01*
X214530104Y-71219792D01*
X214530106Y-71219788D01*
X214530109Y-71219786D01*
X214655048Y-71047820D01*
X214655047Y-71047820D01*
X214655051Y-71047816D01*
X214751557Y-70858412D01*
X214817246Y-70656243D01*
X214850500Y-70446287D01*
X214850500Y-70233713D01*
X214817246Y-70023757D01*
X214751557Y-69821588D01*
X214655051Y-69632184D01*
X214655049Y-69632181D01*
X214655048Y-69632179D01*
X214530109Y-69460213D01*
X214379786Y-69309890D01*
X214207820Y-69184951D01*
X214206499Y-69184278D01*
X214199054Y-69180485D01*
X214148259Y-69132512D01*
X214131463Y-69064692D01*
X214153999Y-68998556D01*
X214199054Y-68959515D01*
X214207816Y-68955051D01*
X214247997Y-68925858D01*
X214379786Y-68830109D01*
X214379788Y-68830106D01*
X214379792Y-68830104D01*
X214530104Y-68679792D01*
X214530106Y-68679788D01*
X214530109Y-68679786D01*
X214655048Y-68507820D01*
X214655047Y-68507820D01*
X214655051Y-68507816D01*
X214751557Y-68318412D01*
X214817246Y-68116243D01*
X214850500Y-67906287D01*
X214850500Y-67693713D01*
X214817246Y-67483757D01*
X214751557Y-67281588D01*
X214655051Y-67092184D01*
X214655049Y-67092181D01*
X214655048Y-67092179D01*
X214530109Y-66920213D01*
X214379786Y-66769890D01*
X214207820Y-66644951D01*
X214018414Y-66548444D01*
X214018413Y-66548443D01*
X214018412Y-66548443D01*
X213816243Y-66482754D01*
X213816241Y-66482753D01*
X213816240Y-66482753D01*
X213654957Y-66457208D01*
X213606287Y-66449500D01*
X213393713Y-66449500D01*
X213345042Y-66457208D01*
X213183760Y-66482753D01*
X212981585Y-66548444D01*
X212792179Y-66644951D01*
X212620213Y-66769890D01*
X212469890Y-66920213D01*
X212344951Y-67092179D01*
X212248444Y-67281585D01*
X212182753Y-67483760D01*
X212149500Y-67693713D01*
X190235200Y-67693713D01*
X190235200Y-49129375D01*
X190235201Y-49129354D01*
X190235201Y-48926157D01*
X190235200Y-48926155D01*
X190218447Y-48841932D01*
X190196752Y-48732865D01*
X190129312Y-48570051D01*
X190121333Y-48550788D01*
X190121328Y-48550779D01*
X190011840Y-48386919D01*
X190011837Y-48386915D01*
X189011818Y-47386897D01*
X188978333Y-47325574D01*
X188975499Y-47299216D01*
X188975499Y-46517129D01*
X188975498Y-46517123D01*
X188975497Y-46517116D01*
X188969091Y-46457517D01*
X188960623Y-46434814D01*
X188918797Y-46322671D01*
X188918793Y-46322664D01*
X188832547Y-46207455D01*
X188832544Y-46207452D01*
X188717335Y-46121206D01*
X188717328Y-46121202D01*
X188582482Y-46070908D01*
X188582483Y-46070908D01*
X188522883Y-46064501D01*
X188522881Y-46064500D01*
X188522873Y-46064500D01*
X188522864Y-46064500D01*
X186727129Y-46064500D01*
X186727123Y-46064501D01*
X186667516Y-46070908D01*
X186532671Y-46121202D01*
X186532664Y-46121206D01*
X186417455Y-46207452D01*
X186417452Y-46207455D01*
X186331206Y-46322664D01*
X186331202Y-46322671D01*
X186280908Y-46457517D01*
X186274501Y-46517116D01*
X186274501Y-46517123D01*
X186274500Y-46517135D01*
X186274500Y-48312870D01*
X186274501Y-48312876D01*
X186280908Y-48372483D01*
X186331202Y-48507328D01*
X186331206Y-48507335D01*
X186417452Y-48622544D01*
X186417455Y-48622547D01*
X186532664Y-48708793D01*
X186532671Y-48708797D01*
X186664082Y-48757810D01*
X186720016Y-48799681D01*
X186744433Y-48865145D01*
X186729582Y-48933418D01*
X186708431Y-48961673D01*
X186594889Y-49075215D01*
X186469951Y-49247179D01*
X186373444Y-49436585D01*
X186307753Y-49638760D01*
X186274500Y-49848713D01*
X186274500Y-50061286D01*
X186307753Y-50271241D01*
X186312821Y-50286837D01*
X186314816Y-50356678D01*
X186282571Y-50412837D01*
X185860623Y-50834786D01*
X185616170Y-51079239D01*
X185616167Y-51079242D01*
X185585361Y-51110048D01*
X185529042Y-51166366D01*
X185515570Y-51186528D01*
X185502188Y-51206557D01*
X185486903Y-51229432D01*
X185460587Y-51268815D01*
X185460585Y-51268818D01*
X185413440Y-51382638D01*
X185413435Y-51382654D01*
X185394971Y-51475484D01*
X185394971Y-51475485D01*
X185389400Y-51503491D01*
X185389400Y-52237600D01*
X185369715Y-52304639D01*
X185316911Y-52350394D01*
X185265400Y-52361600D01*
X185197755Y-52361600D01*
X185043110Y-52392361D01*
X185043098Y-52392364D01*
X184897427Y-52452702D01*
X184897414Y-52452709D01*
X184766311Y-52540310D01*
X184766307Y-52540313D01*
X184654813Y-52651807D01*
X184654810Y-52651811D01*
X184567209Y-52782914D01*
X184567202Y-52782927D01*
X184506864Y-52928598D01*
X184506861Y-52928608D01*
X184484741Y-53039814D01*
X184452356Y-53101725D01*
X184450805Y-53103303D01*
X181624597Y-55929511D01*
X181624587Y-55929521D01*
X181622470Y-55931639D01*
X181622467Y-55931642D01*
X181535342Y-56018767D01*
X181517480Y-56045500D01*
X181512373Y-56053142D01*
X181512370Y-56053146D01*
X181466889Y-56121212D01*
X181466885Y-56121219D01*
X181437835Y-56191354D01*
X181437833Y-56191360D01*
X181434462Y-56199500D01*
X181419737Y-56235048D01*
X181413717Y-56265314D01*
X181396426Y-56352246D01*
X181395768Y-56355552D01*
X181395765Y-56355564D01*
X181395700Y-56355888D01*
X181395700Y-104520750D01*
X181376015Y-104587789D01*
X181374802Y-104589641D01*
X181311809Y-104683915D01*
X181311802Y-104683928D01*
X181251464Y-104829598D01*
X181251461Y-104829610D01*
X181220700Y-104984253D01*
X181220700Y-105141946D01*
X181251461Y-105296589D01*
X181251464Y-105296601D01*
X181311802Y-105442272D01*
X181311809Y-105442285D01*
X181399410Y-105573388D01*
X181399413Y-105573392D01*
X181403733Y-105577712D01*
X181437218Y-105639035D01*
X181432234Y-105708727D01*
X181403733Y-105753074D01*
X169869919Y-117286887D01*
X169869898Y-117286910D01*
X169784142Y-117372667D01*
X169752849Y-117419500D01*
X169716127Y-117474457D01*
X169715684Y-117475120D01*
X169686291Y-117546085D01*
X169668539Y-117588941D01*
X169668535Y-117588955D01*
X169644500Y-117709789D01*
X169644500Y-133578739D01*
X169624815Y-133645778D01*
X169572011Y-133691533D01*
X169502853Y-133701477D01*
X169482183Y-133696670D01*
X169316244Y-133642754D01*
X169316240Y-133642753D01*
X169154957Y-133617208D01*
X169106287Y-133609500D01*
X168893713Y-133609500D01*
X168854202Y-133615757D01*
X168683759Y-133642753D01*
X168683755Y-133642754D01*
X168517817Y-133696670D01*
X168447976Y-133698665D01*
X168388144Y-133662584D01*
X168357316Y-133599883D01*
X168355500Y-133578739D01*
X168355500Y-122257741D01*
X168355501Y-122257720D01*
X168355501Y-122128391D01*
X168331464Y-122007555D01*
X168331463Y-122007549D01*
X168328543Y-122000500D01*
X168328541Y-122000494D01*
X168328541Y-122000493D01*
X168307129Y-121948800D01*
X168284314Y-121893719D01*
X168284313Y-121893717D01*
X168275003Y-121879784D01*
X168246267Y-121836777D01*
X168215858Y-121791266D01*
X168215855Y-121791263D01*
X165342428Y-118917837D01*
X165308943Y-118856514D01*
X165312178Y-118791837D01*
X165317246Y-118776243D01*
X165350500Y-118566287D01*
X165350500Y-118353713D01*
X165317246Y-118143757D01*
X165251557Y-117941588D01*
X165155051Y-117752184D01*
X165155049Y-117752181D01*
X165155048Y-117752179D01*
X165030109Y-117580213D01*
X164879786Y-117429890D01*
X164707820Y-117304951D01*
X164707115Y-117304591D01*
X164699054Y-117300485D01*
X164648259Y-117252512D01*
X164631463Y-117184692D01*
X164653999Y-117118556D01*
X164699054Y-117079515D01*
X164707816Y-117075051D01*
X164729789Y-117059086D01*
X164879786Y-116950109D01*
X164879788Y-116950106D01*
X164879792Y-116950104D01*
X165030104Y-116799792D01*
X165030106Y-116799788D01*
X165030109Y-116799786D01*
X165139086Y-116649789D01*
X165155051Y-116627816D01*
X165251557Y-116438412D01*
X165317246Y-116236243D01*
X165350500Y-116026287D01*
X165350500Y-115813713D01*
X165317246Y-115603757D01*
X165251557Y-115401588D01*
X165155051Y-115212184D01*
X165155049Y-115212181D01*
X165155048Y-115212179D01*
X165030109Y-115040213D01*
X164879786Y-114889890D01*
X164707820Y-114764951D01*
X164707115Y-114764591D01*
X164699054Y-114760485D01*
X164648259Y-114712512D01*
X164631463Y-114644692D01*
X164653999Y-114578556D01*
X164699054Y-114539515D01*
X164707816Y-114535051D01*
X164729789Y-114519086D01*
X164879786Y-114410109D01*
X164879788Y-114410106D01*
X164879792Y-114410104D01*
X165030104Y-114259792D01*
X165030106Y-114259788D01*
X165030109Y-114259786D01*
X165139086Y-114109789D01*
X165155051Y-114087816D01*
X165251557Y-113898412D01*
X165317246Y-113696243D01*
X165350500Y-113486287D01*
X165350500Y-113273713D01*
X165317246Y-113063757D01*
X165251557Y-112861588D01*
X165155051Y-112672184D01*
X165155049Y-112672181D01*
X165155048Y-112672179D01*
X165030109Y-112500213D01*
X164879786Y-112349890D01*
X164707820Y-112224951D01*
X164707115Y-112224591D01*
X164699054Y-112220485D01*
X164648259Y-112172512D01*
X164631463Y-112104692D01*
X164653999Y-112038556D01*
X164699054Y-111999515D01*
X164707816Y-111995051D01*
X164751682Y-111963181D01*
X164879786Y-111870109D01*
X164879788Y-111870106D01*
X164879792Y-111870104D01*
X165030104Y-111719792D01*
X165030106Y-111719788D01*
X165030109Y-111719786D01*
X165146199Y-111560000D01*
X165155051Y-111547816D01*
X165251557Y-111358412D01*
X165317246Y-111156243D01*
X165350500Y-110946287D01*
X165350500Y-110733713D01*
X165317246Y-110523757D01*
X165251557Y-110321588D01*
X165155051Y-110132184D01*
X165155049Y-110132181D01*
X165155048Y-110132179D01*
X165030109Y-109960213D01*
X164879786Y-109809890D01*
X164707820Y-109684951D01*
X164518414Y-109588444D01*
X164518413Y-109588443D01*
X164518412Y-109588443D01*
X164316243Y-109522754D01*
X164316241Y-109522753D01*
X164316240Y-109522753D01*
X164154957Y-109497208D01*
X164106287Y-109489500D01*
X163893713Y-109489500D01*
X163845042Y-109497208D01*
X163683760Y-109522753D01*
X163481585Y-109588444D01*
X163292179Y-109684951D01*
X163120213Y-109809890D01*
X162969890Y-109960213D01*
X162844951Y-110132179D01*
X162748444Y-110321585D01*
X162682753Y-110523760D01*
X162672010Y-110591592D01*
X162649500Y-110733713D01*
X162649500Y-110946287D01*
X162682754Y-111156243D01*
X162694239Y-111191591D01*
X162748444Y-111358414D01*
X162844951Y-111547820D01*
X162969890Y-111719786D01*
X163120213Y-111870109D01*
X163292182Y-111995050D01*
X163300946Y-111999516D01*
X163351742Y-112047491D01*
X163368536Y-112115312D01*
X163345998Y-112181447D01*
X163300946Y-112220484D01*
X163292182Y-112224949D01*
X163120213Y-112349890D01*
X162969890Y-112500213D01*
X162844951Y-112672179D01*
X162748444Y-112861585D01*
X162682753Y-113063760D01*
X162652268Y-113256239D01*
X162649500Y-113273713D01*
X162649500Y-113486287D01*
X162682754Y-113696243D01*
X162741394Y-113876719D01*
X162748444Y-113898414D01*
X162844951Y-114087820D01*
X162969890Y-114259786D01*
X163120213Y-114410109D01*
X163292182Y-114535050D01*
X163300946Y-114539516D01*
X163351742Y-114587491D01*
X163368536Y-114655312D01*
X163345998Y-114721447D01*
X163300946Y-114760484D01*
X163292182Y-114764949D01*
X163120213Y-114889890D01*
X162969890Y-115040213D01*
X162844951Y-115212179D01*
X162748444Y-115401585D01*
X162682753Y-115603760D01*
X162660141Y-115746528D01*
X162649500Y-115813713D01*
X162649500Y-116026287D01*
X162659534Y-116089644D01*
X162669370Y-116151744D01*
X162682754Y-116236243D01*
X162704943Y-116304534D01*
X162748444Y-116438414D01*
X162844951Y-116627820D01*
X162969890Y-116799786D01*
X163120213Y-116950109D01*
X163292182Y-117075050D01*
X163300946Y-117079516D01*
X163351742Y-117127491D01*
X163368536Y-117195312D01*
X163345998Y-117261447D01*
X163300946Y-117300484D01*
X163292182Y-117304949D01*
X163120213Y-117429890D01*
X162969890Y-117580213D01*
X162844951Y-117752179D01*
X162748444Y-117941585D01*
X162682753Y-118143760D01*
X162652268Y-118336239D01*
X162649500Y-118353713D01*
X162649500Y-118566287D01*
X162659534Y-118629644D01*
X162682753Y-118776239D01*
X162748444Y-118978414D01*
X162844951Y-119167820D01*
X162969890Y-119339786D01*
X163120213Y-119490109D01*
X163292182Y-119615050D01*
X163300946Y-119619516D01*
X163351742Y-119667491D01*
X163368536Y-119735312D01*
X163345998Y-119801447D01*
X163300946Y-119840484D01*
X163292182Y-119844949D01*
X163120213Y-119969890D01*
X162969890Y-120120213D01*
X162844951Y-120292179D01*
X162748444Y-120481585D01*
X162682753Y-120683760D01*
X162654840Y-120860000D01*
X162649500Y-120893713D01*
X162649500Y-121106287D01*
X162682754Y-121316243D01*
X162729463Y-121459999D01*
X162748444Y-121518414D01*
X162844951Y-121707820D01*
X162969890Y-121879786D01*
X163083818Y-121993714D01*
X163117303Y-122055037D01*
X163112319Y-122124729D01*
X163070447Y-122180662D01*
X163039471Y-122197577D01*
X162907912Y-122246646D01*
X162907906Y-122246649D01*
X162792812Y-122332809D01*
X162792809Y-122332812D01*
X162706649Y-122447906D01*
X162706645Y-122447913D01*
X162656403Y-122582620D01*
X162656401Y-122582627D01*
X162650000Y-122642155D01*
X162650000Y-123290000D01*
X163566988Y-123290000D01*
X163534075Y-123347007D01*
X163500000Y-123474174D01*
X163500000Y-123605826D01*
X163534075Y-123732993D01*
X163566988Y-123790000D01*
X162650000Y-123790000D01*
X162650000Y-124437844D01*
X162656401Y-124497372D01*
X162656403Y-124497379D01*
X162706645Y-124632086D01*
X162706649Y-124632093D01*
X162792809Y-124747187D01*
X162792812Y-124747190D01*
X162907906Y-124833350D01*
X162907913Y-124833354D01*
X163042620Y-124883596D01*
X163042627Y-124883598D01*
X163102155Y-124889999D01*
X163102172Y-124890000D01*
X163750000Y-124890000D01*
X163750000Y-123973012D01*
X163807007Y-124005925D01*
X163934174Y-124040000D01*
X164065826Y-124040000D01*
X164192993Y-124005925D01*
X164250000Y-123973012D01*
X164250000Y-124890000D01*
X164897828Y-124890000D01*
X164897844Y-124889999D01*
X164957372Y-124883598D01*
X164957379Y-124883596D01*
X165092086Y-124833354D01*
X165092093Y-124833350D01*
X165207187Y-124747190D01*
X165207190Y-124747187D01*
X165293350Y-124632093D01*
X165293354Y-124632086D01*
X165343596Y-124497379D01*
X165343598Y-124497372D01*
X165349999Y-124437844D01*
X165350000Y-124437827D01*
X165350000Y-123790000D01*
X164433012Y-123790000D01*
X164465925Y-123732993D01*
X164500000Y-123605826D01*
X164500000Y-123474174D01*
X164465925Y-123347007D01*
X164433012Y-123290000D01*
X165350000Y-123290000D01*
X165350000Y-122642172D01*
X165349999Y-122642155D01*
X165343598Y-122582627D01*
X165343596Y-122582620D01*
X165293354Y-122447913D01*
X165293350Y-122447906D01*
X165207190Y-122332812D01*
X165207187Y-122332809D01*
X165092093Y-122246649D01*
X165092088Y-122246646D01*
X164960528Y-122197577D01*
X164904595Y-122155705D01*
X164880178Y-122090241D01*
X164895030Y-122021968D01*
X164916175Y-121993720D01*
X165030104Y-121879792D01*
X165067437Y-121828408D01*
X165128801Y-121743946D01*
X165155051Y-121707816D01*
X165251557Y-121518412D01*
X165317246Y-121316243D01*
X165350500Y-121106287D01*
X165350500Y-120994452D01*
X165370185Y-120927413D01*
X165422989Y-120881658D01*
X165492147Y-120871714D01*
X165555703Y-120900739D01*
X165562181Y-120906771D01*
X167068181Y-122412771D01*
X167101666Y-122474094D01*
X167104500Y-122500452D01*
X167104500Y-133578739D01*
X167084815Y-133645778D01*
X167032011Y-133691533D01*
X166962853Y-133701477D01*
X166942183Y-133696670D01*
X166776244Y-133642754D01*
X166776240Y-133642753D01*
X166614957Y-133617208D01*
X166566287Y-133609500D01*
X166353713Y-133609500D01*
X166305042Y-133617208D01*
X166143760Y-133642753D01*
X166055896Y-133671302D01*
X165971682Y-133698665D01*
X165941585Y-133708444D01*
X165752179Y-133804951D01*
X165580213Y-133929890D01*
X165429890Y-134080213D01*
X165304949Y-134252182D01*
X165300484Y-134260946D01*
X165252509Y-134311742D01*
X165184688Y-134328536D01*
X165118553Y-134305998D01*
X165079516Y-134260946D01*
X165075050Y-134252182D01*
X164950109Y-134080213D01*
X164799786Y-133929890D01*
X164627820Y-133804951D01*
X164438414Y-133708444D01*
X164438413Y-133708443D01*
X164438412Y-133708443D01*
X164236243Y-133642754D01*
X164236241Y-133642753D01*
X164236240Y-133642753D01*
X164074957Y-133617208D01*
X164026287Y-133609500D01*
X163813713Y-133609500D01*
X163765042Y-133617208D01*
X163603760Y-133642753D01*
X163515896Y-133671302D01*
X163431682Y-133698665D01*
X163401585Y-133708444D01*
X163212179Y-133804951D01*
X163040213Y-133929890D01*
X162889890Y-134080213D01*
X162764951Y-134252179D01*
X162668444Y-134441585D01*
X162602753Y-134643760D01*
X162569500Y-134853713D01*
X162569500Y-135066286D01*
X162601688Y-135269517D01*
X162602754Y-135276243D01*
X162664966Y-135467712D01*
X162668444Y-135478414D01*
X162764951Y-135667820D01*
X162889890Y-135839786D01*
X163040213Y-135990109D01*
X163212182Y-136115050D01*
X163220946Y-136119516D01*
X163271742Y-136167491D01*
X163288536Y-136235312D01*
X163265998Y-136301447D01*
X163220946Y-136340484D01*
X163212182Y-136344949D01*
X163040213Y-136469890D01*
X162889890Y-136620213D01*
X162764951Y-136792179D01*
X162668444Y-136981585D01*
X162602753Y-137183760D01*
X162569500Y-137393713D01*
X162569500Y-137606286D01*
X162602735Y-137816127D01*
X162602754Y-137816243D01*
X162654387Y-137975153D01*
X162668444Y-138018414D01*
X162764951Y-138207820D01*
X162889890Y-138379786D01*
X163040213Y-138530109D01*
X163212179Y-138655048D01*
X163212181Y-138655049D01*
X163212184Y-138655051D01*
X163401588Y-138751557D01*
X163603757Y-138817246D01*
X163813713Y-138850500D01*
X163813714Y-138850500D01*
X164026286Y-138850500D01*
X164026287Y-138850500D01*
X164236243Y-138817246D01*
X164438412Y-138751557D01*
X164627816Y-138655051D01*
X164649789Y-138639086D01*
X164799786Y-138530109D01*
X164799788Y-138530106D01*
X164799792Y-138530104D01*
X164950104Y-138379792D01*
X164950106Y-138379788D01*
X164950109Y-138379786D01*
X165075048Y-138207820D01*
X165075047Y-138207820D01*
X165075051Y-138207816D01*
X165079514Y-138199054D01*
X165127488Y-138148259D01*
X165195308Y-138131463D01*
X165261444Y-138153999D01*
X165300486Y-138199056D01*
X165304951Y-138207820D01*
X165429890Y-138379786D01*
X165580213Y-138530109D01*
X165752179Y-138655048D01*
X165752181Y-138655049D01*
X165752184Y-138655051D01*
X165941588Y-138751557D01*
X166143757Y-138817246D01*
X166353713Y-138850500D01*
X166353714Y-138850500D01*
X166566286Y-138850500D01*
X166566287Y-138850500D01*
X166776243Y-138817246D01*
X166791840Y-138812177D01*
X166861679Y-138810183D01*
X166917838Y-138842428D01*
X167363229Y-139287819D01*
X167396714Y-139349142D01*
X167391730Y-139418834D01*
X167349858Y-139474767D01*
X167284394Y-139499184D01*
X167275548Y-139499500D01*
X161624500Y-139499500D01*
X161557461Y-139479815D01*
X161511706Y-139427011D01*
X161500500Y-139375500D01*
X161500500Y-95199983D01*
X164999500Y-95199983D01*
X164999500Y-96800001D01*
X164999501Y-96800018D01*
X165010000Y-96902796D01*
X165010001Y-96902799D01*
X165033500Y-96973713D01*
X165065186Y-97069334D01*
X165157288Y-97218656D01*
X165281344Y-97342712D01*
X165323102Y-97368468D01*
X165329656Y-97372511D01*
X165376381Y-97424459D01*
X165387604Y-97493421D01*
X165359760Y-97557504D01*
X165358615Y-97558759D01*
X165358647Y-97558786D01*
X165355485Y-97562487D01*
X165355483Y-97562490D01*
X165351021Y-97568632D01*
X165216657Y-97753566D01*
X165109433Y-97964003D01*
X165036446Y-98188631D01*
X164999500Y-98421902D01*
X164999500Y-98658097D01*
X165036446Y-98891368D01*
X165109433Y-99115996D01*
X165198255Y-99290318D01*
X165216657Y-99326433D01*
X165355483Y-99517510D01*
X165522490Y-99684517D01*
X165713567Y-99823343D01*
X165812991Y-99874002D01*
X165924003Y-99930566D01*
X165924005Y-99930566D01*
X165924008Y-99930568D01*
X166044412Y-99969689D01*
X166148631Y-100003553D01*
X166381903Y-100040500D01*
X166381908Y-100040500D01*
X166618097Y-100040500D01*
X166851368Y-100003553D01*
X167075992Y-99930568D01*
X167286433Y-99823343D01*
X167477510Y-99684517D01*
X167644517Y-99517510D01*
X167783343Y-99326433D01*
X167890568Y-99115992D01*
X167963553Y-98891368D01*
X167979239Y-98792331D01*
X168000500Y-98658097D01*
X168000500Y-98421902D01*
X167963553Y-98188631D01*
X167914639Y-98038092D01*
X167890568Y-97964008D01*
X167890566Y-97964005D01*
X167890566Y-97964003D01*
X167823567Y-97832512D01*
X167783343Y-97753567D01*
X167644517Y-97562490D01*
X167644508Y-97562481D01*
X167641353Y-97558786D01*
X167643134Y-97557264D01*
X167614273Y-97504408D01*
X167619257Y-97434716D01*
X167661129Y-97378783D01*
X167670334Y-97372516D01*
X167718656Y-97342712D01*
X167842712Y-97218656D01*
X167934814Y-97069334D01*
X167989999Y-96902797D01*
X168000500Y-96800009D01*
X168000499Y-95199992D01*
X167989999Y-95097203D01*
X167934814Y-94930666D01*
X167842712Y-94781344D01*
X167718656Y-94657288D01*
X167569334Y-94565186D01*
X167402797Y-94510001D01*
X167402795Y-94510000D01*
X167300010Y-94499500D01*
X165699998Y-94499500D01*
X165699981Y-94499501D01*
X165597203Y-94510000D01*
X165597200Y-94510001D01*
X165430668Y-94565185D01*
X165430663Y-94565187D01*
X165281342Y-94657289D01*
X165157289Y-94781342D01*
X165065187Y-94930663D01*
X165065185Y-94930668D01*
X165037349Y-95014670D01*
X165010001Y-95097203D01*
X165010001Y-95097204D01*
X165010000Y-95097204D01*
X164999500Y-95199983D01*
X161500500Y-95199983D01*
X161500500Y-91313713D01*
X177149500Y-91313713D01*
X177149500Y-91526286D01*
X177176298Y-91695485D01*
X177182754Y-91736243D01*
X177233932Y-91893753D01*
X177248444Y-91938414D01*
X177344951Y-92127820D01*
X177472759Y-92303734D01*
X177471888Y-92304366D01*
X177498357Y-92363401D01*
X177499500Y-92380199D01*
X177499500Y-92999800D01*
X177479815Y-93066839D01*
X177470506Y-93079365D01*
X177344951Y-93252179D01*
X177248444Y-93441585D01*
X177182753Y-93643760D01*
X177149500Y-93853713D01*
X177149500Y-94066286D01*
X177179128Y-94253354D01*
X177182754Y-94276243D01*
X177248319Y-94478031D01*
X177248444Y-94478414D01*
X177344951Y-94667820D01*
X177469890Y-94839786D01*
X177620213Y-94990109D01*
X177792182Y-95115050D01*
X177800946Y-95119516D01*
X177851742Y-95167491D01*
X177868536Y-95235312D01*
X177845998Y-95301447D01*
X177800946Y-95340484D01*
X177792182Y-95344949D01*
X177620213Y-95469890D01*
X177469890Y-95620213D01*
X177344951Y-95792179D01*
X177248444Y-95981585D01*
X177182753Y-96183760D01*
X177149500Y-96393713D01*
X177149500Y-96606286D01*
X177180518Y-96802129D01*
X177182754Y-96816243D01*
X177233919Y-96973713D01*
X177248444Y-97018414D01*
X177344951Y-97207820D01*
X177469890Y-97379786D01*
X177620213Y-97530109D01*
X177792182Y-97655050D01*
X177800946Y-97659516D01*
X177851742Y-97707491D01*
X177868536Y-97775312D01*
X177845998Y-97841447D01*
X177800946Y-97880484D01*
X177792182Y-97884949D01*
X177620213Y-98009890D01*
X177469890Y-98160213D01*
X177344951Y-98332179D01*
X177248444Y-98521585D01*
X177182753Y-98723760D01*
X177149500Y-98933713D01*
X177149500Y-99146286D01*
X177178032Y-99326433D01*
X177182754Y-99356243D01*
X177235153Y-99517511D01*
X177248444Y-99558414D01*
X177344951Y-99747820D01*
X177469890Y-99919786D01*
X177620213Y-100070109D01*
X177792179Y-100195048D01*
X177792181Y-100195049D01*
X177792184Y-100195051D01*
X177981588Y-100291557D01*
X178183757Y-100357246D01*
X178393713Y-100390500D01*
X178393714Y-100390500D01*
X178606286Y-100390500D01*
X178606287Y-100390500D01*
X178816243Y-100357246D01*
X179018412Y-100291557D01*
X179207816Y-100195051D01*
X179292186Y-100133753D01*
X179379786Y-100070109D01*
X179379788Y-100070106D01*
X179379792Y-100070104D01*
X179530104Y-99919792D01*
X179530106Y-99919788D01*
X179530109Y-99919786D01*
X179655048Y-99747820D01*
X179655047Y-99747820D01*
X179655051Y-99747816D01*
X179751557Y-99558412D01*
X179817246Y-99356243D01*
X179850500Y-99146287D01*
X179850500Y-98933713D01*
X179817246Y-98723757D01*
X179751557Y-98521588D01*
X179655051Y-98332184D01*
X179655049Y-98332181D01*
X179655048Y-98332179D01*
X179530109Y-98160213D01*
X179379786Y-98009890D01*
X179207820Y-97884951D01*
X179207115Y-97884591D01*
X179199054Y-97880485D01*
X179148259Y-97832512D01*
X179131463Y-97764692D01*
X179153999Y-97698556D01*
X179199054Y-97659515D01*
X179207816Y-97655051D01*
X179229789Y-97639086D01*
X179379786Y-97530109D01*
X179379788Y-97530106D01*
X179379792Y-97530104D01*
X179530104Y-97379792D01*
X179530106Y-97379788D01*
X179530109Y-97379786D01*
X179655048Y-97207820D01*
X179655047Y-97207820D01*
X179655051Y-97207816D01*
X179751557Y-97018412D01*
X179817246Y-96816243D01*
X179850500Y-96606287D01*
X179850500Y-96393713D01*
X179817246Y-96183757D01*
X179751557Y-95981588D01*
X179655051Y-95792184D01*
X179655049Y-95792181D01*
X179655048Y-95792179D01*
X179530109Y-95620213D01*
X179379786Y-95469890D01*
X179207820Y-95344951D01*
X179207115Y-95344591D01*
X179199054Y-95340485D01*
X179148259Y-95292512D01*
X179131463Y-95224692D01*
X179153999Y-95158556D01*
X179199054Y-95119515D01*
X179207816Y-95115051D01*
X179285771Y-95058414D01*
X179379786Y-94990109D01*
X179379788Y-94990106D01*
X179379792Y-94990104D01*
X179530104Y-94839792D01*
X179530106Y-94839788D01*
X179530109Y-94839786D01*
X179655048Y-94667820D01*
X179655047Y-94667820D01*
X179655051Y-94667816D01*
X179751557Y-94478412D01*
X179817246Y-94276243D01*
X179850500Y-94066287D01*
X179850500Y-93853713D01*
X179817246Y-93643757D01*
X179751557Y-93441588D01*
X179655051Y-93252184D01*
X179655049Y-93252181D01*
X179655048Y-93252179D01*
X179527241Y-93076266D01*
X179528108Y-93075635D01*
X179501641Y-93016581D01*
X179500500Y-92999800D01*
X179500500Y-92380199D01*
X179520185Y-92313160D01*
X179529471Y-92300664D01*
X179655048Y-92127820D01*
X179655047Y-92127820D01*
X179655051Y-92127816D01*
X179751557Y-91938412D01*
X179817246Y-91736243D01*
X179850500Y-91526287D01*
X179850500Y-91313713D01*
X179817246Y-91103757D01*
X179751557Y-90901588D01*
X179655051Y-90712184D01*
X179655049Y-90712181D01*
X179655048Y-90712179D01*
X179530109Y-90540213D01*
X179379786Y-90389890D01*
X179207817Y-90264949D01*
X179198504Y-90260204D01*
X179147707Y-90212230D01*
X179130912Y-90144409D01*
X179153449Y-90078274D01*
X179198507Y-90039232D01*
X179207555Y-90034622D01*
X179261716Y-89995270D01*
X179261717Y-89995270D01*
X178629408Y-89362962D01*
X178692993Y-89345925D01*
X178807007Y-89280099D01*
X178900099Y-89187007D01*
X178965925Y-89072993D01*
X178982962Y-89009409D01*
X179615270Y-89641717D01*
X179615270Y-89641716D01*
X179654622Y-89587554D01*
X179751095Y-89398217D01*
X179816757Y-89196130D01*
X179816757Y-89196127D01*
X179850000Y-88986246D01*
X179850000Y-88773753D01*
X179816757Y-88563872D01*
X179816757Y-88563869D01*
X179751095Y-88361782D01*
X179654624Y-88172449D01*
X179615270Y-88118282D01*
X179615269Y-88118282D01*
X178982962Y-88750590D01*
X178965925Y-88687007D01*
X178900099Y-88572993D01*
X178807007Y-88479901D01*
X178692993Y-88414075D01*
X178629409Y-88397037D01*
X179298802Y-87727642D01*
X179360125Y-87694157D01*
X179374833Y-87695078D01*
X179374556Y-87692501D01*
X179457375Y-87683598D01*
X179592086Y-87633354D01*
X179592093Y-87633350D01*
X179707187Y-87547190D01*
X179707190Y-87547187D01*
X179793350Y-87432093D01*
X179793354Y-87432086D01*
X179843596Y-87297379D01*
X179843598Y-87297372D01*
X179849999Y-87237844D01*
X179850000Y-87237827D01*
X179850000Y-86590000D01*
X178933012Y-86590000D01*
X178965925Y-86532993D01*
X179000000Y-86405826D01*
X179000000Y-86274174D01*
X178965925Y-86147007D01*
X178933012Y-86090000D01*
X179850000Y-86090000D01*
X179850000Y-85442172D01*
X179849999Y-85442155D01*
X179843598Y-85382627D01*
X179843596Y-85382620D01*
X179793354Y-85247913D01*
X179793350Y-85247906D01*
X179707190Y-85132812D01*
X179707187Y-85132809D01*
X179592093Y-85046649D01*
X179592086Y-85046645D01*
X179457379Y-84996403D01*
X179457372Y-84996401D01*
X179397844Y-84990000D01*
X178750000Y-84990000D01*
X178750000Y-85906988D01*
X178692993Y-85874075D01*
X178565826Y-85840000D01*
X178434174Y-85840000D01*
X178307007Y-85874075D01*
X178250000Y-85906988D01*
X178250000Y-84990000D01*
X177602155Y-84990000D01*
X177542627Y-84996401D01*
X177542620Y-84996403D01*
X177407913Y-85046645D01*
X177407906Y-85046649D01*
X177292812Y-85132809D01*
X177292809Y-85132812D01*
X177206649Y-85247906D01*
X177206645Y-85247913D01*
X177156403Y-85382620D01*
X177156401Y-85382627D01*
X177150000Y-85442155D01*
X177150000Y-86090000D01*
X178066988Y-86090000D01*
X178034075Y-86147007D01*
X178000000Y-86274174D01*
X178000000Y-86405826D01*
X178034075Y-86532993D01*
X178066988Y-86590000D01*
X177150000Y-86590000D01*
X177150000Y-87237844D01*
X177156401Y-87297372D01*
X177156403Y-87297379D01*
X177206645Y-87432086D01*
X177206649Y-87432093D01*
X177292809Y-87547187D01*
X177292812Y-87547190D01*
X177407906Y-87633350D01*
X177407913Y-87633354D01*
X177542620Y-87683596D01*
X177542619Y-87683596D01*
X177625444Y-87692501D01*
X177625116Y-87695550D01*
X177642014Y-87694642D01*
X177701196Y-87727642D01*
X178370591Y-88397037D01*
X178307007Y-88414075D01*
X178192993Y-88479901D01*
X178099901Y-88572993D01*
X178034075Y-88687007D01*
X178017037Y-88750591D01*
X177384728Y-88118282D01*
X177384727Y-88118282D01*
X177345380Y-88172439D01*
X177248904Y-88361782D01*
X177183242Y-88563869D01*
X177183242Y-88563872D01*
X177150000Y-88773753D01*
X177150000Y-88986246D01*
X177183242Y-89196127D01*
X177183242Y-89196130D01*
X177248904Y-89398217D01*
X177345375Y-89587550D01*
X177384728Y-89641716D01*
X178017037Y-89009408D01*
X178034075Y-89072993D01*
X178099901Y-89187007D01*
X178192993Y-89280099D01*
X178307007Y-89345925D01*
X178370590Y-89362962D01*
X177738282Y-89995269D01*
X177738282Y-89995270D01*
X177792452Y-90034626D01*
X177792451Y-90034626D01*
X177801495Y-90039234D01*
X177852292Y-90087208D01*
X177869087Y-90155029D01*
X177846550Y-90221164D01*
X177801499Y-90260202D01*
X177792182Y-90264949D01*
X177620213Y-90389890D01*
X177469890Y-90540213D01*
X177344951Y-90712179D01*
X177248444Y-90901585D01*
X177182753Y-91103760D01*
X177149500Y-91313713D01*
X161500500Y-91313713D01*
X161500500Y-88381902D01*
X164999500Y-88381902D01*
X164999500Y-88618097D01*
X165036446Y-88851368D01*
X165109433Y-89075996D01*
X165170645Y-89196130D01*
X165216657Y-89286433D01*
X165355483Y-89477510D01*
X165522490Y-89644517D01*
X165713567Y-89783343D01*
X165812991Y-89834002D01*
X165924003Y-89890566D01*
X165924005Y-89890566D01*
X165924008Y-89890568D01*
X166044412Y-89929689D01*
X166148631Y-89963553D01*
X166381903Y-90000500D01*
X166381908Y-90000500D01*
X166618097Y-90000500D01*
X166851368Y-89963553D01*
X166897293Y-89948631D01*
X167075992Y-89890568D01*
X167286433Y-89783343D01*
X167477510Y-89644517D01*
X167644517Y-89477510D01*
X167783343Y-89286433D01*
X167890568Y-89075992D01*
X167963553Y-88851368D01*
X167989585Y-88687007D01*
X168000500Y-88618097D01*
X168000500Y-88381902D01*
X167963553Y-88148631D01*
X167890566Y-87924003D01*
X167834002Y-87812991D01*
X167783343Y-87713567D01*
X167644517Y-87522490D01*
X167644508Y-87522481D01*
X167641353Y-87518786D01*
X167643022Y-87517360D01*
X167613910Y-87464045D01*
X167618894Y-87394353D01*
X167660766Y-87338420D01*
X167669980Y-87332148D01*
X167718343Y-87302317D01*
X167842315Y-87178345D01*
X167934356Y-87029124D01*
X167934358Y-87029119D01*
X167989505Y-86862697D01*
X167989506Y-86862690D01*
X167999999Y-86759986D01*
X168000000Y-86759973D01*
X168000000Y-86210000D01*
X167048482Y-86210000D01*
X167059111Y-86191591D01*
X167100000Y-86038991D01*
X167100000Y-85881009D01*
X167059111Y-85728409D01*
X167048482Y-85710000D01*
X167999999Y-85710000D01*
X167999999Y-85160028D01*
X167999998Y-85160013D01*
X167989505Y-85057302D01*
X167934358Y-84890880D01*
X167934356Y-84890875D01*
X167842315Y-84741654D01*
X167718345Y-84617684D01*
X167569124Y-84525643D01*
X167569119Y-84525641D01*
X167402697Y-84470494D01*
X167402690Y-84470493D01*
X167299986Y-84460000D01*
X166750000Y-84460000D01*
X166750000Y-85411517D01*
X166731591Y-85400889D01*
X166578991Y-85360000D01*
X166421009Y-85360000D01*
X166268409Y-85400889D01*
X166250000Y-85411517D01*
X166250000Y-84460000D01*
X165700028Y-84460000D01*
X165700012Y-84460001D01*
X165597302Y-84470494D01*
X165430880Y-84525641D01*
X165430875Y-84525643D01*
X165281654Y-84617684D01*
X165157684Y-84741654D01*
X165065643Y-84890875D01*
X165065641Y-84890880D01*
X165010494Y-85057302D01*
X165010493Y-85057309D01*
X165000000Y-85160013D01*
X165000000Y-85710000D01*
X165951518Y-85710000D01*
X165940889Y-85728409D01*
X165900000Y-85881009D01*
X165900000Y-86038991D01*
X165940889Y-86191591D01*
X165951518Y-86210000D01*
X165000001Y-86210000D01*
X165000001Y-86759986D01*
X165010494Y-86862697D01*
X165065641Y-87029119D01*
X165065643Y-87029124D01*
X165157684Y-87178345D01*
X165281655Y-87302316D01*
X165281659Y-87302319D01*
X165330020Y-87332149D01*
X165376745Y-87384097D01*
X165387966Y-87453059D01*
X165360123Y-87517141D01*
X165358632Y-87518773D01*
X165358647Y-87518786D01*
X165355485Y-87522488D01*
X165355483Y-87522490D01*
X165295862Y-87604550D01*
X165216657Y-87713566D01*
X165109433Y-87924003D01*
X165036446Y-88148631D01*
X164999500Y-88381902D01*
X161500500Y-88381902D01*
X161500500Y-58975853D01*
X163354500Y-58975853D01*
X163354500Y-59133546D01*
X163385261Y-59288189D01*
X163385264Y-59288201D01*
X163424761Y-59383555D01*
X163434200Y-59431007D01*
X163434200Y-75821310D01*
X163458235Y-75942144D01*
X163458238Y-75942154D01*
X163469559Y-75969487D01*
X163472047Y-75975492D01*
X163505388Y-76055986D01*
X163534464Y-76099500D01*
X163538573Y-76105649D01*
X163573840Y-76158431D01*
X163573841Y-76158432D01*
X163573842Y-76158433D01*
X163660967Y-76245558D01*
X163660968Y-76245558D01*
X163668035Y-76252625D01*
X163668034Y-76252625D01*
X163668038Y-76252628D01*
X164538529Y-77123120D01*
X164572014Y-77184443D01*
X164568779Y-77249118D01*
X164536447Y-77348628D01*
X164499500Y-77581902D01*
X164499500Y-77818097D01*
X164536446Y-78051368D01*
X164609433Y-78275996D01*
X164709663Y-78472707D01*
X164716657Y-78486433D01*
X164855483Y-78677510D01*
X165022490Y-78844517D01*
X165213567Y-78983343D01*
X165275009Y-79014649D01*
X165424003Y-79090566D01*
X165424005Y-79090566D01*
X165424008Y-79090568D01*
X165544412Y-79129689D01*
X165648631Y-79163553D01*
X165881903Y-79200500D01*
X165881908Y-79200500D01*
X166118097Y-79200500D01*
X166351368Y-79163553D01*
X166394615Y-79149501D01*
X166575992Y-79090568D01*
X166786433Y-78983343D01*
X166977510Y-78844517D01*
X167144517Y-78677510D01*
X167283343Y-78486433D01*
X167390568Y-78275992D01*
X167463553Y-78051368D01*
X167463913Y-78049095D01*
X167500500Y-77818097D01*
X167500500Y-77581902D01*
X167463553Y-77348631D01*
X167414701Y-77198282D01*
X167390568Y-77124008D01*
X167390566Y-77124005D01*
X167390566Y-77124003D01*
X167283342Y-76913566D01*
X167233328Y-76844728D01*
X167144517Y-76722490D01*
X166977510Y-76555483D01*
X166942872Y-76530317D01*
X166900207Y-76474989D01*
X166894228Y-76405375D01*
X166926833Y-76343580D01*
X166942873Y-76329682D01*
X166977510Y-76304517D01*
X167144517Y-76137510D01*
X167283343Y-75946433D01*
X167390568Y-75735992D01*
X167463553Y-75511368D01*
X167478903Y-75414452D01*
X167500500Y-75278097D01*
X167500500Y-75041902D01*
X167463553Y-74808631D01*
X167432215Y-74712184D01*
X167431218Y-74709118D01*
X167429224Y-74639279D01*
X167461466Y-74583123D01*
X167887458Y-74157133D01*
X167955912Y-74054685D01*
X167984114Y-73986598D01*
X168003063Y-73940852D01*
X168027100Y-73820006D01*
X168027100Y-56499994D01*
X168003063Y-56379148D01*
X168003061Y-56379143D01*
X167983562Y-56332068D01*
X167983547Y-56332035D01*
X167983532Y-56331997D01*
X167955912Y-56265315D01*
X167932922Y-56230909D01*
X167887458Y-56162867D01*
X167887455Y-56162863D01*
X167461469Y-55736878D01*
X167427984Y-55675555D01*
X167431218Y-55610881D01*
X167463553Y-55511368D01*
X167490377Y-55342007D01*
X167500500Y-55278097D01*
X167500500Y-55041902D01*
X167463553Y-54808631D01*
X167390566Y-54584003D01*
X167283342Y-54373566D01*
X167144517Y-54182490D01*
X166977510Y-54015483D01*
X166942872Y-53990317D01*
X166900207Y-53934989D01*
X166894228Y-53865375D01*
X166926833Y-53803580D01*
X166942873Y-53789682D01*
X166977510Y-53764517D01*
X167144517Y-53597510D01*
X167283343Y-53406433D01*
X167390568Y-53195992D01*
X167463553Y-52971368D01*
X167500500Y-52738097D01*
X167500500Y-52501902D01*
X167463553Y-52268631D01*
X167390566Y-52044003D01*
X167283342Y-51833566D01*
X167144517Y-51642490D01*
X166977510Y-51475483D01*
X166918282Y-51432451D01*
X166875617Y-51377122D01*
X166867550Y-51322404D01*
X166869104Y-51302657D01*
X166211058Y-50644612D01*
X166231591Y-50639111D01*
X166368408Y-50560119D01*
X166480119Y-50448408D01*
X166559111Y-50311591D01*
X166564612Y-50291058D01*
X167222658Y-50949105D01*
X167222658Y-50949104D01*
X167282914Y-50866169D01*
X167282918Y-50866163D01*
X167390102Y-50655802D01*
X167463065Y-50431247D01*
X167500000Y-50198052D01*
X167500000Y-49961947D01*
X167463065Y-49728752D01*
X167390102Y-49504197D01*
X167282914Y-49293828D01*
X167222658Y-49210894D01*
X167222658Y-49210893D01*
X166564612Y-49868940D01*
X166559111Y-49848409D01*
X166480119Y-49711592D01*
X166368408Y-49599881D01*
X166231591Y-49520889D01*
X166211058Y-49515387D01*
X166869104Y-48857340D01*
X166866144Y-48819735D01*
X166866144Y-48800275D01*
X166869104Y-48762657D01*
X166211058Y-48104612D01*
X166231591Y-48099111D01*
X166368408Y-48020119D01*
X166480119Y-47908408D01*
X166559111Y-47771591D01*
X166564612Y-47751058D01*
X167222658Y-48409105D01*
X167222658Y-48409104D01*
X167282914Y-48326169D01*
X167282918Y-48326163D01*
X167390102Y-48115802D01*
X167463065Y-47891247D01*
X167500000Y-47658052D01*
X167500000Y-47421947D01*
X167463905Y-47194051D01*
X167463065Y-47188751D01*
X167459803Y-47178711D01*
X176229500Y-47178711D01*
X176229500Y-47421288D01*
X176261161Y-47661785D01*
X176323947Y-47896104D01*
X176375316Y-48020119D01*
X176416776Y-48120212D01*
X176538064Y-48330289D01*
X176538066Y-48330292D01*
X176538067Y-48330293D01*
X176685733Y-48522736D01*
X176685739Y-48522743D01*
X176857256Y-48694260D01*
X176857263Y-48694266D01*
X176907576Y-48732872D01*
X177049711Y-48841936D01*
X177259788Y-48963224D01*
X177483900Y-49056054D01*
X177718211Y-49118838D01*
X177898586Y-49142584D01*
X177958711Y-49150500D01*
X177958712Y-49150500D01*
X178201289Y-49150500D01*
X178249388Y-49144167D01*
X178441789Y-49118838D01*
X178676100Y-49056054D01*
X178900212Y-48963224D01*
X179110289Y-48841936D01*
X179302738Y-48694265D01*
X179474265Y-48522738D01*
X179621936Y-48330289D01*
X179743224Y-48120212D01*
X179836054Y-47896100D01*
X179898838Y-47661789D01*
X179930500Y-47421288D01*
X179930500Y-47178712D01*
X179898838Y-46938211D01*
X179836054Y-46703900D01*
X179743224Y-46479788D01*
X179621936Y-46269711D01*
X179507981Y-46121202D01*
X179474266Y-46077263D01*
X179474260Y-46077256D01*
X179302743Y-45905739D01*
X179302736Y-45905733D01*
X179110293Y-45758067D01*
X179110292Y-45758066D01*
X179110289Y-45758064D01*
X178900212Y-45636776D01*
X178838872Y-45611368D01*
X178676104Y-45543947D01*
X178441785Y-45481161D01*
X178201289Y-45449500D01*
X178201288Y-45449500D01*
X177958712Y-45449500D01*
X177958711Y-45449500D01*
X177718214Y-45481161D01*
X177483895Y-45543947D01*
X177259794Y-45636773D01*
X177259785Y-45636777D01*
X177049706Y-45758067D01*
X176857263Y-45905733D01*
X176857256Y-45905739D01*
X176685739Y-46077256D01*
X176685733Y-46077263D01*
X176538067Y-46269706D01*
X176416777Y-46479785D01*
X176416773Y-46479794D01*
X176323947Y-46703895D01*
X176261161Y-46938214D01*
X176229500Y-47178711D01*
X167459803Y-47178711D01*
X167390102Y-46964197D01*
X167282914Y-46753828D01*
X167222658Y-46670894D01*
X167222658Y-46670893D01*
X166564612Y-47328940D01*
X166559111Y-47308409D01*
X166480119Y-47171592D01*
X166368408Y-47059881D01*
X166231591Y-46980889D01*
X166211058Y-46975387D01*
X166649627Y-46536818D01*
X166710950Y-46503333D01*
X166737307Y-46500499D01*
X166800008Y-46500499D01*
X166902797Y-46489999D01*
X167069334Y-46434814D01*
X167218656Y-46342712D01*
X167342712Y-46218656D01*
X167434814Y-46069334D01*
X167489999Y-45902797D01*
X167500500Y-45800009D01*
X167500499Y-44768713D01*
X211674500Y-44768713D01*
X211674500Y-44981287D01*
X211707754Y-45191243D01*
X211768465Y-45378092D01*
X211773444Y-45393414D01*
X211869951Y-45582820D01*
X211994890Y-45754786D01*
X212145213Y-45905109D01*
X212317182Y-46030050D01*
X212325946Y-46034516D01*
X212376742Y-46082491D01*
X212393536Y-46150312D01*
X212370998Y-46216447D01*
X212325946Y-46255484D01*
X212317182Y-46259949D01*
X212145213Y-46384890D01*
X211994890Y-46535213D01*
X211869951Y-46707179D01*
X211773444Y-46896585D01*
X211707753Y-47098760D01*
X211674500Y-47308713D01*
X211674500Y-47521286D01*
X211696161Y-47658052D01*
X211707754Y-47731243D01*
X211768465Y-47918092D01*
X211773444Y-47933414D01*
X211869951Y-48122820D01*
X211994890Y-48294786D01*
X212145213Y-48445109D01*
X212317182Y-48570050D01*
X212325946Y-48574516D01*
X212376742Y-48622491D01*
X212393536Y-48690312D01*
X212370998Y-48756447D01*
X212325946Y-48795484D01*
X212317182Y-48799949D01*
X212145213Y-48924890D01*
X211994890Y-49075213D01*
X211869951Y-49247179D01*
X211773444Y-49436585D01*
X211707753Y-49638760D01*
X211674500Y-49848713D01*
X211674500Y-50061286D01*
X211696161Y-50198052D01*
X211707754Y-50271243D01*
X211768465Y-50458092D01*
X211773444Y-50473414D01*
X211869951Y-50662820D01*
X211994890Y-50834786D01*
X212145213Y-50985109D01*
X212317182Y-51110050D01*
X212325946Y-51114516D01*
X212376742Y-51162491D01*
X212393536Y-51230312D01*
X212370998Y-51296447D01*
X212325946Y-51335484D01*
X212317182Y-51339949D01*
X212145213Y-51464890D01*
X211994890Y-51615213D01*
X211869951Y-51787179D01*
X211773444Y-51976585D01*
X211707753Y-52178760D01*
X211698434Y-52237600D01*
X211674500Y-52388713D01*
X211674500Y-52601287D01*
X211707754Y-52811243D01*
X211768465Y-52998092D01*
X211773444Y-53013414D01*
X211869951Y-53202820D01*
X211994890Y-53374786D01*
X212145213Y-53525109D01*
X212317182Y-53650050D01*
X212325946Y-53654516D01*
X212376742Y-53702491D01*
X212393536Y-53770312D01*
X212370998Y-53836447D01*
X212325946Y-53875484D01*
X212317182Y-53879949D01*
X212145213Y-54004890D01*
X211994890Y-54155213D01*
X211869951Y-54327179D01*
X211773444Y-54516585D01*
X211707753Y-54718760D01*
X211706291Y-54727993D01*
X211674500Y-54928713D01*
X211674500Y-55141287D01*
X211707754Y-55351243D01*
X211768465Y-55538092D01*
X211773444Y-55553414D01*
X211869951Y-55742820D01*
X211994890Y-55914786D01*
X212108430Y-56028326D01*
X212141915Y-56089649D01*
X212136931Y-56159341D01*
X212095059Y-56215274D01*
X212064083Y-56232189D01*
X211932669Y-56281203D01*
X211932664Y-56281206D01*
X211817455Y-56367452D01*
X211817452Y-56367455D01*
X211731206Y-56482664D01*
X211731202Y-56482671D01*
X211680908Y-56617517D01*
X211674558Y-56676590D01*
X211674501Y-56677123D01*
X211674500Y-56677135D01*
X211674500Y-58472870D01*
X211674501Y-58472876D01*
X211680908Y-58532483D01*
X211731202Y-58667328D01*
X211731206Y-58667335D01*
X211817452Y-58782544D01*
X211817455Y-58782547D01*
X211932664Y-58868793D01*
X211932671Y-58868797D01*
X212067517Y-58919091D01*
X212067516Y-58919091D01*
X212074444Y-58919835D01*
X212127127Y-58925500D01*
X213922872Y-58925499D01*
X213982483Y-58919091D01*
X214117331Y-58868796D01*
X214232546Y-58782546D01*
X214318796Y-58667331D01*
X214369091Y-58532483D01*
X214375500Y-58472873D01*
X214375499Y-56677128D01*
X214369091Y-56617517D01*
X214358709Y-56589682D01*
X214318797Y-56482671D01*
X214318793Y-56482664D01*
X214232547Y-56367455D01*
X214232544Y-56367452D01*
X214117335Y-56281206D01*
X214117328Y-56281202D01*
X213985917Y-56232189D01*
X213929983Y-56190318D01*
X213905566Y-56124853D01*
X213920418Y-56056580D01*
X213941563Y-56028332D01*
X214055104Y-55914792D01*
X214180051Y-55742816D01*
X214276557Y-55553412D01*
X214342246Y-55351243D01*
X214375500Y-55141287D01*
X214375500Y-54928713D01*
X214342246Y-54718757D01*
X214276557Y-54516588D01*
X214180051Y-54327184D01*
X214180049Y-54327181D01*
X214180048Y-54327179D01*
X214055109Y-54155213D01*
X213904786Y-54004890D01*
X213732820Y-53879951D01*
X213732115Y-53879591D01*
X213724054Y-53875485D01*
X213673259Y-53827512D01*
X213656463Y-53759692D01*
X213678999Y-53693556D01*
X213724054Y-53654515D01*
X213732816Y-53650051D01*
X213754789Y-53634086D01*
X213904786Y-53525109D01*
X213904788Y-53525106D01*
X213904792Y-53525104D01*
X214055104Y-53374792D01*
X214055106Y-53374788D01*
X214055109Y-53374786D01*
X214180048Y-53202820D01*
X214180047Y-53202820D01*
X214180051Y-53202816D01*
X214276557Y-53013412D01*
X214342246Y-52811243D01*
X214375500Y-52601287D01*
X214375500Y-52388713D01*
X214342246Y-52178757D01*
X214276557Y-51976588D01*
X214180051Y-51787184D01*
X214180049Y-51787181D01*
X214180048Y-51787179D01*
X214055109Y-51615213D01*
X213904786Y-51464890D01*
X213732820Y-51339951D01*
X213732115Y-51339591D01*
X213724054Y-51335485D01*
X213673259Y-51287512D01*
X213656463Y-51219692D01*
X213678999Y-51153556D01*
X213724054Y-51114515D01*
X213732816Y-51110051D01*
X213775225Y-51079239D01*
X213904786Y-50985109D01*
X213904788Y-50985106D01*
X213904792Y-50985104D01*
X214055104Y-50834792D01*
X214055106Y-50834788D01*
X214055109Y-50834786D01*
X214180048Y-50662820D01*
X214180047Y-50662820D01*
X214180051Y-50662816D01*
X214276557Y-50473412D01*
X214342246Y-50271243D01*
X214375500Y-50061287D01*
X214375500Y-49848713D01*
X214342246Y-49638757D01*
X214276557Y-49436588D01*
X214180051Y-49247184D01*
X214180049Y-49247181D01*
X214180048Y-49247179D01*
X214055109Y-49075213D01*
X213904786Y-48924890D01*
X213732820Y-48799951D01*
X213732115Y-48799591D01*
X213724054Y-48795485D01*
X213673259Y-48747512D01*
X213656463Y-48679692D01*
X213678999Y-48613556D01*
X213724054Y-48574515D01*
X213732816Y-48570051D01*
X213759342Y-48550779D01*
X213904786Y-48445109D01*
X213904788Y-48445106D01*
X213904792Y-48445104D01*
X214055104Y-48294792D01*
X214055106Y-48294788D01*
X214055109Y-48294786D01*
X214180048Y-48122820D01*
X214180047Y-48122820D01*
X214180051Y-48122816D01*
X214276557Y-47933412D01*
X214342246Y-47731243D01*
X214375500Y-47521287D01*
X214375500Y-47308713D01*
X214354910Y-47178711D01*
X220649500Y-47178711D01*
X220649500Y-47421288D01*
X220681161Y-47661785D01*
X220743947Y-47896104D01*
X220795316Y-48020119D01*
X220836776Y-48120212D01*
X220958064Y-48330289D01*
X220958066Y-48330292D01*
X220958067Y-48330293D01*
X221105733Y-48522736D01*
X221105739Y-48522743D01*
X221277256Y-48694260D01*
X221277263Y-48694266D01*
X221327576Y-48732872D01*
X221469711Y-48841936D01*
X221679788Y-48963224D01*
X221903900Y-49056054D01*
X222138211Y-49118838D01*
X222318586Y-49142584D01*
X222378711Y-49150500D01*
X222378712Y-49150500D01*
X222621289Y-49150500D01*
X222669388Y-49144167D01*
X222861789Y-49118838D01*
X223096100Y-49056054D01*
X223320212Y-48963224D01*
X223530289Y-48841936D01*
X223722738Y-48694265D01*
X223894265Y-48522738D01*
X224041936Y-48330289D01*
X224163224Y-48120212D01*
X224256054Y-47896100D01*
X224318838Y-47661789D01*
X224350500Y-47421288D01*
X224350500Y-47178712D01*
X224318838Y-46938211D01*
X224256054Y-46703900D01*
X224163224Y-46479788D01*
X224041936Y-46269711D01*
X223927981Y-46121202D01*
X223894266Y-46077263D01*
X223894260Y-46077256D01*
X223722743Y-45905739D01*
X223722736Y-45905733D01*
X223530293Y-45758067D01*
X223530292Y-45758066D01*
X223530289Y-45758064D01*
X223320212Y-45636776D01*
X223258872Y-45611368D01*
X223096104Y-45543947D01*
X222861785Y-45481161D01*
X222621289Y-45449500D01*
X222621288Y-45449500D01*
X222378712Y-45449500D01*
X222378711Y-45449500D01*
X222138214Y-45481161D01*
X221903895Y-45543947D01*
X221679794Y-45636773D01*
X221679785Y-45636777D01*
X221469706Y-45758067D01*
X221277263Y-45905733D01*
X221277256Y-45905739D01*
X221105739Y-46077256D01*
X221105733Y-46077263D01*
X220958067Y-46269706D01*
X220836777Y-46479785D01*
X220836773Y-46479794D01*
X220743947Y-46703895D01*
X220681161Y-46938214D01*
X220649500Y-47178711D01*
X214354910Y-47178711D01*
X214342246Y-47098757D01*
X214276557Y-46896588D01*
X214180051Y-46707184D01*
X214180049Y-46707181D01*
X214180048Y-46707179D01*
X214055109Y-46535213D01*
X213904786Y-46384890D01*
X213732820Y-46259951D01*
X213732115Y-46259591D01*
X213724054Y-46255485D01*
X213673259Y-46207512D01*
X213656463Y-46139692D01*
X213678999Y-46073556D01*
X213724054Y-46034515D01*
X213732816Y-46030051D01*
X213754789Y-46014086D01*
X213904786Y-45905109D01*
X213904788Y-45905106D01*
X213904792Y-45905104D01*
X214055104Y-45754792D01*
X214055106Y-45754788D01*
X214055109Y-45754786D01*
X214180048Y-45582820D01*
X214180047Y-45582820D01*
X214180051Y-45582816D01*
X214276557Y-45393412D01*
X214342246Y-45191243D01*
X214375500Y-44981287D01*
X214375500Y-44768713D01*
X214342246Y-44558757D01*
X214276557Y-44356588D01*
X214180051Y-44167184D01*
X214180049Y-44167181D01*
X214180048Y-44167179D01*
X214055109Y-43995213D01*
X213904786Y-43844890D01*
X213732820Y-43719951D01*
X213543414Y-43623444D01*
X213543413Y-43623443D01*
X213543412Y-43623443D01*
X213341243Y-43557754D01*
X213341241Y-43557753D01*
X213341240Y-43557753D01*
X213179957Y-43532208D01*
X213131287Y-43524500D01*
X212918713Y-43524500D01*
X212870042Y-43532208D01*
X212708760Y-43557753D01*
X212506585Y-43623444D01*
X212317179Y-43719951D01*
X212145213Y-43844890D01*
X211994890Y-43995213D01*
X211869951Y-44167179D01*
X211773444Y-44356585D01*
X211707753Y-44558760D01*
X211687917Y-44684003D01*
X211674500Y-44768713D01*
X167500499Y-44768713D01*
X167500499Y-44199992D01*
X167489999Y-44097203D01*
X167434814Y-43930666D01*
X167342712Y-43781344D01*
X167218656Y-43657288D01*
X167069334Y-43565186D01*
X166902797Y-43510001D01*
X166902795Y-43510000D01*
X166800010Y-43499500D01*
X165199998Y-43499500D01*
X165199981Y-43499501D01*
X165097203Y-43510000D01*
X165097200Y-43510001D01*
X164930668Y-43565185D01*
X164930663Y-43565187D01*
X164781342Y-43657289D01*
X164657289Y-43781342D01*
X164565187Y-43930663D01*
X164565185Y-43930668D01*
X164545525Y-43990000D01*
X164510001Y-44097203D01*
X164510001Y-44097204D01*
X164510000Y-44097204D01*
X164499500Y-44199983D01*
X164499500Y-45800001D01*
X164499501Y-45800018D01*
X164510000Y-45902796D01*
X164510001Y-45902799D01*
X164565185Y-46069331D01*
X164565187Y-46069336D01*
X164573301Y-46082491D01*
X164657288Y-46218656D01*
X164781344Y-46342712D01*
X164930666Y-46434814D01*
X165097203Y-46489999D01*
X165199991Y-46500500D01*
X165262692Y-46500499D01*
X165329729Y-46520183D01*
X165350372Y-46536818D01*
X165788941Y-46975387D01*
X165768409Y-46980889D01*
X165631592Y-47059881D01*
X165519881Y-47171592D01*
X165440889Y-47308409D01*
X165435387Y-47328941D01*
X164777340Y-46670894D01*
X164717084Y-46753830D01*
X164609897Y-46964197D01*
X164536934Y-47188752D01*
X164500000Y-47421947D01*
X164500000Y-47658052D01*
X164536934Y-47891247D01*
X164609897Y-48115802D01*
X164717087Y-48326174D01*
X164777338Y-48409104D01*
X164777340Y-48409105D01*
X165435387Y-47751058D01*
X165440889Y-47771591D01*
X165519881Y-47908408D01*
X165631592Y-48020119D01*
X165768409Y-48099111D01*
X165788940Y-48104612D01*
X165130893Y-48762658D01*
X165133854Y-48800276D01*
X165133854Y-48819733D01*
X165130894Y-48857340D01*
X165788941Y-49515387D01*
X165768409Y-49520889D01*
X165631592Y-49599881D01*
X165519881Y-49711592D01*
X165440889Y-49848409D01*
X165435387Y-49868941D01*
X164777340Y-49210894D01*
X164717084Y-49293830D01*
X164609897Y-49504197D01*
X164536934Y-49728752D01*
X164500000Y-49961947D01*
X164500000Y-50198052D01*
X164536934Y-50431247D01*
X164609897Y-50655802D01*
X164717087Y-50866174D01*
X164777338Y-50949104D01*
X164777340Y-50949105D01*
X165435387Y-50291058D01*
X165440889Y-50311591D01*
X165519881Y-50448408D01*
X165631592Y-50560119D01*
X165768409Y-50639111D01*
X165788940Y-50644612D01*
X165130893Y-51302658D01*
X165132448Y-51322405D01*
X165118084Y-51390783D01*
X165081717Y-51432451D01*
X165022490Y-51475482D01*
X165022489Y-51475484D01*
X164855485Y-51642487D01*
X164855485Y-51642488D01*
X164855483Y-51642490D01*
X164846402Y-51654989D01*
X164716657Y-51833566D01*
X164609433Y-52044003D01*
X164536446Y-52268631D01*
X164499500Y-52501902D01*
X164499500Y-52738097D01*
X164536447Y-52971371D01*
X164568779Y-53070881D01*
X164570774Y-53140722D01*
X164538529Y-53196879D01*
X164328976Y-53406433D01*
X164165870Y-53569539D01*
X164165867Y-53569542D01*
X164137899Y-53597510D01*
X164078740Y-53656668D01*
X164054094Y-53693556D01*
X164052162Y-53696447D01*
X164024181Y-53738322D01*
X164010287Y-53759115D01*
X164010285Y-53759118D01*
X163976947Y-53839606D01*
X163976947Y-53839607D01*
X163969531Y-53857512D01*
X163963135Y-53872954D01*
X163957090Y-53903340D01*
X163957091Y-53903341D01*
X163957091Y-53903343D01*
X163946529Y-53956447D01*
X163944052Y-53968896D01*
X163939100Y-53993792D01*
X163939100Y-58194819D01*
X163919415Y-58261858D01*
X163866611Y-58307613D01*
X163862553Y-58309380D01*
X163775824Y-58345304D01*
X163775814Y-58345309D01*
X163644711Y-58432910D01*
X163644707Y-58432913D01*
X163533213Y-58544407D01*
X163533210Y-58544411D01*
X163445609Y-58675514D01*
X163445602Y-58675527D01*
X163385264Y-58821198D01*
X163385261Y-58821210D01*
X163354500Y-58975853D01*
X161500500Y-58975853D01*
X161500500Y-42601902D01*
X233499500Y-42601902D01*
X233499500Y-42838097D01*
X233536446Y-43071368D01*
X233609433Y-43295996D01*
X233713124Y-43499500D01*
X233716657Y-43506433D01*
X233855483Y-43697510D01*
X234022490Y-43864517D01*
X234057127Y-43889683D01*
X234099792Y-43945013D01*
X234105771Y-44014626D01*
X234073165Y-44076421D01*
X234057130Y-44090315D01*
X234047654Y-44097200D01*
X234022488Y-44115484D01*
X233855485Y-44282487D01*
X233855485Y-44282488D01*
X233855483Y-44282490D01*
X233795862Y-44364550D01*
X233716657Y-44473566D01*
X233609433Y-44684003D01*
X233536446Y-44908631D01*
X233499500Y-45141902D01*
X233499500Y-45378097D01*
X233536446Y-45611368D01*
X233609433Y-45835996D01*
X233708308Y-46030048D01*
X233716657Y-46046433D01*
X233855483Y-46237510D01*
X234022490Y-46404517D01*
X234057127Y-46429683D01*
X234099792Y-46485013D01*
X234105771Y-46554626D01*
X234073165Y-46616421D01*
X234057130Y-46630315D01*
X234039365Y-46643222D01*
X234022488Y-46655484D01*
X233855485Y-46822487D01*
X233855485Y-46822488D01*
X233855483Y-46822490D01*
X233795862Y-46904550D01*
X233716657Y-47013566D01*
X233609433Y-47224003D01*
X233536446Y-47448631D01*
X233499500Y-47681902D01*
X233499500Y-47918097D01*
X233536446Y-48151368D01*
X233609433Y-48375996D01*
X233684205Y-48522743D01*
X233716657Y-48586433D01*
X233855483Y-48777510D01*
X234022490Y-48944517D01*
X234057127Y-48969683D01*
X234099792Y-49025013D01*
X234105771Y-49094626D01*
X234073165Y-49156421D01*
X234057130Y-49170315D01*
X234039365Y-49183222D01*
X234022488Y-49195484D01*
X233855485Y-49362487D01*
X233855485Y-49362488D01*
X233855483Y-49362490D01*
X233795862Y-49444550D01*
X233716657Y-49553566D01*
X233609433Y-49764003D01*
X233536446Y-49988631D01*
X233499500Y-50221902D01*
X233499500Y-50458097D01*
X233536446Y-50691368D01*
X233609433Y-50915996D01*
X233708308Y-51110048D01*
X233716657Y-51126433D01*
X233855483Y-51317510D01*
X234022490Y-51484517D01*
X234057127Y-51509683D01*
X234099792Y-51565013D01*
X234105771Y-51634626D01*
X234073165Y-51696421D01*
X234057130Y-51710315D01*
X234039365Y-51723222D01*
X234022488Y-51735484D01*
X233855485Y-51902487D01*
X233855485Y-51902488D01*
X233855483Y-51902490D01*
X233795862Y-51984550D01*
X233716657Y-52093566D01*
X233609433Y-52304003D01*
X233536446Y-52528631D01*
X233499500Y-52761902D01*
X233499500Y-52998097D01*
X233536446Y-53231368D01*
X233609433Y-53455996D01*
X233681540Y-53597512D01*
X233716657Y-53666433D01*
X233855483Y-53857510D01*
X234022490Y-54024517D01*
X234057127Y-54049683D01*
X234099792Y-54105013D01*
X234105771Y-54174626D01*
X234073165Y-54236421D01*
X234057130Y-54250315D01*
X234039365Y-54263222D01*
X234022488Y-54275484D01*
X233855485Y-54442487D01*
X233855485Y-54442488D01*
X233855483Y-54442490D01*
X233795862Y-54524550D01*
X233716657Y-54633566D01*
X233609433Y-54844003D01*
X233536446Y-55068631D01*
X233499500Y-55301902D01*
X233499500Y-55538097D01*
X233536446Y-55771368D01*
X233609433Y-55995996D01*
X233708091Y-56189622D01*
X233716657Y-56206433D01*
X233855483Y-56397510D01*
X234022490Y-56564517D01*
X234057127Y-56589683D01*
X234099792Y-56645013D01*
X234105771Y-56714626D01*
X234073165Y-56776421D01*
X234057130Y-56790315D01*
X234039365Y-56803222D01*
X234022488Y-56815484D01*
X233855485Y-56982487D01*
X233855485Y-56982488D01*
X233855483Y-56982490D01*
X233795862Y-57064550D01*
X233716657Y-57173566D01*
X233609433Y-57384003D01*
X233536446Y-57608631D01*
X233499500Y-57841902D01*
X233499500Y-58078097D01*
X233536446Y-58311368D01*
X233609433Y-58535996D01*
X233716657Y-58746433D01*
X233855483Y-58937510D01*
X234022490Y-59104517D01*
X234057127Y-59129683D01*
X234099792Y-59185013D01*
X234105771Y-59254626D01*
X234073165Y-59316421D01*
X234057130Y-59330315D01*
X234039365Y-59343222D01*
X234022488Y-59355484D01*
X233855485Y-59522487D01*
X233855485Y-59522488D01*
X233855483Y-59522490D01*
X233795862Y-59604550D01*
X233716657Y-59713566D01*
X233609433Y-59924003D01*
X233536446Y-60148631D01*
X233499500Y-60381902D01*
X233499500Y-60618097D01*
X233536446Y-60851368D01*
X233609433Y-61075996D01*
X233716657Y-61286433D01*
X233855483Y-61477510D01*
X234022490Y-61644517D01*
X234057127Y-61669683D01*
X234099792Y-61725013D01*
X234105771Y-61794626D01*
X234073165Y-61856421D01*
X234057130Y-61870315D01*
X234039365Y-61883222D01*
X234022488Y-61895484D01*
X233855485Y-62062487D01*
X233855485Y-62062488D01*
X233855483Y-62062490D01*
X233795862Y-62144550D01*
X233716657Y-62253566D01*
X233609433Y-62464003D01*
X233536446Y-62688631D01*
X233499500Y-62921902D01*
X233499500Y-63158097D01*
X233536446Y-63391368D01*
X233609433Y-63615996D01*
X233716657Y-63826433D01*
X233855483Y-64017510D01*
X234022490Y-64184517D01*
X234057127Y-64209683D01*
X234099792Y-64265013D01*
X234105771Y-64334626D01*
X234073165Y-64396421D01*
X234057130Y-64410315D01*
X234039365Y-64423222D01*
X234022488Y-64435484D01*
X233855485Y-64602487D01*
X233855485Y-64602488D01*
X233855483Y-64602490D01*
X233795862Y-64684550D01*
X233716657Y-64793566D01*
X233609433Y-65004003D01*
X233536446Y-65228631D01*
X233499500Y-65461902D01*
X233499500Y-65698097D01*
X233536446Y-65931368D01*
X233609433Y-66155996D01*
X233716657Y-66366433D01*
X233855483Y-66557510D01*
X234022490Y-66724517D01*
X234057127Y-66749683D01*
X234099792Y-66805013D01*
X234105771Y-66874626D01*
X234073165Y-66936421D01*
X234057130Y-66950315D01*
X234039365Y-66963222D01*
X234022488Y-66975484D01*
X233855485Y-67142487D01*
X233855485Y-67142488D01*
X233855483Y-67142490D01*
X233821561Y-67189180D01*
X233716657Y-67333566D01*
X233609433Y-67544003D01*
X233536446Y-67768631D01*
X233499500Y-68001902D01*
X233499500Y-68238097D01*
X233536446Y-68471368D01*
X233609433Y-68695996D01*
X233677765Y-68830104D01*
X233716657Y-68906433D01*
X233855483Y-69097510D01*
X233855489Y-69097516D01*
X233858647Y-69101214D01*
X233856864Y-69102736D01*
X233885726Y-69155591D01*
X233880742Y-69225283D01*
X233838870Y-69281216D01*
X233829658Y-69287487D01*
X233781344Y-69317287D01*
X233657289Y-69441342D01*
X233565187Y-69590663D01*
X233565186Y-69590666D01*
X233510001Y-69757203D01*
X233510001Y-69757204D01*
X233510000Y-69757204D01*
X233499500Y-69859983D01*
X233499500Y-71460001D01*
X233499501Y-71460018D01*
X233510000Y-71562796D01*
X233510001Y-71562799D01*
X233562253Y-71720484D01*
X233565186Y-71729334D01*
X233657288Y-71878656D01*
X233781344Y-72002712D01*
X233930666Y-72094814D01*
X234097203Y-72149999D01*
X234199991Y-72160500D01*
X235800008Y-72160499D01*
X235902797Y-72149999D01*
X236069334Y-72094814D01*
X236218656Y-72002712D01*
X236342712Y-71878656D01*
X236434814Y-71729334D01*
X236489999Y-71562797D01*
X236500500Y-71460009D01*
X236500499Y-69859992D01*
X236489999Y-69757203D01*
X236434814Y-69590666D01*
X236342712Y-69441344D01*
X236218656Y-69317288D01*
X236218655Y-69317287D01*
X236170342Y-69287487D01*
X236123618Y-69235539D01*
X236112397Y-69166576D01*
X236140241Y-69102494D01*
X236141381Y-69101249D01*
X236141348Y-69101221D01*
X236144511Y-69097516D01*
X236144511Y-69097515D01*
X236144517Y-69097510D01*
X236283343Y-68906433D01*
X236390568Y-68695992D01*
X236463553Y-68471368D01*
X236468872Y-68437783D01*
X236500500Y-68238097D01*
X236500500Y-68001902D01*
X236463553Y-67768631D01*
X236390566Y-67544003D01*
X236283342Y-67333566D01*
X236144517Y-67142490D01*
X235977510Y-66975483D01*
X235942872Y-66950317D01*
X235900207Y-66894989D01*
X235894228Y-66825375D01*
X235926833Y-66763580D01*
X235942873Y-66749682D01*
X235977510Y-66724517D01*
X236144517Y-66557510D01*
X236283343Y-66366433D01*
X236390568Y-66155992D01*
X236463553Y-65931368D01*
X236500500Y-65698097D01*
X236500500Y-65461902D01*
X236463553Y-65228631D01*
X236390566Y-65004003D01*
X236283342Y-64793566D01*
X236144517Y-64602490D01*
X235977510Y-64435483D01*
X235942872Y-64410317D01*
X235900207Y-64354989D01*
X235894228Y-64285375D01*
X235926833Y-64223580D01*
X235942873Y-64209682D01*
X235977510Y-64184517D01*
X236144517Y-64017510D01*
X236283343Y-63826433D01*
X236390568Y-63615992D01*
X236463553Y-63391368D01*
X236466066Y-63375500D01*
X236500500Y-63158097D01*
X236500500Y-62921902D01*
X236463553Y-62688631D01*
X236390566Y-62464003D01*
X236283342Y-62253566D01*
X236144517Y-62062490D01*
X235977510Y-61895483D01*
X235942872Y-61870317D01*
X235900207Y-61814989D01*
X235894228Y-61745375D01*
X235926833Y-61683580D01*
X235942873Y-61669682D01*
X235977510Y-61644517D01*
X236144517Y-61477510D01*
X236283343Y-61286433D01*
X236390568Y-61075992D01*
X236463553Y-60851368D01*
X236500500Y-60618097D01*
X236500500Y-60381902D01*
X236463553Y-60148631D01*
X236390566Y-59924003D01*
X236334002Y-59812991D01*
X236283343Y-59713567D01*
X236144517Y-59522490D01*
X235977510Y-59355483D01*
X235942872Y-59330317D01*
X235900207Y-59274989D01*
X235894228Y-59205375D01*
X235926833Y-59143580D01*
X235942873Y-59129682D01*
X235977510Y-59104517D01*
X236144517Y-58937510D01*
X236283343Y-58746433D01*
X236390568Y-58535992D01*
X236463553Y-58311368D01*
X236471395Y-58261858D01*
X236500500Y-58078097D01*
X236500500Y-57841902D01*
X236463553Y-57608631D01*
X236390566Y-57384003D01*
X236283342Y-57173566D01*
X236144517Y-56982490D01*
X235977510Y-56815483D01*
X235942872Y-56790317D01*
X235900207Y-56734989D01*
X235894228Y-56665375D01*
X235926833Y-56603580D01*
X235942873Y-56589682D01*
X235977510Y-56564517D01*
X236144517Y-56397510D01*
X236283343Y-56206433D01*
X236390568Y-55995992D01*
X236463553Y-55771368D01*
X236488972Y-55610878D01*
X236500500Y-55538097D01*
X236500500Y-55301902D01*
X236463553Y-55068631D01*
X236390566Y-54844003D01*
X236326749Y-54718757D01*
X236283343Y-54633567D01*
X236144517Y-54442490D01*
X235977510Y-54275483D01*
X235942872Y-54250317D01*
X235900207Y-54194989D01*
X235894228Y-54125375D01*
X235926833Y-54063580D01*
X235942873Y-54049682D01*
X235977510Y-54024517D01*
X236144517Y-53857510D01*
X236283343Y-53666433D01*
X236390568Y-53455992D01*
X236463553Y-53231368D01*
X236468075Y-53202816D01*
X236500500Y-52998097D01*
X236500500Y-52761902D01*
X236463553Y-52528631D01*
X236390566Y-52304003D01*
X236283342Y-52093566D01*
X236247336Y-52044008D01*
X236144517Y-51902490D01*
X235977510Y-51735483D01*
X235942872Y-51710317D01*
X235900207Y-51654989D01*
X235894228Y-51585375D01*
X235926833Y-51523580D01*
X235942873Y-51509682D01*
X235951390Y-51503494D01*
X235977510Y-51484517D01*
X236144517Y-51317510D01*
X236283343Y-51126433D01*
X236390568Y-50915992D01*
X236463553Y-50691368D01*
X236484341Y-50560119D01*
X236500500Y-50458097D01*
X236500500Y-50221902D01*
X236463553Y-49988631D01*
X236390566Y-49764003D01*
X236283342Y-49553566D01*
X236144517Y-49362490D01*
X235977510Y-49195483D01*
X235942872Y-49170317D01*
X235900207Y-49114989D01*
X235894228Y-49045375D01*
X235926833Y-48983580D01*
X235942873Y-48969682D01*
X235951759Y-48963226D01*
X235977510Y-48944517D01*
X236144517Y-48777510D01*
X236283343Y-48586433D01*
X236390568Y-48375992D01*
X236463553Y-48151368D01*
X236484341Y-48020119D01*
X236500500Y-47918097D01*
X236500500Y-47681902D01*
X236463553Y-47448631D01*
X236417992Y-47308409D01*
X236390568Y-47224008D01*
X236390566Y-47224005D01*
X236390566Y-47224003D01*
X236283342Y-47013566D01*
X236144517Y-46822490D01*
X235977510Y-46655483D01*
X235942872Y-46630317D01*
X235900207Y-46574989D01*
X235894228Y-46505375D01*
X235926833Y-46443580D01*
X235942873Y-46429682D01*
X235977510Y-46404517D01*
X236144517Y-46237510D01*
X236283343Y-46046433D01*
X236390568Y-45835992D01*
X236463553Y-45611368D01*
X236468075Y-45582816D01*
X236500500Y-45378097D01*
X236500500Y-45141902D01*
X236463553Y-44908631D01*
X236390566Y-44684003D01*
X236283342Y-44473566D01*
X236144517Y-44282490D01*
X235977510Y-44115483D01*
X235942872Y-44090317D01*
X235900207Y-44034989D01*
X235894228Y-43965375D01*
X235926833Y-43903580D01*
X235942873Y-43889682D01*
X235977510Y-43864517D01*
X236144517Y-43697510D01*
X236283343Y-43506433D01*
X236390568Y-43295992D01*
X236463553Y-43071368D01*
X236500500Y-42838097D01*
X236500500Y-42601902D01*
X236463553Y-42368631D01*
X236390566Y-42144003D01*
X236283342Y-41933566D01*
X236144517Y-41742490D01*
X235977510Y-41575483D01*
X235786433Y-41436657D01*
X235575996Y-41329433D01*
X235351368Y-41256446D01*
X235118097Y-41219500D01*
X235118092Y-41219500D01*
X234881908Y-41219500D01*
X234881903Y-41219500D01*
X234648631Y-41256446D01*
X234424003Y-41329433D01*
X234213566Y-41436657D01*
X234104550Y-41515862D01*
X234022490Y-41575483D01*
X234022488Y-41575485D01*
X234022487Y-41575485D01*
X233855485Y-41742487D01*
X233855485Y-41742488D01*
X233855483Y-41742490D01*
X233795862Y-41824550D01*
X233716657Y-41933566D01*
X233609433Y-42144003D01*
X233536446Y-42368631D01*
X233499500Y-42601902D01*
X161500500Y-42601902D01*
X161500500Y-40624500D01*
X161520185Y-40557461D01*
X161572989Y-40511706D01*
X161624500Y-40500500D01*
X240375500Y-40500500D01*
X240442539Y-40520185D01*
G37*
%TD.AperFunction*%
%TA.AperFunction,Conductor*%
G36*
X187634075Y-78152993D02*
G01*
X187699901Y-78267007D01*
X187792993Y-78360099D01*
X187907007Y-78425925D01*
X187970589Y-78442962D01*
X187338282Y-79075269D01*
X187338282Y-79075270D01*
X187392449Y-79114624D01*
X187581782Y-79211095D01*
X187783870Y-79276757D01*
X187993754Y-79310000D01*
X188206246Y-79310000D01*
X188416127Y-79276757D01*
X188416130Y-79276757D01*
X188622854Y-79209588D01*
X188623206Y-79210672D01*
X188687313Y-79203779D01*
X188749793Y-79235052D01*
X188785447Y-79295140D01*
X188789300Y-79325809D01*
X188789300Y-93275971D01*
X188769615Y-93343010D01*
X188716811Y-93388765D01*
X188647653Y-93398709D01*
X188617848Y-93390532D01*
X188475001Y-93331364D01*
X188474989Y-93331361D01*
X188320345Y-93300600D01*
X188320342Y-93300600D01*
X188162658Y-93300600D01*
X188162655Y-93300600D01*
X188008010Y-93331361D01*
X188007998Y-93331364D01*
X187862327Y-93391702D01*
X187862314Y-93391709D01*
X187731211Y-93479310D01*
X187731207Y-93479313D01*
X187619713Y-93590807D01*
X187619710Y-93590811D01*
X187532109Y-93721914D01*
X187532102Y-93721927D01*
X187471764Y-93867598D01*
X187471761Y-93867610D01*
X187441000Y-94022253D01*
X187441000Y-94179946D01*
X187471761Y-94334589D01*
X187471764Y-94334601D01*
X187532102Y-94480272D01*
X187532109Y-94480284D01*
X187595102Y-94574559D01*
X187615980Y-94641236D01*
X187616000Y-94643450D01*
X187616000Y-103403206D01*
X187632829Y-103487816D01*
X187637623Y-103511917D01*
X187640036Y-103524048D01*
X187687186Y-103637883D01*
X187687187Y-103637885D01*
X187687188Y-103637886D01*
X187701826Y-103659792D01*
X187755642Y-103740333D01*
X187842767Y-103827458D01*
X187842770Y-103827460D01*
X187850855Y-103835545D01*
X190496884Y-106481574D01*
X190530369Y-106542897D01*
X190525385Y-106612589D01*
X190496889Y-106656931D01*
X190492616Y-106661204D01*
X190492610Y-106661211D01*
X190405009Y-106792314D01*
X190405002Y-106792327D01*
X190344664Y-106937998D01*
X190344661Y-106938010D01*
X190313900Y-107092653D01*
X190313900Y-107250346D01*
X190344661Y-107404989D01*
X190344664Y-107405001D01*
X190405002Y-107550672D01*
X190405009Y-107550684D01*
X190468002Y-107644959D01*
X190488880Y-107711636D01*
X190488900Y-107713850D01*
X190488900Y-115658847D01*
X190469215Y-115725886D01*
X190452581Y-115746528D01*
X186235428Y-119963681D01*
X186208500Y-119978384D01*
X186182682Y-119994977D01*
X186176481Y-119995868D01*
X186174105Y-119997166D01*
X186147747Y-120000000D01*
X186006355Y-120000000D01*
X185939316Y-119980315D01*
X185895870Y-119932295D01*
X185878146Y-119897510D01*
X185855051Y-119852184D01*
X185818189Y-119801447D01*
X185730109Y-119680213D01*
X185579786Y-119529890D01*
X185407820Y-119404951D01*
X185407115Y-119404591D01*
X185399054Y-119400485D01*
X185348259Y-119352512D01*
X185331463Y-119284692D01*
X185353999Y-119218556D01*
X185399054Y-119179515D01*
X185407816Y-119175051D01*
X185429789Y-119159086D01*
X185579786Y-119050109D01*
X185579788Y-119050106D01*
X185579792Y-119050104D01*
X185730104Y-118899792D01*
X185730106Y-118899788D01*
X185730109Y-118899786D01*
X185855048Y-118727820D01*
X185855047Y-118727820D01*
X185855051Y-118727816D01*
X185951557Y-118538412D01*
X186017246Y-118336243D01*
X186050500Y-118126287D01*
X186050500Y-117913713D01*
X186017246Y-117703757D01*
X185951557Y-117501588D01*
X185855051Y-117312184D01*
X185855049Y-117312181D01*
X185855048Y-117312179D01*
X185730109Y-117140213D01*
X185579786Y-116989890D01*
X185407820Y-116864951D01*
X185407115Y-116864591D01*
X185399054Y-116860485D01*
X185348259Y-116812512D01*
X185331463Y-116744692D01*
X185353999Y-116678556D01*
X185399054Y-116639515D01*
X185407816Y-116635051D01*
X185429789Y-116619086D01*
X185579786Y-116510109D01*
X185579788Y-116510106D01*
X185579792Y-116510104D01*
X185730104Y-116359792D01*
X185730106Y-116359788D01*
X185730109Y-116359786D01*
X185855048Y-116187820D01*
X185855047Y-116187820D01*
X185855051Y-116187816D01*
X185951557Y-115998412D01*
X186017246Y-115796243D01*
X186050500Y-115586287D01*
X186050500Y-115373713D01*
X186017246Y-115163757D01*
X185951557Y-114961588D01*
X185855051Y-114772184D01*
X185855049Y-114772181D01*
X185855048Y-114772179D01*
X185730109Y-114600213D01*
X185579786Y-114449890D01*
X185407820Y-114324951D01*
X185407115Y-114324591D01*
X185399054Y-114320485D01*
X185348259Y-114272512D01*
X185331463Y-114204692D01*
X185353999Y-114138556D01*
X185399054Y-114099515D01*
X185407816Y-114095051D01*
X185429789Y-114079086D01*
X185579786Y-113970109D01*
X185579788Y-113970106D01*
X185579792Y-113970104D01*
X185730104Y-113819792D01*
X185730106Y-113819788D01*
X185730109Y-113819786D01*
X185855048Y-113647820D01*
X185855047Y-113647820D01*
X185855051Y-113647816D01*
X185951557Y-113458412D01*
X186017246Y-113256243D01*
X186050500Y-113046287D01*
X186050500Y-112833713D01*
X186017246Y-112623757D01*
X186012179Y-112608162D01*
X186010182Y-112538321D01*
X186042426Y-112482162D01*
X186408731Y-112115857D01*
X186409791Y-112114898D01*
X186413627Y-112111061D01*
X186413633Y-112111058D01*
X186500758Y-112023933D01*
X186569211Y-111921486D01*
X186616363Y-111807652D01*
X186640400Y-111686806D01*
X186640400Y-78585501D01*
X186660085Y-78518462D01*
X186712889Y-78472707D01*
X186782047Y-78462763D01*
X186845603Y-78491788D01*
X186874885Y-78529206D01*
X186945375Y-78667550D01*
X186984728Y-78721716D01*
X187617037Y-78089408D01*
X187634075Y-78152993D01*
G37*
%TD.AperFunction*%
%TA.AperFunction,Conductor*%
G36*
X185308734Y-54117069D02*
G01*
X185364667Y-54158941D01*
X185389084Y-54224405D01*
X185389400Y-54233251D01*
X185389400Y-96225500D01*
X185369715Y-96292539D01*
X185316911Y-96338294D01*
X185265400Y-96349500D01*
X183802129Y-96349500D01*
X183802123Y-96349501D01*
X183742516Y-96355908D01*
X183607671Y-96406202D01*
X183607664Y-96406206D01*
X183492455Y-96492452D01*
X183492452Y-96492455D01*
X183406206Y-96607664D01*
X183406202Y-96607671D01*
X183355908Y-96742517D01*
X183349728Y-96800008D01*
X183349501Y-96802123D01*
X183349500Y-96802135D01*
X183349500Y-98597870D01*
X183349501Y-98597876D01*
X183355908Y-98657483D01*
X183406202Y-98792328D01*
X183406206Y-98792335D01*
X183492452Y-98907544D01*
X183492455Y-98907547D01*
X183607664Y-98993793D01*
X183607671Y-98993797D01*
X183652618Y-99010561D01*
X183742517Y-99044091D01*
X183802127Y-99050500D01*
X183812685Y-99050499D01*
X183879723Y-99070179D01*
X183900372Y-99086818D01*
X184570591Y-99757037D01*
X184507007Y-99774075D01*
X184392993Y-99839901D01*
X184299901Y-99932993D01*
X184234075Y-100047007D01*
X184217037Y-100110591D01*
X183584728Y-99478282D01*
X183584727Y-99478282D01*
X183545380Y-99532439D01*
X183448904Y-99721782D01*
X183383242Y-99923869D01*
X183383242Y-99923872D01*
X183350000Y-100133753D01*
X183350000Y-100346246D01*
X183383242Y-100556127D01*
X183383242Y-100556130D01*
X183448904Y-100758217D01*
X183545375Y-100947550D01*
X183584728Y-101001716D01*
X184217037Y-100369408D01*
X184234075Y-100432993D01*
X184299901Y-100547007D01*
X184392993Y-100640099D01*
X184507007Y-100705925D01*
X184570589Y-100722962D01*
X183938282Y-101355269D01*
X183938282Y-101355270D01*
X183992452Y-101394626D01*
X183992451Y-101394626D01*
X184001495Y-101399234D01*
X184052292Y-101447208D01*
X184069087Y-101515029D01*
X184046550Y-101581164D01*
X184001499Y-101620202D01*
X183992182Y-101624949D01*
X183820213Y-101749890D01*
X183669890Y-101900213D01*
X183544951Y-102072179D01*
X183448444Y-102261585D01*
X183382753Y-102463760D01*
X183349500Y-102673713D01*
X183349500Y-102886286D01*
X183382753Y-103096239D01*
X183448444Y-103298414D01*
X183545918Y-103489717D01*
X183558814Y-103558386D01*
X183532538Y-103623127D01*
X183523114Y-103633693D01*
X182858381Y-104298427D01*
X182797058Y-104331912D01*
X182727367Y-104326928D01*
X182671433Y-104285057D01*
X182647016Y-104219592D01*
X182646700Y-104210746D01*
X182646700Y-56727951D01*
X182666385Y-56660912D01*
X182683014Y-56640275D01*
X185177719Y-54145569D01*
X185239042Y-54112085D01*
X185308734Y-54117069D01*
G37*
%TD.AperFunction*%
%TA.AperFunction,Conductor*%
G36*
X186787842Y-75926510D02*
G01*
X186794208Y-75926238D01*
X186819238Y-75940848D01*
X186845603Y-75952889D01*
X186850427Y-75959054D01*
X186854549Y-75961460D01*
X186874884Y-75990305D01*
X186908350Y-76055986D01*
X186944951Y-76127820D01*
X187069890Y-76299786D01*
X187220213Y-76450109D01*
X187392179Y-76575048D01*
X187392181Y-76575049D01*
X187392184Y-76575051D01*
X187401493Y-76579794D01*
X187452290Y-76627766D01*
X187469087Y-76695587D01*
X187446552Y-76761722D01*
X187401505Y-76800760D01*
X187392446Y-76805376D01*
X187392440Y-76805380D01*
X187338282Y-76844727D01*
X187338282Y-76844728D01*
X187970591Y-77477037D01*
X187907007Y-77494075D01*
X187792993Y-77559901D01*
X187699901Y-77652993D01*
X187634075Y-77767007D01*
X187617037Y-77830591D01*
X186984728Y-77198282D01*
X186984727Y-77198282D01*
X186945380Y-77252440D01*
X186945378Y-77252443D01*
X186874884Y-77390794D01*
X186826910Y-77441589D01*
X186759089Y-77458384D01*
X186692954Y-77435846D01*
X186649503Y-77381131D01*
X186640400Y-77334498D01*
X186640400Y-76046602D01*
X186642194Y-76040489D01*
X186641019Y-76034227D01*
X186651921Y-76007365D01*
X186660085Y-75979563D01*
X186664898Y-75975392D01*
X186667295Y-75969487D01*
X186690991Y-75952782D01*
X186712889Y-75933808D01*
X186719193Y-75932901D01*
X186724402Y-75929230D01*
X186753359Y-75927988D01*
X186782047Y-75923864D01*
X186787842Y-75926510D01*
G37*
%TD.AperFunction*%
%TD*%
M02*
