M48
; DRILL file KiCad 10.0.3-10.0.3~ubuntu24.04.1 date 2026-06-02T07:27:02
; FORMAT={-:-/ absolute / metric / decimal}
; #@! TF.CreationDate,2026-06-02T07:27:02+02:00
; #@! TF.GenerationSoftware,Kicad,Pcbnew,10.0.3-10.0.3~ubuntu24.04.1
; #@! TF.FileFunction,Plated,1,2,PTH
FMAT,2
METRIC
; #@! TA.AperFunction,Plated,PTH,ViaDrill
T1C0.300
; #@! TA.AperFunction,Plated,PTH,ComponentDrill
T2C0.800
; #@! TA.AperFunction,Plated,PTH,ComponentDrill
T3C1.000
; #@! TA.AperFunction,Plated,PTH,ComponentDrill
T4C1.200
%
G90
G05
T1
X162.0Y-81.0
X162.0Y-91.0
X162.0Y-125.5
X162.5Y-42.0
X162.5Y-61.0
X162.5Y-139.0
X163.5Y-131.5
X164.155Y-59.055
X166.0Y-122.5
X166.5Y-125.5
X167.5Y-81.5
X168.5Y-69.0
X168.5Y-71.5
X170.5Y-74.0
X170.5Y-76.5
X171.0Y-59.5
X172.5Y-87.5
X174.0Y-82.0
X176.0Y-86.5
X176.5Y-89.0
X179.5Y-82.5
X180.5Y-65.5
X180.5Y-70.5
X180.5Y-76.5
X180.5Y-100.0
X181.0Y-89.5
X182.021Y-105.063
X183.5Y-42.0
X184.0Y-49.5
X184.0Y-65.0
X184.0Y-71.5
X184.0Y-86.5
X184.5Y-56.5
X184.5Y-79.0
X185.277Y-53.162
X186.729Y-77.189
X187.0Y-100.5
X187.0Y-102.0
X188.0Y-81.5
X188.0Y-88.5
X188.242Y-94.101
X189.5Y-43.0
X191.114Y-107.171
X191.5Y-66.5
X192.0Y-51.5
X195.5Y-74.5
X196.0Y-92.0
X196.5Y-79.0
X196.5Y-101.5
X198.03Y-84.994
X206.0Y-102.0
X210.0Y-43.5
X210.0Y-60.5
X210.0Y-92.0
X210.5Y-66.5
X210.5Y-71.5
X212.5Y-100.5
X212.882Y-123.891
X213.0Y-131.5
X213.0Y-137.5
X214.5Y-139.0
X216.0Y-131.5
X216.5Y-60.0
X217.0Y-67.5
X217.0Y-82.0
X217.5Y-71.5
X225.0Y-64.0
X226.5Y-104.0
X229.5Y-139.0
X230.0Y-70.5
X230.0Y-127.0
X230.5Y-59.5
X230.5Y-84.0
X232.0Y-105.5
X239.5Y-41.5
X239.5Y-66.0
X239.5Y-126.5
T2
X189.075Y-125.025
X189.075Y-129.075
X196.695Y-125.025
X196.695Y-129.075
X216.88Y-116.0
X224.5Y-116.0
T3
X163.92Y-134.96
X163.92Y-137.5
X164.0Y-110.84
X164.0Y-113.38
X164.0Y-115.92
X164.0Y-118.46
X164.0Y-121.0
X164.0Y-123.54
X166.46Y-134.96
X166.46Y-137.5
X169.0Y-134.96
X169.0Y-137.5
X171.54Y-134.96
X171.54Y-137.5
X174.08Y-134.96
X174.08Y-137.5
X176.62Y-134.96
X176.62Y-137.5
X178.5Y-86.34
X178.5Y-88.88
X178.5Y-91.42
X178.5Y-93.96
X178.5Y-96.5
X178.5Y-99.04
X184.7Y-97.7
X184.7Y-100.24
X184.7Y-102.78
X184.7Y-105.32
X184.7Y-107.86
X184.7Y-110.4
X184.7Y-112.94
X184.7Y-115.48
X184.7Y-118.02
X184.7Y-120.56
X184.7Y-123.1
X184.7Y-125.64
X184.7Y-128.18
X184.7Y-130.72
X184.7Y-133.26
X187.625Y-47.415
X187.625Y-49.955
X187.625Y-52.495
X187.625Y-55.035
X188.1Y-70.34
X188.1Y-72.88
X188.1Y-75.42
X188.1Y-77.96
X210.1Y-97.7
X210.1Y-100.24
X210.1Y-102.78
X210.1Y-105.32
X210.1Y-107.86
X210.1Y-110.4
X210.1Y-112.94
X210.1Y-115.48
X210.1Y-118.02
X210.1Y-120.56
X210.1Y-123.1
X210.1Y-125.64
X210.1Y-128.18
X210.1Y-130.72
X210.1Y-133.26
X213.025Y-44.875
X213.025Y-47.415
X213.025Y-49.955
X213.025Y-52.495
X213.025Y-55.035
X213.025Y-57.575
X213.5Y-67.8
X213.5Y-70.34
X213.5Y-72.88
X213.5Y-75.42
X213.5Y-77.96
X213.5Y-80.5
X215.5Y-92.0
X215.5Y-94.54
X215.5Y-97.08
X215.5Y-99.62
X227.5Y-92.96
X227.5Y-95.5
T4
X166.0Y-45.0
X166.0Y-47.54
X166.0Y-50.08
X166.0Y-52.62
X166.0Y-55.16
X166.0Y-57.7
X166.0Y-65.0
X166.0Y-67.54
X166.0Y-70.08
X166.0Y-72.62
X166.0Y-75.16
X166.0Y-77.7
X166.5Y-85.96
X166.5Y-88.5
X166.5Y-96.0
X166.5Y-98.54
X216.045Y-134.125
X218.585Y-134.125
X221.125Y-134.125
X223.665Y-134.125
X235.0Y-42.72
X235.0Y-45.26
X235.0Y-47.8
X235.0Y-50.34
X235.0Y-52.88
X235.0Y-55.42
X235.0Y-57.96
X235.0Y-60.5
X235.0Y-63.04
X235.0Y-65.58
X235.0Y-68.12
X235.0Y-70.66
X235.0Y-75.06
X235.0Y-77.6
X235.0Y-80.14
X235.0Y-82.68
X235.0Y-85.22
X235.0Y-87.76
X235.0Y-90.3
X235.0Y-92.84
X235.0Y-95.38
X235.0Y-97.92
X235.0Y-100.46
X235.0Y-103.0
X235.0Y-108.42
X235.0Y-110.96
X235.0Y-113.5
X235.0Y-118.92
X235.0Y-121.46
X235.0Y-124.0
X235.0Y-129.38
X235.0Y-131.92
X235.0Y-134.46
X235.0Y-137.0
M30
