%TF.GenerationSoftware,KiCad,Pcbnew,10.0.3-10.0.3~ubuntu24.04.1*%
%TF.CreationDate,2026-06-02T07:27:00+02:00*%
%TF.ProjectId,_V0_2-Scale_Module,5f56305f-322d-4536-9361-6c655f4d6f64,rev?*%
%TF.SameCoordinates,Original*%
%TF.FileFunction,Copper,L2,Bot*%
%TF.FilePolarity,Positive*%
%FSLAX46Y46*%
G04 Gerber Fmt 4.6, Leading zero omitted, Abs format (unit mm)*
G04 Created by KiCad (PCBNEW 10.0.3-10.0.3~ubuntu24.04.1) date 2026-06-02 07:27:00*
%MOMM*%
%LPD*%
G01*
G04 APERTURE LIST*
G04 Aperture macros list*
%AMRoundRect*
0 Rectangle with rounded corners*
0 $1 Rounding radius*
0 $2 $3 $4 $5 $6 $7 $8 $9 X,Y pos of 4 corners*
0 Add a 4 corners polygon primitive as box body*
4,1,4,$2,$3,$4,$5,$6,$7,$8,$9,$2,$3,0*
0 Add four circle primitives for the rounded corners*
1,1,$1+$1,$2,$3*
1,1,$1+$1,$4,$5*
1,1,$1+$1,$6,$7*
1,1,$1+$1,$8,$9*
0 Add four rect primitives between the rounded corners*
20,1,$1+$1,$2,$3,$4,$5,0*
20,1,$1+$1,$4,$5,$6,$7,0*
20,1,$1+$1,$6,$7,$8,$9,0*
20,1,$1+$1,$8,$9,$2,$3,0*%
G04 Aperture macros list end*
%TA.AperFunction,ComponentPad*%
%ADD10RoundRect,0.250000X0.750000X-0.750000X0.750000X0.750000X-0.750000X0.750000X-0.750000X-0.750000X0*%
%TD*%
%TA.AperFunction,ComponentPad*%
%ADD11C,2.000000*%
%TD*%
%TA.AperFunction,ComponentPad*%
%ADD12R,1.700000X1.700000*%
%TD*%
%TA.AperFunction,ComponentPad*%
%ADD13C,1.700000*%
%TD*%
%TA.AperFunction,ComponentPad*%
%ADD14RoundRect,0.250000X-0.750000X0.750000X-0.750000X-0.750000X0.750000X-0.750000X0.750000X0.750000X0*%
%TD*%
%TA.AperFunction,ComponentPad*%
%ADD15RoundRect,0.250000X-0.750000X-0.750000X0.750000X-0.750000X0.750000X0.750000X-0.750000X0.750000X0*%
%TD*%
%TA.AperFunction,ComponentPad*%
%ADD16C,1.600000*%
%TD*%
%TA.AperFunction,ViaPad*%
%ADD17C,0.600000*%
%TD*%
%TA.AperFunction,Conductor*%
%ADD18C,0.250000*%
%TD*%
%TA.AperFunction,Conductor*%
%ADD19C,1.000000*%
%TD*%
G04 APERTURE END LIST*
D10*
%TO.P,J12,1,Pin_1_1*%
%TO.N,Net-(J12-Pin_1)*%
X235000000Y-103000000D03*
D11*
%TO.P,J12,2,Pin_2_2*%
X235000000Y-100460000D03*
%TO.P,J12,3,Pin_3_3*%
%TO.N,Net-(J12-Pin_3)*%
X235000000Y-97920000D03*
%TO.P,J12,4,Pin_4_4*%
X235000000Y-95380000D03*
%TO.P,J12,5,Pin_5_5*%
%TO.N,Net-(J12-Pin_5)*%
X235000000Y-92840000D03*
%TO.P,J12,6,Pin_6_6*%
X235000000Y-90300000D03*
%TO.P,J12,7,Pin_7_7*%
%TO.N,Net-(J12-Pin_7)*%
X235000000Y-87760000D03*
%TO.P,J12,8,Pin_8_8*%
X235000000Y-85220000D03*
%TO.P,J12,9,Pin_9_9*%
%TO.N,Net-(J12-Pin_9)*%
X235000000Y-82680000D03*
%TO.P,J12,10,Pin_10_10*%
%TO.N,Net-(J12-Pin_10)*%
X235000000Y-80140000D03*
%TO.P,J12,11,Pin_11_11*%
%TO.N,Net-(J12-Pin_11)*%
X235000000Y-77600000D03*
%TO.P,J12,12,Pin_12_12*%
%TO.N,Net-(J12-Pin_12)*%
X235000000Y-75060000D03*
%TD*%
D10*
%TO.P,J14,1,Pin_1_1*%
%TO.N,/3.3V*%
X235000000Y-124000000D03*
D11*
%TO.P,J14,2,Pin_2_2*%
%TO.N,GND*%
X235000000Y-121460000D03*
%TO.P,J14,3,Pin_3_3*%
%TO.N,/GPIO4*%
X235000000Y-118920000D03*
%TD*%
D12*
%TO.P,J1,1,Pin_1_1*%
%TO.N,/3.3V*%
X184700000Y-97700000D03*
D13*
%TO.P,J1,2,Pin_2_2*%
%TO.N,GND*%
X184700000Y-100240000D03*
%TO.P,J1,3,Pin_3_3*%
%TO.N,/GPIO15*%
X184700000Y-102780000D03*
%TO.P,J1,4,Pin_4_4*%
%TO.N,/GPIO2*%
X184700000Y-105320000D03*
%TO.P,J1,5,Pin_5_5*%
%TO.N,/GPIO4*%
X184700000Y-107860000D03*
%TO.P,J1,6,Pin_6_6*%
%TO.N,/GPIO16*%
X184700000Y-110400000D03*
%TO.P,J1,7,Pin_7_7*%
%TO.N,/GPIO17*%
X184700000Y-112940000D03*
%TO.P,J1,8,Pin_8_8*%
%TO.N,/GPIO5*%
X184700000Y-115480000D03*
%TO.P,J1,9,Pin_9_9*%
%TO.N,/GPIO18*%
X184700000Y-118020000D03*
%TO.P,J1,10,Pin_10_10*%
%TO.N,/GPIO19*%
X184700000Y-120560000D03*
%TO.P,J1,11,Pin_11_11*%
%TO.N,/GPIO21*%
X184700000Y-123100000D03*
%TO.P,J1,12,Pin_12_12*%
%TO.N,/ESP32-RX0*%
X184700000Y-125640000D03*
%TO.P,J1,13,Pin_13_13*%
%TO.N,/ESP32-TX0*%
X184700000Y-128180000D03*
%TO.P,J1,14,Pin_14_14*%
%TO.N,/GPIO22*%
X184700000Y-130720000D03*
%TO.P,J1,15,Pin_15_15*%
%TO.N,/GPIO23*%
X184700000Y-133260000D03*
%TD*%
D14*
%TO.P,J10,1,Pin_1_1*%
%TO.N,GND*%
X166500000Y-85960000D03*
D11*
%TO.P,J10,2,Pin_2_2*%
%TO.N,/3.3V*%
X166500000Y-88500000D03*
%TD*%
D15*
%TO.P,J20,1,Pin_1_1*%
%TO.N,/3.3V*%
X216045000Y-134125000D03*
D11*
%TO.P,J20,2,Pin_2_2*%
%TO.N,GND*%
X218585000Y-134125000D03*
%TO.P,J20,3,Pin_3_3*%
%TO.N,/GPIO21*%
X221125000Y-134125000D03*
%TO.P,J20,4,Pin_4_4*%
%TO.N,/GPIO22*%
X223665000Y-134125000D03*
%TD*%
D12*
%TO.P,J9,1,Pin_1_1*%
%TO.N,GND*%
X164000000Y-123540000D03*
D13*
%TO.P,J9,2,Pin_2_2*%
%TO.N,/3.3V*%
X164000000Y-121000000D03*
%TO.P,J9,3,Pin_3_3*%
%TO.N,/GPIO23*%
X164000000Y-118460000D03*
%TO.P,J9,4,Pin_4_4*%
%TO.N,/GPIO19*%
X164000000Y-115920000D03*
%TO.P,J9,5,Pin_5_5*%
%TO.N,/GPIO18*%
X164000000Y-113380000D03*
%TO.P,J9,6,Pin_6_6*%
%TO.N,/GPIO5*%
X164000000Y-110840000D03*
%TD*%
D16*
%TO.P,SCL-4.7k1,1*%
%TO.N,/3.3V*%
X189075000Y-129075000D03*
%TO.P,SCL-4.7k1,2*%
%TO.N,/GPIO22*%
X196695000Y-129075000D03*
%TD*%
D12*
%TO.P,J5,1,Pin_1_1*%
%TO.N,/GPIO22*%
X215500000Y-99620000D03*
D13*
%TO.P,J5,2,Pin_2_2*%
%TO.N,/GPIO21*%
X215500000Y-97080000D03*
%TO.P,J5,3,Pin_3_3*%
%TO.N,/3.3V*%
X215500000Y-94540000D03*
%TO.P,J5,4,Pin_4_4*%
%TO.N,GND*%
X215500000Y-92000000D03*
%TD*%
D10*
%TO.P,J11,1,Pin_1_1*%
%TO.N,Net-(J11-Pin_1)*%
X235000000Y-70660000D03*
D11*
%TO.P,J11,2,Pin_2_2*%
X235000000Y-68120000D03*
%TO.P,J11,3,Pin_3_3*%
%TO.N,Net-(J11-Pin_3)*%
X235000000Y-65580000D03*
%TO.P,J11,4,Pin_4_4*%
X235000000Y-63040000D03*
%TO.P,J11,5,Pin_5_5*%
%TO.N,Net-(J11-Pin_5)*%
X235000000Y-60500000D03*
%TO.P,J11,6,Pin_6_6*%
X235000000Y-57960000D03*
%TO.P,J11,7,Pin_7_7*%
%TO.N,Net-(J11-Pin_7)*%
X235000000Y-55420000D03*
%TO.P,J11,8,Pin_8_8*%
X235000000Y-52880000D03*
%TO.P,J11,9,Pin_9_9*%
%TO.N,Net-(J11-Pin_9)*%
X235000000Y-50340000D03*
%TO.P,J11,10,Pin_10_10*%
%TO.N,Net-(J11-Pin_10)*%
X235000000Y-47800000D03*
%TO.P,J11,11,Pin_11_11*%
%TO.N,Net-(J11-Pin_11)*%
X235000000Y-45260000D03*
%TO.P,J11,12,Pin_12_12*%
%TO.N,Net-(J11-Pin_12)*%
X235000000Y-42720000D03*
%TD*%
D14*
%TO.P,J16,1,Pin_1_1*%
%TO.N,/3.3V*%
X166000000Y-65000000D03*
D11*
%TO.P,J16,2,Pin_2_2*%
X166000000Y-67540000D03*
%TO.P,J16,3,Pin_3_3*%
%TO.N,GND*%
X166000000Y-70080000D03*
%TO.P,J16,4,Pin_4_4*%
%TO.N,/GPIO14*%
X166000000Y-72620000D03*
%TO.P,J16,5,Pin_5_5*%
%TO.N,/GPIO13*%
X166000000Y-75160000D03*
%TO.P,J16,6,Pin_6_6*%
%TO.N,/GPIO34*%
X166000000Y-77700000D03*
%TD*%
D10*
%TO.P,J13,1,Pin_1_1*%
%TO.N,/3.3V*%
X235000000Y-113500000D03*
D11*
%TO.P,J13,2,Pin_2_2*%
%TO.N,GND*%
X235000000Y-110960000D03*
%TO.P,J13,3,Pin_3_3*%
%TO.N,/GPIO4*%
X235000000Y-108420000D03*
%TD*%
D10*
%TO.P,J15,1,Pin_1_1*%
%TO.N,/3.3V*%
X235000000Y-137000000D03*
D11*
%TO.P,J15,2,Pin_2_2*%
%TO.N,GND*%
X235000000Y-134460000D03*
%TO.P,J15,3,Pin_3_3*%
%TO.N,/GPIO21*%
X235000000Y-131920000D03*
%TO.P,J15,4,Pin_4_4*%
%TO.N,/GPIO22*%
X235000000Y-129380000D03*
%TD*%
D14*
%TO.P,J17,1,Pin_1_1*%
%TO.N,/GPIO21*%
X166500000Y-96000000D03*
D11*
%TO.P,J17,2,Pin_2_2*%
%TO.N,/GPIO22*%
X166500000Y-98540000D03*
%TD*%
D16*
%TO.P,1W-4.7k1,1*%
%TO.N,/3.3V*%
X216880000Y-116000000D03*
%TO.P,1W-4.7k1,2*%
%TO.N,/GPIO4*%
X224500000Y-116000000D03*
%TD*%
D12*
%TO.P,J8,1,Pin_1_1*%
%TO.N,Net-(J12-Pin_9)*%
X213500000Y-80500000D03*
D13*
%TO.P,J8,2,Pin_2_2*%
%TO.N,Net-(J12-Pin_10)*%
X213500000Y-77960000D03*
%TO.P,J8,3,Pin_3_3*%
%TO.N,Net-(J12-Pin_11)*%
X213500000Y-75420000D03*
%TO.P,J8,4,Pin_4_4*%
%TO.N,Net-(J12-Pin_12)*%
X213500000Y-72880000D03*
%TO.P,J8,5,Pin_5_5*%
%TO.N,unconnected-(J8-Pin_5-Pad5)*%
X213500000Y-70340000D03*
%TO.P,J8,6,Pin_6_6*%
%TO.N,unconnected-(J8-Pin_6-Pad6)*%
X213500000Y-67800000D03*
%TD*%
D12*
%TO.P,J4,1,Pin_1_1*%
%TO.N,/3.3V*%
X187625000Y-47415000D03*
D13*
%TO.P,J4,2,Pin_2_2*%
%TO.N,/GPIO17*%
X187625000Y-49955000D03*
%TO.P,J4,3,Pin_3_3*%
%TO.N,/GPIO16*%
X187625000Y-52495000D03*
%TO.P,J4,4,Pin_4_4*%
%TO.N,GND*%
X187625000Y-55035000D03*
%TD*%
D16*
%TO.P,SDA-4.7k1,1*%
%TO.N,/3.3V*%
X189075000Y-125025000D03*
%TO.P,SDA-4.7k1,2*%
%TO.N,/GPIO21*%
X196695000Y-125025000D03*
%TD*%
D12*
%TO.P,J7,1,Pin_1_1*%
%TO.N,Net-(J11-Pin_9)*%
X213025000Y-57575000D03*
D13*
%TO.P,J7,2,Pin_2_2*%
%TO.N,Net-(J11-Pin_10)*%
X213025000Y-55035000D03*
%TO.P,J7,3,Pin_3_3*%
%TO.N,Net-(J11-Pin_11)*%
X213025000Y-52495000D03*
%TO.P,J7,4,Pin_4_4*%
%TO.N,Net-(J11-Pin_12)*%
X213025000Y-49955000D03*
%TO.P,J7,5,Pin_5_5*%
%TO.N,unconnected-(J7-Pin_5-Pad5)*%
X213025000Y-47415000D03*
%TO.P,J7,6,Pin_6_6*%
%TO.N,unconnected-(J7-Pin_6-Pad6)*%
X213025000Y-44875000D03*
%TD*%
D12*
%TO.P,J18,1,Pin_1_1*%
%TO.N,/3.3V*%
X176620000Y-134960000D03*
D13*
%TO.P,J18,2,Pin_2_2*%
%TO.N,GND*%
X176620000Y-137500000D03*
%TO.P,J18,3,Pin_3_3*%
%TO.N,/GPIO2*%
X174080000Y-134960000D03*
%TO.P,J18,4,Pin_4_4*%
%TO.N,/GPIO12*%
X174080000Y-137500000D03*
%TO.P,J18,5,Pin_5_5*%
%TO.N,/GPIO22*%
X171540000Y-134960000D03*
%TO.P,J18,6,Pin_6_6*%
%TO.N,/GPIO15*%
X171540000Y-137500000D03*
%TO.P,J18,7,Pin_7_7*%
%TO.N,/GPIO26*%
X169000000Y-134960000D03*
%TO.P,J18,8,Pin_8_8*%
%TO.N,/GPIO25*%
X169000000Y-137500000D03*
%TO.P,J18,9,Pin_9_9*%
%TO.N,/ESP32-TX0*%
X166460000Y-134960000D03*
%TO.P,J18,10,Pin_10_10*%
%TO.N,/GPIO35*%
X166460000Y-137500000D03*
%TO.P,J18,11,Pin_11_11*%
%TO.N,/ESP32-RX0*%
X163920000Y-134960000D03*
%TO.P,J18,12,Pin_12_12*%
%TO.N,/EN_ESP32*%
X163920000Y-137500000D03*
%TD*%
D12*
%TO.P,J19,1,Pin_1_1*%
%TO.N,GND*%
X178500000Y-86340000D03*
D13*
%TO.P,J19,2,Pin_2_2*%
X178500000Y-88880000D03*
%TO.P,J19,3,Pin_3_3*%
%TO.N,/3.3V*%
X178500000Y-91420000D03*
%TO.P,J19,4,Pin_4_4*%
X178500000Y-93960000D03*
%TO.P,J19,5,Pin_5_5*%
%TO.N,/GPIO21*%
X178500000Y-96500000D03*
%TO.P,J19,6,Pin_6_6*%
%TO.N,/GPIO22*%
X178500000Y-99040000D03*
%TD*%
D14*
%TO.P,J6,1,Pin_1_1*%
%TO.N,/3.3V*%
X166000000Y-45000000D03*
D11*
%TO.P,J6,2,Pin_2_2*%
%TO.N,GND*%
X166000000Y-47540000D03*
%TO.P,J6,3,Pin_3_3*%
X166000000Y-50080000D03*
%TO.P,J6,4,Pin_4_4*%
%TO.N,/GPIO14*%
X166000000Y-52620000D03*
%TO.P,J6,5,Pin_5_5*%
%TO.N,/GPIO13*%
X166000000Y-55160000D03*
%TO.P,J6,6,Pin_6_6*%
%TO.N,/GPIO34*%
X166000000Y-57700000D03*
%TD*%
D12*
%TO.P,J3,1,Pin_1_1*%
%TO.N,/3.3V*%
X188100000Y-70340000D03*
D13*
%TO.P,J3,2,Pin_2_2*%
%TO.N,/GPIO33*%
X188100000Y-72880000D03*
%TO.P,J3,3,Pin_3_3*%
%TO.N,/GPIO32*%
X188100000Y-75420000D03*
%TO.P,J3,4,Pin_4_4*%
%TO.N,GND*%
X188100000Y-77960000D03*
%TD*%
D12*
%TO.P,J2,1,Pin_1_1*%
%TO.N,unconnected-(J2-Pin_1-Pad1)*%
X210100000Y-97700000D03*
D13*
%TO.P,J2,2,Pin_2_2*%
%TO.N,GND*%
X210100000Y-100240000D03*
%TO.P,J2,3,Pin_3_3*%
%TO.N,/GPIO13*%
X210100000Y-102780000D03*
%TO.P,J2,4,Pin_4_4*%
%TO.N,/GPIO12*%
X210100000Y-105320000D03*
%TO.P,J2,5,Pin_5_5*%
%TO.N,/GPIO14*%
X210100000Y-107860000D03*
%TO.P,J2,6,Pin_6_6*%
%TO.N,/GPIO27*%
X210100000Y-110400000D03*
%TO.P,J2,7,Pin_7_7*%
%TO.N,/GPIO26*%
X210100000Y-112940000D03*
%TO.P,J2,8,Pin_8_8*%
%TO.N,/GPIO25*%
X210100000Y-115480000D03*
%TO.P,J2,9,Pin_9_9*%
%TO.N,/GPIO33*%
X210100000Y-118020000D03*
%TO.P,J2,10,Pin_10_10*%
%TO.N,/GPIO32*%
X210100000Y-120560000D03*
%TO.P,J2,11,Pin_11_11*%
%TO.N,/GPIO35*%
X210100000Y-123100000D03*
%TO.P,J2,12,Pin_12_12*%
%TO.N,/GPIO34*%
X210100000Y-125640000D03*
%TO.P,J2,13,Pin_13_13*%
%TO.N,unconnected-(J2-Pin_13-Pad13)*%
X210100000Y-128180000D03*
%TO.P,J2,14,Pin_14_14*%
%TO.N,unconnected-(J2-Pin_14-Pad14)*%
X210100000Y-130720000D03*
%TO.P,J2,15,Pin_15_15*%
%TO.N,/EN_ESP32*%
X210100000Y-133260000D03*
%TD*%
D12*
%TO.P,SW1,1,1_1*%
%TO.N,GND*%
X227500000Y-92960000D03*
D13*
%TO.P,SW1,2,2_2*%
%TO.N,/GPIO27*%
X227500000Y-95500000D03*
%TD*%
D17*
%TO.N,GND*%
X210000000Y-43500000D03*
X162000000Y-81000000D03*
X179500000Y-82500000D03*
X192000000Y-51500000D03*
X184000000Y-71500000D03*
X232000000Y-105500000D03*
X226500000Y-104000000D03*
X188000000Y-81500000D03*
X162500000Y-139000000D03*
X191500000Y-66500000D03*
X184000000Y-49500000D03*
X196500000Y-101500000D03*
X163500000Y-131500000D03*
X187000000Y-100500000D03*
X210500000Y-66500000D03*
X216500000Y-60000000D03*
X210000000Y-92000000D03*
X210500000Y-71500000D03*
X184000000Y-86500000D03*
X187000000Y-102000000D03*
X225000000Y-64000000D03*
X196000000Y-92000000D03*
X213000000Y-137500000D03*
X229500000Y-139000000D03*
X162500000Y-61000000D03*
X171000000Y-59500000D03*
X210000000Y-60500000D03*
X216000000Y-131500000D03*
X180500000Y-100000000D03*
X196500000Y-79000000D03*
X217000000Y-67500000D03*
X180500000Y-70500000D03*
X230000000Y-70500000D03*
X162500000Y-42000000D03*
X168500000Y-71500000D03*
X183500000Y-42000000D03*
X206000000Y-102000000D03*
X186729047Y-77189184D03*
X167500000Y-81500000D03*
X184000000Y-65000000D03*
X212500000Y-100500000D03*
X168500000Y-69000000D03*
X176500000Y-89000000D03*
X230500000Y-59500000D03*
X217500000Y-71500000D03*
X180500000Y-76500000D03*
X172500000Y-87500000D03*
X239500000Y-126500000D03*
X217000000Y-82000000D03*
X213000000Y-131500000D03*
X174000000Y-82000000D03*
X162000000Y-91000000D03*
X170500000Y-76500000D03*
X214500000Y-139000000D03*
X184500000Y-79000000D03*
X166000000Y-122500000D03*
X195500000Y-74500000D03*
X188000000Y-88500000D03*
X230000000Y-127000000D03*
X162000000Y-125500000D03*
X189500000Y-43000000D03*
X170500000Y-74000000D03*
X180500000Y-65500000D03*
X239500000Y-66000000D03*
X230500000Y-84000000D03*
X176000000Y-86500000D03*
X181000000Y-89500000D03*
X239500000Y-41500000D03*
X184500000Y-56500000D03*
X166500000Y-125500000D03*
%TO.N,/GPIO16*%
X182021200Y-105063100D03*
X185276600Y-53162100D03*
%TO.N,/GPIO21*%
X212882000Y-123890900D03*
%TO.N,/GPIO13*%
X198030000Y-84993700D03*
%TO.N,/GPIO34*%
X164155000Y-59054700D03*
X188241500Y-94101100D03*
%TO.N,/GPIO12*%
X191114400Y-107171500D03*
%TD*%
%TO.N,Net-(J12-Pin_9)*%
D18*
X213500000Y-80500000D02*
X232820000Y-80500000D01*
X232820000Y-80500000D02*
X235000000Y-82680000D01*
%TO.N,Net-(J12-Pin_10)*%
X213500000Y-77960000D02*
X232820000Y-77960000D01*
X232820000Y-77960000D02*
X235000000Y-80140000D01*
%TO.N,Net-(J12-Pin_11)*%
X232820000Y-75420000D02*
X235000000Y-77600000D01*
X213500000Y-75420000D02*
X232820000Y-75420000D01*
%TO.N,Net-(J12-Pin_12)*%
X232820000Y-72880000D02*
X235000000Y-75060000D01*
X213500000Y-72880000D02*
X232820000Y-72880000D01*
%TO.N,GND*%
D19*
X176620000Y-137500000D02*
X213000000Y-137500000D01*
%TO.N,/GPIO4*%
D18*
X188553300Y-111713300D02*
X220213300Y-111713300D01*
X232080000Y-116000000D02*
X224500000Y-116000000D01*
X235000000Y-118920000D02*
X232080000Y-116000000D01*
X220213300Y-111713300D02*
X224500000Y-116000000D01*
X184700000Y-107860000D02*
X188553300Y-111713300D01*
%TO.N,/GPIO16*%
X182021200Y-107721200D02*
X184700000Y-110400000D01*
X185943700Y-52495000D02*
X185276600Y-53162100D01*
X187625000Y-52495000D02*
X185943700Y-52495000D01*
X182021200Y-105063100D02*
X182021200Y-107721200D01*
%TO.N,/GPIO5*%
X168640000Y-115480000D02*
X184700000Y-115480000D01*
X164000000Y-110840000D02*
X168640000Y-115480000D01*
%TO.N,/GPIO18*%
X168640000Y-118020000D02*
X164000000Y-113380000D01*
X184700000Y-118020000D02*
X168640000Y-118020000D01*
%TO.N,/GPIO19*%
X164000000Y-115920000D02*
X168640000Y-120560000D01*
X168640000Y-120560000D02*
X184700000Y-120560000D01*
%TO.N,/GPIO21*%
X210821100Y-121830000D02*
X199890000Y-121830000D01*
X178500000Y-96500000D02*
X180970000Y-98970000D01*
X212882000Y-123890900D02*
X210821100Y-121830000D01*
X222558800Y-135558800D02*
X221125000Y-134125000D01*
X213610000Y-98970000D02*
X215500000Y-97080000D01*
X167000000Y-96500000D02*
X166500000Y-96000000D01*
X231361200Y-135558800D02*
X222558800Y-135558800D01*
X199890000Y-121830000D02*
X196695000Y-125025000D01*
X180970000Y-98970000D02*
X213610000Y-98970000D01*
X178500000Y-96500000D02*
X167000000Y-96500000D01*
X235000000Y-131920000D02*
X231361200Y-135558800D01*
%TO.N,/ESP32-RX0*%
X184700000Y-125640000D02*
X183930200Y-126409800D01*
X183930200Y-126409800D02*
X172470200Y-126409800D01*
X172470200Y-126409800D02*
X163920000Y-134960000D01*
%TO.N,/ESP32-TX0*%
X173240000Y-128180000D02*
X184700000Y-128180000D01*
X166460000Y-134960000D02*
X173240000Y-128180000D01*
%TO.N,/GPIO22*%
X178500000Y-99040000D02*
X167000000Y-99040000D01*
X214273300Y-100386700D02*
X210610000Y-104050000D01*
X184956300Y-130720000D02*
X184700000Y-130720000D01*
X188303700Y-127372600D02*
X184956300Y-130720000D01*
X175780000Y-130720000D02*
X184700000Y-130720000D01*
X167000000Y-99040000D02*
X166500000Y-98540000D01*
X196695000Y-129075000D02*
X194992600Y-127372600D01*
X194992600Y-127372600D02*
X188303700Y-127372600D01*
X215500000Y-99620000D02*
X214273300Y-99620000D01*
X223665000Y-134125000D02*
X218990000Y-129450000D01*
X235000000Y-129380000D02*
X230255000Y-134125000D01*
X197070000Y-129450000D02*
X196695000Y-129075000D01*
X171540000Y-134960000D02*
X175780000Y-130720000D01*
X214273300Y-99620000D02*
X214273300Y-100386700D01*
X230255000Y-134125000D02*
X223665000Y-134125000D01*
X183510000Y-104050000D02*
X178500000Y-99040000D01*
X218990000Y-129450000D02*
X197070000Y-129450000D01*
X210610000Y-104050000D02*
X183510000Y-104050000D01*
%TO.N,Net-(J11-Pin_9)*%
X227765000Y-57575000D02*
X235000000Y-50340000D01*
X213025000Y-57575000D02*
X227765000Y-57575000D01*
%TO.N,Net-(J11-Pin_10)*%
X227765000Y-55035000D02*
X235000000Y-47800000D01*
X213025000Y-55035000D02*
X227765000Y-55035000D01*
%TO.N,Net-(J11-Pin_11)*%
X227765000Y-52495000D02*
X235000000Y-45260000D01*
X213025000Y-52495000D02*
X227765000Y-52495000D01*
%TO.N,Net-(J11-Pin_12)*%
X220260000Y-42720000D02*
X235000000Y-42720000D01*
X213025000Y-49955000D02*
X220260000Y-42720000D01*
%TO.N,/GPIO14*%
X201990200Y-76690000D02*
X216726700Y-91426500D01*
X187420000Y-76690000D02*
X201990200Y-76690000D01*
X216726700Y-101233300D02*
X210100000Y-107860000D01*
X216726700Y-91426500D02*
X216726700Y-101233300D01*
X183350000Y-72620000D02*
X187420000Y-76690000D01*
X166000000Y-72620000D02*
X183350000Y-72620000D01*
%TO.N,/GPIO13*%
X185792000Y-84993700D02*
X175958300Y-75160000D01*
X198030000Y-84993700D02*
X185792000Y-84993700D01*
X175958300Y-75160000D02*
X166000000Y-75160000D01*
%TO.N,/GPIO34*%
X188241500Y-94101100D02*
X188241500Y-93828500D01*
X164645300Y-59054700D02*
X164155000Y-59054700D01*
X172113000Y-77700000D02*
X166000000Y-77700000D01*
X166000000Y-57700000D02*
X164645300Y-59054700D01*
X188241500Y-93828500D02*
X172113000Y-77700000D01*
%TO.N,/GPIO12*%
X192965900Y-105320000D02*
X191114400Y-107171500D01*
X210100000Y-105320000D02*
X192965900Y-105320000D01*
%TO.N,/GPIO26*%
X165190000Y-134447400D02*
X172684100Y-126953300D01*
X169000000Y-134960000D02*
X167730000Y-136230000D01*
X165190000Y-135504800D02*
X165190000Y-134447400D01*
X172684100Y-126953300D02*
X185130200Y-126953300D01*
X165915200Y-136230000D02*
X165190000Y-135504800D01*
X167730000Y-136230000D02*
X165915200Y-136230000D01*
X199143500Y-112940000D02*
X210100000Y-112940000D01*
X185130200Y-126953300D02*
X199143500Y-112940000D01*
%TO.N,/GPIO25*%
X170270000Y-136230000D02*
X169000000Y-137500000D01*
X201849900Y-115480000D02*
X190459000Y-126870900D01*
X190459000Y-126870900D02*
X188095800Y-126870900D01*
X188095800Y-126870900D02*
X185516700Y-129450000D01*
X210100000Y-115480000D02*
X201849900Y-115480000D01*
X175252600Y-129450000D02*
X170270000Y-134432600D01*
X170270000Y-134432600D02*
X170270000Y-136230000D01*
X185516700Y-129450000D02*
X175252600Y-129450000D01*
%TO.N,/EN_ESP32*%
X190025800Y-127874300D02*
X188599900Y-127874300D01*
X187673100Y-128801100D02*
X187673100Y-129492900D01*
X188599900Y-127874300D02*
X187673100Y-128801100D01*
X165191700Y-138771700D02*
X163920000Y-137500000D01*
X174582200Y-138771700D02*
X165191700Y-138771700D01*
X187673100Y-129492900D02*
X185176000Y-131990000D01*
X185176000Y-131990000D02*
X177298700Y-131990000D01*
X175350000Y-138003900D02*
X174582200Y-138771700D01*
X210100000Y-133260000D02*
X195411500Y-133260000D01*
X175350000Y-133938700D02*
X175350000Y-138003900D01*
X177298700Y-131990000D02*
X175350000Y-133938700D01*
X195411500Y-133260000D02*
X190025800Y-127874300D01*
%TO.N,/GPIO27*%
X212600000Y-110400000D02*
X210100000Y-110400000D01*
X227500000Y-95500000D02*
X212600000Y-110400000D01*
%TO.N,/3.3V*%
D19*
X166000000Y-67540000D02*
X164201000Y-69339000D01*
X166047000Y-88500000D02*
X166500000Y-88500000D01*
X216045000Y-134125000D02*
X218920000Y-137000000D01*
X215280500Y-134889500D02*
X216045000Y-134125000D01*
X189075000Y-131171600D02*
X192792900Y-134889500D01*
X186498300Y-70340000D02*
X183698300Y-67540000D01*
X188100000Y-70340000D02*
X186498300Y-70340000D01*
X189461700Y-94540000D02*
X215500000Y-94540000D01*
X187625000Y-47415000D02*
X186023300Y-47415000D01*
X164201000Y-69339000D02*
X164201000Y-86654000D01*
X235000000Y-113500000D02*
X236773400Y-115273400D01*
X185286600Y-134960000D02*
X189075000Y-131171600D01*
X164000000Y-121000000D02*
X162400000Y-119400000D01*
X183269300Y-44661000D02*
X166339000Y-44661000D01*
X162400000Y-92600000D02*
X166500000Y-88500000D01*
X178500000Y-93960000D02*
X179358300Y-93960000D01*
X189075000Y-131171600D02*
X189075000Y-129075000D01*
X184700000Y-97700000D02*
X183098300Y-97700000D01*
X162400000Y-119400000D02*
X162400000Y-92600000D01*
X192792900Y-134889500D02*
X215280500Y-134889500D01*
X236773400Y-122226600D02*
X235000000Y-124000000D01*
X224880000Y-124000000D02*
X216880000Y-116000000D01*
X169420000Y-91420000D02*
X178500000Y-91420000D01*
X176620000Y-134960000D02*
X185286600Y-134960000D01*
X235000000Y-124000000D02*
X224880000Y-124000000D01*
X186301700Y-97700000D02*
X189461700Y-94540000D01*
X236773400Y-115273400D02*
X236773400Y-122226600D01*
X186023300Y-47415000D02*
X183269300Y-44661000D01*
X179358300Y-93960000D02*
X183098300Y-97700000D01*
X183698300Y-67540000D02*
X166000000Y-67540000D01*
X184700000Y-97700000D02*
X186301700Y-97700000D01*
X166500000Y-88500000D02*
X169420000Y-91420000D01*
X164201000Y-86654000D02*
X166047000Y-88500000D01*
X218920000Y-137000000D02*
X235000000Y-137000000D01*
X166339000Y-44661000D02*
X166000000Y-45000000D01*
%TD*%
%TA.AperFunction,Conductor*%
%TO.N,GND*%
G36*
X165555703Y-118360739D02*
G01*
X165562181Y-118366771D01*
X168151016Y-120955606D01*
X168151045Y-120955637D01*
X168241264Y-121045856D01*
X168241267Y-121045858D01*
X168318190Y-121097256D01*
X168343715Y-121114312D01*
X168410397Y-121141932D01*
X168414185Y-121143501D01*
X168414193Y-121143505D01*
X168451427Y-121158927D01*
X168457548Y-121161463D01*
X168517971Y-121173481D01*
X168578393Y-121185500D01*
X168578394Y-121185500D01*
X181908700Y-121185500D01*
X181975739Y-121205185D01*
X182021494Y-121257989D01*
X182032659Y-121306396D01*
X182141430Y-125657204D01*
X182123428Y-125724711D01*
X182071784Y-125771772D01*
X182017470Y-125784300D01*
X172408589Y-125784300D01*
X172357735Y-125794415D01*
X172357730Y-125794416D01*
X172348171Y-125796318D01*
X172287748Y-125808337D01*
X172240597Y-125827867D01*
X172173915Y-125855488D01*
X172173914Y-125855489D01*
X172151547Y-125870433D01*
X172151544Y-125870435D01*
X172071468Y-125923940D01*
X172039166Y-125956243D01*
X171984342Y-126011067D01*
X171984339Y-126011070D01*
X164377837Y-133617571D01*
X164316514Y-133651056D01*
X164251838Y-133647821D01*
X164244219Y-133645345D01*
X164236241Y-133642753D01*
X164065797Y-133615757D01*
X164026287Y-133609500D01*
X163813713Y-133609500D01*
X163765042Y-133617208D01*
X163603760Y-133642753D01*
X163401585Y-133708444D01*
X163212179Y-133804951D01*
X163040213Y-133929890D01*
X162889890Y-134080213D01*
X162764951Y-134252179D01*
X162668444Y-134441585D01*
X162602754Y-134643757D01*
X162569500Y-134853713D01*
X162569500Y-135066286D01*
X162601688Y-135269517D01*
X162602754Y-135276243D01*
X162625958Y-135347658D01*
X162668444Y-135478414D01*
X162764951Y-135667820D01*
X162889890Y-135839786D01*
X163040213Y-135990109D01*
X163212182Y-136115050D01*
X163220946Y-136119516D01*
X163271742Y-136167491D01*
X163288536Y-136235312D01*
X163265998Y-136301447D01*
X163220946Y-136340484D01*
X163212182Y-136344949D01*
X163040213Y-136469890D01*
X162889890Y-136620213D01*
X162764951Y-136792179D01*
X162668444Y-136981585D01*
X162602753Y-137183760D01*
X162569500Y-137393713D01*
X162569500Y-137606286D01*
X162602735Y-137816127D01*
X162602754Y-137816243D01*
X162656376Y-137981275D01*
X162668444Y-138018414D01*
X162764951Y-138207820D01*
X162889890Y-138379786D01*
X163040213Y-138530109D01*
X163212179Y-138655048D01*
X163212181Y-138655049D01*
X163212184Y-138655051D01*
X163401588Y-138751557D01*
X163603757Y-138817246D01*
X163813713Y-138850500D01*
X163813714Y-138850500D01*
X164026286Y-138850500D01*
X164026287Y-138850500D01*
X164236243Y-138817246D01*
X164251837Y-138812178D01*
X164321676Y-138810182D01*
X164377837Y-138842428D01*
X164792962Y-139257554D01*
X164792963Y-139257555D01*
X164792966Y-139257557D01*
X164815176Y-139272397D01*
X164859982Y-139326009D01*
X164868689Y-139395334D01*
X164838535Y-139458362D01*
X164779092Y-139495082D01*
X164746286Y-139499500D01*
X161624500Y-139499500D01*
X161557461Y-139479815D01*
X161511706Y-139427011D01*
X161500500Y-139375500D01*
X161500500Y-120214783D01*
X161506738Y-120193537D01*
X161508318Y-120171450D01*
X161516390Y-120160666D01*
X161520185Y-120147744D01*
X161536918Y-120133244D01*
X161550189Y-120115517D01*
X161562809Y-120110809D01*
X161572989Y-120101989D01*
X161594905Y-120098837D01*
X161615653Y-120091099D01*
X161628814Y-120093961D01*
X161642147Y-120092045D01*
X161662288Y-120101243D01*
X161683926Y-120105950D01*
X161701652Y-120119220D01*
X161705703Y-120121070D01*
X161712180Y-120127101D01*
X161762218Y-120177139D01*
X161762219Y-120177139D01*
X161769287Y-120184207D01*
X162613576Y-121028496D01*
X162647061Y-121089819D01*
X162649350Y-121105344D01*
X162681194Y-121306396D01*
X162682754Y-121316243D01*
X162720128Y-121431269D01*
X162748444Y-121518414D01*
X162844951Y-121707820D01*
X162969890Y-121879786D01*
X163083818Y-121993714D01*
X163117303Y-122055037D01*
X163112319Y-122124729D01*
X163070447Y-122180662D01*
X163039471Y-122197577D01*
X162907912Y-122246646D01*
X162907906Y-122246649D01*
X162792812Y-122332809D01*
X162792809Y-122332812D01*
X162706649Y-122447906D01*
X162706645Y-122447913D01*
X162656403Y-122582620D01*
X162656401Y-122582627D01*
X162650000Y-122642155D01*
X162650000Y-123290000D01*
X163566988Y-123290000D01*
X163534075Y-123347007D01*
X163500000Y-123474174D01*
X163500000Y-123605826D01*
X163534075Y-123732993D01*
X163566988Y-123790000D01*
X162650000Y-123790000D01*
X162650000Y-124437844D01*
X162656401Y-124497372D01*
X162656403Y-124497379D01*
X162706645Y-124632086D01*
X162706649Y-124632093D01*
X162792809Y-124747187D01*
X162792812Y-124747190D01*
X162907906Y-124833350D01*
X162907913Y-124833354D01*
X163042620Y-124883596D01*
X163042627Y-124883598D01*
X163102155Y-124889999D01*
X163102172Y-124890000D01*
X163750000Y-124890000D01*
X163750000Y-123973012D01*
X163807007Y-124005925D01*
X163934174Y-124040000D01*
X164065826Y-124040000D01*
X164192993Y-124005925D01*
X164250000Y-123973012D01*
X164250000Y-124890000D01*
X164897828Y-124890000D01*
X164897844Y-124889999D01*
X164957372Y-124883598D01*
X164957379Y-124883596D01*
X165092086Y-124833354D01*
X165092093Y-124833350D01*
X165207187Y-124747190D01*
X165207190Y-124747187D01*
X165293350Y-124632093D01*
X165293354Y-124632086D01*
X165343596Y-124497379D01*
X165343598Y-124497372D01*
X165349999Y-124437844D01*
X165350000Y-124437827D01*
X165350000Y-123790000D01*
X164433012Y-123790000D01*
X164465925Y-123732993D01*
X164500000Y-123605826D01*
X164500000Y-123474174D01*
X164474420Y-123378711D01*
X171149500Y-123378711D01*
X171149500Y-123621288D01*
X171181161Y-123861785D01*
X171243947Y-124096104D01*
X171277779Y-124177781D01*
X171336776Y-124320212D01*
X171458064Y-124530289D01*
X171458066Y-124530292D01*
X171458067Y-124530293D01*
X171605733Y-124722736D01*
X171605739Y-124722743D01*
X171777256Y-124894260D01*
X171777263Y-124894266D01*
X171826679Y-124932184D01*
X171969711Y-125041936D01*
X172179788Y-125163224D01*
X172403900Y-125256054D01*
X172638211Y-125318838D01*
X172818586Y-125342584D01*
X172878711Y-125350500D01*
X172878712Y-125350500D01*
X173121289Y-125350500D01*
X173180460Y-125342710D01*
X173361789Y-125318838D01*
X173596100Y-125256054D01*
X173820212Y-125163224D01*
X174030289Y-125041936D01*
X174222738Y-124894265D01*
X174394265Y-124722738D01*
X174541936Y-124530289D01*
X174663224Y-124320212D01*
X174756054Y-124096100D01*
X174818838Y-123861789D01*
X174850500Y-123621288D01*
X174850500Y-123378712D01*
X174818838Y-123138211D01*
X174756054Y-122903900D01*
X174663224Y-122679788D01*
X174541936Y-122469711D01*
X174436888Y-122332809D01*
X174394266Y-122277263D01*
X174394260Y-122277256D01*
X174222743Y-122105739D01*
X174222736Y-122105733D01*
X174030293Y-121958067D01*
X174030292Y-121958066D01*
X174030289Y-121958064D01*
X173820212Y-121836776D01*
X173820205Y-121836773D01*
X173596104Y-121743947D01*
X173361785Y-121681161D01*
X173121289Y-121649500D01*
X173121288Y-121649500D01*
X172878712Y-121649500D01*
X172878711Y-121649500D01*
X172638214Y-121681161D01*
X172403895Y-121743947D01*
X172179794Y-121836773D01*
X172179785Y-121836777D01*
X171969706Y-121958067D01*
X171777263Y-122105733D01*
X171777256Y-122105739D01*
X171605739Y-122277256D01*
X171605733Y-122277263D01*
X171458067Y-122469706D01*
X171336777Y-122679785D01*
X171336773Y-122679794D01*
X171243947Y-122903895D01*
X171181161Y-123138214D01*
X171149500Y-123378711D01*
X164474420Y-123378711D01*
X164465925Y-123347007D01*
X164433012Y-123290000D01*
X165350000Y-123290000D01*
X165350000Y-122642172D01*
X165349999Y-122642155D01*
X165343598Y-122582627D01*
X165343596Y-122582620D01*
X165293354Y-122447913D01*
X165293350Y-122447906D01*
X165207190Y-122332812D01*
X165207187Y-122332809D01*
X165092093Y-122246649D01*
X165092088Y-122246646D01*
X164960528Y-122197577D01*
X164904595Y-122155705D01*
X164880178Y-122090241D01*
X164895030Y-122021968D01*
X164916175Y-121993720D01*
X165030104Y-121879792D01*
X165067437Y-121828408D01*
X165142961Y-121724457D01*
X165155051Y-121707816D01*
X165251557Y-121518412D01*
X165317246Y-121316243D01*
X165350500Y-121106287D01*
X165350500Y-120893713D01*
X165317246Y-120683757D01*
X165251557Y-120481588D01*
X165155051Y-120292184D01*
X165155049Y-120292181D01*
X165155048Y-120292179D01*
X165030109Y-120120213D01*
X164879786Y-119969890D01*
X164707820Y-119844951D01*
X164707115Y-119844591D01*
X164699054Y-119840485D01*
X164648259Y-119792512D01*
X164631463Y-119724692D01*
X164653999Y-119658556D01*
X164699054Y-119619515D01*
X164707816Y-119615051D01*
X164825031Y-119529890D01*
X164879786Y-119490109D01*
X164879788Y-119490106D01*
X164879792Y-119490104D01*
X165030104Y-119339792D01*
X165030106Y-119339788D01*
X165030109Y-119339786D01*
X165139086Y-119189789D01*
X165155051Y-119167816D01*
X165251557Y-118978412D01*
X165317246Y-118776243D01*
X165350500Y-118566287D01*
X165350500Y-118454452D01*
X165370185Y-118387413D01*
X165422989Y-118341658D01*
X165492147Y-118331714D01*
X165555703Y-118360739D01*
G37*
%TD.AperFunction*%
%TA.AperFunction,Conductor*%
G36*
X182345113Y-135980185D02*
G01*
X182390868Y-136032989D01*
X182402035Y-136081401D01*
X182484310Y-139372401D01*
X182466307Y-139439911D01*
X182414663Y-139486972D01*
X182360349Y-139499500D01*
X175027614Y-139499500D01*
X174960575Y-139479815D01*
X174914820Y-139427011D01*
X174904876Y-139357853D01*
X174933901Y-139294297D01*
X174943630Y-139284271D01*
X174950715Y-139277748D01*
X174980933Y-139257558D01*
X175068058Y-139170433D01*
X175068060Y-139170429D01*
X175647251Y-138591237D01*
X175708570Y-138557755D01*
X175778261Y-138562739D01*
X175807814Y-138578603D01*
X175912445Y-138654622D01*
X176101782Y-138751095D01*
X176303870Y-138816757D01*
X176513754Y-138850000D01*
X176726246Y-138850000D01*
X176936127Y-138816757D01*
X176936130Y-138816757D01*
X177138217Y-138751095D01*
X177327554Y-138654622D01*
X177381716Y-138615270D01*
X177381717Y-138615270D01*
X176749409Y-137982962D01*
X176812993Y-137965925D01*
X176927007Y-137900099D01*
X177020099Y-137807007D01*
X177085925Y-137692993D01*
X177102962Y-137629408D01*
X177735270Y-138261717D01*
X177735270Y-138261716D01*
X177774622Y-138207554D01*
X177871095Y-138018217D01*
X177936757Y-137816130D01*
X177936757Y-137816127D01*
X177970000Y-137606246D01*
X177970000Y-137393753D01*
X177936757Y-137183872D01*
X177936757Y-137183869D01*
X177871095Y-136981782D01*
X177774624Y-136792449D01*
X177735270Y-136738282D01*
X177735269Y-136738282D01*
X177102962Y-137370590D01*
X177085925Y-137307007D01*
X177020099Y-137192993D01*
X176927007Y-137099901D01*
X176812993Y-137034075D01*
X176749407Y-137017036D01*
X177419627Y-136346818D01*
X177480950Y-136313333D01*
X177507308Y-136310499D01*
X177517871Y-136310499D01*
X177517872Y-136310499D01*
X177577483Y-136304091D01*
X177712331Y-136253796D01*
X177827546Y-136167546D01*
X177913796Y-136052331D01*
X177917960Y-136041165D01*
X177959829Y-135985234D01*
X178025293Y-135960816D01*
X178034141Y-135960500D01*
X182278074Y-135960500D01*
X182345113Y-135980185D01*
G37*
%TD.AperFunction*%
%TA.AperFunction,Conductor*%
G36*
X240442539Y-40520185D02*
G01*
X240488294Y-40572989D01*
X240499500Y-40624500D01*
X240499500Y-139375500D01*
X240479815Y-139442539D01*
X240427011Y-139488294D01*
X240375500Y-139499500D01*
X212124000Y-139499500D01*
X212056961Y-139479815D01*
X212011206Y-139427011D01*
X212000000Y-139375500D01*
X212000000Y-136014000D01*
X212019685Y-135946961D01*
X212072489Y-135901206D01*
X212124000Y-135890000D01*
X215379043Y-135890000D01*
X215417515Y-135882346D01*
X215554569Y-135855085D01*
X215572336Y-135851551D01*
X215625665Y-135829461D01*
X215754414Y-135776132D01*
X215918282Y-135666639D01*
X215918285Y-135666636D01*
X215923104Y-135661818D01*
X215950031Y-135647114D01*
X215975850Y-135630522D01*
X215982050Y-135629630D01*
X215984427Y-135628333D01*
X216010785Y-135625499D01*
X216079217Y-135625499D01*
X216146256Y-135645184D01*
X216166898Y-135661818D01*
X218139735Y-137634655D01*
X218139764Y-137634686D01*
X218282214Y-137777136D01*
X218282218Y-137777139D01*
X218446079Y-137886628D01*
X218446092Y-137886635D01*
X218574833Y-137939961D01*
X218617744Y-137957735D01*
X218628164Y-137962051D01*
X218724812Y-137981275D01*
X218773135Y-137990887D01*
X218821458Y-138000500D01*
X218821459Y-138000500D01*
X218821460Y-138000500D01*
X219018540Y-138000500D01*
X233454092Y-138000500D01*
X233521131Y-138020185D01*
X233559636Y-138064271D01*
X233561395Y-138063187D01*
X233565185Y-138069331D01*
X233565186Y-138069334D01*
X233657288Y-138218656D01*
X233781344Y-138342712D01*
X233930666Y-138434814D01*
X234097203Y-138489999D01*
X234199991Y-138500500D01*
X235800008Y-138500499D01*
X235902797Y-138489999D01*
X236069334Y-138434814D01*
X236218656Y-138342712D01*
X236342712Y-138218656D01*
X236434814Y-138069334D01*
X236489999Y-137902797D01*
X236500500Y-137800009D01*
X236500499Y-136199992D01*
X236495881Y-136154789D01*
X236489999Y-136097203D01*
X236489998Y-136097200D01*
X236473866Y-136048518D01*
X236434814Y-135930666D01*
X236342712Y-135781344D01*
X236218656Y-135657288D01*
X236107218Y-135588553D01*
X236069336Y-135565187D01*
X236069331Y-135565185D01*
X236015816Y-135547452D01*
X235902797Y-135510001D01*
X235902795Y-135510000D01*
X235800016Y-135499500D01*
X235737308Y-135499500D01*
X235670269Y-135479815D01*
X235649627Y-135463181D01*
X235211059Y-135024612D01*
X235231591Y-135019111D01*
X235368408Y-134940119D01*
X235480119Y-134828408D01*
X235559111Y-134691591D01*
X235564612Y-134671058D01*
X236222658Y-135329105D01*
X236222658Y-135329104D01*
X236282914Y-135246169D01*
X236282918Y-135246163D01*
X236390102Y-135035802D01*
X236463065Y-134811247D01*
X236500000Y-134578052D01*
X236500000Y-134341947D01*
X236463065Y-134108752D01*
X236390102Y-133884197D01*
X236282914Y-133673828D01*
X236222658Y-133590894D01*
X236222658Y-133590893D01*
X235564612Y-134248940D01*
X235559111Y-134228409D01*
X235480119Y-134091592D01*
X235368408Y-133979881D01*
X235231591Y-133900889D01*
X235211058Y-133895387D01*
X235869105Y-133237340D01*
X235867551Y-133217594D01*
X235881915Y-133149216D01*
X235918284Y-133107547D01*
X235977510Y-133064517D01*
X236144517Y-132897510D01*
X236283343Y-132706433D01*
X236390568Y-132495992D01*
X236463553Y-132271368D01*
X236464256Y-132266932D01*
X236500500Y-132038097D01*
X236500500Y-131801902D01*
X236463553Y-131568631D01*
X236405036Y-131388537D01*
X236390568Y-131344008D01*
X236390566Y-131344005D01*
X236390566Y-131344003D01*
X236283342Y-131133566D01*
X236144517Y-130942490D01*
X235977510Y-130775483D01*
X235942872Y-130750317D01*
X235900207Y-130694989D01*
X235894228Y-130625375D01*
X235926833Y-130563580D01*
X235942873Y-130549682D01*
X235977510Y-130524517D01*
X236144517Y-130357510D01*
X236283343Y-130166433D01*
X236390568Y-129955992D01*
X236463553Y-129731368D01*
X236488443Y-129574219D01*
X236500500Y-129498097D01*
X236500500Y-129261902D01*
X236463553Y-129028631D01*
X236410440Y-128865168D01*
X236390568Y-128804008D01*
X236390566Y-128804005D01*
X236390566Y-128804003D01*
X236283342Y-128593566D01*
X236144517Y-128402490D01*
X235977510Y-128235483D01*
X235786433Y-128096657D01*
X235575996Y-127989433D01*
X235351368Y-127916446D01*
X235118097Y-127879500D01*
X235118092Y-127879500D01*
X234881908Y-127879500D01*
X234881903Y-127879500D01*
X234648631Y-127916446D01*
X234424003Y-127989433D01*
X234213566Y-128096657D01*
X234104550Y-128175862D01*
X234022490Y-128235483D01*
X234022488Y-128235485D01*
X234022487Y-128235485D01*
X233855485Y-128402487D01*
X233855485Y-128402488D01*
X233855483Y-128402490D01*
X233795862Y-128484550D01*
X233716657Y-128593566D01*
X233609433Y-128804003D01*
X233536446Y-129028631D01*
X233499500Y-129261902D01*
X233499500Y-129498097D01*
X233536447Y-129731371D01*
X233568779Y-129830880D01*
X233570774Y-129900721D01*
X233538529Y-129956878D01*
X230032229Y-133463181D01*
X229970906Y-133496666D01*
X229944548Y-133499500D01*
X225106330Y-133499500D01*
X225039291Y-133479815D01*
X224995845Y-133431795D01*
X224948342Y-133338566D01*
X224940475Y-133327738D01*
X224809517Y-133147490D01*
X224642510Y-132980483D01*
X224451433Y-132841657D01*
X224240996Y-132734433D01*
X224016368Y-132661446D01*
X223783097Y-132624500D01*
X223783092Y-132624500D01*
X223546908Y-132624500D01*
X223546903Y-132624500D01*
X223313628Y-132661447D01*
X223214118Y-132693779D01*
X223144276Y-132695774D01*
X223088120Y-132663529D01*
X219485822Y-129061232D01*
X219475859Y-129051269D01*
X219475858Y-129051267D01*
X219388733Y-128964142D01*
X219337509Y-128929915D01*
X219286286Y-128895688D01*
X219286283Y-128895686D01*
X219286280Y-128895685D01*
X219212603Y-128865168D01*
X219212601Y-128865167D01*
X219205792Y-128862347D01*
X219172452Y-128848537D01*
X219112029Y-128836518D01*
X219107306Y-128835578D01*
X219107304Y-128835578D01*
X219051610Y-128824500D01*
X219051607Y-128824500D01*
X219051606Y-128824500D01*
X212124000Y-128824500D01*
X212056961Y-128804815D01*
X212011206Y-128752011D01*
X212000000Y-128700500D01*
X212000000Y-124420529D01*
X212019685Y-124353490D01*
X212072489Y-124307735D01*
X212141647Y-124297791D01*
X212205203Y-124326816D01*
X212227102Y-124351639D01*
X212260207Y-124401184D01*
X212260213Y-124401192D01*
X212371707Y-124512686D01*
X212371711Y-124512689D01*
X212502814Y-124600290D01*
X212502827Y-124600297D01*
X212648348Y-124660573D01*
X212648503Y-124660637D01*
X212803153Y-124691399D01*
X212803156Y-124691400D01*
X212803158Y-124691400D01*
X212960844Y-124691400D01*
X212960845Y-124691399D01*
X213115497Y-124660637D01*
X213261179Y-124600294D01*
X213392289Y-124512689D01*
X213503789Y-124401189D01*
X213591394Y-124270079D01*
X213651737Y-124124397D01*
X213682500Y-123969742D01*
X213682500Y-123812058D01*
X213682500Y-123812055D01*
X213682499Y-123812053D01*
X213666773Y-123732993D01*
X213651737Y-123657403D01*
X213630373Y-123605826D01*
X213591397Y-123511727D01*
X213591390Y-123511714D01*
X213545840Y-123443544D01*
X213503789Y-123380611D01*
X213503786Y-123380607D01*
X213501890Y-123378711D01*
X216869500Y-123378711D01*
X216869500Y-123621288D01*
X216901161Y-123861785D01*
X216963947Y-124096104D01*
X216997779Y-124177781D01*
X217056776Y-124320212D01*
X217178064Y-124530289D01*
X217178066Y-124530292D01*
X217178067Y-124530293D01*
X217325733Y-124722736D01*
X217325739Y-124722743D01*
X217497256Y-124894260D01*
X217497263Y-124894266D01*
X217546679Y-124932184D01*
X217689711Y-125041936D01*
X217899788Y-125163224D01*
X218123900Y-125256054D01*
X218358211Y-125318838D01*
X218538586Y-125342584D01*
X218598711Y-125350500D01*
X218598712Y-125350500D01*
X218841289Y-125350500D01*
X218900460Y-125342710D01*
X219081789Y-125318838D01*
X219316100Y-125256054D01*
X219540212Y-125163224D01*
X219750289Y-125041936D01*
X219942738Y-124894265D01*
X220114265Y-124722738D01*
X220261936Y-124530289D01*
X220383224Y-124320212D01*
X220476054Y-124096100D01*
X220538838Y-123861789D01*
X220570500Y-123621288D01*
X220570500Y-123378712D01*
X220538838Y-123138211D01*
X220476054Y-122903900D01*
X220383224Y-122679788D01*
X220261936Y-122469711D01*
X220156888Y-122332809D01*
X220114266Y-122277263D01*
X220114260Y-122277256D01*
X219942743Y-122105739D01*
X219942736Y-122105733D01*
X219750293Y-121958067D01*
X219750292Y-121958066D01*
X219750289Y-121958064D01*
X219540212Y-121836776D01*
X219540205Y-121836773D01*
X219316104Y-121743947D01*
X219081785Y-121681161D01*
X218841289Y-121649500D01*
X218841288Y-121649500D01*
X218598712Y-121649500D01*
X218598711Y-121649500D01*
X218358214Y-121681161D01*
X218123895Y-121743947D01*
X217899794Y-121836773D01*
X217899785Y-121836777D01*
X217689706Y-121958067D01*
X217497263Y-122105733D01*
X217497256Y-122105739D01*
X217325739Y-122277256D01*
X217325733Y-122277263D01*
X217178067Y-122469706D01*
X217056777Y-122679785D01*
X217056773Y-122679794D01*
X216963947Y-122903895D01*
X216901161Y-123138214D01*
X216869500Y-123378711D01*
X213501890Y-123378711D01*
X213392292Y-123269113D01*
X213392288Y-123269110D01*
X213261185Y-123181509D01*
X213261172Y-123181502D01*
X213115501Y-123121164D01*
X213115489Y-123121161D01*
X213004286Y-123099041D01*
X212942375Y-123066656D01*
X212940796Y-123065105D01*
X212036319Y-122160628D01*
X212002834Y-122099305D01*
X212000000Y-122072947D01*
X212000000Y-120000000D01*
X211406355Y-120000000D01*
X211339316Y-119980315D01*
X211295870Y-119932295D01*
X211282401Y-119905861D01*
X211255051Y-119852184D01*
X211246552Y-119840486D01*
X211130109Y-119680213D01*
X210979786Y-119529890D01*
X210807820Y-119404951D01*
X210807115Y-119404591D01*
X210799054Y-119400485D01*
X210748259Y-119352512D01*
X210731463Y-119284692D01*
X210753999Y-119218556D01*
X210799054Y-119179515D01*
X210807816Y-119175051D01*
X210829789Y-119159086D01*
X210979786Y-119050109D01*
X210979788Y-119050106D01*
X210979792Y-119050104D01*
X211130104Y-118899792D01*
X211130106Y-118899788D01*
X211130109Y-118899786D01*
X211255048Y-118727820D01*
X211255049Y-118727819D01*
X211255051Y-118727816D01*
X211351557Y-118538412D01*
X211417246Y-118336243D01*
X211450500Y-118126287D01*
X211450500Y-117913713D01*
X211417246Y-117703757D01*
X211351557Y-117501588D01*
X211255051Y-117312184D01*
X211255049Y-117312181D01*
X211255048Y-117312179D01*
X211130109Y-117140213D01*
X210979786Y-116989890D01*
X210807820Y-116864951D01*
X210807115Y-116864591D01*
X210799054Y-116860485D01*
X210748259Y-116812512D01*
X210731463Y-116744692D01*
X210753999Y-116678556D01*
X210799054Y-116639515D01*
X210807816Y-116635051D01*
X210829789Y-116619086D01*
X210979786Y-116510109D01*
X210979788Y-116510106D01*
X210979792Y-116510104D01*
X211130104Y-116359792D01*
X211130106Y-116359788D01*
X211130109Y-116359786D01*
X211255048Y-116187820D01*
X211255049Y-116187819D01*
X211255051Y-116187816D01*
X211351557Y-115998412D01*
X211417246Y-115796243D01*
X211450500Y-115586287D01*
X211450500Y-115373713D01*
X211417246Y-115163757D01*
X211351557Y-114961588D01*
X211255051Y-114772184D01*
X211255049Y-114772181D01*
X211255048Y-114772179D01*
X211130109Y-114600213D01*
X210979786Y-114449890D01*
X210807820Y-114324951D01*
X210807115Y-114324591D01*
X210799054Y-114320485D01*
X210748259Y-114272512D01*
X210731463Y-114204692D01*
X210753999Y-114138556D01*
X210799054Y-114099515D01*
X210807816Y-114095051D01*
X210829789Y-114079086D01*
X210979786Y-113970109D01*
X210979788Y-113970106D01*
X210979792Y-113970104D01*
X211130104Y-113819792D01*
X211130106Y-113819788D01*
X211130109Y-113819786D01*
X211255048Y-113647820D01*
X211255049Y-113647819D01*
X211255051Y-113647816D01*
X211351557Y-113458412D01*
X211417246Y-113256243D01*
X211450500Y-113046287D01*
X211450500Y-112833713D01*
X211417246Y-112623757D01*
X211377398Y-112501118D01*
X211375403Y-112431277D01*
X211411483Y-112371444D01*
X211474184Y-112340616D01*
X211495329Y-112338800D01*
X219902848Y-112338800D01*
X219969887Y-112358485D01*
X219990529Y-112375119D01*
X223197781Y-115582371D01*
X223231266Y-115643694D01*
X223230785Y-115690416D01*
X223232285Y-115690654D01*
X223212794Y-115813713D01*
X223199500Y-115897648D01*
X223199500Y-116102352D01*
X223203116Y-116125185D01*
X223231522Y-116304534D01*
X223294781Y-116499223D01*
X223358691Y-116624653D01*
X223365406Y-116637831D01*
X223387715Y-116681613D01*
X223508028Y-116847213D01*
X223652786Y-116991971D01*
X223807749Y-117104556D01*
X223818390Y-117112287D01*
X223934607Y-117171503D01*
X224000776Y-117205218D01*
X224000778Y-117205218D01*
X224000781Y-117205220D01*
X224105137Y-117239127D01*
X224195465Y-117268477D01*
X224296557Y-117284488D01*
X224397648Y-117300500D01*
X224397649Y-117300500D01*
X224602351Y-117300500D01*
X224602352Y-117300500D01*
X224804534Y-117268477D01*
X224999219Y-117205220D01*
X225181610Y-117112287D01*
X225274590Y-117044732D01*
X225347213Y-116991971D01*
X225347215Y-116991968D01*
X225347219Y-116991966D01*
X225491966Y-116847219D01*
X225491968Y-116847215D01*
X225491971Y-116847213D01*
X225615151Y-116677669D01*
X225616823Y-116678884D01*
X225662208Y-116637831D01*
X225716115Y-116625500D01*
X231769548Y-116625500D01*
X231836587Y-116645185D01*
X231857229Y-116661819D01*
X233538529Y-118343120D01*
X233572014Y-118404443D01*
X233568779Y-118469118D01*
X233536447Y-118568628D01*
X233499500Y-118801902D01*
X233499500Y-119038097D01*
X233536446Y-119271368D01*
X233609433Y-119495996D01*
X233692262Y-119658556D01*
X233716657Y-119706433D01*
X233855483Y-119897510D01*
X234022490Y-120064517D01*
X234081716Y-120107547D01*
X234124381Y-120162875D01*
X234132448Y-120217593D01*
X234130893Y-120237340D01*
X234788940Y-120895387D01*
X234768409Y-120900889D01*
X234631592Y-120979881D01*
X234519881Y-121091592D01*
X234440889Y-121228409D01*
X234435387Y-121248941D01*
X233777340Y-120590894D01*
X233717084Y-120673830D01*
X233609897Y-120884197D01*
X233536934Y-121108752D01*
X233500000Y-121341947D01*
X233500000Y-121578052D01*
X233536934Y-121811247D01*
X233609897Y-122035802D01*
X233717087Y-122246174D01*
X233777338Y-122329104D01*
X233777340Y-122329105D01*
X234435387Y-121671058D01*
X234440889Y-121691591D01*
X234519881Y-121828408D01*
X234631592Y-121940119D01*
X234768409Y-122019111D01*
X234788939Y-122024612D01*
X234350371Y-122463181D01*
X234289048Y-122496666D01*
X234262692Y-122499500D01*
X234199999Y-122499500D01*
X234199980Y-122499501D01*
X234097203Y-122510000D01*
X234097200Y-122510001D01*
X233930668Y-122565185D01*
X233930663Y-122565187D01*
X233781342Y-122657289D01*
X233657289Y-122781342D01*
X233625784Y-122832419D01*
X233581696Y-122903900D01*
X233561395Y-122936813D01*
X233559600Y-122935706D01*
X233520313Y-122980337D01*
X233454092Y-122999500D01*
X225345783Y-122999500D01*
X225278744Y-122979815D01*
X225258102Y-122963181D01*
X223719677Y-121424756D01*
X218206717Y-115911797D01*
X218173232Y-115850474D01*
X218171925Y-115843513D01*
X218148477Y-115695466D01*
X218148477Y-115695465D01*
X218085218Y-115500776D01*
X218041598Y-115415168D01*
X217992287Y-115318390D01*
X217984556Y-115307749D01*
X217871971Y-115152786D01*
X217727213Y-115008028D01*
X217561613Y-114887715D01*
X217561612Y-114887714D01*
X217561610Y-114887713D01*
X217473287Y-114842710D01*
X217379223Y-114794781D01*
X217184534Y-114731522D01*
X217009995Y-114703878D01*
X216982352Y-114699500D01*
X216777648Y-114699500D01*
X216753329Y-114703351D01*
X216575465Y-114731522D01*
X216380776Y-114794781D01*
X216198386Y-114887715D01*
X216032786Y-115008028D01*
X215888028Y-115152786D01*
X215767715Y-115318386D01*
X215674781Y-115500776D01*
X215611522Y-115695465D01*
X215582496Y-115878733D01*
X215579500Y-115897648D01*
X215579500Y-116102352D01*
X215583116Y-116125185D01*
X215611522Y-116304534D01*
X215674781Y-116499223D01*
X215738691Y-116624653D01*
X215745406Y-116637831D01*
X215767715Y-116681613D01*
X215888028Y-116847213D01*
X216032786Y-116991971D01*
X216187749Y-117104556D01*
X216198390Y-117112287D01*
X216314607Y-117171503D01*
X216380776Y-117205218D01*
X216380778Y-117205218D01*
X216380781Y-117205220D01*
X216485137Y-117239127D01*
X216575465Y-117268477D01*
X216652966Y-117280751D01*
X216723513Y-117291925D01*
X216786648Y-117321854D01*
X216791796Y-117326716D01*
X224102860Y-124637781D01*
X224102861Y-124637782D01*
X224185545Y-124720466D01*
X224242219Y-124777140D01*
X224406079Y-124886628D01*
X224406086Y-124886632D01*
X224493037Y-124922648D01*
X224588164Y-124962051D01*
X224781454Y-125000499D01*
X224781457Y-125000500D01*
X224781459Y-125000500D01*
X233454092Y-125000500D01*
X233521131Y-125020185D01*
X233559636Y-125064271D01*
X233561395Y-125063187D01*
X233565185Y-125069331D01*
X233565186Y-125069334D01*
X233657288Y-125218656D01*
X233781344Y-125342712D01*
X233930666Y-125434814D01*
X234097203Y-125489999D01*
X234199991Y-125500500D01*
X235800008Y-125500499D01*
X235902797Y-125489999D01*
X236069334Y-125434814D01*
X236218656Y-125342712D01*
X236342712Y-125218656D01*
X236434814Y-125069334D01*
X236489999Y-124902797D01*
X236500500Y-124800009D01*
X236500499Y-123965782D01*
X236520183Y-123898744D01*
X236536818Y-123878102D01*
X237034310Y-123380611D01*
X237550539Y-122864382D01*
X237606023Y-122781344D01*
X237660031Y-122700516D01*
X237660036Y-122700506D01*
X237709292Y-122581588D01*
X237735451Y-122518435D01*
X237739218Y-122499500D01*
X237773900Y-122325141D01*
X237773900Y-122128060D01*
X237773900Y-115174859D01*
X237746667Y-115037949D01*
X237735451Y-114981564D01*
X237727177Y-114961588D01*
X237697481Y-114889895D01*
X237660035Y-114799492D01*
X237660028Y-114799479D01*
X237550540Y-114635619D01*
X237484252Y-114569331D01*
X237411182Y-114496261D01*
X237411181Y-114496260D01*
X237009969Y-114095048D01*
X236536818Y-113621897D01*
X236503333Y-113560574D01*
X236500499Y-113534216D01*
X236500499Y-112699998D01*
X236500498Y-112699981D01*
X236489999Y-112597203D01*
X236489998Y-112597200D01*
X236472370Y-112544003D01*
X236434814Y-112430666D01*
X236342712Y-112281344D01*
X236218656Y-112157288D01*
X236125888Y-112100069D01*
X236069336Y-112065187D01*
X236069331Y-112065185D01*
X236067862Y-112064698D01*
X235902797Y-112010001D01*
X235902795Y-112010000D01*
X235800016Y-111999500D01*
X235737308Y-111999500D01*
X235670269Y-111979815D01*
X235649627Y-111963181D01*
X235211059Y-111524612D01*
X235231591Y-111519111D01*
X235368408Y-111440119D01*
X235480119Y-111328408D01*
X235559111Y-111191591D01*
X235564612Y-111171058D01*
X236222658Y-111829105D01*
X236222658Y-111829104D01*
X236282914Y-111746169D01*
X236282918Y-111746163D01*
X236390102Y-111535802D01*
X236463065Y-111311247D01*
X236500000Y-111078052D01*
X236500000Y-110841947D01*
X236463065Y-110608752D01*
X236390102Y-110384197D01*
X236282914Y-110173828D01*
X236222658Y-110090894D01*
X236222658Y-110090893D01*
X235564612Y-110748940D01*
X235559111Y-110728409D01*
X235480119Y-110591592D01*
X235368408Y-110479881D01*
X235231591Y-110400889D01*
X235211059Y-110395387D01*
X235869105Y-109737340D01*
X235867551Y-109717594D01*
X235881915Y-109649216D01*
X235918284Y-109607547D01*
X235977510Y-109564517D01*
X236144517Y-109397510D01*
X236283343Y-109206433D01*
X236390568Y-108995992D01*
X236463553Y-108771368D01*
X236495792Y-108567820D01*
X236500500Y-108538097D01*
X236500500Y-108301902D01*
X236463553Y-108068631D01*
X236402553Y-107880894D01*
X236390568Y-107844008D01*
X236390566Y-107844005D01*
X236390566Y-107844003D01*
X236283342Y-107633566D01*
X236144517Y-107442490D01*
X235977510Y-107275483D01*
X235786433Y-107136657D01*
X235575996Y-107029433D01*
X235351368Y-106956446D01*
X235118097Y-106919500D01*
X235118092Y-106919500D01*
X234881908Y-106919500D01*
X234881903Y-106919500D01*
X234648631Y-106956446D01*
X234424003Y-107029433D01*
X234213566Y-107136657D01*
X234104550Y-107215862D01*
X234022490Y-107275483D01*
X234022488Y-107275485D01*
X234022487Y-107275485D01*
X233855485Y-107442487D01*
X233855485Y-107442488D01*
X233855483Y-107442490D01*
X233814841Y-107498429D01*
X233716657Y-107633566D01*
X233609433Y-107844003D01*
X233536446Y-108068631D01*
X233499500Y-108301902D01*
X233499500Y-108538097D01*
X233536446Y-108771368D01*
X233609433Y-108995996D01*
X233716657Y-109206433D01*
X233855483Y-109397510D01*
X234022490Y-109564517D01*
X234081716Y-109607547D01*
X234124381Y-109662875D01*
X234132448Y-109717593D01*
X234130893Y-109737340D01*
X234788941Y-110395387D01*
X234768409Y-110400889D01*
X234631592Y-110479881D01*
X234519881Y-110591592D01*
X234440889Y-110728409D01*
X234435387Y-110748941D01*
X233777340Y-110090894D01*
X233717084Y-110173830D01*
X233609897Y-110384197D01*
X233536934Y-110608752D01*
X233500000Y-110841947D01*
X233500000Y-111078052D01*
X233536934Y-111311247D01*
X233609897Y-111535802D01*
X233717087Y-111746174D01*
X233777338Y-111829104D01*
X233777340Y-111829105D01*
X234435387Y-111171058D01*
X234440889Y-111191591D01*
X234519881Y-111328408D01*
X234631592Y-111440119D01*
X234768409Y-111519111D01*
X234788940Y-111524612D01*
X234350371Y-111963181D01*
X234289048Y-111996666D01*
X234262692Y-111999500D01*
X234199999Y-111999500D01*
X234199980Y-111999501D01*
X234097203Y-112010000D01*
X234097200Y-112010001D01*
X233930668Y-112065185D01*
X233930663Y-112065187D01*
X233781342Y-112157289D01*
X233657289Y-112281342D01*
X233565187Y-112430663D01*
X233565185Y-112430668D01*
X233557407Y-112454142D01*
X233510001Y-112597203D01*
X233510001Y-112597204D01*
X233510000Y-112597204D01*
X233499500Y-112699983D01*
X233499500Y-114300001D01*
X233499501Y-114300018D01*
X233510000Y-114402796D01*
X233510001Y-114402799D01*
X233540972Y-114496261D01*
X233565186Y-114569334D01*
X233657288Y-114718656D01*
X233781344Y-114842712D01*
X233930666Y-114934814D01*
X234097203Y-114989999D01*
X234199991Y-115000500D01*
X235034216Y-115000499D01*
X235101255Y-115020183D01*
X235121897Y-115036818D01*
X235736581Y-115651501D01*
X235770066Y-115712824D01*
X235772900Y-115739182D01*
X235772900Y-117427411D01*
X235753215Y-117494450D01*
X235700411Y-117540205D01*
X235631253Y-117550149D01*
X235592608Y-117537897D01*
X235575999Y-117529435D01*
X235575995Y-117529434D01*
X235575992Y-117529432D01*
X235468329Y-117494450D01*
X235351368Y-117456446D01*
X235118097Y-117419500D01*
X235118092Y-117419500D01*
X234881908Y-117419500D01*
X234881903Y-117419500D01*
X234648628Y-117456447D01*
X234549118Y-117488779D01*
X234479276Y-117490774D01*
X234423120Y-117458529D01*
X232575822Y-115611232D01*
X232565859Y-115601269D01*
X232565858Y-115601267D01*
X232478733Y-115514142D01*
X232427509Y-115479915D01*
X232376286Y-115445688D01*
X232376283Y-115445686D01*
X232376280Y-115445685D01*
X232302603Y-115415168D01*
X232302601Y-115415167D01*
X232295792Y-115412347D01*
X232262452Y-115398537D01*
X232202029Y-115386518D01*
X232197306Y-115385578D01*
X232197304Y-115385578D01*
X232141610Y-115374500D01*
X232141607Y-115374500D01*
X232141606Y-115374500D01*
X225716115Y-115374500D01*
X225649076Y-115354815D01*
X225616393Y-115321428D01*
X225615151Y-115322331D01*
X225491971Y-115152786D01*
X225347213Y-115008028D01*
X225181613Y-114887715D01*
X225181612Y-114887714D01*
X225181610Y-114887713D01*
X225093287Y-114842710D01*
X224999223Y-114794781D01*
X224804534Y-114731522D01*
X224629995Y-114703878D01*
X224602352Y-114699500D01*
X224397648Y-114699500D01*
X224294101Y-114715900D01*
X224190654Y-114732285D01*
X224190333Y-114730262D01*
X224129120Y-114727149D01*
X224082371Y-114697781D01*
X220706450Y-111321860D01*
X220699160Y-111314570D01*
X220699158Y-111314567D01*
X220612033Y-111227442D01*
X220560809Y-111193215D01*
X220509586Y-111158988D01*
X220509583Y-111158986D01*
X220509580Y-111158985D01*
X220435903Y-111128468D01*
X220435901Y-111128467D01*
X220429092Y-111125647D01*
X220395752Y-111111837D01*
X220335329Y-111099818D01*
X220330606Y-111098878D01*
X220330604Y-111098878D01*
X220274910Y-111087800D01*
X220274907Y-111087800D01*
X220274906Y-111087800D01*
X213096154Y-111087800D01*
X213074910Y-111081562D01*
X213052823Y-111079983D01*
X213042037Y-111071909D01*
X213029115Y-111068115D01*
X213014617Y-111051383D01*
X212996889Y-111038113D01*
X212992180Y-111025490D01*
X212983360Y-111015311D01*
X212980208Y-110993395D01*
X212972470Y-110972649D01*
X212975333Y-110959485D01*
X212973416Y-110946153D01*
X212982613Y-110926012D01*
X212987320Y-110904376D01*
X213000591Y-110886646D01*
X213002441Y-110882597D01*
X213008471Y-110876121D01*
X213008472Y-110876119D01*
X213037832Y-110846759D01*
X213042644Y-110841947D01*
X213085858Y-110798733D01*
X213085860Y-110798729D01*
X227042162Y-96842426D01*
X227103483Y-96808943D01*
X227168162Y-96812179D01*
X227183757Y-96817246D01*
X227393713Y-96850500D01*
X227393714Y-96850500D01*
X227606286Y-96850500D01*
X227606287Y-96850500D01*
X227816243Y-96817246D01*
X228018412Y-96751557D01*
X228207816Y-96655051D01*
X228248662Y-96625375D01*
X228379786Y-96530109D01*
X228379788Y-96530106D01*
X228379792Y-96530104D01*
X228530104Y-96379792D01*
X228530106Y-96379788D01*
X228530109Y-96379786D01*
X228655048Y-96207820D01*
X228655047Y-96207820D01*
X228655051Y-96207816D01*
X228751557Y-96018412D01*
X228817246Y-95816243D01*
X228850500Y-95606287D01*
X228850500Y-95393713D01*
X228817246Y-95183757D01*
X228751557Y-94981588D01*
X228655051Y-94792184D01*
X228655049Y-94792181D01*
X228655048Y-94792179D01*
X228530109Y-94620213D01*
X228416181Y-94506285D01*
X228382696Y-94444962D01*
X228387680Y-94375270D01*
X228429552Y-94319337D01*
X228460529Y-94302422D01*
X228592086Y-94253354D01*
X228592093Y-94253350D01*
X228707187Y-94167190D01*
X228707190Y-94167187D01*
X228793350Y-94052093D01*
X228793354Y-94052086D01*
X228843596Y-93917379D01*
X228843598Y-93917372D01*
X228849999Y-93857844D01*
X228850000Y-93857827D01*
X228850000Y-93210000D01*
X227933012Y-93210000D01*
X227965925Y-93152993D01*
X228000000Y-93025826D01*
X228000000Y-92894174D01*
X227965925Y-92767007D01*
X227933012Y-92710000D01*
X228850000Y-92710000D01*
X228850000Y-92062172D01*
X228849999Y-92062155D01*
X228843598Y-92002627D01*
X228843596Y-92002620D01*
X228793354Y-91867913D01*
X228793350Y-91867906D01*
X228707190Y-91752812D01*
X228707187Y-91752809D01*
X228592093Y-91666649D01*
X228592086Y-91666645D01*
X228457379Y-91616403D01*
X228457372Y-91616401D01*
X228397844Y-91610000D01*
X227750000Y-91610000D01*
X227750000Y-92526988D01*
X227692993Y-92494075D01*
X227565826Y-92460000D01*
X227434174Y-92460000D01*
X227307007Y-92494075D01*
X227250000Y-92526988D01*
X227250000Y-91610000D01*
X226602155Y-91610000D01*
X226542627Y-91616401D01*
X226542620Y-91616403D01*
X226407913Y-91666645D01*
X226407906Y-91666649D01*
X226292812Y-91752809D01*
X226292809Y-91752812D01*
X226206649Y-91867906D01*
X226206645Y-91867913D01*
X226156403Y-92002620D01*
X226156401Y-92002627D01*
X226150000Y-92062155D01*
X226150000Y-92710000D01*
X227066988Y-92710000D01*
X227034075Y-92767007D01*
X227000000Y-92894174D01*
X227000000Y-93025826D01*
X227034075Y-93152993D01*
X227066988Y-93210000D01*
X226150000Y-93210000D01*
X226150000Y-93857844D01*
X226156401Y-93917372D01*
X226156403Y-93917379D01*
X226206645Y-94052086D01*
X226206649Y-94052093D01*
X226292809Y-94167187D01*
X226292812Y-94167190D01*
X226407906Y-94253350D01*
X226407913Y-94253354D01*
X226539470Y-94302422D01*
X226595404Y-94344293D01*
X226619821Y-94409758D01*
X226604969Y-94478031D01*
X226583819Y-94506285D01*
X226469889Y-94620215D01*
X226344951Y-94792179D01*
X226248444Y-94981585D01*
X226182753Y-95183760D01*
X226149500Y-95393713D01*
X226149500Y-95606286D01*
X226182753Y-95816241D01*
X226187821Y-95831837D01*
X226189816Y-95901678D01*
X226157571Y-95957837D01*
X212377229Y-109738181D01*
X212315906Y-109771666D01*
X212289548Y-109774500D01*
X211372981Y-109774500D01*
X211305942Y-109754815D01*
X211262497Y-109706797D01*
X211255049Y-109692180D01*
X211130109Y-109520213D01*
X210979786Y-109369890D01*
X210807820Y-109244951D01*
X210807115Y-109244591D01*
X210799054Y-109240485D01*
X210748259Y-109192512D01*
X210731463Y-109124692D01*
X210753999Y-109058556D01*
X210799054Y-109019515D01*
X210807816Y-109015051D01*
X210834049Y-108995992D01*
X210979786Y-108890109D01*
X210979788Y-108890106D01*
X210979792Y-108890104D01*
X211130104Y-108739792D01*
X211130106Y-108739788D01*
X211130109Y-108739786D01*
X211255048Y-108567820D01*
X211255047Y-108567820D01*
X211255051Y-108567816D01*
X211351557Y-108378412D01*
X211417246Y-108176243D01*
X211450500Y-107966287D01*
X211450500Y-107753713D01*
X211417246Y-107543757D01*
X211412179Y-107528162D01*
X211410182Y-107458321D01*
X211442426Y-107402162D01*
X217125429Y-101719160D01*
X217125433Y-101719158D01*
X217212558Y-101632033D01*
X217260355Y-101560500D01*
X217281012Y-101529586D01*
X217328163Y-101415751D01*
X217352200Y-101294907D01*
X217352200Y-101171693D01*
X217352200Y-91364894D01*
X217328163Y-91244048D01*
X217281011Y-91130214D01*
X217281010Y-91130213D01*
X217281007Y-91130207D01*
X217212558Y-91027767D01*
X217212555Y-91027763D01*
X217122337Y-90937545D01*
X217122306Y-90937516D01*
X202483350Y-76298560D01*
X202476060Y-76291270D01*
X202476058Y-76291267D01*
X202388933Y-76204142D01*
X202337709Y-76169915D01*
X202286486Y-76135688D01*
X202199119Y-76099500D01*
X202172652Y-76088537D01*
X202112229Y-76076518D01*
X202107974Y-76075671D01*
X202107968Y-76075670D01*
X202051810Y-76064500D01*
X202051807Y-76064500D01*
X202051806Y-76064500D01*
X189481260Y-76064500D01*
X189414221Y-76044815D01*
X189368466Y-75992011D01*
X189358522Y-75922853D01*
X189363329Y-75902182D01*
X189368520Y-75886203D01*
X189417246Y-75736243D01*
X189450500Y-75526287D01*
X189450500Y-75313713D01*
X189417246Y-75103757D01*
X189351557Y-74901588D01*
X189255051Y-74712184D01*
X189255049Y-74712181D01*
X189255048Y-74712179D01*
X189130109Y-74540213D01*
X188979786Y-74389890D01*
X188807820Y-74264951D01*
X188807115Y-74264591D01*
X188799054Y-74260485D01*
X188748259Y-74212512D01*
X188731463Y-74144692D01*
X188753999Y-74078556D01*
X188799054Y-74039515D01*
X188807816Y-74035051D01*
X188829789Y-74019086D01*
X188979786Y-73910109D01*
X188979788Y-73910106D01*
X188979792Y-73910104D01*
X189130104Y-73759792D01*
X189130106Y-73759788D01*
X189130109Y-73759786D01*
X189255048Y-73587820D01*
X189255049Y-73587819D01*
X189255051Y-73587816D01*
X189351557Y-73398412D01*
X189417246Y-73196243D01*
X189450500Y-72986287D01*
X189450500Y-72773713D01*
X189417246Y-72563757D01*
X189351557Y-72361588D01*
X189255051Y-72172184D01*
X189255049Y-72172181D01*
X189255048Y-72172179D01*
X189130109Y-72000213D01*
X189016569Y-71886673D01*
X188983084Y-71825350D01*
X188988068Y-71755658D01*
X189029940Y-71699725D01*
X189060915Y-71682810D01*
X189192331Y-71633796D01*
X189307546Y-71547546D01*
X189393796Y-71432331D01*
X189444091Y-71297483D01*
X189450500Y-71237873D01*
X189450499Y-69442128D01*
X189444091Y-69382517D01*
X189393796Y-69247669D01*
X189393795Y-69247668D01*
X189393793Y-69247664D01*
X189307547Y-69132455D01*
X189307544Y-69132452D01*
X189192335Y-69046206D01*
X189192328Y-69046202D01*
X189057482Y-68995908D01*
X189057483Y-68995908D01*
X188997883Y-68989501D01*
X188997881Y-68989500D01*
X188997873Y-68989500D01*
X188997864Y-68989500D01*
X187202129Y-68989500D01*
X187202123Y-68989501D01*
X187142516Y-68995908D01*
X187007671Y-69046202D01*
X187007664Y-69046206D01*
X186892455Y-69132452D01*
X186886745Y-69138163D01*
X186825422Y-69171648D01*
X186755730Y-69166664D01*
X186711383Y-69138163D01*
X185266933Y-67693713D01*
X212149500Y-67693713D01*
X212149500Y-67906287D01*
X212182754Y-68116243D01*
X212222345Y-68238092D01*
X212248444Y-68318414D01*
X212344951Y-68507820D01*
X212469890Y-68679786D01*
X212620213Y-68830109D01*
X212792182Y-68955050D01*
X212800946Y-68959516D01*
X212851742Y-69007491D01*
X212868536Y-69075312D01*
X212845998Y-69141447D01*
X212800946Y-69180484D01*
X212792182Y-69184949D01*
X212620213Y-69309890D01*
X212469890Y-69460213D01*
X212344951Y-69632179D01*
X212248444Y-69821585D01*
X212182753Y-70023760D01*
X212149500Y-70233713D01*
X212149500Y-70446286D01*
X212182753Y-70656239D01*
X212248444Y-70858414D01*
X212344951Y-71047820D01*
X212469890Y-71219786D01*
X212620213Y-71370109D01*
X212792182Y-71495050D01*
X212800946Y-71499516D01*
X212851742Y-71547491D01*
X212868536Y-71615312D01*
X212845998Y-71681447D01*
X212800946Y-71720484D01*
X212792182Y-71724949D01*
X212620213Y-71849890D01*
X212620209Y-71849894D01*
X212469897Y-72000207D01*
X212469890Y-72000213D01*
X212344951Y-72172179D01*
X212248444Y-72361585D01*
X212182753Y-72563760D01*
X212149500Y-72773713D01*
X212149500Y-72986287D01*
X212182754Y-73196243D01*
X212220757Y-73313205D01*
X212248444Y-73398414D01*
X212344951Y-73587820D01*
X212469890Y-73759786D01*
X212620213Y-73910109D01*
X212792182Y-74035050D01*
X212800946Y-74039516D01*
X212851742Y-74087491D01*
X212868536Y-74155312D01*
X212845998Y-74221447D01*
X212800946Y-74260484D01*
X212792182Y-74264949D01*
X212620213Y-74389890D01*
X212620209Y-74389894D01*
X212469897Y-74540207D01*
X212469890Y-74540213D01*
X212344951Y-74712179D01*
X212248444Y-74901585D01*
X212182753Y-75103760D01*
X212149500Y-75313713D01*
X212149500Y-75526286D01*
X212182753Y-75736239D01*
X212182753Y-75736241D01*
X212182754Y-75736243D01*
X212220757Y-75853205D01*
X212248444Y-75938414D01*
X212344951Y-76127820D01*
X212469890Y-76299786D01*
X212620213Y-76450109D01*
X212792182Y-76575050D01*
X212800946Y-76579516D01*
X212851742Y-76627491D01*
X212868536Y-76695312D01*
X212845998Y-76761447D01*
X212800946Y-76800484D01*
X212792182Y-76804949D01*
X212620213Y-76929890D01*
X212620209Y-76929894D01*
X212469897Y-77080207D01*
X212469890Y-77080213D01*
X212344951Y-77252179D01*
X212248444Y-77441585D01*
X212182753Y-77643760D01*
X212149500Y-77853713D01*
X212149500Y-78066286D01*
X212182735Y-78276127D01*
X212182754Y-78276243D01*
X212220757Y-78393205D01*
X212248444Y-78478414D01*
X212344951Y-78667820D01*
X212469890Y-78839786D01*
X212583430Y-78953326D01*
X212616915Y-79014649D01*
X212611931Y-79084341D01*
X212570059Y-79140274D01*
X212539083Y-79157189D01*
X212407669Y-79206203D01*
X212407664Y-79206206D01*
X212292455Y-79292452D01*
X212292452Y-79292455D01*
X212206206Y-79407664D01*
X212206202Y-79407671D01*
X212155908Y-79542517D01*
X212153598Y-79564008D01*
X212149501Y-79602123D01*
X212149500Y-79602135D01*
X212149500Y-81397870D01*
X212149501Y-81397876D01*
X212155908Y-81457483D01*
X212206202Y-81592328D01*
X212206206Y-81592335D01*
X212292452Y-81707544D01*
X212292455Y-81707547D01*
X212407664Y-81793793D01*
X212407671Y-81793797D01*
X212542517Y-81844091D01*
X212542516Y-81844091D01*
X212549444Y-81844835D01*
X212602127Y-81850500D01*
X214397872Y-81850499D01*
X214457483Y-81844091D01*
X214592331Y-81793796D01*
X214707546Y-81707546D01*
X214793796Y-81592331D01*
X214844091Y-81457483D01*
X214850500Y-81397873D01*
X214850500Y-81249500D01*
X214870185Y-81182461D01*
X214922989Y-81136706D01*
X214974500Y-81125500D01*
X232509548Y-81125500D01*
X232576587Y-81145185D01*
X232597229Y-81161819D01*
X233538529Y-82103120D01*
X233572014Y-82164443D01*
X233568779Y-82229118D01*
X233536447Y-82328628D01*
X233499500Y-82561902D01*
X233499500Y-82798097D01*
X233536446Y-83031368D01*
X233609433Y-83255996D01*
X233716657Y-83466433D01*
X233855483Y-83657510D01*
X234022490Y-83824517D01*
X234057127Y-83849683D01*
X234099792Y-83905013D01*
X234105771Y-83974626D01*
X234073165Y-84036421D01*
X234057130Y-84050315D01*
X234039365Y-84063222D01*
X234022488Y-84075484D01*
X233855485Y-84242487D01*
X233855485Y-84242488D01*
X233855483Y-84242490D01*
X233825105Y-84284302D01*
X233716657Y-84433566D01*
X233609433Y-84644003D01*
X233536446Y-84868631D01*
X233499500Y-85101902D01*
X233499500Y-85338097D01*
X233536446Y-85571368D01*
X233609433Y-85795996D01*
X233649217Y-85874075D01*
X233716657Y-86006433D01*
X233855483Y-86197510D01*
X234022490Y-86364517D01*
X234057127Y-86389683D01*
X234099792Y-86445013D01*
X234105771Y-86514626D01*
X234073165Y-86576421D01*
X234057130Y-86590315D01*
X234039365Y-86603222D01*
X234022488Y-86615484D01*
X233855485Y-86782487D01*
X233855485Y-86782488D01*
X233855483Y-86782490D01*
X233797214Y-86862690D01*
X233716657Y-86973566D01*
X233609433Y-87184003D01*
X233536446Y-87408631D01*
X233499500Y-87641902D01*
X233499500Y-87878097D01*
X233536446Y-88111368D01*
X233609433Y-88335996D01*
X233632827Y-88381908D01*
X233716657Y-88546433D01*
X233855483Y-88737510D01*
X234022490Y-88904517D01*
X234057127Y-88929683D01*
X234099792Y-88985013D01*
X234105771Y-89054626D01*
X234073165Y-89116421D01*
X234057130Y-89130315D01*
X234039365Y-89143222D01*
X234022488Y-89155484D01*
X233855485Y-89322487D01*
X233855485Y-89322488D01*
X233855483Y-89322490D01*
X233800464Y-89398217D01*
X233716657Y-89513566D01*
X233609433Y-89724003D01*
X233536446Y-89948631D01*
X233499500Y-90181902D01*
X233499500Y-90418097D01*
X233536446Y-90651368D01*
X233609433Y-90875996D01*
X233686763Y-91027763D01*
X233716657Y-91086433D01*
X233855483Y-91277510D01*
X234022490Y-91444517D01*
X234057127Y-91469683D01*
X234099792Y-91525013D01*
X234105771Y-91594626D01*
X234073165Y-91656421D01*
X234057130Y-91670315D01*
X234039365Y-91683222D01*
X234022488Y-91695484D01*
X233855485Y-91862487D01*
X233855485Y-91862488D01*
X233855483Y-91862490D01*
X233820308Y-91910904D01*
X233716657Y-92053566D01*
X233609433Y-92264003D01*
X233536446Y-92488631D01*
X233499500Y-92721902D01*
X233499500Y-92958097D01*
X233536446Y-93191368D01*
X233609433Y-93415996D01*
X233698507Y-93590811D01*
X233716657Y-93626433D01*
X233855483Y-93817510D01*
X234022490Y-93984517D01*
X234057127Y-94009683D01*
X234099792Y-94065013D01*
X234105771Y-94134626D01*
X234073165Y-94196421D01*
X234057130Y-94210315D01*
X234039365Y-94223222D01*
X234022488Y-94235484D01*
X233855485Y-94402487D01*
X233855485Y-94402488D01*
X233855483Y-94402490D01*
X233824625Y-94444962D01*
X233716657Y-94593566D01*
X233609433Y-94804003D01*
X233536446Y-95028631D01*
X233499500Y-95261902D01*
X233499500Y-95498097D01*
X233536446Y-95731368D01*
X233609433Y-95955996D01*
X233711687Y-96156679D01*
X233716657Y-96166433D01*
X233855483Y-96357510D01*
X234022490Y-96524517D01*
X234057127Y-96549683D01*
X234099792Y-96605013D01*
X234105771Y-96674626D01*
X234073165Y-96736421D01*
X234057130Y-96750315D01*
X234039365Y-96763222D01*
X234022488Y-96775484D01*
X233855485Y-96942487D01*
X233855485Y-96942488D01*
X233855483Y-96942490D01*
X233844333Y-96957837D01*
X233716657Y-97133566D01*
X233609433Y-97344003D01*
X233536446Y-97568631D01*
X233499500Y-97801902D01*
X233499500Y-98038097D01*
X233536446Y-98271368D01*
X233609433Y-98495996D01*
X233708939Y-98691286D01*
X233716657Y-98706433D01*
X233855483Y-98897510D01*
X234022490Y-99064517D01*
X234057127Y-99089683D01*
X234099792Y-99145013D01*
X234105771Y-99214626D01*
X234073165Y-99276421D01*
X234057130Y-99290315D01*
X234039365Y-99303222D01*
X234022488Y-99315484D01*
X233855485Y-99482487D01*
X233855485Y-99482488D01*
X233855483Y-99482490D01*
X233795862Y-99564550D01*
X233716657Y-99673566D01*
X233609433Y-99884003D01*
X233536446Y-100108631D01*
X233499500Y-100341902D01*
X233499500Y-100578097D01*
X233536446Y-100811368D01*
X233609433Y-101035996D01*
X233683918Y-101182180D01*
X233716657Y-101246433D01*
X233855483Y-101437510D01*
X233855489Y-101437516D01*
X233858647Y-101441214D01*
X233856864Y-101442736D01*
X233885726Y-101495591D01*
X233880742Y-101565283D01*
X233838870Y-101621216D01*
X233829658Y-101627487D01*
X233781344Y-101657287D01*
X233657289Y-101781342D01*
X233565187Y-101930663D01*
X233565186Y-101930666D01*
X233510001Y-102097203D01*
X233510001Y-102097204D01*
X233510000Y-102097204D01*
X233499500Y-102199983D01*
X233499500Y-103800001D01*
X233499501Y-103800018D01*
X233510000Y-103902796D01*
X233510001Y-103902799D01*
X233565185Y-104069331D01*
X233565186Y-104069334D01*
X233657288Y-104218656D01*
X233781344Y-104342712D01*
X233930666Y-104434814D01*
X234097203Y-104489999D01*
X234199991Y-104500500D01*
X235800008Y-104500499D01*
X235902797Y-104489999D01*
X236069334Y-104434814D01*
X236218656Y-104342712D01*
X236342712Y-104218656D01*
X236434814Y-104069334D01*
X236489999Y-103902797D01*
X236500500Y-103800009D01*
X236500499Y-102199992D01*
X236489999Y-102097203D01*
X236434814Y-101930666D01*
X236342712Y-101781344D01*
X236218656Y-101657288D01*
X236218655Y-101657287D01*
X236170342Y-101627487D01*
X236123618Y-101575539D01*
X236112397Y-101506576D01*
X236140241Y-101442494D01*
X236141381Y-101441249D01*
X236141348Y-101441221D01*
X236144511Y-101437516D01*
X236144511Y-101437515D01*
X236144517Y-101437510D01*
X236283343Y-101246433D01*
X236390568Y-101035992D01*
X236463553Y-100811368D01*
X236471971Y-100758217D01*
X236500500Y-100578097D01*
X236500500Y-100341902D01*
X236463553Y-100108631D01*
X236405696Y-99930568D01*
X236390568Y-99884008D01*
X236390566Y-99884005D01*
X236390566Y-99884003D01*
X236317192Y-99740000D01*
X236283343Y-99673567D01*
X236144517Y-99482490D01*
X235977510Y-99315483D01*
X235942872Y-99290317D01*
X235900207Y-99234989D01*
X235894228Y-99165375D01*
X235926833Y-99103580D01*
X235942873Y-99089682D01*
X235977510Y-99064517D01*
X236144517Y-98897510D01*
X236283343Y-98706433D01*
X236390568Y-98495992D01*
X236463553Y-98271368D01*
X236474405Y-98202853D01*
X236500500Y-98038097D01*
X236500500Y-97801902D01*
X236463553Y-97568631D01*
X236412609Y-97411842D01*
X236390568Y-97344008D01*
X236390566Y-97344005D01*
X236390566Y-97344003D01*
X236334002Y-97232991D01*
X236283343Y-97133567D01*
X236144517Y-96942490D01*
X235977510Y-96775483D01*
X235942872Y-96750317D01*
X235900207Y-96694989D01*
X235894228Y-96625375D01*
X235926833Y-96563580D01*
X235942873Y-96549682D01*
X235977510Y-96524517D01*
X236144517Y-96357510D01*
X236283343Y-96166433D01*
X236390568Y-95955992D01*
X236463553Y-95731368D01*
X236489095Y-95570104D01*
X236500500Y-95498097D01*
X236500500Y-95261902D01*
X236463553Y-95028631D01*
X236390566Y-94804003D01*
X236315810Y-94657288D01*
X236283343Y-94593567D01*
X236144517Y-94402490D01*
X235977510Y-94235483D01*
X235942872Y-94210317D01*
X235900207Y-94154989D01*
X235894228Y-94085375D01*
X235926833Y-94023580D01*
X235942873Y-94009682D01*
X235977510Y-93984517D01*
X236144517Y-93817510D01*
X236283343Y-93626433D01*
X236390568Y-93415992D01*
X236463553Y-93191368D01*
X236464901Y-93182859D01*
X236500500Y-92958097D01*
X236500500Y-92721902D01*
X236463553Y-92488631D01*
X236428923Y-92382051D01*
X236390568Y-92264008D01*
X236390566Y-92264005D01*
X236390566Y-92264003D01*
X236287727Y-92062172D01*
X236283343Y-92053567D01*
X236144517Y-91862490D01*
X235977510Y-91695483D01*
X235942872Y-91670317D01*
X235900207Y-91614989D01*
X235894228Y-91545375D01*
X235926833Y-91483580D01*
X235942873Y-91469682D01*
X235977510Y-91444517D01*
X236144517Y-91277510D01*
X236283343Y-91086433D01*
X236390568Y-90875992D01*
X236463553Y-90651368D01*
X236500500Y-90418097D01*
X236500500Y-90181902D01*
X236463553Y-89948631D01*
X236390566Y-89724003D01*
X236283342Y-89513566D01*
X236144517Y-89322490D01*
X235977510Y-89155483D01*
X235942872Y-89130317D01*
X235900207Y-89074989D01*
X235894228Y-89005375D01*
X235926833Y-88943580D01*
X235942873Y-88929682D01*
X235977510Y-88904517D01*
X236144517Y-88737510D01*
X236283343Y-88546433D01*
X236390568Y-88335992D01*
X236463553Y-88111368D01*
X236493228Y-87924008D01*
X236500500Y-87878097D01*
X236500500Y-87641902D01*
X236463553Y-87408631D01*
X236390566Y-87184003D01*
X236315382Y-87036447D01*
X236283343Y-86973567D01*
X236144517Y-86782490D01*
X235977510Y-86615483D01*
X235942872Y-86590317D01*
X235900207Y-86534989D01*
X235894228Y-86465375D01*
X235926833Y-86403580D01*
X235942873Y-86389682D01*
X235977510Y-86364517D01*
X236144517Y-86197510D01*
X236283343Y-86006433D01*
X236390568Y-85795992D01*
X236463553Y-85571368D01*
X236478094Y-85479558D01*
X236500500Y-85338097D01*
X236500500Y-85101902D01*
X236463553Y-84868631D01*
X236390566Y-84644003D01*
X236308740Y-84483411D01*
X236283343Y-84433567D01*
X236144517Y-84242490D01*
X235977510Y-84075483D01*
X235942872Y-84050317D01*
X235900207Y-83994989D01*
X235894228Y-83925375D01*
X235926833Y-83863580D01*
X235942873Y-83849682D01*
X235977510Y-83824517D01*
X236144517Y-83657510D01*
X236283343Y-83466433D01*
X236390568Y-83255992D01*
X236463553Y-83031368D01*
X236500500Y-82798097D01*
X236500500Y-82561902D01*
X236463553Y-82328631D01*
X236429689Y-82224412D01*
X236390568Y-82104008D01*
X236390566Y-82104005D01*
X236390566Y-82104003D01*
X236283342Y-81893566D01*
X236144517Y-81702490D01*
X235977510Y-81535483D01*
X235942872Y-81510317D01*
X235900207Y-81454989D01*
X235894228Y-81385375D01*
X235926833Y-81323580D01*
X235942873Y-81309682D01*
X235977510Y-81284517D01*
X236144517Y-81117510D01*
X236283343Y-80926433D01*
X236390568Y-80715992D01*
X236463553Y-80491368D01*
X236500500Y-80258097D01*
X236500500Y-80021902D01*
X236463553Y-79788631D01*
X236429689Y-79684412D01*
X236390568Y-79564008D01*
X236390566Y-79564005D01*
X236390566Y-79564003D01*
X236283342Y-79353566D01*
X236144517Y-79162490D01*
X235977510Y-78995483D01*
X235942872Y-78970317D01*
X235900207Y-78914989D01*
X235894228Y-78845375D01*
X235926833Y-78783580D01*
X235942873Y-78769682D01*
X235977510Y-78744517D01*
X236144517Y-78577510D01*
X236283343Y-78386433D01*
X236390568Y-78175992D01*
X236463553Y-77951368D01*
X236476297Y-77870904D01*
X236500500Y-77718097D01*
X236500500Y-77481902D01*
X236463553Y-77248631D01*
X236412679Y-77092058D01*
X236390568Y-77024008D01*
X236390566Y-77024005D01*
X236390566Y-77024003D01*
X236283342Y-76813566D01*
X236277083Y-76804951D01*
X236144517Y-76622490D01*
X235977510Y-76455483D01*
X235942872Y-76430317D01*
X235900207Y-76374989D01*
X235894228Y-76305375D01*
X235926833Y-76243580D01*
X235942873Y-76229682D01*
X235977510Y-76204517D01*
X236144517Y-76037510D01*
X236283343Y-75846433D01*
X236390568Y-75635992D01*
X236463553Y-75411368D01*
X236479020Y-75313713D01*
X236500500Y-75178097D01*
X236500500Y-74941902D01*
X236463553Y-74708631D01*
X236429689Y-74604412D01*
X236390568Y-74484008D01*
X236390566Y-74484005D01*
X236390566Y-74484003D01*
X236283342Y-74273566D01*
X236277083Y-74264951D01*
X236144517Y-74082490D01*
X235977510Y-73915483D01*
X235786433Y-73776657D01*
X235753322Y-73759786D01*
X235575996Y-73669433D01*
X235351368Y-73596446D01*
X235118097Y-73559500D01*
X235118092Y-73559500D01*
X234881908Y-73559500D01*
X234881903Y-73559500D01*
X234648628Y-73596447D01*
X234549118Y-73628779D01*
X234479276Y-73630774D01*
X234423120Y-73598529D01*
X233315822Y-72491232D01*
X233305859Y-72481269D01*
X233305858Y-72481267D01*
X233218733Y-72394142D01*
X233167509Y-72359915D01*
X233116286Y-72325688D01*
X233116283Y-72325686D01*
X233116280Y-72325685D01*
X233042603Y-72295168D01*
X233042601Y-72295167D01*
X233035792Y-72292347D01*
X233002452Y-72278537D01*
X232942029Y-72266518D01*
X232937306Y-72265578D01*
X232937304Y-72265578D01*
X232881610Y-72254500D01*
X232881607Y-72254500D01*
X232881606Y-72254500D01*
X214772981Y-72254500D01*
X214705942Y-72234815D01*
X214662497Y-72186797D01*
X214655049Y-72172180D01*
X214530109Y-72000213D01*
X214379786Y-71849890D01*
X214207820Y-71724951D01*
X214207115Y-71724591D01*
X214199054Y-71720485D01*
X214148259Y-71672512D01*
X214131463Y-71604692D01*
X214153999Y-71538556D01*
X214199054Y-71499515D01*
X214207816Y-71495051D01*
X214229789Y-71479086D01*
X214379786Y-71370109D01*
X214379788Y-71370106D01*
X214379792Y-71370104D01*
X214530104Y-71219792D01*
X214530106Y-71219788D01*
X214530109Y-71219786D01*
X214655048Y-71047820D01*
X214655047Y-71047820D01*
X214655051Y-71047816D01*
X214751557Y-70858412D01*
X214817246Y-70656243D01*
X214850500Y-70446287D01*
X214850500Y-70233713D01*
X214817246Y-70023757D01*
X214751557Y-69821588D01*
X214655051Y-69632184D01*
X214655049Y-69632181D01*
X214655048Y-69632179D01*
X214530109Y-69460213D01*
X214379786Y-69309890D01*
X214207820Y-69184951D01*
X214207115Y-69184591D01*
X214199054Y-69180485D01*
X214148259Y-69132512D01*
X214131463Y-69064692D01*
X214153999Y-68998556D01*
X214199054Y-68959515D01*
X214207816Y-68955051D01*
X214241514Y-68930568D01*
X214379786Y-68830109D01*
X214379788Y-68830106D01*
X214379792Y-68830104D01*
X214530104Y-68679792D01*
X214530106Y-68679788D01*
X214530109Y-68679786D01*
X214655048Y-68507820D01*
X214655047Y-68507820D01*
X214655051Y-68507816D01*
X214751557Y-68318412D01*
X214817246Y-68116243D01*
X214850500Y-67906287D01*
X214850500Y-67693713D01*
X214817246Y-67483757D01*
X214751557Y-67281588D01*
X214655051Y-67092184D01*
X214655049Y-67092181D01*
X214655048Y-67092179D01*
X214530109Y-66920213D01*
X214379786Y-66769890D01*
X214207820Y-66644951D01*
X214018414Y-66548444D01*
X214018413Y-66548443D01*
X214018412Y-66548443D01*
X213816243Y-66482754D01*
X213816241Y-66482753D01*
X213816240Y-66482753D01*
X213654957Y-66457208D01*
X213606287Y-66449500D01*
X213393713Y-66449500D01*
X213345042Y-66457208D01*
X213183760Y-66482753D01*
X212981585Y-66548444D01*
X212792179Y-66644951D01*
X212620213Y-66769890D01*
X212469890Y-66920213D01*
X212344951Y-67092179D01*
X212248444Y-67281585D01*
X212182753Y-67483760D01*
X212173212Y-67544003D01*
X212149500Y-67693713D01*
X185266933Y-67693713D01*
X184479779Y-66906559D01*
X184479759Y-66906537D01*
X184336085Y-66762863D01*
X184336081Y-66762860D01*
X184172220Y-66653371D01*
X184172207Y-66653364D01*
X184047582Y-66601744D01*
X184047581Y-66601743D01*
X184040397Y-66598768D01*
X183990136Y-66577949D01*
X183887382Y-66557510D01*
X183883047Y-66556647D01*
X183883041Y-66556646D01*
X183796843Y-66539500D01*
X183796841Y-66539500D01*
X167321230Y-66539500D01*
X167254191Y-66519815D01*
X167208436Y-66467011D01*
X167198492Y-66397853D01*
X167227517Y-66334297D01*
X167233549Y-66327819D01*
X167342712Y-66218656D01*
X167434814Y-66069334D01*
X167489999Y-65902797D01*
X167500500Y-65800009D01*
X167500499Y-64199992D01*
X167498918Y-64184519D01*
X167489999Y-64097203D01*
X167489998Y-64097200D01*
X167463592Y-64017512D01*
X167434814Y-63930666D01*
X167342712Y-63781344D01*
X167218656Y-63657288D01*
X167069334Y-63565186D01*
X166902797Y-63510001D01*
X166902795Y-63510000D01*
X166800010Y-63499500D01*
X165199998Y-63499500D01*
X165199981Y-63499501D01*
X165097203Y-63510000D01*
X165097200Y-63510001D01*
X164930668Y-63565185D01*
X164930663Y-63565187D01*
X164781342Y-63657289D01*
X164657289Y-63781342D01*
X164565187Y-63930663D01*
X164565186Y-63930666D01*
X164510001Y-64097203D01*
X164510001Y-64097204D01*
X164510000Y-64097204D01*
X164499500Y-64199983D01*
X164499500Y-65800001D01*
X164499501Y-65800018D01*
X164510000Y-65902796D01*
X164510001Y-65902799D01*
X164565185Y-66069331D01*
X164565186Y-66069334D01*
X164657288Y-66218656D01*
X164781344Y-66342712D01*
X164819802Y-66366433D01*
X164829656Y-66372511D01*
X164876381Y-66424459D01*
X164887604Y-66493421D01*
X164859760Y-66557504D01*
X164858615Y-66558759D01*
X164858647Y-66558786D01*
X164855485Y-66562487D01*
X164855483Y-66562490D01*
X164826963Y-66601744D01*
X164716657Y-66753566D01*
X164609433Y-66964003D01*
X164536446Y-67188631D01*
X164499500Y-67421902D01*
X164499500Y-67574217D01*
X164479815Y-67641256D01*
X164463181Y-67661898D01*
X164008840Y-68116239D01*
X163563221Y-68561858D01*
X163563218Y-68561861D01*
X163493538Y-68631540D01*
X163423859Y-68701219D01*
X163314371Y-68865079D01*
X163314364Y-68865092D01*
X163262834Y-68989500D01*
X163241709Y-69040501D01*
X163241709Y-69040503D01*
X163238949Y-69047165D01*
X163238946Y-69047175D01*
X163200500Y-69240454D01*
X163200500Y-86752544D01*
X163233925Y-86920583D01*
X163233926Y-86920586D01*
X163238949Y-86945835D01*
X163238950Y-86945840D01*
X163314364Y-87127907D01*
X163314371Y-87127920D01*
X163423860Y-87291781D01*
X163423863Y-87291785D01*
X163567537Y-87435459D01*
X163567559Y-87435479D01*
X164770898Y-88638818D01*
X164804383Y-88700141D01*
X164799399Y-88769833D01*
X164770898Y-88814180D01*
X161762220Y-91822859D01*
X161762217Y-91822862D01*
X161712180Y-91872898D01*
X161650857Y-91906382D01*
X161581165Y-91901397D01*
X161525232Y-91859525D01*
X161500816Y-91794061D01*
X161500500Y-91785216D01*
X161500500Y-58975853D01*
X163354500Y-58975853D01*
X163354500Y-59133546D01*
X163385261Y-59288189D01*
X163385264Y-59288201D01*
X163445602Y-59433872D01*
X163445609Y-59433885D01*
X163533210Y-59564988D01*
X163533213Y-59564992D01*
X163644707Y-59676486D01*
X163644711Y-59676489D01*
X163775814Y-59764090D01*
X163775827Y-59764097D01*
X163921498Y-59824435D01*
X163921503Y-59824437D01*
X164076153Y-59855199D01*
X164076156Y-59855200D01*
X164076158Y-59855200D01*
X164233844Y-59855200D01*
X164233845Y-59855199D01*
X164388497Y-59824437D01*
X164534179Y-59764094D01*
X164628459Y-59701098D01*
X164677020Y-59681878D01*
X164687116Y-59680200D01*
X164706907Y-59680200D01*
X164805515Y-59660586D01*
X164807464Y-59660198D01*
X164807478Y-59660196D01*
X164827747Y-59656164D01*
X164827747Y-59656163D01*
X164827752Y-59656163D01*
X164827757Y-59656160D01*
X164827760Y-59656160D01*
X164861087Y-59642354D01*
X164861086Y-59642354D01*
X164861092Y-59642352D01*
X164941586Y-59609012D01*
X165007469Y-59564989D01*
X165044033Y-59540558D01*
X165131158Y-59453433D01*
X165131159Y-59453431D01*
X165138225Y-59446365D01*
X165138228Y-59446361D01*
X165423121Y-59161467D01*
X165484442Y-59127984D01*
X165549117Y-59131218D01*
X165595517Y-59146295D01*
X165648631Y-59163553D01*
X165881903Y-59200500D01*
X165881908Y-59200500D01*
X166118097Y-59200500D01*
X166351368Y-59163553D01*
X166412838Y-59143580D01*
X166575992Y-59090568D01*
X166786433Y-58983343D01*
X166977510Y-58844517D01*
X167144517Y-58677510D01*
X167283343Y-58486433D01*
X167390568Y-58275992D01*
X167463553Y-58051368D01*
X167476970Y-57966657D01*
X167500500Y-57818097D01*
X167500500Y-57581902D01*
X167463553Y-57348631D01*
X167390566Y-57124003D01*
X167318459Y-56982487D01*
X167283343Y-56913567D01*
X167144517Y-56722490D01*
X166977510Y-56555483D01*
X166942872Y-56530317D01*
X166900207Y-56474989D01*
X166894228Y-56405375D01*
X166926833Y-56343580D01*
X166942873Y-56329682D01*
X166977510Y-56304517D01*
X167144517Y-56137510D01*
X167283343Y-55946433D01*
X167387091Y-55742816D01*
X167390566Y-55735996D01*
X167390566Y-55735995D01*
X167390568Y-55735992D01*
X167463553Y-55511368D01*
X167483005Y-55388554D01*
X167500500Y-55278097D01*
X167500500Y-55041903D01*
X167484879Y-54943280D01*
X167484879Y-54943279D01*
X167481174Y-54919892D01*
X167463553Y-54808632D01*
X167390568Y-54584008D01*
X167390566Y-54584005D01*
X167390566Y-54584003D01*
X167318459Y-54442487D01*
X167283343Y-54373567D01*
X167144517Y-54182490D01*
X166977510Y-54015483D01*
X166942872Y-53990317D01*
X166900207Y-53934989D01*
X166894228Y-53865375D01*
X166926833Y-53803580D01*
X166942873Y-53789682D01*
X166977510Y-53764517D01*
X167144517Y-53597510D01*
X167283343Y-53406433D01*
X167390568Y-53195992D01*
X167463553Y-52971368D01*
X167470327Y-52928598D01*
X167500500Y-52738097D01*
X167500500Y-52501902D01*
X167463553Y-52268631D01*
X167390566Y-52044003D01*
X167306806Y-51879616D01*
X167283343Y-51833567D01*
X167144517Y-51642490D01*
X166977510Y-51475483D01*
X166918282Y-51432451D01*
X166875617Y-51377122D01*
X166867550Y-51322404D01*
X166869104Y-51302657D01*
X166211058Y-50644612D01*
X166231591Y-50639111D01*
X166368408Y-50560119D01*
X166480119Y-50448408D01*
X166559111Y-50311591D01*
X166564612Y-50291058D01*
X167222658Y-50949105D01*
X167222658Y-50949104D01*
X167282914Y-50866169D01*
X167282918Y-50866163D01*
X167390102Y-50655802D01*
X167463065Y-50431247D01*
X167500000Y-50198052D01*
X167500000Y-49961947D01*
X167463065Y-49728752D01*
X167390102Y-49504197D01*
X167282914Y-49293828D01*
X167222658Y-49210894D01*
X167222658Y-49210893D01*
X166564612Y-49868940D01*
X166559111Y-49848409D01*
X166480119Y-49711592D01*
X166368408Y-49599881D01*
X166231591Y-49520889D01*
X166211058Y-49515387D01*
X166869104Y-48857340D01*
X166866144Y-48819735D01*
X166866144Y-48800275D01*
X166869104Y-48762657D01*
X166211058Y-48104612D01*
X166231591Y-48099111D01*
X166368408Y-48020119D01*
X166480119Y-47908408D01*
X166559111Y-47771591D01*
X166564612Y-47751058D01*
X167222658Y-48409105D01*
X167222658Y-48409104D01*
X167282914Y-48326169D01*
X167282918Y-48326163D01*
X167390102Y-48115802D01*
X167463065Y-47891247D01*
X167500000Y-47658052D01*
X167500000Y-47421947D01*
X167463065Y-47188752D01*
X167390102Y-46964197D01*
X167282914Y-46753828D01*
X167222658Y-46670894D01*
X167222658Y-46670893D01*
X166564612Y-47328940D01*
X166559111Y-47308409D01*
X166480119Y-47171592D01*
X166368408Y-47059881D01*
X166231591Y-46980889D01*
X166211058Y-46975387D01*
X166649627Y-46536818D01*
X166710950Y-46503333D01*
X166737307Y-46500499D01*
X166800008Y-46500499D01*
X166902797Y-46489999D01*
X167069334Y-46434814D01*
X167218656Y-46342712D01*
X167342712Y-46218656D01*
X167434814Y-46069334D01*
X167489999Y-45902797D01*
X167500500Y-45800009D01*
X167500500Y-45785500D01*
X167520185Y-45718461D01*
X167572989Y-45672706D01*
X167624500Y-45661500D01*
X176810263Y-45661500D01*
X176877302Y-45681185D01*
X176923057Y-45733989D01*
X176933001Y-45803147D01*
X176903976Y-45866703D01*
X176885749Y-45883876D01*
X176857263Y-45905733D01*
X176857256Y-45905739D01*
X176685739Y-46077256D01*
X176685733Y-46077263D01*
X176538067Y-46269706D01*
X176416777Y-46479785D01*
X176416773Y-46479794D01*
X176323947Y-46703895D01*
X176261161Y-46938214D01*
X176229500Y-47178711D01*
X176229500Y-47421288D01*
X176261161Y-47661785D01*
X176323947Y-47896104D01*
X176408036Y-48099111D01*
X176416776Y-48120212D01*
X176538064Y-48330289D01*
X176538066Y-48330292D01*
X176538067Y-48330293D01*
X176685733Y-48522736D01*
X176685739Y-48522743D01*
X176857256Y-48694260D01*
X176857263Y-48694266D01*
X176938299Y-48756447D01*
X177049711Y-48841936D01*
X177259788Y-48963224D01*
X177483900Y-49056054D01*
X177718211Y-49118838D01*
X177898586Y-49142584D01*
X177958711Y-49150500D01*
X177958712Y-49150500D01*
X178201289Y-49150500D01*
X178249388Y-49144167D01*
X178441789Y-49118838D01*
X178676100Y-49056054D01*
X178900212Y-48963224D01*
X179110289Y-48841936D01*
X179302738Y-48694265D01*
X179474265Y-48522738D01*
X179621936Y-48330289D01*
X179743224Y-48120212D01*
X179836054Y-47896100D01*
X179898838Y-47661789D01*
X179930500Y-47421288D01*
X179930500Y-47178712D01*
X179898838Y-46938211D01*
X179836054Y-46703900D01*
X179743224Y-46479788D01*
X179621936Y-46269711D01*
X179507981Y-46121202D01*
X179474266Y-46077263D01*
X179474260Y-46077256D01*
X179302743Y-45905739D01*
X179302736Y-45905733D01*
X179274251Y-45883876D01*
X179233048Y-45827449D01*
X179228893Y-45757703D01*
X179263105Y-45696782D01*
X179324822Y-45664029D01*
X179349737Y-45661500D01*
X182803518Y-45661500D01*
X182870557Y-45681185D01*
X182891199Y-45697819D01*
X185243035Y-48049655D01*
X185243064Y-48049686D01*
X185385514Y-48192136D01*
X185385518Y-48192139D01*
X185549379Y-48301628D01*
X185549392Y-48301635D01*
X185678133Y-48354961D01*
X185720433Y-48372482D01*
X185731464Y-48377051D01*
X185828112Y-48396275D01*
X185876435Y-48405887D01*
X185924758Y-48415500D01*
X185924759Y-48415500D01*
X185924760Y-48415500D01*
X186121840Y-48415500D01*
X186210859Y-48415500D01*
X186277898Y-48435185D01*
X186323653Y-48487989D01*
X186327030Y-48496140D01*
X186331204Y-48507331D01*
X186331205Y-48507332D01*
X186331206Y-48507335D01*
X186417452Y-48622544D01*
X186417455Y-48622547D01*
X186532664Y-48708793D01*
X186532671Y-48708797D01*
X186664082Y-48757810D01*
X186720016Y-48799681D01*
X186744433Y-48865145D01*
X186729582Y-48933418D01*
X186708431Y-48961673D01*
X186594889Y-49075215D01*
X186469951Y-49247179D01*
X186373444Y-49436585D01*
X186307753Y-49638760D01*
X186274500Y-49848713D01*
X186274500Y-50061286D01*
X186296161Y-50198052D01*
X186307754Y-50271243D01*
X186369989Y-50462783D01*
X186373444Y-50473414D01*
X186469951Y-50662820D01*
X186594890Y-50834786D01*
X186745213Y-50985109D01*
X186917182Y-51110050D01*
X186925946Y-51114516D01*
X186976742Y-51162491D01*
X186993536Y-51230312D01*
X186970998Y-51296447D01*
X186925946Y-51335484D01*
X186917182Y-51339949D01*
X186745213Y-51464890D01*
X186594890Y-51615213D01*
X186469950Y-51787180D01*
X186462503Y-51801797D01*
X186414527Y-51852592D01*
X186352019Y-51869500D01*
X185882089Y-51869500D01*
X185831229Y-51879616D01*
X185831223Y-51879617D01*
X185821671Y-51881518D01*
X185761248Y-51893537D01*
X185739634Y-51902490D01*
X185647415Y-51940688D01*
X185647414Y-51940689D01*
X185625110Y-51955591D01*
X185625107Y-51955593D01*
X185544968Y-52009140D01*
X185510106Y-52044003D01*
X185457842Y-52096267D01*
X185457839Y-52096270D01*
X185217803Y-52336305D01*
X185156480Y-52369790D01*
X185154314Y-52370241D01*
X185043108Y-52392361D01*
X185043098Y-52392364D01*
X184897427Y-52452702D01*
X184897414Y-52452709D01*
X184766311Y-52540310D01*
X184766307Y-52540313D01*
X184654813Y-52651807D01*
X184654810Y-52651811D01*
X184567209Y-52782914D01*
X184567202Y-52782927D01*
X184506864Y-52928598D01*
X184506861Y-52928610D01*
X184476100Y-53083253D01*
X184476100Y-53240946D01*
X184506861Y-53395589D01*
X184506864Y-53395601D01*
X184567202Y-53541272D01*
X184567209Y-53541285D01*
X184654810Y-53672388D01*
X184654813Y-53672392D01*
X184766307Y-53783886D01*
X184766311Y-53783889D01*
X184897414Y-53871490D01*
X184897427Y-53871497D01*
X185013869Y-53919728D01*
X185043103Y-53931837D01*
X185197753Y-53962599D01*
X185197756Y-53962600D01*
X185197758Y-53962600D01*
X185355444Y-53962600D01*
X185355445Y-53962599D01*
X185510097Y-53931837D01*
X185634343Y-53880373D01*
X185655772Y-53871497D01*
X185655772Y-53871496D01*
X185655779Y-53871494D01*
X185786889Y-53783889D01*
X185898389Y-53672389D01*
X185985994Y-53541279D01*
X186046337Y-53395597D01*
X186068458Y-53284382D01*
X186077222Y-53267627D01*
X186081243Y-53249148D01*
X186099985Y-53224110D01*
X186100841Y-53222476D01*
X186102329Y-53220959D01*
X186166473Y-53156817D01*
X186227797Y-53123333D01*
X186254153Y-53120500D01*
X186352019Y-53120500D01*
X186419058Y-53140185D01*
X186462503Y-53188203D01*
X186469950Y-53202819D01*
X186594890Y-53374786D01*
X186745213Y-53525109D01*
X186917179Y-53650048D01*
X186917181Y-53650049D01*
X186917184Y-53650051D01*
X186926493Y-53654794D01*
X186977290Y-53702766D01*
X186994087Y-53770587D01*
X186971552Y-53836722D01*
X186926505Y-53875760D01*
X186917446Y-53880376D01*
X186917440Y-53880380D01*
X186863282Y-53919727D01*
X186863282Y-53919728D01*
X187495591Y-54552037D01*
X187432007Y-54569075D01*
X187317993Y-54634901D01*
X187224901Y-54727993D01*
X187159075Y-54842007D01*
X187142037Y-54905591D01*
X186509728Y-54273282D01*
X186509727Y-54273282D01*
X186470380Y-54327439D01*
X186373904Y-54516782D01*
X186308242Y-54718869D01*
X186308242Y-54718872D01*
X186275000Y-54928753D01*
X186275000Y-55141246D01*
X186308242Y-55351127D01*
X186308242Y-55351130D01*
X186373904Y-55553217D01*
X186470375Y-55742550D01*
X186509728Y-55796716D01*
X187142037Y-55164408D01*
X187159075Y-55227993D01*
X187224901Y-55342007D01*
X187317993Y-55435099D01*
X187432007Y-55500925D01*
X187495590Y-55517962D01*
X186863282Y-56150269D01*
X186863282Y-56150270D01*
X186917449Y-56189624D01*
X187106782Y-56286095D01*
X187308870Y-56351757D01*
X187518754Y-56385000D01*
X187731246Y-56385000D01*
X187941127Y-56351757D01*
X187941130Y-56351757D01*
X188143217Y-56286095D01*
X188332554Y-56189622D01*
X188386716Y-56150270D01*
X188386717Y-56150270D01*
X187754408Y-55517962D01*
X187817993Y-55500925D01*
X187932007Y-55435099D01*
X188025099Y-55342007D01*
X188090925Y-55227993D01*
X188107962Y-55164409D01*
X188740270Y-55796717D01*
X188740270Y-55796716D01*
X188779622Y-55742554D01*
X188876095Y-55553217D01*
X188941757Y-55351130D01*
X188941757Y-55351127D01*
X188975000Y-55141246D01*
X188975000Y-54928753D01*
X188941757Y-54718872D01*
X188941757Y-54718869D01*
X188876095Y-54516782D01*
X188779624Y-54327449D01*
X188740270Y-54273282D01*
X188740269Y-54273282D01*
X188107962Y-54905590D01*
X188090925Y-54842007D01*
X188025099Y-54727993D01*
X187932007Y-54634901D01*
X187817993Y-54569075D01*
X187754409Y-54552037D01*
X188386716Y-53919728D01*
X188332547Y-53880373D01*
X188332547Y-53880372D01*
X188323500Y-53875763D01*
X188272706Y-53827788D01*
X188255912Y-53759966D01*
X188278451Y-53693832D01*
X188323508Y-53654793D01*
X188332816Y-53650051D01*
X188482521Y-53541285D01*
X188504786Y-53525109D01*
X188504788Y-53525106D01*
X188504792Y-53525104D01*
X188655104Y-53374792D01*
X188655106Y-53374788D01*
X188655109Y-53374786D01*
X188780048Y-53202820D01*
X188780049Y-53202819D01*
X188780051Y-53202816D01*
X188876557Y-53013412D01*
X188942246Y-52811243D01*
X188975500Y-52601287D01*
X188975500Y-52388713D01*
X188942246Y-52178757D01*
X188876557Y-51976588D01*
X188780051Y-51787184D01*
X188780049Y-51787181D01*
X188780048Y-51787179D01*
X188655109Y-51615213D01*
X188504786Y-51464890D01*
X188332820Y-51339951D01*
X188332115Y-51339591D01*
X188324054Y-51335485D01*
X188273259Y-51287512D01*
X188256463Y-51219692D01*
X188278999Y-51153556D01*
X188324054Y-51114515D01*
X188332816Y-51110051D01*
X188354789Y-51094086D01*
X188504786Y-50985109D01*
X188504788Y-50985106D01*
X188504792Y-50985104D01*
X188655104Y-50834792D01*
X188655106Y-50834788D01*
X188655109Y-50834786D01*
X188780048Y-50662820D01*
X188780047Y-50662820D01*
X188780051Y-50662816D01*
X188876557Y-50473412D01*
X188942246Y-50271243D01*
X188975500Y-50061287D01*
X188975500Y-49848713D01*
X188942246Y-49638757D01*
X188876557Y-49436588D01*
X188780051Y-49247184D01*
X188780049Y-49247181D01*
X188780048Y-49247179D01*
X188655109Y-49075213D01*
X188541569Y-48961673D01*
X188508084Y-48900350D01*
X188513068Y-48830658D01*
X188554940Y-48774725D01*
X188585915Y-48757810D01*
X188717331Y-48708796D01*
X188832546Y-48622546D01*
X188918796Y-48507331D01*
X188969091Y-48372483D01*
X188975500Y-48312873D01*
X188975499Y-46517128D01*
X188969091Y-46457517D01*
X188960623Y-46434814D01*
X188918797Y-46322671D01*
X188918793Y-46322664D01*
X188832547Y-46207455D01*
X188832544Y-46207452D01*
X188717335Y-46121206D01*
X188717328Y-46121202D01*
X188582482Y-46070908D01*
X188582483Y-46070908D01*
X188522883Y-46064501D01*
X188522881Y-46064500D01*
X188522873Y-46064500D01*
X188522864Y-46064500D01*
X186727129Y-46064500D01*
X186727123Y-46064501D01*
X186667516Y-46070908D01*
X186532671Y-46121202D01*
X186532664Y-46121206D01*
X186417455Y-46207452D01*
X186411745Y-46213163D01*
X186350422Y-46246648D01*
X186280730Y-46241664D01*
X186236383Y-46213163D01*
X184791933Y-44768713D01*
X211674500Y-44768713D01*
X211674500Y-44981287D01*
X211707754Y-45191243D01*
X211768465Y-45378092D01*
X211773444Y-45393414D01*
X211869951Y-45582820D01*
X211994890Y-45754786D01*
X212145213Y-45905109D01*
X212317182Y-46030050D01*
X212325946Y-46034516D01*
X212376742Y-46082491D01*
X212393536Y-46150312D01*
X212370998Y-46216447D01*
X212325946Y-46255484D01*
X212317182Y-46259949D01*
X212145213Y-46384890D01*
X211994890Y-46535213D01*
X211869951Y-46707179D01*
X211773444Y-46896585D01*
X211707753Y-47098760D01*
X211674500Y-47308713D01*
X211674500Y-47521286D01*
X211696161Y-47658052D01*
X211707754Y-47731243D01*
X211769989Y-47922783D01*
X211773444Y-47933414D01*
X211869951Y-48122820D01*
X211994890Y-48294786D01*
X212145213Y-48445109D01*
X212317182Y-48570050D01*
X212325946Y-48574516D01*
X212376742Y-48622491D01*
X212393536Y-48690312D01*
X212370998Y-48756447D01*
X212325946Y-48795484D01*
X212317182Y-48799949D01*
X212145213Y-48924890D01*
X211994890Y-49075213D01*
X211869951Y-49247179D01*
X211773444Y-49436585D01*
X211707753Y-49638760D01*
X211674500Y-49848713D01*
X211674500Y-50061286D01*
X211696161Y-50198052D01*
X211707754Y-50271243D01*
X211769989Y-50462783D01*
X211773444Y-50473414D01*
X211869951Y-50662820D01*
X211994890Y-50834786D01*
X212145213Y-50985109D01*
X212317182Y-51110050D01*
X212325946Y-51114516D01*
X212376742Y-51162491D01*
X212393536Y-51230312D01*
X212370998Y-51296447D01*
X212325946Y-51335484D01*
X212317182Y-51339949D01*
X212145213Y-51464890D01*
X211994890Y-51615213D01*
X211869951Y-51787179D01*
X211773444Y-51976585D01*
X211707753Y-52178760D01*
X211693519Y-52268631D01*
X211674500Y-52388713D01*
X211674500Y-52601287D01*
X211707754Y-52811243D01*
X211769989Y-53002783D01*
X211773444Y-53013414D01*
X211869951Y-53202820D01*
X211994890Y-53374786D01*
X212145213Y-53525109D01*
X212317182Y-53650050D01*
X212325946Y-53654516D01*
X212376742Y-53702491D01*
X212393536Y-53770312D01*
X212370998Y-53836447D01*
X212325946Y-53875484D01*
X212317182Y-53879949D01*
X212145213Y-54004890D01*
X211994890Y-54155213D01*
X211869951Y-54327179D01*
X211773444Y-54516585D01*
X211707753Y-54718760D01*
X211674500Y-54928713D01*
X211674500Y-55141286D01*
X211707735Y-55351127D01*
X211707754Y-55351243D01*
X211768465Y-55538092D01*
X211773444Y-55553414D01*
X211869951Y-55742820D01*
X211994890Y-55914786D01*
X212108430Y-56028326D01*
X212141915Y-56089649D01*
X212136931Y-56159341D01*
X212095059Y-56215274D01*
X212064083Y-56232189D01*
X211932669Y-56281203D01*
X211932664Y-56281206D01*
X211817455Y-56367452D01*
X211817452Y-56367455D01*
X211731206Y-56482664D01*
X211731202Y-56482671D01*
X211680908Y-56617517D01*
X211674501Y-56677116D01*
X211674501Y-56677123D01*
X211674500Y-56677135D01*
X211674500Y-58472870D01*
X211674501Y-58472876D01*
X211680908Y-58532483D01*
X211731202Y-58667328D01*
X211731206Y-58667335D01*
X211817452Y-58782544D01*
X211817455Y-58782547D01*
X211932664Y-58868793D01*
X211932671Y-58868797D01*
X212067517Y-58919091D01*
X212067516Y-58919091D01*
X212074444Y-58919835D01*
X212127127Y-58925500D01*
X213922872Y-58925499D01*
X213982483Y-58919091D01*
X214117331Y-58868796D01*
X214232546Y-58782546D01*
X214318796Y-58667331D01*
X214369091Y-58532483D01*
X214375500Y-58472873D01*
X214375500Y-58324500D01*
X214395185Y-58257461D01*
X214447989Y-58211706D01*
X214499500Y-58200500D01*
X227826607Y-58200500D01*
X227887029Y-58188481D01*
X227947452Y-58176463D01*
X227980792Y-58162652D01*
X228061286Y-58129312D01*
X228112509Y-58095084D01*
X228163733Y-58060858D01*
X228250858Y-57973733D01*
X228250859Y-57973731D01*
X228257925Y-57966665D01*
X228257928Y-57966661D01*
X233290090Y-52934498D01*
X233351411Y-52901015D01*
X233421103Y-52905999D01*
X233477036Y-52947871D01*
X233500242Y-53002783D01*
X233536446Y-53231368D01*
X233609433Y-53455996D01*
X233681540Y-53597512D01*
X233716657Y-53666433D01*
X233855483Y-53857510D01*
X234022490Y-54024517D01*
X234057127Y-54049683D01*
X234099792Y-54105013D01*
X234105771Y-54174626D01*
X234073165Y-54236421D01*
X234057130Y-54250315D01*
X234039365Y-54263222D01*
X234022488Y-54275484D01*
X233855485Y-54442487D01*
X233855485Y-54442488D01*
X233855483Y-54442490D01*
X233801507Y-54516782D01*
X233716657Y-54633566D01*
X233609433Y-54844003D01*
X233536446Y-55068631D01*
X233499500Y-55301902D01*
X233499500Y-55538097D01*
X233536446Y-55771368D01*
X233609433Y-55995996D01*
X233692662Y-56159341D01*
X233716657Y-56206433D01*
X233855483Y-56397510D01*
X234022490Y-56564517D01*
X234057127Y-56589683D01*
X234099792Y-56645013D01*
X234105771Y-56714626D01*
X234073165Y-56776421D01*
X234057130Y-56790315D01*
X234039365Y-56803222D01*
X234022488Y-56815484D01*
X233855485Y-56982487D01*
X233855485Y-56982488D01*
X233855483Y-56982490D01*
X233795862Y-57064550D01*
X233716657Y-57173566D01*
X233609433Y-57384003D01*
X233536446Y-57608631D01*
X233499500Y-57841902D01*
X233499500Y-58078097D01*
X233536446Y-58311368D01*
X233609433Y-58535996D01*
X233681540Y-58677512D01*
X233716657Y-58746433D01*
X233855483Y-58937510D01*
X234022490Y-59104517D01*
X234057127Y-59129683D01*
X234099792Y-59185013D01*
X234105771Y-59254626D01*
X234073165Y-59316421D01*
X234057130Y-59330315D01*
X234039365Y-59343222D01*
X234022488Y-59355484D01*
X233855485Y-59522487D01*
X233855485Y-59522488D01*
X233855483Y-59522490D01*
X233795862Y-59604550D01*
X233716657Y-59713566D01*
X233609433Y-59924003D01*
X233536446Y-60148631D01*
X233499500Y-60381902D01*
X233499500Y-60618097D01*
X233536446Y-60851368D01*
X233609433Y-61075996D01*
X233716657Y-61286433D01*
X233855483Y-61477510D01*
X234022490Y-61644517D01*
X234057127Y-61669683D01*
X234099792Y-61725013D01*
X234105771Y-61794626D01*
X234073165Y-61856421D01*
X234057130Y-61870315D01*
X234039365Y-61883222D01*
X234022488Y-61895484D01*
X233855485Y-62062487D01*
X233855485Y-62062488D01*
X233855483Y-62062490D01*
X233795862Y-62144550D01*
X233716657Y-62253566D01*
X233609433Y-62464003D01*
X233536446Y-62688631D01*
X233499500Y-62921902D01*
X233499500Y-63158097D01*
X233536446Y-63391368D01*
X233609433Y-63615996D01*
X233693682Y-63781342D01*
X233716657Y-63826433D01*
X233855483Y-64017510D01*
X234022490Y-64184517D01*
X234057127Y-64209683D01*
X234099792Y-64265013D01*
X234105771Y-64334626D01*
X234073165Y-64396421D01*
X234057130Y-64410315D01*
X234039365Y-64423222D01*
X234022488Y-64435484D01*
X233855485Y-64602487D01*
X233855485Y-64602488D01*
X233855483Y-64602490D01*
X233795862Y-64684550D01*
X233716657Y-64793566D01*
X233609433Y-65004003D01*
X233536446Y-65228631D01*
X233499500Y-65461902D01*
X233499500Y-65698097D01*
X233536446Y-65931368D01*
X233609433Y-66155996D01*
X233716657Y-66366433D01*
X233855483Y-66557510D01*
X234022490Y-66724517D01*
X234057127Y-66749683D01*
X234099792Y-66805013D01*
X234105771Y-66874626D01*
X234073165Y-66936421D01*
X234057130Y-66950315D01*
X234039365Y-66963222D01*
X234022488Y-66975484D01*
X233855485Y-67142487D01*
X233855485Y-67142488D01*
X233855483Y-67142490D01*
X233821959Y-67188632D01*
X233716657Y-67333566D01*
X233609433Y-67544003D01*
X233536446Y-67768631D01*
X233499500Y-68001902D01*
X233499500Y-68238097D01*
X233536446Y-68471368D01*
X233609433Y-68695996D01*
X233695593Y-68865092D01*
X233716657Y-68906433D01*
X233855483Y-69097510D01*
X233855489Y-69097516D01*
X233858647Y-69101214D01*
X233856864Y-69102736D01*
X233885726Y-69155591D01*
X233880742Y-69225283D01*
X233838870Y-69281216D01*
X233829658Y-69287487D01*
X233781344Y-69317287D01*
X233657289Y-69441342D01*
X233565187Y-69590663D01*
X233565186Y-69590666D01*
X233510001Y-69757203D01*
X233510001Y-69757204D01*
X233510000Y-69757204D01*
X233499500Y-69859983D01*
X233499500Y-71460001D01*
X233499501Y-71460018D01*
X233510000Y-71562796D01*
X233510001Y-71562799D01*
X233562253Y-71720484D01*
X233565186Y-71729334D01*
X233657288Y-71878656D01*
X233781344Y-72002712D01*
X233930666Y-72094814D01*
X234097203Y-72149999D01*
X234199991Y-72160500D01*
X235800008Y-72160499D01*
X235902797Y-72149999D01*
X236069334Y-72094814D01*
X236218656Y-72002712D01*
X236342712Y-71878656D01*
X236434814Y-71729334D01*
X236489999Y-71562797D01*
X236500500Y-71460009D01*
X236500499Y-69859992D01*
X236500488Y-69859889D01*
X236489999Y-69757203D01*
X236489998Y-69757200D01*
X236474885Y-69711592D01*
X236434814Y-69590666D01*
X236342712Y-69441344D01*
X236218656Y-69317288D01*
X236218655Y-69317287D01*
X236170342Y-69287487D01*
X236123618Y-69235539D01*
X236112397Y-69166576D01*
X236140241Y-69102494D01*
X236141381Y-69101249D01*
X236141348Y-69101221D01*
X236144511Y-69097516D01*
X236144511Y-69097515D01*
X236144517Y-69097510D01*
X236283343Y-68906433D01*
X236390568Y-68695992D01*
X236463553Y-68471368D01*
X236500500Y-68238097D01*
X236500500Y-68001902D01*
X236463553Y-67768631D01*
X236417072Y-67625580D01*
X236390568Y-67544008D01*
X236390566Y-67544005D01*
X236390566Y-67544003D01*
X236283342Y-67333566D01*
X236144517Y-67142490D01*
X235977510Y-66975483D01*
X235942872Y-66950317D01*
X235900207Y-66894989D01*
X235894228Y-66825375D01*
X235926833Y-66763580D01*
X235942873Y-66749682D01*
X235977510Y-66724517D01*
X236144517Y-66557510D01*
X236283343Y-66366433D01*
X236390568Y-66155992D01*
X236463553Y-65931368D01*
X236468078Y-65902796D01*
X236500500Y-65698097D01*
X236500500Y-65461902D01*
X236463553Y-65228631D01*
X236390566Y-65004003D01*
X236283342Y-64793566D01*
X236144517Y-64602490D01*
X235977510Y-64435483D01*
X235942872Y-64410317D01*
X235900207Y-64354989D01*
X235894228Y-64285375D01*
X235926833Y-64223580D01*
X235942873Y-64209682D01*
X235956202Y-64199998D01*
X235977510Y-64184517D01*
X236144517Y-64017510D01*
X236283343Y-63826433D01*
X236390568Y-63615992D01*
X236463553Y-63391368D01*
X236500500Y-63158097D01*
X236500500Y-62921902D01*
X236463553Y-62688631D01*
X236390566Y-62464003D01*
X236283342Y-62253566D01*
X236144517Y-62062490D01*
X235977510Y-61895483D01*
X235942872Y-61870317D01*
X235900207Y-61814989D01*
X235894228Y-61745375D01*
X235926833Y-61683580D01*
X235942873Y-61669682D01*
X235977510Y-61644517D01*
X236144517Y-61477510D01*
X236283343Y-61286433D01*
X236390568Y-61075992D01*
X236463553Y-60851368D01*
X236500500Y-60618097D01*
X236500500Y-60381902D01*
X236463553Y-60148631D01*
X236390566Y-59924003D01*
X236283342Y-59713566D01*
X236144517Y-59522490D01*
X235977510Y-59355483D01*
X235942872Y-59330317D01*
X235900207Y-59274989D01*
X235894228Y-59205375D01*
X235926833Y-59143580D01*
X235942873Y-59129682D01*
X235977510Y-59104517D01*
X236144517Y-58937510D01*
X236283343Y-58746433D01*
X236390568Y-58535992D01*
X236463553Y-58311368D01*
X236467735Y-58284963D01*
X236500500Y-58078097D01*
X236500500Y-57841902D01*
X236463553Y-57608631D01*
X236390566Y-57384003D01*
X236283342Y-57173566D01*
X236247336Y-57124008D01*
X236144517Y-56982490D01*
X235977510Y-56815483D01*
X235942872Y-56790317D01*
X235900207Y-56734989D01*
X235894228Y-56665375D01*
X235926833Y-56603580D01*
X235942873Y-56589682D01*
X235977510Y-56564517D01*
X236144517Y-56397510D01*
X236283343Y-56206433D01*
X236390568Y-55995992D01*
X236463553Y-55771368D01*
X236482868Y-55649419D01*
X236500500Y-55538097D01*
X236500500Y-55301902D01*
X236463553Y-55068631D01*
X236429689Y-54964412D01*
X236390568Y-54844008D01*
X236390566Y-54844005D01*
X236390566Y-54844003D01*
X236326808Y-54718872D01*
X236283343Y-54633567D01*
X236144517Y-54442490D01*
X235977510Y-54275483D01*
X235942872Y-54250317D01*
X235900207Y-54194989D01*
X235894228Y-54125375D01*
X235926833Y-54063580D01*
X235942873Y-54049682D01*
X235977510Y-54024517D01*
X236144517Y-53857510D01*
X236283343Y-53666433D01*
X236390568Y-53455992D01*
X236463553Y-53231368D01*
X236481113Y-53120499D01*
X236500500Y-52998097D01*
X236500500Y-52761902D01*
X236463553Y-52528631D01*
X236390566Y-52304003D01*
X236284720Y-52096270D01*
X236283343Y-52093567D01*
X236144517Y-51902490D01*
X235977510Y-51735483D01*
X235942872Y-51710317D01*
X235900207Y-51654989D01*
X235894228Y-51585375D01*
X235926833Y-51523580D01*
X235942873Y-51509682D01*
X235977510Y-51484517D01*
X236144517Y-51317510D01*
X236283343Y-51126433D01*
X236390568Y-50915992D01*
X236463553Y-50691368D01*
X236484341Y-50560119D01*
X236500500Y-50458097D01*
X236500500Y-50221902D01*
X236463553Y-49988631D01*
X236390566Y-49764003D01*
X236283342Y-49553566D01*
X236281399Y-49550892D01*
X236144517Y-49362490D01*
X235977510Y-49195483D01*
X235942872Y-49170317D01*
X235900207Y-49114989D01*
X235894228Y-49045375D01*
X235926833Y-48983580D01*
X235942873Y-48969682D01*
X235951759Y-48963226D01*
X235977510Y-48944517D01*
X236144517Y-48777510D01*
X236283343Y-48586433D01*
X236390568Y-48375992D01*
X236463553Y-48151368D01*
X236471830Y-48099111D01*
X236500500Y-47918097D01*
X236500500Y-47681902D01*
X236463553Y-47448631D01*
X236390566Y-47224003D01*
X236283342Y-47013566D01*
X236144517Y-46822490D01*
X235977510Y-46655483D01*
X235942872Y-46630317D01*
X235900207Y-46574989D01*
X235894228Y-46505375D01*
X235926833Y-46443580D01*
X235942873Y-46429682D01*
X235977510Y-46404517D01*
X236144517Y-46237510D01*
X236283343Y-46046433D01*
X236390568Y-45835992D01*
X236463553Y-45611368D01*
X236468075Y-45582816D01*
X236500500Y-45378097D01*
X236500500Y-45141902D01*
X236463553Y-44908631D01*
X236390566Y-44684003D01*
X236283342Y-44473566D01*
X236144517Y-44282490D01*
X235977510Y-44115483D01*
X235942872Y-44090317D01*
X235900207Y-44034989D01*
X235894228Y-43965375D01*
X235926833Y-43903580D01*
X235942873Y-43889682D01*
X235977510Y-43864517D01*
X236144517Y-43697510D01*
X236283343Y-43506433D01*
X236390568Y-43295992D01*
X236463553Y-43071368D01*
X236500500Y-42838097D01*
X236500500Y-42601902D01*
X236463553Y-42368631D01*
X236408733Y-42199915D01*
X236390568Y-42144008D01*
X236390566Y-42144005D01*
X236390566Y-42144003D01*
X236283342Y-41933566D01*
X236144517Y-41742490D01*
X235977510Y-41575483D01*
X235786433Y-41436657D01*
X235575996Y-41329433D01*
X235351368Y-41256446D01*
X235118097Y-41219500D01*
X235118092Y-41219500D01*
X234881908Y-41219500D01*
X234881903Y-41219500D01*
X234648631Y-41256446D01*
X234424003Y-41329433D01*
X234213566Y-41436657D01*
X234104550Y-41515862D01*
X234022490Y-41575483D01*
X234022488Y-41575485D01*
X234022487Y-41575485D01*
X233855485Y-41742487D01*
X233855485Y-41742488D01*
X233855483Y-41742490D01*
X233795862Y-41824550D01*
X233716657Y-41933566D01*
X233669155Y-42026795D01*
X233621180Y-42077591D01*
X233558670Y-42094500D01*
X220198389Y-42094500D01*
X220137971Y-42106518D01*
X220100259Y-42114019D01*
X220077550Y-42118536D01*
X220077548Y-42118537D01*
X220044207Y-42132347D01*
X219963719Y-42165684D01*
X219963705Y-42165692D01*
X219861272Y-42234138D01*
X219861264Y-42234144D01*
X214587181Y-47508228D01*
X214525858Y-47541713D01*
X214456166Y-47536729D01*
X214400233Y-47494857D01*
X214375816Y-47429393D01*
X214375500Y-47420547D01*
X214375500Y-47308713D01*
X214356500Y-47188752D01*
X214342246Y-47098757D01*
X214276557Y-46896588D01*
X214180051Y-46707184D01*
X214180049Y-46707181D01*
X214180048Y-46707179D01*
X214055109Y-46535213D01*
X213904786Y-46384890D01*
X213732820Y-46259951D01*
X213732115Y-46259591D01*
X213724054Y-46255485D01*
X213673259Y-46207512D01*
X213656463Y-46139692D01*
X213678999Y-46073556D01*
X213724054Y-46034515D01*
X213732816Y-46030051D01*
X213754789Y-46014086D01*
X213904786Y-45905109D01*
X213904788Y-45905106D01*
X213904792Y-45905104D01*
X214055104Y-45754792D01*
X214055106Y-45754788D01*
X214055109Y-45754786D01*
X214180048Y-45582820D01*
X214180047Y-45582820D01*
X214180051Y-45582816D01*
X214276557Y-45393412D01*
X214342246Y-45191243D01*
X214375500Y-44981287D01*
X214375500Y-44768713D01*
X214342246Y-44558757D01*
X214276557Y-44356588D01*
X214180051Y-44167184D01*
X214180049Y-44167181D01*
X214180048Y-44167179D01*
X214055109Y-43995213D01*
X213904786Y-43844890D01*
X213732820Y-43719951D01*
X213543414Y-43623444D01*
X213543413Y-43623443D01*
X213543412Y-43623443D01*
X213341243Y-43557754D01*
X213341241Y-43557753D01*
X213341240Y-43557753D01*
X213179957Y-43532208D01*
X213131287Y-43524500D01*
X212918713Y-43524500D01*
X212870042Y-43532208D01*
X212708760Y-43557753D01*
X212506585Y-43623444D01*
X212317179Y-43719951D01*
X212145213Y-43844890D01*
X211994890Y-43995213D01*
X211869951Y-44167179D01*
X211773444Y-44356585D01*
X211707753Y-44558760D01*
X211687917Y-44684003D01*
X211674500Y-44768713D01*
X184791933Y-44768713D01*
X184050779Y-44027559D01*
X184050759Y-44027537D01*
X183907085Y-43883863D01*
X183907081Y-43883860D01*
X183743220Y-43774371D01*
X183743207Y-43774364D01*
X183618852Y-43722856D01*
X183611834Y-43719949D01*
X183561136Y-43698949D01*
X183464488Y-43679724D01*
X183459991Y-43678829D01*
X183459982Y-43678827D01*
X183367844Y-43660500D01*
X183367841Y-43660500D01*
X167259029Y-43660500D01*
X167193934Y-43642039D01*
X167069334Y-43565186D01*
X166902797Y-43510001D01*
X166902795Y-43510000D01*
X166800010Y-43499500D01*
X165199998Y-43499500D01*
X165199981Y-43499501D01*
X165097203Y-43510000D01*
X165097200Y-43510001D01*
X164930668Y-43565185D01*
X164930663Y-43565187D01*
X164781342Y-43657289D01*
X164657289Y-43781342D01*
X164565187Y-43930663D01*
X164565185Y-43930668D01*
X164545525Y-43990000D01*
X164510001Y-44097203D01*
X164510001Y-44097204D01*
X164510000Y-44097204D01*
X164499500Y-44199983D01*
X164499500Y-45800001D01*
X164499501Y-45800018D01*
X164510000Y-45902796D01*
X164510001Y-45902799D01*
X164565185Y-46069331D01*
X164565187Y-46069336D01*
X164573301Y-46082491D01*
X164657288Y-46218656D01*
X164781344Y-46342712D01*
X164930666Y-46434814D01*
X165097203Y-46489999D01*
X165199991Y-46500500D01*
X165262692Y-46500499D01*
X165329729Y-46520183D01*
X165350372Y-46536818D01*
X165788941Y-46975387D01*
X165768409Y-46980889D01*
X165631592Y-47059881D01*
X165519881Y-47171592D01*
X165440889Y-47308409D01*
X165435387Y-47328941D01*
X164777340Y-46670894D01*
X164717084Y-46753830D01*
X164609897Y-46964197D01*
X164536934Y-47188752D01*
X164500000Y-47421947D01*
X164500000Y-47658052D01*
X164536934Y-47891247D01*
X164609897Y-48115802D01*
X164717087Y-48326174D01*
X164777338Y-48409104D01*
X164777340Y-48409105D01*
X165435387Y-47751058D01*
X165440889Y-47771591D01*
X165519881Y-47908408D01*
X165631592Y-48020119D01*
X165768409Y-48099111D01*
X165788940Y-48104612D01*
X165130893Y-48762658D01*
X165133854Y-48800276D01*
X165133854Y-48819733D01*
X165130894Y-48857340D01*
X165788941Y-49515387D01*
X165768409Y-49520889D01*
X165631592Y-49599881D01*
X165519881Y-49711592D01*
X165440889Y-49848409D01*
X165435387Y-49868941D01*
X164777340Y-49210894D01*
X164717084Y-49293830D01*
X164609897Y-49504197D01*
X164536934Y-49728752D01*
X164500000Y-49961947D01*
X164500000Y-50198052D01*
X164536934Y-50431247D01*
X164609897Y-50655802D01*
X164717087Y-50866174D01*
X164777338Y-50949104D01*
X164777340Y-50949105D01*
X165435387Y-50291058D01*
X165440889Y-50311591D01*
X165519881Y-50448408D01*
X165631592Y-50560119D01*
X165768409Y-50639111D01*
X165788940Y-50644612D01*
X165130893Y-51302658D01*
X165132448Y-51322405D01*
X165118084Y-51390783D01*
X165081717Y-51432451D01*
X165022490Y-51475482D01*
X164855485Y-51642487D01*
X164855485Y-51642488D01*
X164855483Y-51642490D01*
X164846402Y-51654989D01*
X164716657Y-51833566D01*
X164609433Y-52044003D01*
X164536446Y-52268631D01*
X164499500Y-52501902D01*
X164499500Y-52738097D01*
X164536446Y-52971368D01*
X164609433Y-53195996D01*
X164654471Y-53284387D01*
X164716657Y-53406433D01*
X164855483Y-53597510D01*
X165022490Y-53764517D01*
X165057127Y-53789683D01*
X165099792Y-53845013D01*
X165105771Y-53914626D01*
X165073165Y-53976421D01*
X165057130Y-53990315D01*
X165039365Y-54003222D01*
X165022488Y-54015484D01*
X164855485Y-54182487D01*
X164855485Y-54182488D01*
X164855483Y-54182490D01*
X164846402Y-54194989D01*
X164716657Y-54373566D01*
X164609433Y-54584003D01*
X164536446Y-54808631D01*
X164499500Y-55041902D01*
X164499500Y-55278097D01*
X164536446Y-55511368D01*
X164609433Y-55735996D01*
X164700531Y-55914784D01*
X164716657Y-55946433D01*
X164855483Y-56137510D01*
X165022490Y-56304517D01*
X165057127Y-56329683D01*
X165099792Y-56385013D01*
X165105771Y-56454626D01*
X165073165Y-56516421D01*
X165057130Y-56530315D01*
X165039365Y-56543222D01*
X165022488Y-56555484D01*
X164855485Y-56722487D01*
X164855485Y-56722488D01*
X164855483Y-56722490D01*
X164846402Y-56734989D01*
X164716657Y-56913566D01*
X164609433Y-57124003D01*
X164536446Y-57348631D01*
X164499500Y-57581902D01*
X164499500Y-57818097D01*
X164536447Y-58051371D01*
X164564039Y-58136292D01*
X164566034Y-58206133D01*
X164529953Y-58265966D01*
X164467252Y-58296793D01*
X164398656Y-58289171D01*
X164388493Y-58284961D01*
X164388494Y-58284961D01*
X164233845Y-58254200D01*
X164233842Y-58254200D01*
X164076158Y-58254200D01*
X164076155Y-58254200D01*
X163921510Y-58284961D01*
X163921498Y-58284964D01*
X163775827Y-58345302D01*
X163775814Y-58345309D01*
X163644711Y-58432910D01*
X163644707Y-58432913D01*
X163533213Y-58544407D01*
X163533210Y-58544411D01*
X163445609Y-58675514D01*
X163445602Y-58675527D01*
X163385264Y-58821198D01*
X163385261Y-58821210D01*
X163354500Y-58975853D01*
X161500500Y-58975853D01*
X161500500Y-40624500D01*
X161520185Y-40557461D01*
X161572989Y-40511706D01*
X161624500Y-40500500D01*
X240375500Y-40500500D01*
X240442539Y-40520185D01*
G37*
%TD.AperFunction*%
%TA.AperFunction,Conductor*%
G36*
X219807657Y-134994104D02*
G01*
X219827404Y-134992550D01*
X219895781Y-135006914D01*
X219937451Y-135043282D01*
X219980483Y-135102510D01*
X220147490Y-135269517D01*
X220338567Y-135408343D01*
X220437991Y-135459002D01*
X220549003Y-135515566D01*
X220549005Y-135515566D01*
X220549008Y-135515568D01*
X220601852Y-135532738D01*
X220773631Y-135588553D01*
X221006903Y-135625500D01*
X221006908Y-135625500D01*
X221243097Y-135625500D01*
X221351948Y-135608259D01*
X221476368Y-135588553D01*
X221575880Y-135556218D01*
X221645719Y-135554224D01*
X221701878Y-135586469D01*
X221903228Y-135787819D01*
X221936713Y-135849142D01*
X221931729Y-135918834D01*
X221889857Y-135974767D01*
X221824393Y-135999184D01*
X221815547Y-135999500D01*
X219385782Y-135999500D01*
X219318743Y-135979815D01*
X219298101Y-135963181D01*
X219069320Y-135734400D01*
X219035835Y-135673077D01*
X219040819Y-135603385D01*
X219082691Y-135547452D01*
X219118684Y-135528788D01*
X219160800Y-135515103D01*
X219371163Y-135407918D01*
X219371169Y-135407914D01*
X219454104Y-135347658D01*
X219454105Y-135347658D01*
X218796058Y-134689612D01*
X218816591Y-134684111D01*
X218953408Y-134605119D01*
X219065119Y-134493408D01*
X219144111Y-134356591D01*
X219149612Y-134336058D01*
X219807657Y-134994104D01*
G37*
%TD.AperFunction*%
%TA.AperFunction,Conductor*%
G36*
X233421539Y-134485561D02*
G01*
X233477473Y-134527432D01*
X233500679Y-134582345D01*
X233536934Y-134811247D01*
X233609897Y-135035802D01*
X233717087Y-135246174D01*
X233777338Y-135329104D01*
X233777340Y-135329105D01*
X234435387Y-134671058D01*
X234440889Y-134691591D01*
X234519881Y-134828408D01*
X234631592Y-134940119D01*
X234768409Y-135019111D01*
X234788940Y-135024612D01*
X234350371Y-135463181D01*
X234289048Y-135496666D01*
X234262692Y-135499500D01*
X234199999Y-135499500D01*
X234199980Y-135499501D01*
X234097203Y-135510000D01*
X234097200Y-135510001D01*
X233930668Y-135565185D01*
X233930663Y-135565187D01*
X233781342Y-135657289D01*
X233657289Y-135781342D01*
X233628478Y-135828053D01*
X233567441Y-135927011D01*
X233561395Y-135936813D01*
X233559600Y-135935706D01*
X233520313Y-135980337D01*
X233454092Y-135999500D01*
X232104451Y-135999500D01*
X232037412Y-135979815D01*
X231991657Y-135927011D01*
X231981713Y-135857853D01*
X232010738Y-135794297D01*
X232016770Y-135787819D01*
X232326177Y-135478412D01*
X233290529Y-134514059D01*
X233351848Y-134480577D01*
X233421539Y-134485561D01*
G37*
%TD.AperFunction*%
%TA.AperFunction,Conductor*%
G36*
X218746587Y-130095185D02*
G01*
X218767229Y-130111819D01*
X221070498Y-132415088D01*
X221103983Y-132476411D01*
X221098999Y-132546103D01*
X221057127Y-132602036D01*
X221002215Y-132625242D01*
X220773631Y-132661446D01*
X220549003Y-132734433D01*
X220338566Y-132841657D01*
X220261692Y-132897510D01*
X220147490Y-132980483D01*
X220147488Y-132980485D01*
X220147487Y-132980485D01*
X219980482Y-133147490D01*
X219937451Y-133206717D01*
X219882120Y-133249382D01*
X219827405Y-133257448D01*
X219807658Y-133255893D01*
X219149612Y-133913940D01*
X219144111Y-133893409D01*
X219065119Y-133756592D01*
X218953408Y-133644881D01*
X218816591Y-133565889D01*
X218796059Y-133560387D01*
X219454105Y-132902340D01*
X219454104Y-132902338D01*
X219371174Y-132842087D01*
X219160802Y-132734897D01*
X218936247Y-132661934D01*
X218936248Y-132661934D01*
X218703052Y-132625000D01*
X218466948Y-132625000D01*
X218233752Y-132661934D01*
X218009197Y-132734897D01*
X217798830Y-132842084D01*
X217715894Y-132902340D01*
X218373941Y-133560387D01*
X218353409Y-133565889D01*
X218216592Y-133644881D01*
X218104881Y-133756592D01*
X218025889Y-133893409D01*
X218020387Y-133913941D01*
X217581818Y-133475372D01*
X217548333Y-133414049D01*
X217545499Y-133387691D01*
X217545499Y-133324998D01*
X217545498Y-133324981D01*
X217534999Y-133222203D01*
X217534998Y-133222200D01*
X217528749Y-133203343D01*
X217479814Y-133055666D01*
X217387712Y-132906344D01*
X217263656Y-132782288D01*
X217123394Y-132695774D01*
X217114336Y-132690187D01*
X217114331Y-132690185D01*
X217107704Y-132687989D01*
X216947797Y-132635001D01*
X216947795Y-132635000D01*
X216845010Y-132624500D01*
X215244998Y-132624500D01*
X215244981Y-132624501D01*
X215142203Y-132635000D01*
X215142200Y-132635001D01*
X214975668Y-132690185D01*
X214975663Y-132690187D01*
X214826342Y-132782289D01*
X214702289Y-132906342D01*
X214610187Y-133055663D01*
X214610186Y-133055666D01*
X214555001Y-133222203D01*
X214555001Y-133222204D01*
X214555000Y-133222204D01*
X214544500Y-133324983D01*
X214544500Y-133765000D01*
X214524815Y-133832039D01*
X214472011Y-133877794D01*
X214420500Y-133889000D01*
X212124000Y-133889000D01*
X212056961Y-133869315D01*
X212011206Y-133816511D01*
X212000000Y-133765000D01*
X212000000Y-130199500D01*
X212019685Y-130132461D01*
X212072489Y-130086706D01*
X212124000Y-130075500D01*
X218679548Y-130075500D01*
X218746587Y-130095185D01*
G37*
%TD.AperFunction*%
%TA.AperFunction,Conductor*%
G36*
X208786304Y-99615185D02*
G01*
X208832059Y-99667989D01*
X208842003Y-99737147D01*
X208837196Y-99757818D01*
X208783242Y-99923869D01*
X208783242Y-99923872D01*
X208750000Y-100133753D01*
X208750000Y-100346246D01*
X208783242Y-100556127D01*
X208783242Y-100556130D01*
X208848904Y-100758217D01*
X208945375Y-100947550D01*
X208984728Y-101001716D01*
X209617036Y-100369407D01*
X209634075Y-100432993D01*
X209699901Y-100547007D01*
X209792993Y-100640099D01*
X209907007Y-100705925D01*
X209970590Y-100722962D01*
X209338282Y-101355269D01*
X209338282Y-101355270D01*
X209392452Y-101394626D01*
X209392451Y-101394626D01*
X209401495Y-101399234D01*
X209452292Y-101447208D01*
X209469087Y-101515029D01*
X209446550Y-101581164D01*
X209401499Y-101620202D01*
X209392182Y-101624949D01*
X209220213Y-101749890D01*
X209069890Y-101900213D01*
X208944951Y-102072179D01*
X208848444Y-102261585D01*
X208782753Y-102463760D01*
X208749500Y-102673713D01*
X208749500Y-102886286D01*
X208782753Y-103096240D01*
X208836671Y-103262182D01*
X208838666Y-103332023D01*
X208802586Y-103391856D01*
X208739885Y-103422684D01*
X208718740Y-103424500D01*
X186081260Y-103424500D01*
X186014221Y-103404815D01*
X185968466Y-103352011D01*
X185958522Y-103282853D01*
X185963329Y-103262182D01*
X185968520Y-103246203D01*
X186017246Y-103096243D01*
X186050500Y-102886287D01*
X186050500Y-102673713D01*
X186017246Y-102463757D01*
X185951557Y-102261588D01*
X185855051Y-102072184D01*
X185855049Y-102072181D01*
X185855048Y-102072179D01*
X185730109Y-101900213D01*
X185579786Y-101749890D01*
X185407817Y-101624949D01*
X185398504Y-101620204D01*
X185347707Y-101572230D01*
X185330912Y-101504409D01*
X185353449Y-101438274D01*
X185398507Y-101399232D01*
X185407555Y-101394622D01*
X185461716Y-101355270D01*
X185461717Y-101355270D01*
X184829408Y-100722962D01*
X184892993Y-100705925D01*
X185007007Y-100640099D01*
X185100099Y-100547007D01*
X185165925Y-100432993D01*
X185182962Y-100369409D01*
X185815270Y-101001717D01*
X185815270Y-101001716D01*
X185854622Y-100947554D01*
X185951095Y-100758217D01*
X186016757Y-100556130D01*
X186016757Y-100556127D01*
X186050000Y-100346246D01*
X186050000Y-100133753D01*
X186016757Y-99923872D01*
X186016757Y-99923869D01*
X185962804Y-99757818D01*
X185960809Y-99687977D01*
X185996889Y-99628144D01*
X186059590Y-99597316D01*
X186080735Y-99595500D01*
X208719265Y-99595500D01*
X208786304Y-99615185D01*
G37*
%TD.AperFunction*%
%TA.AperFunction,Conductor*%
G36*
X180055703Y-98940740D02*
G01*
X180062181Y-98946772D01*
X180571262Y-99455854D01*
X180571265Y-99455857D01*
X180634095Y-99497838D01*
X180673714Y-99524311D01*
X180787548Y-99571463D01*
X180908388Y-99595499D01*
X180908392Y-99595500D01*
X180908393Y-99595500D01*
X180908394Y-99595500D01*
X183319265Y-99595500D01*
X183386304Y-99615185D01*
X183432059Y-99667989D01*
X183442003Y-99737147D01*
X183437196Y-99757818D01*
X183383242Y-99923869D01*
X183383242Y-99923872D01*
X183350000Y-100133753D01*
X183350000Y-100346246D01*
X183383242Y-100556127D01*
X183383242Y-100556130D01*
X183448904Y-100758217D01*
X183545375Y-100947550D01*
X183584728Y-101001716D01*
X184217036Y-100369407D01*
X184234075Y-100432993D01*
X184299901Y-100547007D01*
X184392993Y-100640099D01*
X184507007Y-100705925D01*
X184570590Y-100722962D01*
X183938282Y-101355269D01*
X183938282Y-101355270D01*
X183992452Y-101394626D01*
X183992451Y-101394626D01*
X184001495Y-101399234D01*
X184052292Y-101447208D01*
X184069087Y-101515029D01*
X184046550Y-101581164D01*
X184001499Y-101620202D01*
X183992182Y-101624949D01*
X183820213Y-101749890D01*
X183669890Y-101900213D01*
X183544951Y-102072179D01*
X183448444Y-102261585D01*
X183382753Y-102463760D01*
X183349500Y-102673713D01*
X183349500Y-102705548D01*
X183329815Y-102772587D01*
X183277011Y-102818342D01*
X183207853Y-102828286D01*
X183144297Y-102799261D01*
X183137819Y-102793229D01*
X179842428Y-99497838D01*
X179808943Y-99436515D01*
X179812177Y-99371841D01*
X179817246Y-99356243D01*
X179850500Y-99146287D01*
X179850500Y-99034453D01*
X179870185Y-98967414D01*
X179922989Y-98921659D01*
X179992147Y-98911715D01*
X180055703Y-98940740D01*
G37*
%TD.AperFunction*%
%TA.AperFunction,Conductor*%
G36*
X213590839Y-99615185D02*
G01*
X213636594Y-99667989D01*
X213647800Y-99719500D01*
X213647800Y-100076247D01*
X213628115Y-100143286D01*
X213611481Y-100163928D01*
X211527010Y-102248398D01*
X211465687Y-102281883D01*
X211395995Y-102276899D01*
X211340062Y-102235027D01*
X211328844Y-102217012D01*
X211320172Y-102199992D01*
X211255051Y-102072184D01*
X211255049Y-102072181D01*
X211255048Y-102072179D01*
X211130109Y-101900213D01*
X210979786Y-101749890D01*
X210807817Y-101624949D01*
X210798504Y-101620204D01*
X210747707Y-101572230D01*
X210730912Y-101504409D01*
X210753449Y-101438274D01*
X210798507Y-101399232D01*
X210807555Y-101394622D01*
X210861716Y-101355270D01*
X210861717Y-101355270D01*
X210229408Y-100722962D01*
X210292993Y-100705925D01*
X210407007Y-100640099D01*
X210500099Y-100547007D01*
X210565925Y-100432993D01*
X210582962Y-100369409D01*
X211215270Y-101001717D01*
X211215270Y-101001716D01*
X211254622Y-100947554D01*
X211351095Y-100758217D01*
X211416757Y-100556130D01*
X211416757Y-100556127D01*
X211450000Y-100346246D01*
X211450000Y-100133753D01*
X211416757Y-99923872D01*
X211416757Y-99923869D01*
X211362804Y-99757818D01*
X211360809Y-99687977D01*
X211396889Y-99628144D01*
X211459590Y-99597316D01*
X211480735Y-99595500D01*
X213523800Y-99595500D01*
X213590839Y-99615185D01*
G37*
%TD.AperFunction*%
%TA.AperFunction,Conductor*%
G36*
X180055203Y-86527239D02*
G01*
X180061673Y-86533263D01*
X183740639Y-90212230D01*
X187412328Y-93883919D01*
X187445813Y-93945242D01*
X187446264Y-93995792D01*
X187441000Y-94022255D01*
X187441000Y-94179946D01*
X187471761Y-94334589D01*
X187471764Y-94334601D01*
X187532102Y-94480272D01*
X187532109Y-94480285D01*
X187619710Y-94611388D01*
X187619713Y-94611392D01*
X187709869Y-94701548D01*
X187743354Y-94762871D01*
X187738370Y-94832563D01*
X187709869Y-94876910D01*
X186088616Y-96498162D01*
X186027293Y-96531647D01*
X185957601Y-96526663D01*
X185913254Y-96498162D01*
X185907544Y-96492452D01*
X185792335Y-96406206D01*
X185792328Y-96406202D01*
X185657482Y-96355908D01*
X185657483Y-96355908D01*
X185597883Y-96349501D01*
X185597881Y-96349500D01*
X185597873Y-96349500D01*
X185597864Y-96349500D01*
X183802129Y-96349500D01*
X183802123Y-96349501D01*
X183742516Y-96355908D01*
X183607671Y-96406202D01*
X183607664Y-96406206D01*
X183492457Y-96492451D01*
X183486742Y-96498166D01*
X183425417Y-96531648D01*
X183355726Y-96526661D01*
X183311383Y-96498162D01*
X180142509Y-93329289D01*
X180142506Y-93329285D01*
X180142506Y-93329286D01*
X180135439Y-93322219D01*
X180135439Y-93322218D01*
X179996082Y-93182861D01*
X179996081Y-93182860D01*
X179996080Y-93182859D01*
X179832220Y-93073371D01*
X179832211Y-93073366D01*
X179759615Y-93043296D01*
X179703465Y-93020038D01*
X179650136Y-92997949D01*
X179650132Y-92997948D01*
X179650128Y-92997946D01*
X179563350Y-92980685D01*
X179553488Y-92978724D01*
X179456841Y-92959500D01*
X179448894Y-92959500D01*
X179437770Y-92957454D01*
X179416269Y-92946600D01*
X179393161Y-92939815D01*
X179380634Y-92930506D01*
X179207820Y-92804951D01*
X179207115Y-92804591D01*
X179199054Y-92800485D01*
X179148259Y-92752512D01*
X179131463Y-92684692D01*
X179153999Y-92618556D01*
X179199054Y-92579515D01*
X179207816Y-92575051D01*
X179319271Y-92494075D01*
X179379786Y-92450109D01*
X179379788Y-92450106D01*
X179379792Y-92450104D01*
X179530104Y-92299792D01*
X179530106Y-92299788D01*
X179530109Y-92299786D01*
X179655048Y-92127820D01*
X179655047Y-92127820D01*
X179655051Y-92127816D01*
X179751557Y-91938412D01*
X179817246Y-91736243D01*
X179850500Y-91526287D01*
X179850500Y-91313713D01*
X179817246Y-91103757D01*
X179751557Y-90901588D01*
X179655051Y-90712184D01*
X179655049Y-90712181D01*
X179655048Y-90712179D01*
X179530109Y-90540213D01*
X179379786Y-90389890D01*
X179207817Y-90264949D01*
X179198504Y-90260204D01*
X179147707Y-90212230D01*
X179130912Y-90144409D01*
X179153449Y-90078274D01*
X179198507Y-90039232D01*
X179207555Y-90034622D01*
X179261716Y-89995270D01*
X179261717Y-89995270D01*
X178629408Y-89362962D01*
X178692993Y-89345925D01*
X178807007Y-89280099D01*
X178900099Y-89187007D01*
X178965925Y-89072993D01*
X178982962Y-89009409D01*
X179615270Y-89641717D01*
X179615270Y-89641716D01*
X179654622Y-89587554D01*
X179751095Y-89398217D01*
X179816757Y-89196130D01*
X179816757Y-89196127D01*
X179850000Y-88986246D01*
X179850000Y-88773753D01*
X179816757Y-88563872D01*
X179816757Y-88563869D01*
X179751095Y-88361782D01*
X179654624Y-88172449D01*
X179615270Y-88118282D01*
X179615269Y-88118282D01*
X178982962Y-88750590D01*
X178965925Y-88687007D01*
X178900099Y-88572993D01*
X178807007Y-88479901D01*
X178692993Y-88414075D01*
X178629409Y-88397037D01*
X179298802Y-87727642D01*
X179360125Y-87694157D01*
X179374833Y-87695078D01*
X179374556Y-87692501D01*
X179457375Y-87683598D01*
X179592086Y-87633354D01*
X179592093Y-87633350D01*
X179707187Y-87547190D01*
X179707190Y-87547187D01*
X179793350Y-87432093D01*
X179793354Y-87432086D01*
X179843596Y-87297379D01*
X179843598Y-87297372D01*
X179849999Y-87237844D01*
X179850000Y-87237827D01*
X179850000Y-86620952D01*
X179869685Y-86553913D01*
X179922489Y-86508158D01*
X179991647Y-86498214D01*
X180055203Y-86527239D01*
G37*
%TD.AperFunction*%
%TA.AperFunction,Conductor*%
G36*
X183106587Y-73265185D02*
G01*
X183127229Y-73281819D01*
X186931040Y-77085630D01*
X186934677Y-77089269D01*
X186935430Y-77090649D01*
X186936655Y-77091632D01*
X186936669Y-77091648D01*
X186936199Y-77092058D01*
X186951285Y-77119704D01*
X186968138Y-77150568D01*
X186968136Y-77150585D01*
X186968145Y-77150601D01*
X186965783Y-77183503D01*
X186963154Y-77220260D01*
X186963142Y-77220281D01*
X186963142Y-77220291D01*
X186963125Y-77220312D01*
X186947301Y-77249797D01*
X186945378Y-77252443D01*
X186945376Y-77252447D01*
X186848904Y-77441782D01*
X186783242Y-77643869D01*
X186783242Y-77643872D01*
X186750000Y-77853753D01*
X186750000Y-78066246D01*
X186783242Y-78276127D01*
X186783242Y-78276130D01*
X186848904Y-78478217D01*
X186945375Y-78667550D01*
X186984728Y-78721716D01*
X187617036Y-78089407D01*
X187634075Y-78152993D01*
X187699901Y-78267007D01*
X187792993Y-78360099D01*
X187907007Y-78425925D01*
X187970590Y-78442962D01*
X187338282Y-79075269D01*
X187338282Y-79075270D01*
X187392449Y-79114624D01*
X187581782Y-79211095D01*
X187783870Y-79276757D01*
X187993754Y-79310000D01*
X188206246Y-79310000D01*
X188416127Y-79276757D01*
X188416130Y-79276757D01*
X188618217Y-79211095D01*
X188807554Y-79114622D01*
X188861716Y-79075270D01*
X188861717Y-79075270D01*
X188229408Y-78442962D01*
X188292993Y-78425925D01*
X188407007Y-78360099D01*
X188500099Y-78267007D01*
X188565925Y-78152993D01*
X188582962Y-78089409D01*
X189215270Y-78721717D01*
X189215270Y-78721716D01*
X189254622Y-78667554D01*
X189351095Y-78478217D01*
X189416757Y-78276130D01*
X189416757Y-78276127D01*
X189450000Y-78066246D01*
X189450000Y-77853753D01*
X189416757Y-77643872D01*
X189416757Y-77643869D01*
X189362804Y-77477818D01*
X189360809Y-77407977D01*
X189396889Y-77348144D01*
X189459590Y-77317316D01*
X189480735Y-77315500D01*
X201679748Y-77315500D01*
X201746787Y-77335185D01*
X201767429Y-77351819D01*
X214982152Y-90566542D01*
X215015637Y-90627865D01*
X215010653Y-90697557D01*
X214968781Y-90753490D01*
X214950767Y-90764707D01*
X214792443Y-90845378D01*
X214792440Y-90845380D01*
X214738282Y-90884727D01*
X214738282Y-90884728D01*
X215370591Y-91517037D01*
X215307007Y-91534075D01*
X215192993Y-91599901D01*
X215099901Y-91692993D01*
X215034075Y-91807007D01*
X215017037Y-91870591D01*
X214384728Y-91238282D01*
X214384727Y-91238282D01*
X214345380Y-91292439D01*
X214248904Y-91481782D01*
X214183242Y-91683869D01*
X214183242Y-91683872D01*
X214150000Y-91893753D01*
X214150000Y-92106246D01*
X214183242Y-92316127D01*
X214183242Y-92316130D01*
X214248904Y-92518217D01*
X214345375Y-92707550D01*
X214384728Y-92761716D01*
X215017037Y-92129408D01*
X215034075Y-92192993D01*
X215099901Y-92307007D01*
X215192993Y-92400099D01*
X215307007Y-92465925D01*
X215370589Y-92482962D01*
X214738282Y-93115269D01*
X214738282Y-93115270D01*
X214792452Y-93154626D01*
X214792451Y-93154626D01*
X214801495Y-93159234D01*
X214852292Y-93207208D01*
X214869087Y-93275029D01*
X214846550Y-93341164D01*
X214801499Y-93380202D01*
X214792182Y-93384949D01*
X214616266Y-93512759D01*
X214615635Y-93511891D01*
X214556581Y-93538359D01*
X214539800Y-93539500D01*
X189363157Y-93539500D01*
X189275544Y-93556928D01*
X189275543Y-93556928D01*
X189169867Y-93577947D01*
X189169859Y-93577950D01*
X189116534Y-93600038D01*
X189017031Y-93641253D01*
X188947562Y-93648722D01*
X188885083Y-93617447D01*
X188879707Y-93612126D01*
X188872383Y-93604422D01*
X188863289Y-93590811D01*
X188785449Y-93512971D01*
X188784372Y-93511838D01*
X188783792Y-93510710D01*
X188771144Y-93495298D01*
X188727358Y-93429767D01*
X188640233Y-93342642D01*
X188640232Y-93342641D01*
X172598860Y-77301269D01*
X172598858Y-77301267D01*
X172511733Y-77214142D01*
X172454436Y-77175857D01*
X172448093Y-77171618D01*
X172448090Y-77171616D01*
X172422602Y-77154585D01*
X172409286Y-77145688D01*
X172409283Y-77145686D01*
X172409280Y-77145685D01*
X172336540Y-77115556D01*
X172336538Y-77115555D01*
X172328792Y-77112347D01*
X172295452Y-77098537D01*
X172203303Y-77080208D01*
X172199589Y-77079469D01*
X172199573Y-77079465D01*
X172174609Y-77074500D01*
X172174607Y-77074500D01*
X172174606Y-77074500D01*
X167441330Y-77074500D01*
X167374291Y-77054815D01*
X167330845Y-77006795D01*
X167283342Y-76913566D01*
X167144517Y-76722490D01*
X166977510Y-76555483D01*
X166942872Y-76530317D01*
X166900207Y-76474989D01*
X166894228Y-76405375D01*
X166926833Y-76343580D01*
X166942873Y-76329682D01*
X166977510Y-76304517D01*
X167144517Y-76137510D01*
X167283343Y-75946433D01*
X167330845Y-75853205D01*
X167378820Y-75802409D01*
X167441330Y-75785500D01*
X175647848Y-75785500D01*
X175714887Y-75805185D01*
X175735529Y-75821819D01*
X185303016Y-85389306D01*
X185303045Y-85389337D01*
X185393264Y-85479556D01*
X185429829Y-85503988D01*
X185429831Y-85503989D01*
X185495715Y-85548012D01*
X185549198Y-85570165D01*
X185609548Y-85595163D01*
X185669971Y-85607181D01*
X185730393Y-85619200D01*
X185730394Y-85619200D01*
X197487650Y-85619200D01*
X197554689Y-85638885D01*
X197556541Y-85640098D01*
X197650821Y-85703094D01*
X197650823Y-85703095D01*
X197650827Y-85703097D01*
X197796498Y-85763435D01*
X197796503Y-85763437D01*
X197951153Y-85794199D01*
X197951156Y-85794200D01*
X197951158Y-85794200D01*
X198108844Y-85794200D01*
X198108845Y-85794199D01*
X198263497Y-85763437D01*
X198409179Y-85703094D01*
X198540289Y-85615489D01*
X198651789Y-85503989D01*
X198739394Y-85372879D01*
X198799737Y-85227197D01*
X198830500Y-85072542D01*
X198830500Y-84914858D01*
X198830500Y-84914855D01*
X198830499Y-84914853D01*
X198821305Y-84868631D01*
X198799737Y-84760203D01*
X198751606Y-84644003D01*
X198739397Y-84614527D01*
X198739390Y-84614514D01*
X198651789Y-84483411D01*
X198651786Y-84483407D01*
X198540292Y-84371913D01*
X198540288Y-84371910D01*
X198409185Y-84284309D01*
X198409172Y-84284302D01*
X198263501Y-84223964D01*
X198263489Y-84223961D01*
X198108845Y-84193200D01*
X198108842Y-84193200D01*
X197951158Y-84193200D01*
X197951155Y-84193200D01*
X197796510Y-84223961D01*
X197796498Y-84223964D01*
X197650827Y-84284302D01*
X197650815Y-84284309D01*
X197556541Y-84347302D01*
X197489864Y-84368180D01*
X197487650Y-84368200D01*
X186102452Y-84368200D01*
X186035413Y-84348515D01*
X186014771Y-84331881D01*
X176451560Y-74768670D01*
X176444160Y-74761270D01*
X176444158Y-74761267D01*
X176357033Y-74674142D01*
X176302277Y-74637555D01*
X176254586Y-74605688D01*
X176174092Y-74572347D01*
X176140752Y-74558537D01*
X176048603Y-74540208D01*
X176044889Y-74539469D01*
X176044873Y-74539465D01*
X176019909Y-74534500D01*
X176019907Y-74534500D01*
X176019906Y-74534500D01*
X167441330Y-74534500D01*
X167374291Y-74514815D01*
X167330845Y-74466795D01*
X167283342Y-74373566D01*
X167144517Y-74182490D01*
X166977510Y-74015483D01*
X166942872Y-73990317D01*
X166900207Y-73934989D01*
X166894228Y-73865375D01*
X166926833Y-73803580D01*
X166942873Y-73789682D01*
X166977510Y-73764517D01*
X167144517Y-73597510D01*
X167283343Y-73406433D01*
X167330845Y-73313205D01*
X167378820Y-73262409D01*
X167441330Y-73245500D01*
X183039548Y-73245500D01*
X183106587Y-73265185D01*
G37*
%TD.AperFunction*%
%TA.AperFunction,Conductor*%
G36*
X171869587Y-78345185D02*
G01*
X171890229Y-78361819D01*
X178306729Y-84778319D01*
X178340214Y-84839642D01*
X178335230Y-84909334D01*
X178293358Y-84965267D01*
X178227894Y-84989684D01*
X178219048Y-84990000D01*
X177602155Y-84990000D01*
X177542627Y-84996401D01*
X177542620Y-84996403D01*
X177407913Y-85046645D01*
X177407906Y-85046649D01*
X177292812Y-85132809D01*
X177292809Y-85132812D01*
X177206649Y-85247906D01*
X177206645Y-85247913D01*
X177156403Y-85382620D01*
X177156401Y-85382627D01*
X177150000Y-85442155D01*
X177150000Y-86090000D01*
X178066988Y-86090000D01*
X178034075Y-86147007D01*
X178000000Y-86274174D01*
X178000000Y-86405826D01*
X178034075Y-86532993D01*
X178066988Y-86590000D01*
X177150000Y-86590000D01*
X177150000Y-87237844D01*
X177156401Y-87297372D01*
X177156403Y-87297379D01*
X177206645Y-87432086D01*
X177206649Y-87432093D01*
X177292809Y-87547187D01*
X177292812Y-87547190D01*
X177407906Y-87633350D01*
X177407913Y-87633354D01*
X177542620Y-87683596D01*
X177542619Y-87683596D01*
X177625444Y-87692501D01*
X177625116Y-87695550D01*
X177642014Y-87694642D01*
X177701196Y-87727642D01*
X178370591Y-88397037D01*
X178307007Y-88414075D01*
X178192993Y-88479901D01*
X178099901Y-88572993D01*
X178034075Y-88687007D01*
X178017037Y-88750591D01*
X177384728Y-88118282D01*
X177384727Y-88118282D01*
X177345380Y-88172439D01*
X177248904Y-88361782D01*
X177183242Y-88563869D01*
X177183242Y-88563872D01*
X177150000Y-88773753D01*
X177150000Y-88986246D01*
X177183242Y-89196127D01*
X177183242Y-89196130D01*
X177248904Y-89398217D01*
X177345375Y-89587550D01*
X177384728Y-89641716D01*
X178017037Y-89009408D01*
X178034075Y-89072993D01*
X178099901Y-89187007D01*
X178192993Y-89280099D01*
X178307007Y-89345925D01*
X178370590Y-89362962D01*
X177738282Y-89995269D01*
X177738282Y-89995270D01*
X177792452Y-90034626D01*
X177792451Y-90034626D01*
X177801495Y-90039234D01*
X177852292Y-90087208D01*
X177869087Y-90155029D01*
X177846550Y-90221164D01*
X177801499Y-90260202D01*
X177792182Y-90264949D01*
X177616266Y-90392759D01*
X177615635Y-90391891D01*
X177556581Y-90418359D01*
X177539800Y-90419500D01*
X169885783Y-90419500D01*
X169818744Y-90399815D01*
X169798102Y-90383181D01*
X168036819Y-88621898D01*
X168003334Y-88560575D01*
X168000500Y-88534217D01*
X168000500Y-88381902D01*
X167963553Y-88148631D01*
X167890566Y-87924003D01*
X167834002Y-87812991D01*
X167783343Y-87713567D01*
X167644517Y-87522490D01*
X167644508Y-87522481D01*
X167641353Y-87518786D01*
X167643022Y-87517360D01*
X167613910Y-87464045D01*
X167618894Y-87394353D01*
X167660766Y-87338420D01*
X167669980Y-87332148D01*
X167718343Y-87302317D01*
X167842315Y-87178345D01*
X167934356Y-87029124D01*
X167934358Y-87029119D01*
X167989505Y-86862697D01*
X167989506Y-86862690D01*
X167999999Y-86759986D01*
X168000000Y-86759973D01*
X168000000Y-86210000D01*
X167048482Y-86210000D01*
X167059111Y-86191591D01*
X167100000Y-86038991D01*
X167100000Y-85881009D01*
X167059111Y-85728409D01*
X167048482Y-85710000D01*
X167999999Y-85710000D01*
X167999999Y-85160028D01*
X167999998Y-85160013D01*
X167989505Y-85057302D01*
X167934358Y-84890880D01*
X167934356Y-84890875D01*
X167842315Y-84741654D01*
X167718345Y-84617684D01*
X167569124Y-84525643D01*
X167569119Y-84525641D01*
X167402697Y-84470494D01*
X167402690Y-84470493D01*
X167299986Y-84460000D01*
X166750000Y-84460000D01*
X166750000Y-85411517D01*
X166731591Y-85400889D01*
X166578991Y-85360000D01*
X166421009Y-85360000D01*
X166268409Y-85400889D01*
X166250000Y-85411517D01*
X166250000Y-84460000D01*
X165700028Y-84460000D01*
X165700012Y-84460001D01*
X165597302Y-84470494D01*
X165430880Y-84525641D01*
X165430875Y-84525643D01*
X165390597Y-84550488D01*
X165323204Y-84568928D01*
X165256541Y-84548005D01*
X165211771Y-84494363D01*
X165201500Y-84444949D01*
X165201500Y-79179544D01*
X165221185Y-79112505D01*
X165273989Y-79066750D01*
X165343147Y-79056806D01*
X165381796Y-79069060D01*
X165424001Y-79090565D01*
X165424004Y-79090565D01*
X165424008Y-79090568D01*
X165576987Y-79140274D01*
X165648631Y-79163553D01*
X165881903Y-79200500D01*
X165881908Y-79200500D01*
X166118097Y-79200500D01*
X166351368Y-79163553D01*
X166394615Y-79149501D01*
X166575992Y-79090568D01*
X166786433Y-78983343D01*
X166977510Y-78844517D01*
X167144517Y-78677510D01*
X167283343Y-78486433D01*
X167330845Y-78393205D01*
X167378820Y-78342409D01*
X167441330Y-78325500D01*
X171802548Y-78325500D01*
X171869587Y-78345185D01*
G37*
%TD.AperFunction*%
%TA.AperFunction,Conductor*%
G36*
X183299557Y-68560185D02*
G01*
X183320199Y-68576819D01*
X185718035Y-70974655D01*
X185718064Y-70974686D01*
X185860514Y-71117136D01*
X185860518Y-71117139D01*
X186024379Y-71226628D01*
X186024392Y-71226635D01*
X186153133Y-71279961D01*
X186195433Y-71297482D01*
X186206464Y-71302051D01*
X186303112Y-71321275D01*
X186351435Y-71330887D01*
X186399758Y-71340500D01*
X186399759Y-71340500D01*
X186399760Y-71340500D01*
X186596840Y-71340500D01*
X186685859Y-71340500D01*
X186752898Y-71360185D01*
X186798653Y-71412989D01*
X186802030Y-71421140D01*
X186806204Y-71432331D01*
X186806205Y-71432332D01*
X186806206Y-71432335D01*
X186892452Y-71547544D01*
X186892455Y-71547547D01*
X187007664Y-71633793D01*
X187007671Y-71633797D01*
X187139082Y-71682810D01*
X187195016Y-71724681D01*
X187219433Y-71790145D01*
X187204582Y-71858418D01*
X187183431Y-71886673D01*
X187069889Y-72000215D01*
X186944951Y-72172179D01*
X186848444Y-72361585D01*
X186782753Y-72563760D01*
X186749500Y-72773713D01*
X186749500Y-72986287D01*
X186782754Y-73196243D01*
X186820757Y-73313205D01*
X186848444Y-73398414D01*
X186944951Y-73587820D01*
X187069890Y-73759786D01*
X187220213Y-73910109D01*
X187392182Y-74035050D01*
X187400946Y-74039516D01*
X187451742Y-74087491D01*
X187468536Y-74155312D01*
X187445998Y-74221447D01*
X187400946Y-74260484D01*
X187392182Y-74264949D01*
X187220213Y-74389890D01*
X187220209Y-74389894D01*
X187069897Y-74540207D01*
X187069890Y-74540213D01*
X186944951Y-74712179D01*
X186848442Y-74901587D01*
X186829487Y-74959925D01*
X186790049Y-75017600D01*
X186725690Y-75044797D01*
X186656844Y-75032882D01*
X186623876Y-75009286D01*
X183843380Y-72228790D01*
X183835860Y-72221270D01*
X183835858Y-72221267D01*
X183748733Y-72134142D01*
X183689875Y-72094814D01*
X183683483Y-72090543D01*
X183683481Y-72090541D01*
X183646287Y-72065689D01*
X183646286Y-72065688D01*
X183646283Y-72065686D01*
X183646280Y-72065685D01*
X183573540Y-72035556D01*
X183573538Y-72035555D01*
X183565792Y-72032347D01*
X183532452Y-72018537D01*
X183440303Y-72000208D01*
X183436589Y-71999469D01*
X183436573Y-71999465D01*
X183411609Y-71994500D01*
X183411607Y-71994500D01*
X183411606Y-71994500D01*
X167441330Y-71994500D01*
X167374291Y-71974815D01*
X167330845Y-71926795D01*
X167283342Y-71833566D01*
X167277373Y-71825350D01*
X167144517Y-71642490D01*
X166977510Y-71475483D01*
X166918282Y-71432451D01*
X166875617Y-71377122D01*
X166867550Y-71322404D01*
X166869104Y-71302657D01*
X166211059Y-70644612D01*
X166231591Y-70639111D01*
X166368408Y-70560119D01*
X166480119Y-70448408D01*
X166559111Y-70311591D01*
X166564612Y-70291058D01*
X167222658Y-70949105D01*
X167222658Y-70949104D01*
X167282914Y-70866169D01*
X167282918Y-70866163D01*
X167390102Y-70655802D01*
X167463065Y-70431247D01*
X167500000Y-70198052D01*
X167500000Y-69961947D01*
X167463065Y-69728752D01*
X167390102Y-69504197D01*
X167282914Y-69293828D01*
X167222658Y-69210894D01*
X167222658Y-69210893D01*
X166564612Y-69868940D01*
X166559111Y-69848409D01*
X166480119Y-69711592D01*
X166368408Y-69599881D01*
X166231591Y-69520889D01*
X166211058Y-69515387D01*
X166869105Y-68857340D01*
X166867551Y-68837594D01*
X166868345Y-68833813D01*
X166867190Y-68830129D01*
X166875468Y-68799902D01*
X166881915Y-68769216D01*
X166884922Y-68765385D01*
X166885647Y-68762741D01*
X166894462Y-68753235D01*
X166908269Y-68735650D01*
X166913060Y-68731342D01*
X166977510Y-68684517D01*
X167087543Y-68574483D01*
X167089989Y-68572285D01*
X167118649Y-68558558D01*
X167146531Y-68543334D01*
X167151568Y-68542792D01*
X167153004Y-68542105D01*
X167155294Y-68542391D01*
X167172889Y-68540500D01*
X183232518Y-68540500D01*
X183299557Y-68560185D01*
G37*
%TD.AperFunction*%
%TD*%
M02*
