%TF.GenerationSoftware,KiCad,Pcbnew,9.0.9-9.0.9~ubuntu24.04.1*%
%TF.CreationDate,2026-05-08T14:31:50+02:00*%
%TF.ProjectId,HiveScale_V0,48697665-5363-4616-9c65-5f56302e6b69,rev?*%
%TF.SameCoordinates,Original*%
%TF.FileFunction,Soldermask,Bot*%
%TF.FilePolarity,Negative*%
%FSLAX46Y46*%
G04 Gerber Fmt 4.6, Leading zero omitted, Abs format (unit mm)*
G04 Created by KiCad (PCBNEW 9.0.9-9.0.9~ubuntu24.04.1) date 2026-05-08 14:31:50*
%MOMM*%
%LPD*%
G01*
G04 APERTURE LIST*
G04 Aperture macros list*
%AMRoundRect*
0 Rectangle with rounded corners*
0 $1 Rounding radius*
0 $2 $3 $4 $5 $6 $7 $8 $9 X,Y pos of 4 corners*
0 Add a 4 corners polygon primitive as box body*
4,1,4,$2,$3,$4,$5,$6,$7,$8,$9,$2,$3,0*
0 Add four circle primitives for the rounded corners*
1,1,$1+$1,$2,$3*
1,1,$1+$1,$4,$5*
1,1,$1+$1,$6,$7*
1,1,$1+$1,$8,$9*
0 Add four rect primitives between the rounded corners*
20,1,$1+$1,$2,$3,$4,$5,0*
20,1,$1+$1,$4,$5,$6,$7,0*
20,1,$1+$1,$6,$7,$8,$9,0*
20,1,$1+$1,$8,$9,$2,$3,0*%
G04 Aperture macros list end*
%ADD10C,2.000000*%
%ADD11RoundRect,0.250000X0.750000X-0.750000X0.750000X0.750000X-0.750000X0.750000X-0.750000X-0.750000X0*%
%ADD12C,3.200000*%
%ADD13R,1.700000X1.700000*%
%ADD14C,1.700000*%
%ADD15RoundRect,0.250000X-0.750000X0.750000X-0.750000X-0.750000X0.750000X-0.750000X0.750000X0.750000X0*%
%ADD16C,1.600000*%
G04 APERTURE END LIST*
D10*
%TO.C,J15*%
X235000000Y-129380000D03*
X235000000Y-131920000D03*
X235000000Y-134460000D03*
D11*
X235000000Y-137000000D03*
%TD*%
D12*
%TO.C,REF\u002A\u002A*%
X224100000Y-130920000D03*
%TD*%
%TO.C,REF\u002A\u002A*%
X158060000Y-136000000D03*
%TD*%
%TO.C,REF\u002A\u002A*%
X122500000Y-90280000D03*
%TD*%
%TO.C,REF\u002A\u002A*%
X224100000Y-85200000D03*
%TD*%
%TO.C,REF\u002A\u002A*%
X122500000Y-136000000D03*
%TD*%
%TO.C,REF\u002A\u002A*%
X173300000Y-44560000D03*
%TD*%
D11*
%TO.C,J12*%
X235500000Y-103000000D03*
D10*
X235500000Y-100460000D03*
X235500000Y-97920000D03*
X235500000Y-95380000D03*
X235500000Y-92840000D03*
X235500000Y-90300000D03*
X235500000Y-87760000D03*
X235500000Y-85220000D03*
X235500000Y-82680000D03*
X235500000Y-80140000D03*
X235500000Y-77600000D03*
X235500000Y-75060000D03*
%TD*%
D13*
%TO.C,J19*%
X135810000Y-66475000D03*
D14*
X138350000Y-66475000D03*
%TD*%
D11*
%TO.C,J14*%
X235000000Y-124000000D03*
D10*
X235000000Y-121460000D03*
X235000000Y-118920000D03*
%TD*%
D13*
%TO.C,J1*%
X179700000Y-97010000D03*
D14*
X179700000Y-99550000D03*
X179700000Y-102090000D03*
X179700000Y-104630000D03*
X179700000Y-107170000D03*
X179700000Y-109710000D03*
X179700000Y-112250000D03*
X179700000Y-114790000D03*
X179700000Y-117330000D03*
X179700000Y-119870000D03*
X179700000Y-122410000D03*
X179700000Y-124950000D03*
X179700000Y-127490000D03*
X179700000Y-130030000D03*
X179700000Y-132570000D03*
%TD*%
D15*
%TO.C,J10*%
X124500000Y-81960000D03*
D10*
X124500000Y-84500000D03*
%TD*%
D13*
%TO.C,J18*%
X123110000Y-44500000D03*
D14*
X125650000Y-44500000D03*
%TD*%
D13*
%TO.C,J22*%
X147100000Y-99800000D03*
D14*
X144560000Y-99800000D03*
X142020000Y-99800000D03*
X139480000Y-99800000D03*
X136940000Y-99800000D03*
X134400000Y-99800000D03*
X131860000Y-99800000D03*
%TD*%
D13*
%TO.C,J9*%
X167000000Y-132000000D03*
D14*
X167000000Y-129460000D03*
X167000000Y-126920000D03*
X167000000Y-124380000D03*
X167000000Y-121840000D03*
X167000000Y-119300000D03*
%TD*%
D13*
%TO.C,J16*%
X149175000Y-62000000D03*
D14*
X151715000Y-62000000D03*
X154255000Y-62000000D03*
X156795000Y-62000000D03*
X159335000Y-62000000D03*
X161875000Y-62000000D03*
%TD*%
D13*
%TO.C,J5*%
X167000000Y-106120000D03*
D14*
X167000000Y-103580000D03*
X167000000Y-101040000D03*
X167000000Y-98500000D03*
%TD*%
D11*
%TO.C,J11*%
X235500000Y-70660000D03*
D10*
X235500000Y-68120000D03*
X235500000Y-65580000D03*
X235500000Y-63040000D03*
X235500000Y-60500000D03*
X235500000Y-57960000D03*
X235500000Y-55420000D03*
X235500000Y-52880000D03*
X235500000Y-50340000D03*
X235500000Y-47800000D03*
X235500000Y-45260000D03*
X235500000Y-42720000D03*
%TD*%
D13*
%TO.C,J20*%
X175925000Y-65475000D03*
D14*
X178465000Y-65475000D03*
X181005000Y-65475000D03*
X183545000Y-65475000D03*
X186085000Y-65475000D03*
X188625000Y-65475000D03*
%TD*%
D13*
%TO.C,J6*%
X123110000Y-66250000D03*
D14*
X125650000Y-66250000D03*
%TD*%
D11*
%TO.C,J13*%
X235250000Y-113500000D03*
D10*
X235250000Y-110960000D03*
X235250000Y-108420000D03*
%TD*%
D13*
%TO.C,J21*%
X189960000Y-43000000D03*
D14*
X192500000Y-43000000D03*
%TD*%
D16*
%TO.C,R1*%
X214880000Y-116000000D03*
X222500000Y-116000000D03*
%TD*%
D13*
%TO.C,J8*%
X224550000Y-79250000D03*
D14*
X224550000Y-76710000D03*
X224550000Y-74170000D03*
X224550000Y-71630000D03*
X224550000Y-69090000D03*
X224550000Y-66550000D03*
%TD*%
D13*
%TO.C,J4*%
X199125000Y-46915000D03*
D14*
X199125000Y-49455000D03*
X199125000Y-51995000D03*
X199125000Y-54535000D03*
%TD*%
D13*
%TO.C,J17*%
X152740000Y-89975000D03*
D14*
X150200000Y-89975000D03*
X147660000Y-89975000D03*
X145120000Y-89975000D03*
%TD*%
D13*
%TO.C,J7*%
X224525000Y-57075000D03*
D14*
X224525000Y-54535000D03*
X224525000Y-51995000D03*
X224525000Y-49455000D03*
X224525000Y-46915000D03*
X224525000Y-44375000D03*
%TD*%
D13*
%TO.C,J3*%
X199150000Y-69090000D03*
D14*
X199150000Y-71630000D03*
X199150000Y-74170000D03*
X199150000Y-76710000D03*
%TD*%
D13*
%TO.C,J23*%
X135810000Y-44500000D03*
D14*
X138350000Y-44500000D03*
%TD*%
D13*
%TO.C,J2*%
X205100000Y-97010000D03*
D14*
X205100000Y-99550000D03*
X205100000Y-102090000D03*
X205100000Y-104630000D03*
X205100000Y-107170000D03*
X205100000Y-109710000D03*
X205100000Y-112250000D03*
X205100000Y-114790000D03*
X205100000Y-117330000D03*
X205100000Y-119870000D03*
X205100000Y-122410000D03*
X205100000Y-124950000D03*
X205100000Y-127490000D03*
X205100000Y-130030000D03*
X205100000Y-132570000D03*
%TD*%
D13*
%TO.C,SW1*%
X223525000Y-93750000D03*
D14*
X223525000Y-96290000D03*
%TD*%
M02*
