M48
; DRILL file {KiCad 9.0.9-9.0.9~ubuntu24.04.1} date 2026-05-08T14:31:52+0200
; FORMAT={-:-/ absolute / metric / decimal}
; #@! TF.CreationDate,2026-05-08T14:31:52+02:00
; #@! TF.GenerationSoftware,Kicad,Pcbnew,9.0.9-9.0.9~ubuntu24.04.1
; #@! TF.FileFunction,Plated,1,2,PTH
FMAT,2
METRIC
; #@! TA.AperFunction,Plated,PTH,ViaDrill
T1C0.300
; #@! TA.AperFunction,Plated,PTH,ComponentDrill
T2C0.800
; #@! TA.AperFunction,Plated,PTH,ComponentDrill
T3C1.000
; #@! TA.AperFunction,Plated,PTH,ComponentDrill
T4C1.200
%
G90
G05
T1
X170.674Y-103.58
X171.226Y-102.129
X199.0Y-104.5
X206.0Y-45.5
X206.0Y-54.5
X218.5Y-46.0
X218.5Y-54.5
X229.5Y-61.5
T2
X214.88Y-116.0
X222.5Y-116.0
T3
X123.11Y-44.5
X123.11Y-66.25
X125.65Y-44.5
X125.65Y-66.25
X131.86Y-99.8
X134.4Y-99.8
X135.81Y-44.5
X135.81Y-66.475
X136.94Y-99.8
X138.35Y-44.5
X138.35Y-66.475
X139.48Y-99.8
X142.02Y-99.8
X144.56Y-99.8
X145.12Y-89.975
X147.1Y-99.8
X147.66Y-89.975
X149.175Y-62.0
X150.2Y-89.975
X151.715Y-62.0
X152.74Y-89.975
X154.255Y-62.0
X156.795Y-62.0
X159.335Y-62.0
X161.875Y-62.0
X167.0Y-98.5
X167.0Y-101.04
X167.0Y-103.58
X167.0Y-106.12
X167.0Y-119.3
X167.0Y-121.84
X167.0Y-124.38
X167.0Y-126.92
X167.0Y-129.46
X167.0Y-132.0
X175.925Y-65.475
X178.465Y-65.475
X179.7Y-97.01
X179.7Y-99.55
X179.7Y-102.09
X179.7Y-104.63
X179.7Y-107.17
X179.7Y-109.71
X179.7Y-112.25
X179.7Y-114.79
X179.7Y-117.33
X179.7Y-119.87
X179.7Y-122.41
X179.7Y-124.95
X179.7Y-127.49
X179.7Y-130.03
X179.7Y-132.57
X181.005Y-65.475
X183.545Y-65.475
X186.085Y-65.475
X188.625Y-65.475
X189.96Y-43.0
X192.5Y-43.0
X199.125Y-46.915
X199.125Y-49.455
X199.125Y-51.995
X199.125Y-54.535
X199.15Y-69.09
X199.15Y-71.63
X199.15Y-74.17
X199.15Y-76.71
X205.1Y-97.01
X205.1Y-99.55
X205.1Y-102.09
X205.1Y-104.63
X205.1Y-107.17
X205.1Y-109.71
X205.1Y-112.25
X205.1Y-114.79
X205.1Y-117.33
X205.1Y-119.87
X205.1Y-122.41
X205.1Y-124.95
X205.1Y-127.49
X205.1Y-130.03
X205.1Y-132.57
X223.525Y-93.75
X223.525Y-96.29
X224.525Y-44.375
X224.525Y-46.915
X224.525Y-49.455
X224.525Y-51.995
X224.525Y-54.535
X224.525Y-57.075
X224.55Y-66.55
X224.55Y-69.09
X224.55Y-71.63
X224.55Y-74.17
X224.55Y-76.71
X224.55Y-79.25
T4
X124.5Y-81.96
X124.5Y-84.5
X235.0Y-118.92
X235.0Y-121.46
X235.0Y-124.0
X235.0Y-129.38
X235.0Y-131.92
X235.0Y-134.46
X235.0Y-137.0
X235.25Y-108.42
X235.25Y-110.96
X235.25Y-113.5
X235.5Y-42.72
X235.5Y-45.26
X235.5Y-47.8
X235.5Y-50.34
X235.5Y-52.88
X235.5Y-55.42
X235.5Y-57.96
X235.5Y-60.5
X235.5Y-63.04
X235.5Y-65.58
X235.5Y-68.12
X235.5Y-70.66
X235.5Y-75.06
X235.5Y-77.6
X235.5Y-80.14
X235.5Y-82.68
X235.5Y-85.22
X235.5Y-87.76
X235.5Y-90.3
X235.5Y-92.84
X235.5Y-95.38
X235.5Y-97.92
X235.5Y-100.46
X235.5Y-103.0
M30
