M48
; DRILL file KiCad 10.0.3-10.0.3~ubuntu24.04.1 date 2026-06-02T07:19:43
; FORMAT={-:-/ absolute / metric / decimal}
; #@! TF.CreationDate,2026-06-02T07:19:43+02:00
; #@! TF.GenerationSoftware,Kicad,Pcbnew,10.0.3-10.0.3~ubuntu24.04.1
; #@! TF.FileFunction,Plated,1,2,PTH
FMAT,2
METRIC
; #@! TA.AperFunction,Plated,PTH,ViaDrill
T1C0.400
; #@! TA.AperFunction,Plated,PTH,ComponentDrill
T2C1.000
%
G90
G05
T1
X122.0Y-47.5
X122.0Y-64.5
X122.5Y-73.0
X124.0Y-69.5
X124.0Y-89.0
X126.0Y-64.5
X126.5Y-47.5
X129.0Y-94.0
X130.0Y-44.5
X130.0Y-89.0
X133.5Y-96.0
X134.0Y-48.5
X134.5Y-97.0
X138.5Y-76.5
X143.0Y-64.0
X144.0Y-55.5
X145.5Y-86.0
X146.0Y-51.5
X147.0Y-43.5
X149.0Y-66.5
X149.0Y-80.0
X154.0Y-67.5
X154.5Y-64.0
X154.5Y-94.5
X154.5Y-97.0
X156.0Y-68.0
X159.0Y-79.5
X159.5Y-64.0
X163.0Y-87.0
X164.0Y-67.0
X165.5Y-69.5
X167.5Y-75.5
X169.0Y-43.5
X169.0Y-61.5
X169.0Y-85.0
X170.0Y-96.5
X174.0Y-72.0
X174.5Y-64.5
X175.5Y-77.0
X178.0Y-44.5
X178.5Y-64.0
X180.0Y-83.0
X182.5Y-56.0
X184.0Y-72.0
X184.0Y-93.5
X184.0Y-96.0
X185.5Y-44.5
X185.5Y-64.5
X189.5Y-64.0
X191.5Y-72.0
X192.0Y-89.5
T2
X123.11Y-44.5
X123.11Y-67.36
X125.65Y-44.5
X125.65Y-67.36
X135.12Y-89.475
X135.81Y-44.5
X135.81Y-67.36
X137.66Y-89.475
X138.18Y-95.15
X138.35Y-44.5
X138.35Y-67.36
X140.2Y-89.475
X140.72Y-95.15
X142.74Y-89.475
X143.26Y-95.15
X145.8Y-95.15
X148.34Y-95.15
X150.88Y-95.15
X151.675Y-62.0
X154.215Y-62.0
X156.755Y-62.0
X159.295Y-62.0
X161.835Y-62.0
X164.375Y-62.0
X174.35Y-89.09
X175.42Y-44.14
X175.42Y-67.0
X176.89Y-89.09
X177.96Y-67.0
X179.43Y-80.2
X179.43Y-89.09
X181.97Y-80.2
X181.97Y-89.09
X184.51Y-89.09
X185.58Y-67.0
X187.05Y-89.09
X188.12Y-44.14
X188.12Y-67.0
M30
