%TF.GenerationSoftware,KiCad,Pcbnew,10.0.3-10.0.3~ubuntu24.04.1*%
%TF.CreationDate,2026-06-02T07:19:41+02:00*%
%TF.ProjectId,_V0_3-Power_Module,5f56305f-332d-4506-9f77-65725f4d6f64,rev?*%
%TF.SameCoordinates,Original*%
%TF.FileFunction,Soldermask,Top*%
%TF.FilePolarity,Negative*%
%FSLAX46Y46*%
G04 Gerber Fmt 4.6, Leading zero omitted, Abs format (unit mm)*
G04 Created by KiCad (PCBNEW 10.0.3-10.0.3~ubuntu24.04.1) date 2026-06-02 07:19:41*
%MOMM*%
%LPD*%
G01*
G04 APERTURE LIST*
%ADD10R,1.700000X1.700000*%
%ADD11C,1.700000*%
%ADD12C,3.200000*%
G04 APERTURE END LIST*
D10*
%TO.C,J19*%
X135810000Y-67360000D03*
D11*
X138350000Y-67360000D03*
%TD*%
D10*
%TO.C,J18*%
X123110000Y-44500000D03*
D11*
X125650000Y-44500000D03*
%TD*%
D12*
%TO.C,m3-bl*%
X124380000Y-94000000D03*
%TD*%
D10*
%TO.C,J16*%
X151675000Y-62000000D03*
D11*
X154215000Y-62000000D03*
X156755000Y-62000000D03*
X159295000Y-62000000D03*
X161835000Y-62000000D03*
X164375000Y-62000000D03*
%TD*%
D12*
%TO.C,m3-tr*%
X170100000Y-68600000D03*
%TD*%
D10*
%TO.C,J21*%
X174350000Y-89090000D03*
D11*
X176890000Y-89090000D03*
X179430000Y-89090000D03*
X181970000Y-89090000D03*
X184510000Y-89090000D03*
X187050000Y-89090000D03*
%TD*%
D10*
%TO.C,stabilizer_usb_1*%
X175420000Y-44140000D03*
%TD*%
%TO.C,J6*%
X123110000Y-67360000D03*
D11*
X125650000Y-67360000D03*
%TD*%
D10*
%TO.C,TP4056+1*%
X188120000Y-67000000D03*
D11*
X185580000Y-67000000D03*
%TD*%
D10*
%TO.C,J20*%
X150880000Y-95150000D03*
D11*
X148340000Y-95150000D03*
X145800000Y-95150000D03*
X143260000Y-95150000D03*
X140720000Y-95150000D03*
X138180000Y-95150000D03*
%TD*%
D10*
%TO.C,MAX17048*%
X179430000Y-80200000D03*
D11*
X181970000Y-80200000D03*
%TD*%
D10*
%TO.C,stabilizer_usb_2*%
X188120000Y-44140000D03*
%TD*%
D12*
%TO.C,m3-tl*%
X144700000Y-68600000D03*
%TD*%
%TO.C,m3-br*%
X190420000Y-94000000D03*
%TD*%
D10*
%TO.C,J17*%
X142740000Y-89475000D03*
D11*
X140200000Y-89475000D03*
X137660000Y-89475000D03*
X135120000Y-89475000D03*
%TD*%
D10*
%TO.C,TP4056-1*%
X177960000Y-67000000D03*
D11*
X175420000Y-67000000D03*
%TD*%
D10*
%TO.C,J23*%
X135810000Y-44500000D03*
D11*
X138350000Y-44500000D03*
%TD*%
M02*
