%TF.GenerationSoftware,KiCad,Pcbnew,10.0.3-10.0.3~ubuntu24.04.1*%
%TF.CreationDate,2026-06-02T07:19:40+02:00*%
%TF.ProjectId,_V0_3-Power_Module,5f56305f-332d-4506-9f77-65725f4d6f64,rev?*%
%TF.SameCoordinates,Original*%
%TF.FileFunction,Legend,Bot*%
%TF.FilePolarity,Positive*%
%FSLAX46Y46*%
G04 Gerber Fmt 4.6, Leading zero omitted, Abs format (unit mm)*
G04 Created by KiCad (PCBNEW 10.0.3-10.0.3~ubuntu24.04.1) date 2026-06-02 07:19:40*
%MOMM*%
%LPD*%
G01*
G04 APERTURE LIST*
%ADD10C,0.100000*%
G04 APERTURE END LIST*
D10*
X138324800Y-91256265D02*
X138372419Y-91399122D01*
X138372419Y-91399122D02*
X138372419Y-91637217D01*
X138372419Y-91637217D02*
X138324800Y-91732455D01*
X138324800Y-91732455D02*
X138277180Y-91780074D01*
X138277180Y-91780074D02*
X138181942Y-91827693D01*
X138181942Y-91827693D02*
X138086704Y-91827693D01*
X138086704Y-91827693D02*
X137991466Y-91780074D01*
X137991466Y-91780074D02*
X137943847Y-91732455D01*
X137943847Y-91732455D02*
X137896228Y-91637217D01*
X137896228Y-91637217D02*
X137848609Y-91446741D01*
X137848609Y-91446741D02*
X137800990Y-91351503D01*
X137800990Y-91351503D02*
X137753371Y-91303884D01*
X137753371Y-91303884D02*
X137658133Y-91256265D01*
X137658133Y-91256265D02*
X137562895Y-91256265D01*
X137562895Y-91256265D02*
X137467657Y-91303884D01*
X137467657Y-91303884D02*
X137420038Y-91351503D01*
X137420038Y-91351503D02*
X137372419Y-91446741D01*
X137372419Y-91446741D02*
X137372419Y-91684836D01*
X137372419Y-91684836D02*
X137420038Y-91827693D01*
X138277180Y-92827693D02*
X138324800Y-92780074D01*
X138324800Y-92780074D02*
X138372419Y-92637217D01*
X138372419Y-92637217D02*
X138372419Y-92541979D01*
X138372419Y-92541979D02*
X138324800Y-92399122D01*
X138324800Y-92399122D02*
X138229561Y-92303884D01*
X138229561Y-92303884D02*
X138134323Y-92256265D01*
X138134323Y-92256265D02*
X137943847Y-92208646D01*
X137943847Y-92208646D02*
X137800990Y-92208646D01*
X137800990Y-92208646D02*
X137610514Y-92256265D01*
X137610514Y-92256265D02*
X137515276Y-92303884D01*
X137515276Y-92303884D02*
X137420038Y-92399122D01*
X137420038Y-92399122D02*
X137372419Y-92541979D01*
X137372419Y-92541979D02*
X137372419Y-92637217D01*
X137372419Y-92637217D02*
X137420038Y-92780074D01*
X137420038Y-92780074D02*
X137467657Y-92827693D01*
X138372419Y-93732455D02*
X138372419Y-93256265D01*
X138372419Y-93256265D02*
X137372419Y-93256265D01*
X141324800Y-91256265D02*
X141372419Y-91399122D01*
X141372419Y-91399122D02*
X141372419Y-91637217D01*
X141372419Y-91637217D02*
X141324800Y-91732455D01*
X141324800Y-91732455D02*
X141277180Y-91780074D01*
X141277180Y-91780074D02*
X141181942Y-91827693D01*
X141181942Y-91827693D02*
X141086704Y-91827693D01*
X141086704Y-91827693D02*
X140991466Y-91780074D01*
X140991466Y-91780074D02*
X140943847Y-91732455D01*
X140943847Y-91732455D02*
X140896228Y-91637217D01*
X140896228Y-91637217D02*
X140848609Y-91446741D01*
X140848609Y-91446741D02*
X140800990Y-91351503D01*
X140800990Y-91351503D02*
X140753371Y-91303884D01*
X140753371Y-91303884D02*
X140658133Y-91256265D01*
X140658133Y-91256265D02*
X140562895Y-91256265D01*
X140562895Y-91256265D02*
X140467657Y-91303884D01*
X140467657Y-91303884D02*
X140420038Y-91351503D01*
X140420038Y-91351503D02*
X140372419Y-91446741D01*
X140372419Y-91446741D02*
X140372419Y-91684836D01*
X140372419Y-91684836D02*
X140420038Y-91827693D01*
X141372419Y-92256265D02*
X140372419Y-92256265D01*
X140372419Y-92256265D02*
X140372419Y-92494360D01*
X140372419Y-92494360D02*
X140420038Y-92637217D01*
X140420038Y-92637217D02*
X140515276Y-92732455D01*
X140515276Y-92732455D02*
X140610514Y-92780074D01*
X140610514Y-92780074D02*
X140800990Y-92827693D01*
X140800990Y-92827693D02*
X140943847Y-92827693D01*
X140943847Y-92827693D02*
X141134323Y-92780074D01*
X141134323Y-92780074D02*
X141229561Y-92732455D01*
X141229561Y-92732455D02*
X141324800Y-92637217D01*
X141324800Y-92637217D02*
X141372419Y-92494360D01*
X141372419Y-92494360D02*
X141372419Y-92256265D01*
X141086704Y-93208646D02*
X141086704Y-93684836D01*
X141372419Y-93113408D02*
X140372419Y-93446741D01*
X140372419Y-93446741D02*
X141372419Y-93780074D01*
X150420038Y-91827693D02*
X150372419Y-91732455D01*
X150372419Y-91732455D02*
X150372419Y-91589598D01*
X150372419Y-91589598D02*
X150420038Y-91446741D01*
X150420038Y-91446741D02*
X150515276Y-91351503D01*
X150515276Y-91351503D02*
X150610514Y-91303884D01*
X150610514Y-91303884D02*
X150800990Y-91256265D01*
X150800990Y-91256265D02*
X150943847Y-91256265D01*
X150943847Y-91256265D02*
X151134323Y-91303884D01*
X151134323Y-91303884D02*
X151229561Y-91351503D01*
X151229561Y-91351503D02*
X151324800Y-91446741D01*
X151324800Y-91446741D02*
X151372419Y-91589598D01*
X151372419Y-91589598D02*
X151372419Y-91684836D01*
X151372419Y-91684836D02*
X151324800Y-91827693D01*
X151324800Y-91827693D02*
X151277180Y-91875312D01*
X151277180Y-91875312D02*
X150943847Y-91875312D01*
X150943847Y-91875312D02*
X150943847Y-91684836D01*
X151372419Y-92303884D02*
X150372419Y-92303884D01*
X150372419Y-92303884D02*
X151372419Y-92875312D01*
X151372419Y-92875312D02*
X150372419Y-92875312D01*
X151372419Y-93351503D02*
X150372419Y-93351503D01*
X150372419Y-93351503D02*
X150372419Y-93589598D01*
X150372419Y-93589598D02*
X150420038Y-93732455D01*
X150420038Y-93732455D02*
X150515276Y-93827693D01*
X150515276Y-93827693D02*
X150610514Y-93875312D01*
X150610514Y-93875312D02*
X150800990Y-93922931D01*
X150800990Y-93922931D02*
X150943847Y-93922931D01*
X150943847Y-93922931D02*
X151134323Y-93875312D01*
X151134323Y-93875312D02*
X151229561Y-93827693D01*
X151229561Y-93827693D02*
X151324800Y-93732455D01*
X151324800Y-93732455D02*
X151372419Y-93589598D01*
X151372419Y-93589598D02*
X151372419Y-93351503D01*
X147920038Y-91827693D02*
X147872419Y-91732455D01*
X147872419Y-91732455D02*
X147872419Y-91589598D01*
X147872419Y-91589598D02*
X147920038Y-91446741D01*
X147920038Y-91446741D02*
X148015276Y-91351503D01*
X148015276Y-91351503D02*
X148110514Y-91303884D01*
X148110514Y-91303884D02*
X148300990Y-91256265D01*
X148300990Y-91256265D02*
X148443847Y-91256265D01*
X148443847Y-91256265D02*
X148634323Y-91303884D01*
X148634323Y-91303884D02*
X148729561Y-91351503D01*
X148729561Y-91351503D02*
X148824800Y-91446741D01*
X148824800Y-91446741D02*
X148872419Y-91589598D01*
X148872419Y-91589598D02*
X148872419Y-91684836D01*
X148872419Y-91684836D02*
X148824800Y-91827693D01*
X148824800Y-91827693D02*
X148777180Y-91875312D01*
X148777180Y-91875312D02*
X148443847Y-91875312D01*
X148443847Y-91875312D02*
X148443847Y-91684836D01*
X148872419Y-92303884D02*
X147872419Y-92303884D01*
X147872419Y-92303884D02*
X148872419Y-92875312D01*
X148872419Y-92875312D02*
X147872419Y-92875312D01*
X148872419Y-93351503D02*
X147872419Y-93351503D01*
X147872419Y-93351503D02*
X147872419Y-93589598D01*
X147872419Y-93589598D02*
X147920038Y-93732455D01*
X147920038Y-93732455D02*
X148015276Y-93827693D01*
X148015276Y-93827693D02*
X148110514Y-93875312D01*
X148110514Y-93875312D02*
X148300990Y-93922931D01*
X148300990Y-93922931D02*
X148443847Y-93922931D01*
X148443847Y-93922931D02*
X148634323Y-93875312D01*
X148634323Y-93875312D02*
X148729561Y-93827693D01*
X148729561Y-93827693D02*
X148824800Y-93732455D01*
X148824800Y-93732455D02*
X148872419Y-93589598D01*
X148872419Y-93589598D02*
X148872419Y-93351503D01*
X142872419Y-91208646D02*
X142872419Y-91827693D01*
X142872419Y-91827693D02*
X143253371Y-91494360D01*
X143253371Y-91494360D02*
X143253371Y-91637217D01*
X143253371Y-91637217D02*
X143300990Y-91732455D01*
X143300990Y-91732455D02*
X143348609Y-91780074D01*
X143348609Y-91780074D02*
X143443847Y-91827693D01*
X143443847Y-91827693D02*
X143681942Y-91827693D01*
X143681942Y-91827693D02*
X143777180Y-91780074D01*
X143777180Y-91780074D02*
X143824800Y-91732455D01*
X143824800Y-91732455D02*
X143872419Y-91637217D01*
X143872419Y-91637217D02*
X143872419Y-91351503D01*
X143872419Y-91351503D02*
X143824800Y-91256265D01*
X143824800Y-91256265D02*
X143777180Y-91208646D01*
X143777180Y-92256265D02*
X143824800Y-92303884D01*
X143824800Y-92303884D02*
X143872419Y-92256265D01*
X143872419Y-92256265D02*
X143824800Y-92208646D01*
X143824800Y-92208646D02*
X143777180Y-92256265D01*
X143777180Y-92256265D02*
X143872419Y-92256265D01*
X142872419Y-92637217D02*
X142872419Y-93256264D01*
X142872419Y-93256264D02*
X143253371Y-92922931D01*
X143253371Y-92922931D02*
X143253371Y-93065788D01*
X143253371Y-93065788D02*
X143300990Y-93161026D01*
X143300990Y-93161026D02*
X143348609Y-93208645D01*
X143348609Y-93208645D02*
X143443847Y-93256264D01*
X143443847Y-93256264D02*
X143681942Y-93256264D01*
X143681942Y-93256264D02*
X143777180Y-93208645D01*
X143777180Y-93208645D02*
X143824800Y-93161026D01*
X143824800Y-93161026D02*
X143872419Y-93065788D01*
X143872419Y-93065788D02*
X143872419Y-92780074D01*
X143872419Y-92780074D02*
X143824800Y-92684836D01*
X143824800Y-92684836D02*
X143777180Y-92637217D01*
X142872419Y-93541979D02*
X143872419Y-93875312D01*
X143872419Y-93875312D02*
X142872419Y-94208645D01*
X145372419Y-91208646D02*
X145372419Y-91827693D01*
X145372419Y-91827693D02*
X145753371Y-91494360D01*
X145753371Y-91494360D02*
X145753371Y-91637217D01*
X145753371Y-91637217D02*
X145800990Y-91732455D01*
X145800990Y-91732455D02*
X145848609Y-91780074D01*
X145848609Y-91780074D02*
X145943847Y-91827693D01*
X145943847Y-91827693D02*
X146181942Y-91827693D01*
X146181942Y-91827693D02*
X146277180Y-91780074D01*
X146277180Y-91780074D02*
X146324800Y-91732455D01*
X146324800Y-91732455D02*
X146372419Y-91637217D01*
X146372419Y-91637217D02*
X146372419Y-91351503D01*
X146372419Y-91351503D02*
X146324800Y-91256265D01*
X146324800Y-91256265D02*
X146277180Y-91208646D01*
X146277180Y-92256265D02*
X146324800Y-92303884D01*
X146324800Y-92303884D02*
X146372419Y-92256265D01*
X146372419Y-92256265D02*
X146324800Y-92208646D01*
X146324800Y-92208646D02*
X146277180Y-92256265D01*
X146277180Y-92256265D02*
X146372419Y-92256265D01*
X145372419Y-92637217D02*
X145372419Y-93256264D01*
X145372419Y-93256264D02*
X145753371Y-92922931D01*
X145753371Y-92922931D02*
X145753371Y-93065788D01*
X145753371Y-93065788D02*
X145800990Y-93161026D01*
X145800990Y-93161026D02*
X145848609Y-93208645D01*
X145848609Y-93208645D02*
X145943847Y-93256264D01*
X145943847Y-93256264D02*
X146181942Y-93256264D01*
X146181942Y-93256264D02*
X146277180Y-93208645D01*
X146277180Y-93208645D02*
X146324800Y-93161026D01*
X146324800Y-93161026D02*
X146372419Y-93065788D01*
X146372419Y-93065788D02*
X146372419Y-92780074D01*
X146372419Y-92780074D02*
X146324800Y-92684836D01*
X146324800Y-92684836D02*
X146277180Y-92637217D01*
X145372419Y-93541979D02*
X146372419Y-93875312D01*
X146372419Y-93875312D02*
X145372419Y-94208645D01*
X147000000Y-50500000D02*
X169500000Y-50500000D01*
X169500000Y-59000000D01*
X147000000Y-59000000D01*
X147000000Y-50500000D01*
G36*
X147000000Y-50500000D02*
G01*
X169500000Y-50500000D01*
X169500000Y-59000000D01*
X147000000Y-59000000D01*
X147000000Y-50500000D01*
G37*
X169196115Y-48872419D02*
X169196115Y-47872419D01*
X169196115Y-47872419D02*
X168815163Y-47872419D01*
X168815163Y-47872419D02*
X168719925Y-47920038D01*
X168719925Y-47920038D02*
X168672306Y-47967657D01*
X168672306Y-47967657D02*
X168624687Y-48062895D01*
X168624687Y-48062895D02*
X168624687Y-48205752D01*
X168624687Y-48205752D02*
X168672306Y-48300990D01*
X168672306Y-48300990D02*
X168719925Y-48348609D01*
X168719925Y-48348609D02*
X168815163Y-48396228D01*
X168815163Y-48396228D02*
X169196115Y-48396228D01*
X168053258Y-48872419D02*
X168148496Y-48824800D01*
X168148496Y-48824800D02*
X168196115Y-48777180D01*
X168196115Y-48777180D02*
X168243734Y-48681942D01*
X168243734Y-48681942D02*
X168243734Y-48396228D01*
X168243734Y-48396228D02*
X168196115Y-48300990D01*
X168196115Y-48300990D02*
X168148496Y-48253371D01*
X168148496Y-48253371D02*
X168053258Y-48205752D01*
X168053258Y-48205752D02*
X167910401Y-48205752D01*
X167910401Y-48205752D02*
X167815163Y-48253371D01*
X167815163Y-48253371D02*
X167767544Y-48300990D01*
X167767544Y-48300990D02*
X167719925Y-48396228D01*
X167719925Y-48396228D02*
X167719925Y-48681942D01*
X167719925Y-48681942D02*
X167767544Y-48777180D01*
X167767544Y-48777180D02*
X167815163Y-48824800D01*
X167815163Y-48824800D02*
X167910401Y-48872419D01*
X167910401Y-48872419D02*
X168053258Y-48872419D01*
X167386591Y-48205752D02*
X167196115Y-48872419D01*
X167196115Y-48872419D02*
X167005639Y-48396228D01*
X167005639Y-48396228D02*
X166815163Y-48872419D01*
X166815163Y-48872419D02*
X166624687Y-48205752D01*
X165862782Y-48824800D02*
X165958020Y-48872419D01*
X165958020Y-48872419D02*
X166148496Y-48872419D01*
X166148496Y-48872419D02*
X166243734Y-48824800D01*
X166243734Y-48824800D02*
X166291353Y-48729561D01*
X166291353Y-48729561D02*
X166291353Y-48348609D01*
X166291353Y-48348609D02*
X166243734Y-48253371D01*
X166243734Y-48253371D02*
X166148496Y-48205752D01*
X166148496Y-48205752D02*
X165958020Y-48205752D01*
X165958020Y-48205752D02*
X165862782Y-48253371D01*
X165862782Y-48253371D02*
X165815163Y-48348609D01*
X165815163Y-48348609D02*
X165815163Y-48443847D01*
X165815163Y-48443847D02*
X166291353Y-48539085D01*
X165386591Y-48872419D02*
X165386591Y-48205752D01*
X165386591Y-48396228D02*
X165338972Y-48300990D01*
X165338972Y-48300990D02*
X165291353Y-48253371D01*
X165291353Y-48253371D02*
X165196115Y-48205752D01*
X165196115Y-48205752D02*
X165100877Y-48205752D01*
X165005639Y-48967657D02*
X164243734Y-48967657D01*
X164005638Y-48872419D02*
X164005638Y-47872419D01*
X164005638Y-47872419D02*
X163672305Y-48586704D01*
X163672305Y-48586704D02*
X163338972Y-47872419D01*
X163338972Y-47872419D02*
X163338972Y-48872419D01*
X162719924Y-48872419D02*
X162815162Y-48824800D01*
X162815162Y-48824800D02*
X162862781Y-48777180D01*
X162862781Y-48777180D02*
X162910400Y-48681942D01*
X162910400Y-48681942D02*
X162910400Y-48396228D01*
X162910400Y-48396228D02*
X162862781Y-48300990D01*
X162862781Y-48300990D02*
X162815162Y-48253371D01*
X162815162Y-48253371D02*
X162719924Y-48205752D01*
X162719924Y-48205752D02*
X162577067Y-48205752D01*
X162577067Y-48205752D02*
X162481829Y-48253371D01*
X162481829Y-48253371D02*
X162434210Y-48300990D01*
X162434210Y-48300990D02*
X162386591Y-48396228D01*
X162386591Y-48396228D02*
X162386591Y-48681942D01*
X162386591Y-48681942D02*
X162434210Y-48777180D01*
X162434210Y-48777180D02*
X162481829Y-48824800D01*
X162481829Y-48824800D02*
X162577067Y-48872419D01*
X162577067Y-48872419D02*
X162719924Y-48872419D01*
X161529448Y-48872419D02*
X161529448Y-47872419D01*
X161529448Y-48824800D02*
X161624686Y-48872419D01*
X161624686Y-48872419D02*
X161815162Y-48872419D01*
X161815162Y-48872419D02*
X161910400Y-48824800D01*
X161910400Y-48824800D02*
X161958019Y-48777180D01*
X161958019Y-48777180D02*
X162005638Y-48681942D01*
X162005638Y-48681942D02*
X162005638Y-48396228D01*
X162005638Y-48396228D02*
X161958019Y-48300990D01*
X161958019Y-48300990D02*
X161910400Y-48253371D01*
X161910400Y-48253371D02*
X161815162Y-48205752D01*
X161815162Y-48205752D02*
X161624686Y-48205752D01*
X161624686Y-48205752D02*
X161529448Y-48253371D01*
X160624686Y-48205752D02*
X160624686Y-48872419D01*
X161053257Y-48205752D02*
X161053257Y-48729561D01*
X161053257Y-48729561D02*
X161005638Y-48824800D01*
X161005638Y-48824800D02*
X160910400Y-48872419D01*
X160910400Y-48872419D02*
X160767543Y-48872419D01*
X160767543Y-48872419D02*
X160672305Y-48824800D01*
X160672305Y-48824800D02*
X160624686Y-48777180D01*
X160005638Y-48872419D02*
X160100876Y-48824800D01*
X160100876Y-48824800D02*
X160148495Y-48729561D01*
X160148495Y-48729561D02*
X160148495Y-47872419D01*
X159243733Y-48824800D02*
X159338971Y-48872419D01*
X159338971Y-48872419D02*
X159529447Y-48872419D01*
X159529447Y-48872419D02*
X159624685Y-48824800D01*
X159624685Y-48824800D02*
X159672304Y-48729561D01*
X159672304Y-48729561D02*
X159672304Y-48348609D01*
X159672304Y-48348609D02*
X159624685Y-48253371D01*
X159624685Y-48253371D02*
X159529447Y-48205752D01*
X159529447Y-48205752D02*
X159338971Y-48205752D01*
X159338971Y-48205752D02*
X159243733Y-48253371D01*
X159243733Y-48253371D02*
X159196114Y-48348609D01*
X159196114Y-48348609D02*
X159196114Y-48443847D01*
X159196114Y-48443847D02*
X159672304Y-48539085D01*
X159005638Y-48967657D02*
X158243733Y-48967657D01*
X158100875Y-48205752D02*
X157862780Y-48872419D01*
X157862780Y-48872419D02*
X157624685Y-48205752D01*
X157053256Y-47872419D02*
X156958018Y-47872419D01*
X156958018Y-47872419D02*
X156862780Y-47920038D01*
X156862780Y-47920038D02*
X156815161Y-47967657D01*
X156815161Y-47967657D02*
X156767542Y-48062895D01*
X156767542Y-48062895D02*
X156719923Y-48253371D01*
X156719923Y-48253371D02*
X156719923Y-48491466D01*
X156719923Y-48491466D02*
X156767542Y-48681942D01*
X156767542Y-48681942D02*
X156815161Y-48777180D01*
X156815161Y-48777180D02*
X156862780Y-48824800D01*
X156862780Y-48824800D02*
X156958018Y-48872419D01*
X156958018Y-48872419D02*
X157053256Y-48872419D01*
X157053256Y-48872419D02*
X157148494Y-48824800D01*
X157148494Y-48824800D02*
X157196113Y-48777180D01*
X157196113Y-48777180D02*
X157243732Y-48681942D01*
X157243732Y-48681942D02*
X157291351Y-48491466D01*
X157291351Y-48491466D02*
X157291351Y-48253371D01*
X157291351Y-48253371D02*
X157243732Y-48062895D01*
X157243732Y-48062895D02*
X157196113Y-47967657D01*
X157196113Y-47967657D02*
X157148494Y-47920038D01*
X157148494Y-47920038D02*
X157053256Y-47872419D01*
X156291351Y-48777180D02*
X156243732Y-48824800D01*
X156243732Y-48824800D02*
X156291351Y-48872419D01*
X156291351Y-48872419D02*
X156338970Y-48824800D01*
X156338970Y-48824800D02*
X156291351Y-48777180D01*
X156291351Y-48777180D02*
X156291351Y-48872419D01*
X155910399Y-47872419D02*
X155291352Y-47872419D01*
X155291352Y-47872419D02*
X155624685Y-48253371D01*
X155624685Y-48253371D02*
X155481828Y-48253371D01*
X155481828Y-48253371D02*
X155386590Y-48300990D01*
X155386590Y-48300990D02*
X155338971Y-48348609D01*
X155338971Y-48348609D02*
X155291352Y-48443847D01*
X155291352Y-48443847D02*
X155291352Y-48681942D01*
X155291352Y-48681942D02*
X155338971Y-48777180D01*
X155338971Y-48777180D02*
X155386590Y-48824800D01*
X155386590Y-48824800D02*
X155481828Y-48872419D01*
X155481828Y-48872419D02*
X155767542Y-48872419D01*
X155767542Y-48872419D02*
X155862780Y-48824800D01*
X155862780Y-48824800D02*
X155910399Y-48777180D01*
M02*
