%TF.GenerationSoftware,KiCad,Pcbnew,10.0.3-10.0.3~ubuntu24.04.1*%
%TF.CreationDate,2026-06-13T21:23:20+02:00*%
%TF.ProjectId,_V0_3-Power_Module,5f56305f-332d-4506-9f77-65725f4d6f64,rev?*%
%TF.SameCoordinates,Original*%
%TF.FileFunction,Copper,L1,Top*%
%TF.FilePolarity,Positive*%
%FSLAX46Y46*%
G04 Gerber Fmt 4.6, Leading zero omitted, Abs format (unit mm)*
G04 Created by KiCad (PCBNEW 10.0.3-10.0.3~ubuntu24.04.1) date 2026-06-13 21:23:20*
%MOMM*%
%LPD*%
G01*
G04 APERTURE LIST*
%TA.AperFunction,ComponentPad*%
%ADD10C,1.700000*%
%TD*%
%TA.AperFunction,ComponentPad*%
%ADD11R,1.700000X1.700000*%
%TD*%
%TA.AperFunction,ViaPad*%
%ADD12C,0.600000*%
%TD*%
%TA.AperFunction,Conductor*%
%ADD13C,2.000000*%
%TD*%
%TA.AperFunction,Conductor*%
%ADD14C,0.250000*%
%TD*%
G04 APERTURE END LIST*
D10*
%TO.P,J6,2,Pin_2_2*%
%TO.N,/BATneg*%
X125650000Y-67360000D03*
D11*
%TO.P,J6,1,Pin_1_1*%
X123110000Y-67360000D03*
%TD*%
D10*
%TO.P,J16,6,Pin_6_6*%
%TO.N,unconnected-(J16-Pin_6-Pad6)*%
X164375000Y-62000000D03*
%TO.P,J16,5,Pin_5_5*%
%TO.N,/Solarpos*%
X161835000Y-62000000D03*
%TO.P,J16,4,Pin_4_4*%
%TO.N,/SDA*%
X159295000Y-62000000D03*
%TO.P,J16,3,Pin_3_3*%
%TO.N,/SCL*%
X156755000Y-62000000D03*
%TO.P,J16,2,Pin_2_2*%
%TO.N,/BATneg*%
X154215000Y-62000000D03*
D11*
%TO.P,J16,1,Pin_1_1*%
%TO.N,/3.3V*%
X151675000Y-62000000D03*
%TD*%
D10*
%TO.P,J17,4,Pin_4_4*%
%TO.N,/Solarpos*%
X135120000Y-89475000D03*
%TO.P,J17,3,Pin_3_3*%
%TO.N,/BATneg*%
X137660000Y-89475000D03*
%TO.P,J17,2,Pin_2_2*%
X140200000Y-89475000D03*
D11*
%TO.P,J17,1,Pin_1_1*%
%TO.N,/BATpos*%
X142740000Y-89475000D03*
%TD*%
D10*
%TO.P,J18,2,Pin_2_2*%
%TO.N,/BATneg*%
X125650000Y-44500000D03*
D11*
%TO.P,J18,1,Pin_1_1*%
X123110000Y-44500000D03*
%TD*%
D10*
%TO.P,J19,2,Pin_2_2*%
%TO.N,/BATpos*%
X138350000Y-67360000D03*
D11*
%TO.P,J19,1,Pin_1_1*%
X135810000Y-67360000D03*
%TD*%
D10*
%TO.P,J20,6,Pin_6_6*%
%TO.N,/SCL*%
X138180000Y-95150000D03*
%TO.P,J20,5,Pin_5_5*%
%TO.N,/SDA*%
X140720000Y-95150000D03*
%TO.P,J20,4,Pin_4_4*%
%TO.N,/3.3V*%
X143260000Y-95150000D03*
%TO.P,J20,3,Pin_3_3*%
X145800000Y-95150000D03*
%TO.P,J20,2,Pin_2_2*%
%TO.N,/BATneg*%
X148340000Y-95150000D03*
D11*
%TO.P,J20,1,Pin_1_1*%
X150880000Y-95150000D03*
%TD*%
D10*
%TO.P,J21,6,Pin_6_6*%
%TO.N,unconnected-(J21-Pin_6-Pad6)*%
X187050000Y-89090000D03*
%TO.P,J21,5,Pin_5_5*%
%TO.N,unconnected-(J21-Pin_5-Pad5)*%
X184510000Y-89090000D03*
%TO.P,J21,4,Pin_4_4*%
%TO.N,/SDA*%
X181970000Y-89090000D03*
%TO.P,J21,3,Pin_3_3*%
%TO.N,/SCL*%
X179430000Y-89090000D03*
%TO.P,J21,2,Pin_2_2*%
%TO.N,/BATneg*%
X176890000Y-89090000D03*
D11*
%TO.P,J21,1,Pin_1_1*%
%TO.N,/3.3V*%
X174350000Y-89090000D03*
%TD*%
D10*
%TO.P,J23,2,Pin_2_2*%
%TO.N,/3.3V*%
X138350000Y-44500000D03*
D11*
%TO.P,J23,1,Pin_1_1*%
X135810000Y-44500000D03*
%TD*%
D10*
%TO.P,MAX17048,2,Pin_2_2*%
%TO.N,/BATneg*%
X181970000Y-80200000D03*
D11*
%TO.P,MAX17048,1,Pin_1_1*%
%TO.N,/BATpos*%
X179430000Y-80200000D03*
%TD*%
D10*
%TO.P,TP4056+1,2,Pin_2_2*%
%TO.N,/BATpos*%
X185580000Y-67000000D03*
D11*
%TO.P,TP4056+1,1,Pin_1_1*%
%TO.N,unconnected-(TP4056+1-Pin_1-Pad1)*%
X188120000Y-67000000D03*
%TD*%
D10*
%TO.P,TP4056-1,2,Pin_2_2*%
%TO.N,unconnected-(TP4056-1-Pin_2-Pad2)*%
X175420000Y-67000000D03*
D11*
%TO.P,TP4056-1,1,Pin_1_1*%
%TO.N,/BATneg*%
X177960000Y-67000000D03*
%TD*%
%TO.P,stabilizer_usb_2,1*%
%TO.N,N/C*%
X188120000Y-44140000D03*
%TD*%
%TO.P,stabilizer_usb_1,1*%
%TO.N,N/C*%
X175420000Y-44140000D03*
%TD*%
D12*
%TO.N,/BATneg*%
X154500000Y-60000000D03*
X184000000Y-96000000D03*
X167500000Y-75500000D03*
X164000000Y-67000000D03*
X147000000Y-43500000D03*
X144000000Y-55500000D03*
X122500000Y-73000000D03*
X182500000Y-56000000D03*
X124000000Y-89000000D03*
X143000000Y-64000000D03*
X191500000Y-72000000D03*
X170000000Y-96500000D03*
X126500000Y-47500000D03*
X185500000Y-44500000D03*
X163000000Y-87000000D03*
X124000000Y-69500000D03*
X185500000Y-64500000D03*
X178000000Y-44500000D03*
X192000000Y-89500000D03*
X180000000Y-83000000D03*
X133500000Y-96000000D03*
X134000000Y-48500000D03*
X156000000Y-68000000D03*
X174500000Y-64500000D03*
X178500000Y-64000000D03*
X130000000Y-44500000D03*
X146000000Y-51500000D03*
X158500000Y-64500000D03*
X122000000Y-47500000D03*
X129000000Y-94000000D03*
X189500000Y-64000000D03*
X126000000Y-64500000D03*
X154000000Y-67500000D03*
X130000000Y-89000000D03*
X175500000Y-77000000D03*
X159000000Y-79500000D03*
X154500000Y-64000000D03*
X134500000Y-97000000D03*
X145500000Y-86000000D03*
X165500000Y-69500000D03*
X149000000Y-66500000D03*
X122000000Y-64500000D03*
X184000000Y-93500000D03*
X184000000Y-72000000D03*
X154500000Y-97000000D03*
X169000000Y-85000000D03*
X138500000Y-76500000D03*
X169000000Y-61500000D03*
X174000000Y-72000000D03*
X169000000Y-43500000D03*
X154500000Y-94500000D03*
X149000000Y-80000000D03*
%TD*%
%TO.N,/BATpos*%
D13*
X142740000Y-89475000D02*
X142740000Y-71750000D01*
X142740000Y-71750000D02*
X138350000Y-67360000D01*
X142740000Y-89475000D02*
X168003300Y-89475000D01*
X179430000Y-80200000D02*
X177278300Y-80200000D01*
X168003300Y-89475000D02*
X177278300Y-80200000D01*
X138350000Y-67360000D02*
X135810000Y-67360000D01*
%TO.N,/3.3V*%
X143260000Y-95150000D02*
X145800000Y-95150000D01*
X138350000Y-44500000D02*
X135810000Y-44500000D01*
%TO.N,/SCL*%
D14*
X141601200Y-91728800D02*
X176791200Y-91728800D01*
X138180000Y-95150000D02*
X141601200Y-91728800D01*
X176791200Y-91728800D02*
X179430000Y-89090000D01*
%TO.N,/SDA*%
X177689000Y-93371000D02*
X181970000Y-89090000D01*
X140720000Y-95150000D02*
X142499000Y-93371000D01*
X142499000Y-93371000D02*
X177689000Y-93371000D01*
%TD*%
%TA.AperFunction,Conductor*%
%TO.N,/BATneg*%
G36*
X147555731Y-94016185D02*
G01*
X147576373Y-94032819D01*
X148210591Y-94667037D01*
X148147007Y-94684075D01*
X148032993Y-94749901D01*
X147939901Y-94842993D01*
X147874075Y-94957007D01*
X147857037Y-95020591D01*
X147224727Y-94388281D01*
X147177205Y-94392022D01*
X147167041Y-94389886D01*
X147156865Y-94391949D01*
X147133437Y-94382827D01*
X147108827Y-94377658D01*
X147099701Y-94369693D01*
X147091756Y-94366600D01*
X147067158Y-94341290D01*
X147031415Y-94292094D01*
X146959697Y-94193383D01*
X146936218Y-94127580D01*
X146952043Y-94059526D01*
X147002149Y-94010831D01*
X147060016Y-93996500D01*
X147488692Y-93996500D01*
X147555731Y-94016185D01*
G37*
%TD.AperFunction*%
%TA.AperFunction,Conductor*%
G36*
X149497997Y-94016185D02*
G01*
X149543752Y-94068989D01*
X149553696Y-94138147D01*
X149547140Y-94163834D01*
X149536402Y-94192622D01*
X149536401Y-94192626D01*
X149527497Y-94275444D01*
X149524434Y-94275114D01*
X149525336Y-94292094D01*
X149492356Y-94351195D01*
X148822962Y-95020590D01*
X148805925Y-94957007D01*
X148740099Y-94842993D01*
X148647007Y-94749901D01*
X148532993Y-94684075D01*
X148469409Y-94667037D01*
X149103626Y-94032819D01*
X149130553Y-94018115D01*
X149156372Y-94001523D01*
X149162572Y-94000631D01*
X149164949Y-93999334D01*
X149191307Y-93996500D01*
X149430958Y-93996500D01*
X149497997Y-94016185D01*
G37*
%TD.AperFunction*%
%TA.AperFunction,Conductor*%
G36*
X193942539Y-42520185D02*
G01*
X193988294Y-42572989D01*
X193999500Y-42624500D01*
X193999500Y-97375500D01*
X193979815Y-97442539D01*
X193927011Y-97488294D01*
X193875500Y-97499500D01*
X119124500Y-97499500D01*
X119057461Y-97479815D01*
X119011706Y-97427011D01*
X119000500Y-97375500D01*
X119000500Y-93878711D01*
X122529500Y-93878711D01*
X122529500Y-94121288D01*
X122561161Y-94361785D01*
X122623947Y-94596104D01*
X122646272Y-94650000D01*
X122716776Y-94820212D01*
X122838064Y-95030289D01*
X122838066Y-95030292D01*
X122838067Y-95030293D01*
X122985733Y-95222736D01*
X122985739Y-95222743D01*
X123157256Y-95394260D01*
X123157263Y-95394266D01*
X123251066Y-95466243D01*
X123349711Y-95541936D01*
X123559788Y-95663224D01*
X123783900Y-95756054D01*
X124018211Y-95818838D01*
X124198586Y-95842584D01*
X124258711Y-95850500D01*
X124258712Y-95850500D01*
X124501289Y-95850500D01*
X124549388Y-95844167D01*
X124741789Y-95818838D01*
X124976100Y-95756054D01*
X125200212Y-95663224D01*
X125410289Y-95541936D01*
X125602738Y-95394265D01*
X125774265Y-95222738D01*
X125921936Y-95030289D01*
X126043224Y-94820212D01*
X126136054Y-94596100D01*
X126198838Y-94361789D01*
X126230500Y-94121288D01*
X126230500Y-93878712D01*
X126224449Y-93832753D01*
X126215221Y-93762657D01*
X126198838Y-93638211D01*
X126136054Y-93403900D01*
X126043224Y-93179788D01*
X125921936Y-92969711D01*
X125774265Y-92777262D01*
X125774260Y-92777256D01*
X125602743Y-92605739D01*
X125602736Y-92605733D01*
X125410293Y-92458067D01*
X125410292Y-92458066D01*
X125410289Y-92458064D01*
X125235473Y-92357134D01*
X125200214Y-92336777D01*
X125200205Y-92336773D01*
X124976104Y-92243947D01*
X124741785Y-92181161D01*
X124501289Y-92149500D01*
X124501288Y-92149500D01*
X124258712Y-92149500D01*
X124258711Y-92149500D01*
X124018214Y-92181161D01*
X123783895Y-92243947D01*
X123559794Y-92336773D01*
X123559785Y-92336777D01*
X123349706Y-92458067D01*
X123157263Y-92605733D01*
X123157256Y-92605739D01*
X122985739Y-92777256D01*
X122985733Y-92777263D01*
X122838067Y-92969706D01*
X122716777Y-93179785D01*
X122716773Y-93179794D01*
X122623947Y-93403895D01*
X122561161Y-93638214D01*
X122529500Y-93878711D01*
X119000500Y-93878711D01*
X119000500Y-89368713D01*
X133769500Y-89368713D01*
X133769500Y-89581286D01*
X133802407Y-89789056D01*
X133802754Y-89791243D01*
X133866644Y-89987876D01*
X133868444Y-89993414D01*
X133964951Y-90182820D01*
X134089890Y-90354786D01*
X134240213Y-90505109D01*
X134412179Y-90630048D01*
X134412181Y-90630049D01*
X134412184Y-90630051D01*
X134601588Y-90726557D01*
X134803757Y-90792246D01*
X135013713Y-90825500D01*
X135013714Y-90825500D01*
X135226286Y-90825500D01*
X135226287Y-90825500D01*
X135436243Y-90792246D01*
X135638412Y-90726557D01*
X135827816Y-90630051D01*
X135914138Y-90567335D01*
X135999786Y-90505109D01*
X135999788Y-90505106D01*
X135999792Y-90505104D01*
X136150104Y-90354792D01*
X136150106Y-90354788D01*
X136150109Y-90354786D01*
X136235890Y-90236717D01*
X136275051Y-90182816D01*
X136279793Y-90173508D01*
X136327763Y-90122711D01*
X136395583Y-90105911D01*
X136461719Y-90128445D01*
X136500763Y-90173500D01*
X136505373Y-90182547D01*
X136544728Y-90236716D01*
X137177037Y-89604408D01*
X137194075Y-89667993D01*
X137259901Y-89782007D01*
X137352993Y-89875099D01*
X137467007Y-89940925D01*
X137530590Y-89957962D01*
X136898282Y-90590269D01*
X136898282Y-90590270D01*
X136952449Y-90629624D01*
X137141782Y-90726095D01*
X137343870Y-90791757D01*
X137553754Y-90825000D01*
X137766246Y-90825000D01*
X137976127Y-90791757D01*
X137976130Y-90791757D01*
X138178217Y-90726095D01*
X138367554Y-90629622D01*
X138421716Y-90590270D01*
X138421717Y-90590270D01*
X137789408Y-89957962D01*
X137852993Y-89940925D01*
X137967007Y-89875099D01*
X138060099Y-89782007D01*
X138125925Y-89667993D01*
X138142962Y-89604408D01*
X138775270Y-90236717D01*
X138775270Y-90236716D01*
X138814622Y-90182554D01*
X138819514Y-90172954D01*
X138867488Y-90122157D01*
X138935308Y-90105361D01*
X139001444Y-90127897D01*
X139040486Y-90172954D01*
X139045375Y-90182550D01*
X139084728Y-90236716D01*
X139717037Y-89604408D01*
X139734075Y-89667993D01*
X139799901Y-89782007D01*
X139892993Y-89875099D01*
X140007007Y-89940925D01*
X140070590Y-89957962D01*
X139438282Y-90590269D01*
X139438282Y-90590270D01*
X139492449Y-90629624D01*
X139681782Y-90726095D01*
X139883870Y-90791757D01*
X140093754Y-90825000D01*
X140306246Y-90825000D01*
X140516127Y-90791757D01*
X140516130Y-90791757D01*
X140718217Y-90726095D01*
X140907554Y-90629622D01*
X140961716Y-90590270D01*
X140961717Y-90590270D01*
X140329408Y-89957962D01*
X140392993Y-89940925D01*
X140507007Y-89875099D01*
X140600099Y-89782007D01*
X140665925Y-89667993D01*
X140682962Y-89604408D01*
X141353181Y-90274628D01*
X141386666Y-90335951D01*
X141389500Y-90362300D01*
X141389500Y-90372865D01*
X141389501Y-90372876D01*
X141395908Y-90432483D01*
X141446202Y-90567328D01*
X141446206Y-90567335D01*
X141532452Y-90682544D01*
X141532455Y-90682547D01*
X141647664Y-90768793D01*
X141647671Y-90768797D01*
X141692618Y-90785561D01*
X141782517Y-90819091D01*
X141842127Y-90825500D01*
X142055598Y-90825499D01*
X142068426Y-90828557D01*
X142078094Y-90827556D01*
X142110945Y-90838692D01*
X142111538Y-90838834D01*
X142111806Y-90838969D01*
X142164008Y-90865568D01*
X142165179Y-90865948D01*
X142170494Y-90868635D01*
X142192702Y-90889474D01*
X142216412Y-90908582D01*
X142217932Y-90913149D01*
X142221444Y-90916445D01*
X142228860Y-90945985D01*
X142238476Y-90974876D01*
X142237285Y-90979541D01*
X142238458Y-90984212D01*
X142228727Y-91013070D01*
X142221196Y-91042575D01*
X142217671Y-91045856D01*
X142216133Y-91050419D01*
X142192349Y-91069431D01*
X142170058Y-91090185D01*
X142164847Y-91091416D01*
X142161558Y-91094046D01*
X142147601Y-91095491D01*
X142114555Y-91103300D01*
X141539588Y-91103300D01*
X141418755Y-91127335D01*
X141418747Y-91127337D01*
X141304916Y-91174487D01*
X141202465Y-91242942D01*
X138637837Y-93807570D01*
X138576514Y-93841055D01*
X138511842Y-93837821D01*
X138496246Y-93832754D01*
X138337239Y-93807570D01*
X138286287Y-93799500D01*
X138073713Y-93799500D01*
X138025042Y-93807208D01*
X137863760Y-93832753D01*
X137863757Y-93832754D01*
X137722314Y-93878712D01*
X137661585Y-93898444D01*
X137472179Y-93994951D01*
X137300213Y-94119890D01*
X137149890Y-94270213D01*
X137024951Y-94442179D01*
X136928444Y-94631585D01*
X136862753Y-94833760D01*
X136861291Y-94842993D01*
X136829500Y-95043713D01*
X136829500Y-95256287D01*
X136862754Y-95466243D01*
X136926757Y-95663224D01*
X136928444Y-95668414D01*
X137024951Y-95857820D01*
X137149890Y-96029786D01*
X137300213Y-96180109D01*
X137472179Y-96305048D01*
X137472181Y-96305049D01*
X137472184Y-96305051D01*
X137661588Y-96401557D01*
X137863757Y-96467246D01*
X138073713Y-96500500D01*
X138073714Y-96500500D01*
X138286286Y-96500500D01*
X138286287Y-96500500D01*
X138496243Y-96467246D01*
X138698412Y-96401557D01*
X138887816Y-96305051D01*
X138974471Y-96242093D01*
X139059786Y-96180109D01*
X139059788Y-96180106D01*
X139059792Y-96180104D01*
X139210104Y-96029792D01*
X139210106Y-96029788D01*
X139210109Y-96029786D01*
X139335048Y-95857820D01*
X139335047Y-95857820D01*
X139335051Y-95857816D01*
X139339514Y-95849054D01*
X139387488Y-95798259D01*
X139455308Y-95781463D01*
X139521444Y-95803999D01*
X139560484Y-95849054D01*
X139564591Y-95857115D01*
X139564951Y-95857820D01*
X139689890Y-96029786D01*
X139840213Y-96180109D01*
X140012179Y-96305048D01*
X140012181Y-96305049D01*
X140012184Y-96305051D01*
X140201588Y-96401557D01*
X140403757Y-96467246D01*
X140613713Y-96500500D01*
X140613714Y-96500500D01*
X140826286Y-96500500D01*
X140826287Y-96500500D01*
X141036243Y-96467246D01*
X141238412Y-96401557D01*
X141427816Y-96305051D01*
X141514471Y-96242093D01*
X141599786Y-96180109D01*
X141599788Y-96180106D01*
X141599792Y-96180104D01*
X141750104Y-96029792D01*
X141796976Y-95965278D01*
X141852306Y-95922611D01*
X141921919Y-95916632D01*
X141983714Y-95949237D01*
X141997611Y-95965274D01*
X142115483Y-96127510D01*
X142282490Y-96294517D01*
X142473567Y-96433343D01*
X142572991Y-96484002D01*
X142684003Y-96540566D01*
X142684005Y-96540566D01*
X142684008Y-96540568D01*
X142804412Y-96579689D01*
X142908631Y-96613553D01*
X143141903Y-96650500D01*
X143141908Y-96650500D01*
X145918097Y-96650500D01*
X146151368Y-96613553D01*
X146375992Y-96540568D01*
X146586433Y-96433343D01*
X146777510Y-96294517D01*
X146944517Y-96127510D01*
X147067526Y-95958203D01*
X147067838Y-95957782D01*
X147095264Y-95937035D01*
X147122488Y-95916043D01*
X147123144Y-95915946D01*
X147123561Y-95915631D01*
X147127142Y-95915356D01*
X147177206Y-95907976D01*
X147224728Y-95911716D01*
X147857037Y-95279408D01*
X147874075Y-95342993D01*
X147939901Y-95457007D01*
X148032993Y-95550099D01*
X148147007Y-95615925D01*
X148210590Y-95632962D01*
X147578282Y-96265269D01*
X147578282Y-96265270D01*
X147632449Y-96304624D01*
X147821782Y-96401095D01*
X148023870Y-96466757D01*
X148233754Y-96500000D01*
X148446246Y-96500000D01*
X148656127Y-96466757D01*
X148656130Y-96466757D01*
X148858217Y-96401095D01*
X149047554Y-96304622D01*
X149101716Y-96265270D01*
X149101717Y-96265270D01*
X148469408Y-95632962D01*
X148532993Y-95615925D01*
X148647007Y-95550099D01*
X148740099Y-95457007D01*
X148805925Y-95342993D01*
X148822962Y-95279408D01*
X149492356Y-95948803D01*
X149525841Y-96010126D01*
X149524926Y-96024831D01*
X149527497Y-96024555D01*
X149536401Y-96107373D01*
X149536403Y-96107380D01*
X149586645Y-96242086D01*
X149586649Y-96242093D01*
X149672809Y-96357187D01*
X149672812Y-96357190D01*
X149787906Y-96443350D01*
X149787913Y-96443354D01*
X149922620Y-96493596D01*
X149922627Y-96493598D01*
X149982155Y-96499999D01*
X149982172Y-96500000D01*
X150630000Y-96500000D01*
X150630000Y-95583012D01*
X150687007Y-95615925D01*
X150814174Y-95650000D01*
X150945826Y-95650000D01*
X151072993Y-95615925D01*
X151130000Y-95583012D01*
X151130000Y-96500000D01*
X151777828Y-96500000D01*
X151777844Y-96499999D01*
X151837372Y-96493598D01*
X151837379Y-96493596D01*
X151972086Y-96443354D01*
X151972093Y-96443350D01*
X152087187Y-96357190D01*
X152087190Y-96357187D01*
X152173350Y-96242093D01*
X152173354Y-96242086D01*
X152223596Y-96107379D01*
X152223598Y-96107372D01*
X152229999Y-96047844D01*
X152230000Y-96047827D01*
X152230000Y-95400000D01*
X151313012Y-95400000D01*
X151345925Y-95342993D01*
X151380000Y-95215826D01*
X151380000Y-95084174D01*
X151345925Y-94957007D01*
X151313012Y-94900000D01*
X152230000Y-94900000D01*
X152230000Y-94252172D01*
X152229999Y-94252155D01*
X152223598Y-94192627D01*
X152223596Y-94192619D01*
X152212860Y-94163833D01*
X152207876Y-94094141D01*
X152241361Y-94032818D01*
X152302685Y-93999334D01*
X152329042Y-93996500D01*
X177750607Y-93996500D01*
X177811029Y-93984481D01*
X177871452Y-93972463D01*
X177904792Y-93958652D01*
X177985286Y-93925312D01*
X178055026Y-93878712D01*
X178055027Y-93878711D01*
X188569500Y-93878711D01*
X188569500Y-94121288D01*
X188601161Y-94361785D01*
X188663947Y-94596104D01*
X188686272Y-94650000D01*
X188756776Y-94820212D01*
X188878064Y-95030289D01*
X188878066Y-95030292D01*
X188878067Y-95030293D01*
X189025733Y-95222736D01*
X189025739Y-95222743D01*
X189197256Y-95394260D01*
X189197263Y-95394266D01*
X189291066Y-95466243D01*
X189389711Y-95541936D01*
X189599788Y-95663224D01*
X189823900Y-95756054D01*
X190058211Y-95818838D01*
X190238586Y-95842584D01*
X190298711Y-95850500D01*
X190298712Y-95850500D01*
X190541289Y-95850500D01*
X190589388Y-95844167D01*
X190781789Y-95818838D01*
X191016100Y-95756054D01*
X191240212Y-95663224D01*
X191450289Y-95541936D01*
X191642738Y-95394265D01*
X191814265Y-95222738D01*
X191961936Y-95030289D01*
X192083224Y-94820212D01*
X192176054Y-94596100D01*
X192238838Y-94361789D01*
X192270500Y-94121288D01*
X192270500Y-93878712D01*
X192264449Y-93832753D01*
X192255221Y-93762657D01*
X192238838Y-93638211D01*
X192176054Y-93403900D01*
X192083224Y-93179788D01*
X191961936Y-92969711D01*
X191814265Y-92777262D01*
X191814260Y-92777256D01*
X191642743Y-92605739D01*
X191642736Y-92605733D01*
X191450293Y-92458067D01*
X191450292Y-92458066D01*
X191450289Y-92458064D01*
X191275473Y-92357134D01*
X191240214Y-92336777D01*
X191240205Y-92336773D01*
X191016104Y-92243947D01*
X190781785Y-92181161D01*
X190541289Y-92149500D01*
X190541288Y-92149500D01*
X190298712Y-92149500D01*
X190298711Y-92149500D01*
X190058214Y-92181161D01*
X189823895Y-92243947D01*
X189599794Y-92336773D01*
X189599785Y-92336777D01*
X189389706Y-92458067D01*
X189197263Y-92605733D01*
X189197256Y-92605739D01*
X189025739Y-92777256D01*
X189025733Y-92777263D01*
X188878067Y-92969706D01*
X188756777Y-93179785D01*
X188756773Y-93179794D01*
X188663947Y-93403895D01*
X188601161Y-93638214D01*
X188569500Y-93878711D01*
X178055027Y-93878711D01*
X178087733Y-93856858D01*
X178174858Y-93769733D01*
X178174859Y-93769731D01*
X178181919Y-93762671D01*
X178181925Y-93762664D01*
X181512162Y-90432426D01*
X181573483Y-90398943D01*
X181638162Y-90402179D01*
X181653757Y-90407246D01*
X181863713Y-90440500D01*
X181863714Y-90440500D01*
X182076286Y-90440500D01*
X182076287Y-90440500D01*
X182286243Y-90407246D01*
X182488412Y-90341557D01*
X182677816Y-90245051D01*
X182732572Y-90205269D01*
X182849786Y-90120109D01*
X182849788Y-90120106D01*
X182849792Y-90120104D01*
X183000104Y-89969792D01*
X183000106Y-89969788D01*
X183000109Y-89969786D01*
X183125048Y-89797820D01*
X183125047Y-89797820D01*
X183125051Y-89797816D01*
X183129514Y-89789054D01*
X183177488Y-89738259D01*
X183245308Y-89721463D01*
X183311444Y-89743999D01*
X183350486Y-89789056D01*
X183354951Y-89797820D01*
X183479890Y-89969786D01*
X183630213Y-90120109D01*
X183802179Y-90245048D01*
X183802181Y-90245049D01*
X183802184Y-90245051D01*
X183991588Y-90341557D01*
X184193757Y-90407246D01*
X184403713Y-90440500D01*
X184403714Y-90440500D01*
X184616286Y-90440500D01*
X184616287Y-90440500D01*
X184826243Y-90407246D01*
X185028412Y-90341557D01*
X185217816Y-90245051D01*
X185272572Y-90205269D01*
X185389786Y-90120109D01*
X185389788Y-90120106D01*
X185389792Y-90120104D01*
X185540104Y-89969792D01*
X185540106Y-89969788D01*
X185540109Y-89969786D01*
X185665048Y-89797820D01*
X185665047Y-89797820D01*
X185665051Y-89797816D01*
X185669514Y-89789054D01*
X185717488Y-89738259D01*
X185785308Y-89721463D01*
X185851444Y-89743999D01*
X185890486Y-89789056D01*
X185894951Y-89797820D01*
X186019890Y-89969786D01*
X186170213Y-90120109D01*
X186342179Y-90245048D01*
X186342181Y-90245049D01*
X186342184Y-90245051D01*
X186531588Y-90341557D01*
X186733757Y-90407246D01*
X186943713Y-90440500D01*
X186943714Y-90440500D01*
X187156286Y-90440500D01*
X187156287Y-90440500D01*
X187366243Y-90407246D01*
X187568412Y-90341557D01*
X187757816Y-90245051D01*
X187812572Y-90205269D01*
X187929786Y-90120109D01*
X187929788Y-90120106D01*
X187929792Y-90120104D01*
X188080104Y-89969792D01*
X188080106Y-89969788D01*
X188080109Y-89969786D01*
X188205048Y-89797820D01*
X188205047Y-89797820D01*
X188205051Y-89797816D01*
X188301557Y-89608412D01*
X188367246Y-89406243D01*
X188400500Y-89196287D01*
X188400500Y-88983713D01*
X188367246Y-88773757D01*
X188301557Y-88571588D01*
X188205051Y-88382184D01*
X188205049Y-88382181D01*
X188205048Y-88382179D01*
X188080109Y-88210213D01*
X187929786Y-88059890D01*
X187757820Y-87934951D01*
X187568414Y-87838444D01*
X187568413Y-87838443D01*
X187568412Y-87838443D01*
X187366243Y-87772754D01*
X187366241Y-87772753D01*
X187366240Y-87772753D01*
X187204957Y-87747208D01*
X187156287Y-87739500D01*
X186943713Y-87739500D01*
X186895042Y-87747208D01*
X186733760Y-87772753D01*
X186531585Y-87838444D01*
X186342179Y-87934951D01*
X186170213Y-88059890D01*
X186019890Y-88210213D01*
X185894949Y-88382182D01*
X185890484Y-88390946D01*
X185842509Y-88441742D01*
X185774688Y-88458536D01*
X185708553Y-88435998D01*
X185669516Y-88390946D01*
X185665050Y-88382182D01*
X185540109Y-88210213D01*
X185389786Y-88059890D01*
X185217820Y-87934951D01*
X185028414Y-87838444D01*
X185028413Y-87838443D01*
X185028412Y-87838443D01*
X184826243Y-87772754D01*
X184826241Y-87772753D01*
X184826240Y-87772753D01*
X184664957Y-87747208D01*
X184616287Y-87739500D01*
X184403713Y-87739500D01*
X184355042Y-87747208D01*
X184193760Y-87772753D01*
X183991585Y-87838444D01*
X183802179Y-87934951D01*
X183630213Y-88059890D01*
X183479890Y-88210213D01*
X183354949Y-88382182D01*
X183350484Y-88390946D01*
X183302509Y-88441742D01*
X183234688Y-88458536D01*
X183168553Y-88435998D01*
X183129516Y-88390946D01*
X183125050Y-88382182D01*
X183000109Y-88210213D01*
X182849786Y-88059890D01*
X182677820Y-87934951D01*
X182488414Y-87838444D01*
X182488413Y-87838443D01*
X182488412Y-87838443D01*
X182286243Y-87772754D01*
X182286241Y-87772753D01*
X182286240Y-87772753D01*
X182124957Y-87747208D01*
X182076287Y-87739500D01*
X181863713Y-87739500D01*
X181815042Y-87747208D01*
X181653760Y-87772753D01*
X181451585Y-87838444D01*
X181262179Y-87934951D01*
X181090213Y-88059890D01*
X180939890Y-88210213D01*
X180814949Y-88382182D01*
X180810484Y-88390946D01*
X180762509Y-88441742D01*
X180694688Y-88458536D01*
X180628553Y-88435998D01*
X180589516Y-88390946D01*
X180585050Y-88382182D01*
X180460109Y-88210213D01*
X180309786Y-88059890D01*
X180137820Y-87934951D01*
X179948414Y-87838444D01*
X179948413Y-87838443D01*
X179948412Y-87838443D01*
X179746243Y-87772754D01*
X179746241Y-87772753D01*
X179746240Y-87772753D01*
X179584957Y-87747208D01*
X179536287Y-87739500D01*
X179323713Y-87739500D01*
X179275042Y-87747208D01*
X179113760Y-87772753D01*
X178911585Y-87838444D01*
X178722179Y-87934951D01*
X178550213Y-88059890D01*
X178399890Y-88210213D01*
X178274949Y-88382182D01*
X178270202Y-88391499D01*
X178222227Y-88442293D01*
X178154405Y-88459087D01*
X178088271Y-88436548D01*
X178049234Y-88391495D01*
X178044626Y-88382452D01*
X178005270Y-88328282D01*
X178005269Y-88328282D01*
X177372962Y-88960590D01*
X177355925Y-88897007D01*
X177290099Y-88782993D01*
X177197007Y-88689901D01*
X177082993Y-88624075D01*
X177019409Y-88607037D01*
X177651716Y-87974728D01*
X177597550Y-87935375D01*
X177408217Y-87838904D01*
X177206129Y-87773242D01*
X176996246Y-87740000D01*
X176783754Y-87740000D01*
X176573872Y-87773242D01*
X176573869Y-87773242D01*
X176371782Y-87838904D01*
X176182439Y-87935380D01*
X176128282Y-87974727D01*
X176128282Y-87974728D01*
X176760591Y-88607037D01*
X176697007Y-88624075D01*
X176582993Y-88689901D01*
X176489901Y-88782993D01*
X176424075Y-88897007D01*
X176407037Y-88960591D01*
X175736818Y-88290372D01*
X175703333Y-88229049D01*
X175703330Y-88229036D01*
X175700499Y-88216015D01*
X175700499Y-88192128D01*
X175694091Y-88132517D01*
X175665926Y-88057002D01*
X175643798Y-87997673D01*
X175643793Y-87997664D01*
X175557547Y-87882455D01*
X175557544Y-87882452D01*
X175442335Y-87796206D01*
X175442328Y-87796202D01*
X175307482Y-87745908D01*
X175307483Y-87745908D01*
X175247883Y-87739501D01*
X175247881Y-87739500D01*
X175247873Y-87739500D01*
X175247864Y-87739500D01*
X173452129Y-87739500D01*
X173452123Y-87739501D01*
X173392516Y-87745908D01*
X173257671Y-87796202D01*
X173257664Y-87796206D01*
X173142455Y-87882452D01*
X173142452Y-87882455D01*
X173056206Y-87997664D01*
X173056202Y-87997671D01*
X173005908Y-88132517D01*
X172999501Y-88192116D01*
X172999500Y-88192135D01*
X172999500Y-89987870D01*
X172999501Y-89987876D01*
X173005908Y-90047483D01*
X173056202Y-90182328D01*
X173056206Y-90182335D01*
X173142452Y-90297544D01*
X173142455Y-90297547D01*
X173257664Y-90383793D01*
X173257671Y-90383797D01*
X173392517Y-90434091D01*
X173392516Y-90434091D01*
X173399444Y-90434835D01*
X173452127Y-90440500D01*
X175247872Y-90440499D01*
X175307483Y-90434091D01*
X175442331Y-90383796D01*
X175557546Y-90297546D01*
X175643796Y-90182331D01*
X175694091Y-90047483D01*
X175700500Y-89987873D01*
X175700499Y-89977312D01*
X175720179Y-89910275D01*
X175736818Y-89889626D01*
X176407037Y-89219408D01*
X176424075Y-89282993D01*
X176489901Y-89397007D01*
X176582993Y-89490099D01*
X176697007Y-89555925D01*
X176760590Y-89572962D01*
X176128282Y-90205269D01*
X176128282Y-90205270D01*
X176182449Y-90244624D01*
X176371782Y-90341095D01*
X176573870Y-90406757D01*
X176783754Y-90440000D01*
X176896047Y-90440000D01*
X176963086Y-90459685D01*
X177008841Y-90512489D01*
X177018785Y-90581647D01*
X176989760Y-90645203D01*
X176983728Y-90651681D01*
X176568429Y-91066981D01*
X176507106Y-91100466D01*
X176480748Y-91103300D01*
X168628747Y-91103300D01*
X168561708Y-91083615D01*
X168515953Y-91030811D01*
X168506009Y-90961653D01*
X168535034Y-90898097D01*
X168575522Y-90868902D01*
X168574951Y-90867780D01*
X168604809Y-90852566D01*
X168789734Y-90758343D01*
X168980810Y-90619517D01*
X177863509Y-81736819D01*
X177924832Y-81703334D01*
X177951190Y-81700500D01*
X179548097Y-81700500D01*
X179781368Y-81663553D01*
X180005992Y-81590568D01*
X180058107Y-81564014D01*
X180114401Y-81550499D01*
X180327871Y-81550499D01*
X180327872Y-81550499D01*
X180387483Y-81544091D01*
X180522331Y-81493796D01*
X180637546Y-81407546D01*
X180723796Y-81292331D01*
X180774091Y-81157483D01*
X180780500Y-81097873D01*
X180780499Y-81073979D01*
X180783330Y-81060963D01*
X180793940Y-81041525D01*
X180800179Y-81020275D01*
X180816803Y-80999643D01*
X180816808Y-80999636D01*
X180816811Y-80999634D01*
X180816818Y-80999626D01*
X181487037Y-80329408D01*
X181504075Y-80392993D01*
X181569901Y-80507007D01*
X181662993Y-80600099D01*
X181777007Y-80665925D01*
X181840590Y-80682962D01*
X181208282Y-81315269D01*
X181208282Y-81315270D01*
X181262449Y-81354624D01*
X181451782Y-81451095D01*
X181653870Y-81516757D01*
X181863754Y-81550000D01*
X182076246Y-81550000D01*
X182286127Y-81516757D01*
X182286130Y-81516757D01*
X182488217Y-81451095D01*
X182677554Y-81354622D01*
X182731716Y-81315270D01*
X182731717Y-81315270D01*
X182099408Y-80682962D01*
X182162993Y-80665925D01*
X182277007Y-80600099D01*
X182370099Y-80507007D01*
X182435925Y-80392993D01*
X182452962Y-80329409D01*
X183085270Y-80961717D01*
X183085270Y-80961716D01*
X183124622Y-80907554D01*
X183221095Y-80718217D01*
X183286757Y-80516130D01*
X183286757Y-80516127D01*
X183320000Y-80306246D01*
X183320000Y-80093753D01*
X183286757Y-79883872D01*
X183286757Y-79883869D01*
X183221095Y-79681782D01*
X183124624Y-79492449D01*
X183085270Y-79438282D01*
X183085269Y-79438282D01*
X182452962Y-80070590D01*
X182435925Y-80007007D01*
X182370099Y-79892993D01*
X182277007Y-79799901D01*
X182162993Y-79734075D01*
X182099409Y-79717037D01*
X182731716Y-79084728D01*
X182677550Y-79045375D01*
X182488217Y-78948904D01*
X182286129Y-78883242D01*
X182076246Y-78850000D01*
X181863754Y-78850000D01*
X181653872Y-78883242D01*
X181653869Y-78883242D01*
X181451782Y-78948904D01*
X181262439Y-79045380D01*
X181208282Y-79084727D01*
X181208282Y-79084728D01*
X181840591Y-79717037D01*
X181777007Y-79734075D01*
X181662993Y-79799901D01*
X181569901Y-79892993D01*
X181504075Y-80007007D01*
X181487037Y-80070591D01*
X180816818Y-79400372D01*
X180783333Y-79339049D01*
X180783330Y-79339036D01*
X180780499Y-79326015D01*
X180780499Y-79302128D01*
X180774091Y-79242517D01*
X180745926Y-79167002D01*
X180723798Y-79107673D01*
X180723793Y-79107664D01*
X180637547Y-78992455D01*
X180637544Y-78992452D01*
X180522335Y-78906206D01*
X180522328Y-78906202D01*
X180387482Y-78855908D01*
X180387483Y-78855908D01*
X180327883Y-78849501D01*
X180327881Y-78849500D01*
X180327873Y-78849500D01*
X180327865Y-78849500D01*
X180114400Y-78849500D01*
X180058105Y-78835985D01*
X180005996Y-78809433D01*
X179781368Y-78736446D01*
X179548097Y-78699500D01*
X179548092Y-78699500D01*
X177396392Y-78699500D01*
X177160208Y-78699500D01*
X177160203Y-78699500D01*
X176926931Y-78736446D01*
X176702303Y-78809433D01*
X176491863Y-78916659D01*
X176300796Y-79055476D01*
X176300791Y-79055480D01*
X167418092Y-87938181D01*
X167356769Y-87971666D01*
X167330411Y-87974500D01*
X144364500Y-87974500D01*
X144297461Y-87954815D01*
X144251706Y-87902011D01*
X144240500Y-87850500D01*
X144240500Y-71631902D01*
X144203553Y-71398631D01*
X144130566Y-71174003D01*
X144091666Y-71097659D01*
X144023343Y-70963567D01*
X144005606Y-70939155D01*
X143884523Y-70772496D01*
X143884519Y-70772491D01*
X141674362Y-68562334D01*
X141590739Y-68478711D01*
X142849500Y-68478711D01*
X142849500Y-68721288D01*
X142881161Y-68961785D01*
X142943947Y-69196104D01*
X143036773Y-69420205D01*
X143036776Y-69420212D01*
X143158064Y-69630289D01*
X143158066Y-69630292D01*
X143158067Y-69630293D01*
X143305733Y-69822736D01*
X143305739Y-69822743D01*
X143477256Y-69994260D01*
X143477262Y-69994265D01*
X143669711Y-70141936D01*
X143879788Y-70263224D01*
X144103900Y-70356054D01*
X144338211Y-70418838D01*
X144518586Y-70442584D01*
X144578711Y-70450500D01*
X144578712Y-70450500D01*
X144821289Y-70450500D01*
X144869388Y-70444167D01*
X145061789Y-70418838D01*
X145296100Y-70356054D01*
X145520212Y-70263224D01*
X145730289Y-70141936D01*
X145922738Y-69994265D01*
X146094265Y-69822738D01*
X146241936Y-69630289D01*
X146363224Y-69420212D01*
X146456054Y-69196100D01*
X146518838Y-68961789D01*
X146550500Y-68721288D01*
X146550500Y-68478712D01*
X146550500Y-68478711D01*
X168249500Y-68478711D01*
X168249500Y-68721288D01*
X168281161Y-68961785D01*
X168343947Y-69196104D01*
X168436773Y-69420205D01*
X168436776Y-69420212D01*
X168558064Y-69630289D01*
X168558066Y-69630292D01*
X168558067Y-69630293D01*
X168705733Y-69822736D01*
X168705739Y-69822743D01*
X168877256Y-69994260D01*
X168877262Y-69994265D01*
X169069711Y-70141936D01*
X169279788Y-70263224D01*
X169503900Y-70356054D01*
X169738211Y-70418838D01*
X169918586Y-70442584D01*
X169978711Y-70450500D01*
X169978712Y-70450500D01*
X170221289Y-70450500D01*
X170269388Y-70444167D01*
X170461789Y-70418838D01*
X170696100Y-70356054D01*
X170920212Y-70263224D01*
X171130289Y-70141936D01*
X171322738Y-69994265D01*
X171494265Y-69822738D01*
X171641936Y-69630289D01*
X171763224Y-69420212D01*
X171856054Y-69196100D01*
X171918838Y-68961789D01*
X171950500Y-68721288D01*
X171950500Y-68478712D01*
X171947027Y-68452335D01*
X171942584Y-68418586D01*
X171918838Y-68238211D01*
X171856054Y-68003900D01*
X171763224Y-67779788D01*
X171641936Y-67569711D01*
X171562298Y-67465925D01*
X171494266Y-67377263D01*
X171494260Y-67377256D01*
X171322743Y-67205739D01*
X171322736Y-67205733D01*
X171130293Y-67058067D01*
X171130292Y-67058066D01*
X171130289Y-67058064D01*
X170920212Y-66936776D01*
X170913930Y-66934174D01*
X170816249Y-66893713D01*
X174069500Y-66893713D01*
X174069500Y-67106286D01*
X174099258Y-67294174D01*
X174102754Y-67316243D01*
X174155342Y-67478092D01*
X174168444Y-67518414D01*
X174264951Y-67707820D01*
X174389890Y-67879786D01*
X174540213Y-68030109D01*
X174712179Y-68155048D01*
X174712181Y-68155049D01*
X174712184Y-68155051D01*
X174901588Y-68251557D01*
X175103757Y-68317246D01*
X175313713Y-68350500D01*
X175313714Y-68350500D01*
X175526286Y-68350500D01*
X175526287Y-68350500D01*
X175736243Y-68317246D01*
X175938412Y-68251557D01*
X176127816Y-68155051D01*
X176214478Y-68092088D01*
X176299784Y-68030110D01*
X176299784Y-68030109D01*
X176299792Y-68030104D01*
X176413717Y-67916178D01*
X176475036Y-67882696D01*
X176544728Y-67887680D01*
X176600662Y-67929551D01*
X176617577Y-67960528D01*
X176666646Y-68092088D01*
X176666649Y-68092093D01*
X176752809Y-68207187D01*
X176752812Y-68207190D01*
X176867906Y-68293350D01*
X176867913Y-68293354D01*
X177002620Y-68343596D01*
X177002627Y-68343598D01*
X177062155Y-68349999D01*
X177062172Y-68350000D01*
X177710000Y-68350000D01*
X177710000Y-67433012D01*
X177767007Y-67465925D01*
X177894174Y-67500000D01*
X178025826Y-67500000D01*
X178152993Y-67465925D01*
X178210000Y-67433012D01*
X178210000Y-68350000D01*
X178857828Y-68350000D01*
X178857844Y-68349999D01*
X178917372Y-68343598D01*
X178917379Y-68343596D01*
X179052086Y-68293354D01*
X179052093Y-68293350D01*
X179167187Y-68207190D01*
X179167190Y-68207187D01*
X179253350Y-68092093D01*
X179253354Y-68092086D01*
X179303596Y-67957379D01*
X179303598Y-67957372D01*
X179309999Y-67897844D01*
X179310000Y-67897827D01*
X179310000Y-67250000D01*
X178393012Y-67250000D01*
X178425925Y-67192993D01*
X178460000Y-67065826D01*
X178460000Y-66934174D01*
X178449158Y-66893713D01*
X184229500Y-66893713D01*
X184229500Y-67106286D01*
X184259258Y-67294174D01*
X184262754Y-67316243D01*
X184315342Y-67478092D01*
X184328444Y-67518414D01*
X184424951Y-67707820D01*
X184549890Y-67879786D01*
X184700213Y-68030109D01*
X184872179Y-68155048D01*
X184872181Y-68155049D01*
X184872184Y-68155051D01*
X185061588Y-68251557D01*
X185263757Y-68317246D01*
X185473713Y-68350500D01*
X185473714Y-68350500D01*
X185686286Y-68350500D01*
X185686287Y-68350500D01*
X185896243Y-68317246D01*
X186098412Y-68251557D01*
X186287816Y-68155051D01*
X186374478Y-68092088D01*
X186459784Y-68030110D01*
X186459784Y-68030109D01*
X186459792Y-68030104D01*
X186573329Y-67916566D01*
X186634648Y-67883084D01*
X186704340Y-67888068D01*
X186760274Y-67929939D01*
X186777189Y-67960917D01*
X186826202Y-68092328D01*
X186826206Y-68092335D01*
X186912452Y-68207544D01*
X186912455Y-68207547D01*
X187027664Y-68293793D01*
X187027671Y-68293797D01*
X187162517Y-68344091D01*
X187162516Y-68344091D01*
X187169444Y-68344835D01*
X187222127Y-68350500D01*
X189017872Y-68350499D01*
X189077483Y-68344091D01*
X189212331Y-68293796D01*
X189327546Y-68207546D01*
X189413796Y-68092331D01*
X189464091Y-67957483D01*
X189470500Y-67897873D01*
X189470499Y-66102128D01*
X189464091Y-66042517D01*
X189462810Y-66039083D01*
X189413797Y-65907671D01*
X189413793Y-65907664D01*
X189327547Y-65792455D01*
X189327544Y-65792452D01*
X189212335Y-65706206D01*
X189212328Y-65706202D01*
X189077482Y-65655908D01*
X189077483Y-65655908D01*
X189017883Y-65649501D01*
X189017881Y-65649500D01*
X189017873Y-65649500D01*
X189017864Y-65649500D01*
X187222129Y-65649500D01*
X187222123Y-65649501D01*
X187162516Y-65655908D01*
X187027671Y-65706202D01*
X187027664Y-65706206D01*
X186912455Y-65792452D01*
X186912452Y-65792455D01*
X186826206Y-65907664D01*
X186826203Y-65907669D01*
X186777189Y-66039083D01*
X186735317Y-66095016D01*
X186669853Y-66119433D01*
X186601580Y-66104581D01*
X186573326Y-66083430D01*
X186459786Y-65969890D01*
X186287820Y-65844951D01*
X186098414Y-65748444D01*
X186098413Y-65748443D01*
X186098412Y-65748443D01*
X185896243Y-65682754D01*
X185896241Y-65682753D01*
X185896240Y-65682753D01*
X185734957Y-65657208D01*
X185686287Y-65649500D01*
X185473713Y-65649500D01*
X185425042Y-65657208D01*
X185263760Y-65682753D01*
X185061585Y-65748444D01*
X184872179Y-65844951D01*
X184700213Y-65969890D01*
X184549890Y-66120213D01*
X184424951Y-66292179D01*
X184328444Y-66481585D01*
X184262753Y-66683760D01*
X184229500Y-66893713D01*
X178449158Y-66893713D01*
X178425925Y-66807007D01*
X178393012Y-66750000D01*
X179310000Y-66750000D01*
X179310000Y-66102172D01*
X179309999Y-66102155D01*
X179303598Y-66042627D01*
X179303596Y-66042620D01*
X179253354Y-65907913D01*
X179253350Y-65907906D01*
X179167190Y-65792812D01*
X179167187Y-65792809D01*
X179052093Y-65706649D01*
X179052086Y-65706645D01*
X178917379Y-65656403D01*
X178917372Y-65656401D01*
X178857844Y-65650000D01*
X178210000Y-65650000D01*
X178210000Y-66566988D01*
X178152993Y-66534075D01*
X178025826Y-66500000D01*
X177894174Y-66500000D01*
X177767007Y-66534075D01*
X177710000Y-66566988D01*
X177710000Y-65650000D01*
X177062155Y-65650000D01*
X177002627Y-65656401D01*
X177002620Y-65656403D01*
X176867913Y-65706645D01*
X176867906Y-65706649D01*
X176752812Y-65792809D01*
X176752809Y-65792812D01*
X176666649Y-65907906D01*
X176666646Y-65907912D01*
X176617577Y-66039471D01*
X176575705Y-66095404D01*
X176510241Y-66119821D01*
X176441968Y-66104969D01*
X176413714Y-66083818D01*
X176299786Y-65969890D01*
X176127820Y-65844951D01*
X175938414Y-65748444D01*
X175938413Y-65748443D01*
X175938412Y-65748443D01*
X175736243Y-65682754D01*
X175736241Y-65682753D01*
X175736240Y-65682753D01*
X175574957Y-65657208D01*
X175526287Y-65649500D01*
X175313713Y-65649500D01*
X175265042Y-65657208D01*
X175103760Y-65682753D01*
X174901585Y-65748444D01*
X174712179Y-65844951D01*
X174540213Y-65969890D01*
X174389890Y-66120213D01*
X174264951Y-66292179D01*
X174168444Y-66481585D01*
X174102753Y-66683760D01*
X174069500Y-66893713D01*
X170816249Y-66893713D01*
X170696104Y-66843947D01*
X170558243Y-66807007D01*
X170461789Y-66781162D01*
X170461788Y-66781161D01*
X170461785Y-66781161D01*
X170221289Y-66749500D01*
X170221288Y-66749500D01*
X169978712Y-66749500D01*
X169978711Y-66749500D01*
X169738214Y-66781161D01*
X169503895Y-66843947D01*
X169279794Y-66936773D01*
X169279785Y-66936777D01*
X169069706Y-67058067D01*
X168877263Y-67205733D01*
X168877256Y-67205739D01*
X168705739Y-67377256D01*
X168705733Y-67377263D01*
X168558067Y-67569706D01*
X168436777Y-67779785D01*
X168436773Y-67779794D01*
X168343947Y-68003895D01*
X168281161Y-68238214D01*
X168249500Y-68478711D01*
X146550500Y-68478711D01*
X146547027Y-68452335D01*
X146542584Y-68418586D01*
X146518838Y-68238211D01*
X146456054Y-68003900D01*
X146363224Y-67779788D01*
X146241936Y-67569711D01*
X146162298Y-67465925D01*
X146094266Y-67377263D01*
X146094260Y-67377256D01*
X145922743Y-67205739D01*
X145922736Y-67205733D01*
X145730293Y-67058067D01*
X145730292Y-67058066D01*
X145730289Y-67058064D01*
X145520212Y-66936776D01*
X145513930Y-66934174D01*
X145296104Y-66843947D01*
X145158243Y-66807007D01*
X145061789Y-66781162D01*
X145061788Y-66781161D01*
X145061785Y-66781161D01*
X144821289Y-66749500D01*
X144821288Y-66749500D01*
X144578712Y-66749500D01*
X144578711Y-66749500D01*
X144338214Y-66781161D01*
X144103895Y-66843947D01*
X143879794Y-66936773D01*
X143879785Y-66936777D01*
X143669706Y-67058067D01*
X143477263Y-67205733D01*
X143477256Y-67205739D01*
X143305739Y-67377256D01*
X143305733Y-67377263D01*
X143158067Y-67569706D01*
X143036777Y-67779785D01*
X143036773Y-67779794D01*
X142943947Y-68003895D01*
X142881161Y-68238214D01*
X142849500Y-68478711D01*
X141590739Y-68478711D01*
X139327512Y-66215485D01*
X139327511Y-66215484D01*
X139313604Y-66205380D01*
X139136434Y-66076657D01*
X139115915Y-66066202D01*
X138925996Y-65969433D01*
X138701368Y-65896446D01*
X138468097Y-65859500D01*
X138468092Y-65859500D01*
X135691908Y-65859500D01*
X135691903Y-65859500D01*
X135458630Y-65896447D01*
X135458627Y-65896447D01*
X135234009Y-65969431D01*
X135234008Y-65969431D01*
X135181893Y-65995985D01*
X135125600Y-66009500D01*
X134912130Y-66009500D01*
X134912123Y-66009501D01*
X134852516Y-66015908D01*
X134717671Y-66066202D01*
X134717664Y-66066206D01*
X134602455Y-66152452D01*
X134602452Y-66152455D01*
X134516206Y-66267664D01*
X134516202Y-66267671D01*
X134465908Y-66402517D01*
X134459501Y-66462116D01*
X134459500Y-66462135D01*
X134459500Y-66675599D01*
X134445985Y-66731893D01*
X134419430Y-66784009D01*
X134419430Y-66784011D01*
X134346447Y-67008627D01*
X134346447Y-67008630D01*
X134309500Y-67241902D01*
X134309500Y-67478097D01*
X134346447Y-67711369D01*
X134346447Y-67711372D01*
X134419430Y-67935988D01*
X134419430Y-67935989D01*
X134445985Y-67988106D01*
X134459500Y-68044399D01*
X134459500Y-68257869D01*
X134459501Y-68257876D01*
X134465908Y-68317483D01*
X134516202Y-68452328D01*
X134516206Y-68452335D01*
X134602452Y-68567544D01*
X134602455Y-68567547D01*
X134717664Y-68653793D01*
X134717671Y-68653797D01*
X134762618Y-68670561D01*
X134852517Y-68704091D01*
X134912127Y-68710500D01*
X135125598Y-68710499D01*
X135181893Y-68724014D01*
X135234008Y-68750568D01*
X135415059Y-68809395D01*
X135458631Y-68823553D01*
X135691903Y-68860500D01*
X135691908Y-68860500D01*
X137677111Y-68860500D01*
X137744150Y-68880185D01*
X137764792Y-68896819D01*
X141203181Y-72335208D01*
X141236666Y-72396531D01*
X141239500Y-72422889D01*
X141239500Y-88318185D01*
X141219815Y-88385224D01*
X141167011Y-88430979D01*
X141097853Y-88440923D01*
X141042615Y-88418503D01*
X140907557Y-88320379D01*
X140718217Y-88223904D01*
X140516129Y-88158242D01*
X140306246Y-88125000D01*
X140093754Y-88125000D01*
X139883872Y-88158242D01*
X139883869Y-88158242D01*
X139681782Y-88223904D01*
X139492439Y-88320380D01*
X139438282Y-88359727D01*
X139438282Y-88359728D01*
X140070591Y-88992037D01*
X140007007Y-89009075D01*
X139892993Y-89074901D01*
X139799901Y-89167993D01*
X139734075Y-89282007D01*
X139717037Y-89345591D01*
X139084728Y-88713282D01*
X139084727Y-88713282D01*
X139045380Y-88767440D01*
X139040483Y-88777051D01*
X138992506Y-88827845D01*
X138924684Y-88844638D01*
X138858550Y-88822098D01*
X138819516Y-88777048D01*
X138814626Y-88767452D01*
X138775270Y-88713282D01*
X138775269Y-88713282D01*
X138142962Y-89345590D01*
X138125925Y-89282007D01*
X138060099Y-89167993D01*
X137967007Y-89074901D01*
X137852993Y-89009075D01*
X137789409Y-88992037D01*
X138421716Y-88359728D01*
X138367550Y-88320375D01*
X138178217Y-88223904D01*
X137976129Y-88158242D01*
X137766246Y-88125000D01*
X137553754Y-88125000D01*
X137343872Y-88158242D01*
X137343869Y-88158242D01*
X137141782Y-88223904D01*
X136952439Y-88320380D01*
X136898282Y-88359727D01*
X136898282Y-88359728D01*
X137530591Y-88992037D01*
X137467007Y-89009075D01*
X137352993Y-89074901D01*
X137259901Y-89167993D01*
X137194075Y-89282007D01*
X137177037Y-89345591D01*
X136544728Y-88713282D01*
X136544727Y-88713282D01*
X136505380Y-88767440D01*
X136505376Y-88767446D01*
X136500760Y-88776505D01*
X136452781Y-88827297D01*
X136384959Y-88844087D01*
X136318826Y-88821543D01*
X136279794Y-88776493D01*
X136275051Y-88767184D01*
X136275049Y-88767181D01*
X136275048Y-88767179D01*
X136150109Y-88595213D01*
X135999786Y-88444890D01*
X135827820Y-88319951D01*
X135638414Y-88223444D01*
X135638413Y-88223443D01*
X135638412Y-88223443D01*
X135436243Y-88157754D01*
X135436241Y-88157753D01*
X135436240Y-88157753D01*
X135274957Y-88132208D01*
X135226287Y-88124500D01*
X135013713Y-88124500D01*
X134965042Y-88132208D01*
X134803760Y-88157753D01*
X134601585Y-88223444D01*
X134412179Y-88319951D01*
X134240213Y-88444890D01*
X134089890Y-88595213D01*
X133964951Y-88767179D01*
X133868444Y-88956585D01*
X133802753Y-89158760D01*
X133769500Y-89368713D01*
X119000500Y-89368713D01*
X119000500Y-66462155D01*
X121760000Y-66462155D01*
X121760000Y-67110000D01*
X122676988Y-67110000D01*
X122644075Y-67167007D01*
X122610000Y-67294174D01*
X122610000Y-67425826D01*
X122644075Y-67552993D01*
X122676988Y-67610000D01*
X121760000Y-67610000D01*
X121760000Y-68257844D01*
X121766401Y-68317372D01*
X121766403Y-68317379D01*
X121816645Y-68452086D01*
X121816649Y-68452093D01*
X121902809Y-68567187D01*
X121902812Y-68567190D01*
X122017906Y-68653350D01*
X122017913Y-68653354D01*
X122152620Y-68703596D01*
X122152627Y-68703598D01*
X122212155Y-68709999D01*
X122212172Y-68710000D01*
X122860000Y-68710000D01*
X122860000Y-67793012D01*
X122917007Y-67825925D01*
X123044174Y-67860000D01*
X123175826Y-67860000D01*
X123302993Y-67825925D01*
X123360000Y-67793012D01*
X123360000Y-68710000D01*
X124007828Y-68710000D01*
X124007844Y-68709999D01*
X124067372Y-68703598D01*
X124067379Y-68703596D01*
X124202086Y-68653354D01*
X124202093Y-68653350D01*
X124317187Y-68567190D01*
X124317190Y-68567187D01*
X124403350Y-68452093D01*
X124403354Y-68452086D01*
X124425529Y-68392632D01*
X124464319Y-68219390D01*
X124464682Y-68218734D01*
X124464642Y-68217984D01*
X124497642Y-68158802D01*
X125167037Y-67489408D01*
X125184075Y-67552993D01*
X125249901Y-67667007D01*
X125342993Y-67760099D01*
X125457007Y-67825925D01*
X125520590Y-67842962D01*
X124888282Y-68475269D01*
X124888282Y-68475270D01*
X124942449Y-68514624D01*
X125131782Y-68611095D01*
X125333870Y-68676757D01*
X125543754Y-68710000D01*
X125756246Y-68710000D01*
X125966127Y-68676757D01*
X125966130Y-68676757D01*
X126168217Y-68611095D01*
X126357554Y-68514622D01*
X126411716Y-68475270D01*
X126411717Y-68475270D01*
X125779408Y-67842962D01*
X125842993Y-67825925D01*
X125957007Y-67760099D01*
X126050099Y-67667007D01*
X126115925Y-67552993D01*
X126132962Y-67489409D01*
X126765270Y-68121717D01*
X126765270Y-68121716D01*
X126804622Y-68067554D01*
X126901095Y-67878217D01*
X126966757Y-67676130D01*
X126966757Y-67676127D01*
X127000000Y-67466246D01*
X127000000Y-67253756D01*
X126966757Y-67043872D01*
X126966757Y-67043869D01*
X126901095Y-66841782D01*
X126804624Y-66652449D01*
X126765270Y-66598282D01*
X126765269Y-66598282D01*
X126132962Y-67230590D01*
X126115925Y-67167007D01*
X126050099Y-67052993D01*
X125957007Y-66959901D01*
X125842993Y-66894075D01*
X125779409Y-66877037D01*
X126411716Y-66244728D01*
X126357550Y-66205375D01*
X126168217Y-66108904D01*
X125966129Y-66043242D01*
X125756246Y-66010000D01*
X125543754Y-66010000D01*
X125333872Y-66043242D01*
X125333869Y-66043242D01*
X125131782Y-66108904D01*
X124942439Y-66205380D01*
X124888282Y-66244727D01*
X124888282Y-66244728D01*
X125520591Y-66877037D01*
X125457007Y-66894075D01*
X125342993Y-66959901D01*
X125249901Y-67052993D01*
X125184075Y-67167007D01*
X125167037Y-67230591D01*
X124497642Y-66561196D01*
X124464319Y-66500609D01*
X124425527Y-66327364D01*
X124403354Y-66267913D01*
X124403350Y-66267906D01*
X124317190Y-66152812D01*
X124317187Y-66152809D01*
X124202093Y-66066649D01*
X124202086Y-66066645D01*
X124067379Y-66016403D01*
X124067372Y-66016401D01*
X124007844Y-66010000D01*
X123360000Y-66010000D01*
X123360000Y-66926988D01*
X123302993Y-66894075D01*
X123175826Y-66860000D01*
X123044174Y-66860000D01*
X122917007Y-66894075D01*
X122860000Y-66926988D01*
X122860000Y-66010000D01*
X122212155Y-66010000D01*
X122152627Y-66016401D01*
X122152620Y-66016403D01*
X122017913Y-66066645D01*
X122017906Y-66066649D01*
X121902812Y-66152809D01*
X121902809Y-66152812D01*
X121816649Y-66267906D01*
X121816645Y-66267913D01*
X121766403Y-66402620D01*
X121766401Y-66402627D01*
X121760000Y-66462155D01*
X119000500Y-66462155D01*
X119000500Y-61102135D01*
X150324500Y-61102135D01*
X150324500Y-62897870D01*
X150324501Y-62897876D01*
X150330908Y-62957483D01*
X150381202Y-63092328D01*
X150381206Y-63092335D01*
X150467452Y-63207544D01*
X150467455Y-63207547D01*
X150582664Y-63293793D01*
X150582671Y-63293797D01*
X150717517Y-63344091D01*
X150717516Y-63344091D01*
X150724444Y-63344835D01*
X150777127Y-63350500D01*
X152572872Y-63350499D01*
X152632483Y-63344091D01*
X152767331Y-63293796D01*
X152882546Y-63207546D01*
X152968796Y-63092331D01*
X153019091Y-62957483D01*
X153025500Y-62897873D01*
X153025499Y-62873979D01*
X153028330Y-62860963D01*
X153038940Y-62841525D01*
X153045179Y-62820275D01*
X153061803Y-62799643D01*
X153061808Y-62799636D01*
X153061811Y-62799634D01*
X153061818Y-62799626D01*
X153732037Y-62129408D01*
X153749075Y-62192993D01*
X153814901Y-62307007D01*
X153907993Y-62400099D01*
X154022007Y-62465925D01*
X154085590Y-62482962D01*
X153453282Y-63115269D01*
X153453282Y-63115270D01*
X153507449Y-63154624D01*
X153696782Y-63251095D01*
X153898870Y-63316757D01*
X154108754Y-63350000D01*
X154321246Y-63350000D01*
X154531127Y-63316757D01*
X154531130Y-63316757D01*
X154733217Y-63251095D01*
X154922554Y-63154622D01*
X154976716Y-63115270D01*
X154976717Y-63115270D01*
X154344408Y-62482962D01*
X154407993Y-62465925D01*
X154522007Y-62400099D01*
X154615099Y-62307007D01*
X154680925Y-62192993D01*
X154697962Y-62129409D01*
X155330270Y-62761717D01*
X155330270Y-62761716D01*
X155369622Y-62707555D01*
X155374232Y-62698507D01*
X155422205Y-62647709D01*
X155490025Y-62630912D01*
X155556161Y-62653447D01*
X155595204Y-62698504D01*
X155599949Y-62707817D01*
X155724890Y-62879786D01*
X155875213Y-63030109D01*
X156047179Y-63155048D01*
X156047181Y-63155049D01*
X156047184Y-63155051D01*
X156236588Y-63251557D01*
X156438757Y-63317246D01*
X156648713Y-63350500D01*
X156648714Y-63350500D01*
X156861286Y-63350500D01*
X156861287Y-63350500D01*
X157071243Y-63317246D01*
X157273412Y-63251557D01*
X157462816Y-63155051D01*
X157549138Y-63092335D01*
X157634786Y-63030109D01*
X157634788Y-63030106D01*
X157634792Y-63030104D01*
X157785104Y-62879792D01*
X157785106Y-62879788D01*
X157785109Y-62879786D01*
X157910048Y-62707820D01*
X157910050Y-62707817D01*
X157910051Y-62707816D01*
X157914514Y-62699054D01*
X157962488Y-62648259D01*
X158030308Y-62631463D01*
X158096444Y-62653999D01*
X158135486Y-62699056D01*
X158139951Y-62707820D01*
X158264890Y-62879786D01*
X158415213Y-63030109D01*
X158587179Y-63155048D01*
X158587181Y-63155049D01*
X158587184Y-63155051D01*
X158776588Y-63251557D01*
X158978757Y-63317246D01*
X159188713Y-63350500D01*
X159188714Y-63350500D01*
X159401286Y-63350500D01*
X159401287Y-63350500D01*
X159611243Y-63317246D01*
X159813412Y-63251557D01*
X160002816Y-63155051D01*
X160089138Y-63092335D01*
X160174786Y-63030109D01*
X160174788Y-63030106D01*
X160174792Y-63030104D01*
X160325104Y-62879792D01*
X160325106Y-62879788D01*
X160325109Y-62879786D01*
X160450048Y-62707820D01*
X160450050Y-62707817D01*
X160450051Y-62707816D01*
X160454514Y-62699054D01*
X160502488Y-62648259D01*
X160570308Y-62631463D01*
X160636444Y-62653999D01*
X160675486Y-62699056D01*
X160679951Y-62707820D01*
X160804890Y-62879786D01*
X160955213Y-63030109D01*
X161127179Y-63155048D01*
X161127181Y-63155049D01*
X161127184Y-63155051D01*
X161316588Y-63251557D01*
X161518757Y-63317246D01*
X161728713Y-63350500D01*
X161728714Y-63350500D01*
X161941286Y-63350500D01*
X161941287Y-63350500D01*
X162151243Y-63317246D01*
X162353412Y-63251557D01*
X162542816Y-63155051D01*
X162629138Y-63092335D01*
X162714786Y-63030109D01*
X162714788Y-63030106D01*
X162714792Y-63030104D01*
X162865104Y-62879792D01*
X162865106Y-62879788D01*
X162865109Y-62879786D01*
X162990048Y-62707820D01*
X162990050Y-62707817D01*
X162990051Y-62707816D01*
X162994514Y-62699054D01*
X163042488Y-62648259D01*
X163110308Y-62631463D01*
X163176444Y-62653999D01*
X163215486Y-62699056D01*
X163219951Y-62707820D01*
X163344890Y-62879786D01*
X163495213Y-63030109D01*
X163667179Y-63155048D01*
X163667181Y-63155049D01*
X163667184Y-63155051D01*
X163856588Y-63251557D01*
X164058757Y-63317246D01*
X164268713Y-63350500D01*
X164268714Y-63350500D01*
X164481286Y-63350500D01*
X164481287Y-63350500D01*
X164691243Y-63317246D01*
X164893412Y-63251557D01*
X165082816Y-63155051D01*
X165169138Y-63092335D01*
X165254786Y-63030109D01*
X165254788Y-63030106D01*
X165254792Y-63030104D01*
X165405104Y-62879792D01*
X165405106Y-62879788D01*
X165405109Y-62879786D01*
X165530048Y-62707820D01*
X165530050Y-62707817D01*
X165530051Y-62707816D01*
X165626557Y-62518412D01*
X165692246Y-62316243D01*
X165725500Y-62106287D01*
X165725500Y-61893713D01*
X165692246Y-61683757D01*
X165626557Y-61481588D01*
X165530051Y-61292184D01*
X165530049Y-61292181D01*
X165530048Y-61292179D01*
X165405109Y-61120213D01*
X165254786Y-60969890D01*
X165082820Y-60844951D01*
X164893414Y-60748444D01*
X164893413Y-60748443D01*
X164893412Y-60748443D01*
X164691243Y-60682754D01*
X164691241Y-60682753D01*
X164691240Y-60682753D01*
X164529957Y-60657208D01*
X164481287Y-60649500D01*
X164268713Y-60649500D01*
X164220042Y-60657208D01*
X164058760Y-60682753D01*
X163856585Y-60748444D01*
X163667179Y-60844951D01*
X163495213Y-60969890D01*
X163344890Y-61120213D01*
X163219949Y-61292182D01*
X163215484Y-61300946D01*
X163167509Y-61351742D01*
X163099688Y-61368536D01*
X163033553Y-61345998D01*
X162994516Y-61300946D01*
X162990050Y-61292182D01*
X162865109Y-61120213D01*
X162714786Y-60969890D01*
X162542820Y-60844951D01*
X162353414Y-60748444D01*
X162353413Y-60748443D01*
X162353412Y-60748443D01*
X162151243Y-60682754D01*
X162151241Y-60682753D01*
X162151240Y-60682753D01*
X161989957Y-60657208D01*
X161941287Y-60649500D01*
X161728713Y-60649500D01*
X161680042Y-60657208D01*
X161518760Y-60682753D01*
X161316585Y-60748444D01*
X161127179Y-60844951D01*
X160955213Y-60969890D01*
X160804890Y-61120213D01*
X160679949Y-61292182D01*
X160675484Y-61300946D01*
X160627509Y-61351742D01*
X160559688Y-61368536D01*
X160493553Y-61345998D01*
X160454516Y-61300946D01*
X160450050Y-61292182D01*
X160325109Y-61120213D01*
X160174786Y-60969890D01*
X160002820Y-60844951D01*
X159813414Y-60748444D01*
X159813413Y-60748443D01*
X159813412Y-60748443D01*
X159611243Y-60682754D01*
X159611241Y-60682753D01*
X159611240Y-60682753D01*
X159449957Y-60657208D01*
X159401287Y-60649500D01*
X159188713Y-60649500D01*
X159140042Y-60657208D01*
X158978760Y-60682753D01*
X158776585Y-60748444D01*
X158587179Y-60844951D01*
X158415213Y-60969890D01*
X158264890Y-61120213D01*
X158139949Y-61292182D01*
X158135484Y-61300946D01*
X158087509Y-61351742D01*
X158019688Y-61368536D01*
X157953553Y-61345998D01*
X157914516Y-61300946D01*
X157910050Y-61292182D01*
X157785109Y-61120213D01*
X157634786Y-60969890D01*
X157462820Y-60844951D01*
X157273414Y-60748444D01*
X157273413Y-60748443D01*
X157273412Y-60748443D01*
X157071243Y-60682754D01*
X157071241Y-60682753D01*
X157071240Y-60682753D01*
X156909957Y-60657208D01*
X156861287Y-60649500D01*
X156648713Y-60649500D01*
X156600042Y-60657208D01*
X156438760Y-60682753D01*
X156236585Y-60748444D01*
X156047179Y-60844951D01*
X155875213Y-60969890D01*
X155724890Y-61120213D01*
X155599949Y-61292182D01*
X155595202Y-61301499D01*
X155547227Y-61352293D01*
X155479405Y-61369087D01*
X155413271Y-61346548D01*
X155374234Y-61301495D01*
X155369626Y-61292452D01*
X155330270Y-61238282D01*
X155330269Y-61238282D01*
X154697962Y-61870590D01*
X154680925Y-61807007D01*
X154615099Y-61692993D01*
X154522007Y-61599901D01*
X154407993Y-61534075D01*
X154344409Y-61517037D01*
X154976716Y-60884728D01*
X154922550Y-60845375D01*
X154733217Y-60748904D01*
X154531129Y-60683242D01*
X154321246Y-60650000D01*
X154108754Y-60650000D01*
X153898872Y-60683242D01*
X153898869Y-60683242D01*
X153696782Y-60748904D01*
X153507439Y-60845380D01*
X153453282Y-60884727D01*
X153453282Y-60884728D01*
X154085591Y-61517037D01*
X154022007Y-61534075D01*
X153907993Y-61599901D01*
X153814901Y-61692993D01*
X153749075Y-61807007D01*
X153732037Y-61870591D01*
X153061818Y-61200372D01*
X153028333Y-61139049D01*
X153028330Y-61139036D01*
X153025499Y-61126015D01*
X153025499Y-61102128D01*
X153019091Y-61042517D01*
X152990926Y-60967002D01*
X152968798Y-60907673D01*
X152968793Y-60907664D01*
X152882547Y-60792455D01*
X152882544Y-60792452D01*
X152767335Y-60706206D01*
X152767328Y-60706202D01*
X152632482Y-60655908D01*
X152632483Y-60655908D01*
X152572883Y-60649501D01*
X152572881Y-60649500D01*
X152572873Y-60649500D01*
X152572864Y-60649500D01*
X150777129Y-60649500D01*
X150777123Y-60649501D01*
X150717516Y-60655908D01*
X150582671Y-60706202D01*
X150582664Y-60706206D01*
X150467455Y-60792452D01*
X150467452Y-60792455D01*
X150381206Y-60907664D01*
X150381202Y-60907671D01*
X150330908Y-61042517D01*
X150324501Y-61102116D01*
X150324500Y-61102135D01*
X119000500Y-61102135D01*
X119000500Y-43602155D01*
X121760000Y-43602155D01*
X121760000Y-44250000D01*
X122676988Y-44250000D01*
X122644075Y-44307007D01*
X122610000Y-44434174D01*
X122610000Y-44565826D01*
X122644075Y-44692993D01*
X122676988Y-44750000D01*
X121760000Y-44750000D01*
X121760000Y-45397844D01*
X121766401Y-45457372D01*
X121766403Y-45457379D01*
X121816645Y-45592086D01*
X121816649Y-45592093D01*
X121902809Y-45707187D01*
X121902812Y-45707190D01*
X122017906Y-45793350D01*
X122017913Y-45793354D01*
X122152620Y-45843596D01*
X122152627Y-45843598D01*
X122212155Y-45849999D01*
X122212172Y-45850000D01*
X122860000Y-45850000D01*
X122860000Y-44933012D01*
X122917007Y-44965925D01*
X123044174Y-45000000D01*
X123175826Y-45000000D01*
X123302993Y-44965925D01*
X123360000Y-44933012D01*
X123360000Y-45850000D01*
X124007828Y-45850000D01*
X124007844Y-45849999D01*
X124067372Y-45843598D01*
X124067379Y-45843596D01*
X124202086Y-45793354D01*
X124202093Y-45793350D01*
X124317187Y-45707190D01*
X124317190Y-45707187D01*
X124403350Y-45592093D01*
X124403354Y-45592086D01*
X124425529Y-45532632D01*
X124464319Y-45359390D01*
X124464682Y-45358734D01*
X124464642Y-45357984D01*
X124497642Y-45298802D01*
X125167037Y-44629408D01*
X125184075Y-44692993D01*
X125249901Y-44807007D01*
X125342993Y-44900099D01*
X125457007Y-44965925D01*
X125520590Y-44982962D01*
X124888282Y-45615269D01*
X124888282Y-45615270D01*
X124942449Y-45654624D01*
X125131782Y-45751095D01*
X125333870Y-45816757D01*
X125543754Y-45850000D01*
X125756246Y-45850000D01*
X125966127Y-45816757D01*
X125966130Y-45816757D01*
X126168217Y-45751095D01*
X126357554Y-45654622D01*
X126411716Y-45615270D01*
X126411717Y-45615270D01*
X125779408Y-44982962D01*
X125842993Y-44965925D01*
X125957007Y-44900099D01*
X126050099Y-44807007D01*
X126115925Y-44692993D01*
X126132962Y-44629408D01*
X126765270Y-45261717D01*
X126765270Y-45261716D01*
X126804622Y-45207554D01*
X126901095Y-45018217D01*
X126966757Y-44816130D01*
X126966757Y-44816127D01*
X127000000Y-44606246D01*
X127000000Y-44393756D01*
X126998122Y-44381902D01*
X134309500Y-44381902D01*
X134309500Y-44618097D01*
X134346447Y-44851369D01*
X134346447Y-44851372D01*
X134419430Y-45075988D01*
X134419430Y-45075989D01*
X134445985Y-45128106D01*
X134459500Y-45184399D01*
X134459500Y-45397869D01*
X134459501Y-45397876D01*
X134465908Y-45457483D01*
X134516202Y-45592328D01*
X134516206Y-45592335D01*
X134602452Y-45707544D01*
X134602455Y-45707547D01*
X134717664Y-45793793D01*
X134717671Y-45793797D01*
X134762618Y-45810561D01*
X134852517Y-45844091D01*
X134912127Y-45850500D01*
X135125598Y-45850499D01*
X135181893Y-45864014D01*
X135234008Y-45890568D01*
X135415059Y-45949395D01*
X135458631Y-45963553D01*
X135691903Y-46000500D01*
X135691908Y-46000500D01*
X138468097Y-46000500D01*
X138701368Y-45963553D01*
X138925992Y-45890568D01*
X139136433Y-45783343D01*
X139327510Y-45644517D01*
X139494517Y-45477510D01*
X139633343Y-45286433D01*
X139740568Y-45075992D01*
X139813553Y-44851368D01*
X139838637Y-44692993D01*
X139850500Y-44618097D01*
X139850500Y-44381902D01*
X139813553Y-44148631D01*
X139740566Y-43924003D01*
X139633342Y-43713566D01*
X139624355Y-43701196D01*
X139494517Y-43522490D01*
X139327510Y-43355483D01*
X139171500Y-43242135D01*
X174069500Y-43242135D01*
X174069500Y-45037870D01*
X174069501Y-45037876D01*
X174075908Y-45097483D01*
X174126202Y-45232328D01*
X174126206Y-45232335D01*
X174212452Y-45347544D01*
X174212455Y-45347547D01*
X174327664Y-45433793D01*
X174327671Y-45433797D01*
X174462517Y-45484091D01*
X174462516Y-45484091D01*
X174469444Y-45484835D01*
X174522127Y-45490500D01*
X176317872Y-45490499D01*
X176377483Y-45484091D01*
X176512331Y-45433796D01*
X176627546Y-45347546D01*
X176713796Y-45232331D01*
X176764091Y-45097483D01*
X176770500Y-45037873D01*
X176770499Y-43242135D01*
X186769500Y-43242135D01*
X186769500Y-45037870D01*
X186769501Y-45037876D01*
X186775908Y-45097483D01*
X186826202Y-45232328D01*
X186826206Y-45232335D01*
X186912452Y-45347544D01*
X186912455Y-45347547D01*
X187027664Y-45433793D01*
X187027671Y-45433797D01*
X187162517Y-45484091D01*
X187162516Y-45484091D01*
X187169444Y-45484835D01*
X187222127Y-45490500D01*
X189017872Y-45490499D01*
X189077483Y-45484091D01*
X189212331Y-45433796D01*
X189327546Y-45347546D01*
X189413796Y-45232331D01*
X189464091Y-45097483D01*
X189470500Y-45037873D01*
X189470499Y-43242128D01*
X189464091Y-43182517D01*
X189454350Y-43156401D01*
X189413797Y-43047671D01*
X189413793Y-43047664D01*
X189327547Y-42932455D01*
X189327544Y-42932452D01*
X189212335Y-42846206D01*
X189212328Y-42846202D01*
X189077482Y-42795908D01*
X189077483Y-42795908D01*
X189017883Y-42789501D01*
X189017881Y-42789500D01*
X189017873Y-42789500D01*
X189017864Y-42789500D01*
X187222129Y-42789500D01*
X187222123Y-42789501D01*
X187162516Y-42795908D01*
X187027671Y-42846202D01*
X187027664Y-42846206D01*
X186912455Y-42932452D01*
X186912452Y-42932455D01*
X186826206Y-43047664D01*
X186826202Y-43047671D01*
X186775908Y-43182517D01*
X186773314Y-43206649D01*
X186769501Y-43242123D01*
X186769500Y-43242135D01*
X176770499Y-43242135D01*
X176770499Y-43242128D01*
X176764091Y-43182517D01*
X176754350Y-43156401D01*
X176713797Y-43047671D01*
X176713793Y-43047664D01*
X176627547Y-42932455D01*
X176627544Y-42932452D01*
X176512335Y-42846206D01*
X176512328Y-42846202D01*
X176377482Y-42795908D01*
X176377483Y-42795908D01*
X176317883Y-42789501D01*
X176317881Y-42789500D01*
X176317873Y-42789500D01*
X176317864Y-42789500D01*
X174522129Y-42789500D01*
X174522123Y-42789501D01*
X174462516Y-42795908D01*
X174327671Y-42846202D01*
X174327664Y-42846206D01*
X174212455Y-42932452D01*
X174212452Y-42932455D01*
X174126206Y-43047664D01*
X174126202Y-43047671D01*
X174075908Y-43182517D01*
X174073314Y-43206649D01*
X174069501Y-43242123D01*
X174069500Y-43242135D01*
X139171500Y-43242135D01*
X139136433Y-43216657D01*
X139116791Y-43206649D01*
X138925996Y-43109433D01*
X138701368Y-43036446D01*
X138468097Y-42999500D01*
X138468092Y-42999500D01*
X135691908Y-42999500D01*
X135691903Y-42999500D01*
X135458630Y-43036447D01*
X135458627Y-43036447D01*
X135234009Y-43109431D01*
X135234008Y-43109431D01*
X135181893Y-43135985D01*
X135125600Y-43149500D01*
X134912130Y-43149500D01*
X134912123Y-43149501D01*
X134852516Y-43155908D01*
X134717671Y-43206202D01*
X134717664Y-43206206D01*
X134602455Y-43292452D01*
X134602452Y-43292455D01*
X134516206Y-43407664D01*
X134516202Y-43407671D01*
X134465908Y-43542517D01*
X134459501Y-43602116D01*
X134459500Y-43602135D01*
X134459500Y-43815599D01*
X134445985Y-43871893D01*
X134419430Y-43924009D01*
X134419430Y-43924011D01*
X134346447Y-44148627D01*
X134346447Y-44148630D01*
X134309500Y-44381902D01*
X126998122Y-44381902D01*
X126966757Y-44183872D01*
X126966757Y-44183869D01*
X126901095Y-43981782D01*
X126804624Y-43792449D01*
X126765270Y-43738282D01*
X126765269Y-43738282D01*
X126132962Y-44370590D01*
X126115925Y-44307007D01*
X126050099Y-44192993D01*
X125957007Y-44099901D01*
X125842993Y-44034075D01*
X125779409Y-44017037D01*
X126411716Y-43384728D01*
X126357550Y-43345375D01*
X126168217Y-43248904D01*
X125966129Y-43183242D01*
X125756246Y-43150000D01*
X125543754Y-43150000D01*
X125333872Y-43183242D01*
X125333869Y-43183242D01*
X125131782Y-43248904D01*
X124942439Y-43345380D01*
X124888282Y-43384727D01*
X124888282Y-43384728D01*
X125520591Y-44017037D01*
X125457007Y-44034075D01*
X125342993Y-44099901D01*
X125249901Y-44192993D01*
X125184075Y-44307007D01*
X125167037Y-44370591D01*
X124497642Y-43701196D01*
X124464319Y-43640609D01*
X124425527Y-43467364D01*
X124403354Y-43407913D01*
X124403350Y-43407906D01*
X124317190Y-43292812D01*
X124317187Y-43292809D01*
X124202093Y-43206649D01*
X124202086Y-43206645D01*
X124067379Y-43156403D01*
X124067372Y-43156401D01*
X124007844Y-43150000D01*
X123360000Y-43150000D01*
X123360000Y-44066988D01*
X123302993Y-44034075D01*
X123175826Y-44000000D01*
X123044174Y-44000000D01*
X122917007Y-44034075D01*
X122860000Y-44066988D01*
X122860000Y-43150000D01*
X122212155Y-43150000D01*
X122152627Y-43156401D01*
X122152620Y-43156403D01*
X122017913Y-43206645D01*
X122017906Y-43206649D01*
X121902812Y-43292809D01*
X121902809Y-43292812D01*
X121816649Y-43407906D01*
X121816645Y-43407913D01*
X121766403Y-43542620D01*
X121766401Y-43542627D01*
X121760000Y-43602155D01*
X119000500Y-43602155D01*
X119000500Y-42624500D01*
X119020185Y-42557461D01*
X119072989Y-42511706D01*
X119124500Y-42500500D01*
X193875500Y-42500500D01*
X193942539Y-42520185D01*
G37*
%TD.AperFunction*%
%TD*%
M02*
