M48
; DRILL file KiCad 10.0.3-10.0.3~ubuntu24.04.1 date 2026-06-02T08:09:21
; FORMAT={-:-/ absolute / metric / decimal}
; #@! TF.CreationDate,2026-06-02T08:09:21+02:00
; #@! TF.GenerationSoftware,Kicad,Pcbnew,10.0.3-10.0.3~ubuntu24.04.1
; #@! TF.FileFunction,Plated,1,2,PTH
FMAT,2
METRIC
; #@! TA.AperFunction,Plated,PTH,ViaDrill
T1C0.300
; #@! TA.AperFunction,Plated,PTH,ComponentDrill
T2C0.800
; #@! TA.AperFunction,Plated,PTH,ComponentDrill
T3C1.000
; #@! TA.AperFunction,Plated,PTH,ComponentDrill
T4C1.200
%
G90
G05
T1
X162.0Y-49.0
X162.0Y-110.0
X162.0Y-139.0
X162.5Y-61.0
X162.5Y-124.5
X163.0Y-81.5
X163.0Y-102.5
X163.0Y-129.0
X163.5Y-92.5
X164.0Y-42.0
X167.0Y-71.0
X167.0Y-126.0
X169.0Y-120.5
X170.499Y-125.515
X170.5Y-77.0
X171.0Y-70.0
X171.5Y-80.0
X171.5Y-89.5
X172.0Y-62.0
X172.0Y-71.0
X172.0Y-107.0
X172.5Y-96.5
X174.0Y-58.0
X175.0Y-119.5
X175.5Y-127.0
X176.42Y-117.179
X177.0Y-78.5
X177.213Y-109.132
X177.5Y-54.0
X177.5Y-70.5
X178.144Y-118.274
X178.948Y-115.05
X179.436Y-114.231
X181.5Y-42.0
X182.962Y-104.002
X186.525Y-98.254
X187.034Y-97.365
X187.5Y-60.0
X187.5Y-63.0
X187.5Y-67.0
X187.5Y-89.5
X188.0Y-43.5
X188.0Y-80.5
X188.0Y-92.5
X189.0Y-105.0
X190.5Y-106.0
X191.0Y-66.0
X193.0Y-73.5
X194.0Y-51.0
X199.0Y-80.0
X200.5Y-51.0
X201.0Y-70.5
X201.9Y-96.746
X202.5Y-76.0
X203.5Y-102.5
X204.5Y-87.5
X207.5Y-106.0
X208.0Y-96.5
X209.5Y-45.0
X210.0Y-66.5
X210.1Y-139.0
X210.5Y-60.0
X212.5Y-85.5
X213.037Y-110.058
X213.5Y-129.0
X213.5Y-137.0
X217.0Y-82.0
X217.0Y-108.5
X217.5Y-60.0
X217.5Y-132.0
X219.0Y-101.5
X220.0Y-135.5
X220.5Y-70.5
X220.5Y-110.0
X221.0Y-82.5
X221.991Y-103.459
X223.5Y-103.5
X224.0Y-41.0
X224.0Y-112.5
X224.5Y-139.0
X225.0Y-70.5
X225.5Y-82.5
X227.0Y-98.5
X228.5Y-109.5
X229.0Y-59.0
X230.0Y-85.0
X230.0Y-117.5
X230.0Y-139.0
X230.5Y-70.0
X230.5Y-123.0
X231.0Y-114.5
X232.5Y-106.0
X235.0Y-126.5
X237.5Y-105.5
X239.0Y-116.5
X239.0Y-119.0
X239.0Y-128.5
X239.5Y-42.0
X239.5Y-68.5
X239.5Y-100.5
X239.5Y-139.0
X240.0Y-48.0
T2
X189.075Y-128.025
X189.075Y-132.075
X196.695Y-128.025
X196.695Y-132.075
X216.88Y-116.0
X224.5Y-116.0
T3
X163.92Y-134.96
X163.92Y-137.5
X164.5Y-107.8
X164.5Y-110.34
X164.5Y-112.88
X164.5Y-115.42
X164.5Y-117.96
X164.5Y-120.5
X166.46Y-134.96
X166.46Y-137.5
X169.0Y-134.96
X169.0Y-137.5
X171.54Y-134.96
X171.54Y-137.5
X174.08Y-134.96
X174.08Y-137.5
X175.0Y-83.96
X175.0Y-86.5
X175.0Y-89.04
X175.0Y-91.58
X175.0Y-94.12
X175.0Y-96.66
X176.62Y-134.96
X176.62Y-137.5
X184.7Y-100.7
X184.7Y-103.24
X184.7Y-105.78
X184.7Y-108.32
X184.7Y-110.86
X184.7Y-113.4
X184.7Y-115.94
X184.7Y-118.48
X184.7Y-121.02
X184.7Y-123.56
X184.7Y-126.1
X184.7Y-128.64
X184.7Y-131.18
X184.7Y-133.72
X184.7Y-136.26
X187.625Y-47.415
X187.625Y-49.955
X187.625Y-52.495
X187.625Y-55.035
X188.1Y-70.34
X188.1Y-72.88
X188.1Y-75.42
X188.1Y-77.96
X210.1Y-100.7
X210.1Y-103.24
X210.1Y-105.78
X210.1Y-108.32
X210.1Y-110.86
X210.1Y-113.4
X210.1Y-115.94
X210.1Y-118.48
X210.1Y-121.02
X210.1Y-123.56
X210.1Y-126.1
X210.1Y-128.64
X210.1Y-131.18
X210.1Y-133.72
X210.1Y-136.26
X213.025Y-44.875
X213.025Y-47.415
X213.025Y-49.955
X213.025Y-52.495
X213.025Y-55.035
X213.025Y-57.575
X213.5Y-67.8
X213.5Y-70.34
X213.5Y-72.88
X213.5Y-75.42
X213.5Y-77.96
X213.5Y-80.5
X217.5Y-92.0
X217.5Y-94.54
X217.5Y-97.08
X217.5Y-99.62
X223.5Y-63.0
X223.5Y-65.54
T4
X166.0Y-45.0
X166.0Y-47.54
X166.0Y-50.08
X166.0Y-52.62
X166.0Y-55.16
X166.0Y-57.7
X166.0Y-65.0
X166.0Y-67.54
X166.0Y-70.08
X166.0Y-72.62
X166.0Y-75.16
X166.0Y-77.7
X166.5Y-85.96
X166.5Y-88.5
X166.5Y-96.0
X166.5Y-98.54
X216.045Y-134.125
X218.585Y-134.125
X221.125Y-134.125
X223.665Y-134.125
X235.0Y-42.72
X235.0Y-45.26
X235.0Y-47.8
X235.0Y-50.34
X235.0Y-52.88
X235.0Y-55.42
X235.0Y-57.96
X235.0Y-60.5
X235.0Y-63.04
X235.0Y-65.58
X235.0Y-68.12
X235.0Y-70.66
X235.0Y-75.06
X235.0Y-77.6
X235.0Y-80.14
X235.0Y-82.68
X235.0Y-85.22
X235.0Y-87.76
X235.0Y-90.3
X235.0Y-92.84
X235.0Y-95.38
X235.0Y-97.92
X235.0Y-100.46
X235.0Y-103.0
X235.0Y-108.42
X235.0Y-110.96
X235.0Y-113.5
X235.0Y-118.92
X235.0Y-121.46
X235.0Y-124.0
X235.0Y-129.38
X235.0Y-131.92
X235.0Y-134.46
X235.0Y-137.0
M30
