%TF.GenerationSoftware,KiCad,Pcbnew,10.0.3-10.0.3~ubuntu24.04.1*%
%TF.CreationDate,2026-06-02T08:09:19+02:00*%
%TF.ProjectId,_V0_3-Scale_Module,5f56305f-332d-4536-9361-6c655f4d6f64,rev?*%
%TF.SameCoordinates,Original*%
%TF.FileFunction,Copper,L2,Bot*%
%TF.FilePolarity,Positive*%
%FSLAX46Y46*%
G04 Gerber Fmt 4.6, Leading zero omitted, Abs format (unit mm)*
G04 Created by KiCad (PCBNEW 10.0.3-10.0.3~ubuntu24.04.1) date 2026-06-02 08:09:19*
%MOMM*%
%LPD*%
G01*
G04 APERTURE LIST*
G04 Aperture macros list*
%AMRoundRect*
0 Rectangle with rounded corners*
0 $1 Rounding radius*
0 $2 $3 $4 $5 $6 $7 $8 $9 X,Y pos of 4 corners*
0 Add a 4 corners polygon primitive as box body*
4,1,4,$2,$3,$4,$5,$6,$7,$8,$9,$2,$3,0*
0 Add four circle primitives for the rounded corners*
1,1,$1+$1,$2,$3*
1,1,$1+$1,$4,$5*
1,1,$1+$1,$6,$7*
1,1,$1+$1,$8,$9*
0 Add four rect primitives between the rounded corners*
20,1,$1+$1,$2,$3,$4,$5,0*
20,1,$1+$1,$4,$5,$6,$7,0*
20,1,$1+$1,$6,$7,$8,$9,0*
20,1,$1+$1,$8,$9,$2,$3,0*%
G04 Aperture macros list end*
%TA.AperFunction,ComponentPad*%
%ADD10RoundRect,0.250000X0.750000X-0.750000X0.750000X0.750000X-0.750000X0.750000X-0.750000X-0.750000X0*%
%TD*%
%TA.AperFunction,ComponentPad*%
%ADD11C,2.000000*%
%TD*%
%TA.AperFunction,ComponentPad*%
%ADD12R,1.700000X1.700000*%
%TD*%
%TA.AperFunction,ComponentPad*%
%ADD13C,1.700000*%
%TD*%
%TA.AperFunction,ComponentPad*%
%ADD14RoundRect,0.250000X-0.750000X0.750000X-0.750000X-0.750000X0.750000X-0.750000X0.750000X0.750000X0*%
%TD*%
%TA.AperFunction,ComponentPad*%
%ADD15RoundRect,0.250000X-0.750000X-0.750000X0.750000X-0.750000X0.750000X0.750000X-0.750000X0.750000X0*%
%TD*%
%TA.AperFunction,ComponentPad*%
%ADD16C,1.600000*%
%TD*%
%TA.AperFunction,ViaPad*%
%ADD17C,0.600000*%
%TD*%
%TA.AperFunction,Conductor*%
%ADD18C,0.250000*%
%TD*%
%TA.AperFunction,Conductor*%
%ADD19C,1.000000*%
%TD*%
G04 APERTURE END LIST*
D10*
%TO.P,J12,1,Pin_1_1*%
%TO.N,Net-(J12-Pin_1)*%
X235000000Y-103000000D03*
D11*
%TO.P,J12,2,Pin_2_2*%
X235000000Y-100460000D03*
%TO.P,J12,3,Pin_3_3*%
%TO.N,Net-(J12-Pin_3)*%
X235000000Y-97920000D03*
%TO.P,J12,4,Pin_4_4*%
X235000000Y-95380000D03*
%TO.P,J12,5,Pin_5_5*%
%TO.N,Net-(J12-Pin_5)*%
X235000000Y-92840000D03*
%TO.P,J12,6,Pin_6_6*%
X235000000Y-90300000D03*
%TO.P,J12,7,Pin_7_7*%
%TO.N,Net-(J12-Pin_7)*%
X235000000Y-87760000D03*
%TO.P,J12,8,Pin_8_8*%
X235000000Y-85220000D03*
%TO.P,J12,9,Pin_9_9*%
%TO.N,Net-(J12-Pin_9)*%
X235000000Y-82680000D03*
%TO.P,J12,10,Pin_10_10*%
%TO.N,Net-(J12-Pin_10)*%
X235000000Y-80140000D03*
%TO.P,J12,11,Pin_11_11*%
%TO.N,Net-(J12-Pin_11)*%
X235000000Y-77600000D03*
%TO.P,J12,12,Pin_12_12*%
%TO.N,Net-(J12-Pin_12)*%
X235000000Y-75060000D03*
%TD*%
D10*
%TO.P,J14,1,Pin_1_1*%
%TO.N,/3.3V*%
X235000000Y-124000000D03*
D11*
%TO.P,J14,2,Pin_2_2*%
%TO.N,GND*%
X235000000Y-121460000D03*
%TO.P,J14,3,Pin_3_3*%
%TO.N,/GPIO4*%
X235000000Y-118920000D03*
%TD*%
D12*
%TO.P,J1,1,Pin_1_1*%
%TO.N,/3.3V*%
X184700000Y-100700000D03*
D13*
%TO.P,J1,2,Pin_2_2*%
%TO.N,GND*%
X184700000Y-103240000D03*
%TO.P,J1,3,Pin_3_3*%
%TO.N,/GPIO15*%
X184700000Y-105780000D03*
%TO.P,J1,4,Pin_4_4*%
%TO.N,/GPIO2*%
X184700000Y-108320000D03*
%TO.P,J1,5,Pin_5_5*%
%TO.N,/GPIO4*%
X184700000Y-110860000D03*
%TO.P,J1,6,Pin_6_6*%
%TO.N,/GPIO16*%
X184700000Y-113400000D03*
%TO.P,J1,7,Pin_7_7*%
%TO.N,/GPIO17*%
X184700000Y-115940000D03*
%TO.P,J1,8,Pin_8_8*%
%TO.N,/GPIO5*%
X184700000Y-118480000D03*
%TO.P,J1,9,Pin_9_9*%
%TO.N,/GPIO18*%
X184700000Y-121020000D03*
%TO.P,J1,10,Pin_10_10*%
%TO.N,/GPIO19*%
X184700000Y-123560000D03*
%TO.P,J1,11,Pin_11_11*%
%TO.N,/GPIO21*%
X184700000Y-126100000D03*
%TO.P,J1,12,Pin_12_12*%
%TO.N,/ESP32-RX0*%
X184700000Y-128640000D03*
%TO.P,J1,13,Pin_13_13*%
%TO.N,/ESP32-TX0*%
X184700000Y-131180000D03*
%TO.P,J1,14,Pin_14_14*%
%TO.N,/GPIO22*%
X184700000Y-133720000D03*
%TO.P,J1,15,Pin_15_15*%
%TO.N,/GPIO23*%
X184700000Y-136260000D03*
%TD*%
D14*
%TO.P,J10,1,Pin_1_1*%
%TO.N,GND*%
X166500000Y-85960000D03*
D11*
%TO.P,J10,2,Pin_2_2*%
%TO.N,/3.3V*%
X166500000Y-88500000D03*
%TD*%
D15*
%TO.P,J20,1,Pin_1_1*%
%TO.N,/3.3V*%
X216045000Y-134125000D03*
D11*
%TO.P,J20,2,Pin_2_2*%
%TO.N,GND*%
X218585000Y-134125000D03*
%TO.P,J20,3,Pin_3_3*%
%TO.N,/GPIO21*%
X221125000Y-134125000D03*
%TO.P,J20,4,Pin_4_4*%
%TO.N,/GPIO22*%
X223665000Y-134125000D03*
%TD*%
D12*
%TO.P,J9,1,Pin_1_1*%
%TO.N,GND*%
X175000000Y-96660000D03*
D13*
%TO.P,J9,2,Pin_2_2*%
%TO.N,/3.3V*%
X175000000Y-94120000D03*
%TO.P,J9,3,Pin_3_3*%
%TO.N,/GPIO23*%
X175000000Y-91580000D03*
%TO.P,J9,4,Pin_4_4*%
%TO.N,/GPIO19*%
X175000000Y-89040000D03*
%TO.P,J9,5,Pin_5_5*%
%TO.N,/GPIO18*%
X175000000Y-86500000D03*
%TO.P,J9,6,Pin_6_6*%
%TO.N,/GPIO5*%
X175000000Y-83960000D03*
%TD*%
D16*
%TO.P,SCL-4.7k1,1*%
%TO.N,/3.3V*%
X189075000Y-132075000D03*
%TO.P,SCL-4.7k1,2*%
%TO.N,/GPIO22*%
X196695000Y-132075000D03*
%TD*%
D12*
%TO.P,J5,1,Pin_1_1*%
%TO.N,/GPIO22*%
X217500000Y-99620000D03*
D13*
%TO.P,J5,2,Pin_2_2*%
%TO.N,/GPIO21*%
X217500000Y-97080000D03*
%TO.P,J5,3,Pin_3_3*%
%TO.N,/3.3V*%
X217500000Y-94540000D03*
%TO.P,J5,4,Pin_4_4*%
%TO.N,GND*%
X217500000Y-92000000D03*
%TD*%
D10*
%TO.P,J11,1,Pin_1_1*%
%TO.N,Net-(J11-Pin_1)*%
X235000000Y-70660000D03*
D11*
%TO.P,J11,2,Pin_2_2*%
X235000000Y-68120000D03*
%TO.P,J11,3,Pin_3_3*%
%TO.N,Net-(J11-Pin_3)*%
X235000000Y-65580000D03*
%TO.P,J11,4,Pin_4_4*%
X235000000Y-63040000D03*
%TO.P,J11,5,Pin_5_5*%
%TO.N,Net-(J11-Pin_5)*%
X235000000Y-60500000D03*
%TO.P,J11,6,Pin_6_6*%
X235000000Y-57960000D03*
%TO.P,J11,7,Pin_7_7*%
%TO.N,Net-(J11-Pin_7)*%
X235000000Y-55420000D03*
%TO.P,J11,8,Pin_8_8*%
X235000000Y-52880000D03*
%TO.P,J11,9,Pin_9_9*%
%TO.N,Net-(J11-Pin_9)*%
X235000000Y-50340000D03*
%TO.P,J11,10,Pin_10_10*%
%TO.N,Net-(J11-Pin_10)*%
X235000000Y-47800000D03*
%TO.P,J11,11,Pin_11_11*%
%TO.N,Net-(J11-Pin_11)*%
X235000000Y-45260000D03*
%TO.P,J11,12,Pin_12_12*%
%TO.N,Net-(J11-Pin_12)*%
X235000000Y-42720000D03*
%TD*%
D14*
%TO.P,J16,1,Pin_1_1*%
%TO.N,/3.3V*%
X166000000Y-65000000D03*
D11*
%TO.P,J16,2,Pin_2_2*%
X166000000Y-67540000D03*
%TO.P,J16,3,Pin_3_3*%
%TO.N,GND*%
X166000000Y-70080000D03*
%TO.P,J16,4,Pin_4_4*%
%TO.N,/GPIO14*%
X166000000Y-72620000D03*
%TO.P,J16,5,Pin_5_5*%
%TO.N,/GPIO13*%
X166000000Y-75160000D03*
%TO.P,J16,6,Pin_6_6*%
%TO.N,/GPIO34*%
X166000000Y-77700000D03*
%TD*%
D10*
%TO.P,J13,1,Pin_1_1*%
%TO.N,/3.3V*%
X235000000Y-113500000D03*
D11*
%TO.P,J13,2,Pin_2_2*%
%TO.N,GND*%
X235000000Y-110960000D03*
%TO.P,J13,3,Pin_3_3*%
%TO.N,/GPIO4*%
X235000000Y-108420000D03*
%TD*%
D10*
%TO.P,J15,1,Pin_1_1*%
%TO.N,/3.3V*%
X235000000Y-137000000D03*
D11*
%TO.P,J15,2,Pin_2_2*%
%TO.N,GND*%
X235000000Y-134460000D03*
%TO.P,J15,3,Pin_3_3*%
%TO.N,/GPIO21*%
X235000000Y-131920000D03*
%TO.P,J15,4,Pin_4_4*%
%TO.N,/GPIO22*%
X235000000Y-129380000D03*
%TD*%
D14*
%TO.P,J17,1,Pin_1_1*%
%TO.N,/GPIO21*%
X166500000Y-96000000D03*
D11*
%TO.P,J17,2,Pin_2_2*%
%TO.N,/GPIO22*%
X166500000Y-98540000D03*
%TD*%
D16*
%TO.P,1W-4.7k1,1*%
%TO.N,/3.3V*%
X216880000Y-116000000D03*
%TO.P,1W-4.7k1,2*%
%TO.N,/GPIO4*%
X224500000Y-116000000D03*
%TD*%
D12*
%TO.P,J8,1,Pin_1_1*%
%TO.N,Net-(J12-Pin_9)*%
X213500000Y-80500000D03*
D13*
%TO.P,J8,2,Pin_2_2*%
%TO.N,Net-(J12-Pin_10)*%
X213500000Y-77960000D03*
%TO.P,J8,3,Pin_3_3*%
%TO.N,Net-(J12-Pin_11)*%
X213500000Y-75420000D03*
%TO.P,J8,4,Pin_4_4*%
%TO.N,Net-(J12-Pin_12)*%
X213500000Y-72880000D03*
%TO.P,J8,5,Pin_5_5*%
%TO.N,unconnected-(J8-Pin_5-Pad5)*%
X213500000Y-70340000D03*
%TO.P,J8,6,Pin_6_6*%
%TO.N,unconnected-(J8-Pin_6-Pad6)*%
X213500000Y-67800000D03*
%TD*%
D12*
%TO.P,J4,1,Pin_1_1*%
%TO.N,/3.3V*%
X187625000Y-47415000D03*
D13*
%TO.P,J4,2,Pin_2_2*%
%TO.N,/GPIO17*%
X187625000Y-49955000D03*
%TO.P,J4,3,Pin_3_3*%
%TO.N,/GPIO16*%
X187625000Y-52495000D03*
%TO.P,J4,4,Pin_4_4*%
%TO.N,GND*%
X187625000Y-55035000D03*
%TD*%
D16*
%TO.P,SDA-4.7k1,1*%
%TO.N,/3.3V*%
X189075000Y-128025000D03*
%TO.P,SDA-4.7k1,2*%
%TO.N,/GPIO21*%
X196695000Y-128025000D03*
%TD*%
D12*
%TO.P,J7,1,Pin_1_1*%
%TO.N,Net-(J11-Pin_9)*%
X213025000Y-57575000D03*
D13*
%TO.P,J7,2,Pin_2_2*%
%TO.N,Net-(J11-Pin_10)*%
X213025000Y-55035000D03*
%TO.P,J7,3,Pin_3_3*%
%TO.N,Net-(J11-Pin_11)*%
X213025000Y-52495000D03*
%TO.P,J7,4,Pin_4_4*%
%TO.N,Net-(J11-Pin_12)*%
X213025000Y-49955000D03*
%TO.P,J7,5,Pin_5_5*%
%TO.N,unconnected-(J7-Pin_5-Pad5)*%
X213025000Y-47415000D03*
%TO.P,J7,6,Pin_6_6*%
%TO.N,unconnected-(J7-Pin_6-Pad6)*%
X213025000Y-44875000D03*
%TD*%
D12*
%TO.P,J18,1,Pin_1_1*%
%TO.N,/3.3V*%
X176620000Y-134960000D03*
D13*
%TO.P,J18,2,Pin_2_2*%
%TO.N,GND*%
X176620000Y-137500000D03*
%TO.P,J18,3,Pin_3_3*%
%TO.N,/GPIO2*%
X174080000Y-134960000D03*
%TO.P,J18,4,Pin_4_4*%
%TO.N,/GPIO12*%
X174080000Y-137500000D03*
%TO.P,J18,5,Pin_5_5*%
%TO.N,/GPIO22*%
X171540000Y-134960000D03*
%TO.P,J18,6,Pin_6_6*%
%TO.N,/GPIO15*%
X171540000Y-137500000D03*
%TO.P,J18,7,Pin_7_7*%
%TO.N,/GPIO26*%
X169000000Y-134960000D03*
%TO.P,J18,8,Pin_8_8*%
%TO.N,/GPIO25*%
X169000000Y-137500000D03*
%TO.P,J18,9,Pin_9_9*%
%TO.N,/ESP32-TX0*%
X166460000Y-134960000D03*
%TO.P,J18,10,Pin_10_10*%
%TO.N,/GPIO35*%
X166460000Y-137500000D03*
%TO.P,J18,11,Pin_11_11*%
%TO.N,/ESP32-RX0*%
X163920000Y-134960000D03*
%TO.P,J18,12,Pin_12_12*%
%TO.N,/EN_ESP32*%
X163920000Y-137500000D03*
%TD*%
D12*
%TO.P,J19,1,Pin_1_1*%
%TO.N,GND*%
X164500000Y-107800000D03*
D13*
%TO.P,J19,2,Pin_2_2*%
X164500000Y-110340000D03*
%TO.P,J19,3,Pin_3_3*%
%TO.N,/3.3V*%
X164500000Y-112880000D03*
%TO.P,J19,4,Pin_4_4*%
X164500000Y-115420000D03*
%TO.P,J19,5,Pin_5_5*%
%TO.N,/GPIO21*%
X164500000Y-117960000D03*
%TO.P,J19,6,Pin_6_6*%
%TO.N,/GPIO22*%
X164500000Y-120500000D03*
%TD*%
D14*
%TO.P,J6,1,Pin_1_1*%
%TO.N,/3.3V*%
X166000000Y-45000000D03*
D11*
%TO.P,J6,2,Pin_2_2*%
%TO.N,GND*%
X166000000Y-47540000D03*
%TO.P,J6,3,Pin_3_3*%
X166000000Y-50080000D03*
%TO.P,J6,4,Pin_4_4*%
%TO.N,/GPIO14*%
X166000000Y-52620000D03*
%TO.P,J6,5,Pin_5_5*%
%TO.N,/GPIO13*%
X166000000Y-55160000D03*
%TO.P,J6,6,Pin_6_6*%
%TO.N,/GPIO34*%
X166000000Y-57700000D03*
%TD*%
D12*
%TO.P,J3,1,Pin_1_1*%
%TO.N,/3.3V*%
X188100000Y-70340000D03*
D13*
%TO.P,J3,2,Pin_2_2*%
%TO.N,/GPIO33*%
X188100000Y-72880000D03*
%TO.P,J3,3,Pin_3_3*%
%TO.N,/GPIO32*%
X188100000Y-75420000D03*
%TO.P,J3,4,Pin_4_4*%
%TO.N,GND*%
X188100000Y-77960000D03*
%TD*%
D12*
%TO.P,J2,1,Pin_1_1*%
%TO.N,unconnected-(J2-Pin_1-Pad1)*%
X210100000Y-100700000D03*
D13*
%TO.P,J2,2,Pin_2_2*%
%TO.N,GND*%
X210100000Y-103240000D03*
%TO.P,J2,3,Pin_3_3*%
%TO.N,/GPIO13*%
X210100000Y-105780000D03*
%TO.P,J2,4,Pin_4_4*%
%TO.N,/GPIO12*%
X210100000Y-108320000D03*
%TO.P,J2,5,Pin_5_5*%
%TO.N,/GPIO14*%
X210100000Y-110860000D03*
%TO.P,J2,6,Pin_6_6*%
%TO.N,/GPIO27*%
X210100000Y-113400000D03*
%TO.P,J2,7,Pin_7_7*%
%TO.N,/GPIO26*%
X210100000Y-115940000D03*
%TO.P,J2,8,Pin_8_8*%
%TO.N,/GPIO25*%
X210100000Y-118480000D03*
%TO.P,J2,9,Pin_9_9*%
%TO.N,/GPIO33*%
X210100000Y-121020000D03*
%TO.P,J2,10,Pin_10_10*%
%TO.N,/GPIO32*%
X210100000Y-123560000D03*
%TO.P,J2,11,Pin_11_11*%
%TO.N,/GPIO35*%
X210100000Y-126100000D03*
%TO.P,J2,12,Pin_12_12*%
%TO.N,/GPIO34*%
X210100000Y-128640000D03*
%TO.P,J2,13,Pin_13_13*%
%TO.N,unconnected-(J2-Pin_13-Pad13)*%
X210100000Y-131180000D03*
%TO.P,J2,14,Pin_14_14*%
%TO.N,unconnected-(J2-Pin_14-Pad14)*%
X210100000Y-133720000D03*
%TO.P,J2,15,Pin_15_15*%
%TO.N,/EN_ESP32*%
X210100000Y-136260000D03*
%TD*%
D12*
%TO.P,SW1,1,1_1*%
%TO.N,GND*%
X223500000Y-63000000D03*
D13*
%TO.P,SW1,2,2_2*%
%TO.N,/GPIO27*%
X223500000Y-65540000D03*
%TD*%
D17*
%TO.N,GND*%
X220000000Y-135500000D03*
X167000000Y-71000000D03*
X217500000Y-132000000D03*
X162000000Y-139000000D03*
X175500000Y-127000000D03*
X175000000Y-119500000D03*
X169000000Y-120500000D03*
X167000000Y-126000000D03*
X163000000Y-129000000D03*
X162500000Y-124500000D03*
X162000000Y-110000000D03*
X163000000Y-102500000D03*
X172000000Y-107000000D03*
X172500000Y-96500000D03*
X163500000Y-92500000D03*
X171500000Y-89500000D03*
X163000000Y-81500000D03*
X177000000Y-78500000D03*
X171500000Y-80000000D03*
X170500000Y-77000000D03*
X171000000Y-70000000D03*
X172000000Y-71000000D03*
X177500000Y-70500000D03*
X172000000Y-62000000D03*
X174000000Y-58000000D03*
X177500000Y-54000000D03*
X162500000Y-61000000D03*
X162000000Y-49000000D03*
X164000000Y-42000000D03*
X181500000Y-42000000D03*
X187500000Y-63000000D03*
X187500000Y-67000000D03*
X188000000Y-80500000D03*
X188000000Y-92500000D03*
X187500000Y-89500000D03*
X190500000Y-106000000D03*
X189000000Y-105000000D03*
X207500000Y-106000000D03*
X203500000Y-102500000D03*
X201000000Y-70500000D03*
X202500000Y-76000000D03*
X199000000Y-80000000D03*
X210000000Y-66500000D03*
X208000000Y-96500000D03*
X204500000Y-87500000D03*
X193000000Y-73500000D03*
X191000000Y-66000000D03*
X187500000Y-60000000D03*
X188000000Y-43500000D03*
X194000000Y-51000000D03*
X200500000Y-51000000D03*
X210500000Y-60000000D03*
X209500000Y-45000000D03*
X224000000Y-41000000D03*
X240000000Y-48000000D03*
X239500000Y-42000000D03*
X229000000Y-59000000D03*
X217500000Y-60000000D03*
X220500000Y-70500000D03*
X225000000Y-70500000D03*
X230500000Y-70000000D03*
X239500000Y-68500000D03*
X212500000Y-85500000D03*
X217000000Y-82000000D03*
X221000000Y-82500000D03*
X227000000Y-98500000D03*
X230000000Y-85000000D03*
X225500000Y-82500000D03*
X239500000Y-100500000D03*
X237500000Y-105500000D03*
X232500000Y-106000000D03*
X228500000Y-109500000D03*
X223500000Y-103500000D03*
X219000000Y-101500000D03*
X217000000Y-108500000D03*
X220500000Y-110000000D03*
X224000000Y-112500000D03*
X231000000Y-114500000D03*
X239000000Y-119000000D03*
X239000000Y-116500000D03*
X230500000Y-123000000D03*
X230000000Y-117500000D03*
X235000000Y-126500000D03*
X239000000Y-128500000D03*
X239500000Y-139000000D03*
X230000000Y-139000000D03*
X224500000Y-139000000D03*
X213500000Y-137000000D03*
X213500000Y-129000000D03*
%TO.N,/EN_ESP32*%
X210100000Y-139000000D03*
%TO.N,/GPIO12*%
X177213400Y-109131700D03*
%TO.N,/GPIO34*%
X187034400Y-97365400D03*
%TO.N,/GPIO14*%
X201900400Y-96746100D03*
%TO.N,/GPIO23*%
X182962200Y-104002200D03*
%TO.N,/GPIO22*%
X213037000Y-110057700D03*
%TO.N,/GPIO21*%
X221990800Y-103458900D03*
%TO.N,/GPIO19*%
X178144000Y-118273600D03*
%TO.N,/GPIO18*%
X176420200Y-117179100D03*
%TO.N,/GPIO5*%
X186524700Y-98253800D03*
%TO.N,/GPIO17*%
X179436500Y-114231300D03*
%TO.N,/GPIO2*%
X178948300Y-115049600D03*
%TO.N,/GPIO15*%
X170499500Y-125514700D03*
%TD*%
%TO.N,/EN_ESP32*%
D18*
X210100000Y-139000000D02*
X209829500Y-139270500D01*
X209829500Y-139270500D02*
X165690500Y-139270500D01*
X165690500Y-139270500D02*
X163920000Y-137500000D01*
%TO.N,/GPIO35*%
X167728800Y-138768800D02*
X166460000Y-137500000D01*
X209354000Y-138768800D02*
X167728800Y-138768800D01*
X211382100Y-136740700D02*
X209354000Y-138768800D01*
X211382100Y-127382100D02*
X211382100Y-136740700D01*
X210100000Y-126100000D02*
X211382100Y-127382100D01*
%TO.N,/GPIO25*%
X170270000Y-136230000D02*
X169000000Y-137500000D01*
X179676900Y-136230000D02*
X170270000Y-136230000D01*
X180916900Y-134990000D02*
X179676900Y-136230000D01*
X195480000Y-134990000D02*
X180916900Y-134990000D01*
X197883600Y-132586400D02*
X195480000Y-134990000D01*
X197883600Y-130888100D02*
X197883600Y-132586400D01*
X195507900Y-128512400D02*
X197883600Y-130888100D01*
X195507900Y-127543500D02*
X195507900Y-128512400D01*
X204571400Y-118480000D02*
X195507900Y-127543500D01*
X210100000Y-118480000D02*
X204571400Y-118480000D01*
%TO.N,/GPIO26*%
X199143500Y-115940000D02*
X210100000Y-115940000D01*
X185173500Y-129910000D02*
X199143500Y-115940000D01*
X174050000Y-129910000D02*
X185173500Y-129910000D01*
X169000000Y-134960000D02*
X174050000Y-129910000D01*
%TO.N,/GPIO12*%
X179295100Y-107050000D02*
X177213400Y-109131700D01*
X208830000Y-107050000D02*
X179295100Y-107050000D01*
X210100000Y-108320000D02*
X208830000Y-107050000D01*
%TO.N,/GPIO34*%
X173530000Y-85230000D02*
X166000000Y-77700000D01*
X175467200Y-85230000D02*
X173530000Y-85230000D01*
X187034400Y-96797200D02*
X175467200Y-85230000D01*
X187034400Y-97365400D02*
X187034400Y-96797200D01*
%TO.N,/GPIO13*%
X209977300Y-105780000D02*
X210100000Y-105780000D01*
X179357300Y-75160000D02*
X209977300Y-105780000D01*
X166000000Y-75160000D02*
X179357300Y-75160000D01*
X164564600Y-56595400D02*
X166000000Y-55160000D01*
X164564600Y-73724600D02*
X164564600Y-56595400D01*
X166000000Y-75160000D02*
X164564600Y-73724600D01*
%TO.N,/GPIO14*%
X177774300Y-72620000D02*
X166000000Y-72620000D01*
X201900400Y-96746100D02*
X177774300Y-72620000D01*
%TO.N,Net-(J11-Pin_12)*%
X220260000Y-42720000D02*
X235000000Y-42720000D01*
X213025000Y-49955000D02*
X220260000Y-42720000D01*
%TO.N,Net-(J11-Pin_11)*%
X227765000Y-52495000D02*
X235000000Y-45260000D01*
X213025000Y-52495000D02*
X227765000Y-52495000D01*
%TO.N,Net-(J11-Pin_10)*%
X227765000Y-55035000D02*
X235000000Y-47800000D01*
X213025000Y-55035000D02*
X227765000Y-55035000D01*
%TO.N,Net-(J11-Pin_9)*%
X227765000Y-57575000D02*
X235000000Y-50340000D01*
X213025000Y-57575000D02*
X227765000Y-57575000D01*
%TO.N,/GPIO23*%
X182962200Y-103220000D02*
X182962200Y-104002200D01*
X184255500Y-101926700D02*
X182962200Y-103220000D01*
X185737900Y-101926700D02*
X184255500Y-101926700D01*
X185953300Y-101711300D02*
X185737900Y-101926700D01*
X185953300Y-99680000D02*
X185953300Y-101711300D01*
X177853300Y-91580000D02*
X185953300Y-99680000D01*
X175000000Y-91580000D02*
X177853300Y-91580000D01*
%TO.N,/GPIO22*%
X230255000Y-134125000D02*
X223665000Y-134125000D01*
X235000000Y-129380000D02*
X230255000Y-134125000D01*
X172780000Y-133720000D02*
X184700000Y-133720000D01*
X171540000Y-134960000D02*
X172780000Y-133720000D01*
X195050000Y-133720000D02*
X184700000Y-133720000D01*
X196695000Y-132075000D02*
X195050000Y-133720000D01*
X213037000Y-117210000D02*
X213037000Y-110057700D01*
X222830000Y-117210000D02*
X213037000Y-117210000D01*
X235000000Y-129380000D02*
X222830000Y-117210000D01*
X195006200Y-130386200D02*
X196695000Y-132075000D01*
X195006200Y-127335600D02*
X195006200Y-130386200D01*
X205131800Y-117210000D02*
X195006200Y-127335600D01*
X213037000Y-117210000D02*
X205131800Y-117210000D01*
%TO.N,/ESP32-TX0*%
X167730000Y-136230000D02*
X166460000Y-134960000D01*
X169544800Y-136230000D02*
X167730000Y-136230000D01*
X170270000Y-135504800D02*
X169544800Y-136230000D01*
X170270000Y-134495300D02*
X170270000Y-135504800D01*
X173585300Y-131180000D02*
X170270000Y-134495300D01*
X184700000Y-131180000D02*
X173585300Y-131180000D01*
%TO.N,/ESP32-RX0*%
X170240000Y-128640000D02*
X184700000Y-128640000D01*
X163920000Y-134960000D02*
X170240000Y-128640000D01*
%TO.N,/GPIO21*%
X221990800Y-101570800D02*
X221990800Y-103458900D01*
X217500000Y-97080000D02*
X221990800Y-101570800D01*
X222558800Y-135558800D02*
X221125000Y-134125000D01*
X231361200Y-135558800D02*
X222558800Y-135558800D01*
X235000000Y-131920000D02*
X231361200Y-135558800D01*
X211830000Y-124830000D02*
X221125000Y-134125000D01*
X199890000Y-124830000D02*
X211830000Y-124830000D01*
X196695000Y-128025000D02*
X199890000Y-124830000D01*
X176560000Y-117960000D02*
X184700000Y-126100000D01*
X164500000Y-117960000D02*
X176560000Y-117960000D01*
%TO.N,/GPIO19*%
X179413600Y-118273600D02*
X184700000Y-123560000D01*
X178144000Y-118273600D02*
X179413600Y-118273600D01*
%TO.N,/GPIO18*%
X180859100Y-117179100D02*
X184700000Y-121020000D01*
X176420200Y-117179100D02*
X180859100Y-117179100D01*
%TO.N,/GPIO5*%
X186524700Y-98253700D02*
X186524700Y-98253800D01*
X187122800Y-98253700D02*
X186524700Y-98253700D01*
X187720300Y-97656200D02*
X187122800Y-98253700D01*
X187720300Y-96680300D02*
X187720300Y-97656200D01*
X175000000Y-83960000D02*
X187720300Y-96680300D01*
%TO.N,/GPIO17*%
X181145200Y-115940000D02*
X184700000Y-115940000D01*
X179436500Y-114231300D02*
X181145200Y-115940000D01*
%TO.N,/GPIO2*%
X178759800Y-114861100D02*
X178948300Y-115049600D01*
X178759800Y-113951000D02*
X178759800Y-114861100D01*
X184390800Y-108320000D02*
X178759800Y-113951000D01*
X184700000Y-108320000D02*
X184390800Y-108320000D01*
%TO.N,/GPIO15*%
X170499400Y-125514700D02*
X170499500Y-125514700D01*
X170499400Y-124753500D02*
X170499400Y-125514700D01*
X164975900Y-119230000D02*
X170499400Y-124753500D01*
X164012600Y-119230000D02*
X164975900Y-119230000D01*
X163225600Y-118443000D02*
X164012600Y-119230000D01*
X163225600Y-117470200D02*
X163225600Y-118443000D01*
X164005800Y-116690000D02*
X163225600Y-117470200D01*
X168629200Y-116690000D02*
X164005800Y-116690000D01*
X179539200Y-105780000D02*
X168629200Y-116690000D01*
X184700000Y-105780000D02*
X179539200Y-105780000D01*
%TO.N,/GPIO4*%
X232080000Y-116000000D02*
X235000000Y-118920000D01*
X224500000Y-116000000D02*
X232080000Y-116000000D01*
X185970000Y-109590000D02*
X184700000Y-110860000D01*
X212547700Y-109590000D02*
X185970000Y-109590000D01*
X212756700Y-109381000D02*
X212547700Y-109590000D01*
X217881000Y-109381000D02*
X212756700Y-109381000D01*
X224500000Y-116000000D02*
X217881000Y-109381000D01*
%TO.N,/3.3V*%
D19*
X170918300Y-112880000D02*
X183098300Y-100700000D01*
X164500000Y-112880000D02*
X170918300Y-112880000D01*
X184700000Y-100700000D02*
X183098300Y-100700000D01*
X183698300Y-67540000D02*
X166000000Y-67540000D01*
X186498300Y-70340000D02*
X183698300Y-67540000D01*
X188100000Y-70340000D02*
X186498300Y-70340000D01*
X166339000Y-44661000D02*
X166000000Y-45000000D01*
X183269300Y-44661000D02*
X166339000Y-44661000D01*
X186023300Y-47415000D02*
X183269300Y-44661000D01*
X187625000Y-47415000D02*
X186023300Y-47415000D01*
X226050200Y-104550200D02*
X235000000Y-113500000D01*
X226050200Y-103090200D02*
X226050200Y-104550200D01*
X217500000Y-94540000D02*
X226050200Y-103090200D01*
X172120000Y-94120000D02*
X166500000Y-88500000D01*
X175000000Y-94120000D02*
X172120000Y-94120000D01*
X218920000Y-137000000D02*
X235000000Y-137000000D01*
X216045000Y-134125000D02*
X218920000Y-137000000D01*
X176518300Y-94120000D02*
X183098300Y-100700000D01*
X175000000Y-94120000D02*
X176518300Y-94120000D01*
X193300000Y-70340000D02*
X217500000Y-94540000D01*
X188100000Y-70340000D02*
X193300000Y-70340000D01*
%TO.N,Net-(J12-Pin_12)*%
D18*
X232820000Y-72880000D02*
X235000000Y-75060000D01*
X213500000Y-72880000D02*
X232820000Y-72880000D01*
%TO.N,Net-(J12-Pin_11)*%
X232820000Y-75420000D02*
X235000000Y-77600000D01*
X213500000Y-75420000D02*
X232820000Y-75420000D01*
%TO.N,Net-(J12-Pin_10)*%
X232820000Y-77960000D02*
X235000000Y-80140000D01*
X213500000Y-77960000D02*
X232820000Y-77960000D01*
%TO.N,Net-(J12-Pin_9)*%
X232820000Y-80500000D02*
X235000000Y-82680000D01*
X213500000Y-80500000D02*
X232820000Y-80500000D01*
%TD*%
%TA.AperFunction,Conductor*%
%TO.N,GND*%
G36*
X240442539Y-40520185D02*
G01*
X240488294Y-40572989D01*
X240499500Y-40624500D01*
X240499500Y-139375500D01*
X240479815Y-139442539D01*
X240427011Y-139488294D01*
X240375500Y-139499500D01*
X212124000Y-139499500D01*
X212056961Y-139479815D01*
X212011206Y-139427011D01*
X212000000Y-139375500D01*
X212000000Y-136852730D01*
X212000112Y-136847463D01*
X212000517Y-136837914D01*
X212007601Y-136802306D01*
X212007601Y-136679093D01*
X212007600Y-136679087D01*
X212007600Y-127320494D01*
X212002382Y-127294259D01*
X212000000Y-127270070D01*
X212000000Y-126183952D01*
X212019685Y-126116913D01*
X212072489Y-126071158D01*
X212141647Y-126061214D01*
X212205203Y-126090239D01*
X212211681Y-126096271D01*
X218530936Y-132415526D01*
X218564421Y-132476849D01*
X218559437Y-132546541D01*
X218517565Y-132602474D01*
X218462653Y-132625680D01*
X218233752Y-132661934D01*
X218009197Y-132734897D01*
X217798830Y-132842084D01*
X217715894Y-132902340D01*
X218373941Y-133560387D01*
X218353409Y-133565889D01*
X218216592Y-133644881D01*
X218104881Y-133756592D01*
X218025889Y-133893409D01*
X218020387Y-133913941D01*
X217581818Y-133475372D01*
X217548333Y-133414049D01*
X217545499Y-133387691D01*
X217545499Y-133324998D01*
X217545498Y-133324981D01*
X217534999Y-133222203D01*
X217534998Y-133222200D01*
X217528168Y-133201588D01*
X217479814Y-133055666D01*
X217387712Y-132906344D01*
X217263656Y-132782288D01*
X217140675Y-132706433D01*
X217114336Y-132690187D01*
X217114331Y-132690185D01*
X217112862Y-132689698D01*
X216947797Y-132635001D01*
X216947795Y-132635000D01*
X216845010Y-132624500D01*
X215244998Y-132624500D01*
X215244981Y-132624501D01*
X215142203Y-132635000D01*
X215142200Y-132635001D01*
X214975668Y-132690185D01*
X214975663Y-132690187D01*
X214826342Y-132782289D01*
X214702289Y-132906342D01*
X214610187Y-133055663D01*
X214610185Y-133055668D01*
X214582881Y-133138067D01*
X214555001Y-133222203D01*
X214555001Y-133222204D01*
X214555000Y-133222204D01*
X214544500Y-133324983D01*
X214544500Y-134925001D01*
X214544501Y-134925018D01*
X214555000Y-135027796D01*
X214555001Y-135027799D01*
X214610185Y-135194331D01*
X214610186Y-135194334D01*
X214702288Y-135343656D01*
X214826344Y-135467712D01*
X214975666Y-135559814D01*
X215142203Y-135614999D01*
X215244991Y-135625500D01*
X216079217Y-135625499D01*
X216146256Y-135645183D01*
X216166898Y-135661818D01*
X218139735Y-137634655D01*
X218139764Y-137634686D01*
X218282214Y-137777136D01*
X218282218Y-137777139D01*
X218446079Y-137886628D01*
X218446092Y-137886635D01*
X218574833Y-137939961D01*
X218617744Y-137957735D01*
X218628164Y-137962051D01*
X218724812Y-137981275D01*
X218773135Y-137990887D01*
X218821458Y-138000500D01*
X218821459Y-138000500D01*
X218821460Y-138000500D01*
X219018540Y-138000500D01*
X233454092Y-138000500D01*
X233521131Y-138020185D01*
X233559636Y-138064271D01*
X233561395Y-138063187D01*
X233565185Y-138069331D01*
X233565186Y-138069334D01*
X233657288Y-138218656D01*
X233781344Y-138342712D01*
X233930666Y-138434814D01*
X234097203Y-138489999D01*
X234199991Y-138500500D01*
X235800008Y-138500499D01*
X235902797Y-138489999D01*
X236069334Y-138434814D01*
X236218656Y-138342712D01*
X236342712Y-138218656D01*
X236434814Y-138069334D01*
X236489999Y-137902797D01*
X236500500Y-137800009D01*
X236500499Y-136199992D01*
X236489999Y-136097203D01*
X236434814Y-135930666D01*
X236342712Y-135781344D01*
X236218656Y-135657288D01*
X236107218Y-135588553D01*
X236069336Y-135565187D01*
X236069331Y-135565185D01*
X236036253Y-135554224D01*
X235902797Y-135510001D01*
X235902795Y-135510000D01*
X235800016Y-135499500D01*
X235737308Y-135499500D01*
X235670269Y-135479815D01*
X235649627Y-135463181D01*
X235211059Y-135024612D01*
X235231591Y-135019111D01*
X235368408Y-134940119D01*
X235480119Y-134828408D01*
X235559111Y-134691591D01*
X235564612Y-134671058D01*
X236222658Y-135329105D01*
X236222658Y-135329104D01*
X236282914Y-135246169D01*
X236282918Y-135246163D01*
X236390102Y-135035802D01*
X236463065Y-134811247D01*
X236500000Y-134578052D01*
X236500000Y-134341947D01*
X236463065Y-134108752D01*
X236390102Y-133884197D01*
X236282914Y-133673828D01*
X236222658Y-133590894D01*
X236222658Y-133590893D01*
X235564612Y-134248940D01*
X235559111Y-134228409D01*
X235480119Y-134091592D01*
X235368408Y-133979881D01*
X235231591Y-133900889D01*
X235211058Y-133895387D01*
X235869105Y-133237340D01*
X235867551Y-133217594D01*
X235881915Y-133149216D01*
X235918284Y-133107547D01*
X235921615Y-133105127D01*
X235977510Y-133064517D01*
X236144517Y-132897510D01*
X236283343Y-132706433D01*
X236390568Y-132495992D01*
X236463553Y-132271368D01*
X236478444Y-132177352D01*
X236500500Y-132038097D01*
X236500500Y-131801902D01*
X236463553Y-131568631D01*
X236390566Y-131344003D01*
X236283342Y-131133566D01*
X236144517Y-130942490D01*
X235977510Y-130775483D01*
X235942872Y-130750317D01*
X235900207Y-130694989D01*
X235894228Y-130625375D01*
X235926833Y-130563580D01*
X235942873Y-130549682D01*
X235977510Y-130524517D01*
X236144517Y-130357510D01*
X236283343Y-130166433D01*
X236390568Y-129955992D01*
X236463553Y-129731368D01*
X236473256Y-129670104D01*
X236500500Y-129498097D01*
X236500500Y-129261902D01*
X236463553Y-129028631D01*
X236412731Y-128872219D01*
X236390568Y-128804008D01*
X236390566Y-128804005D01*
X236390566Y-128804003D01*
X236283342Y-128593566D01*
X236239856Y-128533713D01*
X236144517Y-128402490D01*
X235977510Y-128235483D01*
X235786433Y-128096657D01*
X235764899Y-128085685D01*
X235575996Y-127989433D01*
X235351368Y-127916446D01*
X235118097Y-127879500D01*
X235118092Y-127879500D01*
X234881908Y-127879500D01*
X234881903Y-127879500D01*
X234648630Y-127916447D01*
X234549119Y-127948780D01*
X234479277Y-127950775D01*
X234423120Y-127918530D01*
X223934982Y-117430392D01*
X223901497Y-117369069D01*
X223906481Y-117299377D01*
X223948353Y-117243444D01*
X224013817Y-117219027D01*
X224060979Y-117224779D01*
X224121094Y-117244312D01*
X224195465Y-117268477D01*
X224277354Y-117281447D01*
X224397648Y-117300500D01*
X224397649Y-117300500D01*
X224602351Y-117300500D01*
X224602352Y-117300500D01*
X224804534Y-117268477D01*
X224999219Y-117205220D01*
X225181610Y-117112287D01*
X225274590Y-117044732D01*
X225347213Y-116991971D01*
X225347215Y-116991968D01*
X225347219Y-116991966D01*
X225491966Y-116847219D01*
X225491968Y-116847215D01*
X225491971Y-116847213D01*
X225615151Y-116677669D01*
X225616823Y-116678884D01*
X225662208Y-116637831D01*
X225716115Y-116625500D01*
X231769548Y-116625500D01*
X231836587Y-116645185D01*
X231857229Y-116661819D01*
X233538529Y-118343120D01*
X233572014Y-118404443D01*
X233568779Y-118469118D01*
X233536447Y-118568628D01*
X233499500Y-118801902D01*
X233499500Y-119038097D01*
X233536446Y-119271368D01*
X233609433Y-119495996D01*
X233715190Y-119703553D01*
X233716657Y-119706433D01*
X233855483Y-119897510D01*
X234022490Y-120064517D01*
X234081716Y-120107547D01*
X234124381Y-120162875D01*
X234132448Y-120217593D01*
X234130893Y-120237340D01*
X234788941Y-120895387D01*
X234768409Y-120900889D01*
X234631592Y-120979881D01*
X234519881Y-121091592D01*
X234440889Y-121228409D01*
X234435387Y-121248941D01*
X233777340Y-120590894D01*
X233717084Y-120673830D01*
X233609897Y-120884197D01*
X233536934Y-121108752D01*
X233500000Y-121341947D01*
X233500000Y-121578052D01*
X233536934Y-121811247D01*
X233609897Y-122035802D01*
X233717087Y-122246174D01*
X233777338Y-122329104D01*
X233777340Y-122329105D01*
X234435387Y-121671058D01*
X234440889Y-121691591D01*
X234519881Y-121828408D01*
X234631592Y-121940119D01*
X234768409Y-122019111D01*
X234788940Y-122024612D01*
X234350371Y-122463181D01*
X234289048Y-122496666D01*
X234262692Y-122499500D01*
X234199999Y-122499500D01*
X234199980Y-122499501D01*
X234097203Y-122510000D01*
X234097200Y-122510001D01*
X233930668Y-122565185D01*
X233930663Y-122565187D01*
X233781342Y-122657289D01*
X233657289Y-122781342D01*
X233565187Y-122930663D01*
X233565186Y-122930666D01*
X233510001Y-123097203D01*
X233510001Y-123097204D01*
X233510000Y-123097204D01*
X233499500Y-123199983D01*
X233499500Y-124800001D01*
X233499501Y-124800018D01*
X233510000Y-124902796D01*
X233510001Y-124902799D01*
X233565185Y-125069331D01*
X233565187Y-125069336D01*
X233566001Y-125070655D01*
X233657288Y-125218656D01*
X233781344Y-125342712D01*
X233930666Y-125434814D01*
X234097203Y-125489999D01*
X234199991Y-125500500D01*
X235800008Y-125500499D01*
X235902797Y-125489999D01*
X236069334Y-125434814D01*
X236218656Y-125342712D01*
X236342712Y-125218656D01*
X236434814Y-125069334D01*
X236489999Y-124902797D01*
X236500500Y-124800009D01*
X236500499Y-123199992D01*
X236489999Y-123097203D01*
X236434814Y-122930666D01*
X236342712Y-122781344D01*
X236218656Y-122657288D01*
X236069334Y-122565186D01*
X235902797Y-122510001D01*
X235902795Y-122510000D01*
X235800016Y-122499500D01*
X235737308Y-122499500D01*
X235670269Y-122479815D01*
X235649627Y-122463181D01*
X235211059Y-122024612D01*
X235231591Y-122019111D01*
X235368408Y-121940119D01*
X235480119Y-121828408D01*
X235559111Y-121691591D01*
X235564612Y-121671058D01*
X236222658Y-122329105D01*
X236222658Y-122329104D01*
X236282914Y-122246169D01*
X236282918Y-122246163D01*
X236390102Y-122035802D01*
X236463065Y-121811247D01*
X236500000Y-121578052D01*
X236500000Y-121341947D01*
X236463065Y-121108752D01*
X236390102Y-120884197D01*
X236282914Y-120673828D01*
X236222658Y-120590894D01*
X236222658Y-120590893D01*
X235564612Y-121248940D01*
X235559111Y-121228409D01*
X235480119Y-121091592D01*
X235368408Y-120979881D01*
X235231591Y-120900889D01*
X235211059Y-120895387D01*
X235869105Y-120237340D01*
X235867551Y-120217594D01*
X235881915Y-120149216D01*
X235918284Y-120107547D01*
X235977510Y-120064517D01*
X236144517Y-119897510D01*
X236283343Y-119706433D01*
X236390568Y-119495992D01*
X236463553Y-119271368D01*
X236476786Y-119187819D01*
X236500500Y-119038097D01*
X236500500Y-118801902D01*
X236463553Y-118568631D01*
X236429689Y-118464412D01*
X236390568Y-118344008D01*
X236390566Y-118344005D01*
X236390566Y-118344003D01*
X236298727Y-118163760D01*
X236283343Y-118133567D01*
X236144517Y-117942490D01*
X235977510Y-117775483D01*
X235786433Y-117636657D01*
X235714898Y-117600208D01*
X235575996Y-117529433D01*
X235351368Y-117456446D01*
X235118097Y-117419500D01*
X235118092Y-117419500D01*
X234881908Y-117419500D01*
X234881903Y-117419500D01*
X234648628Y-117456447D01*
X234549118Y-117488779D01*
X234479276Y-117490774D01*
X234423120Y-117458529D01*
X232575822Y-115611232D01*
X232565859Y-115601269D01*
X232565858Y-115601267D01*
X232478733Y-115514142D01*
X232427509Y-115479915D01*
X232376286Y-115445688D01*
X232376283Y-115445686D01*
X232376280Y-115445685D01*
X232302758Y-115415232D01*
X232302755Y-115415231D01*
X232295792Y-115412347D01*
X232262452Y-115398537D01*
X232197859Y-115385689D01*
X232193292Y-115384780D01*
X232193290Y-115384780D01*
X232141608Y-115374500D01*
X232141607Y-115374500D01*
X232141606Y-115374500D01*
X225716115Y-115374500D01*
X225649076Y-115354815D01*
X225616393Y-115321428D01*
X225615151Y-115322331D01*
X225491971Y-115152786D01*
X225347213Y-115008028D01*
X225181613Y-114887715D01*
X225181612Y-114887714D01*
X225181610Y-114887713D01*
X225093287Y-114842710D01*
X224999223Y-114794781D01*
X224804534Y-114731522D01*
X224629995Y-114703878D01*
X224602352Y-114699500D01*
X224397648Y-114699500D01*
X224317597Y-114712179D01*
X224190654Y-114732285D01*
X224190333Y-114730262D01*
X224129120Y-114727149D01*
X224082371Y-114697781D01*
X218376822Y-108992232D01*
X218366859Y-108982269D01*
X218366858Y-108982267D01*
X218279733Y-108895142D01*
X218228509Y-108860915D01*
X218177286Y-108826688D01*
X218177283Y-108826686D01*
X218177280Y-108826685D01*
X218103603Y-108796168D01*
X218103601Y-108796167D01*
X218096792Y-108793347D01*
X218063452Y-108779537D01*
X218003029Y-108767518D01*
X217998306Y-108766578D01*
X217998304Y-108766578D01*
X217942610Y-108755500D01*
X217942607Y-108755500D01*
X217942606Y-108755500D01*
X212824441Y-108755500D01*
X212824421Y-108755499D01*
X212818307Y-108755499D01*
X212695094Y-108755499D01*
X212594297Y-108775548D01*
X212594292Y-108775548D01*
X212574249Y-108779536D01*
X212539539Y-108793914D01*
X212539538Y-108793914D01*
X212460421Y-108826684D01*
X212460408Y-108826691D01*
X212357967Y-108895141D01*
X212357963Y-108895144D01*
X212324929Y-108928180D01*
X212263607Y-108961666D01*
X212237247Y-108964500D01*
X211481260Y-108964500D01*
X211414221Y-108944815D01*
X211368466Y-108892011D01*
X211358522Y-108822853D01*
X211363329Y-108802182D01*
X211370687Y-108779536D01*
X211417246Y-108636243D01*
X211450500Y-108426287D01*
X211450500Y-108213713D01*
X211417246Y-108003757D01*
X211351557Y-107801588D01*
X211255051Y-107612184D01*
X211255049Y-107612181D01*
X211255048Y-107612179D01*
X211130109Y-107440213D01*
X210979786Y-107289890D01*
X210807820Y-107164951D01*
X210807115Y-107164591D01*
X210799054Y-107160485D01*
X210748259Y-107112512D01*
X210731463Y-107044692D01*
X210753999Y-106978556D01*
X210799054Y-106939515D01*
X210807816Y-106935051D01*
X210829789Y-106919086D01*
X210979786Y-106810109D01*
X210979788Y-106810106D01*
X210979792Y-106810104D01*
X211130104Y-106659792D01*
X211130106Y-106659788D01*
X211130109Y-106659786D01*
X211255048Y-106487820D01*
X211255047Y-106487820D01*
X211255051Y-106487816D01*
X211351557Y-106298412D01*
X211417246Y-106096243D01*
X211450500Y-105886287D01*
X211450500Y-105673713D01*
X211417246Y-105463757D01*
X211351557Y-105261588D01*
X211255051Y-105072184D01*
X211255049Y-105072181D01*
X211255048Y-105072179D01*
X211130109Y-104900213D01*
X210979786Y-104749890D01*
X210807817Y-104624949D01*
X210798504Y-104620204D01*
X210747707Y-104572230D01*
X210730912Y-104504409D01*
X210753449Y-104438274D01*
X210798507Y-104399232D01*
X210807555Y-104394622D01*
X210861716Y-104355270D01*
X210861717Y-104355270D01*
X210229408Y-103722962D01*
X210292993Y-103705925D01*
X210407007Y-103640099D01*
X210500099Y-103547007D01*
X210565925Y-103432993D01*
X210582962Y-103369408D01*
X211215270Y-104001717D01*
X211215270Y-104001716D01*
X211254622Y-103947554D01*
X211351095Y-103758217D01*
X211416757Y-103556130D01*
X211416757Y-103556127D01*
X211450000Y-103346246D01*
X211450000Y-103133753D01*
X211416757Y-102923872D01*
X211416757Y-102923869D01*
X211351095Y-102721782D01*
X211254624Y-102532449D01*
X211215270Y-102478282D01*
X211215269Y-102478282D01*
X210582962Y-103110590D01*
X210565925Y-103047007D01*
X210500099Y-102932993D01*
X210407007Y-102839901D01*
X210292993Y-102774075D01*
X210229409Y-102757037D01*
X210899627Y-102086818D01*
X210960950Y-102053333D01*
X210987307Y-102050499D01*
X210997872Y-102050499D01*
X211057483Y-102044091D01*
X211192331Y-101993796D01*
X211307546Y-101907546D01*
X211393796Y-101792331D01*
X211444091Y-101657483D01*
X211450500Y-101597873D01*
X211450499Y-99802128D01*
X211444091Y-99742517D01*
X211422458Y-99684517D01*
X211393797Y-99607671D01*
X211393793Y-99607664D01*
X211307547Y-99492455D01*
X211307544Y-99492452D01*
X211192335Y-99406206D01*
X211192328Y-99406202D01*
X211057482Y-99355908D01*
X211057483Y-99355908D01*
X210997883Y-99349501D01*
X210997881Y-99349500D01*
X210997873Y-99349500D01*
X210997864Y-99349500D01*
X209202129Y-99349500D01*
X209202123Y-99349501D01*
X209142516Y-99355908D01*
X209007671Y-99406202D01*
X209007664Y-99406206D01*
X208892455Y-99492452D01*
X208892452Y-99492455D01*
X208806206Y-99607664D01*
X208806202Y-99607671D01*
X208755908Y-99742517D01*
X208749501Y-99802116D01*
X208749501Y-99802123D01*
X208749500Y-99802135D01*
X208749500Y-101597870D01*
X208749501Y-101597876D01*
X208755908Y-101657483D01*
X208806202Y-101792328D01*
X208806206Y-101792335D01*
X208892452Y-101907544D01*
X208892455Y-101907547D01*
X209007664Y-101993793D01*
X209007671Y-101993797D01*
X209044639Y-102007585D01*
X209142517Y-102044091D01*
X209202127Y-102050500D01*
X209212685Y-102050499D01*
X209279723Y-102070179D01*
X209300372Y-102086818D01*
X209970591Y-102757037D01*
X209907007Y-102774075D01*
X209792993Y-102839901D01*
X209699901Y-102932993D01*
X209634075Y-103047007D01*
X209617037Y-103110591D01*
X208984728Y-102478282D01*
X208984727Y-102478282D01*
X208945380Y-102532439D01*
X208848904Y-102721782D01*
X208783242Y-102923869D01*
X208783242Y-102923872D01*
X208750000Y-103133753D01*
X208750000Y-103346245D01*
X208750872Y-103351753D01*
X208741914Y-103421046D01*
X208696916Y-103474496D01*
X208630164Y-103495133D01*
X208562851Y-103476405D01*
X208540717Y-103458827D01*
X202517915Y-97436025D01*
X202484430Y-97374702D01*
X202489414Y-97305010D01*
X202517920Y-97260658D01*
X202522189Y-97256389D01*
X202609794Y-97125279D01*
X202670137Y-96979597D01*
X202700900Y-96824942D01*
X202700900Y-96667258D01*
X202700900Y-96667255D01*
X202700899Y-96667253D01*
X202690455Y-96614749D01*
X202670137Y-96512603D01*
X202631573Y-96419500D01*
X202609797Y-96366927D01*
X202609790Y-96366914D01*
X202522189Y-96235811D01*
X202522186Y-96235807D01*
X202410692Y-96124313D01*
X202410688Y-96124310D01*
X202279585Y-96036709D01*
X202279572Y-96036702D01*
X202133901Y-95976364D01*
X202133889Y-95976361D01*
X202022685Y-95954241D01*
X201960774Y-95921856D01*
X201959195Y-95920305D01*
X178267680Y-72228790D01*
X178260160Y-72221270D01*
X178260158Y-72221267D01*
X178173033Y-72134142D01*
X178114175Y-72094814D01*
X178107783Y-72090543D01*
X178107781Y-72090541D01*
X178070587Y-72065689D01*
X178070586Y-72065688D01*
X178070583Y-72065686D01*
X178070580Y-72065685D01*
X177997840Y-72035556D01*
X177997838Y-72035555D01*
X177990092Y-72032347D01*
X177956752Y-72018537D01*
X177864603Y-72000208D01*
X177860889Y-71999469D01*
X177860873Y-71999465D01*
X177835909Y-71994500D01*
X177835907Y-71994500D01*
X177835906Y-71994500D01*
X167441330Y-71994500D01*
X167374291Y-71974815D01*
X167330845Y-71926795D01*
X167283342Y-71833566D01*
X167277373Y-71825350D01*
X167144517Y-71642490D01*
X166977510Y-71475483D01*
X166918282Y-71432451D01*
X166875617Y-71377122D01*
X166867550Y-71322404D01*
X166869104Y-71302657D01*
X166211059Y-70644612D01*
X166231591Y-70639111D01*
X166368408Y-70560119D01*
X166480119Y-70448408D01*
X166559111Y-70311591D01*
X166564612Y-70291058D01*
X167222658Y-70949105D01*
X167222658Y-70949104D01*
X167282914Y-70866169D01*
X167282918Y-70866163D01*
X167390102Y-70655802D01*
X167463065Y-70431247D01*
X167500000Y-70198052D01*
X167500000Y-69961947D01*
X167463065Y-69728752D01*
X167390102Y-69504197D01*
X167282914Y-69293828D01*
X167222658Y-69210894D01*
X167222658Y-69210893D01*
X166564612Y-69868940D01*
X166559111Y-69848409D01*
X166480119Y-69711592D01*
X166368408Y-69599881D01*
X166231591Y-69520889D01*
X166211058Y-69515387D01*
X166869105Y-68857340D01*
X166867551Y-68837594D01*
X166868345Y-68833813D01*
X166867190Y-68830129D01*
X166875468Y-68799902D01*
X166881915Y-68769216D01*
X166884922Y-68765385D01*
X166885647Y-68762741D01*
X166894462Y-68753235D01*
X166908269Y-68735650D01*
X166913060Y-68731342D01*
X166977510Y-68684517D01*
X167087543Y-68574483D01*
X167089989Y-68572285D01*
X167118649Y-68558558D01*
X167146531Y-68543334D01*
X167151568Y-68542792D01*
X167153004Y-68542105D01*
X167155294Y-68542391D01*
X167172889Y-68540500D01*
X183232518Y-68540500D01*
X183299557Y-68560185D01*
X183320199Y-68576819D01*
X185718035Y-70974655D01*
X185718064Y-70974686D01*
X185860514Y-71117136D01*
X185860518Y-71117139D01*
X186024379Y-71226628D01*
X186024392Y-71226635D01*
X186153133Y-71279961D01*
X186196044Y-71297735D01*
X186206464Y-71302051D01*
X186303112Y-71321275D01*
X186351435Y-71330887D01*
X186399758Y-71340500D01*
X186399759Y-71340500D01*
X186399760Y-71340500D01*
X186596840Y-71340500D01*
X186685859Y-71340500D01*
X186752898Y-71360185D01*
X186798653Y-71412989D01*
X186802030Y-71421140D01*
X186806204Y-71432331D01*
X186806205Y-71432332D01*
X186806206Y-71432335D01*
X186892452Y-71547544D01*
X186892455Y-71547547D01*
X187007664Y-71633793D01*
X187007671Y-71633797D01*
X187139082Y-71682810D01*
X187195016Y-71724681D01*
X187219433Y-71790145D01*
X187204582Y-71858418D01*
X187183431Y-71886673D01*
X187069889Y-72000215D01*
X186944951Y-72172179D01*
X186848444Y-72361585D01*
X186782753Y-72563760D01*
X186749500Y-72773713D01*
X186749500Y-72986287D01*
X186782754Y-73196243D01*
X186820757Y-73313205D01*
X186848444Y-73398414D01*
X186944951Y-73587820D01*
X187069890Y-73759786D01*
X187220213Y-73910109D01*
X187392182Y-74035050D01*
X187400946Y-74039516D01*
X187451742Y-74087491D01*
X187468536Y-74155312D01*
X187445998Y-74221447D01*
X187400946Y-74260484D01*
X187392182Y-74264949D01*
X187220213Y-74389890D01*
X187069890Y-74540213D01*
X186944951Y-74712179D01*
X186848444Y-74901585D01*
X186782753Y-75103760D01*
X186755142Y-75278092D01*
X186749500Y-75313713D01*
X186749500Y-75526287D01*
X186782754Y-75736243D01*
X186820757Y-75853205D01*
X186848444Y-75938414D01*
X186944951Y-76127820D01*
X187069890Y-76299786D01*
X187220213Y-76450109D01*
X187392179Y-76575048D01*
X187392181Y-76575049D01*
X187392184Y-76575051D01*
X187401493Y-76579794D01*
X187452290Y-76627766D01*
X187469087Y-76695587D01*
X187446552Y-76761722D01*
X187401505Y-76800760D01*
X187392446Y-76805376D01*
X187392440Y-76805380D01*
X187338282Y-76844727D01*
X187338282Y-76844728D01*
X187970591Y-77477037D01*
X187907007Y-77494075D01*
X187792993Y-77559901D01*
X187699901Y-77652993D01*
X187634075Y-77767007D01*
X187617037Y-77830591D01*
X186984728Y-77198282D01*
X186984727Y-77198282D01*
X186945380Y-77252439D01*
X186848904Y-77441782D01*
X186783242Y-77643869D01*
X186783242Y-77643872D01*
X186750000Y-77853753D01*
X186750000Y-78066246D01*
X186783242Y-78276127D01*
X186783242Y-78276130D01*
X186848904Y-78478217D01*
X186945375Y-78667550D01*
X186984728Y-78721716D01*
X187617037Y-78089408D01*
X187634075Y-78152993D01*
X187699901Y-78267007D01*
X187792993Y-78360099D01*
X187907007Y-78425925D01*
X187970590Y-78442962D01*
X187338282Y-79075269D01*
X187338282Y-79075270D01*
X187392449Y-79114624D01*
X187581782Y-79211095D01*
X187783870Y-79276757D01*
X187993754Y-79310000D01*
X188206246Y-79310000D01*
X188416127Y-79276757D01*
X188416130Y-79276757D01*
X188618217Y-79211095D01*
X188807554Y-79114622D01*
X188861716Y-79075270D01*
X188861717Y-79075270D01*
X188229408Y-78442962D01*
X188292993Y-78425925D01*
X188407007Y-78360099D01*
X188500099Y-78267007D01*
X188565925Y-78152993D01*
X188582962Y-78089409D01*
X189215270Y-78721717D01*
X189215270Y-78721716D01*
X189254622Y-78667554D01*
X189351095Y-78478217D01*
X189416757Y-78276130D01*
X189416757Y-78276127D01*
X189450000Y-78066246D01*
X189450000Y-77853753D01*
X189416757Y-77643872D01*
X189416757Y-77643869D01*
X189351095Y-77441782D01*
X189254624Y-77252449D01*
X189215270Y-77198282D01*
X189215269Y-77198282D01*
X188582962Y-77830590D01*
X188565925Y-77767007D01*
X188500099Y-77652993D01*
X188407007Y-77559901D01*
X188292993Y-77494075D01*
X188229409Y-77477037D01*
X188861716Y-76844728D01*
X188807547Y-76805373D01*
X188807547Y-76805372D01*
X188798500Y-76800763D01*
X188747706Y-76752788D01*
X188730912Y-76684966D01*
X188753451Y-76618832D01*
X188798508Y-76579793D01*
X188807816Y-76575051D01*
X188888514Y-76516421D01*
X188979786Y-76450109D01*
X188979788Y-76450106D01*
X188979792Y-76450104D01*
X189130104Y-76299792D01*
X189130106Y-76299788D01*
X189130109Y-76299786D01*
X189255048Y-76127820D01*
X189255049Y-76127819D01*
X189255051Y-76127816D01*
X189351557Y-75938412D01*
X189417246Y-75736243D01*
X189450500Y-75526287D01*
X189450500Y-75313713D01*
X189417246Y-75103757D01*
X189351557Y-74901588D01*
X189255051Y-74712184D01*
X189255049Y-74712181D01*
X189255048Y-74712179D01*
X189130109Y-74540213D01*
X188979786Y-74389890D01*
X188807820Y-74264951D01*
X188807115Y-74264591D01*
X188799054Y-74260485D01*
X188748259Y-74212512D01*
X188731463Y-74144692D01*
X188753999Y-74078556D01*
X188799054Y-74039515D01*
X188807816Y-74035051D01*
X188829789Y-74019086D01*
X188979786Y-73910109D01*
X188979788Y-73910106D01*
X188979792Y-73910104D01*
X189130104Y-73759792D01*
X189130106Y-73759788D01*
X189130109Y-73759786D01*
X189255048Y-73587820D01*
X189255049Y-73587819D01*
X189255051Y-73587816D01*
X189351557Y-73398412D01*
X189417246Y-73196243D01*
X189450500Y-72986287D01*
X189450500Y-72773713D01*
X189417246Y-72563757D01*
X189351557Y-72361588D01*
X189255051Y-72172184D01*
X189255049Y-72172181D01*
X189255048Y-72172179D01*
X189130109Y-72000213D01*
X189016569Y-71886673D01*
X188983084Y-71825350D01*
X188988068Y-71755658D01*
X189029940Y-71699725D01*
X189060915Y-71682810D01*
X189192331Y-71633796D01*
X189307546Y-71547546D01*
X189393796Y-71432331D01*
X189397960Y-71421165D01*
X189439829Y-71365234D01*
X189505293Y-71340816D01*
X189514141Y-71340500D01*
X192834218Y-71340500D01*
X192901257Y-71360185D01*
X192921899Y-71376819D01*
X216113576Y-94568496D01*
X216147061Y-94629819D01*
X216149350Y-94645344D01*
X216182753Y-94856239D01*
X216248443Y-95058412D01*
X216344951Y-95247820D01*
X216469890Y-95419786D01*
X216620213Y-95570109D01*
X216792182Y-95695050D01*
X216800946Y-95699516D01*
X216851742Y-95747491D01*
X216868536Y-95815312D01*
X216845998Y-95881447D01*
X216800946Y-95920484D01*
X216792182Y-95924949D01*
X216620213Y-96049890D01*
X216469890Y-96200213D01*
X216344951Y-96372179D01*
X216248444Y-96561585D01*
X216182753Y-96763760D01*
X216149500Y-96973713D01*
X216149500Y-97186286D01*
X216179988Y-97378783D01*
X216182754Y-97396243D01*
X216247200Y-97594587D01*
X216248444Y-97598414D01*
X216344951Y-97787820D01*
X216469890Y-97959786D01*
X216583430Y-98073326D01*
X216616915Y-98134649D01*
X216611931Y-98204341D01*
X216570059Y-98260274D01*
X216539083Y-98277189D01*
X216407669Y-98326203D01*
X216407664Y-98326206D01*
X216292455Y-98412452D01*
X216292452Y-98412455D01*
X216206206Y-98527664D01*
X216206202Y-98527671D01*
X216155908Y-98662517D01*
X216149501Y-98722116D01*
X216149500Y-98722135D01*
X216149500Y-100517870D01*
X216149501Y-100517876D01*
X216155908Y-100577483D01*
X216206202Y-100712328D01*
X216206206Y-100712335D01*
X216292452Y-100827544D01*
X216292455Y-100827547D01*
X216407664Y-100913793D01*
X216407671Y-100913797D01*
X216542517Y-100964091D01*
X216542516Y-100964091D01*
X216549444Y-100964835D01*
X216602127Y-100970500D01*
X218397872Y-100970499D01*
X218457483Y-100964091D01*
X218592331Y-100913796D01*
X218707546Y-100827546D01*
X218793796Y-100712331D01*
X218844091Y-100577483D01*
X218850500Y-100517873D01*
X218850499Y-99614450D01*
X218870183Y-99547412D01*
X218922987Y-99501657D01*
X218992146Y-99491713D01*
X219055702Y-99520738D01*
X219062180Y-99526770D01*
X221328981Y-101793571D01*
X221362466Y-101854894D01*
X221365300Y-101881252D01*
X221365300Y-102916550D01*
X221345615Y-102983589D01*
X221344402Y-102985441D01*
X221281409Y-103079715D01*
X221281402Y-103079728D01*
X221221064Y-103225398D01*
X221221061Y-103225410D01*
X221190300Y-103380053D01*
X221190300Y-103537746D01*
X221221061Y-103692389D01*
X221221064Y-103692401D01*
X221281402Y-103838072D01*
X221281409Y-103838085D01*
X221369010Y-103969188D01*
X221369013Y-103969192D01*
X221480507Y-104080686D01*
X221480511Y-104080689D01*
X221611614Y-104168290D01*
X221611627Y-104168297D01*
X221733209Y-104218657D01*
X221757303Y-104228637D01*
X221911953Y-104259399D01*
X221911956Y-104259400D01*
X221911958Y-104259400D01*
X222069644Y-104259400D01*
X222069645Y-104259399D01*
X222224297Y-104228637D01*
X222369979Y-104168294D01*
X222501089Y-104080689D01*
X222612589Y-103969189D01*
X222700194Y-103838079D01*
X222760537Y-103692397D01*
X222791300Y-103537742D01*
X222791300Y-103380058D01*
X222791300Y-103380055D01*
X222791299Y-103380053D01*
X222776534Y-103305826D01*
X222760537Y-103225403D01*
X222760535Y-103225398D01*
X222700197Y-103079728D01*
X222700196Y-103079727D01*
X222700194Y-103079721D01*
X222637197Y-102985439D01*
X222616320Y-102918763D01*
X222616300Y-102916550D01*
X222616300Y-101509193D01*
X222616299Y-101509189D01*
X222602042Y-101437511D01*
X222592263Y-101388348D01*
X222589583Y-101381880D01*
X222582114Y-101312412D01*
X222613388Y-101249932D01*
X222673476Y-101214278D01*
X222743301Y-101216771D01*
X222791825Y-101246745D01*
X225013381Y-103468301D01*
X225046866Y-103529624D01*
X225049700Y-103555982D01*
X225049700Y-104648741D01*
X225049700Y-104648743D01*
X225049699Y-104648743D01*
X225088147Y-104842029D01*
X225088150Y-104842039D01*
X225163564Y-105024107D01*
X225163571Y-105024120D01*
X225273059Y-105187980D01*
X225273060Y-105187981D01*
X225273061Y-105187982D01*
X225412418Y-105327339D01*
X225412419Y-105327339D01*
X225419486Y-105334406D01*
X225419485Y-105334406D01*
X225419489Y-105334409D01*
X233463181Y-113378102D01*
X233496666Y-113439425D01*
X233499500Y-113465783D01*
X233499500Y-114300001D01*
X233499501Y-114300019D01*
X233510000Y-114402796D01*
X233510001Y-114402799D01*
X233555536Y-114540213D01*
X233565186Y-114569334D01*
X233657288Y-114718656D01*
X233781344Y-114842712D01*
X233930666Y-114934814D01*
X234097203Y-114989999D01*
X234199991Y-115000500D01*
X235800008Y-115000499D01*
X235902797Y-114989999D01*
X236069334Y-114934814D01*
X236218656Y-114842712D01*
X236342712Y-114718656D01*
X236434814Y-114569334D01*
X236489999Y-114402797D01*
X236500500Y-114300009D01*
X236500499Y-112699992D01*
X236499701Y-112692184D01*
X236489999Y-112597203D01*
X236489998Y-112597200D01*
X236464485Y-112520208D01*
X236434814Y-112430666D01*
X236342712Y-112281344D01*
X236218656Y-112157288D01*
X236069334Y-112065186D01*
X235902797Y-112010001D01*
X235902795Y-112010000D01*
X235800016Y-111999500D01*
X235800009Y-111999500D01*
X235737308Y-111999500D01*
X235670269Y-111979815D01*
X235649627Y-111963181D01*
X235211058Y-111524612D01*
X235231591Y-111519111D01*
X235368408Y-111440119D01*
X235480119Y-111328408D01*
X235559111Y-111191591D01*
X235564612Y-111171058D01*
X236222658Y-111829105D01*
X236222658Y-111829104D01*
X236282914Y-111746169D01*
X236282918Y-111746163D01*
X236390102Y-111535802D01*
X236463065Y-111311247D01*
X236500000Y-111078052D01*
X236500000Y-110841947D01*
X236463065Y-110608752D01*
X236390102Y-110384197D01*
X236282914Y-110173828D01*
X236222658Y-110090894D01*
X236222658Y-110090893D01*
X235564612Y-110748940D01*
X235559111Y-110728409D01*
X235480119Y-110591592D01*
X235368408Y-110479881D01*
X235231591Y-110400889D01*
X235211059Y-110395387D01*
X235869105Y-109737340D01*
X235867551Y-109717594D01*
X235881915Y-109649216D01*
X235918284Y-109607547D01*
X235977510Y-109564517D01*
X236144517Y-109397510D01*
X236283343Y-109206433D01*
X236390568Y-108995992D01*
X236463553Y-108771368D01*
X236484955Y-108636240D01*
X236500500Y-108538097D01*
X236500500Y-108301902D01*
X236463553Y-108068631D01*
X236416391Y-107923484D01*
X236390568Y-107844008D01*
X236390566Y-107844005D01*
X236390566Y-107844003D01*
X236283342Y-107633566D01*
X236267807Y-107612184D01*
X236144517Y-107442490D01*
X235977510Y-107275483D01*
X235786433Y-107136657D01*
X235739046Y-107112512D01*
X235575996Y-107029433D01*
X235351368Y-106956446D01*
X235118097Y-106919500D01*
X235118092Y-106919500D01*
X234881908Y-106919500D01*
X234881903Y-106919500D01*
X234648631Y-106956446D01*
X234424003Y-107029433D01*
X234213566Y-107136657D01*
X234104550Y-107215862D01*
X234022490Y-107275483D01*
X234022488Y-107275485D01*
X234022487Y-107275485D01*
X233855485Y-107442487D01*
X233855485Y-107442488D01*
X233855483Y-107442490D01*
X233795862Y-107524550D01*
X233716657Y-107633566D01*
X233609433Y-107844003D01*
X233536446Y-108068631D01*
X233499500Y-108301902D01*
X233499500Y-108538097D01*
X233536446Y-108771368D01*
X233609433Y-108995996D01*
X233708536Y-109190495D01*
X233716657Y-109206433D01*
X233855483Y-109397510D01*
X234022490Y-109564517D01*
X234081716Y-109607547D01*
X234124381Y-109662875D01*
X234132448Y-109717593D01*
X234130893Y-109737340D01*
X234788941Y-110395387D01*
X234768409Y-110400889D01*
X234631592Y-110479881D01*
X234519881Y-110591592D01*
X234440889Y-110728409D01*
X234435387Y-110748941D01*
X233777340Y-110090894D01*
X233717084Y-110173830D01*
X233609896Y-110384198D01*
X233596210Y-110426318D01*
X233556771Y-110483993D01*
X233492412Y-110511189D01*
X233423566Y-110499273D01*
X233390599Y-110475678D01*
X227087019Y-104172098D01*
X227053534Y-104110775D01*
X227050700Y-104084417D01*
X227050700Y-102991656D01*
X227012252Y-102798370D01*
X227012251Y-102798369D01*
X227012251Y-102798365D01*
X226985649Y-102734142D01*
X226936835Y-102616292D01*
X226936828Y-102616279D01*
X226827339Y-102452418D01*
X226827336Y-102452414D01*
X226684886Y-102309964D01*
X226684855Y-102309935D01*
X218886423Y-94511503D01*
X218852938Y-94450180D01*
X218850657Y-94434708D01*
X218850500Y-94433716D01*
X218850500Y-94433713D01*
X218817246Y-94223757D01*
X218751557Y-94021588D01*
X218655051Y-93832184D01*
X218655049Y-93832181D01*
X218655048Y-93832179D01*
X218530109Y-93660213D01*
X218379786Y-93509890D01*
X218207817Y-93384949D01*
X218198504Y-93380204D01*
X218147707Y-93332230D01*
X218130912Y-93264409D01*
X218153449Y-93198274D01*
X218198507Y-93159232D01*
X218207555Y-93154622D01*
X218261716Y-93115270D01*
X218261717Y-93115270D01*
X217629408Y-92482962D01*
X217692993Y-92465925D01*
X217807007Y-92400099D01*
X217900099Y-92307007D01*
X217965925Y-92192993D01*
X217982962Y-92129408D01*
X218615270Y-92761717D01*
X218615270Y-92761716D01*
X218654622Y-92707554D01*
X218751095Y-92518217D01*
X218816757Y-92316130D01*
X218816757Y-92316127D01*
X218850000Y-92106246D01*
X218850000Y-91893753D01*
X218816757Y-91683872D01*
X218816757Y-91683869D01*
X218751095Y-91481782D01*
X218654624Y-91292449D01*
X218615270Y-91238282D01*
X218615269Y-91238282D01*
X217982962Y-91870590D01*
X217965925Y-91807007D01*
X217900099Y-91692993D01*
X217807007Y-91599901D01*
X217692993Y-91534075D01*
X217629409Y-91517037D01*
X218261716Y-90884728D01*
X218207550Y-90845375D01*
X218018217Y-90748904D01*
X217816129Y-90683242D01*
X217606246Y-90650000D01*
X217393754Y-90650000D01*
X217183872Y-90683242D01*
X217183869Y-90683242D01*
X216981782Y-90748904D01*
X216792439Y-90845380D01*
X216738282Y-90884727D01*
X216738282Y-90884728D01*
X217370591Y-91517037D01*
X217307007Y-91534075D01*
X217192993Y-91599901D01*
X217099901Y-91692993D01*
X217034075Y-91807007D01*
X217017037Y-91870591D01*
X216384728Y-91238282D01*
X216384727Y-91238282D01*
X216345380Y-91292439D01*
X216248905Y-91481781D01*
X216215251Y-91585357D01*
X216175813Y-91643032D01*
X216111454Y-91670230D01*
X216042608Y-91658315D01*
X216009639Y-91634719D01*
X194081479Y-69706559D01*
X194081459Y-69706537D01*
X193937785Y-69562863D01*
X193937781Y-69562860D01*
X193773920Y-69453371D01*
X193773911Y-69453366D01*
X193701315Y-69423296D01*
X193645165Y-69400038D01*
X193591836Y-69377949D01*
X193591832Y-69377948D01*
X193591828Y-69377946D01*
X193495188Y-69358724D01*
X193398544Y-69339500D01*
X193398541Y-69339500D01*
X189514141Y-69339500D01*
X189447102Y-69319815D01*
X189401347Y-69267011D01*
X189397969Y-69258859D01*
X189393796Y-69247669D01*
X189393793Y-69247665D01*
X189393793Y-69247664D01*
X189307547Y-69132455D01*
X189307544Y-69132452D01*
X189192335Y-69046206D01*
X189192328Y-69046202D01*
X189057482Y-68995908D01*
X189057483Y-68995908D01*
X188997883Y-68989501D01*
X188997881Y-68989500D01*
X188997873Y-68989500D01*
X188997864Y-68989500D01*
X187202129Y-68989500D01*
X187202123Y-68989501D01*
X187142516Y-68995908D01*
X187007671Y-69046202D01*
X187007664Y-69046206D01*
X186892455Y-69132452D01*
X186886745Y-69138163D01*
X186825422Y-69171648D01*
X186755730Y-69166664D01*
X186711383Y-69138163D01*
X185266933Y-67693713D01*
X212149500Y-67693713D01*
X212149500Y-67906287D01*
X212182754Y-68116243D01*
X212222345Y-68238092D01*
X212248444Y-68318414D01*
X212344951Y-68507820D01*
X212469890Y-68679786D01*
X212620213Y-68830109D01*
X212792182Y-68955050D01*
X212800946Y-68959516D01*
X212851742Y-69007491D01*
X212868536Y-69075312D01*
X212845998Y-69141447D01*
X212800946Y-69180484D01*
X212792182Y-69184949D01*
X212620213Y-69309890D01*
X212469890Y-69460213D01*
X212344951Y-69632179D01*
X212248444Y-69821585D01*
X212182753Y-70023760D01*
X212149500Y-70233713D01*
X212149500Y-70446286D01*
X212182753Y-70656239D01*
X212248444Y-70858414D01*
X212344951Y-71047820D01*
X212469890Y-71219786D01*
X212620213Y-71370109D01*
X212792182Y-71495050D01*
X212800946Y-71499516D01*
X212851742Y-71547491D01*
X212868536Y-71615312D01*
X212845998Y-71681447D01*
X212800946Y-71720484D01*
X212792182Y-71724949D01*
X212620213Y-71849890D01*
X212620209Y-71849894D01*
X212469897Y-72000207D01*
X212469890Y-72000213D01*
X212344951Y-72172179D01*
X212248444Y-72361585D01*
X212182753Y-72563760D01*
X212149500Y-72773713D01*
X212149500Y-72986287D01*
X212182754Y-73196243D01*
X212220757Y-73313205D01*
X212248444Y-73398414D01*
X212344951Y-73587820D01*
X212469890Y-73759786D01*
X212620213Y-73910109D01*
X212792182Y-74035050D01*
X212800946Y-74039516D01*
X212851742Y-74087491D01*
X212868536Y-74155312D01*
X212845998Y-74221447D01*
X212800946Y-74260484D01*
X212792182Y-74264949D01*
X212620213Y-74389890D01*
X212469890Y-74540213D01*
X212344951Y-74712179D01*
X212248444Y-74901585D01*
X212182753Y-75103760D01*
X212155142Y-75278092D01*
X212149500Y-75313713D01*
X212149500Y-75526287D01*
X212182754Y-75736243D01*
X212220757Y-75853205D01*
X212248444Y-75938414D01*
X212344951Y-76127820D01*
X212469890Y-76299786D01*
X212620213Y-76450109D01*
X212792182Y-76575050D01*
X212800946Y-76579516D01*
X212851742Y-76627491D01*
X212868536Y-76695312D01*
X212845998Y-76761447D01*
X212800946Y-76800484D01*
X212792182Y-76804949D01*
X212620213Y-76929890D01*
X212469890Y-77080213D01*
X212344951Y-77252179D01*
X212248444Y-77441585D01*
X212182753Y-77643760D01*
X212149500Y-77853713D01*
X212149500Y-78066286D01*
X212182753Y-78276239D01*
X212248444Y-78478414D01*
X212344951Y-78667820D01*
X212469890Y-78839786D01*
X212583430Y-78953326D01*
X212616915Y-79014649D01*
X212611931Y-79084341D01*
X212570059Y-79140274D01*
X212539083Y-79157189D01*
X212407669Y-79206203D01*
X212407664Y-79206206D01*
X212292455Y-79292452D01*
X212292452Y-79292455D01*
X212206206Y-79407664D01*
X212206202Y-79407671D01*
X212155908Y-79542517D01*
X212153598Y-79564008D01*
X212149501Y-79602123D01*
X212149500Y-79602135D01*
X212149500Y-81397870D01*
X212149501Y-81397876D01*
X212155908Y-81457483D01*
X212206202Y-81592328D01*
X212206206Y-81592335D01*
X212292452Y-81707544D01*
X212292455Y-81707547D01*
X212407664Y-81793793D01*
X212407671Y-81793797D01*
X212542517Y-81844091D01*
X212542516Y-81844091D01*
X212549444Y-81844835D01*
X212602127Y-81850500D01*
X214397872Y-81850499D01*
X214457483Y-81844091D01*
X214592331Y-81793796D01*
X214707546Y-81707546D01*
X214793796Y-81592331D01*
X214844091Y-81457483D01*
X214850500Y-81397873D01*
X214850500Y-81249500D01*
X214870185Y-81182461D01*
X214922989Y-81136706D01*
X214974500Y-81125500D01*
X232509548Y-81125500D01*
X232576587Y-81145185D01*
X232597229Y-81161819D01*
X233538529Y-82103120D01*
X233572014Y-82164443D01*
X233568779Y-82229118D01*
X233536447Y-82328628D01*
X233499500Y-82561902D01*
X233499500Y-82798097D01*
X233536446Y-83031368D01*
X233609433Y-83255996D01*
X233703996Y-83441585D01*
X233716657Y-83466433D01*
X233855483Y-83657510D01*
X234022490Y-83824517D01*
X234057127Y-83849683D01*
X234099792Y-83905013D01*
X234105771Y-83974626D01*
X234073165Y-84036421D01*
X234057130Y-84050315D01*
X234039365Y-84063222D01*
X234022488Y-84075484D01*
X233855485Y-84242487D01*
X233855485Y-84242488D01*
X233855483Y-84242490D01*
X233809065Y-84306379D01*
X233716657Y-84433566D01*
X233609433Y-84644003D01*
X233536446Y-84868631D01*
X233499500Y-85101902D01*
X233499500Y-85338097D01*
X233536446Y-85571368D01*
X233609433Y-85795996D01*
X233703998Y-85981588D01*
X233716657Y-86006433D01*
X233855483Y-86197510D01*
X234022490Y-86364517D01*
X234057127Y-86389683D01*
X234099792Y-86445013D01*
X234105771Y-86514626D01*
X234073165Y-86576421D01*
X234057130Y-86590315D01*
X234039365Y-86603222D01*
X234022488Y-86615484D01*
X233855485Y-86782487D01*
X233855485Y-86782488D01*
X233855483Y-86782490D01*
X233830963Y-86816239D01*
X233716657Y-86973566D01*
X233609433Y-87184003D01*
X233536446Y-87408631D01*
X233499500Y-87641902D01*
X233499500Y-87878097D01*
X233536446Y-88111368D01*
X233609433Y-88335996D01*
X233632827Y-88381908D01*
X233716657Y-88546433D01*
X233855483Y-88737510D01*
X234022490Y-88904517D01*
X234057127Y-88929683D01*
X234099792Y-88985013D01*
X234105771Y-89054626D01*
X234073165Y-89116421D01*
X234057130Y-89130315D01*
X234039365Y-89143222D01*
X234022488Y-89155484D01*
X233855485Y-89322487D01*
X233855485Y-89322488D01*
X233855483Y-89322490D01*
X233830963Y-89356239D01*
X233716657Y-89513566D01*
X233609433Y-89724003D01*
X233536446Y-89948631D01*
X233499500Y-90181902D01*
X233499500Y-90418097D01*
X233536446Y-90651368D01*
X233609433Y-90875996D01*
X233670155Y-90995168D01*
X233716657Y-91086433D01*
X233855483Y-91277510D01*
X234022490Y-91444517D01*
X234057127Y-91469683D01*
X234099792Y-91525013D01*
X234105771Y-91594626D01*
X234073165Y-91656421D01*
X234057130Y-91670315D01*
X234039365Y-91683222D01*
X234022488Y-91695484D01*
X233855485Y-91862487D01*
X233855485Y-91862488D01*
X233855483Y-91862490D01*
X233832769Y-91893753D01*
X233716657Y-92053566D01*
X233609433Y-92264003D01*
X233536446Y-92488631D01*
X233499500Y-92721902D01*
X233499500Y-92958097D01*
X233536446Y-93191368D01*
X233609433Y-93415996D01*
X233657275Y-93509890D01*
X233716657Y-93626433D01*
X233855483Y-93817510D01*
X234022490Y-93984517D01*
X234057127Y-94009683D01*
X234099792Y-94065013D01*
X234105771Y-94134626D01*
X234073165Y-94196421D01*
X234057130Y-94210315D01*
X234039365Y-94223222D01*
X234022488Y-94235484D01*
X233855485Y-94402487D01*
X233855485Y-94402488D01*
X233855483Y-94402490D01*
X233820834Y-94450180D01*
X233716657Y-94593566D01*
X233609433Y-94804003D01*
X233536446Y-95028631D01*
X233499500Y-95261902D01*
X233499500Y-95498097D01*
X233536446Y-95731368D01*
X233609433Y-95955996D01*
X233650559Y-96036709D01*
X233716657Y-96166433D01*
X233855483Y-96357510D01*
X234022490Y-96524517D01*
X234057127Y-96549683D01*
X234099792Y-96605013D01*
X234105771Y-96674626D01*
X234073165Y-96736421D01*
X234057130Y-96750315D01*
X234039365Y-96763222D01*
X234022488Y-96775484D01*
X233855485Y-96942487D01*
X233855485Y-96942488D01*
X233855483Y-96942490D01*
X233795862Y-97024550D01*
X233716657Y-97133566D01*
X233609433Y-97344003D01*
X233536446Y-97568631D01*
X233499500Y-97801902D01*
X233499500Y-98038097D01*
X233536446Y-98271368D01*
X233609433Y-98495996D01*
X233716657Y-98706433D01*
X233855483Y-98897510D01*
X234022490Y-99064517D01*
X234057127Y-99089683D01*
X234099792Y-99145013D01*
X234105771Y-99214626D01*
X234073165Y-99276421D01*
X234057130Y-99290315D01*
X234039365Y-99303222D01*
X234022488Y-99315484D01*
X233855485Y-99482487D01*
X233855485Y-99482488D01*
X233855483Y-99482490D01*
X233830039Y-99517511D01*
X233716657Y-99673566D01*
X233609433Y-99884003D01*
X233536446Y-100108631D01*
X233499500Y-100341902D01*
X233499500Y-100578097D01*
X233536446Y-100811368D01*
X233609433Y-101035996D01*
X233700273Y-101214278D01*
X233716657Y-101246433D01*
X233855483Y-101437510D01*
X233855489Y-101437516D01*
X233858647Y-101441214D01*
X233856864Y-101442736D01*
X233885726Y-101495591D01*
X233880742Y-101565283D01*
X233838870Y-101621216D01*
X233829658Y-101627487D01*
X233781344Y-101657287D01*
X233657289Y-101781342D01*
X233565187Y-101930663D01*
X233565185Y-101930668D01*
X233539696Y-102007589D01*
X233510001Y-102097203D01*
X233510001Y-102097204D01*
X233510000Y-102097204D01*
X233499500Y-102199983D01*
X233499500Y-103800001D01*
X233499501Y-103800018D01*
X233510000Y-103902796D01*
X233510001Y-103902799D01*
X233565185Y-104069331D01*
X233565187Y-104069336D01*
X233572410Y-104081046D01*
X233657288Y-104218656D01*
X233781344Y-104342712D01*
X233930666Y-104434814D01*
X234097203Y-104489999D01*
X234199991Y-104500500D01*
X235800008Y-104500499D01*
X235902797Y-104489999D01*
X236069334Y-104434814D01*
X236218656Y-104342712D01*
X236342712Y-104218656D01*
X236434814Y-104069334D01*
X236489999Y-103902797D01*
X236500500Y-103800009D01*
X236500499Y-102199992D01*
X236489999Y-102097203D01*
X236434814Y-101930666D01*
X236342712Y-101781344D01*
X236218656Y-101657288D01*
X236218655Y-101657287D01*
X236170342Y-101627487D01*
X236123618Y-101575539D01*
X236112397Y-101506576D01*
X236140241Y-101442494D01*
X236141381Y-101441249D01*
X236141348Y-101441221D01*
X236144511Y-101437516D01*
X236144511Y-101437515D01*
X236144517Y-101437510D01*
X236283343Y-101246433D01*
X236390568Y-101035992D01*
X236463553Y-100811368D01*
X236467305Y-100787681D01*
X236500500Y-100578097D01*
X236500500Y-100341902D01*
X236463553Y-100108631D01*
X236405696Y-99930568D01*
X236390568Y-99884008D01*
X236390566Y-99884005D01*
X236390566Y-99884003D01*
X236288922Y-99684517D01*
X236283343Y-99673567D01*
X236144517Y-99482490D01*
X235977510Y-99315483D01*
X235942872Y-99290317D01*
X235900207Y-99234989D01*
X235894228Y-99165375D01*
X235926833Y-99103580D01*
X235942873Y-99089682D01*
X235977510Y-99064517D01*
X236144517Y-98897510D01*
X236283343Y-98706433D01*
X236390568Y-98495992D01*
X236463553Y-98271368D01*
X236497833Y-98054933D01*
X236500500Y-98038097D01*
X236500500Y-97801902D01*
X236463553Y-97568631D01*
X236399829Y-97372511D01*
X236390568Y-97344008D01*
X236390566Y-97344005D01*
X236390566Y-97344003D01*
X236334002Y-97232991D01*
X236283343Y-97133567D01*
X236144517Y-96942490D01*
X235977510Y-96775483D01*
X235942872Y-96750317D01*
X235900207Y-96694989D01*
X235894228Y-96625375D01*
X235926833Y-96563580D01*
X235942873Y-96549682D01*
X235977510Y-96524517D01*
X236144517Y-96357510D01*
X236283343Y-96166433D01*
X236390568Y-95955992D01*
X236463553Y-95731368D01*
X236490758Y-95559602D01*
X236500500Y-95498097D01*
X236500500Y-95261902D01*
X236463553Y-95028631D01*
X236390566Y-94804003D01*
X236310205Y-94646287D01*
X236283343Y-94593567D01*
X236144517Y-94402490D01*
X235977510Y-94235483D01*
X235942872Y-94210317D01*
X235900207Y-94154989D01*
X235894228Y-94085375D01*
X235926833Y-94023580D01*
X235942873Y-94009682D01*
X235977510Y-93984517D01*
X236144517Y-93817510D01*
X236283343Y-93626433D01*
X236390568Y-93415992D01*
X236463553Y-93191368D01*
X236465347Y-93180039D01*
X236500500Y-92958097D01*
X236500500Y-92721902D01*
X236463553Y-92488631D01*
X236429689Y-92384412D01*
X236390568Y-92264008D01*
X236390566Y-92264005D01*
X236390566Y-92264003D01*
X236310184Y-92106246D01*
X236283343Y-92053567D01*
X236144517Y-91862490D01*
X235977510Y-91695483D01*
X235942872Y-91670317D01*
X235900207Y-91614989D01*
X235894228Y-91545375D01*
X235926833Y-91483580D01*
X235942873Y-91469682D01*
X235977510Y-91444517D01*
X236144517Y-91277510D01*
X236283343Y-91086433D01*
X236390568Y-90875992D01*
X236463553Y-90651368D01*
X236463770Y-90650000D01*
X236500500Y-90418097D01*
X236500500Y-90181902D01*
X236463553Y-89948631D01*
X236398305Y-89747820D01*
X236390568Y-89724008D01*
X236390566Y-89724005D01*
X236390566Y-89724003D01*
X236334002Y-89612991D01*
X236283343Y-89513567D01*
X236144517Y-89322490D01*
X235977510Y-89155483D01*
X235942872Y-89130317D01*
X235900207Y-89074989D01*
X235894228Y-89005375D01*
X235926833Y-88943580D01*
X235942873Y-88929682D01*
X235977510Y-88904517D01*
X236144517Y-88737510D01*
X236283343Y-88546433D01*
X236390568Y-88335992D01*
X236463553Y-88111368D01*
X236500500Y-87878097D01*
X236500500Y-87641902D01*
X236463553Y-87408631D01*
X236398305Y-87207820D01*
X236390568Y-87184008D01*
X236390566Y-87184005D01*
X236390566Y-87184003D01*
X236315382Y-87036447D01*
X236283343Y-86973567D01*
X236144517Y-86782490D01*
X235977510Y-86615483D01*
X235942872Y-86590317D01*
X235900207Y-86534989D01*
X235894228Y-86465375D01*
X235926833Y-86403580D01*
X235942873Y-86389682D01*
X235977510Y-86364517D01*
X236144517Y-86197510D01*
X236283343Y-86006433D01*
X236390568Y-85795992D01*
X236463553Y-85571368D01*
X236478043Y-85479881D01*
X236500500Y-85338097D01*
X236500500Y-85101902D01*
X236463553Y-84868631D01*
X236390566Y-84644003D01*
X236330257Y-84525641D01*
X236283343Y-84433567D01*
X236144517Y-84242490D01*
X235977510Y-84075483D01*
X235942872Y-84050317D01*
X235900207Y-83994989D01*
X235894228Y-83925375D01*
X235926833Y-83863580D01*
X235942873Y-83849682D01*
X235977510Y-83824517D01*
X236144517Y-83657510D01*
X236283343Y-83466433D01*
X236390568Y-83255992D01*
X236463553Y-83031368D01*
X236500500Y-82798097D01*
X236500500Y-82561902D01*
X236463553Y-82328631D01*
X236429689Y-82224412D01*
X236390568Y-82104008D01*
X236390566Y-82104005D01*
X236390566Y-82104003D01*
X236283342Y-81893566D01*
X236144517Y-81702490D01*
X235977510Y-81535483D01*
X235942872Y-81510317D01*
X235900207Y-81454989D01*
X235894228Y-81385375D01*
X235926833Y-81323580D01*
X235942873Y-81309682D01*
X235977510Y-81284517D01*
X236144517Y-81117510D01*
X236283343Y-80926433D01*
X236390568Y-80715992D01*
X236463553Y-80491368D01*
X236500500Y-80258097D01*
X236500500Y-80021902D01*
X236463553Y-79788631D01*
X236429689Y-79684412D01*
X236390568Y-79564008D01*
X236390566Y-79564005D01*
X236390566Y-79564003D01*
X236283342Y-79353566D01*
X236144517Y-79162490D01*
X235977510Y-78995483D01*
X235942872Y-78970317D01*
X235900207Y-78914989D01*
X235894228Y-78845375D01*
X235926833Y-78783580D01*
X235942873Y-78769682D01*
X235977510Y-78744517D01*
X236144517Y-78577510D01*
X236283343Y-78386433D01*
X236390568Y-78175992D01*
X236463553Y-77951368D01*
X236492753Y-77767007D01*
X236500500Y-77718097D01*
X236500500Y-77481902D01*
X236463553Y-77248631D01*
X236423058Y-77124003D01*
X236390568Y-77024008D01*
X236390566Y-77024005D01*
X236390566Y-77024003D01*
X236299220Y-76844728D01*
X236283343Y-76813567D01*
X236144517Y-76622490D01*
X235977510Y-76455483D01*
X235976330Y-76454626D01*
X235942873Y-76430318D01*
X235900207Y-76374989D01*
X235894228Y-76305375D01*
X235926833Y-76243580D01*
X235942873Y-76229682D01*
X235977510Y-76204517D01*
X236144517Y-76037510D01*
X236283343Y-75846433D01*
X236390568Y-75635992D01*
X236463553Y-75411368D01*
X236484662Y-75278092D01*
X236500500Y-75178097D01*
X236500500Y-74941902D01*
X236463553Y-74708631D01*
X236429689Y-74604412D01*
X236390568Y-74484008D01*
X236390566Y-74484005D01*
X236390566Y-74484003D01*
X236283342Y-74273566D01*
X236277083Y-74264951D01*
X236144517Y-74082490D01*
X235977510Y-73915483D01*
X235786433Y-73776657D01*
X235753322Y-73759786D01*
X235575996Y-73669433D01*
X235351368Y-73596446D01*
X235118097Y-73559500D01*
X235118092Y-73559500D01*
X234881908Y-73559500D01*
X234881903Y-73559500D01*
X234648628Y-73596447D01*
X234549118Y-73628779D01*
X234479276Y-73630774D01*
X234423120Y-73598529D01*
X233315822Y-72491232D01*
X233305859Y-72481269D01*
X233305858Y-72481267D01*
X233218733Y-72394142D01*
X233167509Y-72359915D01*
X233116286Y-72325688D01*
X233116283Y-72325686D01*
X233116280Y-72325685D01*
X233042603Y-72295168D01*
X233042601Y-72295167D01*
X233035792Y-72292347D01*
X233002452Y-72278537D01*
X232942029Y-72266518D01*
X232937306Y-72265578D01*
X232937304Y-72265578D01*
X232881610Y-72254500D01*
X232881607Y-72254500D01*
X232881606Y-72254500D01*
X214772981Y-72254500D01*
X214705942Y-72234815D01*
X214662497Y-72186797D01*
X214655049Y-72172180D01*
X214530109Y-72000213D01*
X214379786Y-71849890D01*
X214207820Y-71724951D01*
X214207115Y-71724591D01*
X214199054Y-71720485D01*
X214148259Y-71672512D01*
X214131463Y-71604692D01*
X214153999Y-71538556D01*
X214199054Y-71499515D01*
X214207816Y-71495051D01*
X214229789Y-71479086D01*
X214379786Y-71370109D01*
X214379788Y-71370106D01*
X214379792Y-71370104D01*
X214530104Y-71219792D01*
X214530106Y-71219788D01*
X214530109Y-71219786D01*
X214655048Y-71047820D01*
X214655047Y-71047820D01*
X214655051Y-71047816D01*
X214751557Y-70858412D01*
X214817246Y-70656243D01*
X214850500Y-70446287D01*
X214850500Y-70233713D01*
X214817246Y-70023757D01*
X214751557Y-69821588D01*
X214655051Y-69632184D01*
X214655049Y-69632181D01*
X214655048Y-69632179D01*
X214530109Y-69460213D01*
X214379786Y-69309890D01*
X214207820Y-69184951D01*
X214207115Y-69184591D01*
X214199054Y-69180485D01*
X214148259Y-69132512D01*
X214131463Y-69064692D01*
X214153999Y-68998556D01*
X214199054Y-68959515D01*
X214207816Y-68955051D01*
X214241514Y-68930568D01*
X214379786Y-68830109D01*
X214379788Y-68830106D01*
X214379792Y-68830104D01*
X214530104Y-68679792D01*
X214530106Y-68679788D01*
X214530109Y-68679786D01*
X214655048Y-68507820D01*
X214655047Y-68507820D01*
X214655051Y-68507816D01*
X214751557Y-68318412D01*
X214817246Y-68116243D01*
X214850500Y-67906287D01*
X214850500Y-67693713D01*
X214817246Y-67483757D01*
X214751557Y-67281588D01*
X214655051Y-67092184D01*
X214655049Y-67092181D01*
X214655048Y-67092179D01*
X214530109Y-66920213D01*
X214379786Y-66769890D01*
X214207820Y-66644951D01*
X214018414Y-66548444D01*
X214018413Y-66548443D01*
X214018412Y-66548443D01*
X213816243Y-66482754D01*
X213816241Y-66482753D01*
X213816240Y-66482753D01*
X213654957Y-66457208D01*
X213606287Y-66449500D01*
X213393713Y-66449500D01*
X213345042Y-66457208D01*
X213183760Y-66482753D01*
X212981585Y-66548444D01*
X212792179Y-66644951D01*
X212620213Y-66769890D01*
X212469890Y-66920213D01*
X212344951Y-67092179D01*
X212248444Y-67281585D01*
X212182753Y-67483760D01*
X212173212Y-67544003D01*
X212149500Y-67693713D01*
X185266933Y-67693713D01*
X184479779Y-66906559D01*
X184479759Y-66906537D01*
X184336085Y-66762863D01*
X184336081Y-66762860D01*
X184172220Y-66653371D01*
X184172207Y-66653364D01*
X184047582Y-66601744D01*
X184047581Y-66601743D01*
X184040397Y-66598768D01*
X183990136Y-66577949D01*
X183887382Y-66557510D01*
X183883047Y-66556647D01*
X183883041Y-66556646D01*
X183796843Y-66539500D01*
X183796841Y-66539500D01*
X167321230Y-66539500D01*
X167254191Y-66519815D01*
X167208436Y-66467011D01*
X167198492Y-66397853D01*
X167227517Y-66334297D01*
X167233549Y-66327819D01*
X167342712Y-66218656D01*
X167434814Y-66069334D01*
X167489999Y-65902797D01*
X167500500Y-65800009D01*
X167500500Y-65433713D01*
X222149500Y-65433713D01*
X222149500Y-65646287D01*
X222182754Y-65856243D01*
X222197880Y-65902797D01*
X222248444Y-66058414D01*
X222344951Y-66247820D01*
X222469890Y-66419786D01*
X222620213Y-66570109D01*
X222792179Y-66695048D01*
X222792181Y-66695049D01*
X222792184Y-66695051D01*
X222981588Y-66791557D01*
X223183757Y-66857246D01*
X223393713Y-66890500D01*
X223393714Y-66890500D01*
X223606286Y-66890500D01*
X223606287Y-66890500D01*
X223816243Y-66857246D01*
X224018412Y-66791557D01*
X224207816Y-66695051D01*
X224276776Y-66644949D01*
X224379786Y-66570109D01*
X224379788Y-66570106D01*
X224379792Y-66570104D01*
X224530104Y-66419792D01*
X224530106Y-66419788D01*
X224530109Y-66419786D01*
X224655048Y-66247820D01*
X224655047Y-66247820D01*
X224655051Y-66247816D01*
X224751557Y-66058412D01*
X224817246Y-65856243D01*
X224850500Y-65646287D01*
X224850500Y-65433713D01*
X224817246Y-65223757D01*
X224751557Y-65021588D01*
X224655051Y-64832184D01*
X224655049Y-64832181D01*
X224655048Y-64832179D01*
X224530109Y-64660213D01*
X224416181Y-64546285D01*
X224382696Y-64484962D01*
X224387680Y-64415270D01*
X224429552Y-64359337D01*
X224460529Y-64342422D01*
X224592086Y-64293354D01*
X224592093Y-64293350D01*
X224707187Y-64207190D01*
X224707190Y-64207187D01*
X224793350Y-64092093D01*
X224793354Y-64092086D01*
X224843596Y-63957379D01*
X224843598Y-63957372D01*
X224849999Y-63897844D01*
X224850000Y-63897827D01*
X224850000Y-63250000D01*
X223933012Y-63250000D01*
X223965925Y-63192993D01*
X224000000Y-63065826D01*
X224000000Y-62934174D01*
X223965925Y-62807007D01*
X223933012Y-62750000D01*
X224850000Y-62750000D01*
X224850000Y-62102172D01*
X224849999Y-62102155D01*
X224843598Y-62042627D01*
X224843596Y-62042620D01*
X224793354Y-61907913D01*
X224793350Y-61907906D01*
X224707190Y-61792812D01*
X224707187Y-61792809D01*
X224592093Y-61706649D01*
X224592086Y-61706645D01*
X224457379Y-61656403D01*
X224457372Y-61656401D01*
X224397844Y-61650000D01*
X223750000Y-61650000D01*
X223750000Y-62566988D01*
X223692993Y-62534075D01*
X223565826Y-62500000D01*
X223434174Y-62500000D01*
X223307007Y-62534075D01*
X223250000Y-62566988D01*
X223250000Y-61650000D01*
X222602155Y-61650000D01*
X222542627Y-61656401D01*
X222542620Y-61656403D01*
X222407913Y-61706645D01*
X222407906Y-61706649D01*
X222292812Y-61792809D01*
X222292809Y-61792812D01*
X222206649Y-61907906D01*
X222206645Y-61907913D01*
X222156403Y-62042620D01*
X222156401Y-62042627D01*
X222150000Y-62102155D01*
X222150000Y-62750000D01*
X223066988Y-62750000D01*
X223034075Y-62807007D01*
X223000000Y-62934174D01*
X223000000Y-63065826D01*
X223034075Y-63192993D01*
X223066988Y-63250000D01*
X222150000Y-63250000D01*
X222150000Y-63897844D01*
X222156401Y-63957372D01*
X222156403Y-63957379D01*
X222206645Y-64092086D01*
X222206649Y-64092093D01*
X222292809Y-64207187D01*
X222292812Y-64207190D01*
X222407906Y-64293350D01*
X222407913Y-64293354D01*
X222539470Y-64342422D01*
X222595404Y-64384293D01*
X222619821Y-64449758D01*
X222604969Y-64518031D01*
X222583819Y-64546285D01*
X222469889Y-64660215D01*
X222344951Y-64832179D01*
X222248444Y-65021585D01*
X222182753Y-65223760D01*
X222150272Y-65428841D01*
X222149500Y-65433713D01*
X167500500Y-65433713D01*
X167500499Y-64832184D01*
X167500499Y-64199998D01*
X167500498Y-64199981D01*
X167489999Y-64097203D01*
X167489998Y-64097200D01*
X167463592Y-64017512D01*
X167434814Y-63930666D01*
X167342712Y-63781344D01*
X167218656Y-63657288D01*
X167069334Y-63565186D01*
X166902797Y-63510001D01*
X166902795Y-63510000D01*
X166800016Y-63499500D01*
X165314100Y-63499500D01*
X165247061Y-63479815D01*
X165201306Y-63427011D01*
X165190100Y-63375500D01*
X165190100Y-59173735D01*
X165209785Y-59106696D01*
X165262589Y-59060941D01*
X165331747Y-59050997D01*
X165370394Y-59063250D01*
X165390240Y-59073362D01*
X165424001Y-59090565D01*
X165424004Y-59090565D01*
X165424008Y-59090568D01*
X165579151Y-59140977D01*
X165648631Y-59163553D01*
X165881903Y-59200500D01*
X165881908Y-59200500D01*
X166118097Y-59200500D01*
X166351368Y-59163553D01*
X166412838Y-59143580D01*
X166575992Y-59090568D01*
X166786433Y-58983343D01*
X166977510Y-58844517D01*
X167144517Y-58677510D01*
X167283343Y-58486433D01*
X167390568Y-58275992D01*
X167463553Y-58051368D01*
X167476970Y-57966657D01*
X167500500Y-57818097D01*
X167500500Y-57581902D01*
X167463553Y-57348631D01*
X167390566Y-57124003D01*
X167318459Y-56982487D01*
X167283343Y-56913567D01*
X167144517Y-56722490D01*
X166977510Y-56555483D01*
X166942872Y-56530317D01*
X166900207Y-56474989D01*
X166894228Y-56405375D01*
X166926833Y-56343580D01*
X166942873Y-56329682D01*
X166977510Y-56304517D01*
X167144517Y-56137510D01*
X167283343Y-55946433D01*
X167387091Y-55742816D01*
X167390566Y-55735996D01*
X167390566Y-55735995D01*
X167390568Y-55735992D01*
X167463553Y-55511368D01*
X167483005Y-55388554D01*
X167500500Y-55278097D01*
X167500500Y-55041903D01*
X167484879Y-54943280D01*
X167484879Y-54943279D01*
X167481174Y-54919892D01*
X167463553Y-54808632D01*
X167390568Y-54584008D01*
X167390566Y-54584005D01*
X167390566Y-54584003D01*
X167318459Y-54442487D01*
X167283343Y-54373567D01*
X167144517Y-54182490D01*
X166977510Y-54015483D01*
X166942872Y-53990317D01*
X166900207Y-53934989D01*
X166894228Y-53865375D01*
X166926833Y-53803580D01*
X166942873Y-53789682D01*
X166977510Y-53764517D01*
X167144517Y-53597510D01*
X167283343Y-53406433D01*
X167390568Y-53195992D01*
X167463553Y-52971368D01*
X167469392Y-52934500D01*
X167500500Y-52738097D01*
X167500500Y-52501902D01*
X167463553Y-52268631D01*
X167390566Y-52044003D01*
X167318459Y-51902487D01*
X167283343Y-51833567D01*
X167144517Y-51642490D01*
X166977510Y-51475483D01*
X166918282Y-51432451D01*
X166875617Y-51377122D01*
X166867550Y-51322404D01*
X166869104Y-51302657D01*
X166211058Y-50644612D01*
X166231591Y-50639111D01*
X166368408Y-50560119D01*
X166480119Y-50448408D01*
X166559111Y-50311591D01*
X166564612Y-50291058D01*
X167222658Y-50949105D01*
X167222658Y-50949104D01*
X167282914Y-50866169D01*
X167282918Y-50866163D01*
X167390102Y-50655802D01*
X167463065Y-50431247D01*
X167500000Y-50198052D01*
X167500000Y-49961947D01*
X167463065Y-49728752D01*
X167390102Y-49504197D01*
X167282914Y-49293828D01*
X167222658Y-49210894D01*
X167222658Y-49210893D01*
X166564612Y-49868940D01*
X166559111Y-49848409D01*
X166480119Y-49711592D01*
X166368408Y-49599881D01*
X166231591Y-49520889D01*
X166211058Y-49515387D01*
X166869104Y-48857340D01*
X166866144Y-48819735D01*
X166866144Y-48800275D01*
X166869104Y-48762657D01*
X166211058Y-48104612D01*
X166231591Y-48099111D01*
X166368408Y-48020119D01*
X166480119Y-47908408D01*
X166559111Y-47771591D01*
X166564612Y-47751058D01*
X167222658Y-48409105D01*
X167222658Y-48409104D01*
X167282914Y-48326169D01*
X167282918Y-48326163D01*
X167390102Y-48115802D01*
X167463065Y-47891247D01*
X167500000Y-47658052D01*
X167500000Y-47421947D01*
X167463065Y-47188752D01*
X167390102Y-46964197D01*
X167282914Y-46753828D01*
X167222658Y-46670894D01*
X167222658Y-46670893D01*
X166564612Y-47328940D01*
X166559111Y-47308409D01*
X166480119Y-47171592D01*
X166368408Y-47059881D01*
X166231591Y-46980889D01*
X166211058Y-46975387D01*
X166649627Y-46536818D01*
X166710950Y-46503333D01*
X166737307Y-46500499D01*
X166800008Y-46500499D01*
X166902797Y-46489999D01*
X167069334Y-46434814D01*
X167218656Y-46342712D01*
X167342712Y-46218656D01*
X167434814Y-46069334D01*
X167489999Y-45902797D01*
X167500500Y-45800009D01*
X167500500Y-45785500D01*
X167520185Y-45718461D01*
X167572989Y-45672706D01*
X167624500Y-45661500D01*
X176810263Y-45661500D01*
X176877302Y-45681185D01*
X176923057Y-45733989D01*
X176933001Y-45803147D01*
X176903976Y-45866703D01*
X176885749Y-45883876D01*
X176857263Y-45905733D01*
X176857256Y-45905739D01*
X176685739Y-46077256D01*
X176685733Y-46077263D01*
X176538067Y-46269706D01*
X176416777Y-46479785D01*
X176416773Y-46479794D01*
X176323947Y-46703895D01*
X176261161Y-46938214D01*
X176229500Y-47178711D01*
X176229500Y-47421288D01*
X176261161Y-47661785D01*
X176323947Y-47896104D01*
X176408036Y-48099111D01*
X176416776Y-48120212D01*
X176538064Y-48330289D01*
X176538066Y-48330292D01*
X176538067Y-48330293D01*
X176685733Y-48522736D01*
X176685739Y-48522743D01*
X176857256Y-48694260D01*
X176857263Y-48694266D01*
X176938299Y-48756447D01*
X177049711Y-48841936D01*
X177259788Y-48963224D01*
X177483900Y-49056054D01*
X177718211Y-49118838D01*
X177898586Y-49142584D01*
X177958711Y-49150500D01*
X177958712Y-49150500D01*
X178201289Y-49150500D01*
X178249388Y-49144167D01*
X178441789Y-49118838D01*
X178676100Y-49056054D01*
X178900212Y-48963224D01*
X179110289Y-48841936D01*
X179302738Y-48694265D01*
X179474265Y-48522738D01*
X179621936Y-48330289D01*
X179743224Y-48120212D01*
X179836054Y-47896100D01*
X179898838Y-47661789D01*
X179930500Y-47421288D01*
X179930500Y-47178712D01*
X179898838Y-46938211D01*
X179836054Y-46703900D01*
X179743224Y-46479788D01*
X179621936Y-46269711D01*
X179507981Y-46121202D01*
X179474266Y-46077263D01*
X179474260Y-46077256D01*
X179302743Y-45905739D01*
X179302736Y-45905733D01*
X179274251Y-45883876D01*
X179233048Y-45827449D01*
X179228893Y-45757703D01*
X179263105Y-45696782D01*
X179324822Y-45664029D01*
X179349737Y-45661500D01*
X182803518Y-45661500D01*
X182870557Y-45681185D01*
X182891199Y-45697819D01*
X185243035Y-48049655D01*
X185243064Y-48049686D01*
X185385514Y-48192136D01*
X185385518Y-48192139D01*
X185549379Y-48301628D01*
X185549392Y-48301635D01*
X185678133Y-48354961D01*
X185720433Y-48372482D01*
X185731464Y-48377051D01*
X185828112Y-48396275D01*
X185876435Y-48405887D01*
X185924758Y-48415500D01*
X185924759Y-48415500D01*
X185924760Y-48415500D01*
X186121840Y-48415500D01*
X186210859Y-48415500D01*
X186277898Y-48435185D01*
X186323653Y-48487989D01*
X186327030Y-48496140D01*
X186331204Y-48507331D01*
X186331205Y-48507332D01*
X186331206Y-48507335D01*
X186417452Y-48622544D01*
X186417455Y-48622547D01*
X186532664Y-48708793D01*
X186532671Y-48708797D01*
X186664082Y-48757810D01*
X186720016Y-48799681D01*
X186744433Y-48865145D01*
X186729582Y-48933418D01*
X186708431Y-48961673D01*
X186594889Y-49075215D01*
X186469951Y-49247179D01*
X186373444Y-49436585D01*
X186307753Y-49638760D01*
X186274500Y-49848713D01*
X186274500Y-50061286D01*
X186296161Y-50198052D01*
X186307754Y-50271243D01*
X186369989Y-50462783D01*
X186373444Y-50473414D01*
X186469951Y-50662820D01*
X186594890Y-50834786D01*
X186745213Y-50985109D01*
X186917182Y-51110050D01*
X186925946Y-51114516D01*
X186976742Y-51162491D01*
X186993536Y-51230312D01*
X186970998Y-51296447D01*
X186925946Y-51335484D01*
X186917182Y-51339949D01*
X186745213Y-51464890D01*
X186594890Y-51615213D01*
X186469951Y-51787179D01*
X186373444Y-51976585D01*
X186307753Y-52178760D01*
X186293519Y-52268631D01*
X186274500Y-52388713D01*
X186274500Y-52601287D01*
X186307754Y-52811243D01*
X186369989Y-53002783D01*
X186373444Y-53013414D01*
X186469951Y-53202820D01*
X186594890Y-53374786D01*
X186745213Y-53525109D01*
X186917179Y-53650048D01*
X186917181Y-53650049D01*
X186917184Y-53650051D01*
X186926493Y-53654794D01*
X186977290Y-53702766D01*
X186994087Y-53770587D01*
X186971552Y-53836722D01*
X186926505Y-53875760D01*
X186917446Y-53880376D01*
X186917440Y-53880380D01*
X186863282Y-53919727D01*
X186863282Y-53919728D01*
X187495591Y-54552037D01*
X187432007Y-54569075D01*
X187317993Y-54634901D01*
X187224901Y-54727993D01*
X187159075Y-54842007D01*
X187142037Y-54905591D01*
X186509728Y-54273282D01*
X186509727Y-54273282D01*
X186470380Y-54327439D01*
X186373904Y-54516782D01*
X186308242Y-54718869D01*
X186308242Y-54718872D01*
X186275000Y-54928753D01*
X186275000Y-55141246D01*
X186308242Y-55351127D01*
X186308242Y-55351130D01*
X186373904Y-55553217D01*
X186470375Y-55742550D01*
X186509728Y-55796716D01*
X187142037Y-55164408D01*
X187159075Y-55227993D01*
X187224901Y-55342007D01*
X187317993Y-55435099D01*
X187432007Y-55500925D01*
X187495590Y-55517962D01*
X186863282Y-56150269D01*
X186863282Y-56150270D01*
X186917449Y-56189624D01*
X187106782Y-56286095D01*
X187308870Y-56351757D01*
X187518754Y-56385000D01*
X187731246Y-56385000D01*
X187941127Y-56351757D01*
X187941130Y-56351757D01*
X188143217Y-56286095D01*
X188332554Y-56189622D01*
X188386716Y-56150270D01*
X188386717Y-56150270D01*
X187754408Y-55517962D01*
X187817993Y-55500925D01*
X187932007Y-55435099D01*
X188025099Y-55342007D01*
X188090925Y-55227993D01*
X188107962Y-55164409D01*
X188740270Y-55796717D01*
X188740270Y-55796716D01*
X188779622Y-55742554D01*
X188876095Y-55553217D01*
X188941757Y-55351130D01*
X188941757Y-55351127D01*
X188975000Y-55141246D01*
X188975000Y-54928753D01*
X188941757Y-54718872D01*
X188941757Y-54718869D01*
X188876095Y-54516782D01*
X188779624Y-54327449D01*
X188740270Y-54273282D01*
X188740269Y-54273282D01*
X188107962Y-54905590D01*
X188090925Y-54842007D01*
X188025099Y-54727993D01*
X187932007Y-54634901D01*
X187817993Y-54569075D01*
X187754409Y-54552037D01*
X188386716Y-53919728D01*
X188332547Y-53880373D01*
X188332547Y-53880372D01*
X188323500Y-53875763D01*
X188272706Y-53827788D01*
X188255912Y-53759966D01*
X188278451Y-53693832D01*
X188323508Y-53654793D01*
X188332816Y-53650051D01*
X188412007Y-53592515D01*
X188504786Y-53525109D01*
X188504788Y-53525106D01*
X188504792Y-53525104D01*
X188655104Y-53374792D01*
X188655106Y-53374788D01*
X188655109Y-53374786D01*
X188780048Y-53202820D01*
X188780049Y-53202819D01*
X188780051Y-53202816D01*
X188876557Y-53013412D01*
X188942246Y-52811243D01*
X188975500Y-52601287D01*
X188975500Y-52388713D01*
X188942246Y-52178757D01*
X188876557Y-51976588D01*
X188780051Y-51787184D01*
X188780049Y-51787181D01*
X188780048Y-51787179D01*
X188655109Y-51615213D01*
X188504786Y-51464890D01*
X188332820Y-51339951D01*
X188332115Y-51339591D01*
X188324054Y-51335485D01*
X188273259Y-51287512D01*
X188256463Y-51219692D01*
X188278999Y-51153556D01*
X188324054Y-51114515D01*
X188332816Y-51110051D01*
X188354789Y-51094086D01*
X188504786Y-50985109D01*
X188504788Y-50985106D01*
X188504792Y-50985104D01*
X188655104Y-50834792D01*
X188655106Y-50834788D01*
X188655109Y-50834786D01*
X188780048Y-50662820D01*
X188780047Y-50662820D01*
X188780051Y-50662816D01*
X188876557Y-50473412D01*
X188942246Y-50271243D01*
X188975500Y-50061287D01*
X188975500Y-49848713D01*
X188942246Y-49638757D01*
X188876557Y-49436588D01*
X188780051Y-49247184D01*
X188780049Y-49247181D01*
X188780048Y-49247179D01*
X188655109Y-49075213D01*
X188541569Y-48961673D01*
X188508084Y-48900350D01*
X188513068Y-48830658D01*
X188554940Y-48774725D01*
X188585915Y-48757810D01*
X188717331Y-48708796D01*
X188832546Y-48622546D01*
X188918796Y-48507331D01*
X188969091Y-48372483D01*
X188975500Y-48312873D01*
X188975499Y-46517128D01*
X188969091Y-46457517D01*
X188960623Y-46434814D01*
X188918797Y-46322671D01*
X188918793Y-46322664D01*
X188832547Y-46207455D01*
X188832544Y-46207452D01*
X188717335Y-46121206D01*
X188717328Y-46121202D01*
X188582482Y-46070908D01*
X188582483Y-46070908D01*
X188522883Y-46064501D01*
X188522881Y-46064500D01*
X188522873Y-46064500D01*
X188522864Y-46064500D01*
X186727129Y-46064500D01*
X186727123Y-46064501D01*
X186667516Y-46070908D01*
X186532671Y-46121202D01*
X186532664Y-46121206D01*
X186417455Y-46207452D01*
X186411745Y-46213163D01*
X186350422Y-46246648D01*
X186280730Y-46241664D01*
X186236383Y-46213163D01*
X184791933Y-44768713D01*
X211674500Y-44768713D01*
X211674500Y-44981287D01*
X211707754Y-45191243D01*
X211768465Y-45378092D01*
X211773444Y-45393414D01*
X211869951Y-45582820D01*
X211994890Y-45754786D01*
X212145213Y-45905109D01*
X212317182Y-46030050D01*
X212325946Y-46034516D01*
X212376742Y-46082491D01*
X212393536Y-46150312D01*
X212370998Y-46216447D01*
X212325946Y-46255484D01*
X212317182Y-46259949D01*
X212145213Y-46384890D01*
X211994890Y-46535213D01*
X211869951Y-46707179D01*
X211773444Y-46896585D01*
X211707753Y-47098760D01*
X211674500Y-47308713D01*
X211674500Y-47521286D01*
X211696161Y-47658052D01*
X211707754Y-47731243D01*
X211769989Y-47922783D01*
X211773444Y-47933414D01*
X211869951Y-48122820D01*
X211994890Y-48294786D01*
X212145213Y-48445109D01*
X212317182Y-48570050D01*
X212325946Y-48574516D01*
X212376742Y-48622491D01*
X212393536Y-48690312D01*
X212370998Y-48756447D01*
X212325946Y-48795484D01*
X212317182Y-48799949D01*
X212145213Y-48924890D01*
X211994890Y-49075213D01*
X211869951Y-49247179D01*
X211773444Y-49436585D01*
X211707753Y-49638760D01*
X211674500Y-49848713D01*
X211674500Y-50061286D01*
X211696161Y-50198052D01*
X211707754Y-50271243D01*
X211769989Y-50462783D01*
X211773444Y-50473414D01*
X211869951Y-50662820D01*
X211994890Y-50834786D01*
X212145213Y-50985109D01*
X212317182Y-51110050D01*
X212325946Y-51114516D01*
X212376742Y-51162491D01*
X212393536Y-51230312D01*
X212370998Y-51296447D01*
X212325946Y-51335484D01*
X212317182Y-51339949D01*
X212145213Y-51464890D01*
X211994890Y-51615213D01*
X211869951Y-51787179D01*
X211773444Y-51976585D01*
X211707753Y-52178760D01*
X211693519Y-52268631D01*
X211674500Y-52388713D01*
X211674500Y-52601287D01*
X211707754Y-52811243D01*
X211769989Y-53002783D01*
X211773444Y-53013414D01*
X211869951Y-53202820D01*
X211994890Y-53374786D01*
X212145213Y-53525109D01*
X212317182Y-53650050D01*
X212325946Y-53654516D01*
X212376742Y-53702491D01*
X212393536Y-53770312D01*
X212370998Y-53836447D01*
X212325946Y-53875484D01*
X212317182Y-53879949D01*
X212145213Y-54004890D01*
X211994890Y-54155213D01*
X211869951Y-54327179D01*
X211773444Y-54516585D01*
X211707753Y-54718760D01*
X211674500Y-54928713D01*
X211674500Y-55141286D01*
X211707735Y-55351127D01*
X211707754Y-55351243D01*
X211768465Y-55538092D01*
X211773444Y-55553414D01*
X211869951Y-55742820D01*
X211994890Y-55914786D01*
X212108430Y-56028326D01*
X212141915Y-56089649D01*
X212136931Y-56159341D01*
X212095059Y-56215274D01*
X212064083Y-56232189D01*
X211932669Y-56281203D01*
X211932664Y-56281206D01*
X211817455Y-56367452D01*
X211817454Y-56367454D01*
X211731206Y-56482664D01*
X211731202Y-56482671D01*
X211680908Y-56617517D01*
X211674501Y-56677116D01*
X211674501Y-56677123D01*
X211674500Y-56677135D01*
X211674500Y-58472870D01*
X211674501Y-58472876D01*
X211680908Y-58532483D01*
X211731202Y-58667328D01*
X211731206Y-58667335D01*
X211817452Y-58782544D01*
X211817455Y-58782547D01*
X211932664Y-58868793D01*
X211932671Y-58868797D01*
X212067517Y-58919091D01*
X212067516Y-58919091D01*
X212074444Y-58919835D01*
X212127127Y-58925500D01*
X213922872Y-58925499D01*
X213982483Y-58919091D01*
X214117331Y-58868796D01*
X214232546Y-58782546D01*
X214318796Y-58667331D01*
X214369091Y-58532483D01*
X214375500Y-58472873D01*
X214375500Y-58324500D01*
X214395185Y-58257461D01*
X214447989Y-58211706D01*
X214499500Y-58200500D01*
X227826607Y-58200500D01*
X227887029Y-58188481D01*
X227947452Y-58176463D01*
X227980792Y-58162652D01*
X228061286Y-58129312D01*
X228112509Y-58095084D01*
X228163733Y-58060858D01*
X228250858Y-57973733D01*
X228250859Y-57973731D01*
X228257925Y-57966665D01*
X228257928Y-57966661D01*
X233290090Y-52934498D01*
X233351411Y-52901015D01*
X233421103Y-52905999D01*
X233477036Y-52947871D01*
X233500242Y-53002783D01*
X233536446Y-53231368D01*
X233609433Y-53455996D01*
X233681540Y-53597512D01*
X233716657Y-53666433D01*
X233855483Y-53857510D01*
X234022490Y-54024517D01*
X234057127Y-54049683D01*
X234099792Y-54105013D01*
X234105771Y-54174626D01*
X234073165Y-54236421D01*
X234057130Y-54250315D01*
X234039365Y-54263222D01*
X234022488Y-54275484D01*
X233855485Y-54442487D01*
X233855485Y-54442488D01*
X233855483Y-54442490D01*
X233801507Y-54516782D01*
X233716657Y-54633566D01*
X233609433Y-54844003D01*
X233536446Y-55068631D01*
X233499500Y-55301902D01*
X233499500Y-55538097D01*
X233536446Y-55771368D01*
X233609433Y-55995996D01*
X233692662Y-56159341D01*
X233716657Y-56206433D01*
X233855483Y-56397510D01*
X234022490Y-56564517D01*
X234057127Y-56589683D01*
X234099792Y-56645013D01*
X234105771Y-56714626D01*
X234073165Y-56776421D01*
X234057130Y-56790315D01*
X234039365Y-56803222D01*
X234022488Y-56815484D01*
X233855485Y-56982487D01*
X233855485Y-56982488D01*
X233855483Y-56982490D01*
X233795862Y-57064550D01*
X233716657Y-57173566D01*
X233609433Y-57384003D01*
X233536446Y-57608631D01*
X233499500Y-57841902D01*
X233499500Y-58078097D01*
X233536446Y-58311368D01*
X233609433Y-58535996D01*
X233681540Y-58677512D01*
X233716657Y-58746433D01*
X233855483Y-58937510D01*
X234022490Y-59104517D01*
X234057127Y-59129683D01*
X234099792Y-59185013D01*
X234105771Y-59254626D01*
X234073165Y-59316421D01*
X234057130Y-59330315D01*
X234039365Y-59343222D01*
X234022488Y-59355484D01*
X233855485Y-59522487D01*
X233855485Y-59522488D01*
X233855483Y-59522490D01*
X233795862Y-59604550D01*
X233716657Y-59713566D01*
X233609433Y-59924003D01*
X233536446Y-60148631D01*
X233499500Y-60381902D01*
X233499500Y-60618097D01*
X233536446Y-60851368D01*
X233609433Y-61075996D01*
X233716657Y-61286433D01*
X233855483Y-61477510D01*
X234022490Y-61644517D01*
X234057127Y-61669683D01*
X234099792Y-61725013D01*
X234105771Y-61794626D01*
X234073165Y-61856421D01*
X234057130Y-61870315D01*
X234039365Y-61883222D01*
X234022488Y-61895484D01*
X233855485Y-62062487D01*
X233855485Y-62062488D01*
X233855483Y-62062490D01*
X233795862Y-62144550D01*
X233716657Y-62253566D01*
X233609433Y-62464003D01*
X233536446Y-62688631D01*
X233499500Y-62921902D01*
X233499500Y-63158097D01*
X233536446Y-63391368D01*
X233609433Y-63615996D01*
X233693682Y-63781342D01*
X233716657Y-63826433D01*
X233855483Y-64017510D01*
X234022490Y-64184517D01*
X234057127Y-64209683D01*
X234099792Y-64265013D01*
X234105771Y-64334626D01*
X234073165Y-64396421D01*
X234057130Y-64410315D01*
X234050311Y-64415270D01*
X234022488Y-64435484D01*
X233855485Y-64602487D01*
X233855485Y-64602488D01*
X233855483Y-64602490D01*
X233813548Y-64660208D01*
X233716657Y-64793566D01*
X233609433Y-65004003D01*
X233536446Y-65228631D01*
X233499500Y-65461902D01*
X233499500Y-65698097D01*
X233536446Y-65931368D01*
X233609433Y-66155996D01*
X233716657Y-66366433D01*
X233855483Y-66557510D01*
X234022490Y-66724517D01*
X234057127Y-66749683D01*
X234099792Y-66805013D01*
X234105771Y-66874626D01*
X234073165Y-66936421D01*
X234057130Y-66950315D01*
X234039365Y-66963222D01*
X234022488Y-66975484D01*
X233855485Y-67142487D01*
X233855485Y-67142488D01*
X233855483Y-67142490D01*
X233795862Y-67224550D01*
X233716657Y-67333566D01*
X233609433Y-67544003D01*
X233536446Y-67768631D01*
X233499500Y-68001902D01*
X233499500Y-68238097D01*
X233536446Y-68471368D01*
X233609433Y-68695996D01*
X233691643Y-68857340D01*
X233716657Y-68906433D01*
X233855483Y-69097510D01*
X233855489Y-69097516D01*
X233858647Y-69101214D01*
X233856864Y-69102736D01*
X233885726Y-69155591D01*
X233880742Y-69225283D01*
X233838870Y-69281216D01*
X233829658Y-69287487D01*
X233781344Y-69317287D01*
X233657289Y-69441342D01*
X233565187Y-69590663D01*
X233565186Y-69590666D01*
X233510001Y-69757203D01*
X233510001Y-69757204D01*
X233510000Y-69757204D01*
X233499500Y-69859983D01*
X233499500Y-71460001D01*
X233499501Y-71460018D01*
X233510000Y-71562796D01*
X233510001Y-71562799D01*
X233562253Y-71720484D01*
X233565186Y-71729334D01*
X233657288Y-71878656D01*
X233781344Y-72002712D01*
X233930666Y-72094814D01*
X234097203Y-72149999D01*
X234199991Y-72160500D01*
X235800008Y-72160499D01*
X235902797Y-72149999D01*
X236069334Y-72094814D01*
X236218656Y-72002712D01*
X236342712Y-71878656D01*
X236434814Y-71729334D01*
X236489999Y-71562797D01*
X236500500Y-71460009D01*
X236500499Y-69859992D01*
X236500488Y-69859889D01*
X236489999Y-69757203D01*
X236489998Y-69757200D01*
X236471779Y-69702218D01*
X236434814Y-69590666D01*
X236342712Y-69441344D01*
X236218656Y-69317288D01*
X236218655Y-69317287D01*
X236170342Y-69287487D01*
X236123618Y-69235539D01*
X236112397Y-69166576D01*
X236140241Y-69102494D01*
X236141381Y-69101249D01*
X236141348Y-69101221D01*
X236144511Y-69097516D01*
X236144511Y-69097515D01*
X236144517Y-69097510D01*
X236283343Y-68906433D01*
X236390568Y-68695992D01*
X236463553Y-68471368D01*
X236500500Y-68238097D01*
X236500500Y-68001902D01*
X236463553Y-67768631D01*
X236390566Y-67544003D01*
X236283342Y-67333566D01*
X236144517Y-67142490D01*
X235977510Y-66975483D01*
X235942872Y-66950317D01*
X235900207Y-66894989D01*
X235894228Y-66825375D01*
X235926833Y-66763580D01*
X235942873Y-66749682D01*
X235977510Y-66724517D01*
X236144517Y-66557510D01*
X236283343Y-66366433D01*
X236390568Y-66155992D01*
X236463553Y-65931368D01*
X236468078Y-65902797D01*
X236500500Y-65698097D01*
X236500500Y-65461902D01*
X236463553Y-65228631D01*
X236390566Y-65004003D01*
X236303019Y-64832184D01*
X236283343Y-64793567D01*
X236144517Y-64602490D01*
X235977510Y-64435483D01*
X235942872Y-64410317D01*
X235900207Y-64354989D01*
X235894228Y-64285375D01*
X235926833Y-64223580D01*
X235942873Y-64209682D01*
X235946303Y-64207190D01*
X235977510Y-64184517D01*
X236144517Y-64017510D01*
X236283343Y-63826433D01*
X236390568Y-63615992D01*
X236463553Y-63391368D01*
X236466066Y-63375500D01*
X236500500Y-63158097D01*
X236500500Y-62921902D01*
X236463553Y-62688631D01*
X236413334Y-62534075D01*
X236390568Y-62464008D01*
X236390566Y-62464005D01*
X236390566Y-62464003D01*
X236283342Y-62253566D01*
X236144517Y-62062490D01*
X235977510Y-61895483D01*
X235942872Y-61870317D01*
X235900207Y-61814989D01*
X235894228Y-61745375D01*
X235926833Y-61683580D01*
X235942873Y-61669682D01*
X235961150Y-61656403D01*
X235977510Y-61644517D01*
X236144517Y-61477510D01*
X236283343Y-61286433D01*
X236390568Y-61075992D01*
X236463553Y-60851368D01*
X236500500Y-60618097D01*
X236500500Y-60381902D01*
X236463553Y-60148631D01*
X236390566Y-59924003D01*
X236283342Y-59713566D01*
X236144517Y-59522490D01*
X235977510Y-59355483D01*
X235942872Y-59330317D01*
X235900207Y-59274989D01*
X235894228Y-59205375D01*
X235926833Y-59143580D01*
X235942873Y-59129682D01*
X235977510Y-59104517D01*
X236144517Y-58937510D01*
X236283343Y-58746433D01*
X236390568Y-58535992D01*
X236463553Y-58311368D01*
X236482868Y-58189419D01*
X236500500Y-58078097D01*
X236500500Y-57841902D01*
X236463553Y-57608631D01*
X236390566Y-57384003D01*
X236283342Y-57173566D01*
X236247336Y-57124008D01*
X236144517Y-56982490D01*
X235977510Y-56815483D01*
X235942872Y-56790317D01*
X235900207Y-56734989D01*
X235894228Y-56665375D01*
X235926833Y-56603580D01*
X235942873Y-56589682D01*
X235977510Y-56564517D01*
X236144517Y-56397510D01*
X236283343Y-56206433D01*
X236390568Y-55995992D01*
X236463553Y-55771368D01*
X236468117Y-55742550D01*
X236500500Y-55538097D01*
X236500500Y-55301902D01*
X236463553Y-55068631D01*
X236429689Y-54964412D01*
X236390568Y-54844008D01*
X236390566Y-54844005D01*
X236390566Y-54844003D01*
X236326808Y-54718872D01*
X236283343Y-54633567D01*
X236144517Y-54442490D01*
X235977510Y-54275483D01*
X235942872Y-54250317D01*
X235900207Y-54194989D01*
X235894228Y-54125375D01*
X235926833Y-54063580D01*
X235942873Y-54049682D01*
X235977510Y-54024517D01*
X236144517Y-53857510D01*
X236283343Y-53666433D01*
X236390568Y-53455992D01*
X236463553Y-53231368D01*
X236482868Y-53109419D01*
X236500500Y-52998097D01*
X236500500Y-52761902D01*
X236463553Y-52528631D01*
X236390566Y-52304003D01*
X236283342Y-52093566D01*
X236247336Y-52044008D01*
X236144517Y-51902490D01*
X235977510Y-51735483D01*
X235942872Y-51710317D01*
X235900207Y-51654989D01*
X235894228Y-51585375D01*
X235926833Y-51523580D01*
X235942873Y-51509682D01*
X235977510Y-51484517D01*
X236144517Y-51317510D01*
X236283343Y-51126433D01*
X236390568Y-50915992D01*
X236463553Y-50691368D01*
X236484341Y-50560119D01*
X236500500Y-50458097D01*
X236500500Y-50221902D01*
X236463553Y-49988631D01*
X236390566Y-49764003D01*
X236283342Y-49553566D01*
X236281399Y-49550892D01*
X236144517Y-49362490D01*
X235977510Y-49195483D01*
X235942872Y-49170317D01*
X235900207Y-49114989D01*
X235894228Y-49045375D01*
X235926833Y-48983580D01*
X235942873Y-48969682D01*
X235951759Y-48963226D01*
X235977510Y-48944517D01*
X236144517Y-48777510D01*
X236283343Y-48586433D01*
X236390568Y-48375992D01*
X236463553Y-48151368D01*
X236471830Y-48099111D01*
X236500500Y-47918097D01*
X236500500Y-47681902D01*
X236463553Y-47448631D01*
X236390566Y-47224003D01*
X236283342Y-47013566D01*
X236144517Y-46822490D01*
X235977510Y-46655483D01*
X235942872Y-46630317D01*
X235900207Y-46574989D01*
X235894228Y-46505375D01*
X235926833Y-46443580D01*
X235942873Y-46429682D01*
X235977510Y-46404517D01*
X236144517Y-46237510D01*
X236283343Y-46046433D01*
X236390568Y-45835992D01*
X236463553Y-45611368D01*
X236468075Y-45582816D01*
X236500500Y-45378097D01*
X236500500Y-45141902D01*
X236463553Y-44908631D01*
X236390566Y-44684003D01*
X236283342Y-44473566D01*
X236144517Y-44282490D01*
X235977510Y-44115483D01*
X235942872Y-44090317D01*
X235900207Y-44034989D01*
X235894228Y-43965375D01*
X235926833Y-43903580D01*
X235942873Y-43889682D01*
X235977510Y-43864517D01*
X236144517Y-43697510D01*
X236283343Y-43506433D01*
X236390568Y-43295992D01*
X236463553Y-43071368D01*
X236500500Y-42838097D01*
X236500500Y-42601902D01*
X236463553Y-42368631D01*
X236408733Y-42199915D01*
X236390568Y-42144008D01*
X236390566Y-42144005D01*
X236390566Y-42144003D01*
X236283342Y-41933566D01*
X236144517Y-41742490D01*
X235977510Y-41575483D01*
X235786433Y-41436657D01*
X235575996Y-41329433D01*
X235351368Y-41256446D01*
X235118097Y-41219500D01*
X235118092Y-41219500D01*
X234881908Y-41219500D01*
X234881903Y-41219500D01*
X234648631Y-41256446D01*
X234424003Y-41329433D01*
X234213566Y-41436657D01*
X234104550Y-41515862D01*
X234022490Y-41575483D01*
X234022488Y-41575485D01*
X234022487Y-41575485D01*
X233855485Y-41742487D01*
X233855485Y-41742488D01*
X233855483Y-41742490D01*
X233795862Y-41824550D01*
X233716657Y-41933566D01*
X233669155Y-42026795D01*
X233621180Y-42077591D01*
X233558670Y-42094500D01*
X220198389Y-42094500D01*
X220137971Y-42106518D01*
X220100259Y-42114019D01*
X220077550Y-42118536D01*
X220077548Y-42118537D01*
X220044207Y-42132347D01*
X219963719Y-42165684D01*
X219963705Y-42165692D01*
X219861272Y-42234138D01*
X219861264Y-42234144D01*
X214587181Y-47508228D01*
X214525858Y-47541713D01*
X214456166Y-47536729D01*
X214400233Y-47494857D01*
X214375816Y-47429393D01*
X214375500Y-47420547D01*
X214375500Y-47308713D01*
X214356500Y-47188752D01*
X214342246Y-47098757D01*
X214276557Y-46896588D01*
X214180051Y-46707184D01*
X214180049Y-46707181D01*
X214180048Y-46707179D01*
X214055109Y-46535213D01*
X213904786Y-46384890D01*
X213732820Y-46259951D01*
X213732115Y-46259591D01*
X213724054Y-46255485D01*
X213673259Y-46207512D01*
X213656463Y-46139692D01*
X213678999Y-46073556D01*
X213724054Y-46034515D01*
X213732816Y-46030051D01*
X213754789Y-46014086D01*
X213904786Y-45905109D01*
X213904788Y-45905106D01*
X213904792Y-45905104D01*
X214055104Y-45754792D01*
X214055106Y-45754788D01*
X214055109Y-45754786D01*
X214180048Y-45582820D01*
X214180047Y-45582820D01*
X214180051Y-45582816D01*
X214276557Y-45393412D01*
X214342246Y-45191243D01*
X214375500Y-44981287D01*
X214375500Y-44768713D01*
X214342246Y-44558757D01*
X214276557Y-44356588D01*
X214180051Y-44167184D01*
X214180049Y-44167181D01*
X214180048Y-44167179D01*
X214055109Y-43995213D01*
X213904786Y-43844890D01*
X213732820Y-43719951D01*
X213543414Y-43623444D01*
X213543413Y-43623443D01*
X213543412Y-43623443D01*
X213341243Y-43557754D01*
X213341241Y-43557753D01*
X213341240Y-43557753D01*
X213179957Y-43532208D01*
X213131287Y-43524500D01*
X212918713Y-43524500D01*
X212870042Y-43532208D01*
X212708760Y-43557753D01*
X212506585Y-43623444D01*
X212317179Y-43719951D01*
X212145213Y-43844890D01*
X211994890Y-43995213D01*
X211869951Y-44167179D01*
X211773444Y-44356585D01*
X211707753Y-44558760D01*
X211687917Y-44684003D01*
X211674500Y-44768713D01*
X184791933Y-44768713D01*
X184050779Y-44027559D01*
X184050759Y-44027537D01*
X183907085Y-43883863D01*
X183907081Y-43883860D01*
X183743220Y-43774371D01*
X183743207Y-43774364D01*
X183618852Y-43722856D01*
X183611834Y-43719949D01*
X183561136Y-43698949D01*
X183464488Y-43679724D01*
X183459991Y-43678829D01*
X183459982Y-43678827D01*
X183367844Y-43660500D01*
X183367841Y-43660500D01*
X167259029Y-43660500D01*
X167193934Y-43642039D01*
X167069334Y-43565186D01*
X166902797Y-43510001D01*
X166902795Y-43510000D01*
X166800010Y-43499500D01*
X165199998Y-43499500D01*
X165199981Y-43499501D01*
X165097203Y-43510000D01*
X165097200Y-43510001D01*
X164930668Y-43565185D01*
X164930663Y-43565187D01*
X164781342Y-43657289D01*
X164657289Y-43781342D01*
X164565187Y-43930663D01*
X164565185Y-43930668D01*
X164545525Y-43990000D01*
X164510001Y-44097203D01*
X164510001Y-44097204D01*
X164510000Y-44097204D01*
X164499500Y-44199983D01*
X164499500Y-45800001D01*
X164499501Y-45800018D01*
X164510000Y-45902796D01*
X164510001Y-45902799D01*
X164565185Y-46069331D01*
X164565187Y-46069336D01*
X164573301Y-46082491D01*
X164657288Y-46218656D01*
X164781344Y-46342712D01*
X164930666Y-46434814D01*
X165097203Y-46489999D01*
X165199991Y-46500500D01*
X165262692Y-46500499D01*
X165329729Y-46520183D01*
X165350372Y-46536818D01*
X165788941Y-46975387D01*
X165768409Y-46980889D01*
X165631592Y-47059881D01*
X165519881Y-47171592D01*
X165440889Y-47308409D01*
X165435387Y-47328941D01*
X164777340Y-46670894D01*
X164717084Y-46753830D01*
X164609897Y-46964197D01*
X164536934Y-47188752D01*
X164500000Y-47421947D01*
X164500000Y-47658052D01*
X164536934Y-47891247D01*
X164609897Y-48115802D01*
X164717087Y-48326174D01*
X164777338Y-48409104D01*
X164777340Y-48409105D01*
X165435387Y-47751058D01*
X165440889Y-47771591D01*
X165519881Y-47908408D01*
X165631592Y-48020119D01*
X165768409Y-48099111D01*
X165788940Y-48104612D01*
X165130893Y-48762658D01*
X165133854Y-48800276D01*
X165133854Y-48819733D01*
X165130894Y-48857340D01*
X165788941Y-49515387D01*
X165768409Y-49520889D01*
X165631592Y-49599881D01*
X165519881Y-49711592D01*
X165440889Y-49848409D01*
X165435387Y-49868941D01*
X164777340Y-49210894D01*
X164717084Y-49293830D01*
X164609897Y-49504197D01*
X164536934Y-49728752D01*
X164500000Y-49961947D01*
X164500000Y-50198052D01*
X164536934Y-50431247D01*
X164609897Y-50655802D01*
X164717087Y-50866174D01*
X164777338Y-50949104D01*
X164777340Y-50949105D01*
X165435387Y-50291058D01*
X165440889Y-50311591D01*
X165519881Y-50448408D01*
X165631592Y-50560119D01*
X165768409Y-50639111D01*
X165788940Y-50644612D01*
X165130893Y-51302658D01*
X165132448Y-51322405D01*
X165118084Y-51390783D01*
X165081717Y-51432451D01*
X165022490Y-51475482D01*
X164855485Y-51642487D01*
X164855485Y-51642488D01*
X164855483Y-51642490D01*
X164846402Y-51654989D01*
X164716657Y-51833566D01*
X164609433Y-52044003D01*
X164536446Y-52268631D01*
X164499500Y-52501902D01*
X164499500Y-52738097D01*
X164536446Y-52971368D01*
X164609433Y-53195996D01*
X164700532Y-53374786D01*
X164716657Y-53406433D01*
X164855483Y-53597510D01*
X165022490Y-53764517D01*
X165057127Y-53789683D01*
X165099792Y-53845013D01*
X165105771Y-53914626D01*
X165073165Y-53976421D01*
X165057130Y-53990315D01*
X165039365Y-54003222D01*
X165022488Y-54015484D01*
X164855485Y-54182487D01*
X164855485Y-54182488D01*
X164855483Y-54182490D01*
X164846402Y-54194989D01*
X164716657Y-54373566D01*
X164609433Y-54584003D01*
X164536446Y-54808631D01*
X164499500Y-55041902D01*
X164499500Y-55278097D01*
X164536447Y-55511371D01*
X164568779Y-55610881D01*
X164570774Y-55680722D01*
X164538529Y-55736879D01*
X164328976Y-55946433D01*
X164165870Y-56109539D01*
X164165867Y-56109542D01*
X164137899Y-56137510D01*
X164078740Y-56196668D01*
X164055522Y-56231416D01*
X164055515Y-56231427D01*
X164052162Y-56236447D01*
X164010288Y-56299114D01*
X163981981Y-56367454D01*
X163979632Y-56373122D01*
X163979628Y-56373132D01*
X163963137Y-56412946D01*
X163963135Y-56412954D01*
X163957090Y-56443340D01*
X163957091Y-56443341D01*
X163946530Y-56496443D01*
X163946529Y-56496448D01*
X163939100Y-56533792D01*
X163939100Y-73786210D01*
X163954847Y-73865375D01*
X163963137Y-73907052D01*
X163976947Y-73940392D01*
X164010288Y-74020886D01*
X164023145Y-74040127D01*
X164028145Y-74047610D01*
X164028147Y-74047614D01*
X164078741Y-74123332D01*
X164078744Y-74123336D01*
X164170186Y-74214778D01*
X164170208Y-74214798D01*
X164538530Y-74583120D01*
X164572015Y-74644443D01*
X164568780Y-74709119D01*
X164536447Y-74808630D01*
X164499500Y-75041902D01*
X164499500Y-75278097D01*
X164536446Y-75511368D01*
X164609433Y-75735996D01*
X164665704Y-75846433D01*
X164716657Y-75946433D01*
X164855483Y-76137510D01*
X165022490Y-76304517D01*
X165057127Y-76329683D01*
X165099792Y-76385013D01*
X165105771Y-76454626D01*
X165073165Y-76516421D01*
X165057130Y-76530315D01*
X165039365Y-76543222D01*
X165022488Y-76555484D01*
X164855485Y-76722487D01*
X164855485Y-76722488D01*
X164855483Y-76722490D01*
X164833671Y-76752512D01*
X164716657Y-76913566D01*
X164609433Y-77124003D01*
X164536446Y-77348631D01*
X164499500Y-77581902D01*
X164499500Y-77818097D01*
X164536446Y-78051368D01*
X164609433Y-78275996D01*
X164703189Y-78460000D01*
X164716657Y-78486433D01*
X164855483Y-78677510D01*
X165022490Y-78844517D01*
X165213567Y-78983343D01*
X165275009Y-79014649D01*
X165424003Y-79090566D01*
X165424005Y-79090566D01*
X165424008Y-79090568D01*
X165542975Y-79129223D01*
X165648631Y-79163553D01*
X165881903Y-79200500D01*
X165881908Y-79200500D01*
X166118097Y-79200500D01*
X166351368Y-79163553D01*
X166450881Y-79131218D01*
X166520720Y-79129223D01*
X166576879Y-79161469D01*
X173044139Y-85628729D01*
X173044142Y-85628733D01*
X173131267Y-85715858D01*
X173182490Y-85750084D01*
X173233714Y-85784312D01*
X173233715Y-85784312D01*
X173233716Y-85784313D01*
X173307390Y-85814829D01*
X173307394Y-85814830D01*
X173314207Y-85817652D01*
X173347548Y-85831463D01*
X173407971Y-85843481D01*
X173468393Y-85855500D01*
X173468394Y-85855500D01*
X173618740Y-85855500D01*
X173685779Y-85875185D01*
X173731534Y-85927989D01*
X173741478Y-85997147D01*
X173736671Y-86017818D01*
X173682753Y-86183759D01*
X173649500Y-86393713D01*
X173649500Y-86606286D01*
X173682753Y-86816239D01*
X173748444Y-87018414D01*
X173844951Y-87207820D01*
X173969890Y-87379786D01*
X174120213Y-87530109D01*
X174292182Y-87655050D01*
X174300946Y-87659516D01*
X174351742Y-87707491D01*
X174368536Y-87775312D01*
X174345998Y-87841447D01*
X174300946Y-87880484D01*
X174292182Y-87884949D01*
X174120213Y-88009890D01*
X173969890Y-88160213D01*
X173844951Y-88332179D01*
X173748444Y-88521585D01*
X173682753Y-88723760D01*
X173649500Y-88933713D01*
X173649500Y-89146286D01*
X173677407Y-89322488D01*
X173682754Y-89356243D01*
X173722156Y-89477510D01*
X173748444Y-89558414D01*
X173844951Y-89747820D01*
X173969890Y-89919786D01*
X174120213Y-90070109D01*
X174292182Y-90195050D01*
X174300946Y-90199516D01*
X174351742Y-90247491D01*
X174368536Y-90315312D01*
X174345998Y-90381447D01*
X174300946Y-90420484D01*
X174292182Y-90424949D01*
X174120213Y-90549890D01*
X173969890Y-90700213D01*
X173844951Y-90872179D01*
X173748444Y-91061585D01*
X173682753Y-91263760D01*
X173649500Y-91473713D01*
X173649500Y-91686286D01*
X173682753Y-91896239D01*
X173748444Y-92098414D01*
X173844951Y-92287820D01*
X173969890Y-92459786D01*
X174120213Y-92610109D01*
X174292182Y-92735050D01*
X174300946Y-92739516D01*
X174351742Y-92787491D01*
X174368536Y-92855312D01*
X174345998Y-92921447D01*
X174300946Y-92960484D01*
X174292182Y-92964949D01*
X174116266Y-93092759D01*
X174115635Y-93091891D01*
X174056581Y-93118359D01*
X174039800Y-93119500D01*
X172585782Y-93119500D01*
X172518743Y-93099815D01*
X172498101Y-93083181D01*
X168036819Y-88621899D01*
X168003334Y-88560576D01*
X168000500Y-88534218D01*
X168000500Y-88381902D01*
X167963553Y-88148631D01*
X167890566Y-87924003D01*
X167821494Y-87788443D01*
X167783343Y-87713567D01*
X167644517Y-87522490D01*
X167644508Y-87522481D01*
X167641353Y-87518786D01*
X167643022Y-87517360D01*
X167613910Y-87464045D01*
X167618894Y-87394353D01*
X167660766Y-87338420D01*
X167669980Y-87332148D01*
X167718343Y-87302317D01*
X167842315Y-87178345D01*
X167934356Y-87029124D01*
X167934358Y-87029119D01*
X167989505Y-86862697D01*
X167989506Y-86862690D01*
X167999999Y-86759986D01*
X168000000Y-86759973D01*
X168000000Y-86210000D01*
X167048482Y-86210000D01*
X167059111Y-86191591D01*
X167100000Y-86038991D01*
X167100000Y-85881009D01*
X167059111Y-85728409D01*
X167048482Y-85710000D01*
X167999999Y-85710000D01*
X167999999Y-85160028D01*
X167999998Y-85160013D01*
X167989505Y-85057302D01*
X167934358Y-84890880D01*
X167934356Y-84890875D01*
X167842315Y-84741654D01*
X167718345Y-84617684D01*
X167569124Y-84525643D01*
X167569119Y-84525641D01*
X167402697Y-84470494D01*
X167402690Y-84470493D01*
X167299986Y-84460000D01*
X166750000Y-84460000D01*
X166750000Y-85411517D01*
X166731591Y-85400889D01*
X166578991Y-85360000D01*
X166421009Y-85360000D01*
X166268409Y-85400889D01*
X166250000Y-85411517D01*
X166250000Y-84460000D01*
X165700028Y-84460000D01*
X165700012Y-84460001D01*
X165597302Y-84470494D01*
X165430880Y-84525641D01*
X165430875Y-84525643D01*
X165281654Y-84617684D01*
X165157684Y-84741654D01*
X165065643Y-84890875D01*
X165065641Y-84890880D01*
X165010494Y-85057302D01*
X165010493Y-85057309D01*
X165000000Y-85160013D01*
X165000000Y-85710000D01*
X165951518Y-85710000D01*
X165940889Y-85728409D01*
X165900000Y-85881009D01*
X165900000Y-86038991D01*
X165940889Y-86191591D01*
X165951518Y-86210000D01*
X165000001Y-86210000D01*
X165000001Y-86759986D01*
X165010494Y-86862697D01*
X165065641Y-87029119D01*
X165065643Y-87029124D01*
X165157684Y-87178345D01*
X165281655Y-87302316D01*
X165281659Y-87302319D01*
X165330020Y-87332149D01*
X165376745Y-87384097D01*
X165387966Y-87453059D01*
X165360123Y-87517141D01*
X165358632Y-87518773D01*
X165358647Y-87518786D01*
X165355485Y-87522488D01*
X165355483Y-87522490D01*
X165295862Y-87604550D01*
X165216657Y-87713566D01*
X165109433Y-87924003D01*
X165036446Y-88148631D01*
X164999500Y-88381902D01*
X164999500Y-88618097D01*
X165036446Y-88851368D01*
X165109433Y-89075996D01*
X165216657Y-89286433D01*
X165355483Y-89477510D01*
X165522490Y-89644517D01*
X165713567Y-89783343D01*
X165812991Y-89834002D01*
X165924003Y-89890566D01*
X165924005Y-89890566D01*
X165924008Y-89890568D01*
X166013950Y-89919792D01*
X166148631Y-89963553D01*
X166381903Y-90000500D01*
X166381908Y-90000500D01*
X166534218Y-90000500D01*
X166601257Y-90020185D01*
X166621899Y-90036819D01*
X171339735Y-94754655D01*
X171339764Y-94754686D01*
X171482214Y-94897136D01*
X171482218Y-94897139D01*
X171646079Y-95006628D01*
X171646083Y-95006630D01*
X171646086Y-95006632D01*
X171771095Y-95058412D01*
X171828164Y-95082051D01*
X171904338Y-95097203D01*
X171962732Y-95108818D01*
X172021456Y-95120500D01*
X172021459Y-95120500D01*
X172021460Y-95120500D01*
X172218540Y-95120500D01*
X173880570Y-95120500D01*
X173947609Y-95140185D01*
X173993364Y-95192989D01*
X174003308Y-95262147D01*
X173974283Y-95325703D01*
X173923903Y-95360682D01*
X173907913Y-95366645D01*
X173907906Y-95366649D01*
X173792812Y-95452809D01*
X173792809Y-95452812D01*
X173706649Y-95567906D01*
X173706645Y-95567913D01*
X173656403Y-95702620D01*
X173656401Y-95702627D01*
X173650000Y-95762155D01*
X173650000Y-96410000D01*
X174566988Y-96410000D01*
X174534075Y-96467007D01*
X174500000Y-96594174D01*
X174500000Y-96725826D01*
X174534075Y-96852993D01*
X174566988Y-96910000D01*
X173650000Y-96910000D01*
X173650000Y-97557844D01*
X173656401Y-97617372D01*
X173656403Y-97617379D01*
X173706645Y-97752086D01*
X173706649Y-97752093D01*
X173792809Y-97867187D01*
X173792812Y-97867190D01*
X173907906Y-97953350D01*
X173907913Y-97953354D01*
X174042620Y-98003596D01*
X174042627Y-98003598D01*
X174102155Y-98009999D01*
X174102172Y-98010000D01*
X174750000Y-98010000D01*
X174750000Y-97093012D01*
X174807007Y-97125925D01*
X174934174Y-97160000D01*
X175065826Y-97160000D01*
X175192993Y-97125925D01*
X175250000Y-97093012D01*
X175250000Y-98010000D01*
X175897828Y-98010000D01*
X175897844Y-98009999D01*
X175957372Y-98003598D01*
X175957379Y-98003596D01*
X176092086Y-97953354D01*
X176092093Y-97953350D01*
X176207187Y-97867190D01*
X176207190Y-97867187D01*
X176293350Y-97752093D01*
X176293354Y-97752086D01*
X176343596Y-97617379D01*
X176343598Y-97617372D01*
X176349999Y-97557844D01*
X176350000Y-97557827D01*
X176350000Y-96910000D01*
X175433012Y-96910000D01*
X175465925Y-96852993D01*
X175500000Y-96725826D01*
X175500000Y-96594174D01*
X175465925Y-96467007D01*
X175433012Y-96410000D01*
X176350000Y-96410000D01*
X176350000Y-95762172D01*
X176349999Y-95762155D01*
X176343598Y-95702627D01*
X176343597Y-95702622D01*
X176339120Y-95690619D01*
X176334134Y-95620927D01*
X176367618Y-95559603D01*
X176428941Y-95526117D01*
X176498632Y-95531100D01*
X176542982Y-95559602D01*
X181595699Y-100612319D01*
X181629184Y-100673642D01*
X181624200Y-100743334D01*
X181595699Y-100787681D01*
X170540199Y-111843181D01*
X170478876Y-111876666D01*
X170452518Y-111879500D01*
X165460200Y-111879500D01*
X165393161Y-111859815D01*
X165380634Y-111850506D01*
X165207817Y-111724949D01*
X165198504Y-111720204D01*
X165147707Y-111672230D01*
X165130912Y-111604409D01*
X165153449Y-111538274D01*
X165198507Y-111499232D01*
X165207555Y-111494622D01*
X165261716Y-111455270D01*
X165261717Y-111455270D01*
X164629408Y-110822962D01*
X164692993Y-110805925D01*
X164807007Y-110740099D01*
X164900099Y-110647007D01*
X164965925Y-110532993D01*
X164982962Y-110469408D01*
X165615270Y-111101717D01*
X165615270Y-111101716D01*
X165654622Y-111047554D01*
X165751095Y-110858217D01*
X165816757Y-110656130D01*
X165816757Y-110656127D01*
X165850000Y-110446246D01*
X165850000Y-110233753D01*
X165816757Y-110023872D01*
X165816757Y-110023869D01*
X165751095Y-109821782D01*
X165654624Y-109632449D01*
X165615270Y-109578282D01*
X165615269Y-109578282D01*
X164982962Y-110210590D01*
X164965925Y-110147007D01*
X164900099Y-110032993D01*
X164807007Y-109939901D01*
X164692993Y-109874075D01*
X164629409Y-109857037D01*
X165298802Y-109187642D01*
X165360125Y-109154157D01*
X165374833Y-109155078D01*
X165374556Y-109152501D01*
X165457375Y-109143598D01*
X165592086Y-109093354D01*
X165592093Y-109093350D01*
X165707187Y-109007190D01*
X165707190Y-109007187D01*
X165793350Y-108892093D01*
X165793354Y-108892086D01*
X165843596Y-108757379D01*
X165843598Y-108757372D01*
X165849999Y-108697844D01*
X165850000Y-108697827D01*
X165850000Y-108050000D01*
X164933012Y-108050000D01*
X164965925Y-107992993D01*
X165000000Y-107865826D01*
X165000000Y-107734174D01*
X164965925Y-107607007D01*
X164933012Y-107550000D01*
X165850000Y-107550000D01*
X165850000Y-106902172D01*
X165849999Y-106902155D01*
X165843598Y-106842627D01*
X165843596Y-106842620D01*
X165793354Y-106707913D01*
X165793350Y-106707906D01*
X165707190Y-106592812D01*
X165707187Y-106592809D01*
X165592093Y-106506649D01*
X165592086Y-106506645D01*
X165457379Y-106456403D01*
X165457372Y-106456401D01*
X165397844Y-106450000D01*
X164750000Y-106450000D01*
X164750000Y-107366988D01*
X164692993Y-107334075D01*
X164565826Y-107300000D01*
X164434174Y-107300000D01*
X164307007Y-107334075D01*
X164250000Y-107366988D01*
X164250000Y-106450000D01*
X163602155Y-106450000D01*
X163542627Y-106456401D01*
X163542620Y-106456403D01*
X163407913Y-106506645D01*
X163407906Y-106506649D01*
X163292812Y-106592809D01*
X163292809Y-106592812D01*
X163206649Y-106707906D01*
X163206645Y-106707913D01*
X163156403Y-106842620D01*
X163156401Y-106842627D01*
X163150000Y-106902155D01*
X163150000Y-107550000D01*
X164066988Y-107550000D01*
X164034075Y-107607007D01*
X164000000Y-107734174D01*
X164000000Y-107865826D01*
X164034075Y-107992993D01*
X164066988Y-108050000D01*
X163150000Y-108050000D01*
X163150000Y-108697844D01*
X163156401Y-108757372D01*
X163156403Y-108757379D01*
X163206645Y-108892086D01*
X163206649Y-108892093D01*
X163292809Y-109007187D01*
X163292812Y-109007190D01*
X163407906Y-109093350D01*
X163407913Y-109093354D01*
X163542620Y-109143596D01*
X163542619Y-109143596D01*
X163625444Y-109152501D01*
X163625116Y-109155550D01*
X163642014Y-109154642D01*
X163701196Y-109187642D01*
X164370591Y-109857037D01*
X164307007Y-109874075D01*
X164192993Y-109939901D01*
X164099901Y-110032993D01*
X164034075Y-110147007D01*
X164017037Y-110210591D01*
X163384728Y-109578282D01*
X163384727Y-109578282D01*
X163345380Y-109632439D01*
X163248904Y-109821782D01*
X163183242Y-110023869D01*
X163183242Y-110023872D01*
X163150000Y-110233753D01*
X163150000Y-110446246D01*
X163183242Y-110656127D01*
X163183242Y-110656130D01*
X163248904Y-110858217D01*
X163345375Y-111047550D01*
X163384728Y-111101716D01*
X164017037Y-110469408D01*
X164034075Y-110532993D01*
X164099901Y-110647007D01*
X164192993Y-110740099D01*
X164307007Y-110805925D01*
X164370590Y-110822962D01*
X163738282Y-111455269D01*
X163738282Y-111455270D01*
X163792452Y-111494626D01*
X163792451Y-111494626D01*
X163801495Y-111499234D01*
X163852292Y-111547208D01*
X163869087Y-111615029D01*
X163846550Y-111681164D01*
X163801499Y-111720202D01*
X163792182Y-111724949D01*
X163620213Y-111849890D01*
X163469890Y-112000213D01*
X163344951Y-112172179D01*
X163248444Y-112361585D01*
X163182753Y-112563760D01*
X163149500Y-112773713D01*
X163149500Y-112986286D01*
X163182753Y-113196239D01*
X163248444Y-113398414D01*
X163344951Y-113587820D01*
X163469890Y-113759786D01*
X163620213Y-113910109D01*
X163792182Y-114035050D01*
X163800946Y-114039516D01*
X163851742Y-114087491D01*
X163868536Y-114155312D01*
X163845998Y-114221447D01*
X163800946Y-114260484D01*
X163792182Y-114264949D01*
X163620213Y-114389890D01*
X163469890Y-114540213D01*
X163344951Y-114712179D01*
X163248444Y-114901585D01*
X163182753Y-115103760D01*
X163149500Y-115313713D01*
X163149500Y-115526286D01*
X163182753Y-115736239D01*
X163182753Y-115736241D01*
X163182754Y-115736243D01*
X163219748Y-115850099D01*
X163248444Y-115938414D01*
X163344950Y-116127818D01*
X163425118Y-116238162D01*
X163448597Y-116303968D01*
X163432771Y-116372022D01*
X163412480Y-116398727D01*
X162963996Y-116847213D01*
X162826869Y-116984340D01*
X162826867Y-116984342D01*
X162783305Y-117027903D01*
X162739744Y-117071464D01*
X162708987Y-117117494D01*
X162708986Y-117117493D01*
X162671292Y-117173907D01*
X162671285Y-117173919D01*
X162643622Y-117240705D01*
X162643622Y-117240707D01*
X162624137Y-117287748D01*
X162624136Y-117287752D01*
X162624136Y-117287753D01*
X162624135Y-117287756D01*
X162614837Y-117334499D01*
X162614838Y-117334500D01*
X162608007Y-117368844D01*
X162608006Y-117368846D01*
X162600100Y-117408591D01*
X162600100Y-118504611D01*
X162624135Y-118625444D01*
X162624140Y-118625461D01*
X162671285Y-118739281D01*
X162671288Y-118739286D01*
X162697742Y-118778876D01*
X162739742Y-118841733D01*
X162826867Y-118928858D01*
X162826870Y-118928860D01*
X162834502Y-118936492D01*
X163415343Y-119517333D01*
X163448828Y-119578656D01*
X163443844Y-119648348D01*
X163427981Y-119677899D01*
X163344948Y-119792184D01*
X163248444Y-119981585D01*
X163182753Y-120183760D01*
X163174267Y-120237340D01*
X163149500Y-120393713D01*
X163149500Y-120606287D01*
X163182754Y-120816243D01*
X163235923Y-120979881D01*
X163248444Y-121018414D01*
X163344951Y-121207820D01*
X163469890Y-121379786D01*
X163620213Y-121530109D01*
X163792179Y-121655048D01*
X163792181Y-121655049D01*
X163792184Y-121655051D01*
X163981588Y-121751557D01*
X164183757Y-121817246D01*
X164393713Y-121850500D01*
X164393714Y-121850500D01*
X164606286Y-121850500D01*
X164606287Y-121850500D01*
X164816243Y-121817246D01*
X165018412Y-121751557D01*
X165207816Y-121655051D01*
X165313797Y-121578052D01*
X165379786Y-121530109D01*
X165379788Y-121530106D01*
X165379792Y-121530104D01*
X165530104Y-121379792D01*
X165530106Y-121379788D01*
X165530109Y-121379786D01*
X165655050Y-121207817D01*
X165705527Y-121108752D01*
X165717334Y-121085577D01*
X165765308Y-121034781D01*
X165833129Y-121017986D01*
X165899264Y-121040523D01*
X165915500Y-121054191D01*
X169800949Y-124939640D01*
X169834434Y-125000963D01*
X169829450Y-125070655D01*
X169816371Y-125096210D01*
X169790111Y-125135511D01*
X169790102Y-125135527D01*
X169729764Y-125281198D01*
X169729761Y-125281210D01*
X169699000Y-125435853D01*
X169699000Y-125593546D01*
X169729761Y-125748189D01*
X169729764Y-125748201D01*
X169790102Y-125893872D01*
X169790109Y-125893885D01*
X169877710Y-126024988D01*
X169877713Y-126024992D01*
X169989207Y-126136486D01*
X169989211Y-126136489D01*
X170120314Y-126224090D01*
X170120327Y-126224097D01*
X170265998Y-126284435D01*
X170266003Y-126284437D01*
X170420653Y-126315199D01*
X170420656Y-126315200D01*
X170420658Y-126315200D01*
X170578344Y-126315200D01*
X170578345Y-126315199D01*
X170732997Y-126284437D01*
X170878679Y-126224094D01*
X171009789Y-126136489D01*
X171121289Y-126024989D01*
X171208894Y-125893879D01*
X171269237Y-125748197D01*
X171300000Y-125593542D01*
X171300000Y-125435858D01*
X171300000Y-125435855D01*
X171299999Y-125435853D01*
X171281472Y-125342712D01*
X171269237Y-125281203D01*
X171243330Y-125218657D01*
X171208897Y-125135527D01*
X171208890Y-125135514D01*
X171145798Y-125041090D01*
X171140147Y-125023043D01*
X171129923Y-125007134D01*
X171125471Y-124976172D01*
X171124920Y-124974412D01*
X171124900Y-124972199D01*
X171124900Y-124821241D01*
X171124901Y-124821220D01*
X171124901Y-124691891D01*
X171100864Y-124571055D01*
X171100863Y-124571049D01*
X171053712Y-124457215D01*
X170985258Y-124354767D01*
X170985255Y-124354763D01*
X170092826Y-123462334D01*
X170009203Y-123378711D01*
X171149500Y-123378711D01*
X171149500Y-123621288D01*
X171181161Y-123861785D01*
X171243947Y-124096104D01*
X171318334Y-124275689D01*
X171336776Y-124320212D01*
X171458064Y-124530289D01*
X171458066Y-124530292D01*
X171458067Y-124530293D01*
X171605733Y-124722736D01*
X171605739Y-124722743D01*
X171777256Y-124894260D01*
X171777263Y-124894266D01*
X171890321Y-124981018D01*
X171969711Y-125041936D01*
X172179788Y-125163224D01*
X172403900Y-125256054D01*
X172638211Y-125318838D01*
X172818586Y-125342584D01*
X172878711Y-125350500D01*
X172878712Y-125350500D01*
X173121289Y-125350500D01*
X173180460Y-125342710D01*
X173361789Y-125318838D01*
X173596100Y-125256054D01*
X173820212Y-125163224D01*
X174030289Y-125041936D01*
X174222738Y-124894265D01*
X174394265Y-124722738D01*
X174541936Y-124530289D01*
X174663224Y-124320212D01*
X174756054Y-124096100D01*
X174818838Y-123861789D01*
X174850500Y-123621288D01*
X174850500Y-123378712D01*
X174818838Y-123138211D01*
X174756054Y-122903900D01*
X174663224Y-122679788D01*
X174541936Y-122469711D01*
X174440288Y-122337240D01*
X174394266Y-122277263D01*
X174394260Y-122277256D01*
X174222743Y-122105739D01*
X174222736Y-122105733D01*
X174030293Y-121958067D01*
X174030292Y-121958066D01*
X174030289Y-121958064D01*
X173820212Y-121836776D01*
X173800010Y-121828408D01*
X173596104Y-121743947D01*
X173361785Y-121681161D01*
X173121289Y-121649500D01*
X173121288Y-121649500D01*
X172878712Y-121649500D01*
X172878711Y-121649500D01*
X172638214Y-121681161D01*
X172403895Y-121743947D01*
X172179794Y-121836773D01*
X172179785Y-121836777D01*
X171969706Y-121958067D01*
X171777263Y-122105733D01*
X171777256Y-122105739D01*
X171605739Y-122277256D01*
X171605733Y-122277263D01*
X171458067Y-122469706D01*
X171458064Y-122469710D01*
X171458064Y-122469711D01*
X171442502Y-122496666D01*
X171336777Y-122679785D01*
X171336773Y-122679794D01*
X171243947Y-122903895D01*
X171181161Y-123138214D01*
X171149500Y-123378711D01*
X170009203Y-123378711D01*
X165579817Y-118949326D01*
X165564112Y-118920566D01*
X165547371Y-118892393D01*
X165547452Y-118890055D01*
X165546332Y-118888003D01*
X165548669Y-118855310D01*
X165549817Y-118822566D01*
X165551204Y-118819863D01*
X165551316Y-118818311D01*
X165565594Y-118790994D01*
X165566353Y-118789897D01*
X165655051Y-118667816D01*
X165666298Y-118645740D01*
X165671077Y-118638849D01*
X165692007Y-118621958D01*
X165710473Y-118602408D01*
X165719138Y-118600063D01*
X165725450Y-118594971D01*
X165746312Y-118592713D01*
X165772981Y-118585500D01*
X176249548Y-118585500D01*
X176316587Y-118605185D01*
X176337229Y-118621819D01*
X182074819Y-124359410D01*
X182108304Y-124420733D01*
X182111099Y-124443992D01*
X182197185Y-127887401D01*
X182179182Y-127954911D01*
X182127538Y-128001972D01*
X182073224Y-128014500D01*
X170178389Y-128014500D01*
X170057553Y-128038535D01*
X170057541Y-128038539D01*
X170025262Y-128051909D01*
X170010397Y-128058067D01*
X169943719Y-128085685D01*
X169943717Y-128085686D01*
X169841266Y-128154141D01*
X164377837Y-133617570D01*
X164316514Y-133651055D01*
X164251842Y-133647821D01*
X164236246Y-133642754D01*
X164077239Y-133617570D01*
X164026287Y-133609500D01*
X163813713Y-133609500D01*
X163765042Y-133617208D01*
X163603760Y-133642753D01*
X163401585Y-133708444D01*
X163212179Y-133804951D01*
X163040213Y-133929890D01*
X162889890Y-134080213D01*
X162764951Y-134252179D01*
X162668444Y-134441585D01*
X162602754Y-134643757D01*
X162569500Y-134853713D01*
X162569500Y-135066286D01*
X162601688Y-135269517D01*
X162602754Y-135276243D01*
X162667613Y-135475858D01*
X162668444Y-135478414D01*
X162764951Y-135667820D01*
X162889890Y-135839786D01*
X163040213Y-135990109D01*
X163212182Y-136115050D01*
X163220946Y-136119516D01*
X163271742Y-136167491D01*
X163288536Y-136235312D01*
X163265998Y-136301447D01*
X163220946Y-136340484D01*
X163212182Y-136344949D01*
X163040213Y-136469890D01*
X162889890Y-136620213D01*
X162764951Y-136792179D01*
X162668444Y-136981585D01*
X162602753Y-137183760D01*
X162569500Y-137393713D01*
X162569500Y-137606286D01*
X162600182Y-137800009D01*
X162602754Y-137816243D01*
X162656376Y-137981275D01*
X162668444Y-138018414D01*
X162764951Y-138207820D01*
X162889890Y-138379786D01*
X163040213Y-138530109D01*
X163212179Y-138655048D01*
X163212181Y-138655049D01*
X163212184Y-138655051D01*
X163401588Y-138751557D01*
X163603757Y-138817246D01*
X163813713Y-138850500D01*
X163813714Y-138850500D01*
X164026286Y-138850500D01*
X164026287Y-138850500D01*
X164236243Y-138817246D01*
X164251840Y-138812177D01*
X164321679Y-138810183D01*
X164377838Y-138842428D01*
X164823229Y-139287819D01*
X164856714Y-139349142D01*
X164851730Y-139418834D01*
X164809858Y-139474767D01*
X164744394Y-139499184D01*
X164735548Y-139499500D01*
X161624500Y-139499500D01*
X161557461Y-139479815D01*
X161511706Y-139427011D01*
X161500500Y-139375500D01*
X161500500Y-95199983D01*
X164999500Y-95199983D01*
X164999500Y-96800001D01*
X164999501Y-96800018D01*
X165010000Y-96902796D01*
X165010001Y-96902799D01*
X165035312Y-96979181D01*
X165065186Y-97069334D01*
X165157288Y-97218656D01*
X165281344Y-97342712D01*
X165323102Y-97368468D01*
X165329656Y-97372511D01*
X165376381Y-97424459D01*
X165387604Y-97493421D01*
X165359760Y-97557504D01*
X165358615Y-97558759D01*
X165358647Y-97558786D01*
X165355485Y-97562487D01*
X165355483Y-97562490D01*
X165295862Y-97644550D01*
X165216657Y-97753566D01*
X165109433Y-97964003D01*
X165036446Y-98188631D01*
X164999500Y-98421902D01*
X164999500Y-98658097D01*
X165036446Y-98891368D01*
X165109433Y-99115996D01*
X165193644Y-99281267D01*
X165216657Y-99326433D01*
X165355483Y-99517510D01*
X165522490Y-99684517D01*
X165713567Y-99823343D01*
X165812991Y-99874002D01*
X165924003Y-99930566D01*
X165924005Y-99930566D01*
X165924008Y-99930568D01*
X166044412Y-99969689D01*
X166148631Y-100003553D01*
X166381903Y-100040500D01*
X166381908Y-100040500D01*
X166618097Y-100040500D01*
X166851368Y-100003553D01*
X167075992Y-99930568D01*
X167286433Y-99823343D01*
X167477510Y-99684517D01*
X167644517Y-99517510D01*
X167783343Y-99326433D01*
X167890568Y-99115992D01*
X167963553Y-98891368D01*
X167969287Y-98855163D01*
X168000500Y-98658097D01*
X168000500Y-98421902D01*
X167963553Y-98188631D01*
X167914639Y-98038092D01*
X167890568Y-97964008D01*
X167890566Y-97964005D01*
X167890566Y-97964003D01*
X167807971Y-97801902D01*
X167783343Y-97753567D01*
X167644517Y-97562490D01*
X167644508Y-97562481D01*
X167641353Y-97558786D01*
X167643134Y-97557264D01*
X167614273Y-97504408D01*
X167619257Y-97434716D01*
X167661129Y-97378783D01*
X167670334Y-97372516D01*
X167718656Y-97342712D01*
X167842712Y-97218656D01*
X167934814Y-97069334D01*
X167989999Y-96902797D01*
X168000500Y-96800009D01*
X168000499Y-95199992D01*
X167989999Y-95097203D01*
X167934814Y-94930666D01*
X167842712Y-94781344D01*
X167718656Y-94657288D01*
X167615346Y-94593566D01*
X167569336Y-94565187D01*
X167569331Y-94565185D01*
X167567862Y-94564698D01*
X167402797Y-94510001D01*
X167402795Y-94510000D01*
X167300010Y-94499500D01*
X165699998Y-94499500D01*
X165699981Y-94499501D01*
X165597203Y-94510000D01*
X165597200Y-94510001D01*
X165430668Y-94565185D01*
X165430663Y-94565187D01*
X165281342Y-94657289D01*
X165157289Y-94781342D01*
X165065187Y-94930663D01*
X165065185Y-94930668D01*
X165010001Y-95097203D01*
X164999500Y-95199983D01*
X161500500Y-95199983D01*
X161500500Y-40624500D01*
X161520185Y-40557461D01*
X161572989Y-40511706D01*
X161624500Y-40500500D01*
X240375500Y-40500500D01*
X240442539Y-40520185D01*
G37*
%TD.AperFunction*%
%TA.AperFunction,Conductor*%
G36*
X219807657Y-134994104D02*
G01*
X219827404Y-134992550D01*
X219895781Y-135006914D01*
X219937451Y-135043282D01*
X219980483Y-135102510D01*
X220147490Y-135269517D01*
X220338567Y-135408343D01*
X220437991Y-135459002D01*
X220549003Y-135515566D01*
X220549005Y-135515566D01*
X220549008Y-135515568D01*
X220601852Y-135532738D01*
X220773631Y-135588553D01*
X221006903Y-135625500D01*
X221006908Y-135625500D01*
X221243097Y-135625500D01*
X221351948Y-135608259D01*
X221476368Y-135588553D01*
X221575880Y-135556218D01*
X221645719Y-135554224D01*
X221701878Y-135586469D01*
X221903228Y-135787819D01*
X221936713Y-135849142D01*
X221931729Y-135918834D01*
X221889857Y-135974767D01*
X221824393Y-135999184D01*
X221815547Y-135999500D01*
X219385782Y-135999500D01*
X219318743Y-135979815D01*
X219298101Y-135963181D01*
X219069320Y-135734400D01*
X219035835Y-135673077D01*
X219040819Y-135603385D01*
X219082691Y-135547452D01*
X219118684Y-135528788D01*
X219160800Y-135515103D01*
X219371163Y-135407918D01*
X219371169Y-135407914D01*
X219454104Y-135347658D01*
X219454105Y-135347658D01*
X218796058Y-134689612D01*
X218816591Y-134684111D01*
X218953408Y-134605119D01*
X219065119Y-134493408D01*
X219144111Y-134356591D01*
X219149612Y-134336058D01*
X219807657Y-134994104D01*
G37*
%TD.AperFunction*%
%TA.AperFunction,Conductor*%
G36*
X233421539Y-134485561D02*
G01*
X233477473Y-134527432D01*
X233500679Y-134582345D01*
X233536934Y-134811247D01*
X233609897Y-135035802D01*
X233717087Y-135246174D01*
X233777338Y-135329104D01*
X233777340Y-135329105D01*
X234435387Y-134671058D01*
X234440889Y-134691591D01*
X234519881Y-134828408D01*
X234631592Y-134940119D01*
X234768409Y-135019111D01*
X234788940Y-135024612D01*
X234350371Y-135463181D01*
X234289048Y-135496666D01*
X234262692Y-135499500D01*
X234199999Y-135499500D01*
X234199980Y-135499501D01*
X234097203Y-135510000D01*
X234097200Y-135510001D01*
X233930668Y-135565185D01*
X233930663Y-135565187D01*
X233781342Y-135657289D01*
X233657289Y-135781342D01*
X233625784Y-135832419D01*
X233567441Y-135927011D01*
X233561395Y-135936813D01*
X233559600Y-135935706D01*
X233520313Y-135980337D01*
X233454092Y-135999500D01*
X232104451Y-135999500D01*
X232037412Y-135979815D01*
X231991657Y-135927011D01*
X231981713Y-135857853D01*
X232010738Y-135794297D01*
X232016770Y-135787819D01*
X232328731Y-135475858D01*
X233290529Y-134514059D01*
X233351848Y-134480577D01*
X233421539Y-134485561D01*
G37*
%TD.AperFunction*%
%TA.AperFunction,Conductor*%
G36*
X179113887Y-75805185D02*
G01*
X179134529Y-75821819D01*
X208737218Y-105424508D01*
X208770703Y-105485831D01*
X208772010Y-105531587D01*
X208749500Y-105673707D01*
X208749500Y-105886286D01*
X208782753Y-106096240D01*
X208836671Y-106262182D01*
X208838666Y-106332023D01*
X208802586Y-106391856D01*
X208739885Y-106422684D01*
X208718740Y-106424500D01*
X186081260Y-106424500D01*
X186014221Y-106404815D01*
X185968466Y-106352011D01*
X185958522Y-106282853D01*
X185963329Y-106262182D01*
X185968520Y-106246203D01*
X186017246Y-106096243D01*
X186050500Y-105886287D01*
X186050500Y-105673713D01*
X186017246Y-105463757D01*
X185951557Y-105261588D01*
X185855051Y-105072184D01*
X185855049Y-105072181D01*
X185855048Y-105072179D01*
X185730109Y-104900213D01*
X185579786Y-104749890D01*
X185407817Y-104624949D01*
X185398504Y-104620204D01*
X185347707Y-104572230D01*
X185330912Y-104504409D01*
X185353449Y-104438274D01*
X185398507Y-104399232D01*
X185407555Y-104394622D01*
X185461716Y-104355270D01*
X185461717Y-104355270D01*
X184829409Y-103722962D01*
X184892993Y-103705925D01*
X185007007Y-103640099D01*
X185100099Y-103547007D01*
X185165925Y-103432993D01*
X185182962Y-103369409D01*
X185815270Y-104001717D01*
X185815270Y-104001716D01*
X185854622Y-103947554D01*
X185951095Y-103758217D01*
X186016757Y-103556130D01*
X186016757Y-103556127D01*
X186050000Y-103346246D01*
X186050000Y-103133753D01*
X186016757Y-102923872D01*
X186016757Y-102923869D01*
X185951093Y-102721780D01*
X185951094Y-102721780D01*
X185925175Y-102670913D01*
X185923829Y-102663749D01*
X185919463Y-102657912D01*
X185917466Y-102629869D01*
X185912278Y-102602244D01*
X185915018Y-102595491D01*
X185914501Y-102588219D01*
X185927983Y-102563548D01*
X185938554Y-102537503D01*
X185945334Y-102531796D01*
X185948007Y-102526907D01*
X185963217Y-102516747D01*
X185976268Y-102505765D01*
X185982079Y-102502593D01*
X186034186Y-102481012D01*
X186085409Y-102446784D01*
X186136633Y-102412558D01*
X186223758Y-102325433D01*
X186223758Y-102325431D01*
X186233966Y-102315224D01*
X186233966Y-102315222D01*
X186439158Y-102110033D01*
X186507612Y-102007585D01*
X186535232Y-101940903D01*
X186554763Y-101893752D01*
X186560463Y-101865094D01*
X186578801Y-101772906D01*
X186578801Y-101649693D01*
X186578801Y-101644583D01*
X186578800Y-101644557D01*
X186578800Y-99618396D01*
X186578800Y-99618394D01*
X186554763Y-99497548D01*
X186548525Y-99482488D01*
X186530978Y-99440126D01*
X186516926Y-99406202D01*
X186507612Y-99383715D01*
X186489032Y-99355909D01*
X186439158Y-99281267D01*
X186417392Y-99259501D01*
X186411934Y-99252137D01*
X186402914Y-99227598D01*
X186390388Y-99204658D01*
X186391054Y-99195333D01*
X186387829Y-99186557D01*
X186393507Y-99161039D01*
X186395372Y-99134966D01*
X186400975Y-99127481D01*
X186403006Y-99118355D01*
X186421579Y-99099957D01*
X186437244Y-99079033D01*
X186446002Y-99075766D01*
X186452646Y-99069186D01*
X186478217Y-99063750D01*
X186502708Y-99054616D01*
X186511554Y-99054300D01*
X186603544Y-99054300D01*
X186603545Y-99054299D01*
X186758197Y-99023537D01*
X186903879Y-98963194D01*
X186998309Y-98900098D01*
X187012446Y-98895123D01*
X187021990Y-98887735D01*
X187046706Y-98883068D01*
X187056352Y-98879675D01*
X187061761Y-98879200D01*
X187184407Y-98879200D01*
X187274740Y-98861232D01*
X187281369Y-98859913D01*
X187281373Y-98859913D01*
X187292441Y-98857711D01*
X187305252Y-98855163D01*
X187365361Y-98830265D01*
X187365362Y-98830264D01*
X187365365Y-98830264D01*
X187419081Y-98808014D01*
X187419080Y-98808014D01*
X187419086Y-98808012D01*
X187470309Y-98773784D01*
X187521533Y-98739558D01*
X187608658Y-98652433D01*
X187608659Y-98652430D01*
X188206158Y-98054933D01*
X188274612Y-97952485D01*
X188316541Y-97851258D01*
X188321763Y-97838652D01*
X188335848Y-97767842D01*
X188345801Y-97717806D01*
X188345801Y-97594593D01*
X188345801Y-97589483D01*
X188345800Y-97589457D01*
X188345800Y-96619036D01*
X188345800Y-96618694D01*
X188345015Y-96614749D01*
X188328045Y-96529432D01*
X188321763Y-96497848D01*
X188289310Y-96419500D01*
X188274612Y-96384015D01*
X188256903Y-96357512D01*
X188232662Y-96321232D01*
X188206158Y-96281567D01*
X188206153Y-96281561D01*
X188115937Y-96191345D01*
X188115906Y-96191316D01*
X176342428Y-84417838D01*
X176308943Y-84356515D01*
X176312177Y-84291841D01*
X176317246Y-84276243D01*
X176350500Y-84066287D01*
X176350500Y-83853713D01*
X176317246Y-83643757D01*
X176251557Y-83441588D01*
X176155051Y-83252184D01*
X176155049Y-83252181D01*
X176155048Y-83252179D01*
X176030109Y-83080213D01*
X175879786Y-82929890D01*
X175707820Y-82804951D01*
X175518414Y-82708444D01*
X175518413Y-82708443D01*
X175518412Y-82708443D01*
X175316243Y-82642754D01*
X175316241Y-82642753D01*
X175316240Y-82642753D01*
X175154957Y-82617208D01*
X175106287Y-82609500D01*
X174893713Y-82609500D01*
X174845042Y-82617208D01*
X174683760Y-82642753D01*
X174481585Y-82708444D01*
X174292179Y-82804951D01*
X174120213Y-82929890D01*
X173969890Y-83080213D01*
X173844951Y-83252179D01*
X173748444Y-83441585D01*
X173682753Y-83643760D01*
X173649500Y-83853713D01*
X173649500Y-84066286D01*
X173664817Y-84162994D01*
X173655862Y-84232288D01*
X173610866Y-84285740D01*
X173544115Y-84306379D01*
X173476801Y-84287654D01*
X173454663Y-84270073D01*
X167461469Y-78276879D01*
X167427984Y-78215556D01*
X167431218Y-78150881D01*
X167463553Y-78051368D01*
X167500500Y-77818097D01*
X167500500Y-77581902D01*
X167463553Y-77348631D01*
X167414701Y-77198282D01*
X167390568Y-77124008D01*
X167390566Y-77124005D01*
X167390566Y-77124003D01*
X167283342Y-76913566D01*
X167233328Y-76844728D01*
X167144517Y-76722490D01*
X166977510Y-76555483D01*
X166942872Y-76530317D01*
X166900207Y-76474989D01*
X166894228Y-76405375D01*
X166926833Y-76343580D01*
X166942873Y-76329682D01*
X166977510Y-76304517D01*
X167144517Y-76137510D01*
X167283343Y-75946433D01*
X167330845Y-75853205D01*
X167378820Y-75802409D01*
X167441330Y-75785500D01*
X179046848Y-75785500D01*
X179113887Y-75805185D01*
G37*
%TD.AperFunction*%
%TD*%
M02*
