%TF.GenerationSoftware,KiCad,Pcbnew,10.0.3-10.0.3~ubuntu24.04.1*%
%TF.CreationDate,2026-06-02T08:09:19+02:00*%
%TF.ProjectId,_V0_3-Scale_Module,5f56305f-332d-4536-9361-6c655f4d6f64,rev?*%
%TF.SameCoordinates,Original*%
%TF.FileFunction,Legend,Bot*%
%TF.FilePolarity,Positive*%
%FSLAX46Y46*%
G04 Gerber Fmt 4.6, Leading zero omitted, Abs format (unit mm)*
G04 Created by KiCad (PCBNEW 10.0.3-10.0.3~ubuntu24.04.1) date 2026-06-02 08:09:19*
%MOMM*%
%LPD*%
G01*
G04 APERTURE LIST*
%ADD10C,0.100000*%
G04 APERTURE END LIST*
D10*
X189550000Y-46500000D02*
X202550000Y-46500000D01*
X202550000Y-49500000D01*
X189550000Y-49500000D01*
X189550000Y-46500000D01*
G36*
X189550000Y-46500000D02*
G01*
X202550000Y-46500000D01*
X202550000Y-49500000D01*
X189550000Y-49500000D01*
X189550000Y-46500000D01*
G37*
X189550000Y-52500000D02*
X209050000Y-52500000D01*
X209050000Y-64500000D01*
X189550000Y-64500000D01*
X189550000Y-52500000D01*
G36*
X189550000Y-52500000D02*
G01*
X209050000Y-52500000D01*
X209050000Y-64500000D01*
X189550000Y-64500000D01*
X189550000Y-52500000D01*
G37*
X177791353Y-129762475D02*
X177172306Y-129762475D01*
X177172306Y-129762475D02*
X177505639Y-130143427D01*
X177505639Y-130143427D02*
X177362782Y-130143427D01*
X177362782Y-130143427D02*
X177267544Y-130191046D01*
X177267544Y-130191046D02*
X177219925Y-130238665D01*
X177219925Y-130238665D02*
X177172306Y-130333903D01*
X177172306Y-130333903D02*
X177172306Y-130571998D01*
X177172306Y-130571998D02*
X177219925Y-130667236D01*
X177219925Y-130667236D02*
X177267544Y-130714856D01*
X177267544Y-130714856D02*
X177362782Y-130762475D01*
X177362782Y-130762475D02*
X177648496Y-130762475D01*
X177648496Y-130762475D02*
X177743734Y-130714856D01*
X177743734Y-130714856D02*
X177791353Y-130667236D01*
X176743734Y-130667236D02*
X176696115Y-130714856D01*
X176696115Y-130714856D02*
X176743734Y-130762475D01*
X176743734Y-130762475D02*
X176791353Y-130714856D01*
X176791353Y-130714856D02*
X176743734Y-130667236D01*
X176743734Y-130667236D02*
X176743734Y-130762475D01*
X176362782Y-129762475D02*
X175743735Y-129762475D01*
X175743735Y-129762475D02*
X176077068Y-130143427D01*
X176077068Y-130143427D02*
X175934211Y-130143427D01*
X175934211Y-130143427D02*
X175838973Y-130191046D01*
X175838973Y-130191046D02*
X175791354Y-130238665D01*
X175791354Y-130238665D02*
X175743735Y-130333903D01*
X175743735Y-130333903D02*
X175743735Y-130571998D01*
X175743735Y-130571998D02*
X175791354Y-130667236D01*
X175791354Y-130667236D02*
X175838973Y-130714856D01*
X175838973Y-130714856D02*
X175934211Y-130762475D01*
X175934211Y-130762475D02*
X176219925Y-130762475D01*
X176219925Y-130762475D02*
X176315163Y-130714856D01*
X176315163Y-130714856D02*
X176362782Y-130667236D01*
X174362782Y-129762475D02*
X174267544Y-129762475D01*
X174267544Y-129762475D02*
X174172306Y-129810094D01*
X174172306Y-129810094D02*
X174124687Y-129857713D01*
X174124687Y-129857713D02*
X174077068Y-129952951D01*
X174077068Y-129952951D02*
X174029449Y-130143427D01*
X174029449Y-130143427D02*
X174029449Y-130381522D01*
X174029449Y-130381522D02*
X174077068Y-130571998D01*
X174077068Y-130571998D02*
X174124687Y-130667236D01*
X174124687Y-130667236D02*
X174172306Y-130714856D01*
X174172306Y-130714856D02*
X174267544Y-130762475D01*
X174267544Y-130762475D02*
X174362782Y-130762475D01*
X174362782Y-130762475D02*
X174458020Y-130714856D01*
X174458020Y-130714856D02*
X174505639Y-130667236D01*
X174505639Y-130667236D02*
X174553258Y-130571998D01*
X174553258Y-130571998D02*
X174600877Y-130381522D01*
X174600877Y-130381522D02*
X174600877Y-130143427D01*
X174600877Y-130143427D02*
X174553258Y-129952951D01*
X174553258Y-129952951D02*
X174505639Y-129857713D01*
X174505639Y-129857713D02*
X174458020Y-129810094D01*
X174458020Y-129810094D02*
X174362782Y-129762475D01*
X173648496Y-129857713D02*
X173600877Y-129810094D01*
X173600877Y-129810094D02*
X173505639Y-129762475D01*
X173505639Y-129762475D02*
X173267544Y-129762475D01*
X173267544Y-129762475D02*
X173172306Y-129810094D01*
X173172306Y-129810094D02*
X173124687Y-129857713D01*
X173124687Y-129857713D02*
X173077068Y-129952951D01*
X173077068Y-129952951D02*
X173077068Y-130048189D01*
X173077068Y-130048189D02*
X173124687Y-130191046D01*
X173124687Y-130191046D02*
X173696115Y-130762475D01*
X173696115Y-130762475D02*
X173077068Y-130762475D01*
X171934210Y-129857713D02*
X171886591Y-129810094D01*
X171886591Y-129810094D02*
X171791353Y-129762475D01*
X171791353Y-129762475D02*
X171553258Y-129762475D01*
X171553258Y-129762475D02*
X171458020Y-129810094D01*
X171458020Y-129810094D02*
X171410401Y-129857713D01*
X171410401Y-129857713D02*
X171362782Y-129952951D01*
X171362782Y-129952951D02*
X171362782Y-130048189D01*
X171362782Y-130048189D02*
X171410401Y-130191046D01*
X171410401Y-130191046D02*
X171981829Y-130762475D01*
X171981829Y-130762475D02*
X171362782Y-130762475D01*
X170981829Y-129857713D02*
X170934210Y-129810094D01*
X170934210Y-129810094D02*
X170838972Y-129762475D01*
X170838972Y-129762475D02*
X170600877Y-129762475D01*
X170600877Y-129762475D02*
X170505639Y-129810094D01*
X170505639Y-129810094D02*
X170458020Y-129857713D01*
X170458020Y-129857713D02*
X170410401Y-129952951D01*
X170410401Y-129952951D02*
X170410401Y-130048189D01*
X170410401Y-130048189D02*
X170458020Y-130191046D01*
X170458020Y-130191046D02*
X171029448Y-130762475D01*
X171029448Y-130762475D02*
X170410401Y-130762475D01*
X169267543Y-129857713D02*
X169219924Y-129810094D01*
X169219924Y-129810094D02*
X169124686Y-129762475D01*
X169124686Y-129762475D02*
X168886591Y-129762475D01*
X168886591Y-129762475D02*
X168791353Y-129810094D01*
X168791353Y-129810094D02*
X168743734Y-129857713D01*
X168743734Y-129857713D02*
X168696115Y-129952951D01*
X168696115Y-129952951D02*
X168696115Y-130048189D01*
X168696115Y-130048189D02*
X168743734Y-130191046D01*
X168743734Y-130191046D02*
X169315162Y-130762475D01*
X169315162Y-130762475D02*
X168696115Y-130762475D01*
X167838972Y-129762475D02*
X168029448Y-129762475D01*
X168029448Y-129762475D02*
X168124686Y-129810094D01*
X168124686Y-129810094D02*
X168172305Y-129857713D01*
X168172305Y-129857713D02*
X168267543Y-130000570D01*
X168267543Y-130000570D02*
X168315162Y-130191046D01*
X168315162Y-130191046D02*
X168315162Y-130571998D01*
X168315162Y-130571998D02*
X168267543Y-130667236D01*
X168267543Y-130667236D02*
X168219924Y-130714856D01*
X168219924Y-130714856D02*
X168124686Y-130762475D01*
X168124686Y-130762475D02*
X167934210Y-130762475D01*
X167934210Y-130762475D02*
X167838972Y-130714856D01*
X167838972Y-130714856D02*
X167791353Y-130667236D01*
X167791353Y-130667236D02*
X167743734Y-130571998D01*
X167743734Y-130571998D02*
X167743734Y-130333903D01*
X167743734Y-130333903D02*
X167791353Y-130238665D01*
X167791353Y-130238665D02*
X167838972Y-130191046D01*
X167838972Y-130191046D02*
X167934210Y-130143427D01*
X167934210Y-130143427D02*
X168124686Y-130143427D01*
X168124686Y-130143427D02*
X168219924Y-130191046D01*
X168219924Y-130191046D02*
X168267543Y-130238665D01*
X168267543Y-130238665D02*
X168315162Y-130333903D01*
X166696114Y-129762475D02*
X166124686Y-129762475D01*
X166410400Y-130762475D02*
X166410400Y-129762475D01*
X165886590Y-129762475D02*
X165219924Y-130762475D01*
X165219924Y-129762475D02*
X165886590Y-130762475D01*
X163505638Y-130762475D02*
X163838971Y-130286284D01*
X164077066Y-130762475D02*
X164077066Y-129762475D01*
X164077066Y-129762475D02*
X163696114Y-129762475D01*
X163696114Y-129762475D02*
X163600876Y-129810094D01*
X163600876Y-129810094D02*
X163553257Y-129857713D01*
X163553257Y-129857713D02*
X163505638Y-129952951D01*
X163505638Y-129952951D02*
X163505638Y-130095808D01*
X163505638Y-130095808D02*
X163553257Y-130191046D01*
X163553257Y-130191046D02*
X163600876Y-130238665D01*
X163600876Y-130238665D02*
X163696114Y-130286284D01*
X163696114Y-130286284D02*
X164077066Y-130286284D01*
X163172304Y-129762475D02*
X162505638Y-130762475D01*
X162505638Y-129762475D02*
X163172304Y-130762475D01*
X177172306Y-131420038D02*
X177267544Y-131372419D01*
X177267544Y-131372419D02*
X177410401Y-131372419D01*
X177410401Y-131372419D02*
X177553258Y-131420038D01*
X177553258Y-131420038D02*
X177648496Y-131515276D01*
X177648496Y-131515276D02*
X177696115Y-131610514D01*
X177696115Y-131610514D02*
X177743734Y-131800990D01*
X177743734Y-131800990D02*
X177743734Y-131943847D01*
X177743734Y-131943847D02*
X177696115Y-132134323D01*
X177696115Y-132134323D02*
X177648496Y-132229561D01*
X177648496Y-132229561D02*
X177553258Y-132324800D01*
X177553258Y-132324800D02*
X177410401Y-132372419D01*
X177410401Y-132372419D02*
X177315163Y-132372419D01*
X177315163Y-132372419D02*
X177172306Y-132324800D01*
X177172306Y-132324800D02*
X177124687Y-132277180D01*
X177124687Y-132277180D02*
X177124687Y-131943847D01*
X177124687Y-131943847D02*
X177315163Y-131943847D01*
X176696115Y-132372419D02*
X176696115Y-131372419D01*
X176696115Y-131372419D02*
X176124687Y-132372419D01*
X176124687Y-132372419D02*
X176124687Y-131372419D01*
X175648496Y-132372419D02*
X175648496Y-131372419D01*
X175648496Y-131372419D02*
X175410401Y-131372419D01*
X175410401Y-131372419D02*
X175267544Y-131420038D01*
X175267544Y-131420038D02*
X175172306Y-131515276D01*
X175172306Y-131515276D02*
X175124687Y-131610514D01*
X175124687Y-131610514D02*
X175077068Y-131800990D01*
X175077068Y-131800990D02*
X175077068Y-131943847D01*
X175077068Y-131943847D02*
X175124687Y-132134323D01*
X175124687Y-132134323D02*
X175172306Y-132229561D01*
X175172306Y-132229561D02*
X175267544Y-132324800D01*
X175267544Y-132324800D02*
X175410401Y-132372419D01*
X175410401Y-132372419D02*
X175648496Y-132372419D01*
X173362782Y-132372419D02*
X173934210Y-132372419D01*
X173648496Y-132372419D02*
X173648496Y-131372419D01*
X173648496Y-131372419D02*
X173743734Y-131515276D01*
X173743734Y-131515276D02*
X173838972Y-131610514D01*
X173838972Y-131610514D02*
X173934210Y-131658133D01*
X172981829Y-131467657D02*
X172934210Y-131420038D01*
X172934210Y-131420038D02*
X172838972Y-131372419D01*
X172838972Y-131372419D02*
X172600877Y-131372419D01*
X172600877Y-131372419D02*
X172505639Y-131420038D01*
X172505639Y-131420038D02*
X172458020Y-131467657D01*
X172458020Y-131467657D02*
X172410401Y-131562895D01*
X172410401Y-131562895D02*
X172410401Y-131658133D01*
X172410401Y-131658133D02*
X172458020Y-131800990D01*
X172458020Y-131800990D02*
X173029448Y-132372419D01*
X173029448Y-132372419D02*
X172410401Y-132372419D01*
X170696115Y-132372419D02*
X171267543Y-132372419D01*
X170981829Y-132372419D02*
X170981829Y-131372419D01*
X170981829Y-131372419D02*
X171077067Y-131515276D01*
X171077067Y-131515276D02*
X171172305Y-131610514D01*
X171172305Y-131610514D02*
X171267543Y-131658133D01*
X169791353Y-131372419D02*
X170267543Y-131372419D01*
X170267543Y-131372419D02*
X170315162Y-131848609D01*
X170315162Y-131848609D02*
X170267543Y-131800990D01*
X170267543Y-131800990D02*
X170172305Y-131753371D01*
X170172305Y-131753371D02*
X169934210Y-131753371D01*
X169934210Y-131753371D02*
X169838972Y-131800990D01*
X169838972Y-131800990D02*
X169791353Y-131848609D01*
X169791353Y-131848609D02*
X169743734Y-131943847D01*
X169743734Y-131943847D02*
X169743734Y-132181942D01*
X169743734Y-132181942D02*
X169791353Y-132277180D01*
X169791353Y-132277180D02*
X169838972Y-132324800D01*
X169838972Y-132324800D02*
X169934210Y-132372419D01*
X169934210Y-132372419D02*
X170172305Y-132372419D01*
X170172305Y-132372419D02*
X170267543Y-132324800D01*
X170267543Y-132324800D02*
X170315162Y-132277180D01*
X168600876Y-131467657D02*
X168553257Y-131420038D01*
X168553257Y-131420038D02*
X168458019Y-131372419D01*
X168458019Y-131372419D02*
X168219924Y-131372419D01*
X168219924Y-131372419D02*
X168124686Y-131420038D01*
X168124686Y-131420038D02*
X168077067Y-131467657D01*
X168077067Y-131467657D02*
X168029448Y-131562895D01*
X168029448Y-131562895D02*
X168029448Y-131658133D01*
X168029448Y-131658133D02*
X168077067Y-131800990D01*
X168077067Y-131800990D02*
X168648495Y-132372419D01*
X168648495Y-132372419D02*
X168029448Y-132372419D01*
X167124686Y-131372419D02*
X167600876Y-131372419D01*
X167600876Y-131372419D02*
X167648495Y-131848609D01*
X167648495Y-131848609D02*
X167600876Y-131800990D01*
X167600876Y-131800990D02*
X167505638Y-131753371D01*
X167505638Y-131753371D02*
X167267543Y-131753371D01*
X167267543Y-131753371D02*
X167172305Y-131800990D01*
X167172305Y-131800990D02*
X167124686Y-131848609D01*
X167124686Y-131848609D02*
X167077067Y-131943847D01*
X167077067Y-131943847D02*
X167077067Y-132181942D01*
X167077067Y-132181942D02*
X167124686Y-132277180D01*
X167124686Y-132277180D02*
X167172305Y-132324800D01*
X167172305Y-132324800D02*
X167267543Y-132372419D01*
X167267543Y-132372419D02*
X167505638Y-132372419D01*
X167505638Y-132372419D02*
X167600876Y-132324800D01*
X167600876Y-132324800D02*
X167648495Y-132277180D01*
X165981828Y-131372419D02*
X165362781Y-131372419D01*
X165362781Y-131372419D02*
X165696114Y-131753371D01*
X165696114Y-131753371D02*
X165553257Y-131753371D01*
X165553257Y-131753371D02*
X165458019Y-131800990D01*
X165458019Y-131800990D02*
X165410400Y-131848609D01*
X165410400Y-131848609D02*
X165362781Y-131943847D01*
X165362781Y-131943847D02*
X165362781Y-132181942D01*
X165362781Y-132181942D02*
X165410400Y-132277180D01*
X165410400Y-132277180D02*
X165458019Y-132324800D01*
X165458019Y-132324800D02*
X165553257Y-132372419D01*
X165553257Y-132372419D02*
X165838971Y-132372419D01*
X165838971Y-132372419D02*
X165934209Y-132324800D01*
X165934209Y-132324800D02*
X165981828Y-132277180D01*
X164458019Y-131372419D02*
X164934209Y-131372419D01*
X164934209Y-131372419D02*
X164981828Y-131848609D01*
X164981828Y-131848609D02*
X164934209Y-131800990D01*
X164934209Y-131800990D02*
X164838971Y-131753371D01*
X164838971Y-131753371D02*
X164600876Y-131753371D01*
X164600876Y-131753371D02*
X164505638Y-131800990D01*
X164505638Y-131800990D02*
X164458019Y-131848609D01*
X164458019Y-131848609D02*
X164410400Y-131943847D01*
X164410400Y-131943847D02*
X164410400Y-132181942D01*
X164410400Y-132181942D02*
X164458019Y-132277180D01*
X164458019Y-132277180D02*
X164505638Y-132324800D01*
X164505638Y-132324800D02*
X164600876Y-132372419D01*
X164600876Y-132372419D02*
X164838971Y-132372419D01*
X164838971Y-132372419D02*
X164934209Y-132324800D01*
X164934209Y-132324800D02*
X164981828Y-132277180D01*
X163219923Y-131848609D02*
X162886590Y-131848609D01*
X162743733Y-132372419D02*
X163219923Y-132372419D01*
X163219923Y-132372419D02*
X163219923Y-131372419D01*
X163219923Y-131372419D02*
X162743733Y-131372419D01*
X162315161Y-132372419D02*
X162315161Y-131372419D01*
X162315161Y-131372419D02*
X161743733Y-132372419D01*
X161743733Y-132372419D02*
X161743733Y-131372419D01*
X208388972Y-43932643D02*
X208055639Y-44932643D01*
X208055639Y-44932643D02*
X207722306Y-43932643D01*
X207198496Y-43932643D02*
X207103258Y-43932643D01*
X207103258Y-43932643D02*
X207008020Y-43980262D01*
X207008020Y-43980262D02*
X206960401Y-44027881D01*
X206960401Y-44027881D02*
X206912782Y-44123119D01*
X206912782Y-44123119D02*
X206865163Y-44313595D01*
X206865163Y-44313595D02*
X206865163Y-44551690D01*
X206865163Y-44551690D02*
X206912782Y-44742166D01*
X206912782Y-44742166D02*
X206960401Y-44837404D01*
X206960401Y-44837404D02*
X207008020Y-44885024D01*
X207008020Y-44885024D02*
X207103258Y-44932643D01*
X207103258Y-44932643D02*
X207198496Y-44932643D01*
X207198496Y-44932643D02*
X207293734Y-44885024D01*
X207293734Y-44885024D02*
X207341353Y-44837404D01*
X207341353Y-44837404D02*
X207388972Y-44742166D01*
X207388972Y-44742166D02*
X207436591Y-44551690D01*
X207436591Y-44551690D02*
X207436591Y-44313595D01*
X207436591Y-44313595D02*
X207388972Y-44123119D01*
X207388972Y-44123119D02*
X207341353Y-44027881D01*
X207341353Y-44027881D02*
X207293734Y-43980262D01*
X207293734Y-43980262D02*
X207198496Y-43932643D01*
X206436591Y-44837404D02*
X206388972Y-44885024D01*
X206388972Y-44885024D02*
X206436591Y-44932643D01*
X206436591Y-44932643D02*
X206484210Y-44885024D01*
X206484210Y-44885024D02*
X206436591Y-44837404D01*
X206436591Y-44837404D02*
X206436591Y-44932643D01*
X206055639Y-43932643D02*
X205436592Y-43932643D01*
X205436592Y-43932643D02*
X205769925Y-44313595D01*
X205769925Y-44313595D02*
X205627068Y-44313595D01*
X205627068Y-44313595D02*
X205531830Y-44361214D01*
X205531830Y-44361214D02*
X205484211Y-44408833D01*
X205484211Y-44408833D02*
X205436592Y-44504071D01*
X205436592Y-44504071D02*
X205436592Y-44742166D01*
X205436592Y-44742166D02*
X205484211Y-44837404D01*
X205484211Y-44837404D02*
X205531830Y-44885024D01*
X205531830Y-44885024D02*
X205627068Y-44932643D01*
X205627068Y-44932643D02*
X205912782Y-44932643D01*
X205912782Y-44932643D02*
X206008020Y-44885024D01*
X206008020Y-44885024D02*
X206055639Y-44837404D01*
X204293734Y-44885024D02*
X204150877Y-44932643D01*
X204150877Y-44932643D02*
X203912782Y-44932643D01*
X203912782Y-44932643D02*
X203817544Y-44885024D01*
X203817544Y-44885024D02*
X203769925Y-44837404D01*
X203769925Y-44837404D02*
X203722306Y-44742166D01*
X203722306Y-44742166D02*
X203722306Y-44646928D01*
X203722306Y-44646928D02*
X203769925Y-44551690D01*
X203769925Y-44551690D02*
X203817544Y-44504071D01*
X203817544Y-44504071D02*
X203912782Y-44456452D01*
X203912782Y-44456452D02*
X204103258Y-44408833D01*
X204103258Y-44408833D02*
X204198496Y-44361214D01*
X204198496Y-44361214D02*
X204246115Y-44313595D01*
X204246115Y-44313595D02*
X204293734Y-44218357D01*
X204293734Y-44218357D02*
X204293734Y-44123119D01*
X204293734Y-44123119D02*
X204246115Y-44027881D01*
X204246115Y-44027881D02*
X204198496Y-43980262D01*
X204198496Y-43980262D02*
X204103258Y-43932643D01*
X204103258Y-43932643D02*
X203865163Y-43932643D01*
X203865163Y-43932643D02*
X203722306Y-43980262D01*
X202865163Y-44885024D02*
X202960401Y-44932643D01*
X202960401Y-44932643D02*
X203150877Y-44932643D01*
X203150877Y-44932643D02*
X203246115Y-44885024D01*
X203246115Y-44885024D02*
X203293734Y-44837404D01*
X203293734Y-44837404D02*
X203341353Y-44742166D01*
X203341353Y-44742166D02*
X203341353Y-44456452D01*
X203341353Y-44456452D02*
X203293734Y-44361214D01*
X203293734Y-44361214D02*
X203246115Y-44313595D01*
X203246115Y-44313595D02*
X203150877Y-44265976D01*
X203150877Y-44265976D02*
X202960401Y-44265976D01*
X202960401Y-44265976D02*
X202865163Y-44313595D01*
X202008020Y-44932643D02*
X202008020Y-44408833D01*
X202008020Y-44408833D02*
X202055639Y-44313595D01*
X202055639Y-44313595D02*
X202150877Y-44265976D01*
X202150877Y-44265976D02*
X202341353Y-44265976D01*
X202341353Y-44265976D02*
X202436591Y-44313595D01*
X202008020Y-44885024D02*
X202103258Y-44932643D01*
X202103258Y-44932643D02*
X202341353Y-44932643D01*
X202341353Y-44932643D02*
X202436591Y-44885024D01*
X202436591Y-44885024D02*
X202484210Y-44789785D01*
X202484210Y-44789785D02*
X202484210Y-44694547D01*
X202484210Y-44694547D02*
X202436591Y-44599309D01*
X202436591Y-44599309D02*
X202341353Y-44551690D01*
X202341353Y-44551690D02*
X202103258Y-44551690D01*
X202103258Y-44551690D02*
X202008020Y-44504071D01*
X201388972Y-44932643D02*
X201484210Y-44885024D01*
X201484210Y-44885024D02*
X201531829Y-44789785D01*
X201531829Y-44789785D02*
X201531829Y-43932643D01*
X200627067Y-44885024D02*
X200722305Y-44932643D01*
X200722305Y-44932643D02*
X200912781Y-44932643D01*
X200912781Y-44932643D02*
X201008019Y-44885024D01*
X201008019Y-44885024D02*
X201055638Y-44789785D01*
X201055638Y-44789785D02*
X201055638Y-44408833D01*
X201055638Y-44408833D02*
X201008019Y-44313595D01*
X201008019Y-44313595D02*
X200912781Y-44265976D01*
X200912781Y-44265976D02*
X200722305Y-44265976D01*
X200722305Y-44265976D02*
X200627067Y-44313595D01*
X200627067Y-44313595D02*
X200579448Y-44408833D01*
X200579448Y-44408833D02*
X200579448Y-44504071D01*
X200579448Y-44504071D02*
X201055638Y-44599309D01*
X200150876Y-44932643D02*
X200150876Y-43932643D01*
X200150876Y-43932643D02*
X199769924Y-43932643D01*
X199769924Y-43932643D02*
X199674686Y-43980262D01*
X199674686Y-43980262D02*
X199627067Y-44027881D01*
X199627067Y-44027881D02*
X199579448Y-44123119D01*
X199579448Y-44123119D02*
X199579448Y-44265976D01*
X199579448Y-44265976D02*
X199627067Y-44361214D01*
X199627067Y-44361214D02*
X199674686Y-44408833D01*
X199674686Y-44408833D02*
X199769924Y-44456452D01*
X199769924Y-44456452D02*
X200150876Y-44456452D01*
X198579448Y-44837404D02*
X198627067Y-44885024D01*
X198627067Y-44885024D02*
X198769924Y-44932643D01*
X198769924Y-44932643D02*
X198865162Y-44932643D01*
X198865162Y-44932643D02*
X199008019Y-44885024D01*
X199008019Y-44885024D02*
X199103257Y-44789785D01*
X199103257Y-44789785D02*
X199150876Y-44694547D01*
X199150876Y-44694547D02*
X199198495Y-44504071D01*
X199198495Y-44504071D02*
X199198495Y-44361214D01*
X199198495Y-44361214D02*
X199150876Y-44170738D01*
X199150876Y-44170738D02*
X199103257Y-44075500D01*
X199103257Y-44075500D02*
X199008019Y-43980262D01*
X199008019Y-43980262D02*
X198865162Y-43932643D01*
X198865162Y-43932643D02*
X198769924Y-43932643D01*
X198769924Y-43932643D02*
X198627067Y-43980262D01*
X198627067Y-43980262D02*
X198579448Y-44027881D01*
X197817543Y-44408833D02*
X197674686Y-44456452D01*
X197674686Y-44456452D02*
X197627067Y-44504071D01*
X197627067Y-44504071D02*
X197579448Y-44599309D01*
X197579448Y-44599309D02*
X197579448Y-44742166D01*
X197579448Y-44742166D02*
X197627067Y-44837404D01*
X197627067Y-44837404D02*
X197674686Y-44885024D01*
X197674686Y-44885024D02*
X197769924Y-44932643D01*
X197769924Y-44932643D02*
X198150876Y-44932643D01*
X198150876Y-44932643D02*
X198150876Y-43932643D01*
X198150876Y-43932643D02*
X197817543Y-43932643D01*
X197817543Y-43932643D02*
X197722305Y-43980262D01*
X197722305Y-43980262D02*
X197674686Y-44027881D01*
X197674686Y-44027881D02*
X197627067Y-44123119D01*
X197627067Y-44123119D02*
X197627067Y-44218357D01*
X197627067Y-44218357D02*
X197674686Y-44313595D01*
X197674686Y-44313595D02*
X197722305Y-44361214D01*
X197722305Y-44361214D02*
X197817543Y-44408833D01*
X197817543Y-44408833D02*
X198150876Y-44408833D01*
X208246115Y-48152531D02*
X208246115Y-47152531D01*
X208246115Y-47152531D02*
X208008020Y-47152531D01*
X208008020Y-47152531D02*
X207865163Y-47200150D01*
X207865163Y-47200150D02*
X207769925Y-47295388D01*
X207769925Y-47295388D02*
X207722306Y-47390626D01*
X207722306Y-47390626D02*
X207674687Y-47581102D01*
X207674687Y-47581102D02*
X207674687Y-47723959D01*
X207674687Y-47723959D02*
X207722306Y-47914435D01*
X207722306Y-47914435D02*
X207769925Y-48009673D01*
X207769925Y-48009673D02*
X207865163Y-48104912D01*
X207865163Y-48104912D02*
X208008020Y-48152531D01*
X208008020Y-48152531D02*
X208246115Y-48152531D01*
X206865163Y-48104912D02*
X206960401Y-48152531D01*
X206960401Y-48152531D02*
X207150877Y-48152531D01*
X207150877Y-48152531D02*
X207246115Y-48104912D01*
X207246115Y-48104912D02*
X207293734Y-48009673D01*
X207293734Y-48009673D02*
X207293734Y-47628721D01*
X207293734Y-47628721D02*
X207246115Y-47533483D01*
X207246115Y-47533483D02*
X207150877Y-47485864D01*
X207150877Y-47485864D02*
X206960401Y-47485864D01*
X206960401Y-47485864D02*
X206865163Y-47533483D01*
X206865163Y-47533483D02*
X206817544Y-47628721D01*
X206817544Y-47628721D02*
X206817544Y-47723959D01*
X206817544Y-47723959D02*
X207293734Y-47819197D01*
X206484210Y-47485864D02*
X206246115Y-48152531D01*
X206246115Y-48152531D02*
X206008020Y-47485864D01*
X205627067Y-48152531D02*
X205627067Y-47485864D01*
X205627067Y-47152531D02*
X205674686Y-47200150D01*
X205674686Y-47200150D02*
X205627067Y-47247769D01*
X205627067Y-47247769D02*
X205579448Y-47200150D01*
X205579448Y-47200150D02*
X205627067Y-47152531D01*
X205627067Y-47152531D02*
X205627067Y-47247769D01*
X204722306Y-48104912D02*
X204817544Y-48152531D01*
X204817544Y-48152531D02*
X205008020Y-48152531D01*
X205008020Y-48152531D02*
X205103258Y-48104912D01*
X205103258Y-48104912D02*
X205150877Y-48057292D01*
X205150877Y-48057292D02*
X205198496Y-47962054D01*
X205198496Y-47962054D02*
X205198496Y-47676340D01*
X205198496Y-47676340D02*
X205150877Y-47581102D01*
X205150877Y-47581102D02*
X205103258Y-47533483D01*
X205103258Y-47533483D02*
X205008020Y-47485864D01*
X205008020Y-47485864D02*
X204817544Y-47485864D01*
X204817544Y-47485864D02*
X204722306Y-47533483D01*
X203912782Y-48104912D02*
X204008020Y-48152531D01*
X204008020Y-48152531D02*
X204198496Y-48152531D01*
X204198496Y-48152531D02*
X204293734Y-48104912D01*
X204293734Y-48104912D02*
X204341353Y-48009673D01*
X204341353Y-48009673D02*
X204341353Y-47628721D01*
X204341353Y-47628721D02*
X204293734Y-47533483D01*
X204293734Y-47533483D02*
X204198496Y-47485864D01*
X204198496Y-47485864D02*
X204008020Y-47485864D01*
X204008020Y-47485864D02*
X203912782Y-47533483D01*
X203912782Y-47533483D02*
X203865163Y-47628721D01*
X203865163Y-47628721D02*
X203865163Y-47723959D01*
X203865163Y-47723959D02*
X204341353Y-47819197D01*
X203436591Y-48057292D02*
X203388972Y-48104912D01*
X203388972Y-48104912D02*
X203436591Y-48152531D01*
X203436591Y-48152531D02*
X203484210Y-48104912D01*
X203484210Y-48104912D02*
X203436591Y-48057292D01*
X203436591Y-48057292D02*
X203436591Y-48152531D01*
X203436591Y-47533483D02*
X203388972Y-47581102D01*
X203388972Y-47581102D02*
X203436591Y-47628721D01*
X203436591Y-47628721D02*
X203484210Y-47581102D01*
X203484210Y-47581102D02*
X203436591Y-47533483D01*
X203436591Y-47533483D02*
X203436591Y-47628721D01*
X208246115Y-51372419D02*
X208246115Y-50372419D01*
X208246115Y-50372419D02*
X207674687Y-51372419D01*
X207674687Y-51372419D02*
X207674687Y-50372419D01*
X207055639Y-51372419D02*
X207150877Y-51324800D01*
X207150877Y-51324800D02*
X207198496Y-51277180D01*
X207198496Y-51277180D02*
X207246115Y-51181942D01*
X207246115Y-51181942D02*
X207246115Y-50896228D01*
X207246115Y-50896228D02*
X207198496Y-50800990D01*
X207198496Y-50800990D02*
X207150877Y-50753371D01*
X207150877Y-50753371D02*
X207055639Y-50705752D01*
X207055639Y-50705752D02*
X206912782Y-50705752D01*
X206912782Y-50705752D02*
X206817544Y-50753371D01*
X206817544Y-50753371D02*
X206769925Y-50800990D01*
X206769925Y-50800990D02*
X206722306Y-50896228D01*
X206722306Y-50896228D02*
X206722306Y-51181942D01*
X206722306Y-51181942D02*
X206769925Y-51277180D01*
X206769925Y-51277180D02*
X206817544Y-51324800D01*
X206817544Y-51324800D02*
X206912782Y-51372419D01*
X206912782Y-51372419D02*
X207055639Y-51372419D01*
X206436591Y-50705752D02*
X206055639Y-50705752D01*
X206293734Y-50372419D02*
X206293734Y-51229561D01*
X206293734Y-51229561D02*
X206246115Y-51324800D01*
X206246115Y-51324800D02*
X206150877Y-51372419D01*
X206150877Y-51372419D02*
X206055639Y-51372419D01*
X205341353Y-51324800D02*
X205436591Y-51372419D01*
X205436591Y-51372419D02*
X205627067Y-51372419D01*
X205627067Y-51372419D02*
X205722305Y-51324800D01*
X205722305Y-51324800D02*
X205769924Y-51229561D01*
X205769924Y-51229561D02*
X205769924Y-50848609D01*
X205769924Y-50848609D02*
X205722305Y-50753371D01*
X205722305Y-50753371D02*
X205627067Y-50705752D01*
X205627067Y-50705752D02*
X205436591Y-50705752D01*
X205436591Y-50705752D02*
X205341353Y-50753371D01*
X205341353Y-50753371D02*
X205293734Y-50848609D01*
X205293734Y-50848609D02*
X205293734Y-50943847D01*
X205293734Y-50943847D02*
X205769924Y-51039085D01*
X204912781Y-51324800D02*
X204817543Y-51372419D01*
X204817543Y-51372419D02*
X204627067Y-51372419D01*
X204627067Y-51372419D02*
X204531829Y-51324800D01*
X204531829Y-51324800D02*
X204484210Y-51229561D01*
X204484210Y-51229561D02*
X204484210Y-51181942D01*
X204484210Y-51181942D02*
X204531829Y-51086704D01*
X204531829Y-51086704D02*
X204627067Y-51039085D01*
X204627067Y-51039085D02*
X204769924Y-51039085D01*
X204769924Y-51039085D02*
X204865162Y-50991466D01*
X204865162Y-50991466D02*
X204912781Y-50896228D01*
X204912781Y-50896228D02*
X204912781Y-50848609D01*
X204912781Y-50848609D02*
X204865162Y-50753371D01*
X204865162Y-50753371D02*
X204769924Y-50705752D01*
X204769924Y-50705752D02*
X204627067Y-50705752D01*
X204627067Y-50705752D02*
X204531829Y-50753371D01*
X204055638Y-51277180D02*
X204008019Y-51324800D01*
X204008019Y-51324800D02*
X204055638Y-51372419D01*
X204055638Y-51372419D02*
X204103257Y-51324800D01*
X204103257Y-51324800D02*
X204055638Y-51277180D01*
X204055638Y-51277180D02*
X204055638Y-51372419D01*
X204055638Y-50753371D02*
X204008019Y-50800990D01*
X204008019Y-50800990D02*
X204055638Y-50848609D01*
X204055638Y-50848609D02*
X204103257Y-50800990D01*
X204103257Y-50800990D02*
X204055638Y-50753371D01*
X204055638Y-50753371D02*
X204055638Y-50848609D01*
M02*
